<svg xmlns="http://www.w3.org/2000/svg" width="30" height="30" viewBox="0 0 30 30"><defs><style>.a{fill:none;}.b{fill:#fff;fill-rule:evenodd;}</style></defs><g transform="translate(0.411 0.411)"><rect class="a" width="30" height="30" transform="translate(-0.411 -0.411)"/><path class="b" d="M7.343,42.111A8.625,8.625,0,0,1,7.781,39.4L2.864,35.648a14.689,14.689,0,0,0,0,12.921l4.914-3.762a8.63,8.63,0,0,1-.434-2.7" transform="translate(-1.055 -27.522)"/><path class="b" d="M21.049,5.968a8.453,8.453,0,0,1,5.379,1.923l4.25-4.244A14.6,14.6,0,0,0,7.938,8.126l4.917,3.755a8.61,8.61,0,0,1,8.195-5.912" transform="translate(-6.129)"/><path class="b" d="M21.049,81.793a8.61,8.61,0,0,1-8.194-5.912L7.938,79.635a14.565,14.565,0,0,0,13.111,8.127,13.922,13.922,0,0,0,9.519-3.636L25.9,80.517a9.037,9.037,0,0,1-4.852,1.276" transform="translate(-6.129 -58.584)"/><path class="b" d="M79.4,55.016a12.084,12.084,0,0,0-.332-2.652H65.457V58h7.836a6.57,6.57,0,0,1-2.984,4.361l4.667,3.608A14.509,14.509,0,0,0,79.4,55.016" transform="translate(-50.536 -40.428)"/></g></svg>