<svg xmlns="http://www.w3.org/2000/svg" width="118.599" height="111.261" viewBox="0 0 118.599 111.261">
  <g id="Group_132878" data-name="Group 132878" transform="translate(-6021 -3795)">
    <path id="Subtraction_9" data-name="Subtraction 9" d="M92.507,111.261A25.673,25.673,0,0,1,76.8,105.929a26.432,26.432,0,0,1-5.675-5.941,26.156,26.156,0,0,1-3.6-7.481H11.86a12.058,12.058,0,0,1-3.113-.445c6.118-1.408,10.228-5.994,10.228-11.416V2.372A2.375,2.375,0,0,1,21.348,0h85.391a2.375,2.375,0,0,1,2.372,2.372V65.082a26.087,26.087,0,0,1-16.6,46.179ZM92.5,63.5a22,22,0,1,0,22,22A22.025,22.025,0,0,0,92.5,63.5ZM37.952,75.9v4.744H61.672V75.9Zm0-9.488v4.744H61.672V66.416Zm28.463-9.488v4.744h14.9a25.72,25.72,0,0,1,8.821-2.446v-2.3Zm-28.463,0v4.744H61.672V56.928ZM66.416,47.44v4.744h23.72V47.44Zm-28.463,0v4.744H61.672V47.44Zm0-18.977v4.745H90.136V28.463Zm0-9.488V23.72H90.136V18.976ZM7.116,87.764A7.124,7.124,0,0,1,0,80.647V26.092A2.375,2.375,0,0,1,2.372,23.72H14.232V80.647a7.007,7.007,0,0,1-2.058,4.962A7.314,7.314,0,0,1,7.116,87.764Z" transform="translate(6021 3795)" fill="var(--l_base)"/>
    <path id="Icon_awesome-exclamation" data-name="Icon awesome-exclamation" d="M9.046,21.387a3.961,3.961,0,1,1-3.961-3.961A3.965,3.965,0,0,1,9.046,21.387ZM1.583,1.248l.673,13.466a1.188,1.188,0,0,0,1.187,1.129H6.728a1.188,1.188,0,0,0,1.187-1.129L8.588,1.248A1.188,1.188,0,0,0,7.4,0H2.77A1.188,1.188,0,0,0,1.583,1.248Z" transform="translate(6108.875 3868.652)" fill="var(--l_base)"/>
  </g>
</svg>
