<svg id="addPlaceholder" width="100" height="100" viewBox="0 0 100 100" fill="none"
  xmlns="http://www.w3.org/2000/svg">
  <rect width="100" height="100" rx="20" fill="currentColor"/>
  <mask id="mask0_1339_231737" style="mask-type:alpha" maskUnits="userSpaceOnUse" x="26" y="26" width="48" height="48">
    <rect x="26" y="26" width="48" height="48" fill="#D33AFF"/>
  </mask>
  <g mask="url(#mask0_1339_231737)">
    <path d="M48.3891 51.6106V58.5896C48.3891 59.0459 48.5435 59.4284 48.8523 59.737C49.1611 60.0457 49.5438 60.2001 50.0003 60.2001C50.4568 60.2001 50.8393 60.0457 51.1476 59.737C51.4559 59.4284 51.6101 59.0459 51.6101 58.5896V51.6106H58.5891C59.0454 51.6106 59.4279 51.4562 59.7366 51.1474C60.0453 50.8386 60.1996 50.4559 60.1996 49.9994C60.1996 49.5429 60.0453 49.1604 59.7366 48.8521C59.4279 48.5438 59.0454 48.3896 58.5891 48.3896H51.6101V41.4106C51.6101 40.9543 51.4557 40.5718 51.1469 40.2631C50.8381 39.9544 50.4554 39.8001 49.9989 39.8001C49.5424 39.8001 49.1599 39.9544 48.8516 40.2631C48.5433 40.5718 48.3891 40.9543 48.3891 41.4106V48.3896H41.4101C40.9538 48.3896 40.5713 48.544 40.2627 48.8528C39.954 49.1616 39.7996 49.5443 39.7996 50.0008C39.7996 50.4573 39.954 50.8398 40.2627 51.1481C40.5713 51.4564 40.9538 51.6106 41.4101 51.6106H48.3891ZM50.0032 70.4001C47.1817 70.4001 44.5296 69.8647 42.047 68.7939C39.5643 67.723 37.4047 66.2698 35.5682 64.4342C33.7317 62.5985 32.2778 60.4398 31.2065 57.9583C30.1353 55.4767 29.5996 52.8252 29.5996 50.0037C29.5996 47.1822 30.135 44.5301 31.2058 42.0475C32.2767 39.5648 33.7299 37.4052 35.5656 35.5687C37.4012 33.7322 39.5599 32.2783 42.0414 31.207C44.523 30.1357 47.1745 29.6001 49.996 29.6001C52.8175 29.6001 55.4696 30.1355 57.9522 31.2063C60.4349 32.2772 62.5945 33.7304 64.431 35.566C66.2675 37.4017 67.7214 39.5604 68.7927 42.0419C69.864 44.5235 70.3996 47.175 70.3996 49.9965C70.3996 52.818 69.8642 55.4701 68.7934 57.9527C67.7225 60.4354 66.2693 62.595 64.4337 64.4315C62.598 66.268 60.4394 67.7219 57.9578 68.7932C55.4762 69.8645 52.8247 70.4001 50.0032 70.4001ZM49.9996 67.1791C54.7954 67.1791 58.8575 65.5149 62.186 62.1864C65.5144 58.858 67.1786 54.7959 67.1786 50.0001C67.1786 45.2043 65.5144 41.1422 62.186 37.8138C58.8575 34.4853 54.7954 32.8211 49.9996 32.8211C45.2038 32.8211 41.1417 34.4853 37.8133 37.8138C34.4848 41.1422 32.8206 45.2043 32.8206 50.0001C32.8206 54.7959 34.4848 58.858 37.8133 62.1864C41.1417 65.5149 45.2038 67.1791 49.9996 67.1791Z" fill="#D33AFF"/>
  </g>
</svg>
