<svg id="Group_50091" data-name="Group 50091" xmlns="http://www.w3.org/2000/svg" width="89.531" height="80.093" viewBox="0 0 89.531 80.093">
  <g id="surface1">
    <path id="Path_6421" data-name="Path 6421" d="M56,176h6.161v27.724H56Zm0,0" transform="translate(-45.218 -142.115)" fill="#afdcf8"/>
    <path id="Path_6422" data-name="Path 6422" d="M3.08,384H0v6.161H36.966V384Zm0,0" transform="translate(0 -310.068)" fill="#3eb2fd"/>
    <path id="Path_6423" data-name="Path 6423" d="M99.562,352H16v6.161H99.562Zm0,0" transform="translate(-12.92 -284.229)" fill="#61acf1"/>
    <path id="Path_6424" data-name="Path 6424" d="M52.322,320H40v6.161H52.322Zm0,0" transform="translate(-32.299 -258.39)" fill="#88d1fd"/>
    <path id="Path_6425" data-name="Path 6425" d="M52.322,150.161V144H40v6.161Zm0,0" transform="translate(-32.299 -116.276)" fill="#88d1fd"/>
    <path id="Path_6426" data-name="Path 6426" d="M376,176h6.161v28.555H376Zm0,0" transform="translate(-303.609 -142.115)" fill="#afdcf8"/>
    <path id="Path_6427" data-name="Path 6427" d="M360,150.161h12.322V144H360Zm0,0" transform="translate(-290.689 -116.276)" fill="#88d1fd"/>
    <path id="Path_6428" data-name="Path 6428" d="M160,176v27.724h6.161V176Zm0,0" transform="translate(-129.195 -142.115)" fill="#afdcf8"/>
    <path id="Path_6429" data-name="Path 6429" d="M144,320v6.161h12.321V320Zm0,0" transform="translate(-116.276 -258.39)" fill="#88d1fd"/>
    <path id="Path_6430" data-name="Path 6430" d="M147.081,150.161h9.241V144H144v6.161Zm0,0" transform="translate(-116.276 -116.276)" fill="#88d1fd"/>
    <path id="Path_6431" data-name="Path 6431" d="M272,176h6.161v28.555H272Zm0,0" transform="translate(-219.632 -142.115)" fill="#afdcf8"/>
    <path id="Path_6432" data-name="Path 6432" d="M259.081,150.161h9.241V144H256v6.161Zm0,0" transform="translate(-206.712 -116.276)" fill="#88d1fd"/>
    <path id="Path_6433" data-name="Path 6433" d="M0,12.322v15.4H89.334v-15.4L44.667,0Zm83.173,9.241H6.161v-4.55L44.667,6.386,83.173,17.013Zm0,0" fill="#3eb2fd"/>
    <path id="Path_6434" data-name="Path 6434" d="M32,43.8v4.55h77.012V43.8L70.506,33.168Zm41.587-3.151a3.08,3.08,0,1,1-3.08-3.08A3.081,3.081,0,0,1,73.587,40.644Zm0,0" transform="translate(-25.839 -26.782)" fill="#99d2f7"/>
    <path id="Path_6435" data-name="Path 6435" d="M222.161,59.08A3.08,3.08,0,1,1,219.08,56,3.081,3.081,0,0,1,222.161,59.08Zm0,0" transform="translate(-174.413 -45.218)" fill="#309ade"/>
    <path id="Path_6444" data-name="Path 6444" d="M4.637,384H0v6.161H55.646V384Zm0,0" transform="translate(33.885 -310.068)" fill="#3eb2fd"/>
    <path id="Path_6445" data-name="Path 6445" d="M144,320v6.161h12.321V320Zm0,0" transform="translate(-94.903 -258.39)" fill="#88d1fd"/>
    <path id="Path_6446" data-name="Path 6446" d="M144,320v6.161h12.321V320Zm0,0" transform="translate(-74.685 -258.39)" fill="#88d1fd"/>
  </g>
</svg>
