<svg xmlns="http://www.w3.org/2000/svg" version="1.1" xmlns:xlink="http://www.w3.org/1999/xlink"
    xmlns:svgjs="http://svgjs.com/svgjs" width="512" height="512" x="0" y="0" viewBox="0 0 64 64"
    style="enable-background:new 0 0 512 512" xml:space="preserve" class="" id="blocked">
<g transform="matrix(1.2199999999999998,0,0,1.2199999999999998,-7.040970363616935,-7.041429634094236)">
    <linearGradient id="a">
        <stop stop-opacity="1" stop-color="#00a5e9" offset="0"></stop><stop stop-opacity="1" stop-color="#ff3414" offset="0"></stop>
    </linearGradient>
    <linearGradient xlink:href="#a" id="b" x1="32" x2="32" y1="59" y2="5" gradientUnits="userSpaceOnUse"></linearGradient><linearGradient xlink:href="#a" id="c" x1="32.004" x2="32.004" y1="59" y2="5" gradientUnits="userSpaceOnUse"></linearGradient>
    <path fill="url(#b)" d="M15.029 50.968a1.99 1.99 0 0 0 1.414-.586L50.385 16.44a2 2 0 1 0-2.828-2.828L13.615 47.554a2 2 0 0 0 1.414 3.414z" data-original="url(#b)" class=""></path>
    <path fill="url(#c)" d="M25.23 57.106c2.173.584 4.428.881 6.701.881 5.803 0 11.491-1.937 16.013-5.452C54.241 47.641 58 39.963 58 31.997c0-9.763-5.645-18.895-14.382-23.266-3.537-1.77-7.534-2.705-11.56-2.705-5.814 0-11.498 1.93-16.003 5.433C8.26 17.518 4.53 27.678 6.551 37.343c1.983 9.487 9.315 17.244 18.679 19.763zm-6.72-42.489c3.808-2.96 8.619-4.591 13.548-4.591 3.407 0 6.786.79 9.77 2.282C49.223 16.008 54 23.736 54 31.997c0 6.741-3.181 13.238-8.51 17.38-3.824 2.973-8.64 4.611-13.559 4.61-1.923 0-3.828-.25-5.662-.743-7.922-2.131-14.125-8.694-15.803-16.72-1.711-8.18 1.447-16.779 8.044-21.907z" data-original="url(#c)" class=""></path>
</g>
</svg>