<svg xmlns="http://www.w3.org/2000/svg" width="14.063" height="20.595" viewBox="0 0 14.063 20.595"><defs><style>.a{fill:#ff71a4;stroke:rgba(0,0,0,0);stroke-miterlimit:10;}</style></defs><g transform="translate(0.5 0.5)"><path class="a" d="M-7815.163,11891.595a1.216,1.216,0,0,1-.865-.359l-3.575-3.573a1.216,1.216,0,0,0-.866-.358,1.216,1.216,0,0,0-.865.358l-3.575,3.573a1.223,1.223,0,0,1-.867.359,1.216,1.216,0,0,1-.471-.094,1.228,1.228,0,0,1-.755-1.135v-16.324a2.044,2.044,0,0,1,2.042-2.042h8.98a2.044,2.044,0,0,1,2.042,2.042v16.324a1.224,1.224,0,0,1-.755,1.135A1.2,1.2,0,0,1-7815.163,11891.595Zm-7.936-11.922a.524.524,0,0,0-.375.152.573.573,0,0,0-.17.408.518.518,0,0,0,.152.371l2.083,2.143a.578.578,0,0,0,.391.167.644.644,0,0,0,.391-.149l3.963-3.76a.543.543,0,0,0,.177-.387.535.535,0,0,0-.156-.4.576.576,0,0,0-.41-.17.567.567,0,0,0-.39.152l-3.558,3.387-1.692-1.748A.572.572,0,0,0-7823.1,11879.673Z" transform="translate(7827.001 -11872)"/></g></svg>