<svg id="camera_1_" data-name="camera (1)" xmlns="http://www.w3.org/2000/svg" width="34.912" height="31.876" viewBox="0 0 34.912 31.876">
  <g id="Group_1573" data-name="Group 1573" transform="translate(0 0)">
    <g id="Group_1572" data-name="Group 1572">
      <path id="Path_640" data-name="Path 640" d="M91.322,88.369H86.511l-2.778-3.036H73.107v4.554H68.554V94.44H64V109.62a3.045,3.045,0,0,0,3.036,3.036H91.322a3.045,3.045,0,0,0,3.036-3.036V91.4A3.045,3.045,0,0,0,91.322,88.369ZM79.179,108.1a7.59,7.59,0,1,1,7.59-7.59A7.592,7.592,0,0,1,79.179,108.1Z" transform="translate(-59.446 -80.779)" fill="#8d8d8d"/>
      <path id="Path_641" data-name="Path 641" d="M4.554,33.476H7.59V28.923h4.554V25.887H7.59V21.333H4.554v4.554H0v3.036H4.554Z" transform="translate(0 -21.333)" fill="#8d8d8d"/>
      <path id="Path_642" data-name="Path 642" d="M213.923,230.4a4.852,4.852,0,0,0-4.857,4.857h0a4.857,4.857,0,1,0,4.857-4.857Z" transform="translate(-194.19 -215.524)" fill="#8d8d8d"/>
    </g>
  </g>
</svg>
