<svg xmlns="http://www.w3.org/2000/svg" width="118.599" height="111.261" viewBox="0 0 118.599 111.261">
  <path id="no_cancel_subs_svg" data-name="Cancel Subscription-595b40b75ba036ed117d57d0" d="M21.348,2a2.373,2.373,0,0,0-2.372,2.372V82.648c0,5.584-4.209,10.03-10.229,11.415a12.153,12.153,0,0,0,3.113.445H67.528a26.06,26.06,0,1,0,41.584-27.426V4.372A2.371,2.371,0,0,0,106.739,2Zm16.6,18.976H90.136V25.72H37.952ZM2.372,25.72A2.373,2.373,0,0,0,0,28.092V82.648a7.125,7.125,0,0,0,7.116,7.116,7.192,7.192,0,0,0,7.116-7.116V25.72Zm35.58,4.744H90.136v4.744H37.952Zm0,18.976h23.72v4.744H37.952Zm28.464,0h23.72v4.744H66.416ZM37.952,58.928h23.72v4.744H37.952Zm28.464,0h23.72v2.3a25.712,25.712,0,0,0-8.821,2.446h-14.9Zm26.092,6.894a21.222,21.222,0,0,1,13.268,4.67L75.83,100.437A21.305,21.305,0,0,1,92.507,65.821ZM37.952,68.416h23.72V73.16H37.952Zm71.234,5.411a21.36,21.36,0,0,1-30.021,30.02ZM37.952,77.9h23.72v4.744H37.952Z" transform="translate(0 -2)" fill="#ff71a4"/>
</svg>
