<svg width="53" height="52" viewBox="0 0 53 52" fill="none" xmlns="http://www.w3.org/2000/svg">
<rect x="0.890625" width="52" height="52" rx="26" fill="url(#paint0_linear_500_137325)"/>
<path d="M27.4155 30.2377L27.5397 31.1038H27.5397L27.4155 30.2377ZM26.3763 30.2377L26.5005 29.3715H26.5005L26.3763 30.2377ZM26.3685 15.5382L26.2425 14.6723H26.2425L26.3685 15.5382ZM27.4233 15.5382L27.5493 14.6723V14.6723L27.4233 15.5382ZM22.0839 25.8981L21.2183 26.0257L22.0839 25.8981ZM22.0841 19.8831L22.9498 20.0107L22.0841 19.8831ZM31.7049 19.903L32.5707 19.7767L31.7049 19.903ZM31.7051 25.8782L30.8392 25.7519L31.7051 25.8782ZM27.5319 30.221L27.4077 29.3548H27.4077L27.5319 30.221ZM27.5362 15.5546L27.4101 16.4205L27.4101 16.4205L27.5362 15.5546ZM26.2377 15.5572L26.3637 16.4231L26.2377 15.5572ZM26.2419 30.2184L26.1177 31.0845L26.1177 31.0845L26.2419 30.2184ZM35.9325 25.3619C35.9325 24.8787 35.5407 24.4869 35.0575 24.4869C34.5742 24.4869 34.1825 24.8787 34.1825 25.3619H35.9325ZM19.5991 25.3619C19.5991 24.8787 19.2074 24.4869 18.7241 24.4869C18.2409 24.4869 17.8491 24.8787 17.8491 25.3619H19.5991ZM26.0158 36.5C26.0158 36.9833 26.4075 37.375 26.8908 37.375C27.374 37.375 27.7658 36.9833 27.7658 36.5H26.0158ZM26.3637 16.4231L26.4945 16.4041L26.2425 14.6723L26.1117 14.6914L26.3637 16.4231ZM27.2973 16.4041L27.4101 16.4205L27.6622 14.6888L27.5493 14.6723L27.2973 16.4041ZM27.4077 29.3548L27.2913 29.3715L27.5397 31.1038L27.6561 31.0871L27.4077 29.3548ZM26.5005 29.3715L26.3661 29.3523L26.1177 31.0845L26.2521 31.1038L26.5005 29.3715ZM27.2913 29.3715C27.0289 29.4092 26.763 29.4092 26.5005 29.3715L26.2521 31.1038C26.6793 31.1651 27.1125 31.1651 27.5397 31.1038L27.2913 29.3715ZM26.4945 16.4041C26.7609 16.3653 27.0309 16.3653 27.2973 16.4041L27.5493 14.6723C27.1158 14.6092 26.676 14.6092 26.2425 14.6723L26.4945 16.4041ZM22.9496 25.7705C22.6684 23.8628 22.6686 21.9185 22.9498 20.0107L21.2185 19.7555C20.9124 21.8324 20.9122 23.9486 21.2183 26.0257L22.9496 25.7705ZM30.839 20.0293C31.1156 21.9251 31.1158 23.8563 30.8392 25.7519L32.5709 26.0045C32.8719 23.9412 32.8717 21.8399 32.5707 19.7767L30.839 20.0293ZM30.8392 25.7519C30.5598 27.6673 29.1381 29.1067 27.4077 29.3548L27.6561 31.0871C30.2142 30.7203 32.1886 28.6255 32.5709 26.0045L30.8392 25.7519ZM32.5707 19.7767C32.1887 17.1578 30.2181 15.0607 27.6622 14.6888L27.4101 16.4205C29.1394 16.6722 30.5596 18.1141 30.839 20.0293L32.5707 19.7767ZM22.9498 20.0107C23.2305 18.1061 24.6439 16.6734 26.3637 16.4231L26.1117 14.6914C23.5663 15.0618 21.6028 17.1481 21.2185 19.7555L22.9498 20.0107ZM21.2183 26.0257C21.6029 28.6352 23.5702 30.7192 26.1177 31.0845L26.3661 29.3523C24.6452 29.1055 23.2303 27.6753 22.9496 25.7705L21.2183 26.0257ZM34.1825 25.3619C34.1825 29.7124 30.87 33.1499 26.8908 33.1499V34.8999C31.9323 34.8999 35.9325 30.5802 35.9325 25.3619H34.1825ZM26.8908 33.1499C22.9116 33.1499 19.5991 29.7124 19.5991 25.3619H17.8491C17.8491 30.5802 21.8493 34.8999 26.8908 34.8999V33.1499ZM26.0158 34.0249V36.5H27.7658V34.0249H26.0158Z" fill="white"/>
<defs>
<linearGradient id="paint0_linear_500_137325" x1="0.890625" y1="0" x2="58.2789" y2="6.84865" gradientUnits="userSpaceOnUse">
<stop stop-color="#D33AFF"/>
<stop offset="1" stop-color="#FF71A4"/>
</linearGradient>
</defs>
</svg>
