<svg xmlns="http://www.w3.org/2000/svg" width="34" height="34" viewBox="0 0 34 34">
  <g id="Group_131991" data-name="Group 131991" transform="translate(-10700 9056)">
    <rect id="Rectangle_27485" data-name="Rectangle 27485" width="34" height="34" rx="17" transform="translate(10700 -9056)" fill="#ff71a4"/>
    <g id="Group_131989" data-name="Group 131989" transform="translate(10709 -9049.896)">
      <g id="_Icons_11_Comment_2" data-name="_Icons / 11 Comment_2" transform="translate(0 2.896)">
        <path id="_11_Comment_2" data-name="11 Comment_2" d="M4.692,16.417a.781.781,0,0,1-.783-.778V13.292H1.955A1.957,1.957,0,0,1,0,11.338V1.955A1.957,1.957,0,0,1,1.955,0H14.466A1.957,1.957,0,0,1,16.42,1.955v9.383a1.957,1.957,0,0,1-1.954,1.954H8.14l-2.9,2.9A.775.775,0,0,1,4.692,16.417Zm0-8.793a.782.782,0,0,0,0,1.564H9.774a.782.782,0,0,0,0-1.564Zm0-3.518a.782.782,0,0,0,0,1.564h7.037a.782.782,0,1,0,0-1.564Z" fill="#fff"/>
      </g>
    </g>
  </g>
</svg>
