<svg width="24" height="24" viewBox="0 0 24 24" fill="none" xmlns="http://www.w3.org/2000/svg">
<path d="M16.2609 10.4568C16.7159 10.4568 17.0922 10.308 17.3897 10.0105C17.6872 9.71302 17.8359 9.33677 17.8359 8.88177C17.8359 8.42677 17.6872 8.05052 17.3897 7.75302C17.0922 7.45552 16.7159 7.30677 16.2609 7.30677C15.8059 7.30677 15.4297 7.45552 15.1322 7.75302C14.8347 8.05052 14.6859 8.42677 14.6859 8.88177C14.6859 9.33677 14.8347 9.71302 15.1322 10.0105C15.4297 10.308 15.8059 10.4568 16.2609 10.4568ZM7.74427 10.4568C8.19927 10.4568 8.57552 10.308 8.87302 10.0105C9.17052 9.71302 9.31927 9.33677 9.31927 8.88177C9.31927 8.42677 9.17052 8.05052 8.87302 7.75302C8.57552 7.45552 8.19927 7.30677 7.74427 7.30677C7.28927 7.30677 6.91302 7.45552 6.61552 7.75302C6.31802 8.05052 6.16927 8.42677 6.16927 8.88177C6.16927 9.33677 6.31802 9.71302 6.61552 10.0105C6.91302 10.308 7.28927 10.4568 7.74427 10.4568ZM12.0026 18.3901C13.1109 18.3901 14.1561 18.1276 15.138 17.6026C16.12 17.0776 16.8929 16.3484 17.4568 15.4151C17.6123 15.1818 17.6269 14.9776 17.5005 14.8026C17.3741 14.6276 17.1763 14.5401 16.9069 14.5401H7.09461C6.82527 14.5401 6.63288 14.6276 6.51743 14.8026C6.40199 14.9776 6.42205 15.1818 6.5776 15.4151C7.14149 16.3484 7.90955 17.0776 8.88177 17.6026C9.85399 18.1276 10.8943 18.3901 12.0026 18.3901ZM12.0104 23.6693C10.4016 23.6693 8.88984 23.363 7.47495 22.7505C6.06005 22.138 4.82274 21.3019 3.76302 20.2422C2.7033 19.1825 1.86719 17.9444 1.25469 16.5281C0.642188 15.1117 0.335938 13.5984 0.335938 11.988C0.335938 10.3777 0.642188 8.8643 1.25469 7.44797C1.86719 6.03161 2.7033 4.79844 3.76302 3.74844C4.82274 2.69844 6.06078 1.86719 7.47713 1.25469C8.89347 0.642188 10.4068 0.335938 12.0172 0.335938C13.6276 0.335938 15.1409 0.642188 16.5572 1.25469C17.9736 1.86719 19.2068 2.69844 20.2568 3.74844C21.3068 4.79844 22.138 6.03316 22.7505 7.4526C23.363 8.87205 23.6693 10.3861 23.6693 11.9948C23.6693 13.6036 23.363 15.1154 22.7505 16.5303C22.138 17.9452 21.3068 19.1807 20.2568 20.2368C19.2068 21.293 17.972 22.1291 16.5526 22.7452C15.1332 23.3612 13.6191 23.6693 12.0104 23.6693Z" fill="url(#paint0_linear_426_117813)"/>
<defs>
<linearGradient id="paint0_linear_426_117813" x1="0.335938" y1="0.335938" x2="26.0871" y2="3.40905" gradientUnits="userSpaceOnUse">
<stop stop-color="#D33AFF"/>
<stop offset="1" stop-color="#FF71A4"/>
</linearGradient>
</defs>
</svg>
