<svg id="clearChat" width="24" height="24" viewBox="0 0 24 24" fill="none" xmlns="http://www.w3.org/2000/svg">
<mask id="mask0_59_14872" style="mask-type:alpha" maskUnits="userSpaceOnUse" x="0" y="0" width="24" height="24">
<rect width="24" height="24" fill="#D9D9D9"/>
</mask>
<g mask="url(#mask0_59_14872)">
<path d="M10.8461 11.2501H13.1538V4.09618C13.1538 3.7744 13.0419 3.50164 12.8182 3.27791C12.5945 3.05419 12.3217 2.94233 11.9999 2.94233C11.6781 2.94233 11.4054 3.05419 11.1817 3.27791C10.958 3.50164 10.8461 3.7744 10.8461 4.09618V11.2501ZM4.94225 15.0577H19.0576V13.0577C19.0576 12.968 19.0288 12.8943 18.9711 12.8366C18.9134 12.7789 18.8397 12.75 18.7499 12.75H5.24997C5.16022 12.75 5.0865 12.7789 5.0288 12.8366C4.9711 12.8943 4.94225 12.968 4.94225 13.0577V15.0577ZM3.8192 21.0577H6.34612V18.8077C6.34612 18.5952 6.41803 18.4171 6.56185 18.2734C6.70565 18.1296 6.88385 18.0577 7.09645 18.0577C7.30903 18.0577 7.48712 18.1296 7.63072 18.2734C7.7743 18.4171 7.8461 18.5952 7.8461 18.8077V21.0577H11.25V18.8077C11.25 18.5952 11.3219 18.4171 11.4657 18.2734C11.6095 18.1296 11.7877 18.0577 12.0003 18.0577C12.2129 18.0577 12.391 18.1296 12.5345 18.2734C12.6781 18.4171 12.7499 18.5952 12.7499 18.8077V21.0577H16.1538V18.8077C16.1538 18.5952 16.2257 18.4171 16.3695 18.2734C16.5133 18.1296 16.6915 18.0577 16.9041 18.0577C17.1167 18.0577 17.2948 18.1296 17.4384 18.2734C17.582 18.4171 17.6538 18.5952 17.6538 18.8077V21.0577H20.1807C20.2833 21.0577 20.3666 21.0177 20.4307 20.9375C20.4948 20.8574 20.5108 20.7693 20.4788 20.6731L19.3634 16.5577H4.6365L3.5211 20.6731C3.48905 20.7693 3.50507 20.8574 3.56917 20.9375C3.63329 21.0177 3.71663 21.0577 3.8192 21.0577ZM20.2576 22.5577H3.74227C3.1756 22.5577 2.71471 22.3314 2.3596 21.8789C2.00446 21.4263 1.90382 20.9218 2.05767 20.3654L3.4423 15.2212V13C3.4423 12.5141 3.61248 12.101 3.95285 11.7606C4.29323 11.4203 4.70637 11.2501 5.19227 11.2501H9.34612V4.09618C9.34612 3.35902 9.60413 2.73243 10.1201 2.21641C10.6362 1.70039 11.2628 1.44238 11.9999 1.44238C12.7371 1.44238 13.3637 1.70039 13.8797 2.21641C14.3958 2.73243 14.6538 3.35902 14.6538 4.09618V11.2501H18.8076C19.2935 11.2501 19.7067 11.4203 20.047 11.7606C20.3874 12.101 20.5576 12.5141 20.5576 13V15.2212L21.9422 20.3846C22.1268 20.9346 22.039 21.4343 21.6788 21.8837C21.3185 22.333 20.8448 22.5577 20.2576 22.5577Z" fill="currentColor"/>
</g>
</svg>
