<svg id='close-white' width="12" height="12" viewBox="0 0 12 12" fill="none"
    xmlns="http://www.w3.org/2000/svg">
    <path d="M6.00195 6.87598L1.62695 11.251C1.50195 11.376 1.35612 11.4385 1.18945 11.4385C1.02279 11.4385 0.876953 11.376 0.751953 11.251C0.626953 11.126 0.564453 10.9801 0.564453 10.8135C0.564453 10.6468 0.626953 10.501 0.751953 10.376L5.12695 6.00098L0.751953 1.62598C0.626953 1.50098 0.564453 1.35514 0.564453 1.18848C0.564453 1.02181 0.626953 0.875977 0.751953 0.750977C0.876953 0.625977 1.02279 0.563477 1.18945 0.563477C1.35612 0.563477 1.50195 0.625977 1.62695 0.750977L6.00195 5.12598L10.377 0.750977C10.502 0.625977 10.6478 0.563477 10.8145 0.563477C10.9811 0.563477 11.127 0.625977 11.252 0.750977C11.377 0.875977 11.4395 1.02181 11.4395 1.18848C11.4395 1.35514 11.377 1.50098 11.252 1.62598L6.87695 6.00098L11.252 10.376C11.377 10.501 11.4395 10.6468 11.4395 10.8135C11.4395 10.9801 11.377 11.126 11.252 11.251C11.127 11.376 10.9811 11.4385 10.8145 11.4385C10.6478 11.4385 10.502 11.376 10.377 11.251L6.00195 6.87598Z" fill="currentColor"/>
</svg>
