<svg xmlns="http://www.w3.org/2000/svg" width="18.9" height="18.64" viewBox="0 0 18.9 18.64">
  <g id="collection_outline" transform="translate(16840.785 2569)">
    <rect id="Rectangle_28475" data-name="Rectangle 28475" width="18" height="18" transform="translate(-16839.885 -2569)" fill="none"/>
    <path id="Icon_material-collections-bookmark" data-name="Icon material-collections-bookmark" d="M4.607,6.381H2.833V18.8a1.779,1.779,0,0,0,1.774,1.774H17.025V18.8H4.607ZM18.8,2.833H8.155A1.779,1.779,0,0,0,6.381,4.607V15.251a1.779,1.779,0,0,0,1.774,1.774H18.8a1.779,1.779,0,0,0,1.774-1.774V4.607A1.779,1.779,0,0,0,18.8,2.833Zm0,8.87-2.217-1.33L14.364,11.7v-7.1H18.8Z" transform="translate(-16843.219 -2571.333)" fill="none" stroke="currentColor" stroke-width="0.8"/>
  </g>
</svg>
