<svg xmlns="http://www.w3.org/2000/svg" xmlns:xlink="http://www.w3.org/1999/xlink" width="122.281" height="122.281" viewBox="0 0 122.281 122.281"><defs><style>.a,.b{fill:none;}.c{clip-path:url(#a);}.d,.f{fill:#ff71a4;}.e,.f{stroke:none;}</style><clipPath id="a"><rect class="a" width="38.778" height="58.174"/></clipPath></defs><g class="b" transform="translate(0 0)"><path class="e" d="M61.141,0A61.141,61.141,0,1,1,0,61.141,61.141,61.141,0,0,1,61.141,0Z"/><path class="f" d="M 61.140625 1.999992370605469 C 53.15580749511719 1.999992370605469 45.41091156005859 3.563377380371094 38.12104034423828 6.646743774414062 C 34.61714172363281 8.128761291503906 31.23747253417969 9.963188171386719 28.075927734375 12.09909057617188 C 24.94390869140625 14.21505737304688 21.99861145019531 16.64515686035156 19.32189178466797 19.32189178466797 C 16.64515686035156 21.99861145019531 14.21505737304688 24.94390869140625 12.09909057617188 28.075927734375 C 9.963188171386719 31.23747253417969 8.128761291503906 34.61714172363281 6.646743774414062 38.12104034423828 C 3.563377380371094 45.41091156005859 1.999992370605469 53.15580749511719 1.999992370605469 61.140625 C 1.999992370605469 69.12544250488281 3.563377380371094 76.87034606933594 6.646743774414062 84.16020965576172 C 8.128761291503906 87.66410827636719 9.963188171386719 91.04376220703125 12.09909057617188 94.20530700683594 C 14.21505737304688 97.33734130859375 16.64515686035156 100.2826232910156 19.32189178466797 102.959358215332 C 21.99861145019531 105.6360931396484 24.94390869140625 108.0661773681641 28.075927734375 110.1821441650391 C 31.23747253417969 112.3180389404297 34.61714172363281 114.152473449707 38.12104034423828 115.6345062255859 C 45.41091156005859 118.7178573608398 53.15580749511719 120.2812423706055 61.140625 120.2812423706055 C 69.12544250488281 120.2812423706055 76.87034606933594 118.7178573608398 84.16020965576172 115.6345062255859 C 87.66410827636719 114.152473449707 91.04376220703125 112.3180389404297 94.20530700683594 110.1821441650391 C 97.33734130859375 108.0661773681641 100.2826232910156 105.6360931396484 102.959358215332 102.959358215332 C 105.6360931396484 100.2826232910156 108.0661773681641 97.33734130859375 110.1821441650391 94.20530700683594 C 112.3180389404297 91.04376220703125 114.152473449707 87.66410827636719 115.6345062255859 84.16020965576172 C 118.7178573608398 76.87034606933594 120.2812423706055 69.12544250488281 120.2812423706055 61.140625 C 120.2812423706055 53.15580749511719 118.7178573608398 45.41091156005859 115.6345062255859 38.12104034423828 C 114.152473449707 34.61714172363281 112.3180389404297 31.23747253417969 110.1821441650391 28.075927734375 C 108.0661773681641 24.94390869140625 105.6360931396484 21.99861145019531 102.959358215332 19.32189178466797 C 100.2826232910156 16.64515686035156 97.33734130859375 14.21505737304688 94.20530700683594 12.09909057617188 C 91.04376220703125 9.963188171386719 87.66410827636719 8.128761291503906 84.16020965576172 6.646743774414062 C 76.87034606933594 3.563377380371094 69.12544250488281 1.999992370605469 61.140625 1.999992370605469 M 61.140625 -7.62939453125e-06 C 94.90765380859375 -7.62939453125e-06 122.2812423706055 27.37358856201172 122.2812423706055 61.140625 C 122.2812423706055 94.90765380859375 94.90765380859375 122.2812423706055 61.140625 122.2812423706055 C 27.37358856201172 122.2812423706055 -7.62939453125e-06 94.90765380859375 -7.62939453125e-06 61.140625 C -7.62939453125e-06 27.37358856201172 27.37358856201172 -7.62939453125e-06 61.140625 -7.62939453125e-06 Z"/></g><g class="c" transform="matrix(0.966, -0.259, 0.259, 0.966, 36.459, 41.173)"><path class="d" d="M35.147,58.174a3.62,3.62,0,0,1-2.573-1.063L21.96,46.495a3.639,3.639,0,0,0-5.139,0L6.2,57.11A3.635,3.635,0,0,1,0,54.529V6.06A6.067,6.067,0,0,1,6.06,0H32.72a6.066,6.066,0,0,1,6.058,6.06V54.529a3.629,3.629,0,0,1-3.631,3.645ZM13.331,20.6a2.423,2.423,0,1,0,0,4.847h3.634v3.634a2.424,2.424,0,0,0,4.847,0V25.448H25.45a2.423,2.423,0,1,0,0-4.847H21.813V16.964a2.424,2.424,0,0,0-4.847,0V20.6Z" transform="translate(0 0)"/></g></svg>