<svg xmlns="http://www.w3.org/2000/svg" width="18.504" height="18.504" viewBox="0 0 18.504 18.504">
  <path id="Icon_ionic-md-color-palette" data-name="Icon ionic-md-color-palette" d="M13.752,4.5a9.252,9.252,0,0,0,0,18.5,1.514,1.514,0,0,0,1.542-1.542,1.435,1.435,0,0,0-.411-1.028,1.435,1.435,0,0,1-.411-1.028,1.514,1.514,0,0,1,1.542-1.542h1.85A5.155,5.155,0,0,0,23,12.724C23,8.2,18.841,4.5,13.752,4.5ZM8.1,13.752A1.542,1.542,0,1,1,9.64,12.21,1.514,1.514,0,0,1,8.1,13.752ZM11.182,9.64A1.542,1.542,0,1,1,12.724,8.1,1.514,1.514,0,0,1,11.182,9.64Zm5.14,0A1.542,1.542,0,1,1,17.864,8.1,1.514,1.514,0,0,1,16.322,9.64Zm3.084,4.112a1.542,1.542,0,1,1,1.542-1.542A1.514,1.514,0,0,1,19.406,13.752Z" transform="translate(-4.5 -4.5)" fill="#fff"/>
</svg>
