<svg xmlns="http://www.w3.org/2000/svg" width="20.783" height="20.534" viewBox="0 0 20.783 20.534">
  <g id="_Icons_8_Like_Copy" data-name="_Icons / 8 Like Copy" transform="translate(0.613 0.5)">
    <path id="_14_Comment_5" data-name="14 Comment_5" d="M9.762,19.535A9.754,9.754,0,0,1,4.6,18.06l-3.3,1.4a.915.915,0,0,1-.36.073.931.931,0,0,1-.859-1.292l1.4-3.3A9.767,9.767,0,0,1,9.755,0h.006a9.767,9.767,0,1,1,0,19.535Zm-4.192-8.6a.93.93,0,1,0,0,1.86h6.046a.93.93,0,1,0,0-1.86Zm0-4.186a.93.93,0,1,0,0,1.86h8.372a.93.93,0,1,0,0-1.86Z" fill="white" stroke="#777" stroke-width="1"/>
  </g>
</svg>
