<svg xmlns="http://www.w3.org/2000/svg" width="102.336" height="100.738" viewBox="0 0 102.336 100.738">
  <g id="comments" transform="translate(0 -3.996)">
    <path id="Path_108996" data-name="Path 108996" d="M162.207,4H105.229A13.553,13.553,0,0,0,91.716,17.509v4.6h51.542a13.553,13.553,0,0,1,13.513,13.513V69.308h5.437A13.553,13.553,0,0,0,175.72,55.795V17.509A13.552,13.552,0,0,0,162.207,4Z" transform="translate(-73.384 0)" fill="#ff71a4"/>
    <path id="Path_108997" data-name="Path 108997" d="M152.627,91.515H95.648a13.4,13.4,0,0,0-3.932.589v.029h51.542a13.553,13.553,0,0,1,13.513,13.513v33.688h5.437a13.4,13.4,0,0,0,3.932-.589V105.028A13.552,13.552,0,0,0,152.627,91.515Z" transform="translate(-73.384 -70.026)" fill="#2F0074"/>
    <path id="Path_108998" data-name="Path 108998" d="M70.491,91.515H13.513A13.553,13.553,0,0,0,0,105.028v38.286a13.553,13.553,0,0,0,13.513,13.513h34.2a2.279,2.279,0,0,1,2.225,2.791,57.251,57.251,0,0,1-4.346,12.13,2.077,2.077,0,0,0,2.955,2.689,76.23,76.23,0,0,0,18.637-16.053,4.274,4.274,0,0,1,3.31-1.557A13.553,13.553,0,0,0,84,143.314V105.028A13.552,13.552,0,0,0,70.491,91.515Z" transform="translate(0 -70.026)" fill="#ff71a4"/>
    <path id="Path_108999" data-name="Path 108999" d="M240.289,421.068a2.279,2.279,0,0,0-2.225-2.791h-8.751a2.279,2.279,0,0,1,2.225,2.791,57.25,57.25,0,0,1-4.346,12.13,2.077,2.077,0,0,0,2.955,2.689c1.975-1.222,4.27-2.762,6.7-4.619a57.04,57.04,0,0,0,3.445-10.2Z" transform="translate(-181.602 -331.477)" fill="#2F0074"/>
    <path id="Path_109000" data-name="Path 109000" d="M8.751,143.314V105.028A13.553,13.553,0,0,1,22.264,91.515H13.513A13.553,13.553,0,0,0,0,105.028v38.286a13.553,13.553,0,0,0,13.513,13.513h8.751A13.552,13.552,0,0,1,8.751,143.314Z" transform="translate(0 -70.026)" fill="#2F0074"/>
    <g id="Group_40821" data-name="Group 40821" transform="translate(14.247 50.76)">
      <circle id="Ellipse_1702" data-name="Ellipse 1702" cx="4.484" cy="4.484" r="4.484" fill="#dfebfa"/>
      <circle id="Ellipse_1703" data-name="Ellipse 1703" cx="4.484" cy="4.484" r="4.484" transform="translate(14.483)" fill="#dfebfa"/>
      <circle id="Ellipse_1704" data-name="Ellipse 1704" cx="4.484" cy="4.484" r="4.484" transform="translate(28.966)" fill="#dfebfa"/>
      <circle id="Ellipse_1705" data-name="Ellipse 1705" cx="4.484" cy="4.484" r="4.484" transform="translate(43.449)" fill="#dfebfa"/>
    </g>
  </g>
</svg>
