<svg width="14" height="14" viewBox="0 0 14 14" fill="none" xmlns="http://www.w3.org/2000/svg" id="cover_image">
<g clip-path="url(#clip0_3533_84726)">
<g clip-path="url(#clip1_3533_84726)">
<path d="M6.29043 10.6522L8.80063 11.2278C10.8925 11.7074 11.9211 11.0626 12.4007 8.97073L12.9763 6.46052C13.456 4.36868 12.8111 3.34008 10.7193 2.86041L8.20909 2.28481C6.11725 1.80515 5.08865 2.45002 4.60899 4.54186L4.03339 7.05206C3.55372 9.1439 4.19859 10.1725 6.29043 10.6522Z" stroke="currentColor" stroke-linecap="round" stroke-linejoin="round"/>
<path d="M3.93473 8.76747L6.31482 7.85563C6.69618 7.70968 7.16736 7.84414 7.40588 8.16746L7.51612 8.32045C7.77817 8.67558 8.30532 8.79646 8.69592 8.59098L10.7788 7.49649C11.1694 7.29101 11.6966 7.41188 11.9586 7.76702L12.5062 8.5091M7.4416 5.63034C7.66351 5.68122 7.89656 5.64187 8.08946 5.52093C8.28236 5.4 8.41931 5.20738 8.4702 4.98547C8.52109 4.76355 8.48173 4.53051 8.3608 4.33761C8.23986 4.14471 8.04725 4.00775 7.82533 3.95687C7.60342 3.90598 7.37037 3.94533 7.17747 4.06627C6.98457 4.18721 6.84762 4.37982 6.79673 4.60174C6.74584 4.82365 6.7852 5.05669 6.90613 5.24959C7.02707 5.44249 7.21968 5.57945 7.4416 5.63034Z" stroke="currentColor" stroke-linecap="round" stroke-linejoin="round"/>
</g>
<path d="M8.78502 11.3104C8.42335 11.5554 7.96835 11.7596 7.41418 11.9404L6.49252 12.2438C4.17668 12.9904 2.95752 12.3663 2.20502 10.0504L1.45835 7.74628C0.711683 5.43044 1.33002 4.20544 3.64585 3.45878L4.56752 3.15544C4.80668 3.07961 5.03418 3.01544 5.25002 2.97461C5.07502 3.33044 4.93502 3.76211 4.81835 4.25794L4.24668 6.70211C3.67502 9.14044 4.42752 10.3421 6.86002 10.9196L7.84002 11.1529C8.17835 11.2346 8.49335 11.2871 8.78502 11.3104Z" stroke="currentColor" stroke-linecap="round" stroke-linejoin="round"/>
</g>
<defs>
<clipPath id="clip0_3533_84726">
<rect width="14" height="14" fill="currentColor"/>
</clipPath>
<clipPath id="clip1_3533_84726">
<rect width="10.3014" height="10.3014" fill="currentColor" transform="translate(4.63562 0.583984) rotate(12.9149)"/>
</clipPath>
</defs>
</svg>
