<svg width="28" height="28" viewBox="0 0 28 28" fill="none" xmlns="http://www.w3.org/2000/svg" id="createPost">
<ellipse cx="14" cy="14" rx="14" ry="14" fill="url(#paint0_linear_2742_24442)" fill-opacity="0.2"/>
<g clip-path="url(#clip0_2742_24442)">
<path d="M12.2513 19.8327H15.7513C18.668 19.8327 19.8346 18.666 19.8346 15.7493V12.2493C19.8346 9.33268 18.668 8.16602 15.7513 8.16602H12.2513C9.33464 8.16602 8.16797 9.33268 8.16797 12.2493V15.7493C8.16797 18.666 9.33464 19.8327 12.2513 19.8327Z" stroke="currentColor" stroke-linecap="round" stroke-linejoin="round"/>
<path d="M8.55859 18.0542L11.4344 16.1233C11.8953 15.8142 12.5603 15.8492 12.9744 16.205L13.1669 16.3742C13.6219 16.765 14.3569 16.765 14.8119 16.3742L17.2386 14.2917C17.6936 13.9008 18.4286 13.9008 18.8836 14.2917L19.8344 15.1083M12.2511 12.8333C12.5605 12.8333 12.8573 12.7104 13.0761 12.4916C13.2948 12.2728 13.4178 11.9761 13.4178 11.6667C13.4178 11.3572 13.2948 11.0605 13.0761 10.8417C12.8573 10.6229 12.5605 10.5 12.2511 10.5C11.9417 10.5 11.6449 10.6229 11.4261 10.8417C11.2073 11.0605 11.0844 11.3572 11.0844 11.6667C11.0844 11.9761 11.2073 12.2728 11.4261 12.4916C11.6449 12.7104 11.9417 12.8333 12.2511 12.8333Z" stroke="#F5D0FF" stroke-linecap="round" stroke-linejoin="round"/>
</g>
<defs>
<linearGradient id="paint0_linear_2742_24442" x1="0" y1="0" x2="30.9014" y2="3.68774" gradientUnits="userSpaceOnUse">
<stop stop-color="#D33AFF"/>
<stop offset="1" stop-color="#FF71A4"/>
</linearGradient>
<clipPath id="clip0_2742_24442">
<rect width="14" height="14" fill="white" transform="translate(7 7)"/>
</clipPath>
</defs>
</svg>
