<svg xmlns="http://www.w3.org/2000/svg" width="15.736" height="15.736" viewBox="0 0 15.736 15.736">
  <g id="noun-close-1043558" transform="translate(-88.665 -18.672)">
    <path id="Path_197321" data-name="Path 197321" d="M90.97,20.976a7.868,7.868,0,1,0,11.127,0,7.868,7.868,0,0,0-11.127,0Zm10.436,10.436a6.891,6.891,0,1,1,0-9.746,6.9,6.9,0,0,1,0,9.746Zm-7.093-7.784-.691.691,2.22,2.22-2.22,2.22.691.691,2.22-2.22,2.22,2.22.691-.691-2.22-2.22,2.22-2.22-.691-.691-2.22,2.22Z" transform="translate(0)" fill="currentColor"/>
  </g>
</svg>
