<svg width="48" height="48" viewBox="0 0 48 48" fill="none" xmlns="http://www.w3.org/2000/svg">
<rect width="48" height="48" rx="24" fill="url(#paint0_linear_538_309693)"/>
<path d="M30.5956 30.6038C30.3941 30.8053 30.1588 30.9051 29.8897 30.9031C29.6206 30.9012 29.3859 30.8 29.1856 30.5997L24.0001 25.4142L18.8147 30.5997C18.6143 30.8 18.3782 30.8998 18.1064 30.899C17.8345 30.8982 17.5978 30.797 17.3963 30.5955C17.1948 30.394 17.095 30.1587 17.097 29.8896C17.0989 29.6205 17.2001 29.3858 17.4004 29.1854L22.5859 24L17.4004 18.8146C17.2001 18.6142 17.1003 18.3781 17.1011 18.1063C17.1019 17.8344 17.2031 17.5977 17.4046 17.3962C17.6061 17.1947 17.8414 17.0949 18.1105 17.0969C18.3796 17.0988 18.6143 17.2 18.8147 17.4003L24.0001 22.5858L29.1856 17.4003C29.3859 17.2 29.622 17.1002 29.8938 17.101C30.1657 17.1018 30.4024 17.203 30.6039 17.4045C30.8054 17.606 30.9052 17.8413 30.9032 18.1104C30.9013 18.3795 30.8001 18.6142 30.5998 18.8146L25.4143 24L30.5998 29.1854C30.8001 29.3858 30.8999 29.6219 30.8991 29.8937C30.8983 30.1656 30.7972 30.4023 30.5956 30.6038Z" fill="white"/>
<defs>
<linearGradient id="paint0_linear_538_309693" x1="0" y1="0" x2="56.0268" y2="12.7623" gradientUnits="userSpaceOnUse">
<stop stop-color="#D33AFF"/>
<stop offset="1" stop-color="#FF71A4"/>
</linearGradient>
</defs>
</svg>
