<svg xmlns="http://www.w3.org/2000/svg" xmlns:xlink="http://www.w3.org/1999/xlink" width="66.412" height="66.412" viewBox="0 0 66.412 66.412"><defs><style>.a,.b{fill:none;}.c{clip-path:url(#a);}.d,.f{fill:#fff;}.e,.f{stroke:none;}</style><clipPath id="a"><rect class="a" width="21.061" height="31.595"/></clipPath></defs><g class="b" transform="translate(0 0)"><path class="e" d="M33.206,0A33.206,33.206,0,1,1,0,33.206,33.206,33.206,0,0,1,33.206,0Z"/><path class="f" d="M 33.2060546875 1.999992370605469 C 28.99238586425781 1.999992370605469 24.90581512451172 2.824806213378906 21.05986404418945 4.451503753662109 C 17.3441047668457 6.023136138916016 14.00659561157227 8.273483276367188 11.14003372192383 11.14003372192383 C 8.273483276367188 14.00659561157227 6.023136138916016 17.3441047668457 4.451503753662109 21.05986404418945 C 2.824806213378906 24.90581512451172 1.999992370605469 28.99238586425781 1.999992370605469 33.2060546875 C 1.999992370605469 37.41972351074219 2.824806213378906 41.50629425048828 4.451503753662109 45.35224533081055 C 6.023136138916016 49.0679931640625 8.273483276367188 52.40550231933594 11.14003372192383 55.27206420898438 C 14.00659561157227 58.13861465454102 17.3441047668457 60.38896560668945 21.05986404418945 61.96059417724609 C 24.90581512451172 63.58729553222656 28.99238586425781 64.41210174560547 33.2060546875 64.41210174560547 C 37.41972351074219 64.41210174560547 41.50629425048828 63.58729553222656 45.35224533081055 61.96059417724609 C 49.0679931640625 60.38896560668945 52.40550231933594 58.13861465454102 55.27206420898438 55.27206420898438 C 58.13861465454102 52.40550231933594 60.38896560668945 49.0679931640625 61.96059417724609 45.35224533081055 C 63.58729553222656 41.50629425048828 64.41210174560547 37.41972351074219 64.41210174560547 33.2060546875 C 64.41210174560547 28.99238586425781 63.58729553222656 24.90581512451172 61.96059417724609 21.05986404418945 C 60.38896560668945 17.3441047668457 58.13861465454102 14.00659561157227 55.27206420898438 11.14003372192383 C 52.40550231933594 8.273483276367188 49.0679931640625 6.023136138916016 45.35224533081055 4.451503753662109 C 41.50629425048828 2.824806213378906 37.41972351074219 1.999992370605469 33.2060546875 1.999992370605469 M 33.2060546875 -7.62939453125e-06 C 51.54524230957031 -7.62939453125e-06 66.41210174560547 14.86685562133789 66.41210174560547 33.2060546875 C 66.41210174560547 51.54524230957031 51.54524230957031 66.41210174560547 33.2060546875 66.41210174560547 C 14.86685562133789 66.41210174560547 -7.62939453125e-06 51.54524230957031 -7.62939453125e-06 33.2060546875 C -7.62939453125e-06 14.86685562133789 14.86685562133789 -7.62939453125e-06 33.2060546875 -7.62939453125e-06 Z"/></g><g class="c" transform="translate(22.969 16.999)"><path class="d" d="M19.089,31.595a1.966,1.966,0,0,1-1.4-.578l-5.764-5.765a1.976,1.976,0,0,0-2.791,0L3.37,31.017A1.974,1.974,0,0,1,0,29.615V3.291A3.3,3.3,0,0,1,3.291,0H17.771a3.294,3.294,0,0,1,3.29,3.291V29.615a1.971,1.971,0,0,1-1.972,1.979ZM7.24,11.188a1.316,1.316,0,1,0,0,2.632H9.214v1.974a1.316,1.316,0,0,0,2.633,0V13.821h1.975a1.316,1.316,0,1,0,0-2.632H11.847V9.213a1.316,1.316,0,0,0-2.633,0v1.975Z" transform="translate(0 0)"/></g></svg>