<svg id="my_Dashboard" width="20" height="20" viewBox="0 0 20 20" fill="none" xmlns="http://www.w3.org/2000/svg">
<path d="M2.74751 4.3615C2.93536 3.56066 3.56066 2.93536 4.3615 2.74751V2.74751C5.05553 2.58471 5.77781 2.58471 6.47184 2.74751V2.74751C7.27267 2.93536 7.89797 3.56066 8.08583 4.3615V4.3615C8.24862 5.05553 8.24862 5.77781 8.08583 6.47183V6.47183C7.89797 7.27267 7.27267 7.89797 6.47183 8.08583V8.08583C5.77781 8.24862 5.05553 8.24862 4.3615 8.08583V8.08583C3.56066 7.89797 2.93536 7.27267 2.74751 6.47184V6.47184C2.58471 5.77781 2.58471 5.05553 2.74751 4.3615V4.3615Z" stroke="currentColor" stroke-width="1.5"/>
<path d="M2.74751 13.5275C2.93536 12.7267 3.56066 12.1014 4.3615 11.9135V11.9135C5.05553 11.7507 5.77781 11.7507 6.47184 11.9135V11.9135C7.27267 12.1014 7.89797 12.7267 8.08583 13.5275V13.5275C8.24862 14.2215 8.24862 14.9438 8.08583 15.6379V15.6379C7.89797 16.4387 7.27267 17.064 6.47183 17.2518V17.2518C5.77781 17.4146 5.05553 17.4146 4.3615 17.2518V17.2518C3.56066 17.064 2.93536 16.4387 2.74751 15.6379V15.6379C2.58471 14.9438 2.58471 14.2215 2.74751 13.5275V13.5275Z" stroke="currentColor" stroke-width="1.5"/>
<path d="M11.9155 4.3615C12.1033 3.56066 12.7286 2.93536 13.5295 2.74751V2.74751C14.2235 2.58471 14.9458 2.58471 15.6398 2.74751V2.74751C16.4406 2.93536 17.0659 3.56066 17.2538 4.3615V4.3615C17.4166 5.05553 17.4166 5.77781 17.2538 6.47183V6.47183C17.0659 7.27267 16.4406 7.89797 15.6398 8.08583V8.08583C14.9458 8.24862 14.2235 8.24862 13.5295 8.08583V8.08583C12.7286 7.89797 12.1033 7.27267 11.9155 6.47184V6.47184C11.7527 5.77781 11.7527 5.05553 11.9155 4.3615V4.3615Z" stroke="currentColor" stroke-width="1.5"/>
<path d="M11.9155 13.5275C12.1033 12.7267 12.7286 12.1014 13.5295 11.9135V11.9135C14.2235 11.7507 14.9458 11.7507 15.6398 11.9135V11.9135C16.4406 12.1014 17.0659 12.7267 17.2538 13.5275V13.5275C17.4166 14.2215 17.4166 14.9438 17.2538 15.6379V15.6379C17.0659 16.4387 16.4406 17.064 15.6398 17.2518V17.2518C14.9458 17.4146 14.2235 17.4146 13.5295 17.2518V17.2518C12.7286 17.064 12.1033 16.4387 11.9155 15.6379V15.6379C11.7527 14.9438 11.7527 14.2215 11.9155 13.5275V13.5275Z" stroke="currentColor" stroke-width="1.5"/>
</svg>
