<svg id="vuesax_linear_edit-2" data-name="vuesax/linear/edit-2" xmlns="http://www.w3.org/2000/svg" width="13.465" height="13.642" viewBox="0 0 13.465 13.642">
  <g id="edit-2">
    <path id="Vector" d="M0,0H13.465V13.642H0Z" fill="none" opacity="0"/>
    <g id="noun-delete-1234832" transform="translate(2.103 1.228)">
      <path id="Path_174476" data-name="Path 174476" d="M161.244,49h-1.662a.79.79,0,0,0-.79.79v.471h-2.681a.263.263,0,0,0-.263.263v2.107a.263.263,0,0,0,.263.263h.843v5.389a1.58,1.58,0,0,0,1.58,1.58h3.758a1.58,1.58,0,0,0,1.58-1.58V52.9h.843a.263.263,0,0,0,.263-.263V50.525a.263.263,0,0,0-.263-.263h-2.681V49.79a.79.79,0,0,0-.79-.79Zm-1.924.79a.263.263,0,0,1,.263-.263h1.661a.263.263,0,0,1,.263.263v.471h-2.189Zm4.026,8.494a1.054,1.054,0,0,1-1.054,1.054h-3.758a1.054,1.054,0,0,1-1.054-1.054V52.9h5.866Zm1.106-5.914h-8.078V50.79h8.078Z" transform="translate(-155.847 -49)" fill="#667491" stroke="#667491" stroke-width="0.2"/>
      <path id="Path_174477" data-name="Path 174477" d="M283.065,277.728a.263.263,0,0,0,.263-.263v-2.8a.263.263,0,1,0-.527,0v2.8a.263.263,0,0,0,.263.263Z" transform="translate(-279.816 -269.097)" fill="#667491" stroke="#667491" stroke-width="0.2"/>
      <path id="Path_174478" data-name="Path 174478" d="M395.065,277.728a.263.263,0,0,0,.263-.263v-2.8a.263.263,0,1,0-.527,0v2.8a.263.263,0,0,0,.263.263Z" transform="translate(-389.182 -269.097)" fill="#667491" stroke="#667491" stroke-width="0.2"/>
    </g>
  </g>
</svg>
