<svg id='Capa_1' width="20" height="20" viewBox="0 0 20 20" fill="none"
	xmlns="http://www.w3.org/2000/svg">
	<path
		d="M10 19.999C15.5228 19.999 20 15.5219 20 9.99902C20 4.47618 15.5228 -0.000976562 10 -0.000976562C4.47715 -0.000976562 0 4.47618 0 9.99902C0 15.5219 4.47715 19.999 10 19.999Z"
		fill="#FFB800" />
	<path d="M14.9871 8.48535L12.7791 5.98535H11.7031L12.3371 8.48535H14.9871Z" fill="white" />
	<path
		d="M11.8461 8.48735L11.2141 5.99335L11.2471 5.98535H8.67712L8.71012 5.99335L8.07812 8.48735H11.8461Z"
		fill="white" />
	<path d="M10.2031 14.8601L15.1841 8.9541H12.3141L10.2031 14.8601Z" fill="white" />
	<path d="M5 8.9541L9.737 14.9081L7.608 8.9541H5Z" fill="white" />
	<path d="M8.10156 8.9541L9.96156 14.3911L11.8216 8.9541H8.10156Z" fill="white" />
	<path d="M7.59869 8.48535L8.23369 5.98535H7.15569L5.17969 8.48535H7.59869Z" fill="white" />
</svg>