<svg xmlns="http://www.w3.org/2000/svg" width="30" height="30" viewBox="0 0 30 30"><defs><style>.a{fill:#f1f1f2;}.b{fill:none;}.c,.e{fill:#ff71a4;}.d,.e{stroke:none;}</style></defs><g transform="translate(-907 -2863)"><g class="a" transform="translate(907 2863)"><path class="d" d="M 23 29.5 L 7 29.5 C 3.415889978408813 29.5 0.5 26.58411026000977 0.5 23 L 0.5 7 C 0.5 3.415889978408813 3.415889978408813 0.5 7 0.5 L 23 0.5 C 26.58411026000977 0.5 29.5 3.415889978408813 29.5 7 L 29.5 23 C 29.5 26.58411026000977 26.58411026000977 29.5 23 29.5 Z"/><path class="e" d="M 7 1 C 3.69158935546875 1 1 3.69158935546875 1 7 L 1 23 C 1 26.30841064453125 3.69158935546875 29 7 29 L 23 29 C 26.30841064453125 29 29 26.30841064453125 29 23 L 29 7 C 29 3.69158935546875 26.30841064453125 1 23 1 L 7 1 M 7 0 L 23 0 C 26.86598968505859 0 30 3.134010314941406 30 7 L 30 23 C 30 26.86598968505859 26.86598968505859 30 23 30 L 7 30 C 3.134010314941406 30 0 26.86598968505859 0 23 L 0 7 C 0 3.134010314941406 3.134010314941406 0 7 0 Z"/></g><g transform="translate(915 2871)"><g class="b" transform="translate(0 0)"><path class="d" d="M7.151,0A7.151,7.151,0,1,1,0,7.151,7.151,7.151,0,0,1,7.151,0Z"/><path class="e" d="M 7.1513671875 0.9999971389770508 C 3.759487152099609 0.9999971389770508 0.9999971389770508 3.759487152099609 0.9999971389770508 7.1513671875 C 0.9999971389770508 10.54324722290039 3.759487152099609 13.30273723602295 7.1513671875 13.30273723602295 C 10.54324722290039 13.30273723602295 13.30273723602295 10.54324722290039 13.30273723602295 7.1513671875 C 13.30273723602295 3.759487152099609 10.54324722290039 0.9999971389770508 7.1513671875 0.9999971389770508 M 7.1513671875 -2.86102294921875e-06 C 11.10095691680908 -2.86102294921875e-06 14.30273723602295 3.201777458190918 14.30273723602295 7.1513671875 C 14.30273723602295 11.10095691680908 11.10095691680908 14.30273723602295 7.1513671875 14.30273723602295 C 3.201777458190918 14.30273723602295 -2.86102294921875e-06 11.10095691680908 -2.86102294921875e-06 7.1513671875 C -2.86102294921875e-06 3.201777458190918 3.201777458190918 -2.86102294921875e-06 7.1513671875 -2.86102294921875e-06 Z"/></g><g transform="translate(7.154 4.067) rotate(45)"><path class="c" d="M4.6,3.819a.562.562,0,1,1-.794.794L2.39,3.184.976,4.613A.572.572,0,1,1,.168,3.8L1.6,2.39.168.976A.572.572,0,1,1,.976.167L2.39,1.6,3.8.167a.572.572,0,0,1,.809.809L3.185,2.39Z" transform="translate(0 0)"/></g></g></g></svg>