<svg width="16" height="16" viewBox="0 0 16 16" fill="none" xmlns="http://www.w3.org/2000/svg" id="dollarIconBg">
<path d="M7.43502 6.44892H7.59552V7.42462L7.32541 7.32681C7.18169 7.27477 7.05573 7.11286 7.05573 6.89759C7.05573 6.61607 7.25798 6.44892 7.43502 6.44892Z" fill="currentColor"/>
<path d="M8.40499 9.55101V8.57542L8.67482 8.67312C8.81853 8.72516 8.94449 8.88707 8.94449 9.10234C8.94449 9.38386 8.74225 9.55101 8.5652 9.55101H8.40499Z" fill="currentColor"/>
<path fill-rule="evenodd" clip-rule="evenodd" d="M5.97953 2.2202C7.31043 1.9266 8.68974 1.9266 10.0206 2.2202L10.299 2.28162C12.1578 2.69166 13.6232 4.11424 14.0821 5.95413C14.4172 7.29764 14.4172 8.70237 14.0821 10.0459C13.6232 11.8858 12.1578 13.3083 10.299 13.7184L10.0206 13.7798C8.68973 14.0734 7.31043 14.0734 5.97953 13.7798L5.70111 13.7184C3.84237 13.3083 2.37697 11.8858 1.91807 10.0459C1.58297 8.70237 1.58297 7.29763 1.91807 5.95413C2.37697 4.11424 3.84237 2.69166 5.70112 2.28162L5.97953 2.2202ZM8.40499 5.31314C8.40499 5.09056 8.22378 4.91012 8.00026 4.91012C7.77673 4.91012 7.59552 5.09056 7.59552 5.31314V5.64287H7.43502C6.74606 5.64287 6.24627 6.23835 6.24627 6.89759C6.24627 7.41549 6.5522 7.90452 7.04878 8.08433L7.59552 8.28231V9.55101H7.55041C7.30964 9.55101 7.05573 9.32774 7.05573 8.977C7.05573 8.75441 6.87453 8.57397 6.651 8.57397C6.42747 8.57397 6.24627 8.75441 6.24627 8.977C6.24627 9.70546 6.79772 10.3571 7.55041 10.3571H7.59552V10.6868C7.59552 10.9094 7.77673 11.0899 8.00026 11.0899C8.22378 11.0899 8.40499 10.9094 8.40499 10.6868V10.3571H8.5652C9.25416 10.3571 9.75396 9.76158 9.75396 9.10234C9.75396 8.58444 9.44803 8.09541 8.95145 7.9156L8.40499 7.71773V6.44892H8.44982C8.69059 6.44892 8.94449 6.67219 8.94449 7.02293C8.94449 7.24552 9.1257 7.42596 9.34922 7.42596C9.57275 7.42596 9.75396 7.24552 9.75396 7.02293C9.75396 6.29447 9.2025 5.64287 8.44982 5.64287H8.40499V5.31314Z" fill="currentColor"/>
</svg>
