<svg width="34" height="32" viewBox="0 0 34 32" fill="none" xmlns="http://www.w3.org/2000/svg" id="dollarGradient">
    <path
        d="M4.84859 11.7983C5.75019 8.18638 8.62922 5.39372 12.2811 4.58876L12.8894 4.45467C15.64 3.84836 18.4907 3.84836 21.2413 4.45467L21.8497 4.58876C25.5015 5.39372 28.3805 8.18639 29.2821 11.7983C29.9709 14.5575 29.9709 17.4424 29.2821 20.2016C28.3805 23.8135 25.5015 26.6062 21.8497 27.4111L21.2413 27.5452C18.4907 28.1515 15.64 28.1515 12.8894 27.5452L12.2811 27.4111C8.62921 26.6062 5.75019 23.8135 4.84859 20.2016C4.15984 17.4424 4.15984 14.5575 4.84859 11.7983Z"
        stroke="url(#paint0_linear_734_60220)" stroke-width="1.66667" />
    <path fill-rule="evenodd" clip-rule="evenodd"
        d="M17.0644 9.33344C17.5768 9.33344 17.9923 9.72275 17.9923 10.203V10.9144H18.0951C19.8208 10.9144 21.0851 12.3203 21.0851 13.892C21.0851 14.3723 20.6696 14.7616 20.1571 14.7616C19.6447 14.7616 19.2292 14.3723 19.2292 13.892C19.2292 13.1353 18.6471 12.6535 18.0951 12.6535H17.9923V15.3911L19.2452 15.818C20.3837 16.206 21.0851 17.2611 21.0851 18.3785C21.0851 19.8009 19.9392 21.0857 18.3596 21.0857H17.9923V21.7972C17.9923 22.2775 17.5768 22.6668 17.0644 22.6668C16.5519 22.6668 16.1364 22.2775 16.1364 21.7972V21.0857H16.033C14.3073 21.0857 13.043 19.6798 13.043 18.1081C13.043 17.6278 13.4584 17.2385 13.9709 17.2385C14.4834 17.2385 14.8988 17.6278 14.8988 18.1081C14.8988 18.8648 15.481 19.3466 16.033 19.3466H16.1364V16.6092L14.8829 16.1821C13.7444 15.7941 13.043 14.739 13.043 13.6216C13.043 12.1992 14.1888 10.9144 15.7684 10.9144H16.1364V10.203C16.1364 9.72275 16.5519 9.33344 17.0644 9.33344ZM16.1364 12.6535H15.7684C15.3625 12.6535 14.8988 13.0142 14.8988 13.6216C14.8988 14.086 15.1876 14.4354 15.5171 14.5477L16.1364 14.7587V12.6535ZM17.9923 17.2416V19.3466H18.3596C18.7655 19.3466 19.2292 18.9859 19.2292 18.3785C19.2292 17.9141 18.9404 17.5647 18.6109 17.4524L17.9923 17.2416Z"
        fill="url(#paint1_linear_734_60220)" />
    <defs>
        <linearGradient id="paint0_linear_734_60220" x1="4.33203" y1="3.99994" x2="32.388"
            y2="7.55271" gradientUnits="userSpaceOnUse">
            <stop stop-color="#D33AFF" />
            <stop offset="1" stop-color="#FF71A4" />
        </linearGradient>
        <linearGradient id="paint1_linear_734_60220" x1="13.043" y1="9.33344" x2="21.9984"
            y2="9.97805" gradientUnits="userSpaceOnUse">
            <stop stop-color="#D33AFF" />
            <stop offset="1" stop-color="#FF71A4" />
        </linearGradient>
    </defs>
</svg>