
<svg xmlns="http://www.w3.org/2000/svg" width="46" height="37.195" viewBox="0 0 46 37.195">
  <g id="badge" transform="translate(0 -49)">
    <circle id="Ellipse_1644" data-name="Ellipse 1644" cx="1.5" cy="1.5" r="1.5" transform="translate(12 66)" fill="#b5b5b5"/>
    <path id="Path_108873" data-name="Path 108873" d="M41.957,113H30.637v5.66a4.048,4.048,0,0,1-4.043,4.043H19.406a4.048,4.048,0,0,1-4.043-4.043V113H4.043A4.048,4.048,0,0,0,0,117.043V140.4a4.048,4.048,0,0,0,4.043,4.043H41.957A4.048,4.048,0,0,0,46,140.4V117.043A4.048,4.048,0,0,0,41.957,113ZM18.687,137.258H8.625a1.348,1.348,0,0,1-1.348-1.348c0-2.748.8-5.857,3.04-7.481a4.223,4.223,0,1,1,6.677,0c2.245,1.626,3.04,4.736,3.04,7.481A1.348,1.348,0,0,1,18.687,137.258Zm18.687,0H24.437a1.348,1.348,0,1,1,0-2.7H37.375a1.348,1.348,0,1,1,0,2.7Zm0-6.469H26.594a1.348,1.348,0,0,1,0-2.7H37.375a1.348,1.348,0,0,1,0,2.7Z" transform="translate(0 -58.25)" fill="#b5b5b5"/>
    <path id="Path_108874" data-name="Path 108874" d="M115.483,303a2.975,2.975,0,0,0-2.7,1.6,7.389,7.389,0,0,0-.9,2.892h7.209a7.391,7.391,0,0,0-.9-2.892A2.975,2.975,0,0,0,115.483,303Z" transform="translate(-101.826 -231.18)" fill="#b5b5b5"/>
    <path id="Path_108875" data-name="Path 108875" d="M201,60.41a1.348,1.348,0,0,0,1.348,1.348h7.187a1.348,1.348,0,0,0,1.348-1.348V50.348A1.348,1.348,0,0,0,209.535,49h-7.187A1.348,1.348,0,0,0,201,50.348Z" transform="translate(-182.941)" fill="#b5b5b5"/>
  </g>
</svg>
