<svg xmlns="http://www.w3.org/2000/svg" width="16.311" height="22.069" viewBox="0 0 16.311 22.069">
  <g id="EXCLUSIVE" transform="translate(-151.67 -11.669)">
    <path id="Path_172324" data-name="Path 172324" d="M154.549,20.3v-3.8a5.3,5.3,0,0,1,10.554,0v3.8h1.071a1.867,1.867,0,0,1,1.808,1.917v9.6a1.865,1.865,0,0,1-1.808,1.917h-12.7a1.867,1.867,0,0,1-1.808-1.917v-9.6a1.865,1.865,0,0,1,1.808-1.917Zm-.96,1.919v9.6h12.474v-9.6Zm9.6-1.919v-3.8a3.392,3.392,0,0,0-6.717,0v3.8Zm-4.318,5.55a.959.959,0,0,1,1.919,0v2.879a.959.959,0,0,1-1.919,0Z" fill="currentColor"/>
  </g>
</svg>
