<svg xmlns="http://www.w3.org/2000/svg" width="20.027" height="15.406" viewBox="0 0 20.027 15.406">
  <path id="Path_173049" data-name="Path 173049" d="M124.879,170.872a.385.385,0,0,0,.006-.081c0-.009,0-.017,0-.025a.4.4,0,0,0-.012-.039.392.392,0,0,0-.023-.075,72.357,72.357,0,0,1-.055-.1l-3.541-4.182a.333.333,0,0,0-.045-.035.341.341,0,0,0-.05-.044s-.009,0-.013,0a.335.335,0,0,0-.061-.02.328.328,0,0,0-.078-.018c-.005,0-.01,0-.015,0H108.953c-.005,0-.01,0-.015,0a.323.323,0,0,0-.078.018.334.334,0,0,0-.061.02s-.009,0-.013,0a.336.336,0,0,0-.05.044.345.345,0,0,0-.045.035l-3.542,4.182a.334.334,0,0,0-.019.035.374.374,0,0,0-.036.063.39.39,0,0,0-.023.075.406.406,0,0,0-.012.039c0,.009,0,.017,0,.025a.407.407,0,0,0,.006.081.4.4,0,0,0,.013.063.37.37,0,0,0,.031.065.376.376,0,0,0,.038.06c0,.006.006.013.012.018l9.562,10.264c.005.006.013.008.019.013a.344.344,0,0,0,.079.057.329.329,0,0,0,.032.016.333.333,0,0,0,.121.025.328.328,0,0,0,.121-.025.473.473,0,0,0,.111-.073c.006-.005.013-.007.018-.013l9.562-10.264c.005-.005.007-.013.012-.018a.381.381,0,0,0,.038-.06.4.4,0,0,0,.031-.065.413.413,0,0,0,.012-.063Zm-16-3.59,1.919,3.826-4.661-.589Zm14.932,3.237-4.661.589,1.919-3.826Zm-5.819,1.432-3.018,8.1-3.018-8.1Zm-5.84-.76,2.822-3.938,2.822,3.938Zm6.311-.317-2.77-3.865H120.4Zm-6.978,0-1.938-3.865h4.708Zm-.3,1.048L114,179.5l-7.621-8.18Zm7.584,0,4.8-.606-7.621,8.18Z" transform="translate(-104.96 -166.148)" fill="currentColor" stroke="currentColor" stroke-width="0.2"/>
</svg>
