<svg xmlns="http://www.w3.org/2000/svg" xmlns:xlink="http://www.w3.org/1999/xlink" width="109.961" height="16.22" viewBox="0 0 109.961 16.22">
  <defs>
    <linearGradient id="linear-gradient" y1="0.5" x2="1" y2="0.5" gradientUnits="objectBoundingBox">
      <stop offset="0" stop-color="#fa890b"/>
      <stop offset="1" stop-color="#db0030"/>
    </linearGradient>
  </defs>
  <g id="starstruck" transform="translate(-21.252 -36)">
    <g id="Group_28321" data-name="Group 28321" transform="translate(43.875 37.302)">
      <path id="Path_16" data-name="Path 16" d="M218.943,920.965h3.3a1.321,1.321,0,0,0,.439.959,1.772,1.772,0,0,0,1.219.368,2.122,2.122,0,0,0,1.171-.312,1.013,1.013,0,0,0,.486-.908,1.052,1.052,0,0,0-.01-.158.731.731,0,0,0-.082-.2.794.794,0,0,0-.2-.24,2.568,2.568,0,0,0-.4-.25,4.246,4.246,0,0,0-.66-.269l-1.583-.541a6.519,6.519,0,0,1-1.514-.617,4.381,4.381,0,0,1-1.026-.78,3.6,3.6,0,0,1-.607-.884,3.475,3.475,0,0,1-.306-.875,4.5,4.5,0,0,1-.072-.813,3.737,3.737,0,0,1,1.345-2.98,5.026,5.026,0,0,1,3.385-1.15,4.867,4.867,0,0,1,3.327,1.127,3.89,3.89,0,0,1,1.287,3.085h-3.249a1.239,1.239,0,0,0-.343-.919,1.443,1.443,0,0,0-1.057-.342,1.677,1.677,0,0,0-1.042.294.938.938,0,0,0-.386.785q0,.734,1.229,1.109l1.551.482q3.731,1.16,3.724,4.115a3.944,3.944,0,0,1-.3,1.561,3.38,3.38,0,0,1-.793,1.165,4.578,4.578,0,0,1-1.145.776,5.629,5.629,0,0,1-1.336.452,7.023,7.023,0,0,1-1.388.138,5.415,5.415,0,0,1-3.606-1.141A3.775,3.775,0,0,1,218.943,920.965Z" transform="translate(-218.943 -911.071)" fill="#fff"/>
      <path id="Path_17" data-name="Path 17" d="M247.748,920.228v-2.283h1.623v-3.266h3.113v3.266h1.872v2.283h-1.872v6.828h-3.113v-6.828Z" transform="translate(-236.774 -913.151)" fill="#fff"/>
      <path id="Path_18" data-name="Path 18" d="M267.376,927.391a5.2,5.2,0,0,1,.373-1.982,4.368,4.368,0,0,1,.988-1.511,4.617,4.617,0,0,1,1.4-.934,4.062,4.062,0,0,1,1.626-.339,3.426,3.426,0,0,1,1.431.32,2.662,2.662,0,0,1,1.106.893v-.974h3.113v9.111H274.3v-1.048a2.7,2.7,0,0,1-1.092.9,3.373,3.373,0,0,1-1.445.317,4.235,4.235,0,0,1-2.123-.56,4.362,4.362,0,0,1-1.626-1.665A4.971,4.971,0,0,1,267.376,927.391Zm3.673-1.316a1.865,1.865,0,0,0,0,2.665,1.918,1.918,0,0,0,2.69,0,1.866,1.866,0,0,0,0-2.665,1.905,1.905,0,0,0-2.69,0Z" transform="translate(-248.924 -918.07)" fill="#fff"/>
      <path id="Path_19" data-name="Path 19" d="M299.963,931.975v-9.111h2.951v2.244a3.413,3.413,0,0,1,1.127-1.858,2.758,2.758,0,0,1,1.747-.626,3.14,3.14,0,0,1,1.347.258l-.755,2.932a4.065,4.065,0,0,0-1.413-.239,1.756,1.756,0,0,0-1.022.272,1.921,1.921,0,0,0-.63,1.041,7.329,7.329,0,0,0-.239,2.1v2.989Z" transform="translate(-269.096 -918.07)" fill="#fff"/>
      <path id="Path_20" data-name="Path 20" d="M320.993,920.965h3.3a1.319,1.319,0,0,0,.438.959,1.773,1.773,0,0,0,1.22.368,2.12,2.12,0,0,0,1.171-.312,1.012,1.012,0,0,0,.486-.908,1.049,1.049,0,0,0-.01-.158.734.734,0,0,0-.082-.2.79.79,0,0,0-.2-.24,2.56,2.56,0,0,0-.4-.25,4.274,4.274,0,0,0-.66-.269l-1.583-.541a6.521,6.521,0,0,1-1.514-.617,4.38,4.38,0,0,1-1.026-.78,3.6,3.6,0,0,1-.607-.884,3.472,3.472,0,0,1-.306-.875,4.534,4.534,0,0,1-.072-.813,3.738,3.738,0,0,1,1.344-2.98,5.027,5.027,0,0,1,3.385-1.15,4.866,4.866,0,0,1,3.326,1.127,3.89,3.89,0,0,1,1.287,3.085H327.24a1.24,1.24,0,0,0-.343-.919,1.443,1.443,0,0,0-1.057-.342,1.678,1.678,0,0,0-1.042.294.938.938,0,0,0-.386.785q0,.734,1.229,1.109l1.551.482q3.731,1.16,3.725,4.115a3.944,3.944,0,0,1-.3,1.561,3.365,3.365,0,0,1-.794,1.165,4.559,4.559,0,0,1-1.145.776,5.625,5.625,0,0,1-1.335.452,7.027,7.027,0,0,1-1.388.138,5.417,5.417,0,0,1-3.606-1.141A3.775,3.775,0,0,1,320.993,920.965Z" transform="translate(-282.114 -911.071)" fill="#fff"/>
      <path id="Path_21" data-name="Path 21" d="M349.8,920.228v-2.283h1.624v-3.266h3.113v3.266H356.4v2.283h-1.872v6.828H351.42v-6.828Z" transform="translate(-299.943 -913.151)" fill="#fff"/>
      <path id="Path_22" data-name="Path 22" d="M371.154,931.975v-9.111h2.951v2.244a3.414,3.414,0,0,1,1.127-1.858,2.757,2.757,0,0,1,1.748-.626,3.138,3.138,0,0,1,1.347.258l-.754,2.932a4.067,4.067,0,0,0-1.413-.239,1.755,1.755,0,0,0-1.022.272,1.922,1.922,0,0,0-.63,1.041,7.33,7.33,0,0,0-.239,2.1v2.989Z" transform="translate(-313.164 -918.07)" fill="#fff"/>
      <path id="Path_23" data-name="Path 23" d="M392.862,928.037v-4.785h3.113v4.689a1.485,1.485,0,0,0,.452,1.208,1.564,1.564,0,0,0,1.033.378,2.07,2.07,0,0,0,.547-.072,1.883,1.883,0,0,0,.51-.229,1.1,1.1,0,0,0,.4-.463,1.661,1.661,0,0,0,.147-.726v-4.785h3.113v9.111H399.06V930.93a1.75,1.75,0,0,1-.623.922,2.871,2.871,0,0,1-.981.535,3.344,3.344,0,0,1-.947.148,3.256,3.256,0,0,1-2.727-1.17A5.28,5.28,0,0,1,392.862,928.037Z" transform="translate(-326.601 -918.458)" fill="#fff"/>
      <path id="Path_24" data-name="Path 24" d="M423.444,924.573V910.668h3.113v7l1.776-2.206h3.811l-3.362,4.049,4.087,5.062h-3.715l-2.6-3.285v3.285Z" transform="translate(-345.532 -910.668)" fill="#fff"/>
    </g>
    <g id="Group_39793" data-name="Group 39793" transform="translate(21.252 36)">
      <path id="Path_1" data-name="Path 1" d="M289.056,685.194h-5.544a1.237,1.237,0,0,1-.925-.406,1.251,1.251,0,0,1-.163-1.479l1.536-2.661.017-.028,1.219-2.112a1.258,1.258,0,0,1,2.177,0l1.487,2.576,1.284,2.225A1.257,1.257,0,0,1,289.056,685.194Z" transform="translate(-278.214 -677.88)" fill="#fff"/>
      <path id="Path_2" data-name="Path 2" d="M284.281,714.49a3.1,3.1,0,0,1-1.694,2.765,1.251,1.251,0,0,1-.163-1.479l1.536-2.661A3.082,3.082,0,0,1,284.281,714.49Z" transform="translate(-278.214 -710.347)" fill="#fff" opacity="0.15"/>
      <path id="Path_3" data-name="Path 3" d="M309.068,681.084a3.1,3.1,0,0,1-4.883-.464l1.219-2.112a1.258,1.258,0,0,1,2.177,0Z" transform="translate(-298.421 -677.88)" fill="#fff" opacity="0.28"/>
      <path id="Path_4" data-name="Path 4" d="M238.133,731.075v5.544a1.257,1.257,0,0,1-1.885,1.088l-4.652-2.685-.149-.087a1.258,1.258,0,0,1,0-2.177l3.224-1.861.183-.105,1.394-.805A1.257,1.257,0,0,1,238.133,731.075Z" transform="translate(-230.819 -725.737)" fill="#fff"/>
      <path id="Path_5" data-name="Path 5" d="M285.464,731.075v.956a3.105,3.105,0,0,1-3.279-1.239l1.394-.805A1.257,1.257,0,0,1,285.464,731.075Z" transform="translate(-278.149 -725.737)" fill="#fff" opacity="0.2"/>
      <path id="Path_6" data-name="Path 6" d="M234.844,744.6a3.1,3.1,0,0,1-3.1,3.1c-.049,0-.1,0-.145,0l-.149-.086a1.258,1.258,0,0,1,0-2.177l3.224-1.861A3.1,3.1,0,0,1,234.844,744.6Z" transform="translate(-230.819 -738.415)" fill="#fff" opacity="0.28"/>
      <path id="Path_7" data-name="Path 7" d="M290.147,793.145l-.858,1.488-.771,1.335-.65,1.128-.491.85c-.009.016-.018.031-.028.045a1.258,1.258,0,0,1-2.149-.045l-1.269-2.2-.042-.074-1.405-2.434-.054-.094a1.257,1.257,0,0,1,1.088-1.885h5.544A1.257,1.257,0,0,1,290.147,793.145Z" transform="translate(-278.216 -782.354)" fill="#fff"/>
      <path id="Path_8" data-name="Path 8" d="M349.881,734.935l-1.09.631-.522.3-.775.448-2.414,1.394a1.258,1.258,0,0,1-1.885-1.089v-5.544a1.257,1.257,0,0,1,1.885-1.088l1.664.961.958.554.3.17.313.181,1.57.907A1.257,1.257,0,0,1,349.881,734.935Z" transform="translate(-334.368 -725.736)" fill="#fff"/>
      <path id="Path_9" data-name="Path 9" d="M398.6,754.69l-1.09.63a3.106,3.106,0,0,1-1.088-4.065l.3.17,1.883,1.087A1.258,1.258,0,0,1,398.6,754.69Z" transform="translate(-383.084 -745.491)" fill="#fff" opacity="0.28"/>
      <path id="Path_10" data-name="Path 10" d="M346.876,731.844a3.1,3.1,0,0,1-3.682,3.049v-3.818a1.257,1.257,0,0,1,1.885-1.088l1.664.961A3.069,3.069,0,0,1,346.876,731.844Z" transform="translate(-334.367 -725.737)" fill="#fff" opacity="0.1"/>
      <path id="Path_11" data-name="Path 11" d="M306.963,850.275a1.258,1.258,0,0,1-2.149-.046l-1.269-2.2a3.066,3.066,0,0,1,.428-.03A3.1,3.1,0,0,1,306.963,850.275Z" transform="translate(-297.832 -834.637)" fill="#fff" opacity="0.28"/>
      <path id="Path_12" data-name="Path 12" d="M285.888,792.771a3.1,3.1,0,0,1-2,2.9l-1.405-2.434-.054-.094a1.257,1.257,0,0,1,1.088-1.885H285.5A3.079,3.079,0,0,1,285.888,792.771Z" transform="translate(-278.216 -782.354)" fill="#fff" opacity="0.1"/>
      <g id="Group_2" data-name="Group 2" transform="translate(4.934 4.973)">
        <circle id="Ellipse_1" data-name="Ellipse 1" cx="3.137" cy="3.137" r="3.137" transform="translate(0 0)" fill="#e2e2e2"/>
        <g id="Group_1" data-name="Group 1" transform="translate(1.828 1.365)">
          <path id="Path_13" data-name="Path 13" d="M319.851,760.819l-.479.277-.229.132-1.4.809a.552.552,0,0,1-.829-.478v-2.437a.553.553,0,0,1,.829-.478l.732.422.421.243.13.075.137.079.69.4A.553.553,0,0,1,319.851,760.819Z" transform="translate(-316.911 -758.568)" fill="url(#linear-gradient)"/>
        </g>
      </g>
      <path id="Path_14" data-name="Path 14" d="M353.723,810.2l-2.414,1.394a1.248,1.248,0,0,1-1.354-.064,3.105,3.105,0,0,1,3.768-1.33Z" transform="translate(-340.597 -799.622)" fill="#fff" opacity="0.15"/>
      <path id="Path_15" data-name="Path 15" d="M351.244,834.016l-.771,1.335-.65,1.128a1.532,1.532,0,0,1,1.2-2.479A1.557,1.557,0,0,1,351.244,834.016Z" transform="translate(-340.172 -821.737)" fill="#fff" opacity="0.2"/>
    </g>
  </g>
</svg>
