<svg id="floatingPlus" width="51" height="51" viewBox="0 0 51 51" fill="none"
    xmlns="http://www.w3.org/2000/svg">
    <g clip-path="url(#clip0_603_196682)">
        <path d="M11.5428 4.68747C15.6287 1.9573 20.4326 0.500057 25.3467 0.5C31.9342 0.507863 38.2497 3.12822 42.9077 7.78629C47.5659 12.4444 50.1862 18.76 50.194 25.3476C50.1939 30.2617 48.7367 35.0653 46.0065 39.1513C43.2763 43.2373 39.3957 46.422 34.8555 48.3026C30.3154 50.1832 25.3194 50.6753 20.4996 49.7166C15.6798 48.7578 11.2524 46.3914 7.77753 42.9165C4.30261 39.4416 1.93617 35.0143 0.97744 30.1944C0.0187126 25.3746 0.510766 20.3787 2.39138 15.8385C4.27199 11.2983 7.45669 7.4177 11.5428 4.68747Z" fill="url(#paint0_linear_603_196682)" stroke="white"/>
        <path d="M35.1629 23.2072H27.3099V15.3522C27.3099 14.8314 27.103 14.332 26.7348 13.9638C26.3666 13.5955 25.8672 13.3887 25.3464 13.3887C24.8257 13.3887 24.3262 13.5955 23.958 13.9638C23.5898 14.332 23.3829 14.8314 23.3829 15.3522V23.2052H15.5299C15.0091 23.2052 14.5097 23.412 14.1415 23.7803C13.7733 24.1485 13.5664 24.6479 13.5664 25.1687C13.5664 25.6894 13.7733 26.1889 14.1415 26.5571C14.5097 26.9253 15.0091 27.1322 15.5299 27.1322H23.3829V34.9852C23.3829 35.5059 23.5898 36.0054 23.958 36.3736C24.3262 36.7418 24.8257 36.9487 25.3464 36.9487C25.8672 36.9487 26.3666 36.7418 26.7348 36.3736C27.103 36.0054 27.3099 35.5059 27.3099 34.9852V27.1322H35.1629C35.6837 27.1322 36.1831 26.9253 36.5513 26.5571C36.9195 26.1889 37.1264 25.6894 37.1264 25.1687C37.1264 24.6479 36.9195 24.1485 36.5513 23.7803C36.1831 23.412 35.6837 23.2052 35.1629 23.2052V23.2072Z" fill="white"/>
    </g>
    <defs>
        <linearGradient id="paint0_linear_603_196682" x1="0" y1="0" x2="55.947" y2="6.67665" gradientUnits="userSpaceOnUse">
            <stop stop-color="#D33AFF"/>
            <stop offset="1" stop-color="#FF71A4"/>
        </linearGradient>
        <clipPath id="clip0_603_196682">
            <rect width="50.694" height="50.694" fill="white"/>
        </clipPath>
    </defs>
</svg>
