<svg xmlns="http://www.w3.org/2000/svg" width="102" height="102" viewBox="0 0 102 102">
  <g id="Group_40633" data-name="Group 40633" transform="translate(-7951 -6517)">
    <g id="followers" transform="translate(7951 6517)">
      <path id="Path_108942" data-name="Path 108942" d="M416.809,8.439h-5.493V2.988a2.988,2.988,0,1,0-5.977,0v5.45h-5.492a2.988,2.988,0,0,0,0,5.977h5.492v5.45a2.988,2.988,0,1,0,5.977,0v-5.45h5.493a2.988,2.988,0,0,0,0-5.977Z" transform="translate(-317.797)" fill="#ff71a4"/>
      <path id="Path_108943" data-name="Path 108943" d="M17.2,320.815c0-.792.035-1.581.1-2.365a22.221,22.221,0,0,1-10.65-6.427A19.818,19.818,0,0,0,0,326.834v25.027H17.2Z" transform="translate(0 -249.861)" fill="#2F0074"/>
      <path id="Path_108944" data-name="Path 108944" d="M56.895,171.276a25.443,25.443,0,0,1-3.843-13.47c0-.532.018-1.06.051-1.585a16.137,16.137,0,0,0-7.539,31.34,30.566,30.566,0,0,1,11.331-16.285Z" transform="translate(-27.206 -124.884)" fill="#2F0074"/>
      <path id="Path_108945" data-name="Path 108945" d="M179.51,105.8A19.691,19.691,0,1,1,199.285,86.1,19.755,19.755,0,0,1,179.51,105.8Z" transform="translate(-127.914 -53.183)" fill="#ff71a4"/>
      <path id="Path_108946" data-name="Path 108946" d="M162.938,256.369a25.769,25.769,0,0,1-36.378,0,24.433,24.433,0,0,0-10.233,19.88V307.3h56.844V276.249A24.434,24.434,0,0,0,162.938,256.369Z" transform="translate(-93.152 -205.295)" fill="#ff71a4"/>
    </g>
  </g>
</svg>
