<svg xmlns="http://www.w3.org/2000/svg" width="15.042" height="12.538" viewBox="0 0 15.042 12.538">
  <g id="noun-follow-202732" transform="translate(-98 -70)">
    <path id="Path_172323" data-name="Path 172323" d="M101.756,75.008H100.5v1.252H99.252V75.008H98V73.756h1.252V72.5H100.5v1.252h1.252Zm10.685,4.574a16.951,16.951,0,0,0-2.988-1.419,3.8,3.8,0,0,1-3.289,1.853,3.755,3.755,0,0,1-3.289-1.87,16.435,16.435,0,0,0-3.038,1.436,1.239,1.239,0,0,0-.584,1.068V81.9a.634.634,0,0,0,.634.634h12.521a.634.634,0,0,0,.634-.634V80.651a1.293,1.293,0,0,0-.6-1.068ZM106.164,70a3.19,3.19,0,0,1,3.139,3.239c0,1.786-.3,5.526-3.139,5.526s-3.139-3.723-3.139-5.526A3.19,3.19,0,0,1,106.164,70Z" fill="#ff71a4"/>
  </g>
</svg>
