<svg xmlns="http://www.w3.org/2000/svg" width="152" height="152" viewBox="0 0 152 152">
  <g id="hashtag_svg" data-name="Group 130963" transform="translate(-8718 -18677)">
    <g id="Group_130879" data-name="Group 130879" transform="translate(7956 18276)">
      <circle id="Ellipse_1784" data-name="Ellipse 1784" cx="75" cy="75" r="75" transform="translate(763 402)" fill="none" stroke="currentColor" stroke-width="2"/>
    </g>
    <path id="hashtag" d="M65.414,25.386H56.936L59.9,12.625a4.364,4.364,0,0,0-8.5-1.974l-3.42,14.735H28.355l2.962-12.761a4.364,4.364,0,0,0-8.5-1.974L19.4,25.386H9.6a4.2,4.2,0,1,0,0,8.4h7.844L14.1,48.19H4.2a4.2,4.2,0,0,0,0,8.4h7.95L9.189,69.353a4.364,4.364,0,1,0,8.5,1.973l3.42-14.734H40.733L37.771,69.353a4.364,4.364,0,1,0,8.5,1.973l3.42-14.734h9.721a4.2,4.2,0,1,0,0-8.4h-7.77l3.344-14.4H65.414a4.2,4.2,0,1,0,0-8.4Zm-22.73,22.8H23.06l3.344-14.4H46.027Z" transform="translate(8759.457 18711.922)" fill="currentColor"/>
  </g>
</svg>
