<svg xmlns="http://www.w3.org/2000/svg" width="42.465" height="41.134" viewBox="0 0 42.465 41.134"><defs><style>.a{fill:#fff;}</style></defs><path class="a" d="M39.9,18.322H34.731l1.807-7.784a2.662,2.662,0,0,0-5.186-1.2l-2.086,8.989H17.3L19.1,10.537a2.662,2.662,0,0,0-5.186-1.2l-2.086,8.989H5.857a2.563,2.563,0,1,0,0,5.125h4.785L8.6,32.233H2.563a2.563,2.563,0,0,0,0,5.125h4.85L5.605,45.142a2.662,2.662,0,1,0,5.186,1.2l2.086-8.988h11.97L23.04,45.142a2.662,2.662,0,1,0,5.186,1.2l2.086-8.988h5.93a2.563,2.563,0,1,0,0-5.125H31.5l2.04-8.786H39.9a2.563,2.563,0,1,0,0-5.125ZM26.037,32.233H14.067l2.04-8.786h11.97Z" transform="translate(0 -7.273)"/></svg>