
<svg xmlns="http://www.w3.org/2000/svg" width="22.223" height="17.18" viewBox="0 0 22.223 17.18">
  <g id="homepage_guest" data-name="white mode (1)" transform="translate(-1.203 -1.301)">
    <path id="Path_173067" data-name="Path 173067" d="M10.9,14.2l6.5,2.3h.4c.1,0,.2-.1.3-.2.2-.2.3-.4.2-.6L15.7,2c0-.2-.2-.4-.5-.5H15c-.2,0-.3.1-.5.2L9.4,6.2l-4.9.9a4.027,4.027,0,0,0-3.2,4.8,4.074,4.074,0,0,0,4,3.3h.2l1.3,2.9A.671.671,0,0,0,8,17.5L6.9,15ZM14.5,3.5l2.2,11.4L11.5,13,10.4,7.1ZM5.8,13.8H5.3a2.773,2.773,0,0,1-2.7-2.2h0A2.729,2.729,0,0,1,4.8,8.4l4.3-.8,1,5.3Z" fill="currentColor"/>
    <g id="Group_131771" data-name="Group 131771">
      <path id="Path_173068" data-name="Path 173068" d="M20.7,13l1.9.5h.3a.618.618,0,0,0,.5-.8c-.1-.3-.3-.5-.5-.5L21,11.6h-.2a.756.756,0,0,0-.4.1c-.2.1-.3.2-.3.4a.749.749,0,0,0,.1.5A1,1,0,0,0,20.7,13Z" fill="currentColor"/>
      <path id="Path_173069" data-name="Path 173069" d="M18.4,3a.749.749,0,0,0,.1.5.908.908,0,0,0,.7.3c.1,0,.2-.1.3-.1l1.6-1.1a.658.658,0,0,0,.1-1,.784.784,0,0,0-1-.2L18.6,2.5C18.5,2.7,18.4,2.8,18.4,3Z" fill="currentColor"/>
      <path id="Path_173070" data-name="Path 173070" d="M20,8.4l2.6-.5c.2,0,.3-.1.4-.3a.9.9,0,0,0,.1-.5.618.618,0,0,0-.8-.5l-2.5.5a.55.55,0,0,0-.5.3.44.44,0,0,0-.1.5c0,.2.1.3.3.4A.749.749,0,0,0,20,8.4Z" fill="currentColor"/>
    </g>
  </g>
</svg>
