
<svg xmlns="http://www.w3.org/2000/svg" width="15.872" height="15.708" viewBox="0 0 15.872 15.708">
  <g id="review" transform="translate(-2.517 -2.9)">
    <path id="Path_172112" data-name="Path 172112" d="M17.52,3.851a.855.855,0,0,0-.851.851V5.9L16,5.237A7.8,7.8,0,0,0,10.426,2.9a7.918,7.918,0,0,0-7.9,8.4.853.853,0,0,0,.835.8h.05a.843.843,0,0,0,.785-.9A6.229,6.229,0,0,1,14.816,6.422l.668.668h-1.2a.827.827,0,0,0-.835.835.855.855,0,0,0,.851.851h3.238a.855.855,0,0,0,.851-.851V4.686A.866.866,0,0,0,17.52,3.851Z" transform="translate(0 0)" fill="currentColor"/>
    <path id="Path_172113" data-name="Path 172113" d="M48.189,28.223,46.2,27.672V24.751a.851.851,0,0,0-1.7,0v3.555a.842.842,0,0,0,.618.818l2.6.734a1.127,1.127,0,0,0,.234.033.872.872,0,0,0,.818-.618A.836.836,0,0,0,48.189,28.223Z" transform="translate(-34.975 -17.495)" fill="currentColor"/>
    <path id="Path_172114" data-name="Path 172114" d="M26.565,83a5.934,5.934,0,0,1-1.152-.517.759.759,0,1,0-.751,1.319,6.483,6.483,0,0,0,1.436.634.608.608,0,0,0,.234.033.751.751,0,0,0,.718-.517A.769.769,0,0,0,26.565,83Z" transform="translate(-18.125 -66.208)" fill="currentColor"/>
    <path id="Path_172115" data-name="Path 172115" d="M8.924,65.127a.758.758,0,0,0-1.352.684,7.662,7.662,0,0,0,.835,1.319.768.768,0,0,0,.6.284.7.7,0,0,0,.467-.167.767.767,0,0,0,.134-1.068A5.7,5.7,0,0,1,8.924,65.127Z" transform="translate(-4.14 -51.494)" fill="currentColor"/>
    <path id="Path_172116" data-name="Path 172116" d="M72.029,74.014c-.083.1-.184.2-.267.284a7.272,7.272,0,0,1-.668.584.768.768,0,0,0-.15,1.068.758.758,0,0,0,.6.3A.732.732,0,0,0,72,76.1a8.121,8.121,0,0,0,.818-.718c.117-.117.234-.234.334-.351a.746.746,0,0,0-.067-1.068A.713.713,0,0,0,72.029,74.014Z" transform="translate(-56.879 -59.029)" fill="currentColor"/>
    <path id="Path_172117" data-name="Path 172117" d="M49.867,86.585a5.3,5.3,0,0,1-1.252.2.774.774,0,0,0-.718.8.764.764,0,0,0,.751.718h.05a8.136,8.136,0,0,0,1.552-.25.759.759,0,0,0-.384-1.469Z" transform="translate(-37.805 -69.696)" fill="currentColor"/>
  </g>
</svg>
