<svg xmlns="http://www.w3.org/2000/svg" width="22.001" height="22.001" viewBox="0 0 22.001 22.001">
  <g id="INFO" transform="translate(-93.33 -23.33)">
    <path id="Path_172325" data-name="Path 172325" d="M104.33,45.331a11,11,0,1,1,11-11A11,11,0,0,1,104.33,45.331Zm0-20a9,9,0,1,0,9,9A8.995,8.995,0,0,0,104.33,25.33Z" fill="currentColor"/>
    <path id="Path_172326" data-name="Path 172326" d="M327.668,241.086a1,1,0,0,1-1-1v-5.75a1,1,0,0,1,2,0v5.75A1,1,0,0,1,327.668,241.086Z" transform="translate(-223.338 -201.006)" fill="currentColor"/>
    <path id="Path_172327" data-name="Path 172327" d="M328.666,158.5a1,1,0,1,1-1-1,1,1,0,0,1,1,1" transform="translate(-223.336 -128.418)" fill="currentColor"/>
    <path id="Path_172328" data-name="Path 172328" d="M322.082,154.164a1.25,1.25,0,1,1,1.25-1.25A1.238,1.238,0,0,1,322.082,154.164Zm0-2a.75.75,0,1,0,.75.75A.736.736,0,0,0,322.082,152.164Z" transform="translate(-217.752 -122.834)" fill="currentColor"/>
  </g>
</svg>
