<svg xmlns="http://www.w3.org/2000/svg" width="40" height="40" viewBox="0 0 40 40">
  <g id="Group_132914" data-name="Group 132914" transform="translate(1397 20963)">
    <g id="Ellipse_1714" data-name="Ellipse 1714" transform="translate(-1397 -20963)" fill="#" stroke="#eaeaea" stroke-width="1">
      <circle cx="20" cy="20" r="20" stroke="none"/>
      <circle cx="20" cy="20" r="19.5" fill="none"/>
    </g>
    <g id="noun-info-3751022" transform="translate(-1457.356 -20987.965)">
      <path id="Path_176535" data-name="Path 176535" d="M311.635,363.45h-1.422a.64.64,0,0,0,0,1.281h1.422a.64.64,0,1,0,0-1.281Z" transform="translate(-230.459 -314.882)" fill="#12161f"/>
      <path id="Path_176536" data-name="Path 176536" d="M310.376,237.479h.706l-.64-.64V241.1a.64.64,0,1,0,1.281,0v-4.258a.65.65,0,0,0-.64-.64h-.706a.64.64,0,0,0,0,1.281Z" transform="translate(-230.616 -191.888)" fill="#12161f"/>
      <path id="Path_176537" data-name="Path 176537" d="M325.593,166.586a.077.077,0,0,1,0,.02c.007-.057.015-.113.024-.17a.2.2,0,0,1-.017.057c.022-.051.044-.1.064-.154a.124.124,0,0,1-.02.033c.033-.044.066-.086.1-.13a.279.279,0,0,1-.04.04c.044-.033.086-.066.13-.1a.306.306,0,0,1-.033.02c.051-.022.1-.044.154-.064a.328.328,0,0,1-.057.016c.057-.007.113-.015.17-.024a.148.148,0,0,1-.04,0c.057.007.113.015.17.024a.2.2,0,0,1-.057-.016c.051.022.1.044.154.064a.123.123,0,0,1-.033-.02c.044.033.086.066.13.1a.278.278,0,0,1-.04-.04c.033.044.066.086.1.13a.316.316,0,0,1-.02-.033c.022.051.044.1.064.154a.321.321,0,0,1-.017-.057c.007.057.015.113.024.17a.153.153,0,0,1,0-.04c-.007.057-.015.113-.024.17a.2.2,0,0,1,.017-.057c-.022.051-.044.1-.064.154a.123.123,0,0,1,.02-.033c-.033.044-.066.086-.1.13a.28.28,0,0,1,.04-.04c-.044.033-.086.066-.13.1a.309.309,0,0,1,.033-.02c-.051.022-.1.044-.154.064a.329.329,0,0,1,.057-.016c-.057.007-.113.015-.17.024a.148.148,0,0,1,.04,0c-.057-.007-.113-.015-.17-.024a.2.2,0,0,1,.057.016c-.051-.022-.1-.044-.154-.064a.121.121,0,0,1,.033.02c-.044-.033-.086-.066-.13-.1a.283.283,0,0,1,.04.04c-.033-.044-.066-.086-.1-.13a.318.318,0,0,1,.02.033c-.022-.051-.044-.1-.064-.154a.331.331,0,0,1,.017.057c-.007-.057-.015-.113-.024-.17,0,.006,0,.013,0,.02a.669.669,0,0,0,.189.452.656.656,0,0,0,.452.188.643.643,0,0,0,.64-.64.864.864,0,0,0-.243-.586.829.829,0,1,0-.007,1.178.866.866,0,0,0,.249-.593.637.637,0,0,0-.188-.452.638.638,0,0,0-1.091.452Z" transform="translate(-245.579 -123.803)" fill="#12161f"/>
      <path id="Path_176538" data-name="Path 176538" d="M122.572,45.776a7.844,7.844,0,0,1-.068,1.016c.007-.057.015-.113.024-.17a7.507,7.507,0,0,1-.521,1.9c.022-.051.044-.1.064-.154a7.471,7.471,0,0,1-.959,1.64c.033-.044.066-.086.1-.13a7.632,7.632,0,0,1-1.369,1.369c.044-.033.086-.066.13-.1a7.555,7.555,0,0,1-1.64.959c.051-.022.1-.044.154-.064a7.507,7.507,0,0,1-1.9.521c.057-.007.113-.015.17-.024a7.7,7.7,0,0,1-2.031,0c.057.007.113.015.17.024a7.507,7.507,0,0,1-1.9-.521c.051.022.1.044.154.064a7.47,7.47,0,0,1-1.64-.959c.044.033.086.066.13.1a7.632,7.632,0,0,1-1.369-1.369c.033.044.066.086.1.13a7.555,7.555,0,0,1-.959-1.64c.022.051.044.1.064.154a7.509,7.509,0,0,1-.521-1.9c.007.057.015.113.024.17a7.7,7.7,0,0,1,0-2.031c-.007.057-.015.113-.024.17a7.509,7.509,0,0,1,.521-1.9c-.022.051-.044.1-.064.154a7.469,7.469,0,0,1,.959-1.64c-.033.044-.066.086-.1.13a7.631,7.631,0,0,1,1.369-1.369c-.044.033-.086.066-.13.1a7.555,7.555,0,0,1,1.64-.959c-.051.022-.1.044-.154.064a7.509,7.509,0,0,1,1.9-.522c-.057.007-.113.015-.17.024a7.7,7.7,0,0,1,2.031,0c-.057-.007-.113-.015-.17-.024a7.508,7.508,0,0,1,1.9.522c-.051-.022-.1-.044-.154-.064a7.47,7.47,0,0,1,1.64.959c-.044-.033-.086-.066-.13-.1a7.631,7.631,0,0,1,1.369,1.369c-.033-.044-.066-.086-.1-.13a7.556,7.556,0,0,1,.959,1.64c-.022-.051-.044-.1-.064-.154a7.508,7.508,0,0,1,.521,1.9c-.007-.057-.015-.113-.024-.17a8.182,8.182,0,0,1,.068,1.016.64.64,0,1,0,1.281,0,8.088,8.088,0,0,0-1.479-4.664,8.521,8.521,0,0,0-1.764-1.817,8.032,8.032,0,0,0-2.123-1.149,8.094,8.094,0,0,0-8.968,2.439,8.476,8.476,0,0,0-1.31,2.2,8,8,0,0,0-.553,2.4,8.1,8.1,0,0,0,4.7,7.954,8.619,8.619,0,0,0,1.208.448,8.486,8.486,0,0,0,1.317.247,8.1,8.1,0,0,0,8.865-6.75,8.974,8.974,0,0,0,.11-1.31.64.64,0,0,0-1.281,0Z" transform="translate(-35.278)" fill="#12161f"/>
    </g>
  </g>
</svg>