
<svg xmlns="http://www.w3.org/2000/svg" width="18.783" height="20.727" viewBox="0 0 18.783 20.727">
  <g id="graph" transform="translate(-23.988)">
    <path id="Path_108988" data-name="Path 108988" d="M179.065,204.954h-1.619a1.459,1.459,0,0,1-1.457-1.457v-10.04A1.459,1.459,0,0,1,177.445,192h1.619a1.459,1.459,0,0,1,1.457,1.457V203.5A1.459,1.459,0,0,1,179.065,204.954Z" transform="translate(-145.847 -184.227)"/>
    <path id="Path_108989" data-name="Path 108989" d="M27.065,281.716H25.445a1.459,1.459,0,0,1-1.457-1.457v-6.8A1.459,1.459,0,0,1,25.445,272h1.619a1.459,1.459,0,0,1,1.457,1.457v6.8A1.459,1.459,0,0,1,27.065,281.716Z" transform="translate(0 -260.989)"/>
    <path id="Path_108990" data-name="Path 108990" d="M284.984,20.727h-1.619a1.459,1.459,0,0,1-1.457-1.457V5.829h-.89a1.053,1.053,0,0,1-.8-1.738l.009-.011L283.692.215a.648.648,0,0,1,.965,0l3.464,3.866.009.011a1.053,1.053,0,0,1-.8,1.738h-.89v13.44A1.459,1.459,0,0,1,284.984,20.727Z" transform="translate(-245.613 0)"/>
  </g>
</svg>
