<svg id='insight_icon' width="52" height="52" viewBox="0 0 52 52" fill="none" xmlns="http://www.w3.org/2000/svg">
<path d="M20.7986 31.2014V24.2662M31.2014 31.2014V26M26 29.4676V20.7986M11.5881 31.0826C10.804 27.7396 10.804 24.2604 11.5881 20.9174C12.674 16.2883 16.2883 12.674 20.9174 11.5881C24.2604 10.804 27.7396 10.804 31.0826 11.5881C35.7117 12.674 39.326 16.2883 40.4119 20.9174C41.196 24.2604 41.196 27.7396 40.4119 31.0826C39.326 35.7117 35.7117 39.326 31.0826 40.4119C27.7396 41.196 24.2604 41.196 20.9174 40.4119C16.2884 39.3261 12.674 35.7117 11.5881 31.0826Z" stroke="currentColor" stroke-width="2.5" stroke-linecap="round"/>
</svg>
