<svg xmlns="http://www.w3.org/2000/svg" width="15.582" height="15.582" viewBox="0 0 15.582 15.582">
  <path id="Icon_ionic-ios-arrow-dropleft-circle" data-name="Icon ionic-ios-arrow-dropleft-circle" d="M11.166,3.375a7.791,7.791,0,1,0,7.791,7.791A7.79,7.79,0,0,0,11.166,3.375ZM12.791,14.2a.726.726,0,0,1,0,1.023.714.714,0,0,1-.509.21.727.727,0,0,1-.513-.213L8.248,11.69a.722.722,0,0,1,.022-1l3.573-3.585a.723.723,0,0,1,1.023,1.023L9.8,11.166Z" transform="translate(-3.375 -3.375)" fill="#ff71a4"/>
</svg>
