
<svg xmlns="http://www.w3.org/2000/svg" width="20.383" height="20.13" viewBox="0 0 20.383 20.13">
  <g id="light_shoutout" data-name="ligh ui" transform="translate(3861.245 -14805.303)">
    <path id="Path_172336" data-name="Path 172336" d="M124,43.531a.235.235,0,0,0-.137.049l-6.036,4.705h-3.377a3.83,3.83,0,0,0-2.971,1.261,4.326,4.326,0,0,0,0,5.507,3.632,3.632,0,0,0,1.817,1.115v.006l1.655,6.9a.234.234,0,0,0,.282.173l2.331-.559a.234.234,0,0,0,.173-.282l-1.463-6.1h1.551l6.036,4.638a.234.234,0,0,0,.377-.184V54.6h.618a2.337,2.337,0,1,0,0-4.674h-.616V43.766a.234.234,0,0,0-.24-.235Zm-.23.712,0,16.05-5.538-4.252V48.56Zm-9.321,4.509h3.208c.095,0,.11,0,.11.06v6.974c0,.062-.053.061-.112.061h-3.206a3.332,3.332,0,0,1-2.619-1.1,3.86,3.86,0,0,1,0-4.891,3.332,3.332,0,0,1,2.619-1.1Zm9.788,1.643h.618a1.87,1.87,0,1,1,0,3.74h-.616ZM113.8,56.271a4.684,4.684,0,0,0,.649.044h1.344l1.435,5.979-1.877.45Z" transform="translate(-3971.531 14761.972)" fill="currentColor" stroke="currentColor" stroke-width="0.4" fill-rule="evenodd"/>
    <path id="Path_172337" data-name="Path 172337" d="M319.712,120.75a.234.234,0,0,0-.145.051l-2.869,2.211a.234.234,0,1,0,.285.37l2.869-2.211h0a.234.234,0,0,0-.14-.421Z" transform="translate(-4169.052 14687.974)" fill="currentColor" stroke="currentColor" stroke-width="0.4" fill-rule="evenodd"/>
    <path id="Path_172339" data-name="Path 172339" d="M532.857,245.829a.234.234,0,1,0,0,.467h1.9a.234.234,0,1,0,0-.467Z" transform="translate(-4376.056 14568.113)" fill="currentColor" stroke="currentColor" stroke-width="0.4" fill-rule="evenodd"/>
    <path id="Path_172340" data-name="Path 172340" d="M497.967,109.908a.234.234,0,0,0-.164.061l-1.835,1.634a.234.234,0,1,0,.311.349l1.835-1.634a.234.234,0,0,0-.146-.41Z" transform="translate(-4340.855 14698.364)" fill="currentColor" stroke="currentColor" stroke-width="0.4" fill-rule="evenodd"/>
    <path id="Path_172341" data-name="Path 172341" d="M496.147,342.485a.234.234,0,0,0-.163.41l1.835,1.634a.234.234,0,1,0,.311-.349l-1.835-1.634A.233.233,0,0,0,496.147,342.485Z" transform="translate(-4340.871 14475.488)" fill="currentColor" stroke="currentColor" stroke-width="0.4" fill-rule="evenodd"/>
  </g>
</svg>
