<svg xmlns="http://www.w3.org/2000/svg" xmlns:xlink="http://www.w3.org/1999/xlink" width="19.594" height="16.31" viewBox="0 0 19.594 16.31">
  <defs>
    <clipPath id="clip-path">
      <rect width="19.594" height="16.31" fill="none"/>
    </clipPath>
  </defs>
  <g id="_Icons_8_Like" data-name="_Icons / 8 Like" clip-path="url(#clip-path)">
    <path id="_8_Like" data-name="8 Like" d="M10.436,1.571,9.8,2.207l-.637-.637a5.367,5.367,0,0,0-7.588,0h0a5.371,5.371,0,0,0-.2,7.38,57.506,57.506,0,0,0,7.71,7.118,1.184,1.184,0,0,0,1.433,0,57.257,57.257,0,0,0,7.71-7.118,5.371,5.371,0,0,0-.2-7.38h0A5.367,5.367,0,0,0,10.436,1.571Z" fill="#f7f8fa"/>
  </g>
</svg>
