<svg xmlns="http://www.w3.org/2000/svg" width="27.387" height="20.289" viewBox="0 0 27.387 20.289">
  <g id="LIVE" transform="translate(-83.89 -84.45)">
    <path id="Path_172329" data-name="Path 172329" d="M498.949,85.061a1.222,1.222,0,1,0-1.728,1.728,11.042,11.042,0,0,1,0,15.6,1.214,1.214,0,0,0,0,1.728,1.228,1.228,0,0,0,.85.368,1.117,1.117,0,0,0,.85-.368,13.5,13.5,0,0,0,.028-19.06Z" transform="translate(-391.848)" fill="currentColor" stroke="#f4f4f4" stroke-width="0.5"/>
    <path id="Path_172330" data-name="Path 172330" d="M418.869,164.581a1.222,1.222,0,0,0-1.728,1.728,5.324,5.324,0,0,1,0,7.533,1.214,1.214,0,0,0,0,1.728,1.228,1.228,0,0,0,.85.368,1.117,1.117,0,0,0,.85-.368,7.726,7.726,0,0,0,.028-10.988Z" transform="translate(-315.818 -75.499)" fill="currentColor" stroke="#f4f4f4" stroke-width="0.5"/>
    <path id="Path_172331" data-name="Path 172331" d="M89.8,86.789a1.222,1.222,0,0,0-1.728-1.728,13.486,13.486,0,0,0,0,19.031,1.228,1.228,0,0,0,.85.368,1.117,1.117,0,0,0,.85-.368,1.214,1.214,0,0,0,0-1.728A11.033,11.033,0,0,1,89.8,86.789Z" fill="currentColor" stroke="#f4f4f4" stroke-width="0.5"/>
    <path id="Path_172332" data-name="Path 172332" d="M200.419,166.309a1.222,1.222,0,0,0-1.728-1.728,7.777,7.777,0,0,0,0,10.988,1.228,1.228,0,0,0,.85.368,1.117,1.117,0,0,0,.85-.368,1.214,1.214,0,0,0,0-1.728,5.377,5.377,0,0,1,.028-7.533Z" transform="translate(-106.6 -75.499)" fill="currentColor" stroke="#f4f4f4" stroke-width="0.5"/>
    <path id="Path_172333" data-name="Path 172333" d="M313.257,241.188a2.067,2.067,0,1,1-2.067-2.067,2.067,2.067,0,0,1,2.067,2.067" transform="translate(-213.604 -146.611)" fill="currentColor" stroke="#f4f4f4" stroke-width="0.5"/>
  </g>
</svg>
