<svg width="80" height="80" viewBox="0 0 80 80" fill="none" xmlns="http://www.w3.org/2000/svg" id="lock_icon">
    <path
        d="M40.0018 48.9177C40.7223 48.9177 41.4133 48.6315 41.9228 48.122C42.4323 47.6125 42.7185 46.9215 42.7185 46.201C42.7185 45.4805 42.4323 44.7895 41.9228 44.2801C41.4133 43.7706 40.7223 43.4844 40.0018 43.4844C39.2813 43.4844 38.5903 43.7706 38.0808 44.2801C37.5714 44.7895 37.2852 45.4805 37.2852 46.201C37.2852 46.9215 37.5714 47.6125 38.0808 48.122C38.5903 48.6315 39.2813 48.9177 40.0018 48.9177Z"
        fill="currentColor" />
    <path
        d="M50.4667 35.884V33.8007C50.4667 29.3007 49.3834 23.334 40 23.334C30.6167 23.334 29.5334 29.3007 29.5334 33.8007V35.884C24.8667 36.4673 23.3334 38.834 23.3334 44.6507V47.7506C23.3334 54.584 25.4167 56.6673 32.25 56.6673H47.75C54.5834 56.6673 56.6667 54.584 56.6667 47.7506V44.6507C56.6667 38.834 55.1334 36.4673 50.4667 35.884ZM40 51.234C37.2167 51.234 34.9667 48.9673 34.9667 46.2007C34.9667 43.4173 37.2334 41.1673 40 41.1673C41.3336 41.1717 42.6113 41.7034 43.5543 42.6464C44.4973 43.5894 45.029 44.8671 45.0334 46.2007C45.0334 48.984 42.7834 51.234 40 51.234ZM32.25 35.734H31.8667V33.8007C31.8667 28.9173 33.25 25.6673 40 25.6673C46.75 25.6673 48.1334 28.9173 48.1334 33.8007V35.7507H32.25V35.734Z"
        fill="currentColor" />
    <rect x="1" y="1" width="78" height="78" rx="39" stroke="currentColor" stroke-width="2" />
</svg>