<svg id="vuesax_bold_arrow-right" data-name="vuesax/bold/arrow-right" xmlns="http://www.w3.org/2000/svg" width="50" height="50" viewBox="0 0 50 50">
  <g id="arrow-right" transform="translate(0 0)">
    <g id="Ellipse_1961" data-name="Ellipse 1961" transform="translate(12 14)" fill="#000" stroke="#707070" stroke-width="1">
      <circle cx="12.5" cy="12.5" r="12.5" stroke="none"/>
      <circle cx="12.5" cy="12.5" r="12" fill="none"/>
    </g>
    <path id="Vector" d="M21.167,0A21.167,21.167,0,1,0,42.333,21.167,21.174,21.174,0,0,0,21.167,0ZM29.7,22.288l-6.35,6.35a1.584,1.584,0,0,1-2.244,0,1.6,1.6,0,0,1,0-2.244l3.641-3.641H13.758a1.587,1.587,0,0,1,0-3.175H24.744L21.1,15.938a1.587,1.587,0,0,1,2.244-2.244l6.35,6.35A1.6,1.6,0,0,1,29.7,22.288Z" transform="translate(3.833 3.833)" fill="#fff"/>
    <path id="Vector-2" data-name="Vector" d="M50,50H0V0H50Z" fill="none" opacity="0"/>
  </g>
</svg>
