<svg xmlns="http://www.w3.org/2000/svg" width="152" height="152" viewBox="0 0 152 152">
  <g id="no_recent_search" data-name="Group 130966" transform="translate(-8732 -18677)">
    <g id="Group_130879" data-name="Group 130879" transform="translate(7970 18276)">
      <circle id="Ellipse_1784" data-name="Ellipse 1784" cx="75" cy="75" r="75" transform="translate(763 402)" fill="none" stroke="currentColor" stroke-width="2"/>
    </g>
    <g id="Group_130967" data-name="Group 130967" transform="translate(9638.005 13643.221)">
      <path id="Path_171427" data-name="Path 171427" d="M-829.3,5085.461v5.367l-11.936-8.5,11.9-8.491v5.4c11.614.576,20.778,5.41,27.168,15.022a31.458,31.458,0,0,1,4.83,23.714,32.774,32.774,0,0,1-36.881,26.8c-18.164-2.56-28.667-18.422-28.269-32.49h5.847c.441,9.836,4.606,17.644,13.068,22.878a25.938,25.938,0,0,0,19.549,3.287,26.883,26.883,0,0,0,20.919-30.007C-805.384,5093.091-818.769,5085.159-829.3,5085.461Z" fill="currentColor"/>
      <path id="Path_171428" data-name="Path 171428" d="M-743.712,5171.424c2.291,0,4.357-.01,6.422,0s3.433,1.25,3.42,3.034a3.084,3.084,0,0,1-3.335,2.993q-4.62.048-9.24.006a2.954,2.954,0,0,1-3.257-3.171q-.057-6.336,0-12.671a2.945,2.945,0,0,1,2.948-3.2,2.957,2.957,0,0,1,3.035,3.24c.026,2.728.008,5.456.009,8.184Z" transform="translate(-82.989 -62.247)" fill="currentColor"/>
    </g>
  </g>
</svg>
