
<svg id="no_subs_svg" xmlns="http://www.w3.org/2000/svg" width="188.53" height="229.407" viewBox="0 0 188.53 229.407">
  <g id="no_subscribers" data-name="no subscribers" transform="translate(792.935 453.407)">
    <g id="no_users_found" data-name="no users found" transform="translate(11233.065 407.593)">
      <rect id="Rectangle_22896" data-name="Rectangle 22896" width="188.093" height="188.093" transform="translate(-12025.999 -861)" fill="none"/>
      <g id="Group_40428" data-name="Group 40428" transform="translate(-12026 -851.595)">
        <g id="OBJECTS" transform="translate(0 0)">
          <g id="Group_40431" data-name="Group 40431" transform="translate(4.554 18.499)">
            <g id="Group_40430" data-name="Group 40430">
              <rect id="Rectangle_22907" data-name="Rectangle 22907" width="148.913" height="151.017" rx="7.151" fill="#ebebeb"/>
              <line id="Line_106" data-name="Line 106" x2="148.913" transform="translate(0 15.045)" fill="none" stroke="#d5d5d5" stroke-miterlimit="10" stroke-width="1.5"/>
              <rect id="Rectangle_22908" data-name="Rectangle 22908" width="148.913" height="151.278" rx="7.151" fill="none" stroke="#d5d5d5" stroke-miterlimit="10" stroke-width="1.5"/>
              <g id="Group_40462" data-name="Group 40462" transform="translate(9.554 5.013)">
                <g id="Ellipse_1644" data-name="Ellipse 1644" fill="#fff" stroke="#d5d5d5" stroke-width="1">
                  <circle cx="2.351" cy="2.351" r="2.351" stroke="none"/>
                  <circle cx="2.351" cy="2.351" r="1.851" fill="none"/>
                </g>
                <g id="Ellipse_1645" data-name="Ellipse 1645" transform="translate(7.053)" fill="#fff" stroke="#d5d5d5" stroke-width="1">
                  <circle cx="2.351" cy="2.351" r="2.351" stroke="none"/>
                  <circle cx="2.351" cy="2.351" r="1.851" fill="none"/>
                </g>
                <g id="Ellipse_1646" data-name="Ellipse 1646" transform="translate(14.107)" fill="#fff" stroke="#d5d5d5" stroke-width="1">
                  <circle cx="2.351" cy="2.351" r="2.351" stroke="none"/>
                  <circle cx="2.351" cy="2.351" r="1.851" fill="none"/>
                </g>
              </g>
            </g>
          </g>
          <g id="Group_40440" data-name="Group 40440" transform="translate(132.389)">
            <g id="Group_40435" data-name="Group 40435">
              <rect id="Rectangle_22910" data-name="Rectangle 22910" width="44.206" height="37.642" rx="8.005" fill="#a5c8ff"/>
              <g id="Group_40434" data-name="Group 40434" transform="translate(11.662 7.825)">
                <path id="Path_108962" data-name="Path 108962" d="M540.09,100.933a7.639,7.639,0,1,1,7.639-7.639A7.639,7.639,0,0,1,540.09,100.933Zm0-13.547A5.908,5.908,0,1,0,546,93.294a5.908,5.908,0,0,0-5.908-5.908Z" transform="translate(-532.451 -85.655)" fill="#fefef4"/>
                <rect id="Rectangle_22911" data-name="Rectangle 22911" width="1.73" height="3.188" transform="translate(11.819 13.049) rotate(-45)" fill="#fefef4"/>
                <rect id="Rectangle_22912" data-name="Rectangle 22912" width="8.737" height="3.828" rx="0.814" transform="translate(19.073 21.783) rotate(-135)" fill="#fefef4"/>
              </g>
            </g>
          </g>
          <g id="Group_40455" data-name="Group 40455" transform="translate(0 8.724)">
            <g id="Group_40442" data-name="Group 40442" transform="translate(52.041 86.143)">
              <path id="Path_108964" data-name="Path 108964" d="M347.652,297.542l-.31-4.2-26.213,1.288v4.058s-5.9,5.61-8.229,42.927h47.185S365.267,308.585,347.652,297.542Z" transform="translate(-312.9 -293.338)" fill="#407ffe"/>
              <g id="Group_40441" data-name="Group 40441" transform="translate(8.227 4.204)">
                <line id="Line_110" data-name="Line 110" y1="1.143" x2="26.526" fill="none" stroke="#000" stroke-miterlimit="10" stroke-width="1"/>
                <path id="Path_108965" data-name="Path 108965" d="M345.453,347.15l5.434,2.212,2.908,23.512" transform="translate(-340.034 -328.802)" fill="none" stroke="#000" stroke-miterlimit="10" stroke-width="0.5"/>
              </g>
            </g>
            <g id="Group_40451" data-name="Group 40451" transform="translate(0 32.442)">
              <g id="Group_40445" data-name="Group 40445" transform="translate(0 6.863)">
                <g id="Group_40443" data-name="Group 40443" transform="translate(31.325 0.225)">
                  <path id="Path_108966" data-name="Path 108966" d="M263.6,250.839l7.242-23.907,15.929,5.972-7.641,22.9a8.151,8.151,0,0,1-15.518-4.959Z" transform="translate(-263.312 -208.159)" fill="#ffbe9d"/>
                  <path id="Path_108967" data-name="Path 108967" d="M285.357,187.965a8.64,8.64,0,1,1,16.46,5.26L297.348,206.7l-15.929-5.972Z" transform="translate(-273.898 -181.952)" fill="#fefef4"/>
                </g>
                <g id="Group_40444" data-name="Group 40444" transform="translate(0 0)">
                  <path id="Path_108968" data-name="Path 108968" d="M232.634,222.721l-18.193-34.5s.414-6.233-9.938-6.6h0c-.141,0-.28-.019-.423-.019h-3.461a1.312,1.312,0,0,0-1.317,1.089,1.281,1.281,0,0,0,1.107,1.458l3.491.494-4.749,1.267-.886.327-6.468-4.272a1.049,1.049,0,0,0-1.281,1.658c.4.334,1.042.884,1.742,1.488l-1.427-.853a1.049,1.049,0,0,0-1.145,1.754l1.274.9-.5-.193a1.281,1.281,0,0,0-1.519.421,1.232,1.232,0,0,0,.536,1.841l7.07,2.967a5.84,5.84,0,0,0,3.821.489l6.3-1.486,14.1,39.452Z" transform="translate(-188.724 -181.601)" fill="#ffbe9d"/>
                  <line id="Line_111" data-name="Line 111" x2="3.367" y2="6.383" transform="translate(36.443 26.961)" fill="none" stroke="#ee9f75" stroke-miterlimit="10" stroke-width="1.5"/>
                </g>
              </g>
              <g id="Group_40446" data-name="Group 40446" transform="translate(47.767 6.513)">
                <path id="Path_108969" data-name="Path 108969" d="M311.872,181.321l-6.762.505s-9.793,13.282,10.086,47.4l26.213-1.288,1.975-36.753-3.235-10.434H328.394Z" transform="translate(-302.698 -180.747)" fill="#fefef4"/>
              </g>
              <g id="Group_40450" data-name="Group 40450" transform="translate(76.993 0)">
                <g id="Group_40448" data-name="Group 40448" transform="translate(0 5.733)">
                  <path id="Path_108971" data-name="Path 108971" d="M415.868,241.364l-10.886-22.482-14.812,8.387,11.123,21.419a8.151,8.151,0,1,0,14.564-7.324Z" transform="translate(-382.735 -202.121)" fill="#ffbe9d"/>
                  <g id="Group_40447" data-name="Group 40447" transform="translate(0 0)">
                    <path id="Path_108972" data-name="Path 108972" d="M388.709,183.5a8.64,8.64,0,1,0-15.441,7.759l6.513,12.618,14.812-8.387Z" transform="translate(-372.347 -178.738)" fill="#fefef4"/>
                  </g>
                </g>
                <g id="Group_40449" data-name="Group 40449" transform="translate(20.691)">
                  <path id="Path_108973" data-name="Path 108973" d="M456.965,171.727a1.281,1.281,0,0,0-1.519-.421l-3.162,1.234,2.97-2.513a1.267,1.267,0,0,0,.259-1.679,1.234,1.234,0,0,0-1.787-.256l-2.763,2.224,2.351-3.08a1.265,1.265,0,0,0-.108-1.7,1.234,1.234,0,0,0-1.8.132l-4.651,4.827L442,169.232l3.491-.494a1.279,1.279,0,0,0,1.107-1.458,1.31,1.31,0,0,0-1.317-1.089h-3.461a8.3,8.3,0,0,0-5.553,2.071l-.075.054a5.551,5.551,0,0,0-1.352,5.107l-13.039,36.913,12.931,5.732,7.451-39.643h4.759a5.014,5.014,0,0,0,.886,0h.033a5.057,5.057,0,0,0,1.5-.369l7.068-2.5a1.232,1.232,0,0,0,.531-1.829Z" transform="translate(-421.806 -165.212)" fill="#ffbe9d"/>
                  <line id="Line_113" data-name="Line 113" x1="2.817" y2="9.83" transform="translate(2.257 29.773)" fill="none" stroke="#ee9f75" stroke-miterlimit="10" stroke-width="1.5"/>
                </g>
              </g>
            </g>
            <g id="Group_40454" data-name="Group 40454" transform="translate(43.402 0)">
              <path id="Path_108974" data-name="Path 108974" d="M305.319,104.9c-.816.56-6.28,1.98-6.388,2.972,0,0,1.8,7.028-.045,8.34a19.865,19.865,0,0,0-6.583,10.5s13.134,9.835,48.046-.491c0,0,.419-4.183-5.932-7.218a9.99,9.99,0,0,1-4.441-3.948,7.664,7.664,0,0,1-1.117-3.191C328.285,108.411,318.775,95.668,305.319,104.9Z" transform="translate(-292.303 -95.82)"/>
              <path id="Path_108975" data-name="Path 108975" d="M312.976,129.2a4.187,4.187,0,1,1-4.467-3.886,4.187,4.187,0,0,1,4.467,3.886Z" transform="translate(-299.443 -109.586)" fill="#ffbe9d"/>
              <path id="Path_108976" data-name="Path 108976" d="M329.081,152.069l.578,9.106c.2,3.2,1.5,5.377,4.651,5.158h0c2.685-.186,5.878-2.339,6.028-5.027l-1.6-14.286Z" transform="translate(-313.657 -122.201)" fill="#ffbe9d"/>
              <path id="Path_108977" data-name="Path 108977" d="M324.584,181.322l16.531-.576s-.4,8.128-10.228,7.366a6.3,6.3,0,0,1-6.3-6.79Z" transform="translate(-311.041 -141.794)" fill="#ffbe9d"/>
              <path id="Path_108978" data-name="Path 108978" d="M329.449,162.648l10.566-10.331-11.121,1.9Z" transform="translate(-313.55 -125.28)" fill="#ee9f75"/>
              <path id="Path_108979" data-name="Path 108979" d="M321.407,121.6h0a9.83,9.83,0,0,1-9.983-8.612l-.318-10.366a10.213,10.213,0,0,1,9.5-10.561h0c5.626-.39,11.492,3.783,11.883,9.4l.165,8.34a11.617,11.617,0,0,1-11.243,11.8Z" transform="translate(-303.214 -90.259)" fill="#ffbe9d"/>
              <g id="Group_40452" data-name="Group 40452" transform="translate(8.547 13.975)">
                <path id="Path_108980" data-name="Path 108980" d="M324.9,133.321l-.176,1.46-.134,1.112,1.331.049" transform="translate(-319.594 -128.218)" fill="none" stroke="#000" stroke-linecap="round" stroke-linejoin="round" stroke-width="0.2"/>
                <path id="Path_108981" data-name="Path 108981" d="M333.854,118.288s-2.972-.1-3,.39c0,0,0,.332,2.586.4s3.268,0,3.5-.322S335.249,118.292,333.854,118.288Z" transform="translate(-323.233 -118.28)"/>
                <path id="Path_108982" data-name="Path 108982" d="M314.678,122.522s2.25-.089,2.464.442c0,0,.127.36-1.846.414s-2.586-.063-2.619-.369C312.632,122.649,313.608,122.518,314.678,122.522Z" transform="translate(-312.675 -121.943)"/>
                <path id="Path_108983" data-name="Path 108983" d="M317.925,129.7a.94.94,0,1,1-.3-.667.94.94,0,0,1,.3.667Z" transform="translate(-314.613 -125.581)"/>
                <path id="Path_108984" data-name="Path 108984" d="M336.981,129.078a.94.94,0,1,1-.3-.667A.941.941,0,0,1,336.981,129.078Z" transform="translate(-325.684 -125.219)"/>
                <path id="Path_108985" data-name="Path 108985" d="M328.691,143.652a3.01,3.01,0,0,0-3.1.823" transform="translate(-320.173 -134.138)" fill="none" stroke="#000" stroke-linecap="round" stroke-linejoin="round" stroke-width="0.2"/>
              </g>
              <path id="Path_108986" data-name="Path 108986" d="M322.092,87.817a12.889,12.889,0,0,0-4,.421c-3.221.858-9.007,3.245-10,9.433a4.333,4.333,0,0,0-.1,2.177s10.815.423,17.2-2.586a17.429,17.429,0,0,0,5.615,10.094l3.414-5.133,3.844,3.447C338.092,105.794,338.087,88.666,322.092,87.817Z" transform="translate(-301.371 -87.8)"/>
              <g id="Group_40453" data-name="Group 40453" transform="translate(26.682 15.76)">
                <path id="Path_108987" data-name="Path 108987" d="M364.307,129.3a4.187,4.187,0,1,1-4.467-3.887,4.187,4.187,0,0,1,4.467,3.887Z" transform="translate(-355.942 -125.401)" fill="#ffbe9d"/>
                <path id="Path_108988" data-name="Path 108988" d="M362.114,134.405s-.212-3.028,2.718-2.753" transform="translate(-359.526 -129.023)" fill="none" stroke="#000" stroke-linecap="round" stroke-linejoin="round" stroke-width="0.2"/>
              </g>
            </g>
          </g>
          <g id="Group_40461" data-name="Group 40461" transform="translate(120.281 70.556)">
            <rect id="Rectangle_22914" data-name="Rectangle 22914" width="68.249" height="53.249" rx="4" transform="translate(-0.095)" fill="#ff71a4"/>
            <text id="NO_USERS" data-name="NO USERS" transform="translate(3.905 30.522)" fill="#fefef4" font-size="8" font-family="OpenSans-Bold, Open Sans" font-weight="700"><tspan x="0" y="0">NO Subscribers</tspan></text>
            <line id="Line_109" data-name="Line 109" x2="68.249" transform="translate(0 11.405)" fill="none" stroke="#fefef4" stroke-miterlimit="10" stroke-width="1"/>
            <g id="Group_40463" data-name="Group 40463" transform="translate(6.684 4.681)">
              <g id="Ellipse_1647" data-name="Ellipse 1647">
                <circle id="Ellipse_1718" data-name="Ellipse 1718" cx="1.176" cy="1.176" r="1.176" fill="#fff"/>
                <circle id="Ellipse_1719" data-name="Ellipse 1719" transform="translate(1.176 1.176)" fill="none" stroke="#fff" stroke-width="1"/>
              </g>
              <g id="Ellipse_1648" data-name="Ellipse 1648" transform="translate(4.702)">
                <circle id="Ellipse_1720" data-name="Ellipse 1720" cx="1.176" cy="1.176" r="1.176" fill="#fff"/>
                <circle id="Ellipse_1721" data-name="Ellipse 1721" transform="translate(1.176 1.176)" fill="none" stroke="#fff" stroke-width="1"/>
              </g>
              <g id="Ellipse_1649" data-name="Ellipse 1649" transform="translate(9.405)">
                <circle id="Ellipse_1722" data-name="Ellipse 1722" cx="1.176" cy="1.176" r="1.176" fill="#fff"/>
                <circle id="Ellipse_1723" data-name="Ellipse 1723" transform="translate(1.176 1.176)" fill="none" stroke="#fff" stroke-width="1"/>
              </g>
            </g>
          </g>
        </g>
      </g>
    </g>
    <text id="No_Subscribers-2" data-name="No Subscribers" transform="translate(-752.935 -229)" fill="currentColor" font-size="16" font-family="Avenir-Book, Avenir"><tspan x="0" y="0">No Subscribers</tspan></text>
  </g>
</svg>
