<svg xmlns="http://www.w3.org/2000/svg" width="101.949" height="103.283" viewBox="0 0 101.949 103.283">
  <g id="blocked_user" data-name="blocked user" transform="translate(0 1.283)">
    <path id="Path_108943" data-name="Path 108943" d="M17.2,320.815c0-.792.035-1.581.1-2.365a22.221,22.221,0,0,1-10.65-6.427A19.818,19.818,0,0,0,0,326.834v25.027H17.2Z" transform="translate(0 -249.861)" fill="#2F0074"/>
    <path id="Path_108944" data-name="Path 108944" d="M56.895,171.276a25.443,25.443,0,0,1-3.843-13.47c0-.532.018-1.06.051-1.585a16.137,16.137,0,0,0-7.539,31.34,30.566,30.566,0,0,1,11.331-16.285Z" transform="translate(-27.206 -124.884)" fill="#2F0074"/>
    <path id="Path_108945" data-name="Path 108945" d="M179.51,105.8A19.691,19.691,0,1,1,199.285,86.1,19.755,19.755,0,0,1,179.51,105.8Z" transform="translate(-127.914 -53.183)" fill="#ff71a4"/>
    <path id="Path_108946" data-name="Path 108946" d="M162.938,256.369a25.769,25.769,0,0,1-36.378,0,24.433,24.433,0,0,0-10.233,19.88V307.3h56.844V276.249A24.434,24.434,0,0,0,162.938,256.369Z" transform="translate(-93.152 -205.295)" fill="#ff71a4"/>
    <g id="Group_50095" data-name="Group 50095" transform="translate(70 31.069)">
      <path id="Path_109076" data-name="Path 109076" d="M.1,320.814c0-.792-.035-1.581-.1-2.365a22.221,22.221,0,0,0,10.65-6.427,19.818,19.818,0,0,1,6.645,14.812v25.027H.1Z" transform="translate(12.395 -280.93)" fill="#2F0074"/>
      <path id="Path_109077" data-name="Path 109077" d="M33.974,171.276a25.443,25.443,0,0,0,3.843-13.47c0-.532-.018-1.06-.051-1.585a16.137,16.137,0,0,1,7.539,31.34,30.566,30.566,0,0,0-11.331-16.285Z" transform="translate(-33.974 -155.953)" fill="#2F0074"/>
    </g>
    <g id="Group_50096" data-name="Group 50096" transform="translate(76.698 -0.783)">
      <path id="Path_109078" data-name="Path 109078" d="M12.376,0A12.376,12.376,0,1,0,24.752,12.376,12.372,12.372,0,0,0,12.376,0Zm-9.9,12.376A9.89,9.89,0,0,1,18.44,4.56L4.56,18.44A9.864,9.864,0,0,1,2.475,12.376Zm9.9,9.9a9.863,9.863,0,0,1-6.064-2.085L20.191,6.312a9.89,9.89,0,0,1-7.815,15.965Z" fill="#ff71a4" stroke="#ff71a4" stroke-width="1"/>
    </g>
  </g>
</svg>
