<svg xmlns="http://www.w3.org/2000/svg" width="97.25" height="97.25" viewBox="0 0 97.25 97.25">
  <g id="no_data" data-name="noun_Post It_1871738" transform="translate(-3.957 -3.956)">
    <path id="Path_172161" data-name="Path 172161"
      d="M57.42,7.5H38.5a5.2,5.2,0,0,0-.433-.815l8.843-2.375A10.4,10.4,0,0,1,57.42,7.5Z"
      transform="translate(25.036 0)" fill="#ff71a4" />
    <path id="Path_172162" data-name="Path 172162"
      d="M7.5,14.77a10.4,10.4,0,0,0-3.19,10.507L7.5,37.189Z" transform="translate(0 7.936)"
      fill="#ff71a4" />
    <path id="Path_172163" data-name="Path 172163"
      d="M61.19,48.212,58,36.3V58.719A10.4,10.4,0,0,0,61.19,48.212Z"
      transform="translate(39.663 23.737)" fill="#ff71a4" />
    <path id="Path_172164" data-name="Path 172164"
      d="M14.77,58a10.4,10.4,0,0,0,10.507,3.19L37.189,58Z" transform="translate(7.936 39.663)"
      fill="#ff71a4" />
    <path id="Path_172165" data-name="Path 172165"
      d="M80.824,8H61.612a9.623,9.623,0,0,1,.139,1.734,12.137,12.137,0,0,1-24.275,0A9.623,9.623,0,0,1,37.615,8H18.4A10.4,10.4,0,0,0,8,18.4V80.824a10.4,10.4,0,0,0,10.4,10.4H80.824a10.4,10.4,0,0,0,10.4-10.4V18.4A10.4,10.4,0,0,0,80.824,8ZM77.356,60.017H21.871a1.734,1.734,0,1,1,0-3.468H77.356a1.734,1.734,0,0,1,0,3.468Zm0-13.871H21.871a1.734,1.734,0,1,1,0-3.468H77.356a1.734,1.734,0,0,1,0,3.468Zm0-13.871H21.871a1.734,1.734,0,0,1,0-3.468H77.356a1.734,1.734,0,0,1,0,3.468Z"
      transform="translate(2.968 2.968)" fill="#ff71a4" />
    <circle id="Ellipse_1842" data-name="Ellipse 1842" cx="8.67" cy="8.67" r="8.67"
      transform="translate(43.912 4.032)" fill="#ff71a4" />
  </g>
</svg>