<svg
          xmlns="http://www.w3.org/2000/svg"
          width="17"
          height="12.728"
          viewBox="0 0 17 12.728"
          id="invisible"
          color="currentColor"
        >
          <g
            id="noun_Invisible_1877286"
            transform="translate(-4 -6.136)"
          >
            <path
              id="Path_108944"
              data-name="Path 108944"
              d="M114.143,8.979A10.634,10.634,0,0,1,117,12.5c-2.448,4.751-7.274,6.424-11.4,5.019l1.721-1.721a3.5,3.5,0,0,0,4.473-4.474Zm-2.746-1.5L109.676,9.2a3.5,3.5,0,0,0-4.473,4.474l-2.346,2.345A10.635,10.635,0,0,1,100,12.5C102.448,7.749,107.274,6.076,111.4,7.481Zm-9.261,10.675L114.157,6.136l.707.707L102.843,18.864Z"
              transform="translate(-96)"
              fill-rule="evenodd"
            />
          </g>
        </svg>