<svg id="plus_icon_call" width="48" height="48" viewBox="0 0 48 48" fill="none" xmlns="http://www.w3.org/2000/svg">
<rect width="48" height="48" rx="24" fill="url(#paint0_linear_523_253282)"/>
<path d="M23.9935 33.3327C23.7085 33.3327 23.4716 33.2368 23.2827 33.0452C23.0938 32.8535 22.9993 32.616 22.9993 32.3327V24.9993H15.666C15.3827 24.9993 15.1452 24.903 14.9535 24.7102C14.7618 24.5174 14.666 24.2785 14.666 23.9935C14.666 23.7085 14.7618 23.4716 14.9535 23.2827C15.1452 23.0938 15.3827 22.9993 15.666 22.9993H22.9993V15.666C22.9993 15.3827 23.0957 15.1452 23.2885 14.9535C23.4813 14.7618 23.7202 14.666 24.0052 14.666C24.2902 14.666 24.5271 14.7618 24.716 14.9535C24.9049 15.1452 24.9993 15.3827 24.9993 15.666V22.9993H32.3327C32.616 22.9993 32.8535 23.0957 33.0452 23.2885C33.2368 23.4813 33.3327 23.7202 33.3327 24.0052C33.3327 24.2902 33.2368 24.5271 33.0452 24.716C32.8535 24.9049 32.616 24.9993 32.3327 24.9993H24.9993V32.3327C24.9993 32.616 24.903 32.8535 24.7102 33.0452C24.5174 33.2368 24.2785 33.3327 23.9935 33.3327Z" fill="white"/>
<defs>
<linearGradient id="paint0_linear_523_253282" x1="0" y1="0" x2="56.0268" y2="12.7623" gradientUnits="userSpaceOnUse">
<stop stop-color="#D33AFF"/>
<stop offset="1" stop-color="#FF71A4"/>
</linearGradient>
</defs>
</svg>
