<svg id="vuesax_bold_arrow-right" data-name="vuesax/bold/arrow-right" xmlns="http://www.w3.org/2000/svg" width="50" height="50" viewBox="0 0 50 50">
  <g id="arrow-right" transform="translate(0.001 0)">
    <g id="Ellipse_1961" data-name="Ellipse 1961" transform="translate(13 14)" fill="#000" stroke="#707070" stroke-width="1">
      <circle cx="12.5" cy="12.5" r="12.5" stroke="none"/>
      <circle cx="12.5" cy="12.5" r="12" fill="none"/>
    </g>
    <path id="Vector" d="M21.167,0A21.167,21.167,0,1,1,0,21.167,21.174,21.174,0,0,1,21.167,0Zm-8.53,22.288,6.35,6.35a1.584,1.584,0,0,0,2.244,0,1.6,1.6,0,0,0,0-2.244l-3.641-3.641H28.575a1.587,1.587,0,0,0,0-3.175H17.589l3.641-3.641a1.587,1.587,0,0,0-2.244-2.244l-6.35,6.35A1.6,1.6,0,0,0,12.636,22.288Z" transform="translate(3.833 3.833)" fill="#fff"/>
    <path id="Vector-2" data-name="Vector" d="M0,50H50V0H0Z" fill="black" opacity="0"/>
  </g>
</svg>
