<svg id="reviewShuotoutIcon" data-name="Group 132477" xmlns="http://www.w3.org/2000/svg" width="13.689" height="10.725" viewBox="0 0 13.689 10.725">
  <path id="Path_71897" data-name="Path 71897" d="M13.756,15.418a.633.633,0,0,0-.623.125L10.09,18.234l-2.81.539a2.655,2.655,0,0,0,.486,5.262l.72,1.617a.632.632,0,1,0,1.155-.515l-.578-1.3,2.028-.388,3.821,1.376a.63.63,0,0,0,.333.027.645.645,0,0,0,.292-.14.634.634,0,0,0,.211-.6L14.172,15.9A.633.633,0,0,0,13.756,15.418ZM6.412,21.643a1.394,1.394,0,0,1,1.1-1.629l2.36-.452L10.4,22.3l-2.361.452A1.393,1.393,0,0,1,6.412,21.643Zm7.884,1.62-2.6-.937-.626-3.269,2.071-1.833Z" transform="translate(-5.122 -15.301)" fill="#ff71a4"/>
  <path id="Path_71898" data-name="Path 71898" d="M74.762,17.968l-1.494.286a.632.632,0,0,0,.239,1.242L75,19.209a.632.632,0,1,0-.238-1.241ZM73,16.762a.644.644,0,0,0,.242-.1l.961-.673a.632.632,0,0,0-.724-1.036l-.962.674A.632.632,0,0,0,73,16.762Zm2.213,4.5-1.141-.271a.632.632,0,0,0-.292,1.23l1.142.27a.622.622,0,0,0,.264.006.632.632,0,0,0,.027-1.236Z" transform="translate(-62.009 -14.837)" fill="#ff71a4"/>
</svg>
