<svg xmlns="http://www.w3.org/2000/svg" width="23.46" height="21.197" viewBox="0 0 23.46 21.197">
  <path id="REVIEWS" d="M73.17,27.363A3.178,3.178,0,0,0,70,30.531V40.843a3.178,3.178,0,0,0,3.168,3.168h1.084v3.526h0a.724.724,0,0,0,1.234.513l4.044-4.039H90a3.173,3.173,0,0,0,3.162-3.168V30.531A3.173,3.173,0,0,0,90,27.363Zm0,1.448H90a1.7,1.7,0,0,1,1.715,1.72V40.843A1.7,1.7,0,0,1,90,42.563H79.234a.723.723,0,0,0-.513.208L75.7,45.79V43.284a.724.724,0,0,0-.721-.721H73.17a1.7,1.7,0,0,1-1.72-1.72V30.531a1.7,1.7,0,0,1,1.72-1.72Zm8.4,2.18a.723.723,0,0,0-.661.455l-.936,2.328-2.5.171a.724.724,0,0,0-.417,1.278l1.928,1.607-.615,2.437h0a.724.724,0,0,0,1.091.79l2.126-1.336,2.126,1.336a.724.724,0,0,0,1.084-.79l-.609-2.437,1.924-1.607a.724.724,0,0,0-.411-1.278l-2.506-.171-.934-2.328a.723.723,0,0,0-.684-.455Zm.011,2.666.433,1.08a.724.724,0,0,0,.619.448l1.17.081-.9.748h0a.724.724,0,0,0-.24.732l.283,1.127-.982-.619a.724.724,0,0,0-.769,0l-.99.619.284-1.127a.724.724,0,0,0-.236-.732l-.9-.748,1.165-.081a.724.724,0,0,0,.626-.448Z" transform="translate(-69.852 -27.213)" fill="currentColor" stroke="currentColor" stroke-width="0.3"/>
</svg>
