<svg xmlns="http://www.w3.org/2000/svg" width="70.208" height="58.496" viewBox="0 0 70.208 58.496">
  <path id="reviePlaceholder" d="M155.368,70H89.84a2.34,2.34,0,0,0-2.34,2.34v53.826a2.34,2.34,0,0,0,3.7,1.9l15.633-11.257h48.537a2.34,2.34,0,0,0,2.34-2.34V72.34a2.34,2.34,0,0,0-2.34-2.34Zm-19.1,22.536-6.225,4.516,2.34,7.325h0a2.34,2.34,0,0,1-3.6,2.621l-6.178-4.517L116.379,107h0a2.34,2.34,0,0,1-3.6-2.621l2.34-7.325-6.225-4.516h0a2.34,2.34,0,0,1,1.381-4.235h7.653l2.34-7.325h0a2.34,2.34,0,0,1,4.447,0l2.34,7.325h7.7a2.34,2.34,0,0,1,1.381,4.235Z" transform="translate(-87.5 -70)" fill="#ff71a4"/>
</svg>
