<svg xmlns="http://www.w3.org/2000/svg" width="15.582" height="15.582" viewBox="0 0 15.582 15.582">
  <path id="Icon_ionic-ios-arrow-dropleft-circle" data-name="Icon ionic-ios-arrow-dropleft-circle" d="M11.166,3.375a7.791,7.791,0,1,1-7.791,7.791A7.79,7.79,0,0,1,11.166,3.375ZM9.54,14.2a.726.726,0,0,0,0,1.023.714.714,0,0,0,.509.21.727.727,0,0,0,.513-.213l3.521-3.532a.722.722,0,0,0-.022-1L10.488,7.109A.723.723,0,1,0,9.465,8.132l3.068,3.034Z" transform="translate(-3.375 -3.375)" fill="#ff71a4"/>
</svg>
