<svg id="searchChat" width="18" height="18" viewBox="0 0 18 18" fill="none"
    xmlns="http://www.w3.org/2000/svg">
    <path d="M6.51928 12.6153C4.8116 12.6153 3.36546 12.023 2.18086 10.8384C0.996239 9.65383 0.403931 8.20768 0.403931 6.49999C0.403931 4.79231 0.996239 3.34616 2.18086 2.16154C3.36546 0.976943 4.8116 0.384644 6.51928 0.384644C8.22696 0.384644 9.67311 0.976943 10.8577 2.16154C12.0423 3.34616 12.6347 4.79231 12.6347 6.49999C12.6347 7.21409 12.5148 7.89614 12.275 8.54614C12.0353 9.19614 11.7154 9.76153 11.3154 10.2423L17.0693 15.9961C17.2077 16.1346 17.2786 16.3087 17.2818 16.5183C17.285 16.7279 17.2141 16.9051 17.0693 17.05C16.9244 17.1948 16.7488 17.2673 16.5424 17.2673C16.336 17.2673 16.1603 17.1948 16.0155 17.05L10.2616 11.2961C9.76158 11.7089 9.18658 12.032 8.53658 12.2653C7.88658 12.4987 7.21415 12.6153 6.51928 12.6153ZM6.51928 11.1154C7.80775 11.1154 8.8991 10.6683 9.79333 9.77404C10.6876 8.87981 11.1347 7.78846 11.1347 6.49999C11.1347 5.21153 10.6876 4.12018 9.79333 3.22594C8.8991 2.33171 7.80775 1.88459 6.51928 1.88459C5.23081 1.88459 4.13946 2.33171 3.24523 3.22594C2.35101 4.12018 1.90391 5.21153 1.90391 6.49999C1.90391 7.78846 2.35101 8.87981 3.24523 9.77404C4.13946 10.6683 5.23081 11.1154 6.51928 11.1154Z" fill="currentColor"/>
</svg>
