<svg xmlns="http://www.w3.org/2000/svg" width="40" height="40" viewBox="0 0 40 40">
  <g id="Group_131768" data-name="Group 131768" transform="translate(1397 20963)">
    <g id="Ellipse_1714" data-name="Ellipse 1714" transform="translate(-1397 -20963)" fill="currentColor" stroke="currentColor" stroke-width="1">
      <circle cx="20" cy="20" r="20" stroke="none"/>
      <circle cx="20" cy="20" r="19.5" fill="none"/>
    </g>
    <g id="noun_Share_3648654" transform="translate(-1392.5 -20957.5)">
      <path id="Path_155946" data-name="Path 155946" d="M22.237,20.018a2.222,2.222,0,0,1-2.219,2.219H10.98a2.222,2.222,0,0,1-2.219-2.219V10.98A2.222,2.222,0,0,1,10.98,8.761H17.5V7.5H10.98A3.48,3.48,0,0,0,7.5,10.98v9.036A3.483,3.483,0,0,0,10.982,23.5h9.036A3.483,3.483,0,0,0,23.5,20.016V13.468H22.239v6.55Z" fill="#fff"/>
      <path id="Path_155947" data-name="Path 155947" d="M54.162,7.5H50.738V8.761h1.9L46.05,15.35l.892.892,6.589-6.589v1.9h1.261V8.131A.631.631,0,0,0,54.162,7.5Z" transform="translate(-31.294)" fill="#fff"/>
    </g>
  </g>
</svg>
