<svg id="smile-face" xmlns="http://www.w3.org/2000/svg" width="16.472" height="16.472" viewBox="0 0 16.472 16.472">
  <path id="Icon_material-tag-faces" data-name="Icon material-tag-faces" d="M11.228,3a8.236,8.236,0,1,0,8.244,8.236A8.232,8.232,0,0,0,11.228,3Zm.008,14.825a6.589,6.589,0,1,1,6.589-6.589A6.587,6.587,0,0,1,11.236,17.825Zm2.883-7.412a1.235,1.235,0,1,0-1.235-1.235A1.234,1.234,0,0,0,14.119,10.412Zm-5.765,0A1.235,1.235,0,1,0,7.118,9.177,1.234,1.234,0,0,0,8.353,10.412Zm2.883,5.353a4.527,4.527,0,0,0,4.209-2.883H7.027A4.527,4.527,0,0,0,11.236,15.766Z" transform="translate(-3 -3)" fill="currentColor"/>
</svg>
