<svg xmlns="http://www.w3.org/2000/svg" width="39" height="39" viewBox="0 0 39 39">
  <g id="Group_55821" data-name="Group 55821" transform="translate(-20.389 -255.389)">
    <g id="Group_28110" data-name="Group 28110" transform="translate(20.389 255.389)">
      <g id="Ellipse_572" data-name="Ellipse 572" fill="rgba(236,24,125,0.07)" stroke="#ff71a4" stroke-width="1" opacity="0.999">
        <circle cx="19.5" cy="19.5" r="19.5" stroke="none"/>
        <circle cx="19.5" cy="19.5" r="19" fill="none"/>
      </g>
    </g>
    <g id="Group_28113" data-name="Group 28113" transform="translate(31.303 268.161)">
      <path id="Path_71897" data-name="Path 71897" d="M15.953,15.427a.794.794,0,0,0-.782.157l-3.817,3.376-3.526.676a3.33,3.33,0,0,0,.61,6.6l.9,2.028a.793.793,0,1,0,1.448-.646l-.725-1.627,2.544-.486L17.4,27.23a.79.79,0,0,0,.418.033.809.809,0,0,0,.366-.175.8.8,0,0,0,.264-.752L16.475,16.028A.794.794,0,0,0,15.953,15.427ZM6.74,23.236a1.748,1.748,0,0,1,1.386-2.043l2.961-.567.658,3.43-2.962.567A1.748,1.748,0,0,1,6.74,23.236Zm9.891,2.032-3.265-1.176-.785-4.1,2.6-2.3Z" transform="translate(-5.122 -15.279)" fill="#ff71a4"/>
      <path id="Path_71898" data-name="Path 71898" d="M75.4,18.765l-1.874.358a.793.793,0,1,0,.3,1.558l1.873-.359a.793.793,0,1,0-.3-1.557ZM73.19,17.252a.808.808,0,0,0,.3-.129l1.205-.845a.793.793,0,0,0-.908-1.3l-1.206.845a.793.793,0,0,0,.606,1.428Zm2.776,5.641-1.432-.34a.793.793,0,0,0-.366,1.544l1.433.339a.78.78,0,0,0,.331.008.793.793,0,0,0,.034-1.55Z" transform="translate(-59.404 -14.837)" fill="#ff71a4"/>
    </g>
  </g>
</svg>
