<svg xmlns="http://www.w3.org/2000/svg" width="73" height="73" viewBox="0 0 73 73">
  <g id="Group_50084" data-name="Group 50084" transform="translate(-11328 14899)">
    <rect id="Rectangle_23024" data-name="Rectangle 23024" width="73" height="73" rx="8" transform="translate(11328 -14899)" fill="#ff71a4"/>
    <path id="Path_109072" data-name="Path 109072" d="M40.062,13.467,25.494,8.074a1.172,1.172,0,0,0-.822,0L10.1,13.467a1.18,1.18,0,0,0-.77,1.108v12.6C9.333,41.51,24.624,45.72,24.78,45.76a1.192,1.192,0,0,0,.6,0c.156-.04,15.447-4.25,15.447-18.584v-12.6a1.18,1.18,0,0,0-.77-1.106ZM34.2,24.2l-3.718,3.81.881,5.4a1.181,1.181,0,0,1-1.167,1.37,1.2,1.2,0,0,1-.572-.146l-4.538-2.509-4.54,2.509A1.181,1.181,0,0,1,18.806,33.4l.881-5.4L15.969,24.2a1.181,1.181,0,0,1,.666-1.991l5.091-.777,2.287-4.873a1.23,1.23,0,0,1,2.138,0l2.287,4.873,5.091.777A1.182,1.182,0,0,1,34.2,24.2Z" transform="translate(11339.667 -14888.999)" fill="#fff"/>
  </g>
</svg>
