<svg xmlns="http://www.w3.org/2000/svg" width="13.895" height="15.438" id="sunrise_icon" viewBox="0 0 13.895 15.438" fill="currentColor">
  <path id="Path_2782" data-name="Path 2782" d="M.256,379.586h13.38a.257.257,0,0,0,.169-.451l-4.117-3.6a.257.257,0,0,0-.339,0l-2.382,2.084-1.956-1.086a.257.257,0,0,0-.25,0L.131,379.1a.257.257,0,0,0,.126.482Zm9.263-3.518,3.432,3H6.087Zm-4.631.982,1.669.926-1.251,1.1H1.249Zm0,0" transform="translate(0.001 -364.148)"/>
  <path id="Path_2783" data-name="Path 2783" d="M133.39,154.556a3.086,3.086,0,1,0,0,4.366,3.086,3.086,0,0,0,0-4.366Zm-4,4a2.573,2.573,0,1,1,3.639,0A2.573,2.573,0,0,1,129.387,158.559Zm0,0" transform="translate(-124.259 -149.02)"/>
  <path id="Path_2784" data-name="Path 2784" d="M166.01,190.238a2.061,2.061,0,0,0-1.385,1.385.257.257,0,0,0,.174.32.253.253,0,0,0,.073.011.257.257,0,0,0,.247-.184,1.546,1.546,0,0,1,1.039-1.039.257.257,0,0,0-.147-.493Zm0,0" transform="translate(-159.65 -184.492)"/>
  <path id="Path_2785" data-name="Path 2785" d="M196.373,1.492a.257.257,0,0,0,.36-.051l.309-.412V2.315a.257.257,0,1,0,.515,0V1.029l.309.412a.257.257,0,0,0,.412-.309L197.5.1S197.5.1,197.493.093a.248.248,0,0,0-.348-.041.253.253,0,0,0-.04.041s-.008,0-.012.009l-.772,1.029a.257.257,0,0,0,.051.36Zm0,0" transform="translate(-190.352 0.001)"/>
  <path id="Path_2786" data-name="Path 2786" d="M312.939,144.967a.257.257,0,0,0-.364,0l-.364.364a.257.257,0,1,0,.348.379l.015-.015.364-.364A.257.257,0,0,0,312.939,144.967Zm0,0" transform="translate(-302.716 -140.523)"/>
  <path id="Path_2787" data-name="Path 2787" d="M119.46,145.431l.364.364a.257.257,0,0,0,.363-.364l-.364-.364a.257.257,0,0,0-.364.364Zm0,0" transform="translate(-115.788 -140.623)"/>
  <path id="Path_2788" data-name="Path 2788" d="M60,247.469a.257.257,0,0,0,0,.515h1.029a.257.257,0,1,0,0-.515Zm0,0" transform="translate(-57.937 -240.007)"/>
  <path id="Path_2789" data-name="Path 2789" d="M221.871,375.726v.515a.257.257,0,1,0,.515,0v-.515a.257.257,0,0,0-.515,0Zm0,0" transform="translate(-215.181 -364.147)"/>
  <path id="Path_2790" data-name="Path 2790" d="M350.128,247.469a.257.257,0,0,0,0,.515h1.029a.257.257,0,0,0,0-.515Zm0,0" transform="translate(-339.321 -240.007)"/>
  <path id="Path_2791" data-name="Path 2791" d="M222.128,102.4a.257.257,0,0,0-.257.257v.515a.257.257,0,1,0,.515,0v-.515A.257.257,0,0,0,222.128,102.4Zm0,0" transform="translate(-215.181 -99.314)"/>
  <path id="Path_2792" data-name="Path 2792" d="M119.372,339.023a.257.257,0,0,0,.364,0l.364-.364a.257.257,0,0,0-.363-.364l-.364.364A.257.257,0,0,0,119.372,339.023Zm0,0" transform="translate(-115.7 -328.029)"/>
  <path id="Path_2793" data-name="Path 2793" d="M311.216,337.336a.257.257,0,1,0,.364-.364l-.364-.364a.257.257,0,1,0-.364.364Zm0,0" transform="translate(-301.406 -326.385)"/>
</svg>
