<svg xmlns="http://www.w3.org/2000/svg" width="20.493" height="20.493" viewBox="0 0 20.493 20.493">
  <path id="TAGGED" d="M81.337,1.712a1,1,0,0,0-.78.289L73.917,8.64l7.944,7.944L88.5,9.945a1,1,0,0,0,.288-.78l-.532-6.92ZM82.466,18.4l7.243-7.243a2.7,2.7,0,0,0,.784-2.119L89.9,1.384A.854.854,0,0,0,89.118.6L81.468.01a2.7,2.7,0,0,0-2.119.784L70.8,9.344a2.7,2.7,0,0,0,0,3.822L77.336,19.7a2.7,2.7,0,0,0,3.822,0Zm-1.812-.6L72.71,9.848l-.7.7a1,1,0,0,0,0,1.407L78.543,18.5a1,1,0,0,0,1.407,0ZM84.526,5.976a1,1,0,1,0,0,1.407A.995.995,0,0,0,84.526,5.976ZM81.911,4.768a2.7,2.7,0,1,1,0,3.822A2.7,2.7,0,0,1,81.911,4.768Z" transform="translate(-70.007 -0.002)" fill="currentColor" fill-rule="evenodd"/>
</svg>
