<svg id="tick_icon" xmlns="http://www.w3.org/2000/svg" width="20" height="20" viewBox="0 0 20 20" fill="currentColor">
  <g id="Group_40804" data-name="Group 40804" transform="translate(-6194 17109)">
    <g id="Path_108985" data-name="Path 108985" transform="translate(6214 -17089) rotate(180)" fill="none">
      <path d="M10,0A10,10,0,1,1,0,10,10,10,0,0,1,10,0Z" stroke="none"/>
      <path d="M 10 1 C 5.037380218505859 1 1 5.037380218505859 1 10 C 1 14.96261978149414 5.037380218505859 19 10 19 C 14.96261978149414 19 19 14.96261978149414 19 10 C 19 5.037380218505859 14.96261978149414 1 10 1 M 10 0 C 15.52285003662109 0 20 4.477149963378906 20 10 C 20 15.52285003662109 15.52285003662109 20 10 20 C 4.477149963378906 20 0 15.52285003662109 0 10 C 0 4.477149963378906 4.477149963378906 0 10 0 Z" stroke="none" fill="currentColor"/>
    </g>
    <g id="check-circle-outline" transform="translate(6199 -17103)">
      <path id="Path_108880" data-name="Path 108880" d="M115.726,70.134l-.976.976,3.137,3.137,6.97-6.97-.976-.976-5.994,5.994Z" transform="translate(-114.75 -66.3)" fill="#currentColor"/>
    </g>
  </g>
</svg>
