<svg xmlns="http://www.w3.org/2000/svg" width="73" height="73" viewBox="0 0 73 73">
  <g id="Group_50086" data-name="Group 50086" transform="translate(-11297 14942)">
    <rect id="Rectangle_23026" data-name="Rectangle 23026" width="73" height="73" rx="8" transform="translate(11297 -14942)" fill="#ff71a4"/>
    <g id="_Icons_11_Dollar_2" data-name="_Icons / 11 Dollar_2" transform="translate(11315 -14924)">
      <path id="_11_Dollar_2" data-name="11 Dollar_2" d="M19,38A19,19,0,1,1,38,19,19.022,19.022,0,0,1,19,38ZM14.624,23.511a1.5,1.5,0,0,0-1.055.43l-.7.7A1.49,1.49,0,0,0,13,26.861a7.349,7.349,0,0,0,4.022,1.52v1.005a1.489,1.489,0,0,0,1.488,1.489h.982a1.491,1.491,0,0,0,1.489-1.489V28.366a5.532,5.532,0,0,0,4.947-5.5,5.354,5.354,0,0,0-3.832-5l-5.05-1.512a1.425,1.425,0,0,1-1.005-1.5,1.464,1.464,0,0,1,1.452-1.291h3a3.431,3.431,0,0,1,2,.641,1.488,1.488,0,0,0,1.939-.135l.7-.7a1.488,1.488,0,0,0-.127-2.216,7.413,7.413,0,0,0-4.029-1.52V8.613a1.49,1.49,0,0,0-1.489-1.488h-.982a1.489,1.489,0,0,0-1.488,1.488v.982a5.527,5.527,0,0,0-4.949,5.542,5.358,5.358,0,0,0,3.832,5l5.051,1.512a1.426,1.426,0,0,1,.886,1.948,1.5,1.5,0,0,1-1.343.847H17.512a3.392,3.392,0,0,1-2-.641A1.49,1.49,0,0,0,14.624,23.511Z" fill="#fff"/>
    </g>
  </g>
</svg>
