<svg xmlns="http://www.w3.org/2000/svg" width="34" height="34" viewBox="0 0 34 34">
  <g id="Group_131992" data-name="Group 131992" transform="translate(-10700 9057)">
    <g id="Rectangle_27485" data-name="Rectangle 27485" transform="translate(10700 -9057)" fill="#ff71a4" stroke="#ff71a4" stroke-width="1">
      <rect width="34" height="34" rx="17" stroke="none"/>
      <rect x="0.5" y="0.5" width="33" height="33" rx="16.5" fill="none"/>
    </g>
    <g id="Group_131989" data-name="Group 131989" transform="translate(2.699 -0.285)">
      <path id="_11_Dollar_2" data-name="11 Dollar_2" d="M8.5,17A8.5,8.5,0,1,1,17,8.5,8.51,8.51,0,0,1,8.5,17ZM6.542,10.518a.671.671,0,0,0-.472.192l-.315.311a.666.666,0,0,0,.06,1,3.288,3.288,0,0,0,1.8.68v.45a.666.666,0,0,0,.666.666H8.72a.667.667,0,0,0,.666-.666V12.69A2.475,2.475,0,0,0,11.6,10.228,2.4,2.4,0,0,0,9.885,7.99L7.626,7.313a.637.637,0,0,1-.45-.672.655.655,0,0,1,.65-.578h1.34a1.535,1.535,0,0,1,.9.287.666.666,0,0,0,.868-.06l.315-.315a.666.666,0,0,0-.057-.991,3.316,3.316,0,0,0-1.8-.68v-.45a.667.667,0,0,0-.666-.666H8.28a.666.666,0,0,0-.666.666v.439A2.473,2.473,0,0,0,5.4,6.772,2.4,2.4,0,0,0,7.115,9.01l2.26.676a.638.638,0,0,1,.4.871.669.669,0,0,1-.6.379H7.834a1.517,1.517,0,0,1-.893-.287A.667.667,0,0,0,6.542,10.518Z" transform="translate(10706.301 -9047.715)" fill="#fff"/>
    </g>
  </g>
</svg>
