<svg xmlns="http://www.w3.org/2000/svg" width="157" height="157" viewBox="0 0 157 157"><defs><style>.a{fill:rgba(255,255,255,0.2);stroke:#000;stroke-width:2px;}.b{fill:#000;}</style></defs><g transform="translate(-109 -242)"><rect class="a" width="155" height="155" rx="77.5" transform="translate(110 243)"/><g transform="translate(163 293)"><path class="b" d="M73.692,0A13.6,13.6,0,0,1,87.385,13.692,13.692,13.692,0,1,1,73.692,0Zm0,4.389a9.216,9.216,0,0,0-9.128,9.3A9.216,9.216,0,0,0,73.692,23a9.3,9.3,0,1,0,0-18.608Z" transform="translate(-49.467)"/><path class="b" d="M48.626,190.4c0,2.809-4.564,2.809-4.564,0a19.813,19.813,0,0,0-39.5-2.282H38.093a2.195,2.195,0,1,1,0,4.389H2.282A2.177,2.177,0,0,1,0,190.4a24.313,24.313,0,1,1,48.626,0Z" transform="translate(0 -136.86)"/></g></g></svg>