<svg xmlns="http://www.w3.org/2000/svg" width="73" height="73" viewBox="0 0 73 73">
  <g id="Group_50085" data-name="Group 50085" transform="translate(-11285 14937)">
    <rect id="Rectangle_23025" data-name="Rectangle 23025" width="73" height="73" rx="8" transform="translate(11285 -14937)" fill="#ff71a4"/>
    <path id="Path_109073" data-name="Path 109073" d="M29.7,91.515H5.694A5.71,5.71,0,0,0,0,97.209V113.34a5.71,5.71,0,0,0,5.694,5.694H20.1a.96.96,0,0,1,.938,1.176,24.123,24.123,0,0,1-1.831,5.111.875.875,0,0,0,1.245,1.133,32.12,32.12,0,0,0,7.853-6.764,1.8,1.8,0,0,1,1.395-.656A5.71,5.71,0,0,0,35.4,113.34V97.209A5.71,5.71,0,0,0,29.7,91.515Z" transform="translate(11304 -15006.515)" fill="#fff"/>
    <text id="Create_an_account" data-name="Create an account" transform="translate(11312.227 -14896.467)" fill="#ff71a4" font-size="11" font-family="Avenir-Black, Avenir" font-weight="800" letter-spacing="0.018em"><tspan x="0" y="0">VIP</tspan></text>
  </g>
</svg>
