
<svg xmlns="http://www.w3.org/2000/svg" width="30.848" height="25.83" viewBox="0 0 30.848 25.83">
  <path id="volumeUp" data-name="Icon awesome-volume-up" d="M11.516,4.073,6.751,8.837H1.285A1.285,1.285,0,0,0,0,10.122v7.712a1.285,1.285,0,0,0,1.285,1.285H6.751l4.765,4.764a1.286,1.286,0,0,0,2.194-.909V4.982a1.286,1.286,0,0,0-2.194-.909Zm12.5-2.736A1.3,1.3,0,1,0,22.589,3.5a12.513,12.513,0,0,1,0,20.948,1.3,1.3,0,1,0,1.422,2.166,15.105,15.105,0,0,0,0-25.282Zm1.7,12.641a9.888,9.888,0,0,0-4.593-8.367,1.28,1.28,0,0,0-1.774.4,1.3,1.3,0,0,0,.4,1.787,7.319,7.319,0,0,1,0,12.363,1.3,1.3,0,0,0-.4,1.787,1.282,1.282,0,0,0,1.774.4,9.887,9.887,0,0,0,4.583-8.37Zm-7.6-4.117a1.286,1.286,0,1,0-1.24,2.253,2.111,2.111,0,0,1,0,3.728,1.286,1.286,0,1,0,1.24,2.253,4.682,4.682,0,0,0,0-8.233Z" transform="translate(0 -1.06)" fill="#fff"/>
</svg>
