
<svg xmlns="http://www.w3.org/2000/svg" width="30.191" height="22.638" viewBox="0 0 30.191 22.638">
  <path id="volumeMute" data-name="Icon awesome-volume-mute" d="M12.679,4.916,7.433,10.161H1.415A1.415,1.415,0,0,0,0,11.576v8.491a1.415,1.415,0,0,0,1.415,1.415H7.433l5.246,5.245a1.416,1.416,0,0,0,2.416-1V5.916a1.416,1.416,0,0,0-2.416-1ZM27.22,15.821l2.691-2.691a.952.952,0,0,0,0-1.346l-1.346-1.346a.952.952,0,0,0-1.346,0l-2.69,2.692-2.691-2.691a.952.952,0,0,0-1.346,0l-1.346,1.346a.952.952,0,0,0,0,1.346l2.691,2.691-2.69,2.69a.952.952,0,0,0,0,1.346L20.493,21.2a.952.952,0,0,0,1.346,0l2.69-2.69L27.22,21.2a.952.952,0,0,0,1.346,0l1.346-1.346a.952.952,0,0,0,0-1.346Z" transform="translate(0 -4.503)" fill="#fff"/>
</svg>
