<svg xmlns="http://www.w3.org/2000/svg" width="29.277" height="35.825" viewBox="0 0 29.277 35.825"><defs><style>.a{fill:#fff;}</style></defs><g transform="translate(-27.875 0)"><path class="a" d="M29.386,76.995c-3.029,5.256-1.1,13.232,2.246,18.068C33.3,97.48,35,99.651,37.315,99.651l.132,0a7.017,7.017,0,0,0,2.637-.7,7.222,7.222,0,0,1,3.124-.741,6.792,6.792,0,0,1,2.974.716,6.3,6.3,0,0,0,2.849.683c2.611-.049,4.215-2.391,5.629-4.457A19.754,19.754,0,0,0,57.127,90.1l.01-.032a.294.294,0,0,0-.156-.36l-.021-.009a7.485,7.485,0,0,1-4.536-6.855A7.705,7.705,0,0,1,56.064,76.4l.029-.018a.294.294,0,0,0,.083-.412,8.474,8.474,0,0,0-6.665-3.619c-.189-.019-.385-.028-.581-.028a11.618,11.618,0,0,0-4.183,1.045,6.724,6.724,0,0,1-2,.6,6.555,6.555,0,0,1-2.073-.606,10.043,10.043,0,0,0-3.653-.928h-.093A8.958,8.958,0,0,0,29.386,76.995Z" transform="translate(0 -63.825)"/><path class="a" d="M156.6,0a8.18,8.18,0,0,0-5.4,2.77,7.664,7.664,0,0,0-1.94,5.683.294.294,0,0,0,.268.254c.125.01.253.015.38.015A6.919,6.919,0,0,0,155,6.108,8.08,8.08,0,0,0,156.9.262.3.3,0,0,0,156.6,0Z" transform="translate(-107.083 0)"/></g></svg>