<svg id='Group_132962' width="100" height="100" viewBox="0 0 100 100" fill="none" xmlns="http://www.w3.org/2000/svg">
<rect width="100" height="100" rx="16" fill="#1E1C22"/>
<mask id="path-2-outside-1_1581_4973" maskUnits="userSpaceOnUse" x="30.25" y="30.25" width="39" height="39" fill="black">
<rect fill="white" x="30.25" y="30.25" width="39" height="39"/>
<path fill-rule="evenodd" clip-rule="evenodd" d="M39.1667 31.25H39.2H60.8H60.8333C62.0652 31.25 63.0357 31.25 63.8167 31.3138C64.6134 31.3789 65.2788 31.5141 65.8834 31.8222C66.8713 32.3256 67.6744 33.1287 68.1778 34.1165C68.4859 34.7212 68.6211 35.3866 68.6862 36.1833C68.75 36.9643 68.75 37.9347 68.75 39.1666V39.1666V39.1667V39.2V60.8V60.8333V60.8334V60.8334C68.75 62.0653 68.75 63.0357 68.6862 63.8167C68.6211 64.6134 68.4859 65.2788 68.1778 65.8834C67.6744 66.8713 66.8713 67.6744 65.8834 68.1778C65.2788 68.4859 64.6134 68.6211 63.8167 68.6862C63.0357 68.75 62.0653 68.75 60.8334 68.75H60.8334H60.8333H60.8H39.2H39.1667H39.1666H39.1666C37.9347 68.75 36.9643 68.75 36.1833 68.6862C35.3866 68.6211 34.7212 68.4859 34.1165 68.1778C33.1287 67.6744 32.3256 66.8713 31.8222 65.8834C31.5141 65.2788 31.3789 64.6134 31.3138 63.8167C31.25 63.0357 31.25 62.0652 31.25 60.8333V60.8V39.2V39.1667C31.25 37.9348 31.25 36.9643 31.3138 36.1833C31.3789 35.3866 31.5141 34.7212 31.8222 34.1165C32.3256 33.1287 33.1287 32.3256 34.1165 31.8222C34.7212 31.5141 35.3866 31.3789 36.1833 31.3138C36.9643 31.25 37.9348 31.25 39.1667 31.25ZM36.3055 32.8088C35.6015 32.8663 35.1555 32.9763 34.7975 33.1587C34.0919 33.5183 33.5183 34.0919 33.1587 34.7975C32.9763 35.1555 32.8663 35.6015 32.8088 36.3055C32.7506 37.0182 32.75 37.9275 32.75 39.2V59.1366L41.9363 49.9504L41.9589 49.9278C42.3698 49.5169 42.7113 49.1754 43.0118 48.9217C43.324 48.6583 43.6466 48.4409 44.0337 48.3269C44.6239 48.1529 45.2554 48.1819 45.8272 48.4093C46.2022 48.5584 46.5036 48.8044 46.7902 49.0954C47.0662 49.3756 47.3749 49.7469 47.7464 50.1938L47.7668 50.2184L54.2569 58.0255L54.7121 57.5622L57.0081 55.2252L57.031 55.2019C57.4538 54.7715 57.8045 54.4145 58.1129 54.1501C58.4326 53.876 58.7639 53.6499 59.1623 53.5339C59.7679 53.3577 60.4157 53.395 60.9971 53.6397C61.3795 53.8006 61.6827 54.0633 61.9687 54.3722C62.2448 54.6703 62.5521 55.0651 62.9227 55.5413L62.9428 55.567L67.25 61.1002L67.25 60.8V39.2C67.25 37.9275 67.2494 37.0182 67.1912 36.3055C67.1337 35.6015 67.0237 35.1555 66.8413 34.7975C66.4818 34.0919 65.9081 33.5183 65.2025 33.1587C64.8445 32.9763 64.3985 32.8663 63.6945 32.8088C62.9818 32.7506 62.0725 32.75 60.8 32.75H39.2C37.9275 32.75 37.0182 32.7506 36.3055 32.8088ZM32.75 60.8V60.7581L32.9999 61.008L33.5303 60.4777L42.9969 51.0111C43.4363 50.5718 43.733 50.2759 43.9793 50.068C44.2195 49.8653 44.3562 49.7956 44.4577 49.7657C44.726 49.6866 45.0131 49.6998 45.273 49.8031C45.3714 49.8423 45.5011 49.9242 45.7217 50.1481C45.9478 50.3777 46.2162 50.6995 46.6134 51.1773L53.6338 59.6223L53.6337 59.6224L53.6418 59.6318L59.5365 66.4889L60.0254 67.0577L61.1629 66.0798L60.674 65.5111L55.2287 59.1767L55.7821 58.6134L58.0781 56.2764C58.5297 55.8168 58.8354 55.5065 59.0892 55.2889C59.3373 55.0762 59.478 55.0043 59.5814 54.9742C59.8566 54.8941 60.1511 54.9111 60.4154 55.0223C60.5146 55.064 60.6461 55.1516 60.8681 55.3914C61.0952 55.6366 61.3633 55.98 61.7591 56.4884L66.4081 62.4607L66.8688 63.0525L67.2363 62.7665C67.2277 63.1119 67.2138 63.418 67.1912 63.6945C67.1337 64.3985 67.0237 64.8445 66.8413 65.2025C66.4818 65.9081 65.9081 66.4818 65.2025 66.8413C64.8445 67.0237 64.3985 67.1337 63.6945 67.1912C62.9818 67.2494 62.0725 67.25 60.8 67.25H39.2C37.9275 67.25 37.0182 67.2494 36.3055 67.1912C35.6015 67.1337 35.1555 67.0237 34.7975 66.8413C34.0919 66.4818 33.5183 65.9081 33.1587 65.2025C32.9763 64.8445 32.8663 64.3985 32.8088 63.6945C32.7506 62.9818 32.75 62.0725 32.75 60.8ZM54.75 44C54.75 42.2051 56.2051 40.75 58 40.75C59.7949 40.75 61.25 42.2051 61.25 44C61.25 45.7949 59.7949 47.25 58 47.25C56.2051 47.25 54.75 45.7949 54.75 44ZM58 39.25C55.3766 39.25 53.25 41.3766 53.25 44C53.25 46.6234 55.3766 48.75 58 48.75C60.6234 48.75 62.75 46.6234 62.75 44C62.75 41.3766 60.6234 39.25 58 39.25Z"/>
</mask>
<path fill-rule="evenodd" clip-rule="evenodd" d="M39.1667 31.25H39.2H60.8H60.8333C62.0652 31.25 63.0357 31.25 63.8167 31.3138C64.6134 31.3789 65.2788 31.5141 65.8834 31.8222C66.8713 32.3256 67.6744 33.1287 68.1778 34.1165C68.4859 34.7212 68.6211 35.3866 68.6862 36.1833C68.75 36.9643 68.75 37.9347 68.75 39.1666V39.1666V39.1667V39.2V60.8V60.8333V60.8334V60.8334C68.75 62.0653 68.75 63.0357 68.6862 63.8167C68.6211 64.6134 68.4859 65.2788 68.1778 65.8834C67.6744 66.8713 66.8713 67.6744 65.8834 68.1778C65.2788 68.4859 64.6134 68.6211 63.8167 68.6862C63.0357 68.75 62.0653 68.75 60.8334 68.75H60.8334H60.8333H60.8H39.2H39.1667H39.1666H39.1666C37.9347 68.75 36.9643 68.75 36.1833 68.6862C35.3866 68.6211 34.7212 68.4859 34.1165 68.1778C33.1287 67.6744 32.3256 66.8713 31.8222 65.8834C31.5141 65.2788 31.3789 64.6134 31.3138 63.8167C31.25 63.0357 31.25 62.0652 31.25 60.8333V60.8V39.2V39.1667C31.25 37.9348 31.25 36.9643 31.3138 36.1833C31.3789 35.3866 31.5141 34.7212 31.8222 34.1165C32.3256 33.1287 33.1287 32.3256 34.1165 31.8222C34.7212 31.5141 35.3866 31.3789 36.1833 31.3138C36.9643 31.25 37.9348 31.25 39.1667 31.25ZM36.3055 32.8088C35.6015 32.8663 35.1555 32.9763 34.7975 33.1587C34.0919 33.5183 33.5183 34.0919 33.1587 34.7975C32.9763 35.1555 32.8663 35.6015 32.8088 36.3055C32.7506 37.0182 32.75 37.9275 32.75 39.2V59.1366L41.9363 49.9504L41.9589 49.9278C42.3698 49.5169 42.7113 49.1754 43.0118 48.9217C43.324 48.6583 43.6466 48.4409 44.0337 48.3269C44.6239 48.1529 45.2554 48.1819 45.8272 48.4093C46.2022 48.5584 46.5036 48.8044 46.7902 49.0954C47.0662 49.3756 47.3749 49.7469 47.7464 50.1938L47.7668 50.2184L54.2569 58.0255L54.7121 57.5622L57.0081 55.2252L57.031 55.2019C57.4538 54.7715 57.8045 54.4145 58.1129 54.1501C58.4326 53.876 58.7639 53.6499 59.1623 53.5339C59.7679 53.3577 60.4157 53.395 60.9971 53.6397C61.3795 53.8006 61.6827 54.0633 61.9687 54.3722C62.2448 54.6703 62.5521 55.0651 62.9227 55.5413L62.9428 55.567L67.25 61.1002L67.25 60.8V39.2C67.25 37.9275 67.2494 37.0182 67.1912 36.3055C67.1337 35.6015 67.0237 35.1555 66.8413 34.7975C66.4818 34.0919 65.9081 33.5183 65.2025 33.1587C64.8445 32.9763 64.3985 32.8663 63.6945 32.8088C62.9818 32.7506 62.0725 32.75 60.8 32.75H39.2C37.9275 32.75 37.0182 32.7506 36.3055 32.8088ZM32.75 60.8V60.7581L32.9999 61.008L33.5303 60.4777L42.9969 51.0111C43.4363 50.5718 43.733 50.2759 43.9793 50.068C44.2195 49.8653 44.3562 49.7956 44.4577 49.7657C44.726 49.6866 45.0131 49.6998 45.273 49.8031C45.3714 49.8423 45.5011 49.9242 45.7217 50.1481C45.9478 50.3777 46.2162 50.6995 46.6134 51.1773L53.6338 59.6223L53.6337 59.6224L53.6418 59.6318L59.5365 66.4889L60.0254 67.0577L61.1629 66.0798L60.674 65.5111L55.2287 59.1767L55.7821 58.6134L58.0781 56.2764C58.5297 55.8168 58.8354 55.5065 59.0892 55.2889C59.3373 55.0762 59.478 55.0043 59.5814 54.9742C59.8566 54.8941 60.1511 54.9111 60.4154 55.0223C60.5146 55.064 60.6461 55.1516 60.8681 55.3914C61.0952 55.6366 61.3633 55.98 61.7591 56.4884L66.4081 62.4607L66.8688 63.0525L67.2363 62.7665C67.2277 63.1119 67.2138 63.418 67.1912 63.6945C67.1337 64.3985 67.0237 64.8445 66.8413 65.2025C66.4818 65.9081 65.9081 66.4818 65.2025 66.8413C64.8445 67.0237 64.3985 67.1337 63.6945 67.1912C62.9818 67.2494 62.0725 67.25 60.8 67.25H39.2C37.9275 67.25 37.0182 67.2494 36.3055 67.1912C35.6015 67.1337 35.1555 67.0237 34.7975 66.8413C34.0919 66.4818 33.5183 65.9081 33.1587 65.2025C32.9763 64.8445 32.8663 64.3985 32.8088 63.6945C32.7506 62.9818 32.75 62.0725 32.75 60.8ZM54.75 44C54.75 42.2051 56.2051 40.75 58 40.75C59.7949 40.75 61.25 42.2051 61.25 44C61.25 45.7949 59.7949 47.25 58 47.25C56.2051 47.25 54.75 45.7949 54.75 44ZM58 39.25C55.3766 39.25 53.25 41.3766 53.25 44C53.25 46.6234 55.3766 48.75 58 48.75C60.6234 48.75 62.75 46.6234 62.75 44C62.75 41.3766 60.6234 39.25 58 39.25Z" fill="white"/>
<path d="M39.1667 31.25L39.1667 31.75H39.1667V31.25ZM60.8333 31.25V31.75H60.8333L60.8333 31.25ZM63.8167 31.3138L63.8574 30.8155V30.8155L63.8167 31.3138ZM65.8834 31.8222L66.1104 31.3767V31.3767L65.8834 31.8222ZM68.1778 34.1165L67.7323 34.3435V34.3435L68.1778 34.1165ZM68.6862 36.1833L68.1879 36.2241V36.2241L68.6862 36.1833ZM68.75 39.1666L68.25 39.1666V39.1666H68.75ZM68.75 60.8334H68.25V60.8334L68.75 60.8334ZM68.6862 63.8167L68.1879 63.7759V63.776L68.6862 63.8167ZM68.1778 65.8834L67.7323 65.6565V65.6565L68.1778 65.8834ZM65.8834 68.1778L65.6565 67.7323H65.6565L65.8834 68.1778ZM63.8167 68.6862L63.776 68.1879H63.7759L63.8167 68.6862ZM60.8334 68.75L60.8334 68.25H60.8334V68.75ZM39.1666 68.75V68.25H39.1666L39.1666 68.75ZM36.1833 68.6862L36.2241 68.1879H36.2241L36.1833 68.6862ZM34.1165 68.1778L34.3435 67.7323H34.3435L34.1165 68.1778ZM31.8222 65.8834L31.3767 66.1104H31.3767L31.8222 65.8834ZM31.3138 63.8167L30.8155 63.8574L31.3138 63.8167ZM31.25 60.8333L31.75 60.8333V60.8333H31.25ZM31.25 39.1667H31.75V39.1667L31.25 39.1667ZM31.3138 36.1833L31.8121 36.2241L31.3138 36.1833ZM31.8222 34.1165L32.2677 34.3435L31.8222 34.1165ZM34.1165 31.8222L34.3435 32.2677L34.1165 31.8222ZM36.1833 31.3138L36.2241 31.8121L36.1833 31.3138ZM34.7975 33.1587L35.0245 33.6042L34.7975 33.1587ZM36.3055 32.8088L36.2648 32.3105L36.3055 32.8088ZM33.1587 34.7975L33.6042 35.0245L33.1587 34.7975ZM32.8088 36.3055L32.3105 36.2648L32.8088 36.3055ZM32.75 59.1366H32.25C32.25 59.3389 32.3718 59.5212 32.5587 59.5986C32.7455 59.676 32.9606 59.6332 33.1036 59.4902L32.75 59.1366ZM41.9363 49.9504L42.2898 50.304L42.2899 50.3039L41.9363 49.9504ZM41.9589 49.9278L41.6053 49.5742L41.6053 49.5742L41.9589 49.9278ZM43.0118 48.9217L43.3343 49.3038H43.3343L43.0118 48.9217ZM44.0337 48.3269L43.8924 47.8472H43.8924L44.0337 48.3269ZM45.8272 48.4093L46.0119 47.9447L46.0119 47.9447L45.8272 48.4093ZM46.7902 49.0954L46.434 49.4463L46.434 49.4463L46.7902 49.0954ZM47.7464 50.1938L48.1309 49.8742L48.1309 49.8742L47.7464 50.1938ZM47.7668 50.2184L47.3823 50.538L47.3824 50.538L47.7668 50.2184ZM54.2569 58.0255L53.8724 58.3451C53.9628 58.4538 54.095 58.5192 54.2362 58.525C54.3774 58.5309 54.5145 58.4767 54.6136 58.3759L54.2569 58.0255ZM54.7121 57.5622L55.0688 57.9126L54.7121 57.5622ZM57.0081 55.2252L57.3648 55.5756L57.3648 55.5756L57.0081 55.2252ZM57.031 55.2019L56.6743 54.8515L56.6743 54.8515L57.031 55.2019ZM58.1129 54.1501L57.7875 53.7705L58.1129 54.1501ZM59.1623 53.5339L59.0226 53.0539H59.0226L59.1623 53.5339ZM60.9971 53.6397L61.191 53.1788H61.191L60.9971 53.6397ZM61.9687 54.3722L62.3356 54.0325L61.9687 54.3722ZM62.9227 55.5413L62.5281 55.8484L62.5281 55.8484L62.9227 55.5413ZM62.9428 55.567L62.5482 55.8742L62.5482 55.8742L62.9428 55.567ZM67.25 61.1002L66.8554 61.4074C66.9866 61.5759 67.2103 61.6425 67.4123 61.5731C67.6143 61.5038 67.7499 61.3138 67.75 61.1003L67.25 61.1002ZM67.25 60.8L67.75 60.8001V60.8H67.25ZM67.1912 36.3055L66.6928 36.3462V36.3462L67.1912 36.3055ZM66.8413 34.7975L66.3958 35.0245V35.0245L66.8413 34.7975ZM65.2025 33.1587L65.4295 32.7132V32.7132L65.2025 33.1587ZM63.6945 32.8088L63.7352 32.3105V32.3105L63.6945 32.8088ZM32.75 60.7581L33.1036 60.4046C32.9606 60.2616 32.7455 60.2188 32.5587 60.2962C32.3718 60.3736 32.25 60.5559 32.25 60.7581H32.75ZM32.9999 61.008L32.6464 61.3616C32.7401 61.4554 32.8673 61.508 32.9999 61.508C33.1325 61.508 33.2597 61.4554 33.3535 61.3616L32.9999 61.008ZM33.5303 60.4777L33.1767 60.1241H33.1767L33.5303 60.4777ZM42.9969 51.0111L43.3505 51.3646L42.9969 51.0111ZM43.9793 50.068L44.3018 50.4501H44.3018L43.9793 50.068ZM44.4577 49.7657L44.5991 50.2453H44.5991L44.4577 49.7657ZM45.273 49.8031L45.4577 49.3385L45.4577 49.3385L45.273 49.8031ZM45.7217 50.1481L45.3655 50.499H45.3655L45.7217 50.1481ZM46.6134 51.1773L46.9979 50.8577V50.8577L46.6134 51.1773ZM53.6338 59.6223L53.953 60.0072C54.0551 59.9225 54.1194 59.8006 54.1316 59.6685C54.1439 59.5363 54.1031 59.4047 54.0183 59.3027L53.6338 59.6223ZM53.6337 59.6224L53.3145 59.2375C53.2113 59.3231 53.1468 59.4467 53.1355 59.5803C53.1242 59.714 53.1671 59.8466 53.2546 59.9483L53.6337 59.6224ZM53.6418 59.6318L54.0209 59.3058L54.0209 59.3058L53.6418 59.6318ZM59.5365 66.4889L59.1574 66.8149L59.5365 66.4889ZM60.0254 67.0577L59.6463 67.3836C59.8263 67.593 60.142 67.6168 60.3514 67.4368L60.0254 67.0577ZM61.1629 66.0798L61.4889 66.459C61.6983 66.279 61.7221 65.9633 61.5421 65.7539L61.1629 66.0798ZM60.674 65.5111L60.2948 65.837L60.674 65.5111ZM55.2287 59.1767L54.872 58.8263C54.6899 59.0117 54.6801 59.3056 54.8495 59.5027L55.2287 59.1767ZM55.7821 58.6134L55.4254 58.263L55.7821 58.6134ZM58.0781 56.2764L58.4348 56.6268L58.0781 56.2764ZM59.0892 55.2889L58.7638 54.9093L58.7638 54.9093L59.0892 55.2889ZM59.5814 54.9742L59.4417 54.4941H59.4417L59.5814 54.9742ZM60.4154 55.0223L60.2215 55.4831L60.4154 55.0223ZM60.8681 55.3914L61.235 55.0517L61.235 55.0517L60.8681 55.3914ZM61.7591 56.4884L62.1537 56.1813H62.1537L61.7591 56.4884ZM66.4081 62.4607L66.0135 62.7678L66.4081 62.4607ZM66.8688 63.0525L66.4742 63.3597C66.6439 63.5776 66.958 63.6167 67.1759 63.4471L66.8688 63.0525ZM67.2363 62.7665L67.7361 62.7789C67.7409 62.5857 67.6339 62.407 67.4614 62.32C67.2889 62.233 67.0816 62.2532 66.9291 62.3719L67.2363 62.7665ZM67.1912 63.6945L66.6928 63.6538V63.6538L67.1912 63.6945ZM66.8413 65.2025L67.2868 65.4295L66.8413 65.2025ZM65.2025 66.8413L65.4295 67.2868L65.2025 66.8413ZM63.6945 67.1912L63.6538 66.6928L63.6945 67.1912ZM36.3055 67.1912L36.3462 66.6928H36.3462L36.3055 67.1912ZM34.7975 66.8413L35.0245 66.3958H35.0245L34.7975 66.8413ZM33.1587 65.2025L32.7132 65.4295H32.7132L33.1587 65.2025ZM32.8088 63.6945L32.3105 63.7352H32.3105L32.8088 63.6945ZM39.2 30.75H39.1667V31.75H39.2V30.75ZM60.8 30.75H39.2V31.75H60.8V30.75ZM60.8333 30.75H60.8V31.75H60.8333V30.75ZM63.8574 30.8155C63.0514 30.7496 62.0574 30.75 60.8333 30.75L60.8333 31.75C62.073 31.75 63.0199 31.7504 63.776 31.8121L63.8574 30.8155ZM66.1104 31.3767C65.4236 31.0267 64.6851 30.8831 63.8574 30.8155L63.776 31.8121C64.5417 31.8747 65.134 32.0015 65.6565 32.2677L66.1104 31.3767ZM68.6233 33.8896C68.072 32.8076 67.1924 31.928 66.1104 31.3767L65.6565 32.2677C66.5502 32.7231 67.2769 33.4498 67.7323 34.3435L68.6233 33.8896ZM69.1845 36.1426C69.1169 35.3149 68.9733 34.5764 68.6233 33.8896L67.7323 34.3435C67.9985 34.866 68.1253 35.4583 68.1879 36.2241L69.1845 36.1426ZM69.25 39.1666C69.25 37.9425 69.2504 36.9486 69.1845 36.1426L68.1879 36.2241C68.2496 36.98 68.25 37.9269 68.25 39.1666L69.25 39.1666ZM69.25 39.1666V39.1666H68.25V39.1666H69.25ZM69.25 39.1667V39.1666H68.25V39.1667H69.25ZM69.25 39.2V39.1667H68.25V39.2H69.25ZM69.25 60.8V39.2H68.25V60.8H69.25ZM69.25 60.8333V60.8H68.25V60.8333H69.25ZM69.25 60.8334V60.8333H68.25V60.8334H69.25ZM69.25 60.8334V60.8334H68.25V60.8334H69.25ZM69.1845 63.8574C69.2504 63.0514 69.25 62.0575 69.25 60.8334L68.25 60.8334C68.25 62.0731 68.2496 63.02 68.1879 63.7759L69.1845 63.8574ZM68.6233 66.1104C68.9733 65.4236 69.1169 64.6851 69.1845 63.8574L68.1879 63.776C68.1253 64.5417 67.9985 65.134 67.7323 65.6565L68.6233 66.1104ZM66.1104 68.6233C67.1924 68.072 68.072 67.1924 68.6233 66.1104L67.7323 65.6565C67.2769 66.5502 66.5502 67.2769 65.6565 67.7323L66.1104 68.6233ZM63.8574 69.1845C64.6851 69.1169 65.4236 68.9733 66.1104 68.6233L65.6565 67.7323C65.134 67.9985 64.5417 68.1253 63.776 68.1879L63.8574 69.1845ZM60.8334 69.25C62.0575 69.25 63.0514 69.2504 63.8574 69.1845L63.7759 68.1879C63.02 68.2496 62.0731 68.25 60.8334 68.25L60.8334 69.25ZM60.8334 69.25H60.8334V68.25H60.8334V69.25ZM60.8333 69.25H60.8334V68.25H60.8333V69.25ZM60.8 69.25H60.8333V68.25H60.8V69.25ZM39.2 69.25H60.8V68.25H39.2V69.25ZM39.1667 69.25H39.2V68.25H39.1667V69.25ZM39.1666 69.25H39.1667V68.25H39.1666V69.25ZM39.1666 69.25H39.1666V68.25H39.1666V69.25ZM36.1426 69.1845C36.9486 69.2504 37.9425 69.25 39.1666 69.25L39.1666 68.25C37.9269 68.25 36.98 68.2496 36.2241 68.1879L36.1426 69.1845ZM33.8896 68.6233C34.5764 68.9733 35.3149 69.1169 36.1426 69.1845L36.2241 68.1879C35.4583 68.1253 34.866 67.9985 34.3435 67.7323L33.8896 68.6233ZM31.3767 66.1104C31.928 67.1924 32.8076 68.072 33.8896 68.6233L34.3435 67.7323C33.4498 67.2769 32.7231 66.5502 32.2677 65.6565L31.3767 66.1104ZM30.8155 63.8574C30.8831 64.6851 31.0267 65.4236 31.3767 66.1104L32.2677 65.6565C32.0015 65.134 31.8747 64.5417 31.8121 63.776L30.8155 63.8574ZM30.75 60.8333C30.75 62.0574 30.7496 63.0514 30.8155 63.8574L31.8121 63.776C31.7504 63.0199 31.75 62.073 31.75 60.8333L30.75 60.8333ZM30.75 60.8V60.8333H31.75V60.8H30.75ZM30.75 39.2V60.8H31.75V39.2H30.75ZM30.75 39.1667V39.2H31.75V39.1667H30.75ZM30.8155 36.1426C30.7496 36.9486 30.75 37.9426 30.75 39.1667L31.75 39.1667C31.75 37.927 31.7504 36.9801 31.8121 36.2241L30.8155 36.1426ZM31.3767 33.8896C31.0267 34.5764 30.8831 35.3149 30.8155 36.1426L31.8121 36.2241C31.8747 35.4583 32.0015 34.866 32.2677 34.3435L31.3767 33.8896ZM33.8896 31.3767C32.8076 31.928 31.928 32.8076 31.3767 33.8896L32.2677 34.3435C32.7231 33.4498 33.4498 32.7231 34.3435 32.2677L33.8896 31.3767ZM36.1426 30.8155C35.3149 30.8831 34.5764 31.0267 33.8896 31.3767L34.3435 32.2677C34.866 32.0015 35.4583 31.8747 36.2241 31.8121L36.1426 30.8155ZM39.1667 30.75C37.9426 30.75 36.9486 30.7496 36.1426 30.8155L36.2241 31.8121C36.9801 31.7504 37.927 31.75 39.1667 31.75L39.1667 30.75ZM35.0245 33.6042C35.3002 33.4638 35.673 33.3622 36.3462 33.3072L36.2648 32.3105C35.5299 32.3705 35.0108 32.4889 34.5705 32.7132L35.0245 33.6042ZM33.6042 35.0245C33.9158 34.413 34.413 33.9158 35.0245 33.6042L34.5705 32.7132C33.7709 33.1207 33.1207 33.7709 32.7132 34.5705L33.6042 35.0245ZM33.3072 36.3462C33.3622 35.673 33.4638 35.3002 33.6042 35.0245L32.7132 34.5705C32.4889 35.0108 32.3705 35.5299 32.3105 36.2648L33.3072 36.3462ZM33.25 39.2C33.25 37.9191 33.251 37.0338 33.3072 36.3462L32.3105 36.2648C32.2502 37.0026 32.25 37.9359 32.25 39.2H33.25ZM33.25 59.1366V39.2H32.25V59.1366H33.25ZM41.5827 49.5969L32.3964 58.7831L33.1036 59.4902L42.2898 50.304L41.5827 49.5969ZM41.6053 49.5742L41.5827 49.5969L42.2899 50.3039L42.3125 50.2813L41.6053 49.5742ZM42.6893 48.5396C42.369 48.81 42.0108 49.1687 41.6053 49.5742L42.3125 50.2813C42.7288 49.865 43.0535 49.5408 43.3343 49.3038L42.6893 48.5396ZM43.8924 47.8472C43.4102 47.9893 43.0256 48.2558 42.6893 48.5396L43.3343 49.3038C43.6223 49.0607 43.8831 48.8925 44.175 48.8065L43.8924 47.8472ZM46.0119 47.9447C45.3362 47.676 44.5899 47.6417 43.8924 47.8472L44.175 48.8065C44.658 48.6641 45.1746 48.6879 45.6425 48.8739L46.0119 47.9447ZM47.1464 48.7445C46.8376 48.4311 46.479 48.1304 46.0119 47.9447L45.6425 48.8739C45.9253 48.9864 46.1695 49.1778 46.434 49.4463L47.1464 48.7445ZM48.1309 49.8742C47.7643 49.4332 47.4405 49.0431 47.1464 48.7445L46.434 49.4463C46.6919 49.7081 46.9855 50.0607 47.3619 50.5134L48.1309 49.8742ZM48.1514 49.8988L48.1309 49.8742L47.3619 50.5134L47.3823 50.538L48.1514 49.8988ZM54.6414 57.7058L48.1513 49.8988L47.3824 50.538L53.8724 58.3451L54.6414 57.7058ZM54.3554 57.2117L53.9003 57.675L54.6136 58.3759L55.0688 57.9126L54.3554 57.2117ZM56.6514 54.8748L54.3554 57.2117L55.0688 57.9126L57.3648 55.5756L56.6514 54.8748ZM56.6743 54.8515L56.6514 54.8748L57.3648 55.5756L57.3876 55.5523L56.6743 54.8515ZM57.7875 53.7705C57.4592 54.052 57.0917 54.4266 56.6743 54.8515L57.3876 55.5523C57.816 55.1163 58.1498 54.7771 58.4384 54.5297L57.7875 53.7705ZM59.0226 53.0539C58.526 53.1984 58.1311 53.4759 57.7875 53.7705L58.4384 54.5297C58.734 54.2762 59.0019 54.1014 59.302 54.014L59.0226 53.0539ZM61.191 53.1788C60.5039 52.8897 59.7383 52.8456 59.0226 53.0539L59.302 54.014C59.7975 53.8698 60.3275 53.9004 60.8032 54.1005L61.191 53.1788ZM62.3356 54.0325C62.0281 53.7004 61.6677 53.3794 61.191 53.1788L60.8032 54.1005C61.0913 54.2217 61.3372 54.4262 61.6019 54.7119L62.3356 54.0325ZM63.3172 55.2341C62.9514 54.7642 62.6294 54.3498 62.3356 54.0325L61.6019 54.7119C61.8601 54.9908 62.1527 55.3661 62.5281 55.8484L63.3172 55.2341ZM63.3373 55.2599L63.3172 55.2341L62.5281 55.8484L62.5482 55.8742L63.3373 55.2599ZM67.6445 60.7931L63.3373 55.2599L62.5482 55.8742L66.8554 61.4074L67.6445 60.7931ZM66.75 60.7999L66.75 61.1001L67.75 61.1003L67.75 60.8001L66.75 60.7999ZM66.75 39.2V60.8H67.75V39.2H66.75ZM66.6928 36.3462C66.749 37.0338 66.75 37.9191 66.75 39.2H67.75C67.75 37.9359 67.7498 37.0026 67.6895 36.2648L66.6928 36.3462ZM66.3958 35.0245C66.5362 35.3002 66.6378 35.673 66.6928 36.3462L67.6895 36.2648C67.6295 35.5299 67.5111 35.0108 67.2868 34.5705L66.3958 35.0245ZM64.9755 33.6042C65.587 33.9158 66.0842 34.413 66.3958 35.0245L67.2868 34.5705C66.8793 33.7709 66.2291 33.1207 65.4295 32.7132L64.9755 33.6042ZM63.6538 33.3072C64.327 33.3622 64.6998 33.4638 64.9755 33.6042L65.4295 32.7132C64.9892 32.4889 64.4701 32.3705 63.7352 32.3105L63.6538 33.3072ZM60.8 33.25C62.0809 33.25 62.9662 33.251 63.6538 33.3072L63.7352 32.3105C62.9974 32.2502 62.0641 32.25 60.8 32.25V33.25ZM39.2 33.25H60.8V32.25H39.2V33.25ZM36.3462 33.3072C37.0338 33.251 37.9191 33.25 39.2 33.25V32.25C37.9359 32.25 37.0026 32.2502 36.2648 32.3105L36.3462 33.3072ZM32.25 60.7581V60.8H33.25V60.7581H32.25ZM33.3535 60.6545L33.1036 60.4046L32.3964 61.1117L32.6464 61.3616L33.3535 60.6545ZM33.1767 60.1241L32.6464 60.6545L33.3535 61.3616L33.8838 60.8313L33.1767 60.1241ZM42.6434 50.6575L33.1767 60.1241L33.8838 60.8313L43.3505 51.3646L42.6434 50.6575ZM43.6568 49.6859C43.3906 49.9106 43.0764 50.2245 42.6434 50.6575L43.3505 51.3646C43.7961 50.919 44.0755 50.6411 44.3018 50.4501L43.6568 49.6859ZM44.3164 49.2861C44.1195 49.3441 43.9207 49.4632 43.6568 49.6859L44.3018 50.4501C44.5182 50.2674 44.5929 50.2471 44.5991 50.2453L44.3164 49.2861ZM45.4577 49.3385C45.0939 49.1938 44.692 49.1754 44.3164 49.2861L44.5991 50.2453C44.7601 50.1978 44.9323 50.2057 45.0882 50.2678L45.4577 49.3385ZM46.0778 49.7972C45.8355 49.5512 45.6485 49.4144 45.4577 49.3385L45.0882 50.2677C45.0942 50.2701 45.1667 50.2973 45.3655 50.499L46.0778 49.7972ZM46.9979 50.8577C46.6064 50.3867 46.3224 50.0454 46.0778 49.7972L45.3655 50.499C45.5733 50.71 45.826 51.0123 46.2289 51.4969L46.9979 50.8577ZM54.0183 59.3027L46.9979 50.8577L46.2289 51.4969L53.2493 59.9419L54.0183 59.3027ZM53.9529 60.0072L53.953 60.0072L53.3146 59.2374L53.3145 59.2375L53.9529 60.0072ZM54.0209 59.3058L54.0128 59.2964L53.2546 59.9483L53.2627 59.9577L54.0209 59.3058ZM59.9157 66.163L54.0209 59.3058L53.2626 59.9577L59.1574 66.8149L59.9157 66.163ZM60.4046 66.7317L59.9157 66.163L59.1574 66.8149L59.6463 67.3836L60.4046 66.7317ZM60.837 65.7007L59.6995 66.6785L60.3514 67.4368L61.4889 66.459L60.837 65.7007ZM60.2948 65.837L60.7838 66.4058L61.5421 65.7539L61.0532 65.1851L60.2948 65.837ZM54.8495 59.5027L60.2948 65.837L61.0532 65.1851L55.6078 58.8508L54.8495 59.5027ZM55.4254 58.263L54.872 58.8263L55.5853 59.5271L56.1388 58.9638L55.4254 58.263ZM57.7214 55.926L55.4254 58.263L56.1388 58.9638L58.4348 56.6268L57.7214 55.926ZM58.7638 54.9093C58.4899 55.1441 58.1667 55.4728 57.7214 55.926L58.4348 56.6268C58.8927 56.1607 59.181 55.8688 59.4146 55.6685L58.7638 54.9093ZM59.4417 54.4941C59.2398 54.5529 59.0355 54.6764 58.7638 54.9093L59.4146 55.6685C59.6391 55.476 59.7162 55.4557 59.7211 55.4543L59.4417 54.4941ZM60.6093 54.5614C60.2393 54.4057 59.8271 54.382 59.4417 54.4941L59.7211 55.4543C59.8862 55.4062 60.0629 55.4164 60.2215 55.4831L60.6093 54.5614ZM61.235 55.0517C60.9919 54.7891 60.8031 54.6429 60.6093 54.5614L60.2215 55.4831C60.2261 55.4851 60.3003 55.5141 60.5013 55.7311L61.235 55.0517ZM62.1537 56.1813C61.7634 55.68 61.4801 55.3164 61.235 55.0517L60.5013 55.7311C60.7104 55.9569 60.9632 56.28 61.3646 56.7956L62.1537 56.1813ZM66.8027 62.1536L62.1537 56.1813L61.3646 56.7956L66.0135 62.7678L66.8027 62.1536ZM67.2633 62.7454L66.8027 62.1536L66.0135 62.7678L66.4742 63.3597L67.2633 62.7454ZM66.9291 62.3719L66.5617 62.658L67.1759 63.4471L67.5434 63.161L66.9291 62.3719ZM67.6895 63.7352C67.7132 63.446 67.7274 63.1298 67.7361 62.7789L66.7364 62.7541C66.728 63.094 66.7144 63.3899 66.6928 63.6538L67.6895 63.7352ZM67.2868 65.4295C67.5111 64.9892 67.6295 64.4701 67.6895 63.7352L66.6928 63.6538C66.6378 64.327 66.5362 64.6998 66.3958 64.9755L67.2868 65.4295ZM65.4295 67.2868C66.2291 66.8793 66.8793 66.2291 67.2868 65.4295L66.3958 64.9755C66.0842 65.587 65.587 66.0842 64.9755 66.3958L65.4295 67.2868ZM63.7352 67.6895C64.4701 67.6295 64.9892 67.5111 65.4295 67.2868L64.9755 66.3958C64.6998 66.5362 64.327 66.6378 63.6538 66.6928L63.7352 67.6895ZM60.8 67.75C62.0641 67.75 62.9974 67.7498 63.7352 67.6895L63.6538 66.6928C62.9662 66.749 62.0809 66.75 60.8 66.75V67.75ZM39.2 67.75H60.8V66.75H39.2V67.75ZM36.2648 67.6895C37.0026 67.7498 37.9359 67.75 39.2 67.75V66.75C37.9191 66.75 37.0338 66.749 36.3462 66.6928L36.2648 67.6895ZM34.5705 67.2868C35.0108 67.5111 35.5299 67.6295 36.2648 67.6895L36.3462 66.6928C35.673 66.6378 35.3002 66.5362 35.0245 66.3958L34.5705 67.2868ZM32.7132 65.4295C33.1207 66.2291 33.7709 66.8793 34.5705 67.2868L35.0245 66.3958C34.413 66.0842 33.9158 65.587 33.6042 64.9755L32.7132 65.4295ZM32.3105 63.7352C32.3705 64.4701 32.4889 64.9892 32.7132 65.4295L33.6042 64.9755C33.4638 64.6998 33.3622 64.327 33.3072 63.6538L32.3105 63.7352ZM32.25 60.8C32.25 62.0641 32.2502 62.9974 32.3105 63.7352L33.3072 63.6538C33.251 62.9662 33.25 62.0809 33.25 60.8H32.25ZM58 40.25C55.9289 40.25 54.25 41.9289 54.25 44H55.25C55.25 42.4812 56.4812 41.25 58 41.25V40.25ZM61.75 44C61.75 41.9289 60.0711 40.25 58 40.25V41.25C59.5188 41.25 60.75 42.4812 60.75 44H61.75ZM58 47.75C60.0711 47.75 61.75 46.0711 61.75 44H60.75C60.75 45.5188 59.5188 46.75 58 46.75V47.75ZM54.25 44C54.25 46.0711 55.9289 47.75 58 47.75V46.75C56.4812 46.75 55.25 45.5188 55.25 44H54.25ZM53.75 44C53.75 41.6528 55.6528 39.75 58 39.75V38.75C55.1005 38.75 52.75 41.1005 52.75 44H53.75ZM58 48.25C55.6528 48.25 53.75 46.3472 53.75 44H52.75C52.75 46.8995 55.1005 49.25 58 49.25V48.25ZM62.25 44C62.25 46.3472 60.3472 48.25 58 48.25V49.25C60.8995 49.25 63.25 46.8995 63.25 44H62.25ZM58 39.75C60.3472 39.75 62.25 41.6528 62.25 44H63.25C63.25 41.1005 60.8995 38.75 58 38.75V39.75Z" fill="white" mask="url(#path-2-outside-1_1581_4973)"/>
</svg>
