<svg xmlns="http://www.w3.org/2000/svg" xmlns:xlink="http://www.w3.org/1999/xlink" width="384" height="384" viewBox="0 0 384 384">
  <defs>
    <clipPath id="clip-path">
      <rect id="Rectangle_28776" data-name="Rectangle 28776" width="104.028" height="130.461" fill="none"/>
    </clipPath>
    <clipPath id="clip-path-2">
      <rect id="Rectangle_28777" data-name="Rectangle 28777" width="124.114" height="127.395" fill="none"/>
    </clipPath>
  </defs>
  <g id="Group_135739" data-name="Group 135739" transform="translate(-3093 20266)">
    <rect id="Rectangle_29646" data-name="Rectangle 29646" width="384" height="384" transform="translate(3093 -20266)" fill="none"/>
    <g id="Group_131931" data-name="Group 131931" transform="translate(3118.002 -20246.857)">
      <path id="Path_193686" data-name="Path 193686" d="M266.992,80.731,68.054,120.477c-6.717-2.559-13.931-7.5-20.6-10.2,16.845,28.405,38.477,63.012,65.679,82.48,4.425,3.169,11.3,6.561,11.936,12.716.482,4.667-5.8,13.971-2.414,18.251s9.638,1.866,9.97-5.055-4.837-10.622-1.93-14.969,5.965-6.6,10.31-4.185,7.569,11.12,5.957,27.055-4.431,51.83,4.787,51.67,8.9-12.234,6.321-24.789-7.4-35.735-3.381-41.208,11.106-7.727,12.716-.8-8.2,21.73,1.93,24.949,9.336-8.4,7.083-12.65-4.991-14.873,5.151-20.024c12.774-6.489,22.4-16.905,31.146-27.893,10.478-13.173,22.278-24.989,31.83-38.955,11.024-16.121,22.134-36.115,22.456-56.133" transform="translate(47.47 80.762)" fill="#2f0074"/>
      <path id="Path_193687" data-name="Path 193687" d="M175.494,114.115c0,42.208-29.716,76.415-66.371,76.415s-66.371-34.207-66.371-76.415S72.468,37.7,109.123,37.7s66.371,34.207,66.371,76.415" transform="translate(42.771 37.714)" fill="#2f0074"/>
      <path id="Path_193688" data-name="Path 193688" d="M159.692,109.324c0,36.913-24.771,66.837-55.327,66.837s-55.325-29.922-55.325-66.837S73.812,42.489,104.37,42.489s55.323,29.924,55.323,66.835" transform="translate(49.062 42.505)" fill="#ff71a4"/>
      <g id="Group_136654" data-name="Group 136654" transform="translate(98.103 88.207)" opacity="0.43">
        <g id="Group_136653" data-name="Group 136653">
          <g id="Group_136652" data-name="Group 136652" clip-path="url(#clip-path)">
            <path id="Path_193689" data-name="Path 193689" d="M108.045,174.392c.6-.048,1.188-.094,1.776-.164.376-.044.75-.106,1.124-.16.514-.072,1.028-.144,1.536-.234.41-.074.814-.162,1.222-.244.466-.1.932-.2,1.4-.3.428-.1.852-.216,1.276-.33s.862-.232,1.29-.358.878-.274,1.314-.418q.6-.2,1.2-.41.678-.246,1.35-.51.548-.216,1.1-.448c.466-.2.932-.4,1.4-.612.33-.152.658-.31.986-.468.484-.236.966-.474,1.444-.726.284-.15.564-.308.846-.462.51-.282,1.018-.564,1.518-.862.224-.134.444-.276.666-.414.548-.338,1.1-.678,1.632-1.038.128-.084.25-.174.376-.26a57.107,57.107,0,0,0,9.716-8.4,66.722,66.722,0,0,0,11.87-18.127,57.791,57.791,0,0,1-22.91-46.1A52.06,52.06,0,0,1,143.2,60.13q-.978-1.162-2-2.264c-.53-.57-1.072-1.122-1.618-1.668-38.659,29.558-22.458,75.841-12.362,91.708-14.383,4.231-46.109,4.653-59.646-28.341C48.21,77.469,87.023,44.419,87.407,44.095a50.167,50.167,0,0,0-7.922,3.933l-.256.158a54.479,54.479,0,0,0-7.059,5.2l-.244.2q-1.65,1.446-3.2,3.035c-.064.064-.124.13-.188.2a62.422,62.422,0,0,0-5.8,6.905l-.34.474c-.868,1.222-1.708,2.474-2.5,3.769-.016.026-.03.052-.046.076-.772,1.264-1.5,2.569-2.2,3.9-.094.178-.2.352-.284.532q-1.02,1.982-1.926,4.057c-.1.22-.2.446-.284.67-.584,1.372-1.14,2.767-1.646,4.2-.018.054-.04.1-.058.158-.51,1.444-.966,2.923-1.4,4.419-.084.294-.168.59-.248.886-.4,1.478-.77,2.977-1.086,4.5-.044.2-.078.412-.118.618q-.426,2.122-.734,4.293c-.038.262-.08.522-.116.786q-.3,2.325-.478,4.7c-.024.338-.044.676-.064,1.014-.1,1.634-.166,3.281-.166,4.947,0,36.911,24.769,66.837,55.325,66.837.92,0,1.836-.03,2.745-.084.312-.02.622-.056.932-.08" transform="translate(-49.044 -44.095)" fill="#2f0074"/>
          </g>
        </g>
      </g>
      <path id="Path_193690" data-name="Path 193690" d="M234.54,114.193A76.989,76.989,0,1,1,157.55,37.2a76.988,76.988,0,0,1,76.99,76.993" transform="translate(80.595 37.214)" fill="#2f0074"/>
      <path id="Path_193691" data-name="Path 193691" d="M217.619,109.325a66.837,66.837,0,1,1-66.837-66.837,66.837,66.837,0,0,1,66.837,66.837" transform="translate(83.98 42.504)" fill="#ff71a4"/>
      <g id="Group_136657" data-name="Group 136657" transform="translate(167.925 91.273)" opacity="0.43">
        <g id="Group_136656" data-name="Group 136656">
          <g id="Group_136655" data-name="Group 136655" clip-path="url(#clip-path-2)">
            <path id="Path_193692" data-name="Path 193692" d="M156.2,172.787q1.62-.128,3.217-.338c.344-.044.692-.08,1.036-.13,1.36-.2,2.707-.432,4.039-.71.244-.05.484-.114.726-.168q1.662-.366,3.293-.814c.378-.1.756-.2,1.13-.32q1.64-.484,3.247-1.044c.212-.074.428-.14.64-.216,1.262-.458,2.506-.958,3.735-1.488.3-.13.6-.27.894-.4q1.44-.648,2.845-1.362c.322-.162.644-.324.962-.492,1.184-.626,2.352-1.274,3.493-1.968,21.19-27.593,28.078-58.525,18.088-76.6,5.921,14.8-.424,47.377-36.807,59.211-39.764,12.268-71.914-20.3-71.49-54.146.3-23.681,17.151-39.064,27.253-46.173a67.15,67.15,0,0,0-12.45,7.571l-.12.1q-1.884,1.456-3.663,3.037A66.847,66.847,0,0,0,118,164.437c.154.086.3.178.46.264.648.36,1.308.7,1.97,1.038.268.136.534.278.8.412.6.3,1.218.582,1.832.862.34.156.682.314,1.026.464q.864.376,1.744.724c.4.16.79.318,1.188.47.558.212,1.118.414,1.682.61q.66.23,1.326.45.8.264,1.632.51.718.212,1.444.41c.528.144,1.056.284,1.6.416s1.036.244,1.556.36,1.026.228,1.542.33c.558.11,1.122.2,1.686.3.49.084.98.172,1.474.244.616.09,1.236.162,1.856.236.452.054.9.116,1.358.16.71.07,1.428.116,2.146.164.374.024.748.06,1.124.078,1.1.054,2.2.084,3.317.084,1.422,0,2.831-.06,4.231-.146.4-.026.8-.06,1.2-.092" transform="translate(-83.939 -45.63)" fill="#2f0074"/>
          </g>
        </g>
      </g>
      <path id="Path_193693" data-name="Path 193693" d="M146.544,65.964c0,7.359-5.113,13.325-11.422,13.325S123.7,73.325,123.7,65.964s5.113-13.325,11.42-13.325,11.422,5.965,11.422,13.325" transform="translate(123.75 52.659)" fill="#fff"/>
      <path id="Path_193694" data-name="Path 193694" d="M142.736,74.338c0,3.869-2.036,7-4.547,7s-4.549-3.135-4.549-7,2.036-7,4.549-7,4.547,3.135,4.547,7" transform="translate(133.694 67.363)" fill="#fff"/>
      <path id="Path_193695" data-name="Path 193695" d="M132.164,78.122a3.6,3.6,0,1,1-3.6-3.783,3.693,3.693,0,0,1,3.6,3.783" transform="translate(125.018 74.367)" fill="#fff"/>
      <path id="Path_193696" data-name="Path 193696" d="M95.3,68.074s-1.5-36.507,22.5-54.511c4,10,8,13,8,13S102.8,37.818,97.3,68.074" transform="translate(95.316 13.568)" fill="#2f0074"/>
      <path id="Path_193697" data-name="Path 193697" d="M98.3,160.813c-1.666,11.168-1.152,32.022,3.667,33.673s-3.833-12.334-3.667-33.673" transform="translate(97.478 160.875)" fill="#fff"/>
      <path id="Path_193698" data-name="Path 193698" d="M114.577,54.933s9.17-47.347,25.893-48.549,11.452,30.606-25.893,48.549" transform="translate(114.623 6.353)" fill="#6300e3"/>
      <path id="Path_193699" data-name="Path 193699" d="M93.161,42.3S65.276,18.767,74.572,3.954s22.946,15.1,18.59,38.341" transform="translate(72.705 0)" fill="#6300e3"/>
      <path id="Path_193700" data-name="Path 193700" d="M65.981,65.131s-40.956-12.2-34.567-30.5,29.34,11.038,34.567,30.5" transform="translate(30.752 28.869)" fill="#6300e3"/>
      <path id="Path_193701" data-name="Path 193701" d="M80.468,78.91S.588,82.687,0,61.191,57.517,57.124,80.464,78.91" transform="translate(0 51.399)" fill="#6300e3"/>
      <path id="Path_193702" data-name="Path 193702" d="M62.345,86.972s-42.118,28.752-51.994,15.1,30.5-19.752,51.994-15.1" transform="translate(8.827 85.461)" fill="#6300e3"/>
      <path id="Path_193703" data-name="Path 193703" d="M66.123,109.285S30.1,154.6,19.938,142.109s24.4-29.63,46.185-32.824" transform="translate(18.119 109.327)" fill="#6300e3"/>
      <path id="Path_193704" data-name="Path 193704" d="M77.012,124.823S40.123,145.737,48.546,155.9s28.175-22.946,28.465-31.08" transform="translate(47.316 124.871)" fill="#6300e3"/>
      <path id="Path_193705" data-name="Path 193705" d="M90.241,142.683S64.68,175.507,76.3,186.835s18.59-21.786,13.943-44.153" transform="translate(73.301 142.738)" fill="#6300e3"/>
      <path id="Path_193706" data-name="Path 193706" d="M118.972,148.178s1.162,32.242,15.1,31.08c10.166-3.2-1.742-24.689-15.1-31.08" transform="translate(119.02 148.235)" fill="#6300e3"/>
    </g>
  </g>
</svg>
