<svg id="plus_icon" data-name="Group 40550" xmlns="http://www.w3.org/2000/svg" width="66.412" height="66.412" viewBox="0 0 66.412 66.412" stroke="#fff" stroke-width="1.8">
  <g id="Path_108800" data-name="Path 108800" transform="translate(0 0)" fill="currentColor">
    <path d="M33.206,0A33.206,33.206,0,1,1,0,33.206,33.206,33.206,0,0,1,33.206,0Z" stroke="#fff" stroke-width="1.8"/>
    <path d="M 33.2060546875 1.999992370605469 C 28.99238586425781 1.999992370605469 24.90581512451172 2.824806213378906 21.05986404418945 4.451503753662109 C 17.3441047668457 6.023136138916016 14.00659561157227 8.273483276367188 11.14003372192383 11.14003372192383 C 8.273483276367188 14.00659561157227 6.023136138916016 17.3441047668457 4.451503753662109 21.05986404418945 C 2.824806213378906 24.90581512451172 1.999992370605469 28.99238586425781 1.999992370605469 33.2060546875 C 1.999992370605469 37.41972351074219 2.824806213378906 41.50629425048828 4.451503753662109 45.35224533081055 C 6.023136138916016 49.0679931640625 8.273483276367188 52.40550231933594 11.14003372192383 55.27206420898438 C 14.00659561157227 58.13861465454102 17.3441047668457 60.38896560668945 21.05986404418945 61.96059417724609 C 24.90581512451172 63.58729553222656 28.99238586425781 64.41210174560547 33.2060546875 64.41210174560547 C 37.41972351074219 64.41210174560547 41.50629425048828 63.58729553222656 45.35224533081055 61.96059417724609 C 49.0679931640625 60.38896560668945 52.40550231933594 58.13861465454102 55.27206420898438 55.27206420898438 C 58.13861465454102 52.40550231933594 60.38896560668945 49.0679931640625 61.96059417724609 45.35224533081055 C 63.58729553222656 41.50629425048828 64.41210174560547 37.41972351074219 64.41210174560547 33.2060546875 C 64.41210174560547 28.99238586425781 63.58729553222656 24.90581512451172 61.96059417724609 21.05986404418945 C 60.38896560668945 17.3441047668457 58.13861465454102 14.00659561157227 55.27206420898438 11.14003372192383 C 52.40550231933594 8.273483276367188 49.0679931640625 6.023136138916016 45.35224533081055 4.451503753662109 C 41.50629425048828 2.824806213378906 37.41972351074219 1.999992370605469 33.2060546875 1.999992370605469 M 33.2060546875 -7.62939453125e-06 C 51.54524230957031 -7.62939453125e-06 66.41210174560547 14.86685562133789 66.41210174560547 33.2060546875 C 66.41210174560547 51.54524230957031 51.54524230957031 66.41210174560547 33.2060546875 66.41210174560547 C 14.86685562133789 66.41210174560547 -7.62939453125e-06 51.54524230957031 -7.62939453125e-06 33.2060546875 C -7.62939453125e-06 14.86685562133789 14.86685562133789 -7.62939453125e-06 33.2060546875 -7.62939453125e-06 Z" stroke="none" fill="#fff"/>
  </g>
  <g id="_Icons_23_Close" data-name="_Icons / 23 Close" transform="translate(33.217 15.887) rotate(45)">
    <path id="_23_Close" data-name="23 Close" d="M21.354,17.732a2.61,2.61,0,1,1-3.688,3.688L11.1,14.786,4.532,21.419A2.655,2.655,0,1,1,.778,17.665L7.411,11.1.778,4.532A2.655,2.655,0,0,1,4.532.778L11.1,7.411,17.666.778A2.655,2.655,0,1,1,21.42,4.532L14.787,11.1Z" transform="translate(0 0)" fill="#fff"/>
  </g>
</svg>
