<svg width="1366" height="400" viewBox="0 0 1366 400" fill="none" xmlns="http://www.w3.org/2000/svg">
<g clip-path="url(#clip0_331_22451)">
<rect width="1366" height="400" fill="#FFF3F9"/>
<g clip-path="url(#clip1_331_22451)">
<path d="M571.23 204.232C570.918 204.253 570.748 204.309 570.603 204.27C568.322 203.71 567.073 202.306 566.749 200.097C566.488 198.334 566.749 196.63 567.49 195C568.241 193.356 569.345 191.969 570.654 190.754C572.846 188.716 575.31 187.086 578.009 185.802C582.567 183.636 587.393 182.454 592.386 181.919C594.539 181.688 596.71 181.547 598.876 181.513C600.53 181.487 602.193 181.684 603.847 181.8C604.529 181.847 605.212 181.945 605.894 182.035C608.026 182.309 610.064 182.904 612.017 183.803C613.142 184.321 614.178 184.975 615.091 185.814C616.711 187.3 617.645 189.106 617.743 191.34C617.807 192.808 617.683 194.242 617.231 195.637C616.677 197.354 615.585 198.689 614.208 199.798C612.784 200.945 611.181 201.762 609.45 202.349C607.488 203.012 605.48 203.427 603.425 203.654C602.999 203.701 602.581 203.774 602.146 203.902C603.203 204.335 604.291 204.651 605.241 205.276C606.252 205.94 607.13 206.74 607.83 207.729C608.503 208.683 609.002 209.728 609.292 210.866C609.582 212 609.659 213.152 609.539 214.372C609.838 214.158 609.842 213.879 609.91 213.623C611.168 208.961 614.05 205.734 618.489 203.902C618.954 203.71 619.444 203.568 619.934 203.44C620.301 203.346 620.467 203.132 620.548 202.777C620.753 201.895 620.979 201.013 621.196 200.136C621.239 199.96 621.277 199.781 621.333 199.609C621.499 199.091 621.866 198.847 622.399 198.856C623.554 198.882 624.71 198.92 625.865 198.959C626.112 198.967 626.36 198.997 626.637 199.019C626.726 198.792 626.816 198.599 626.88 198.394C628.287 193.891 630.845 190.193 634.58 187.334C636.205 186.093 638.012 185.198 639.935 184.513C642.319 183.661 644.775 183.353 647.286 183.349C649.546 183.349 651.75 183.691 653.908 184.359C657.8 185.566 661.672 185.425 665.539 184.231C668.69 183.259 671.504 181.654 674.135 179.694C674.271 179.591 674.386 179.458 674.578 179.279C674.28 179.047 674.041 178.838 673.777 178.667C672.651 177.917 671.389 177.468 670.114 177.057C668.592 176.565 667.044 176.282 665.437 176.253C661.787 176.184 658.142 176.047 654.496 175.927C653.089 175.88 651.682 175.816 650.271 175.752C650.181 175.752 650.087 175.705 649.998 175.576C650.855 175.521 651.712 175.439 652.573 175.418C657.054 175.298 661.535 175.195 666.021 175.071C666.413 175.063 666.81 174.981 667.198 174.9C669.219 174.476 671.201 173.933 673.056 172.991C673.738 172.644 674.339 172.195 674.983 171.656C674.834 171.437 674.723 171.219 674.565 171.048C673.133 169.511 671.687 167.983 670.25 166.451C669.961 166.139 669.679 165.817 669.402 165.505C669.47 165.432 669.492 165.394 669.521 165.385C669.551 165.377 669.594 165.389 669.619 165.407C669.679 165.445 669.743 165.484 669.794 165.531C671.7 167.311 673.602 169.092 675.508 170.872C675.529 170.894 675.572 170.894 675.674 170.924C675.793 170.8 675.955 170.658 676.083 170.496C677.158 169.135 677.772 167.542 678.262 165.907C678.565 164.902 678.791 163.874 679.029 162.847C679.102 162.535 679.106 162.201 679.119 161.875C679.234 158.357 679.345 154.839 679.447 151.325C679.481 150.092 679.486 148.855 679.52 147.623C679.537 147.083 679.592 146.54 679.746 145.996C679.805 147.058 679.891 148.119 679.925 149.185C679.989 151.214 679.955 153.251 680.083 155.275C680.202 157.159 680.164 159.046 680.228 160.93C680.313 163.459 680.923 165.877 681.916 168.197C682.342 169.195 682.867 170.136 683.685 170.971C684.777 170.076 685.715 169.075 686.721 168.154C687.732 167.23 688.721 166.28 689.731 165.33C689.957 165.591 689.731 165.689 689.642 165.788C688.337 167.196 687.02 168.591 685.719 170.003C685.259 170.504 684.73 170.949 684.334 171.574C684.858 172.169 685.502 172.567 686.163 172.927C687.702 173.766 689.373 174.237 691.053 174.673C692.106 174.947 693.172 175.071 694.264 175.088C697.12 175.135 699.973 175.242 702.83 175.324C704.71 175.379 706.59 175.422 708.466 175.482C708.82 175.495 709.174 175.542 709.532 175.696C709.268 175.722 709.008 175.765 708.743 175.773C705.204 175.902 701.666 176.026 698.127 176.141C697.368 176.167 696.609 176.154 695.85 176.175C694.873 176.201 693.901 176.223 692.925 176.274C691.616 176.342 690.358 176.681 689.117 177.087C687.915 177.481 686.721 177.9 685.651 178.602C685.199 178.898 684.73 179.172 684.334 179.638C684.487 179.839 684.615 180.053 684.781 180.229C686.214 181.765 687.655 183.293 689.092 184.83C689.331 185.082 689.591 185.322 689.731 185.647C689.659 185.695 689.633 185.729 689.604 185.729C689.569 185.729 689.531 185.716 689.501 185.695C689.39 185.605 689.279 185.51 689.173 185.412C687.403 183.751 685.634 182.091 683.865 180.43C683.839 180.404 683.801 180.396 683.707 180.344C683.57 180.456 683.37 180.558 683.263 180.721C682.816 181.423 682.347 182.116 681.984 182.865C681.251 184.372 680.778 185.981 680.475 187.625C680.279 188.686 680.27 189.786 680.223 190.874C680.181 191.854 680.219 192.834 680.185 193.814C680.078 196.964 679.959 200.119 679.844 203.269C679.818 203.949 679.784 204.63 679.601 205.315C679.558 204.305 679.507 203.29 679.477 202.28C679.409 199.631 679.362 196.981 679.29 194.336C679.243 192.633 679.17 190.929 679.11 189.226C679.102 189.046 679.102 188.862 679.064 188.686C678.641 186.812 678.245 184.924 677.443 183.165C677.115 182.442 676.701 181.757 676.301 181.068C676.16 180.824 675.943 180.627 675.717 180.357C673.576 182.026 671.739 183.97 669.743 185.772C669.573 185.421 669.828 185.318 669.943 185.168C670.071 184.997 670.233 184.847 670.383 184.689C670.506 184.556 670.634 184.428 670.754 184.291C670.886 184.137 671.001 183.97 671.137 183.79C670.877 183.661 670.732 183.816 670.587 183.884C667.372 185.382 663.983 185.947 660.461 185.823C658.431 185.75 656.432 185.472 654.462 184.967C650.927 184.064 647.363 183.974 643.837 184.898C638.413 186.324 633.791 189.102 630.201 193.484C628.931 195.034 627.942 196.763 627.102 198.582C627.046 198.706 627.042 198.852 627.008 199.01C627.468 199.31 627.971 199.387 628.453 199.519C629.677 199.862 630.849 200.324 631.975 200.919C632.167 201.022 632.359 201.12 632.542 201.24C632.951 201.505 633.118 201.882 632.973 202.361C632.836 202.811 632.67 203.256 632.546 203.71C632.363 204.369 632.052 204.994 631.962 205.751C633.139 206.749 634.256 207.823 635.13 209.124C636.026 210.464 636.674 211.906 637.104 213.46C637.522 214.967 637.599 216.516 637.629 218.052C637.961 218.112 638.072 217.89 638.213 217.744C639.449 216.469 640.609 215.125 641.658 213.687C643.517 211.14 645.355 208.576 647.205 206.021C647.418 205.73 647.627 205.43 647.874 205.165C648.501 204.489 649.299 204.339 650.164 204.502C650.812 204.621 651.187 205.268 650.987 205.905C650.91 206.145 650.795 206.376 650.671 206.599C649.806 208.148 648.928 209.693 648.066 211.247C646.855 213.434 645.649 215.626 644.451 217.821C644.267 218.16 644.054 218.506 644.016 218.913C644.272 219.016 644.365 218.831 644.468 218.72C647.12 215.942 649.9 213.293 652.731 210.699C654.47 209.111 656.244 207.566 658.154 206.184C659.212 205.417 660.286 204.69 661.535 204.253C662.35 203.971 663.1 204.074 663.812 204.536C663.961 204.634 664.102 204.754 664.217 204.895C664.537 205.289 664.661 205.713 664.401 206.201C664.055 206.838 663.736 207.489 663.39 208.127C662.316 210.1 661.228 212.069 660.163 214.046C659.928 214.483 659.642 214.907 659.553 215.433C659.902 215.536 660.039 215.266 660.209 215.121C662.175 213.464 664.128 211.791 666.093 210.134C667.897 208.615 669.824 207.267 671.883 206.115C672.706 205.653 673.576 205.293 674.493 205.067C675.337 204.861 676.147 204.93 676.872 205.452C677.047 205.576 677.209 205.726 677.341 205.897C677.648 206.282 677.669 206.577 677.371 206.984C676.595 208.033 675.793 209.064 675.009 210.109C673.725 211.821 672.425 213.516 671.184 215.258C670.366 216.409 669.662 217.646 669.172 218.977C668.933 219.619 668.75 220.287 668.579 220.95C668.507 221.224 668.498 221.528 668.528 221.815C668.6 222.568 668.984 223.095 669.722 223.338C670.395 223.561 671.082 223.587 671.751 223.381C672.335 223.202 672.915 222.979 673.453 222.692C675.486 221.622 677.222 220.141 678.889 218.57C679.098 218.374 679.302 218.164 679.507 217.958C680.697 216.781 681.822 215.561 682.449 213.969C685.318 208.743 688.636 203.821 692.473 199.254C693.501 198.03 694.618 196.891 695.858 195.89C696.732 195.184 697.662 194.559 698.762 194.238C699.619 193.985 700.408 194.101 701.15 194.563C701.333 194.674 701.504 194.82 701.644 194.978C702.045 195.449 702.028 195.851 701.602 196.314C700.028 198.017 698.438 199.703 696.877 201.42C694.242 204.313 691.671 207.262 689.262 210.353C687.791 212.24 686.419 214.2 685.237 216.285C684.521 217.547 683.873 218.844 683.553 220.278C683.349 221.194 683.408 222.072 683.83 222.928C684.193 223.66 684.722 224.019 685.562 223.946C686.61 223.856 687.514 223.416 688.35 222.838C690.367 221.442 692.013 219.662 693.415 217.663C694.225 216.507 694.976 215.309 695.526 213.991C695.799 213.336 695.91 212.724 695.735 211.996C695.381 210.541 695.325 209.047 695.637 207.57C695.735 207.112 695.867 206.65 696.072 206.235C696.737 204.904 697.99 204.754 699.12 205.024C699.414 205.092 699.636 205.31 699.734 205.597C699.836 205.901 699.939 206.222 699.956 206.543C699.998 207.412 699.994 208.285 699.777 209.137C699.508 210.19 699.265 211.251 698.975 212.3C698.8 212.921 698.826 213.503 699.031 214.11C699.325 214.975 699.692 215.801 700.25 216.524C701.192 217.749 702.471 218.005 703.793 217.209C704.19 216.97 704.586 216.683 704.893 216.336C707.264 213.631 709.937 211.238 712.542 208.777C715.305 206.167 718.077 203.56 720.852 200.958C721.326 200.512 721.837 200.106 722.332 199.682C722.899 199.198 723.534 199.083 724.259 199.275C725.308 199.549 725.781 200.418 725.385 201.445C725.282 201.715 725.137 201.972 724.975 202.212C724.732 202.571 724.472 202.922 724.191 203.252C723.423 204.146 722.89 205.161 722.515 206.274C721.944 207.96 721.569 209.698 721.219 211.44C720.643 214.32 720.068 217.201 719.484 220.081C719.386 220.578 719.258 221.066 719.126 221.631C719.334 221.648 719.501 221.691 719.663 221.674C722.264 221.37 724.498 220.261 726.459 218.562C726.787 218.279 727.12 217.997 727.44 217.702C728.629 216.619 729.563 215.356 730.352 213.944C733.042 209.133 735.933 204.437 739.071 199.909C740.269 198.18 741.514 196.481 742.96 194.953C743.557 194.323 744.213 193.754 744.874 193.189C745.143 192.958 745.475 192.782 745.804 192.641C746.217 192.466 746.661 192.393 747.01 192.782C747.36 193.176 747.603 193.643 747.398 194.174C747.215 194.644 746.985 195.107 746.703 195.522C745.625 197.114 744.559 198.71 743.416 200.256C741.216 203.226 738.943 206.141 736.748 209.12C735.694 210.549 734.752 212.056 733.771 213.537C733.499 213.948 733.26 214.389 733.106 214.86C733.443 215.026 733.58 214.808 733.733 214.697C735.562 213.396 737.379 212.077 739.212 210.781C741.519 209.15 743.813 207.506 746.307 206.167C747.036 205.773 747.799 205.435 748.567 205.118C749.168 204.87 749.807 204.724 750.472 204.771C751.769 204.87 752.43 206.068 751.777 207.202C751.398 207.857 750.933 208.465 750.485 209.081C748.831 211.371 747.155 213.648 745.514 215.951C744.755 217.017 744.115 218.16 743.621 219.371C743.348 220.038 743.139 220.74 742.985 221.447C742.896 221.862 742.909 222.32 742.977 222.739C743.088 223.42 743.557 223.745 744.226 223.625C744.682 223.544 745.134 223.39 745.569 223.21C746.546 222.803 747.398 222.179 748.213 221.515C749.108 220.783 749.957 219.987 750.822 219.217C751.095 218.973 751.312 218.703 751.449 218.348C752.302 216.152 753.649 214.269 755.158 212.501C756.646 210.759 758.279 209.171 760.104 207.789C761.439 206.779 762.859 205.923 764.458 205.4C765.43 205.084 766.423 204.912 767.446 204.994C768.346 205.067 769.122 205.4 769.74 206.081C770.201 206.586 770.431 207.177 770.431 207.861C770.431 208.64 770.218 209.36 769.881 210.057C769.25 211.363 768.282 212.386 767.178 213.276C764.905 215.108 762.39 216.529 759.661 217.543C758.16 218.104 756.604 218.412 754.932 218.245C754.787 218.498 754.625 218.733 754.514 218.99C754.007 220.145 753.837 221.357 753.964 222.607C754.139 224.28 755.047 225.153 756.702 225.273C757.887 225.363 758.996 225.063 760.066 224.588C761.562 223.921 762.923 223.026 764.202 222.012C766.47 220.21 768.67 218.326 770.614 216.161C771.177 215.531 771.65 214.864 772.034 214.119C774.204 209.89 776.605 205.794 779.227 201.826C780.745 199.528 782.331 197.272 784.224 195.261C784.898 194.546 785.614 193.887 786.458 193.377C787.865 192.53 789.196 192.924 790.001 194.499C789.822 194.76 789.631 195.055 789.417 195.342C786.927 198.732 784.42 202.105 781.952 205.507C779.798 208.469 777.709 211.474 775.765 214.581C774.882 215.998 774.017 217.423 773.33 218.947C772.895 219.914 772.601 220.916 772.516 221.977C772.473 222.491 772.52 222.992 772.721 223.471C772.947 224.015 773.335 224.344 773.932 224.434C774.814 224.571 775.663 224.434 776.49 224.139C777.863 223.651 779.112 222.923 780.302 222.089C782.207 220.753 783.883 219.161 785.499 217.492C786.88 216.071 787.887 214.431 788.808 212.685C791.464 207.643 794.38 202.755 797.8 198.193C798.665 197.037 799.65 195.963 800.61 194.88C801.164 194.251 801.833 193.75 802.554 193.322C803.901 192.53 805.232 192.954 806.003 194.49C805.786 194.807 805.556 195.171 805.304 195.517C802.042 199.999 798.751 204.467 795.514 208.97C793.715 211.47 792.023 214.046 790.492 216.726C790.044 217.509 789.652 218.331 789.26 219.148C788.863 219.974 788.671 220.86 788.539 221.759C788.458 222.307 788.496 222.842 788.697 223.364C788.936 223.998 789.358 224.37 790.048 224.451C790.82 224.541 791.562 224.43 792.291 224.203C793.404 223.856 794.423 223.304 795.404 222.684C797.749 221.207 799.782 219.358 801.646 217.316C802.209 216.7 802.75 216.067 803.334 215.472C803.556 215.245 803.854 215.095 804.131 214.937C804.2 214.898 804.375 214.928 804.421 214.992C804.502 215.091 804.592 215.275 804.554 215.365C804.426 215.66 804.268 215.951 804.076 216.208C802.852 217.834 801.475 219.324 800.021 220.74C799.113 221.622 798.171 222.474 797.199 223.287C796.227 224.1 795.165 224.807 794.005 225.324C791.912 226.262 789.814 226.288 787.725 225.26C786.471 224.644 785.802 223.642 785.708 222.264C785.67 221.725 785.704 221.177 785.759 220.638C785.819 220.064 785.942 219.499 786.036 218.917C785.652 218.9 785.52 219.191 785.337 219.384C784.092 220.702 782.792 221.96 781.393 223.116C780.498 223.861 779.53 224.486 778.519 225.055C777.526 225.62 776.443 225.937 775.321 226.009C773.851 226.103 772.448 225.77 771.19 224.956C770.457 224.481 770.009 223.801 769.8 222.953C769.612 222.204 769.595 221.447 769.723 220.685C769.817 220.124 769.907 219.559 770.026 218.831C769.706 219.084 769.506 219.221 769.327 219.384C767.306 221.263 765.157 222.975 762.816 224.443C761.678 225.153 760.492 225.774 759.222 226.21C757.729 226.724 756.207 226.968 754.642 226.519C753.5 226.189 752.536 225.577 751.756 224.674C751.172 223.993 750.848 223.197 750.779 222.298C750.75 221.905 750.737 221.507 750.711 221.006C750.477 221.143 750.293 221.224 750.144 221.344C748.933 222.32 747.744 223.326 746.516 224.28C746.034 224.657 745.497 224.974 744.947 225.243C743.011 226.198 740.807 225.243 740.154 223.172C739.826 222.119 739.779 221.031 739.958 219.94C740.21 218.416 740.781 217.004 741.51 215.664C742.41 214.008 743.395 212.398 744.35 210.776C744.738 210.121 745.147 209.479 745.539 208.829C745.625 208.688 745.68 208.529 745.834 208.195C744.994 208.546 744.38 208.906 743.77 209.265C740.133 211.414 736.888 214.055 733.925 217.072C731.938 219.097 730.211 221.327 728.629 223.677C728.203 224.306 727.755 224.926 727.265 225.509C726.549 226.352 726.276 226.335 725.15 226.014C724.668 225.877 724.391 225.414 724.489 224.901C724.579 224.443 724.732 223.989 724.941 223.574C725.38 222.701 725.875 221.853 726.34 220.993C726.455 220.783 726.54 220.556 726.63 220.351C726.417 220.171 726.306 220.317 726.208 220.389C724.434 221.695 722.468 222.589 720.341 223.107C719.198 223.386 718.17 223.861 717.22 224.558C716.486 225.098 715.68 225.504 714.781 225.71C713.284 226.048 711.783 226.202 710.27 225.851C709.012 225.556 708.04 224.841 707.328 223.771C706.458 222.461 705.874 221.019 705.413 219.521C705.311 219.187 705.192 218.861 705.06 218.463C704.637 218.772 704.296 219.037 703.942 219.277C703.695 219.444 703.427 219.555 703.158 219.289C702.949 219.084 702.689 219.131 702.442 219.161C700.949 219.328 699.768 218.724 698.779 217.659C698.157 216.991 697.688 216.216 697.274 215.407C697.163 215.193 697.018 215.001 696.831 214.697C696.626 215.082 696.477 215.36 696.332 215.638C694.567 219.045 692.196 221.926 689.032 224.117C687.894 224.905 686.67 225.534 685.289 225.765C684.653 225.872 683.997 225.919 683.353 225.915C682.052 225.902 681.161 225.2 680.688 224.032C680.432 223.403 680.287 222.709 680.215 222.033C680.134 221.318 680.198 220.586 680.198 219.863C680.198 219.653 680.198 219.448 680.198 219.259C679.882 219.131 679.763 219.362 679.618 219.499C678.155 220.907 676.612 222.226 674.906 223.33C674.182 223.801 673.418 224.229 672.634 224.593C671.304 225.205 669.909 225.247 668.502 224.862C667.108 224.481 666.285 223.552 665.987 222.153C665.803 221.288 665.803 220.415 666.021 219.559C666.208 218.823 666.434 218.091 666.716 217.389C667.927 214.346 669.47 211.478 671.368 208.803C671.513 208.598 671.662 208.388 671.798 208.178C671.837 208.118 671.849 208.045 671.875 207.968C671.589 207.78 671.402 208.028 671.206 208.14C669.636 209.051 668.174 210.113 666.767 211.26C663.919 213.58 661.309 216.131 659.126 219.097C657.809 220.886 656.683 222.778 655.852 224.845C655.826 224.914 655.779 224.974 655.762 225.042C655.553 225.872 654.726 226.223 653.852 225.928C653.315 225.748 652.982 225.38 652.906 224.845C652.85 224.46 652.876 224.049 652.953 223.664C653.208 222.341 653.635 221.07 654.104 219.812C654.952 217.53 656.035 215.356 657.08 213.165C657.86 211.53 658.67 209.907 659.463 208.277C659.57 208.054 659.655 207.823 659.745 207.617C659.561 207.412 659.438 207.562 659.34 207.626C656.632 209.514 654.091 211.594 651.771 213.956C649.102 216.679 646.706 219.628 644.331 222.607C643.653 223.458 642.941 224.28 642.242 225.11C642.127 225.247 641.995 225.376 641.875 225.513C641.334 226.129 640.656 226.014 640.144 225.564C639.33 224.841 638.912 223.951 639.249 222.842C639.449 222.183 639.667 221.528 639.927 220.89C640.579 219.315 641.27 217.757 641.931 216.186C642.008 216.002 642.182 215.818 642.016 215.519C641.722 215.805 641.436 216.075 641.163 216.358C640.004 217.552 638.861 218.767 637.684 219.944C637.335 220.291 637.126 220.663 636.981 221.13C635.684 225.273 633.075 228.286 629.114 230.045C623.494 232.545 616.95 231.026 612.92 226.36C610.618 223.698 609.501 220.595 609.467 217.085C609.467 216.76 609.467 216.435 609.458 216.109C609.458 216.075 609.428 216.045 609.416 216.011C609.211 216.011 609.232 216.186 609.194 216.31C608.401 218.849 606.862 220.877 604.9 222.607C602.952 224.323 600.718 225.581 598.347 226.6C596.143 227.542 593.862 228.222 591.499 228.616C589.64 228.924 587.773 229.052 585.888 228.984C584.11 228.92 582.358 228.736 580.644 228.239C578.708 227.679 576.943 226.801 575.417 225.47C574.594 224.751 573.882 223.933 573.285 223.022C573.067 222.692 572.854 222.363 572.598 221.969C572.296 222.187 572.031 222.363 571.788 222.559C570.266 223.788 568.723 224.991 567.034 225.984C566.318 226.403 565.572 226.775 564.813 227.109C564.357 227.31 563.849 227.426 563.355 227.512C562.28 227.696 561.44 227.276 560.856 226.365C560.315 225.521 560.059 224.584 560.008 223.587C559.948 222.414 560.127 221.271 560.408 220.141C560.975 217.868 561.965 215.775 563.146 213.768C563.917 212.454 564.766 211.187 565.717 209.997C566.356 209.201 567.077 208.486 568.053 208.11C568.322 208.007 568.603 207.921 568.885 207.87C569.951 207.669 570.803 208.02 571.439 208.902C571.869 209.496 572.168 210.151 572.385 210.849C572.939 212.612 573.494 214.38 574.052 216.144C574.15 216.447 574.265 216.747 574.402 217.137C574.641 216.927 574.85 216.786 574.999 216.602C576.308 214.958 577.642 213.336 578.904 211.654C582.341 207.074 585.658 202.4 589.265 197.953C591.435 195.278 593.61 192.607 596.074 190.197C596.85 189.44 597.652 188.695 598.526 188.057C599.873 187.068 601.421 186.803 603.063 187.094C603.613 187.193 604.082 187.458 604.491 187.83C605.122 188.404 605.16 189.551 604.15 189.975C604.018 190.03 603.881 190.103 603.745 190.12C602.986 190.214 602.415 190.66 601.843 191.105C600.07 192.487 598.411 193.998 596.804 195.569C594.68 197.645 592.591 199.755 590.502 201.865C589.427 202.952 588.57 204.215 587.671 205.443C584.818 209.338 581.791 213.083 578.448 216.567C577.647 217.402 576.785 218.185 575.958 218.99C575.754 219.187 575.562 219.396 575.344 219.623C575.583 220.193 575.877 220.685 576.184 221.173C577.531 223.338 579.237 225.123 581.544 226.27C582.921 226.955 584.375 227.315 585.905 227.469C589.069 227.79 592.007 227.024 594.817 225.658C597.716 224.25 600.257 222.358 602.317 219.854C603.314 218.643 604.15 217.329 604.67 215.84C605.438 213.644 605.399 211.482 604.214 209.437C603.421 208.063 602.299 206.984 600.961 206.145C599.878 205.469 598.735 204.985 597.426 204.87C596.168 204.758 594.919 204.523 593.67 204.33C593.277 204.27 592.889 204.176 592.51 204.056C592.271 203.984 592.041 203.855 591.841 203.71C591.465 203.44 591.406 203.029 591.687 202.665C592.105 202.122 592.685 201.835 593.346 201.724C593.887 201.634 594.429 201.672 594.953 201.848C595.401 201.993 595.857 202.122 596.288 202.302C596.966 202.588 597.678 202.704 598.402 202.734C601.425 202.849 604.401 202.571 607.258 201.505C609.292 200.748 611.1 199.661 612.4 197.85C613.108 196.866 613.598 195.783 613.875 194.606C614.263 192.958 614.336 191.306 613.897 189.649C613.551 188.34 612.831 187.287 611.812 186.418C610.665 185.442 609.347 184.779 607.923 184.316C605.565 183.55 603.127 183.259 600.666 183.169C597.767 183.067 594.885 183.289 592.015 183.661C590.907 183.807 589.811 184.06 588.72 184.295C583.884 185.335 579.395 187.158 575.502 190.296C573.634 191.802 571.92 193.459 570.518 195.423C570.121 195.98 569.767 196.579 569.447 197.187C568.266 199.438 568.808 202.246 570.761 203.778C570.893 203.881 570.995 204.022 571.221 204.258L571.23 204.232ZM635.842 216.961C635.77 209.937 630.005 204.549 623.153 204.711C616.451 204.87 611.032 210.554 611.211 217.372C611.385 224.169 616.856 229.54 623.627 229.468C630.764 229.395 635.932 223.54 635.842 216.961ZM719.646 204.429C719.245 204.459 719.032 204.728 718.793 204.925C715.659 207.506 712.785 210.357 710.044 213.34C709.485 213.952 708.965 214.616 708.517 215.309C707.43 216.991 707.626 218.72 708.637 220.325C709.75 222.093 711.523 222.658 713.514 222.521C714.977 222.423 716 221.631 716.533 220.24C716.648 219.936 716.793 219.64 716.883 219.328C717.318 217.873 717.812 216.43 718.153 214.949C718.917 211.628 719.283 208.238 719.676 204.857C719.693 204.724 719.659 204.587 719.65 204.429H719.646ZM571.737 219.953C571.012 217.702 570.351 215.403 569.324 213.242C569.059 212.689 568.735 212.163 568.403 211.645C568.271 211.44 568.066 211.268 567.866 211.119C567.606 210.93 567.294 210.977 567.085 211.213C566.966 211.35 566.864 211.495 566.766 211.649C566.186 212.57 565.589 213.473 565.043 214.414C564.229 215.827 563.508 217.286 562.979 218.836C562.361 220.651 562.097 222.487 562.587 224.387C562.992 225.962 563.632 226.288 565.094 225.534C565.7 225.222 566.28 224.841 566.83 224.43C568.518 223.176 570.053 221.746 571.515 220.24C571.588 220.163 571.643 220.068 571.733 219.944L571.737 219.953ZM756.028 216.649C756.685 216.794 757.243 216.76 757.806 216.649C759.205 216.375 760.484 215.805 761.724 215.125C764.065 213.841 766.069 212.159 767.728 210.061C768.137 209.548 768.457 208.987 768.615 208.341C768.845 207.408 768.529 206.988 767.553 206.928C766.888 206.89 766.253 207.04 765.673 207.344C764.939 207.729 764.193 208.11 763.537 208.606C762.445 209.432 761.383 210.31 760.381 211.243C758.846 212.672 757.439 214.226 756.327 216.024C756.22 216.195 756.152 216.392 756.028 216.653V216.649ZM622.382 202.931C623.311 202.965 624.215 202.935 625.098 203.051C626.023 203.17 626.944 203.38 627.835 203.65C628.683 203.907 629.494 204.296 630.351 204.638C630.687 203.894 630.952 203.2 631.024 202.473C629.417 201.257 624.56 200.166 622.88 200.709C622.629 201.394 622.424 202.113 622.377 202.931H622.382Z" fill="#B7A6AE"/>
<path d="M586.09 242.197H587.519C587.74 242.522 587.966 242.843 588.179 243.177C589.629 245.432 591.079 247.688 592.533 249.939C592.703 250.2 592.806 250.539 593.159 250.646C593.424 250.363 593.317 250.021 593.317 249.708C593.317 247.641 593.304 245.574 593.304 243.502C593.304 243.108 593.33 242.714 593.343 242.359C593.791 242.111 594.166 242.137 594.549 242.214C594.596 242.364 594.656 242.466 594.656 242.569C594.648 246.014 594.63 249.46 594.609 252.91C594.609 253.013 594.549 253.115 594.511 253.239C594.051 253.372 593.59 253.325 593.074 253.274C591.254 250.462 589.429 247.637 587.617 244.833C587.212 244.906 587.344 245.184 587.344 245.36C587.331 247.572 587.335 249.785 587.331 251.998C587.331 252.392 587.31 252.786 587.297 253.184C586.905 253.376 586.551 253.321 586.146 253.257C586.112 253.064 586.039 252.858 586.039 252.653C586.039 249.426 586.039 246.194 586.043 242.967C586.043 242.753 586.073 242.543 586.094 242.197H586.09Z" fill="#B7A6AE"/>
<path d="M703.919 250.641C703.928 250.282 703.949 249.927 703.949 249.567C703.949 247.5 703.937 245.432 703.941 243.369C703.941 243.014 703.864 242.642 704.12 242.231C704.414 242.209 704.759 242.184 705.173 242.154C705.224 242.449 705.301 242.689 705.297 242.924C705.288 244.05 705.25 245.171 705.245 246.297C705.233 248.253 705.233 250.213 705.224 252.169C705.224 252.52 705.194 252.876 705.177 253.274H703.74C702.794 251.938 701.92 250.483 700.995 249.066C700.065 247.645 699.148 246.22 698.236 244.803C697.882 244.923 697.989 245.18 697.989 245.368C697.98 247.615 697.984 249.862 697.98 252.109C697.98 252.465 697.959 252.824 697.942 253.252C697.549 253.278 697.204 253.304 696.812 253.329C696.769 253.072 696.701 252.871 696.701 252.666C696.697 249.439 696.701 246.211 696.705 242.988C696.705 242.744 696.756 242.496 696.782 242.252C697.251 242.102 697.677 242.137 698.189 242.222C700.048 244.996 701.809 247.893 703.694 250.71C703.77 250.688 703.847 250.667 703.924 250.646L703.919 250.641Z" fill="#B7A6AE"/>
<path d="M772.262 253.094C771.9 253.226 771.674 253.325 771.44 253.389C770.868 253.535 770.77 253.513 770.45 253.008C769.79 251.968 769.154 250.911 768.506 249.862C768.391 249.678 768.276 249.494 768.152 249.293C767.551 249.113 766.941 249.194 766.272 249.246C766.234 249.49 766.161 249.729 766.161 249.969C766.161 250.77 766.199 251.566 766.208 252.366C766.208 252.649 766.174 252.927 766.153 253.256H764.882C764.848 253.081 764.788 252.91 764.788 252.743C764.78 249.511 764.775 246.28 764.775 243.052C764.775 242.804 764.814 242.56 764.835 242.316C764.972 242.256 765.065 242.175 765.159 242.171C766.28 242.154 767.402 242.145 768.519 242.145C768.736 242.145 768.954 242.179 769.163 242.222C770.629 242.5 771.499 243.506 771.593 245.004C771.683 246.464 771.154 247.624 769.956 248.471C769.811 248.574 769.662 248.677 769.457 248.822C769.564 249.049 769.636 249.284 769.768 249.477C770.416 250.436 771.086 251.386 771.742 252.34C771.883 252.546 772.024 252.756 772.25 253.094H772.262ZM766.293 247.928C766.924 247.949 767.5 248.022 768.067 247.983C769.022 247.919 769.849 247.183 770.028 246.233C770.105 245.813 770.105 245.368 770.062 244.94C769.99 244.225 769.568 243.746 768.894 243.519C768.058 243.241 767.214 243.249 766.383 243.442C766.191 244.354 766.136 246.81 766.293 247.928Z" fill="#B7A6AE"/>
<path d="M651.265 242.265C651.709 242.115 652.088 242.094 652.463 242.257C652.693 242.599 652.608 242.976 652.604 243.327C652.595 245.069 652.566 246.811 652.561 248.553C652.561 249.058 652.574 249.571 652.651 250.072C652.83 251.224 653.465 251.857 654.604 252.122C655.299 252.285 655.972 252.208 656.629 251.955C657.443 251.643 657.904 251.014 658.04 250.166C658.108 249.738 658.113 249.297 658.113 248.865C658.108 247.016 658.083 245.163 658.074 243.314C658.074 242.959 658.006 242.59 658.198 242.252C658.599 242.102 658.982 242.107 659.422 242.265C659.456 242.496 659.52 242.74 659.515 242.984C659.503 245.09 659.498 247.196 659.452 249.297C659.439 249.871 659.341 250.457 659.17 251.005C658.85 252.032 658.138 252.739 657.136 253.124C655.942 253.582 654.732 253.603 653.525 253.192C652.416 252.816 651.7 252.028 651.389 250.911C651.252 250.427 651.184 249.909 651.18 249.409C651.159 247.269 651.167 245.124 651.171 242.984C651.171 242.74 651.235 242.496 651.265 242.265Z" fill="#B7A6AE"/>
<path d="M744.921 243.476C744.904 243.891 744.878 244.212 744.874 244.537C744.87 245.295 744.874 246.053 744.874 246.862C745.122 246.913 745.322 246.986 745.527 246.99C746.32 247.003 747.117 246.99 747.91 246.999C748.187 246.999 748.469 247.041 748.814 247.067C748.788 247.452 748.767 247.769 748.746 248.086C748.063 248.368 747.411 248.18 746.772 248.21C746.166 248.24 745.556 248.18 744.981 248.291C744.802 249.211 744.789 250.585 744.938 251.989C745.151 252.032 745.382 252.118 745.616 252.118C746.409 252.126 747.206 252.105 748 252.101C748.537 252.101 749.074 252.101 749.624 252.101C749.905 252.499 749.786 252.858 749.65 253.213C748.776 253.346 744.61 253.363 743.57 253.243C743.544 253.218 743.518 253.192 743.497 253.162C743.476 253.132 743.446 253.102 743.446 253.072C743.433 249.592 743.42 246.108 743.416 242.629C743.416 242.526 743.467 242.423 743.514 242.248C744.162 242.064 744.849 242.166 745.518 242.149C746.239 242.132 746.963 242.128 747.688 242.149C748.362 242.171 749.053 242.038 749.705 242.269C749.829 242.676 749.799 243.018 749.522 243.39C748.051 243.437 746.537 243.219 744.917 243.476H744.921Z" fill="#B7A6AE"/>
<path d="M681.645 242.265C681.615 242.629 681.59 242.941 681.555 243.322C681.231 243.352 680.954 243.399 680.677 243.399C679.701 243.399 678.724 243.373 677.752 243.373C677.471 243.373 677.189 243.429 676.848 243.463C676.665 244.606 676.754 245.71 676.75 246.862C677.015 246.913 677.219 246.981 677.424 246.986C678.144 246.999 678.869 246.986 679.594 246.994C679.914 246.994 680.234 247.016 680.558 247.029C680.762 247.427 680.694 247.76 680.507 248.176C679.325 248.33 678.093 248.081 676.857 248.291C676.597 248.886 676.733 249.507 676.72 250.11C676.703 250.722 676.742 251.339 676.754 251.989C678.353 252.319 679.905 251.989 681.445 252.083C681.811 252.439 681.645 252.811 681.56 253.171C680.737 253.342 677.032 253.389 675.42 253.248C675.386 253.059 675.305 252.854 675.318 252.657C675.497 249.571 675.339 246.489 675.309 243.408C675.309 243.018 675.198 242.607 675.454 242.252C676.311 242.106 680.536 242.098 681.658 242.26L681.645 242.265Z" fill="#B7A6AE"/>
<path d="M792.804 242.608C792.804 243.455 792.804 243.455 792.48 243.994C792.203 243.862 791.917 243.733 791.632 243.592C791.065 243.31 790.468 243.211 789.841 243.292C789.231 243.369 788.749 243.665 788.425 244.191C788.046 244.803 788.105 245.48 788.621 245.98C788.903 246.254 789.24 246.477 789.585 246.674C790.118 246.978 790.685 247.226 791.222 247.525C791.568 247.718 791.913 247.928 792.211 248.185C793.516 249.302 793.584 251.078 792.395 252.315C792.037 252.687 791.619 252.961 791.141 253.154C789.713 253.727 787.965 253.531 786.566 252.619C786.524 252.169 786.507 251.707 786.754 251.249C787.095 251.202 787.278 251.472 787.504 251.609C788.268 252.08 789.073 252.345 789.977 252.246C790.625 252.178 791.15 251.887 791.516 251.348C791.968 250.676 791.866 249.798 791.235 249.293C790.873 249.002 790.451 248.775 790.045 248.544C789.602 248.296 789.142 248.09 788.694 247.851C788.438 247.714 788.191 247.56 787.956 247.393C786.084 246.049 786.656 243.78 787.935 242.843C788.6 242.359 789.342 242.103 790.152 242.064C791.065 242.021 791.943 242.192 792.804 242.612V242.608Z" fill="#B7A6AE"/>
<path d="M728.428 242.911C728.415 243.373 728.389 243.759 728.138 244.174C727.891 244.058 727.665 243.973 727.46 243.853C726.688 243.391 725.853 243.219 724.961 243.305C723.874 243.412 723.064 243.951 722.561 244.931C722.429 245.188 722.326 245.462 722.258 245.745C721.9 247.144 721.896 248.552 722.318 249.931C722.864 251.711 724.424 252.576 726.223 252.109C726.739 251.977 727.225 251.711 727.729 251.51C727.916 251.433 728.104 251.365 728.321 251.279C728.355 251.454 728.398 251.557 728.394 251.66C728.377 251.947 728.343 252.233 728.321 252.486C726.522 253.83 724.092 253.603 722.851 252.901C722.275 252.572 721.802 252.135 721.44 251.579C720.953 250.834 720.655 250.016 720.6 249.139C720.544 248.309 720.51 247.47 720.591 246.644C720.907 243.314 723.397 241.503 726.68 242.175C727.285 242.299 727.861 242.492 728.432 242.911H728.428Z" fill="#B7A6AE"/>
<path d="M695.97 153.379C696.098 153.82 696.191 154.089 696.255 154.363C696.319 154.646 696.341 154.941 696.413 155.219C696.797 156.7 697.658 157.732 699.176 158.138C699.764 158.297 700.357 158.455 701.095 158.656C700.813 158.785 700.668 158.875 700.51 158.917C700.024 159.054 699.526 159.157 699.044 159.303C697.449 159.782 696.613 160.908 696.341 162.513C696.264 162.966 696.294 163.459 695.901 163.891C695.803 163.66 695.705 163.476 695.646 163.279C695.501 162.791 695.381 162.299 695.241 161.811C694.87 160.518 694.03 159.692 692.759 159.307C692.38 159.191 691.992 159.101 691.612 158.99C691.373 158.922 691.143 158.845 690.904 158.768C690.947 158.472 691.164 158.519 691.305 158.476C691.791 158.335 692.29 158.237 692.768 158.083C693.944 157.71 694.771 156.944 695.181 155.767C695.373 155.219 695.492 154.65 695.663 154.098C695.722 153.905 695.82 153.725 695.97 153.375V153.379Z" fill="#B7A6AE"/>
<path d="M658.611 157.843C658.815 158.592 658.956 159.114 659.101 159.637C659.515 161.156 660.423 162.175 661.996 162.534C662.555 162.663 663.109 162.825 663.812 163.009C663.433 163.151 663.186 163.253 662.93 163.33C662.448 163.48 661.962 163.613 661.48 163.758C660.359 164.101 659.651 164.88 659.259 165.958C659.075 166.468 658.956 166.998 658.807 167.521C658.751 167.713 658.692 167.906 658.572 168.304C658.436 167.953 658.363 167.799 658.321 167.64C658.15 167.05 658.031 166.442 657.818 165.868C657.438 164.828 656.735 164.088 655.652 163.758C655.204 163.621 654.756 163.489 654.309 163.352C654.04 163.27 653.771 163.181 653.307 163.031C654.027 162.83 654.552 162.658 655.093 162.538C656.713 162.179 657.626 161.122 658.065 159.572C658.21 159.063 658.257 158.519 658.619 157.839L658.611 157.843Z" fill="#B7A6AE"/>
<path d="M612.288 248.42C612.131 250.102 612.331 251.656 612.229 253.218C611.751 253.355 611.342 253.347 610.92 253.244C610.881 253.115 610.822 253.013 610.822 252.914C610.817 249.473 610.817 246.027 610.822 242.586C610.822 242.488 610.886 242.389 610.924 242.282C611.03 242.244 611.129 242.175 611.227 242.171C612.924 242.162 614.621 242.158 616.318 242.158C616.454 242.158 616.595 242.214 616.757 242.248C616.88 242.625 616.85 242.963 616.676 243.374C615.981 243.549 615.269 243.374 614.561 243.365C613.845 243.357 613.124 243.322 612.433 243.464C612.233 244.247 612.194 245.475 612.301 247.115C612.489 247.153 612.689 247.226 612.889 247.23C613.648 247.243 614.407 247.23 615.166 247.234C615.409 247.234 615.657 247.282 615.917 247.307C615.934 247.496 615.964 247.637 615.955 247.778C615.942 247.954 615.895 248.129 615.861 248.326C615.29 248.591 614.714 248.416 614.152 248.424C613.576 248.437 613 248.424 612.288 248.424V248.42Z" fill="#B7A6AE"/>
<path d="M631.295 242.23C631.628 242.196 631.841 242.158 632.054 242.158C632.229 242.158 632.404 242.201 632.561 242.222C632.826 242.62 632.719 243.031 632.719 243.416C632.715 245.92 632.694 248.42 632.685 250.923C632.685 251.279 632.651 251.643 632.813 252.011C634.13 252.293 635.478 251.925 636.846 252.246C636.821 252.593 636.8 252.897 636.783 253.183C635.938 253.346 632.723 253.38 631.372 253.248C631.342 253.059 631.265 252.854 631.278 252.653C631.453 249.571 631.299 246.489 631.27 243.408C631.27 243.052 631.287 242.693 631.299 242.23H631.295Z" fill="#B7A6AE"/>
<path d="M690.989 199.622C690.882 199.245 690.754 198.873 690.673 198.492C690.354 197.011 689.398 196.189 687.979 195.834C687.633 195.748 687.284 195.658 686.742 195.521C687.207 195.367 687.488 195.269 687.77 195.179C688.149 195.055 688.537 194.965 688.904 194.811C689.637 194.498 690.157 193.955 690.435 193.206C690.597 192.765 690.712 192.307 690.857 191.858C690.908 191.695 690.98 191.541 691.066 191.331C691.343 191.558 691.309 191.828 691.385 192.046C691.501 192.388 691.573 192.748 691.697 193.086C692.038 194.036 692.686 194.67 693.658 194.961C694.174 195.115 694.694 195.269 695.359 195.466C695.027 195.594 694.818 195.68 694.605 195.748C694.225 195.868 693.841 195.962 693.466 196.095C692.511 196.433 691.914 197.126 691.611 198.081C691.449 198.594 691.317 199.121 691.176 199.643C691.117 199.635 691.057 199.626 690.997 199.617L690.989 199.622Z" fill="#B7A6AE"/>
<path d="M568.446 242.256C568.941 242.119 569.32 242.115 569.717 242.235C569.904 242.637 569.832 243.039 569.832 243.429C569.823 246.327 569.81 249.229 569.798 252.126C569.798 252.481 569.781 252.832 569.772 253.201C569.333 253.38 568.949 253.295 568.506 253.278C568.467 253.046 568.403 252.841 568.403 252.64C568.395 249.485 568.391 246.335 568.391 243.181C568.391 242.894 568.425 242.611 568.446 242.252V242.256Z" fill="#B7A6AE"/>
<path d="M612.729 216.897C612.916 211.298 617.073 206.954 622.326 206.342C622.505 206.32 622.689 206.312 622.863 206.333C623.281 206.389 623.575 206.74 623.584 207.159C623.592 207.54 623.375 207.861 622.987 207.964C622.676 208.045 622.347 208.071 622.028 208.135C618.267 208.893 615.858 211.148 614.801 214.825C614.583 215.578 614.583 216.4 614.498 217.192C614.472 217.444 614.515 217.701 614.485 217.954C614.443 218.343 614.153 218.622 613.786 218.673C613.372 218.729 612.98 218.506 612.878 218.078C612.788 217.693 612.775 217.29 612.729 216.897Z" fill="#B7A6AE"/>
</g>
</g>
<defs>
<clipPath id="clip0_331_22451">
<rect width="1366" height="400" fill="white"/>
</clipPath>
<clipPath id="clip1_331_22451">
<rect width="246" height="108" fill="white" transform="translate(560 146)"/>
</clipPath>
</defs>
</svg>
