<svg xmlns="http://www.w3.org/2000/svg" width="37" height="37" viewBox="0 0 37 37">
  <g id="Group_40551" data-name="Group 40551" transform="translate(-4561 -16376)">
    <circle id="Ellipse_1632" data-name="Ellipse 1632" cx="18.5" cy="18.5" r="18.5" transform="translate(4561 16376)" fill="#ff71a4"/>
    <g id="Icon_ionic-md-camera" data-name="Icon ionic-md-camera" transform="translate(4568.75 16382.499)">
      <path id="Path_108819" data-name="Path 108819" d="M18.193,17.569a2.311,2.311,0,1,1-2.311-2.311,2.311,2.311,0,0,1,2.311,2.311Z" transform="translate(-5.413 -5.144)" fill="#fff"/>
      <path id="Path_108820" data-name="Path 108820" d="M17.219,5.674H13.991L12.817,4.5H8.12L6.946,5.674H3.718A1.468,1.468,0,0,0,2.25,7.142v9.98a1.468,1.468,0,0,0,1.468,1.468h13.5a1.468,1.468,0,0,0,1.468-1.468V7.142A1.468,1.468,0,0,0,17.219,5.674Zm-6.751,10.86a4.109,4.109,0,1,1,4.109-4.109A4.109,4.109,0,0,1,10.469,16.534Z" fill="#fff"/>
    </g>
  </g>
</svg>
