<svg xmlns="http://www.w3.org/2000/svg" width="101" height="100" viewBox="0 0 710 285">
  <g id="Group_131434" transform="translate(19076 3776)">
    <g id="Group_51026" data-name="Group 51026" transform="translate(-10 27)">
      <rect id="pexels-photo-919372" width="710" height="285" transform="translate(-19066 -3803)" fill="#e2e2e2"/>
    </g>
    <g id="starstruck" transform="translate(-18858.252 -3687)">
      <g id="Group_28321" data-name="Group 28321" transform="translate(69.156 38.757)">
        <path id="Path_16" data-name="Path 16" d="M218.943,931.744h7a2.8,2.8,0,0,0,.929,2.031,3.753,3.753,0,0,0,2.581.779,4.494,4.494,0,0,0,2.48-.661,2.144,2.144,0,0,0,1.029-1.922,2.227,2.227,0,0,0-.02-.335,1.546,1.546,0,0,0-.173-.418,1.683,1.683,0,0,0-.428-.508,5.433,5.433,0,0,0-.857-.528,8.978,8.978,0,0,0-1.4-.569l-3.353-1.146a13.8,13.8,0,0,1-3.205-1.306,9.274,9.274,0,0,1-2.173-1.651,7.619,7.619,0,0,1-1.284-1.872,7.358,7.358,0,0,1-.647-1.853,9.523,9.523,0,0,1-.152-1.721,7.912,7.912,0,0,1,2.847-6.311,10.643,10.643,0,0,1,7.167-2.435,10.306,10.306,0,0,1,7.044,2.386,8.238,8.238,0,0,1,2.724,6.532h-6.879a2.623,2.623,0,0,0-.726-1.945,3.055,3.055,0,0,0-2.238-.724,3.551,3.551,0,0,0-2.207.623,1.986,1.986,0,0,0-.817,1.662q0,1.553,2.6,2.349l3.283,1.021q7.9,2.457,7.886,8.714a8.351,8.351,0,0,1-.634,3.305,7.156,7.156,0,0,1-1.68,2.468,9.7,9.7,0,0,1-2.425,1.642,11.919,11.919,0,0,1-2.828.957,14.873,14.873,0,0,1-2.938.292,11.467,11.467,0,0,1-7.635-2.416A7.994,7.994,0,0,1,218.943,931.744Z" transform="translate(-218.943 -910.794)" fill="#c9c9c9"/>
        <path id="Path_17" data-name="Path 17" d="M247.748,926.428v-4.833h3.438v-6.916h6.593v6.916h3.963v4.833h-3.963v14.458h-6.593V926.428Z" transform="translate(-224.51 -911.443)" fill="#c9c9c9"/>
        <path id="Path_18" data-name="Path 18" d="M267.376,932.716a11,11,0,0,1,.79-4.2,9.25,9.25,0,0,1,2.093-3.2,9.777,9.777,0,0,1,2.962-1.977,8.6,8.6,0,0,1,3.444-.717,7.255,7.255,0,0,1,3.031.678,5.636,5.636,0,0,1,2.341,1.891v-2.063h6.593v19.292h-6.593V940.2a5.716,5.716,0,0,1-2.311,1.913,7.143,7.143,0,0,1-3.061.671,8.968,8.968,0,0,1-4.495-1.185,9.237,9.237,0,0,1-3.443-3.526A10.527,10.527,0,0,1,267.376,932.716Zm7.778-2.786a3.949,3.949,0,0,0,0,5.644,4.06,4.06,0,0,0,5.7,0,3.951,3.951,0,0,0,0-5.644,4.034,4.034,0,0,0-5.7,0Z" transform="translate(-228.304 -912.979)" fill="#c9c9c9"/>
        <path id="Path_19" data-name="Path 19" d="M299.963,942.423V923.131h6.249v4.752a7.227,7.227,0,0,1,2.386-3.934,5.84,5.84,0,0,1,3.7-1.325,6.649,6.649,0,0,1,2.853.546l-1.6,6.208a8.607,8.607,0,0,0-2.992-.506,3.718,3.718,0,0,0-2.164.576,4.068,4.068,0,0,0-1.335,2.2,15.519,15.519,0,0,0-.506,4.439v6.329Z" transform="translate(-234.603 -912.979)" fill="#c9c9c9"/>
        <path id="Path_20" data-name="Path 20" d="M320.993,931.744h7a2.793,2.793,0,0,0,.928,2.031,3.754,3.754,0,0,0,2.582.779,4.489,4.489,0,0,0,2.479-.661,2.144,2.144,0,0,0,1.029-1.922,2.223,2.223,0,0,0-.021-.335,1.553,1.553,0,0,0-.173-.418,1.673,1.673,0,0,0-.429-.508,5.419,5.419,0,0,0-.856-.528,9.041,9.041,0,0,0-1.4-.569l-3.353-1.146a13.807,13.807,0,0,1-3.206-1.306,9.272,9.272,0,0,1-2.173-1.651,7.619,7.619,0,0,1-1.284-1.872,7.35,7.35,0,0,1-.647-1.853,9.6,9.6,0,0,1-.152-1.721,7.915,7.915,0,0,1,2.847-6.311,10.645,10.645,0,0,1,7.168-2.435,10.3,10.3,0,0,1,7.043,2.386,8.238,8.238,0,0,1,2.724,6.532h-6.879a2.625,2.625,0,0,0-.725-1.945,3.057,3.057,0,0,0-2.238-.724,3.553,3.553,0,0,0-2.207.623,1.985,1.985,0,0,0-.816,1.662q0,1.553,2.6,2.349l3.283,1.021q7.9,2.457,7.886,8.714a8.351,8.351,0,0,1-.635,3.305,7.124,7.124,0,0,1-1.68,2.468,9.653,9.653,0,0,1-2.424,1.642,11.91,11.91,0,0,1-2.827.957,14.881,14.881,0,0,1-2.938.292,11.469,11.469,0,0,1-7.636-2.416A7.993,7.993,0,0,1,320.993,931.744Z" transform="translate(-238.668 -910.794)" fill="#c9c9c9"/>
        <path id="Path_21" data-name="Path 21" d="M349.8,926.428v-4.833h3.438v-6.916h6.593v6.916h3.963v4.833h-3.963v14.458h-6.593V926.428Z" transform="translate(-244.235 -911.443)" fill="#c9c9c9"/>
        <path id="Path_22" data-name="Path 22" d="M371.154,942.423V923.131H377.4v4.752a7.228,7.228,0,0,1,2.386-3.934,5.839,5.839,0,0,1,3.7-1.325,6.646,6.646,0,0,1,2.852.546l-1.6,6.208a8.612,8.612,0,0,0-2.993-.506,3.717,3.717,0,0,0-2.164.576,4.07,4.07,0,0,0-1.334,2.2,15.522,15.522,0,0,0-.506,4.439v6.329Z" transform="translate(-248.363 -912.979)" fill="#c9c9c9"/>
        <path id="Path_23" data-name="Path 23" d="M392.862,933.383V923.252h6.593v9.929a3.144,3.144,0,0,0,.958,2.557,3.311,3.311,0,0,0,2.187.8,4.383,4.383,0,0,0,1.159-.151,3.986,3.986,0,0,0,1.079-.485,2.338,2.338,0,0,0,.836-.981,3.516,3.516,0,0,0,.311-1.537V923.252h6.592v19.292h-6.592v-3.033a3.705,3.705,0,0,1-1.32,1.951,6.078,6.078,0,0,1-2.077,1.132,7.081,7.081,0,0,1-2.005.313,6.894,6.894,0,0,1-5.775-2.477Q392.862,937.954,392.862,933.383Z" transform="translate(-252.559 -913.1)" fill="#c9c9c9"/>
        <path id="Path_24" data-name="Path 24" d="M423.444,940.112V910.668h6.593V925.49l3.762-4.671h8.069l-7.119,8.574,8.654,10.718h-7.866l-5.5-6.957v6.957Z" transform="translate(-258.47 -910.668)" fill="#c9c9c9"/>
      </g>
      <g id="Group_39793" data-name="Group 39793" transform="translate(21.252 36)">
        <path id="Path_1" data-name="Path 1" d="M296.658,693.368H284.918a2.62,2.62,0,0,1-1.959-.86,2.649,2.649,0,0,1-.344-3.132l3.252-5.635.035-.06,2.581-4.471a2.663,2.663,0,0,1,4.611,0l3.148,5.454,2.719,4.712A2.661,2.661,0,0,1,296.658,693.368Z" transform="translate(-273.699 -677.88)" fill="#c9c9c9"/>
        <path id="Path_2" data-name="Path 2" d="M286.547,716.027a6.565,6.565,0,0,1-3.587,5.855,2.649,2.649,0,0,1-.344-3.132l3.252-5.635A6.525,6.525,0,0,1,286.547,716.027Z" transform="translate(-273.699 -707.255)" fill="#c9c9c9" opacity="0.15"/>
        <path id="Path_3" data-name="Path 3" d="M314.525,684.664a6.571,6.571,0,0,1-10.341-.983l2.581-4.471a2.663,2.663,0,0,1,4.61,0Z" transform="translate(-291.981 -677.88)" fill="#c9c9c9" opacity="0.28"/>
        <path id="Path_4" data-name="Path 4" d="M246.307,732.481v11.74a2.661,2.661,0,0,1-3.992,2.3l-9.85-5.685-.316-.183a2.663,2.663,0,0,1,0-4.61l6.826-3.94.388-.223,2.952-1.7A2.661,2.661,0,0,1,246.307,732.481Z" transform="translate(-230.819 -721.178)" fill="#c9c9c9"/>
        <path id="Path_5" data-name="Path 5" d="M289.128,732.481V734.5a6.575,6.575,0,0,1-6.944-2.623l2.952-1.7A2.661,2.661,0,0,1,289.128,732.481Z" transform="translate(-273.641 -721.178)" fill="#c9c9c9" opacity="0.2"/>
        <path id="Path_6" data-name="Path 6" d="M239.342,745.746a6.569,6.569,0,0,1-6.57,6.57c-.1,0-.206,0-.308-.007l-.316-.183a2.663,2.663,0,0,1,0-4.61l6.826-3.94A6.556,6.556,0,0,1,239.342,745.746Z" transform="translate(-230.819 -732.648)" fill="#c9c9c9" opacity="0.28"/>
        <path id="Path_7" data-name="Path 7" d="M298.963,795.252l-1.818,3.151-1.633,2.827-1.377,2.388-1.04,1.8c-.018.033-.038.065-.06.1a2.663,2.663,0,0,1-4.551-.1L285.8,800.76l-.09-.156-2.976-5.154-.115-.2a2.661,2.661,0,0,1,2.3-3.992H296.66A2.661,2.661,0,0,1,298.963,795.252Z" transform="translate(-273.701 -772.402)" fill="#c9c9c9"/>
        <path id="Path_8" data-name="Path 8" d="M357.353,740.655l-2.309,1.335-1.1.635-1.642.948-5.111,2.951a2.664,2.664,0,0,1-3.992-2.305V732.479a2.662,2.662,0,0,1,3.992-2.3l3.524,2.034,2.029,1.173.625.359.662.383,3.325,1.921A2.662,2.662,0,0,1,357.353,740.655Z" transform="translate(-324.504 -721.177)" fill="#c9c9c9"/>
        <path id="Path_9" data-name="Path 9" d="M401.428,758.528l-2.309,1.334a6.576,6.576,0,0,1-2.3-8.608l.626.361,3.987,2.3A2.663,2.663,0,0,1,401.428,758.528Z" transform="translate(-368.579 -739.051)" fill="#c9c9c9" opacity="0.28"/>
        <path id="Path_10" data-name="Path 10" d="M350.99,734.109a6.572,6.572,0,0,1-7.8,6.455v-8.084a2.661,2.661,0,0,1,3.992-2.3l3.524,2.034A6.5,6.5,0,0,1,350.99,734.109Z" transform="translate(-324.503 -721.178)" fill="#c9c9c9" opacity="0.1"/>
        <path id="Path_11" data-name="Path 11" d="M310.783,852.817a2.663,2.663,0,0,1-4.551-.1l-2.688-4.657a6.492,6.492,0,0,1,.906-.063A6.569,6.569,0,0,1,310.783,852.817Z" transform="translate(-291.448 -819.704)" fill="#c9c9c9" opacity="0.28"/>
        <path id="Path_12" data-name="Path 12" d="M289.947,794.46a6.571,6.571,0,0,1-4.24,6.144l-2.976-5.154-.115-.2a2.661,2.661,0,0,1,2.3-3.992h4.195A6.521,6.521,0,0,1,289.947,794.46Z" transform="translate(-273.701 -772.402)" fill="#c9c9c9" opacity="0.1"/>
        <g id="Group_2" data-name="Group 2" transform="translate(10.448 10.531)">
          <circle id="Ellipse_1" data-name="Ellipse 1" cx="6.642" cy="6.642" r="6.642" transform="translate(0 0)" fill="#fcfcfc"/>
          <g id="Group_1" data-name="Group 1" transform="translate(3.872 2.89)">
            <path id="Path_13" data-name="Path 13" d="M323.135,763.334l-1.015.586-.486.28-2.969,1.713a1.17,1.17,0,0,1-1.755-1.013v-5.161a1.17,1.17,0,0,1,1.755-1.013l1.549.895.892.515.275.159.291.168,1.462.844A1.171,1.171,0,0,1,323.135,763.334Z" transform="translate(-316.911 -758.568)" fill="#c9c9c9"/>
          </g>
        </g>
        <path id="Path_14" data-name="Path 14" d="M357.933,810.42l-5.111,2.951a2.642,2.642,0,0,1-2.867-.135,6.575,6.575,0,0,1,7.978-2.816Z" transform="translate(-330.14 -788.025)" fill="#c9c9c9" opacity="0.15"/>
        <path id="Path_15" data-name="Path 15" d="M353.2,834.033l-1.633,2.828-1.377,2.388A3.243,3.243,0,0,1,352.737,834,3.291,3.291,0,0,1,353.2,834.033Z" transform="translate(-329.755 -808.033)" fill="#c9c9c9" opacity="0.2"/>
      </g>
    </g>
  </g>
</svg>
