<svg id="creator_icon" width="25" height="25" viewBox="0 0 25 25" fill="none" xmlns="http://www.w3.org/2000/svg">
<path d="M11.7832 1.05031C12.2277 0.507317 13.0581 0.507317 13.5027 1.05031L14.6897 2.50019C14.9918 2.86925 15.4958 3.0043 15.942 2.83576L17.6949 2.17365C18.3514 1.92569 19.0705 2.34086 19.184 3.03338L19.4871 4.88259C19.5642 5.35328 19.9332 5.72222 20.4038 5.79937L22.253 6.10245C22.9455 6.21595 23.3607 6.93504 23.1127 7.59152L22.4506 9.34458C22.282 9.79077 22.4171 10.2947 22.7861 10.5969L24.236 11.784C24.779 12.2285 24.779 13.0589 24.236 13.5034L22.7861 14.6905C22.4171 14.9927 22.282 15.4967 22.4506 15.9428L23.1127 17.6959C23.3607 18.3524 22.9455 19.0715 22.253 19.185L20.4038 19.4881C19.9332 19.5652 19.5642 19.9341 19.4871 20.4048L19.184 22.254C19.0705 22.9466 18.3514 23.3617 17.6949 23.1138L15.942 22.4517C15.4958 22.2831 14.9918 22.4182 14.6897 22.7872L13.5027 24.2371C13.0581 24.7801 12.2277 24.7801 11.7832 24.2371L10.5962 22.7872C10.294 22.4182 9.79003 22.2831 9.34383 22.4517L7.59094 23.1138C6.93445 23.3617 6.21534 22.9466 6.10184 22.254L5.79877 20.4048C5.72162 19.9341 5.35269 19.5652 4.882 19.4881L3.03286 19.185C2.34036 19.0715 1.92519 18.3524 2.17314 17.6959L2.83527 15.9428C3.00379 15.4967 2.86876 14.9927 2.49971 14.6905L1.0498 13.5034C0.506837 13.0589 0.506837 12.2285 1.0498 11.784L2.49971 10.5969C2.86876 10.2947 3.00379 9.79077 2.83527 9.34458L2.17314 7.59152C1.92519 6.93504 2.34036 6.21595 3.03286 6.10245L4.882 5.79937C5.35269 5.72222 5.72162 5.35328 5.79877 4.88259L6.10184 3.03338C6.21534 2.34086 6.93445 1.92569 7.59094 2.17365L9.34383 2.83576C9.79003 3.0043 10.294 2.86925 10.5962 2.50019L11.7832 1.05031Z" fill="url(#paint0_linear_863_2405)"/>
<path d="M7.91675 12.5879L10.7902 16.0361L18.2612 8.56494" stroke="white" stroke-width="2" stroke-linecap="round"/>
<defs>
<linearGradient id="paint0_linear_863_2405" x1="12.6429" y1="0.643066" x2="12.6429" y2="24.6444" gradientUnits="userSpaceOnUse">
<stop stop-color="#FF71A4"/>
<stop offset="1" stop-color="#D33AFF"/>
</linearGradient>
</defs>
</svg>
