<!-- <svg xmlns="http://www.w3.org/2000/svg" width="21.854" height="21.854" viewBox="0 0 21.854 21.854" fill="currentColor">
  <g id="explore" transform="translate(-2.5 -2.5)">
    <path id="Path_108785" data-name="Path 108785" d="M13.427,2.5A10.927,10.927,0,1,0,24.354,13.427,10.937,10.937,0,0,0,13.427,2.5Zm0,20.335a9.409,9.409,0,1,1,9.409-9.409A9.435,9.435,0,0,1,13.427,22.835Z" />
    <path id="Path_108786" data-name="Path 108786" d="M34.25,25.452l-5.5,2.185A1.823,1.823,0,0,0,27.74,28.65l-2.185,5.5a1.776,1.776,0,0,0,.414,1.955,1.8,1.8,0,0,0,1.265.529,1.846,1.846,0,0,0,.69-.138l5.5-2.185A1.823,1.823,0,0,0,34.434,33.3l2.185-5.5a1.776,1.776,0,0,0-.414-1.955A1.81,1.81,0,0,0,34.25,25.452Zm.943,1.794-2.185,5.5a.278.278,0,0,1-.161.161l-5.5,2.185a.3.3,0,0,1-.391-.391l2.185-5.5a.278.278,0,0,1,.161-.161l5.5-2.185h0a.207.207,0,0,1,.115-.023.292.292,0,0,1,.207.092A.306.306,0,0,1,35.193,27.246Z" transform="translate(-17.649 -17.569)" />
    <circle id="Ellipse_1631" data-name="Ellipse 1631" cx="1.288" cy="1.288" r="1.288" transform="translate(12.139 12.139)" />
  </g>
</svg> -->

<svg xmlns="http://www.w3.org/2000/svg" width="26.464" height="26.465" viewBox="0 0 26.464 26.465">
  <g id="explore" data-name="Group 55830" transform="translate(-2.5 -2.5)">
    <path id="Path_108785" data-name="Path 108785" d="M15.732,2.5A13.232,13.232,0,1,0,28.964,15.732,13.244,13.244,0,0,0,15.732,2.5Zm0,24.625A11.393,11.393,0,1,1,27.125,15.732,11.425,11.425,0,0,1,15.732,27.125Z" fill="currentColor"/>
    <path id="Path_108786" data-name="Path 108786" d="M36.113,25.48l-6.658,2.646a2.207,2.207,0,0,0-1.226,1.226L25.583,36.01a2.15,2.15,0,0,0,.5,2.368,2.175,2.175,0,0,0,1.532.641,2.236,2.236,0,0,0,.836-.167l6.658-2.646a2.207,2.207,0,0,0,1.226-1.226l2.646-6.658a2.15,2.15,0,0,0-.5-2.368A2.191,2.191,0,0,0,36.113,25.48Zm1.142,2.173-2.646,6.658a.336.336,0,0,1-.195.195l-6.658,2.646a.367.367,0,0,1-.474-.474l2.646-6.658a.337.337,0,0,1,.195-.195l6.658-2.646h0a.251.251,0,0,1,.139-.028.353.353,0,0,1,.251.111A.371.371,0,0,1,37.255,27.653Z" transform="translate(-16.537 -16.462)" fill="currentColor"/>
    <circle id="Ellipse_1631" data-name="Ellipse 1631" cx="1.56" cy="1.56" r="1.56" transform="translate(14.172 14.172)" fill="currentColor"/>
  </g>
</svg>
