<svg xmlns="http://www.w3.org/2000/svg" width="26.014" height="26.014" viewBox="0 0 26.014 26.014">
  <g id="Group_40399" data-name="Group 40399" transform="translate(1507.8 -13727)">
    <g id="noun_User_925550" transform="translate(-1527.3 13707.5)">
      <path id="Path_108535" data-name="Path 108535" d="M32.507,45.514A13.007,13.007,0,1,1,45.514,32.507,13.025,13.025,0,0,1,32.507,45.514Zm0-24.2A11.192,11.192,0,1,0,43.7,32.507,11.205,11.205,0,0,0,32.507,21.315Zm0,10.92a3.66,3.66,0,1,1,3.66-3.66h0A3.653,3.653,0,0,1,32.507,32.235Zm0-5.505a1.845,1.845,0,1,0,1.845,1.845h0A1.833,1.833,0,0,0,32.507,26.729ZM39.8,43.063h-.06a.911.911,0,0,1-.847-.968c0-.181.03-.363.03-.514a6.4,6.4,0,0,0-12.8-.272v.272a3.3,3.3,0,0,0,.03.514.909.909,0,1,1-1.815.121h0a4.911,4.911,0,0,1-.03-.635,8.214,8.214,0,1,1,16.425-.3v.3a4.684,4.684,0,0,1-.03.635A.9.9,0,0,1,39.8,43.063Z" fill="#fff" opacity="0.5"/>
    </g>
  </g>
</svg>
