<svg xmlns="http://www.w3.org/2000/svg" width="81" height="85" viewBox="0 0 81 85">
  <g id="Group_56257" data-name="Group 56257" transform="translate(8297 -22888)">
    <rect id="leilani-angel-K84vnnzxmTQ-unsplash" width="81" height="85" rx="10" transform="translate(-8297 22888)" fill="#fff"/>
    <g id="Group_56256" data-name="Group 56256" transform="translate(-8407 22639.438)">
      <path id="Path_170768" data-name="Path 170768" d="M130,277.489a12.146,12.146,0,0,1,.709-2.038,5.357,5.357,0,0,1,4.954-2.868q11.382-.035,22.765,0a5.5,5.5,0,0,1,5.624,5.722q.01,6.9,0,13.791v.432c.792.248,1.57.425,2.294.73a8.191,8.191,0,0,1,5.023,8.375,8.358,8.358,0,0,1-6.7,7.455,8.117,8.117,0,0,1-6.572-1.507,1.28,1.28,0,0,0-.813-.263q-10.756.011-21.511,0a5.513,5.513,0,0,1-5.49-3.838c-.118-.353-.193-.721-.287-1.082Zm15.9,15.99c.063-.076.159-.208.272-.323q4.12-4.141,8.244-8.279a1.13,1.13,0,0,1,1.9-.011q2.639,2.62,5.277,5.243c.1.1.205.189.342.314.014-.116.025-.167.025-.218,0-4,.014-8.005-.016-12.008a3.738,3.738,0,0,0-.364-1.551,3.412,3.412,0,0,0-3.3-1.975c-2.088-.009-4.177,0-6.266,0q-8.1,0-16.21,0a3.511,3.511,0,0,0-3.7,3.628q-.012,7.581,0,15.161c0,.1.021.19.039.352.171-.18.29-.308.413-.433q2.826-2.862,5.65-5.726a1.083,1.083,0,0,1,1.265-.358,1.967,1.967,0,0,1,.572.432C141.975,289.621,143.906,291.521,145.9,293.479Zm15.26-.775-5.88-5.764a2.832,2.832,0,0,1-.254.326q-4.091,4.116-8.188,8.226c-.721.724-1.266.722-2-.009l-5.406-5.4c-.1-.1-.207-.2-.317-.3-2.308,2.309-4.587,4.585-6.858,6.871a.661.661,0,0,0-.153.425c-.011,1.537-.036,3.074.01,4.61a4.162,4.162,0,0,0,.351,1.557,3.447,3.447,0,0,0,3.447,2.007q9.725.016,19.45,0h.439a8.515,8.515,0,0,1-.508-7.62A8.386,8.386,0,0,1,161.159,292.7Zm1.885,1.967a6.221,6.221,0,1,0,6.181,6.454A6.252,6.252,0,0,0,163.043,294.67Z"/>
      <path id="Path_170769" data-name="Path 170769" d="M236.05,351.525a2.84,2.84,0,0,1,.085-5.68,2.84,2.84,0,0,1-.085,5.68Z" transform="translate(-90.486 -64.216)"/>
      <path id="Path_170770" data-name="Path 170770" d="M363.143,470.339c-.849,0-1.64.012-2.432,0a1.057,1.057,0,0,1-1.024-.913,1.07,1.07,0,0,1,.715-1.135,1.654,1.654,0,0,1,.515-.064c.724-.007,1.449,0,2.226,0,0-.606,0-1.18,0-1.754,0-.2-.007-.4,0-.606a1.1,1.1,0,0,1,1.049-1.116,1.082,1.082,0,0,1,1.092,1.111c.021.605.006,1.212.006,1.818,0,.161,0,.322,0,.546h.971c.5,0,1-.014,1.494.008a1.082,1.082,0,0,1,1,1.072,1.06,1.06,0,0,1-.993,1.031c-.659.024-1.319.01-1.979.013h-.494c0,.773,0,1.508,0,2.244a1.187,1.187,0,0,1-.395.974.977.977,0,0,1-1.055.186,1.051,1.051,0,0,1-.694-1c-.016-.633-.006-1.266-.007-1.9C363.143,470.7,363.143,470.554,363.143,470.339Z" transform="translate(-201.265 -168.408)"/>
    </g>
  </g>
</svg>
