<svg xmlns="http://www.w3.org/2000/svg" width="45" height="45" id="go_live_icon" viewBox="0 0 45 45" fill="currentColor">
  <g id="Group_40854" data-name="Group 40854" transform="translate(-2961 -623)">
    <g id="Group_40852" data-name="Group 40852" transform="translate(78 512)" opacity="0.999">
      <rect id="Rectangle_71" data-name="Rectangle 71" width="45" height="45" rx="11" transform="translate(2883 111)" opacity="0.97"/>
    </g>
    <g id="Group_40853" data-name="Group 40853" transform="translate(2972 542.488)">
      <g id="Group_94" data-name="Group 94" transform="translate(0 96.512)">
        <g id="Group_93" data-name="Group 93" transform="translate(0 0)">
          <path id="Path_3099" data-name="Path 3099" d="M13.558,96.512H2.622A2.63,2.63,0,0,0,0,99.134v8.837a2.63,2.63,0,0,0,2.622,2.622H13.558a2.63,2.63,0,0,0,2.622-2.622V99.134A2.613,2.613,0,0,0,13.558,96.512Z" transform="translate(0 -96.512)" fill="#fff"/>
        </g>
      </g>
      <g id="Group_96" data-name="Group 96" transform="translate(17.491 97.912)">
        <g id="Group_95" data-name="Group 95" transform="translate(0 0)">
          <path id="Path_3100" data-name="Path 3100" d="M346.041,123.89a1.336,1.336,0,0,0-.446.184l-4.091,2.36v6.084l4.117,2.36a1.559,1.559,0,0,0,2.15-.577,1.6,1.6,0,0,0,.21-.787v-8.1A1.578,1.578,0,0,0,346.041,123.89Z" transform="translate(-341.504 -123.847)" fill="#fff"/>
        </g>
      </g>
    </g>
  </g>
</svg>
