<svg xmlns="http://www.w3.org/2000/svg" width="27" height="27" viewBox="0 0 25 24">
  <g id="Home_icon" data-name="Group 132528" transform="translate(-6582.615 -9485.615)">
    <path id="Subtraction_9" data-name="Subtraction 9" d="M14.1,24.315H8a8.009,8.009,0,0,1-8-8V8A8.009,8.009,0,0,1,8,0h6.1a8.009,8.009,0,0,1,8,8v8.315A8.009,8.009,0,0,1,14.1,24.315ZM7.895,1.779a6.007,6.007,0,0,0-6,6v8.757a6.007,6.007,0,0,0,6,6H14.21a6.007,6.007,0,0,0,6-6V7.78a6.007,6.007,0,0,0-6-6Z" transform="translate(6582.615 9485.615)" fill="currentColor"/>
    <rect id="Rectangle" width="12.263" height="6.117" rx="3.058" transform="translate(6587.115 9490.767)" fill="none" stroke="currentColor" stroke-width="1.5"/>
  </g>
</svg>