<svg id="my_subscriber" width="20" height="20" viewBox="0 0 20 20" fill="none"
  xmlns="http://www.w3.org/2000/svg">
  <mask id="mask0_522_184016" style="mask-type:alpha" maskUnits="userSpaceOnUse" x="0" y="0" width="20" height="20">
    <rect width="20" height="20" fill="#D9D9D9"/>
  </mask>
  <g mask="url(#mask0_522_184016)">
    <path d="M0.875 15C0.638889 15 0.434028 14.9132 0.260417 14.7396C0.0868056 14.566 0 14.3611 0 14.125V13.6042C0 12.9792 0.315972 12.4722 0.947917 12.0833C1.57986 11.6944 2.40278 11.5 3.41667 11.5C3.56944 11.5 3.72222 11.5035 3.875 11.5104C4.02778 11.5174 4.18056 11.536 4.33333 11.5663C4.11111 11.8693 3.94444 12.1979 3.83333 12.5521C3.72222 12.9062 3.66667 13.2778 3.66667 13.6667V15H0.875ZM5.87173 15C5.6378 15 5.43403 14.9132 5.26042 14.7396C5.08681 14.566 5 14.3611 5 14.125V13.6667C5 12.7639 5.46181 12.0312 6.38542 11.4688C7.30903 10.9062 8.51389 10.625 10 10.625C11.5 10.625 12.7083 10.9062 13.625 11.4688C14.5417 12.0312 15 12.7639 15 13.6667V14.125C15 14.3611 14.9132 14.566 14.7396 14.7396C14.566 14.9132 14.3622 15 14.1283 15H5.87173ZM16.3333 15V13.6667C16.3333 13.2704 16.2778 12.8971 16.1667 12.5466C16.0556 12.1961 15.8889 11.8693 15.6667 11.5663C15.8194 11.536 15.9722 11.5174 16.125 11.5104C16.2778 11.5035 16.4306 11.5 16.5833 11.5C17.5972 11.5 18.4201 11.6944 19.0521 12.0833C19.684 12.4722 20 12.9792 20 13.6042V14.125C20 14.3611 19.9132 14.566 19.7396 14.7396C19.566 14.9132 19.3611 15 19.125 15H16.3333ZM10 12.375C9.29167 12.375 8.64931 12.4618 8.07292 12.6354C7.49653 12.809 7.11111 13.0139 6.91667 13.25H13.0833C12.8889 13.0139 12.5035 12.809 11.9271 12.6354C11.3507 12.4618 10.7083 12.375 10 12.375ZM3.36983 10.9167C2.88717 10.9167 2.47569 10.7448 2.13542 10.4011C1.79514 10.0574 1.625 9.64417 1.625 9.1615C1.625 8.67883 1.79686 8.26736 2.14058 7.92708C2.48431 7.58681 2.8975 7.41667 3.38017 7.41667C3.86283 7.41667 4.27431 7.58853 4.61458 7.93225C4.95486 8.27597 5.125 8.68917 5.125 9.17183C5.125 9.6545 4.95314 10.066 4.60942 10.4062C4.26569 10.7465 3.8525 10.9167 3.36983 10.9167ZM16.6198 10.9167C16.1372 10.9167 15.7257 10.7448 15.3854 10.4011C15.0451 10.0574 14.875 9.64417 14.875 9.1615C14.875 8.67883 15.0469 8.26736 15.3906 7.92708C15.7343 7.58681 16.1475 7.41667 16.6302 7.41667C17.1128 7.41667 17.5243 7.58853 17.8646 7.93225C18.2049 8.27597 18.375 8.68917 18.375 9.17183C18.375 9.6545 18.2031 10.066 17.8594 10.4062C17.5157 10.7465 17.1025 10.9167 16.6198 10.9167ZM10 10C9.30556 10 8.71528 9.75694 8.22917 9.27083C7.74306 8.78472 7.5 8.19444 7.5 7.5C7.5 6.80556 7.74306 6.21528 8.22917 5.72917C8.71528 5.24306 9.30556 5 10 5C10.6944 5 11.2847 5.24306 11.7708 5.72917C12.2569 6.21528 12.5 6.80556 12.5 7.5C12.5 8.19444 12.2569 8.78472 11.7708 9.27083C11.2847 9.75694 10.6944 10 10 10ZM10.0044 6.75C9.79313 6.75 9.61458 6.82145 9.46875 6.96435C9.32292 7.10727 9.25 7.28435 9.25 7.4956C9.25 7.70687 9.32145 7.88542 9.46435 8.03125C9.60727 8.17708 9.78435 8.25 9.9956 8.25C10.2069 8.25 10.3854 8.17855 10.5312 8.03565C10.6771 7.89273 10.75 7.71565 10.75 7.5044C10.75 7.29313 10.6785 7.11458 10.5356 6.96875C10.3927 6.82292 10.2156 6.75 10.0044 6.75Z" fill="currentColor"/>
  </g>
</svg>
