<svg id="my_subscription" width="20" height="20" viewBox="0 0 20 20" fill="none"
  xmlns="http://www.w3.org/2000/svg">
  <mask id="mask0_522_184022" style="mask-type:alpha" maskUnits="userSpaceOnUse" x="0" y="0" width="20" height="20">
    <rect width="20" height="20" fill="#D9D9D9"/>
  </mask>
  <g mask="url(#mask0_522_184022)">
    <path d="M3.5 18C3.0875 18 2.73438 17.8531 2.44063 17.5594C2.14688 17.2656 2 16.9125 2 16.5V8.5C2 8.0875 2.14688 7.73438 2.44063 7.44063C2.73438 7.14688 3.0875 7 3.5 7H16.5C16.9125 7 17.2656 7.14688 17.5594 7.44063C17.8531 7.73438 18 8.0875 18 8.5V16.5C18 16.9125 17.8531 17.2656 17.5594 17.5594C17.2656 17.8531 16.9125 18 16.5 18H3.5ZM3.5 16.5H16.5V8.5H3.5V16.5ZM9.08333 15.375L13.0208 12.8125C13.1319 12.7381 13.1875 12.6327 13.1875 12.4963C13.1875 12.3599 13.1319 12.2569 13.0208 12.1875L9.08333 9.625C8.95833 9.54167 8.82986 9.53488 8.69792 9.60463C8.56597 9.67436 8.5 9.78532 8.5 9.9375V15.0625C8.5 15.2147 8.56597 15.3256 8.69792 15.3954C8.82986 15.4651 8.95833 15.4583 9.08333 15.375ZM4.75608 6C4.54369 6 4.36458 5.92855 4.21875 5.78565C4.07292 5.64273 4 5.46565 4 5.2544C4 5.04313 4.07183 4.86458 4.2155 4.71875C4.35918 4.57292 4.53722 4.5 4.7496 4.5H15.2439C15.4563 4.5 15.6354 4.57145 15.7812 4.71435C15.9271 4.85727 16 5.03435 16 5.2456C16 5.45687 15.9282 5.63542 15.7845 5.78125C15.6408 5.92708 15.4628 6 15.2504 6H4.75608ZM6.75 3.5C6.5375 3.5 6.35938 3.42855 6.21563 3.28565C6.07188 3.14273 6 2.96565 6 2.7544C6 2.54313 6.07188 2.36458 6.21563 2.21875C6.35938 2.07292 6.5375 2 6.75 2H13.25C13.4625 2 13.6406 2.07145 13.7844 2.21435C13.9281 2.35727 14 2.53435 14 2.7456C14 2.95687 13.9281 3.13542 13.7844 3.28125C13.6406 3.42708 13.4625 3.5 13.25 3.5H6.75Z" fill="currentColor"/>
  </g>
</svg>
