
<svg xmlns="http://www.w3.org/2000/svg" width="253.032" height="164" viewBox="0 0 253.032 164"><defs><style>.a,.b{fill:#ff71a4;}.a{font-size:120px;font-family:Avenir-Black, Avenir;font-weight:800;}.c{fill:#dbe0f4;}.d{fill:#2F0074;}.e{fill:#f5f7ff;}.f{fill:#dbe0f4;}</style></defs><g transform="translate(-797 -529.502)"><text class="a" transform="translate(797 649.502)"><tspan x="0" y="0">4</tspan></text><g transform="translate(880.275 564.544)"><path class="b" d="M60.76,82.822a43.36,43.36,0,0,1-35.009,0l-3.478-7.4L17,77.634a43.256,43.256,0,1,1,52.513,0l-5.506-2.626Z" transform="translate(0 0)"/><g transform="translate(17.175 16.942)"><path class="c" d="M99.97,105.165a1.306,1.306,0,0,1-.084-2.608c6.139-.4,7.54-4.3,7.554-4.341a1.305,1.305,0,1,1,2.471.844c-.078.228-2,5.588-9.853,6.1C100.028,105.164,100,105.165,99.97,105.165Z" transform="translate(-98.666 -97.331)"/></g><path class="d" d="M30.974,82.822A43.261,43.261,0,0,1,45.867.081C45,.029,44.133,0,43.256,0a43.256,43.256,0,1,0,0,86.512c.877,0,1.747-.029,2.611-.08A43,43,0,0,1,30.974,82.822Z" transform="translate(0 0)"/><path class="e" d="M103.459,229.2a8.207,8.207,0,0,0,0,7.093,8.223,8.223,0,0,1,0,7.093,8.2,8.2,0,0,0-.806,3.548,8.066,8.066,0,0,0,.191,1.756,43.206,43.206,0,0,1-8.752-5.187c.017-.04.035-.078.054-.117a8.223,8.223,0,0,0,0-7.093,8.207,8.207,0,0,1,0-7.093,8.223,8.223,0,0,0,0-7.093,8.207,8.207,0,0,1,0-7.093,8.223,8.223,0,0,0,0-7.093,8.207,8.207,0,0,1,0-7.093h9.313a8.211,8.211,0,0,0,0,7.093,8.223,8.223,0,0,1,0,7.093,8.207,8.207,0,0,0,0,7.093,8.223,8.223,0,0,1,0,7.093Z" transform="translate(-77.092 -165.872)"/><path class="f" d="M106.221,431.234a8.211,8.211,0,0,1,.074-1.076q-1.764-1.1-3.412-2.355a43.5,43.5,0,0,1-4.369-3.835c0,.058,0,.115,0,.173a8.219,8.219,0,0,1-.8,3.546c-.019.038-.037.077-.054.117q1.511,1.155,3.124,2.179,1.075.681,2.191,1.3.558.309,1.126.6,1.136.586,2.31,1.106A8.069,8.069,0,0,1,106.221,431.234Z" transform="translate(-80.661 -350.169)"/><path class="e" d="M351.027,222.11a8.223,8.223,0,0,0,0,7.093,8.207,8.207,0,0,1,0,7.093,8.223,8.223,0,0,0,0,7.093c.019.038.037.077.054.117a43.207,43.207,0,0,1-8.752,5.187,8.068,8.068,0,0,0,.191-1.756,8.2,8.2,0,0,0-.806-3.548,8.222,8.222,0,0,1,0-7.093,8.207,8.207,0,0,0,0-7.093,8.222,8.222,0,0,1,0-7.093,8.207,8.207,0,0,0,0-7.093,8.222,8.222,0,0,1,0-7.093,8.211,8.211,0,0,0,0-7.093h9.313a8.207,8.207,0,0,1,0,7.093,8.223,8.223,0,0,0,0,7.093,8.207,8.207,0,0,1,0,7.093Z" transform="translate(-281.568 -165.872)"/><g transform="translate(12.843 33.653)"><path class="c" d="M89.708,195.944H75.087a1.306,1.306,0,1,1,0-2.611H89.708a1.306,1.306,0,1,1,0,2.611Z" transform="translate(-73.781 -193.333)"/></g><g transform="translate(58.022 16.942)"><path class="c" d="M343.342,105.165c-.029,0-.058,0-.087,0-7.857-.515-9.775-5.875-9.853-6.1a1.305,1.305,0,0,1,2.467-.854c.069.188,1.53,3.956,7.557,4.351a1.306,1.306,0,0,1-.084,2.608Z" transform="translate(-333.331 -97.332)"/></g><path class="c" d="M228.814,248.167a5.712,5.712,0,0,0-9.836,0,1.935,1.935,0,0,0,1.681,2.9h6.474A1.935,1.935,0,0,0,228.814,248.167Z" transform="translate(-180.64 -202.651)"/><g transform="translate(56.436 33.653)"><path class="c" d="M340.146,195.944H325.525a1.306,1.306,0,1,1,0-2.611h14.622a1.306,1.306,0,0,1,0,2.611Z" transform="translate(-324.219 -193.333)"/></g></g><text class="a" transform="translate(978.032 649.502)"><tspan x="0" y="0">4</tspan></text></g></svg>