<svg width="24" id="notification_setting" height="24" viewBox="0 0 24 24" fill="none" xmlns="http://www.w3.org/2000/svg">
<path d="M12.0199 2C8.3399 2 5.3599 4.98 5.3599 8.66V10.76C5.3599 11.44 5.0799 12.46 4.7299 13.04L3.4599 15.16C2.6799 16.47 3.2199 17.93 4.6599 18.41C9.4399 20 14.6099 20 19.3899 18.41C20.7399 17.96 21.3199 16.38 20.5899 15.16L19.3199 13.04C18.9699 12.46 18.6899 11.43 18.6899 10.76" stroke="currentColor" stroke-width="1.5" stroke-miterlimit="10" stroke-linecap="round"/>
<path d="M15.3299 18.8199C15.3299 20.6499 13.8299 22.1499 11.9999 22.1499C11.0899 22.1499 10.2499 21.7699 9.64992 21.1699C9.04992 20.5699 8.66992 19.7299 8.66992 18.8199" stroke="currentColor" stroke-width="1.5" stroke-miterlimit="10"/>
<path d="M16.0391 3.57303L12.4991 7.11307C12.3591 7.25307 12.2291 7.51303 12.1991 7.70303L12.0091 9.05301C11.9391 9.54301 12.2791 9.88302 12.7691 9.81302L14.1191 9.62302C14.3091 9.59302 14.5791 9.46303 14.7091 9.32303L18.2491 5.78305C18.8591 5.17305 19.1491 4.46302 18.2491 3.56302C17.3591 2.67302 16.6491 2.96303 16.0391 3.57303Z" stroke="currentColor" stroke-width="1.5" stroke-miterlimit="10" stroke-linecap="round" stroke-linejoin="round"/>
<path d="M15.5293 4.08301C15.8293 5.16301 16.6693 6.00298 17.7493 6.30298" stroke="currentColor" stroke-width="1.5" stroke-miterlimit="10" stroke-linecap="round" stroke-linejoin="round"/>
</svg>
