<!-- <svg xmlns="http://www.w3.org/2000/svg" width="24.814" height="24.814" viewBox="0 0 24.814 24.814">
  <g id="noun_dashboard_3493466" data-name="Group 50147" transform="translate(-2.5 -2.496)">
    <path id="Union_49" data-name="Union 49" d="M-488.5-14618.1a12.417,12.417,0,0,1,12.407-12.407,12.417,12.417,0,0,1,12.407,12.407,12.417,12.417,0,0,1-12.407,12.406A12.417,12.417,0,0,1-488.5-14618.1Zm1.722,0a10.711,10.711,0,0,0,10.685,10.681,10.71,10.71,0,0,0,10.681-10.681,10.713,10.713,0,0,0-10.681-10.682A10.713,10.713,0,0,0-486.778-14618.1Zm12.3,6.028a.835.835,0,0,1-.833-.833v-1.667a.836.836,0,0,1,.833-.837h3.576a.836.836,0,0,1,.833.837v1.667a.835.835,0,0,1-.833.833Zm-6.194,0a.835.835,0,0,1-.833-.833v-5.956a.835.835,0,0,1,.833-.833h3.576a.835.835,0,0,1,.833.833v5.956a.835.835,0,0,1-.833.833Zm6.194-4.288a.836.836,0,0,1-.833-.834v-1.667a.835.835,0,0,1,.833-.833h3.576a.835.835,0,0,1,.833.833v1.667a.836.836,0,0,1-.833.834Zm-6.194-4.289a.832.832,0,0,1-.833-.833v-1.189a.836.836,0,0,1,.833-.834h9.771a.836.836,0,0,1,.833.834v1.189a.832.832,0,0,1-.833.833Z" transform="translate(491 14633)" fill="currentColor"/>
  </g>
</svg> -->

<svg xmlns="http://www.w3.org/2000/svg" width="24.999" height="25" viewBox="0 0 24.999 25">
  <path id="noun_dashboard_3493466" data-name="Union 55" d="M971,8201.5a12.5,12.5,0,1,1,12.5,12.5A12.511,12.511,0,0,1,971,8201.5Zm1.738,0a10.763,10.763,0,1,0,10.763-10.763A10.794,10.794,0,0,0,972.737,8201.5Zm13.107,4.972v-7.263h2.1v7.263Zm-2.946,0v-4.314H985v4.314Zm-3,0v-5.693h2.259v5.693Zm-2.9,0v-3.57h2.1v3.57Zm11.787,0V8197h2.1v9.468Z" transform="translate(-971 -8189)" fill="currentColor"/>
</svg>