<svg id="liveStream_button" xmlns="http://www.w3.org/2000/svg" width="24.813" height="24.813" viewBox="0 0 24.813 24.813">
  <g id="play-active" data-name="Group 56253" transform="translate(-25 -16.001)">
    <g id="Group_40910" data-name="Group 40910" transform="translate(22.5 13.503)">
      <path id="Union_49" data-name="Union 49" d="M-476.094-14630.5A12.418,12.418,0,0,0-488.5-14618.1a12.418,12.418,0,0,0,12.406,12.406,12.418,12.418,0,0,0,12.406-12.406A12.418,12.418,0,0,0-476.094-14630.5Zm0,23.089a10.712,10.712,0,0,1-10.682-10.683,10.712,10.712,0,0,1,10.682-10.683,10.712,10.712,0,0,1,10.682,10.683A10.712,10.712,0,0,1-476.094-14607.413Z" transform="translate(491 14633)" fill="currentColor"/>
    </g>
    <path id="Path_156037" data-name="Path 156037" d="M176.883,113.566l-5.542-2.771a2.178,2.178,0,0,0-.975-.247,1.705,1.705,0,0,0-1.666,1.88v5.154a1.705,1.705,0,0,0,1.666,1.88,2.178,2.178,0,0,0,.975-.247l5.542-2.771a1.506,1.506,0,0,0,0-2.876Zm-.615,1.646-5.542,2.771a.82.82,0,0,1-.36.1c-.241,0-.292-.275-.292-.5v-5.154c0-.23.051-.5.292-.5a.821.821,0,0,1,.36.1l5.542,2.772a.219.219,0,1,1,0,.417Zm0,0" transform="translate(-134.82 -86.596)" fill="currentColor" />
  </g>
</svg>
