<svg xmlns="http://www.w3.org/2000/svg" width="24.999" height="25" viewBox="0 0 24.999 25">
  <g id="posting" data-name="Group 55829" transform="translate(-2.5 -2.904)">
    <path id="Union_49" data-name="Union 49" d="M0,12.5A12.5,12.5,0,1,1,12.5,25,12.511,12.511,0,0,1,0,12.5Zm1.737,0A10.763,10.763,0,1,0,12.5,1.738,10.793,10.793,0,0,0,1.738,12.5Zm10.276,4.411V13.905H9.007a.945.945,0,1,1,0-1.891h3.007V9.007a.945.945,0,1,1,1.891,0v3.007h3.007a.945.945,0,0,1,0,1.891H13.905v3.007a.945.945,0,0,1-1.891,0Z" transform="translate(2.499 2.903)" fill="currentColor"/>
  </g>
</svg>