<svg xmlns="http://www.w3.org/2000/svg" width="13.564" height="13.564" viewBox="0 0 13.564 13.564"><defs><style>.a{fill:none;stroke:#ff71a4;}.b{fill:#ff71a4;}</style></defs><g transform="translate(-63.5 -218.5)"><path class="a" d="M6.282,0a6.282,6.282,0,1,0,6.282,6.282A6.29,6.29,0,0,0,6.282,0Z" transform="translate(64 219)"/><path class="b" d="M99.107,124.936l-3.243,3.09-1.545-1.6a.5.5,0,1,0-.73.7l1.9,1.953a.518.518,0,0,0,.357.153.584.584,0,0,0,.357-.136l3.617-3.43a.492.492,0,0,0,.017-.713A.529.529,0,0,0,99.107,124.936Z" transform="translate(-26.414 98.258)"/></g></svg>