<svg xmlns="http://www.w3.org/2000/svg" xmlns:xlink="http://www.w3.org/1999/xlink" width="44" height="44" viewBox="0 0 44 44">
  <defs>
    <clipPath id="clip-path">
      <rect width="18" height="17.6" fill="none"/>
    </clipPath>
  </defs>
  <g id="send" transform="translate(-316 -742)">
    <circle id="Oval" cx="22" cy="22" r="22" transform="translate(316 742)" fill="#ff71a4"/>
    <g id="_Icons_Plane" data-name="_Icons / Plane" transform="translate(329 755.199)" clip-path="url(#clip-path)">
      <path id="Path_2" data-name="Path 2" d="M0,16.5V12a2.347,2.347,0,0,1,.214-.895A2.531,2.531,0,0,1,1,10.587L10.5,9H18l-.457.69L2.246,17.8ZM10.5,9,1,7.413a3.244,3.244,0,0,1-.789-.571A2.3,2.3,0,0,1,0,6V1.5L2.246.2l15.3,8.109L18,9Z" transform="translate(0 -0.2)" fill="#f7f8fa"/>
    </g>
  </g>
</svg>
