<svg xmlns="http://www.w3.org/2000/svg" width="17.344" height="17.338" viewBox="0 0 17.344 17.338">
  <g id="subscription_settings" data-name="noun Settings 2650529" transform="translate(9519.238 508.023)">
    <g id="Group_130874" data-name="Group 130874">
      <g id="Path_171101" data-name="Path 171101">
        <path id="Path_171209" data-name="Path 171209" d="M-9510.58-490.737a8.67,8.67,0,0,1-.994-.057.931.931,0,0,1-.82-.977,1.33,1.33,0,0,0-.809-1.3,1.4,1.4,0,0,0-1.491.345.933.933,0,0,1-1.271.1,8.683,8.683,0,0,1-1.363-1.379.93.93,0,0,1,.1-1.259,1.335,1.335,0,0,0,.344-1.48,1.306,1.306,0,0,0-1.221-.822h-.024a1,1,0,0,1-1.008-.823,8.648,8.648,0,0,1,0-1.959.917.917,0,0,1,.95-.822,1.411,1.411,0,0,0,1.326-.807,1.322,1.322,0,0,0-.345-1.491.933.933,0,0,1-.09-1.28,8.425,8.425,0,0,1,1.394-1.381.937.937,0,0,1,1.262.1,1.4,1.4,0,0,0,1.479.345,1.333,1.333,0,0,0,.819-1.279.931.931,0,0,1,.828-.959,8.489,8.489,0,0,1,1.938.007.929.929,0,0,1,.822.974,1.333,1.333,0,0,0,.808,1.3,1.4,1.4,0,0,0,1.491-.345.931.931,0,0,1,1.273-.1,8.59,8.59,0,0,1,1.365,1.38.937.937,0,0,1-.1,1.261,1.319,1.319,0,0,0-.1,1.864,1.318,1.318,0,0,0,1,.436,1,1,0,0,1,1,.825h0a8.59,8.59,0,0,1,0,1.959.934.934,0,0,1-.979.824h-.094a1.32,1.32,0,0,0-.934.388,1.323,1.323,0,0,0-.385.934,1.32,1.32,0,0,0,.436.978.934.934,0,0,1,.106,1.268,8.567,8.567,0,0,1-1.391,1.383h0a.927.927,0,0,1-1.256-.105,1.408,1.408,0,0,0-1.484-.345,1.331,1.331,0,0,0-.818,1.275.932.932,0,0,1-.828.956,9.243,9.243,0,0,1-.951.059Zm-.862-1a7.611,7.611,0,0,0,1.681,0,2.285,2.285,0,0,1,1.41-2.171,2.355,2.355,0,0,1,2.538.565,7.64,7.64,0,0,0,1.206-1.194,2.277,2.277,0,0,1-.558-2.55,2.3,2.3,0,0,1,2.1-1.4h.109a7.7,7.7,0,0,0,0-1.677.119.119,0,0,0-.051-.021,2.272,2.272,0,0,1-2.3-2.242,2.27,2.27,0,0,1,.731-1.7,7.511,7.511,0,0,0-1.17-1.186,2.342,2.342,0,0,1-2.549.558,2.288,2.288,0,0,1-1.4-2.211,7.6,7.6,0,0,0-1.679,0,2.292,2.292,0,0,1-1.41,2.171,2.355,2.355,0,0,1-2.536-.562,7.69,7.69,0,0,0-1.2,1.194,2.287,2.287,0,0,1,.558,2.554,2.362,2.362,0,0,1-2.207,1.4,7.727,7.727,0,0,0,0,1.673.191.191,0,0,0,.064.024,2.259,2.259,0,0,1,2.111,1.4,2.285,2.285,0,0,1-.558,2.531,7.467,7.467,0,0,0,1.181,1.194,2.33,2.33,0,0,1,2.55-.558,2.282,2.282,0,0,1,1.4,2.2Zm.886-4.406a3.191,3.191,0,0,1-3.192-3.19,3.192,3.192,0,0,1,3.191-3.192,3.19,3.19,0,0,1,3.189,3.19h0a3.19,3.19,0,0,1-3.191,3.188Zm0-5.428a2.24,2.24,0,0,0-2.24,2.24,2.24,2.24,0,0,0,2.24,2.24,2.24,2.24,0,0,0,2.24-2.24h0a2.24,2.24,0,0,0-2.235-2.245h-.007Z"/>
        <path id="Path_171210" data-name="Path 171210" d="M-9510.58-490.686h0a9.16,9.16,0,0,1-.993-.057.985.985,0,0,1-.867-1.03,1.279,1.279,0,0,0-.776-1.251,1.353,1.353,0,0,0-1.437.333.985.985,0,0,1-1.34.1,8.745,8.745,0,0,1-1.37-1.387.986.986,0,0,1,.1-1.325,1.29,1.29,0,0,0,.333-1.425,1.251,1.251,0,0,0-1.167-.791h-.058a1.044,1.044,0,0,1-1.031-.864,8.721,8.721,0,0,1,0-1.974.97.97,0,0,1,.962-.867h.087a1.361,1.361,0,0,0,1.23-.78,1.271,1.271,0,0,0-.333-1.431.983.983,0,0,1-.095-1.35,8.406,8.406,0,0,1,1.4-1.389.981.981,0,0,1,1.328.112,1.347,1.347,0,0,0,1.427.332,1.289,1.289,0,0,0,.787-1.23.99.99,0,0,1,.873-1.011,8.6,8.6,0,0,1,1.948.007.98.98,0,0,1,.867,1.027,1.285,1.285,0,0,0,.777,1.251,1.351,1.351,0,0,0,1.435-.334.983.983,0,0,1,1.342-.1,8.53,8.53,0,0,1,1.371,1.388.98.98,0,0,1-.1,1.328,1.265,1.265,0,0,0-.418.879,1.248,1.248,0,0,0,.325.915,1.276,1.276,0,0,0,.966.42h.017a1.043,1.043,0,0,1,1.033.866,8.779,8.779,0,0,1,0,1.974.984.984,0,0,1-1.031.868h-.092a1.272,1.272,0,0,0-1.269,1.272,1.268,1.268,0,0,0,.421.941.986.986,0,0,1,.11,1.336,8.613,8.613,0,0,1-1.4,1.39.983.983,0,0,1-1.324-.11,1.363,1.363,0,0,0-1.429-.332,1.283,1.283,0,0,0-.786,1.226.987.987,0,0,1-.871,1.008,9.184,9.184,0,0,1-.956.065Zm-3.1-2.52a1.457,1.457,0,0,1,.5.088,1.385,1.385,0,0,1,.84,1.35.884.884,0,0,0,.777.924,8.78,8.78,0,0,0,.987.057h0a8.907,8.907,0,0,0,.941-.059.885.885,0,0,0,.784-.9,1.385,1.385,0,0,1,.849-1.322,1.462,1.462,0,0,1,1.539.357.884.884,0,0,0,1.188.1,8.559,8.559,0,0,0,1.383-1.375.89.89,0,0,0-.1-1.2,1.375,1.375,0,0,1-.451-1.015,1.373,1.373,0,0,1,1.367-1.372h.142a.891.891,0,0,0,.883-.781,8.654,8.654,0,0,0,0-1.947.943.943,0,0,0-.935-.781h-.04a1.369,1.369,0,0,1-1.017-.452,1.365,1.365,0,0,1-.352-.989,1.365,1.365,0,0,1,.452-.946.883.883,0,0,0,.094-1.193,8.505,8.505,0,0,0-1.357-1.372.88.88,0,0,0-1.2.091,1.455,1.455,0,0,1-1.547.358,1.387,1.387,0,0,1-.84-1.35.881.881,0,0,0-.777-.921,8.412,8.412,0,0,0-1.929-.007.886.886,0,0,0-.782.907,1.393,1.393,0,0,1-.852,1.328,1.457,1.457,0,0,1-1.534-.357.883.883,0,0,0-1.194-.1,8.467,8.467,0,0,0-1.386,1.373.887.887,0,0,0,.085,1.212,1.376,1.376,0,0,1,.357,1.547,1.465,1.465,0,0,1-1.323.839h-.087a.87.87,0,0,0-.864.779,8.6,8.6,0,0,0,0,1.947.944.944,0,0,0,.932.779h.057a1.346,1.346,0,0,1,1.258.854,1.385,1.385,0,0,1-.356,1.535.886.886,0,0,0-.095,1.19,8.628,8.628,0,0,0,1.357,1.371.889.889,0,0,0,1.2-.1,1.45,1.45,0,0,1,1.047-.447Zm3.081,1.566a7.709,7.709,0,0,1-.846-.047l-.089-.01.057-.072a2.247,2.247,0,0,0-1.371-2.136,2.278,2.278,0,0,0-2.5.546l-.032.034-.035-.029a7.546,7.546,0,0,1-1.19-1.2l-.027-.036.033-.032a2.253,2.253,0,0,0,.545-2.475,2.2,2.2,0,0,0-2.041-1.369h-.022a.234.234,0,0,1-.092-.032l-.021-.012v-.025a7.7,7.7,0,0,1,0-1.683l.006-.046h.1a2.308,2.308,0,0,0,2.11-1.369,2.249,2.249,0,0,0-.547-2.5l-.034-.031.028-.036a7.766,7.766,0,0,1,1.214-1.2l.035-.028.031.032a2.3,2.3,0,0,0,2.481.55,2.224,2.224,0,0,0,1.377-2.122v-.046l.046-.006a7.7,7.7,0,0,1,1.69,0l.047.006v.047a2.247,2.247,0,0,0,1.369,2.162,2.283,2.283,0,0,0,2.5-.546l.032-.033.036.029a7.569,7.569,0,0,1,1.177,1.2l.029.036-.034.032a2.225,2.225,0,0,0-.718,1.665,2.211,2.211,0,0,0,.673,1.563,2.2,2.2,0,0,0,1.549.63h.031a.19.19,0,0,1,.082.029l.019.013v.023a7.742,7.742,0,0,1,0,1.688v.045h-.154a2.25,2.25,0,0,0-2.053,1.369,2.239,2.239,0,0,0,.546,2.493l.034.033-.03.036a7.619,7.619,0,0,1-1.214,1.2l-.035.028-.031-.032a2.3,2.3,0,0,0-2.483-.553,2.244,2.244,0,0,0-1.379,2.123v.045l-.045.006a7.706,7.706,0,0,1-.856.049Zm-.778-.14a7.675,7.675,0,0,0,1.568,0,2.345,2.345,0,0,1,1.44-2.172,2.4,2.4,0,0,1,2.561.544,7.564,7.564,0,0,0,1.135-1.123,2.332,2.332,0,0,1-.535-2.573,2.349,2.349,0,0,1,2.146-1.431h.064a7.753,7.753,0,0,0,0-1.6.206.206,0,0,0-.049,0,2.3,2.3,0,0,1-1.607-.658,2.311,2.311,0,0,1-.7-1.634,2.327,2.327,0,0,1,.717-1.708,7.418,7.418,0,0,0-1.1-1.114,2.38,2.38,0,0,1-2.571.536,2.338,2.338,0,0,1-1.432-2.212,7.5,7.5,0,0,0-1.58,0,2.355,2.355,0,0,1-1.44,2.172,2.4,2.4,0,0,1-2.56-.541,7.617,7.617,0,0,0-1.132,1.122,2.348,2.348,0,0,1,.537,2.578,2.406,2.406,0,0,1-2.2,1.43h-.008a7.793,7.793,0,0,0,0,1.59.1.1,0,0,0,.025.006h.024a2.293,2.293,0,0,1,2.123,1.431,2.35,2.35,0,0,1-.536,2.555,7.429,7.429,0,0,0,1.111,1.121,2.369,2.369,0,0,1,2.572-.536,2.337,2.337,0,0,1,1.426,2.216Zm.822-4.313a3.218,3.218,0,0,1-2.291-.949,3.213,3.213,0,0,1-.95-2.291,3.219,3.219,0,0,1,.948-2.292,3.22,3.22,0,0,1,2.293-.95h0a3.243,3.243,0,0,1,3.241,3.24,3.246,3.246,0,0,1-3.117,3.237h-.125Zm0-6.382h0a3.123,3.123,0,0,0-2.222.921,3.119,3.119,0,0,0-.92,2.221,3.119,3.119,0,0,0,.922,2.221,3.121,3.121,0,0,0,2.091.916h.13a3.145,3.145,0,0,0,3.141-3.138,3.144,3.144,0,0,0-3.137-3.141Zm0,5.434a2.292,2.292,0,0,1-2.29-2.29,2.292,2.292,0,0,1,2.2-2.288v-.007h.093a2.279,2.279,0,0,1,1.626.674,2.275,2.275,0,0,1,.668,1.621,2.293,2.293,0,0,1-2.292,2.29Zm.069-4.484h-.069a2.193,2.193,0,0,0-2.19,2.19,2.194,2.194,0,0,0,2.19,2.19,2.193,2.193,0,0,0,2.19-2.19,2.172,2.172,0,0,0-.638-1.551,2.178,2.178,0,0,0-1.479-.64Z"/>
      </g>
    </g>
  </g>
</svg>