<svg xmlns="http://www.w3.org/2000/svg" width="19.129" height="19.129" viewBox="0 0 19.129 19.129">
  <g id="shoutout" data-name="Group 55861" transform="translate(-20.389 -255.389)">
    <g id="Group_28110" data-name="Group 28110" transform="translate(20.389 255.389)">
      <g id="Ellipse_572" data-name="Ellipse 572" fill="rgba(236,24,125,0.07)" stroke="#ec187d" stroke-width="1" opacity="0.999">
        <circle cx="9.564" cy="9.564" r="9.564" stroke="none"/>
        <circle cx="9.564" cy="9.564" r="9.064" fill="none"/>
      </g>
    </g>
    <g id="Group_28113" data-name="Group 28113" transform="translate(25.742 261.653)">
      <path id="Path_71897" data-name="Path 71897" d="M10.435,15.405a.39.39,0,0,0-.383.077L8.179,17.138l-1.729.331a1.633,1.633,0,0,0,.3,3.238l.443.995a.389.389,0,1,0,.71-.317l-.355-.8,1.248-.238,2.351.847a.388.388,0,0,0,.2.016.4.4,0,0,0,.179-.086.39.39,0,0,0,.13-.369L10.691,15.7A.389.389,0,0,0,10.435,15.405Zm-4.519,3.83a.858.858,0,0,1,.68-1l1.452-.278.323,1.682-1.453.278A.857.857,0,0,1,5.916,19.235Zm4.851,1-1.6-.577-.385-2.011,1.274-1.128Z" transform="translate(-5.122 -15.333)" fill="#ec187d"/>
      <path id="Path_71898" data-name="Path 71898" d="M73.794,16.764l-.919.176a.389.389,0,1,0,.147.764l.919-.176a.389.389,0,1,0-.146-.764Zm-1.085-.742a.4.4,0,0,0,.149-.063l.591-.414A.389.389,0,0,0,73,14.907l-.592.415a.389.389,0,0,0,.3.7Zm1.362,2.767-.7-.167a.389.389,0,0,0-.179.757l.7.166a.383.383,0,0,0,.162,0,.389.389,0,0,0,.017-.76Z" transform="translate(-65.947 -14.837)" fill="#ec187d"/>
    </g>
  </g>
</svg>