<svg xmlns="http://www.w3.org/2000/svg" width="19.66" height="19.414" viewBox="0 0 19.66 19.414">
  <g id="shoutoutIcon" data-name="Group 131895" transform="translate(3861.196 -14805.353)">
    <path id="Path_172336" data-name="Path 172336" d="M123.576,43.531a.227.227,0,0,0-.133.048l-5.848,4.558h-3.272a3.711,3.711,0,0,0-2.878,1.222,4.191,4.191,0,0,0,0,5.335,3.519,3.519,0,0,0,1.76,1.081v.006l1.6,6.689a.226.226,0,0,0,.273.167l2.258-.541a.226.226,0,0,0,.167-.273l-1.417-5.907h1.5l5.848,4.494a.226.226,0,0,0,.365-.178V54.257h.6a2.264,2.264,0,1,0,0-4.529h-.6v-5.97a.226.226,0,0,0-.232-.227Zm-.223.69,0,15.55-5.365-4.119V48.4Zm-9.03,4.368h3.108c.092,0,.106,0,.106.058v6.757c0,.06-.052.059-.109.059h-3.106a3.228,3.228,0,0,1-2.538-1.068,3.739,3.739,0,0,1,0-4.739,3.228,3.228,0,0,1,2.538-1.068Zm9.483,1.592h.6a1.812,1.812,0,1,1,0,3.623h-.6Zm-10.112,5.692a4.538,4.538,0,0,0,.629.043h1.3l1.39,5.793-1.818.436Z" transform="translate(-3971.531 14761.972)" stroke="currentColor" stroke-width="0.3" fill-rule="evenodd"/>
    <path id="Path_172337" data-name="Path 172337" d="M319.615,120.75a.227.227,0,0,0-.141.049l-2.779,2.142a.226.226,0,1,0,.276.359l2.779-2.142h0a.226.226,0,0,0-.136-.407Z" transform="translate(-4169.32 14687.873)" stroke="currentColor" stroke-width="0.3" fill-rule="evenodd"/>
    <path id="Path_172339" data-name="Path 172339" d="M532.85,245.829a.226.226,0,1,0,0,.453h1.84a.226.226,0,1,0,0-.453Z" transform="translate(-4376.605 14567.85)" stroke="currentColor" stroke-width="0.3" fill-rule="evenodd"/>
    <path id="Path_172340" data-name="Path 172340" d="M497.9,109.908a.227.227,0,0,0-.159.06l-1.778,1.583a.226.226,0,1,0,.3.338l1.778-1.583a.226.226,0,0,0-.142-.4Z" transform="translate(-4341.356 14698.278)" stroke="currentColor" stroke-width="0.3" fill-rule="evenodd"/>
    <path id="Path_172341" data-name="Path 172341" d="M496.139,342.485a.226.226,0,0,0-.158.4l1.778,1.583a.226.226,0,1,0,.3-.338l-1.778-1.583A.226.226,0,0,0,496.139,342.485Z" transform="translate(-4341.372 14475.1)" stroke="currentColor" stroke-width="0.3" fill-rule="evenodd"/>
  </g>
</svg>
