
<svg id="subscription" xmlns="http://www.w3.org/2000/svg" width="125.08" height="125.08" viewBox="0 0 125.08 125.08">
  <path id="Path_155989" data-name="Path 155989" d="M360,101.01h23.722a4.313,4.313,0,0,0,4.313-4.313V36.313A4.313,4.313,0,0,0,383.722,32H360" transform="translate(-262.955 -23.374)" fill="#ffc24f"/>
  <path id="Path_155990" data-name="Path 155990" d="M360,166.918V175h23.722a4.313,4.313,0,0,0,4.313-4.313V133.3A118.655,118.655,0,0,1,360,166.918Zm0,0" transform="translate(-262.955 -97.365)" fill="#fab839"/>
  <path id="Path_155991" data-name="Path 155991" d="M132.313,0h47.444a4.313,4.313,0,0,1,4.313,4.313V81.949a4.313,4.313,0,0,1-4.313,4.313H132.313A4.313,4.313,0,0,1,128,81.949V4.313A4.313,4.313,0,0,1,132.313,0Zm0,0" transform="translate(-93.495)" fill="#ff71a4"/>
  <path id="Path_155992" data-name="Path 155992" d="M144.8,139.315h47.228A4.313,4.313,0,0,0,196.342,135V72.633C186.22,108.918,160.6,129.749,144.8,139.315Zm0,0" transform="translate(-105.767 -53.053)" fill="#2F0074"/>
  <path id="Path_155993" data-name="Path 155993" d="M4.313,32A4.313,4.313,0,0,0,0,36.313V96.7a4.313,4.313,0,0,0,4.313,4.313H28.035V32Zm0,0" transform="translate(0 -23.374)" fill="#88b337"/>
  <path id="Path_155994" data-name="Path 155994" d="M59.589,255.7V243.777A144.571,144.571,0,0,1,43.2,255.7Zm0,0" transform="translate(-31.554 -178.062)" fill="#80ab30"/>
  <path id="Path_155995" data-name="Path 155995" d="M188.313,232h17.252a4.313,4.313,0,0,1,0,8.626H188.313a4.313,4.313,0,0,1,0-8.626Zm0,0" transform="translate(-134.399 -169.46)" fill="#fff"/>
  <path id="Path_155996" data-name="Path 155996" d="M44.313,216a4.313,4.313,0,1,0,0,8.626H57.252V216Zm0,0" transform="translate(-29.217 -157.773)" fill="#a7d64f"/>
  <path id="Path_155997" data-name="Path 155997" d="M372.939,216H360v8.626h12.939a4.313,4.313,0,1,0,0-8.626Zm0,0" transform="translate(-262.955 -157.773)" fill="#ffe7ba"/>
  <path id="Path_155998" data-name="Path 155998" d="M206.013,313.3a4.314,4.314,0,0,0-5.038,4.255,4.313,4.313,0,0,0-8.626,0,4.313,4.313,0,0,0-8.626,0V300.535a4.475,4.475,0,0,0-3.589-4.486A4.314,4.314,0,0,0,175.1,300.3V330.5l-8.991-5.391a3.8,3.8,0,0,0-3.667-.142l-.338.171a3.808,3.808,0,0,0-.508,6.5l13.5,9.644h34.5V317.787a4.475,4.475,0,0,0-3.589-4.486Zm0,0" transform="translate(-116.869 -216.198)" fill="#fec9a3"/>
  <g id="Group_40957" data-name="Group 40957" transform="translate(43.131 8.626)">
    <path id="Path_155999" data-name="Path 155999" d="M184,32h4.313v4.313H184Zm0,0" transform="translate(-177.53 -32)" fill="#2F0074"/>
    <path id="Path_156000" data-name="Path 156000" d="M216,32h17.252v4.313H216Zm0,0" transform="translate(-200.904 -32)" fill="#2F0074"/>
    <path id="Path_156001" data-name="Path 156001" d="M160,72h4.313v8.626H160Zm0,0" transform="translate(-160 -61.217)" fill="#2F0074"/>
    <path id="Path_156002" data-name="Path 156002" d="M192,72h4.313v8.626H192Zm0,0" transform="translate(-183.374 -61.217)" fill="#2F0074"/>
    <path id="Path_156003" data-name="Path 156003" d="M224,72h4.313v8.626H224Zm0,0" transform="translate(-206.748 -61.217)" fill="#2F0074"/>
    <path id="Path_156004" data-name="Path 156004" d="M256,72h4.313v8.626H256Zm0,0" transform="translate(-230.121 -61.217)" fill="#2F0074"/>
    <path id="Path_156005" data-name="Path 156005" d="M288,72h4.313v8.626H288Zm0,0" transform="translate(-253.495 -61.217)" fill="#2F0074"/>
    <path id="Path_156006" data-name="Path 156006" d="M224,128h15.1v4.313H224Zm0,0" transform="translate(-206.748 -102.121)" fill="#2F0074"/>
    <path id="Path_156007" data-name="Path 156007" d="M184,128h6.47v4.313H184Zm0,0" transform="translate(-177.53 -102.121)" fill="#2F0074"/>
    <path id="Path_156008" data-name="Path 156008" d="M184,160h25.879v4.313H184Zm0,0" transform="translate(-177.53 -125.495)" fill="#2F0074"/>
    <path id="Path_156009" data-name="Path 156009" d="M200,192h17.252v4.313H200Zm0,0" transform="translate(-189.217 -148.869)" fill="#2F0074"/>
  </g>
  <path id="Path_156010" data-name="Path 156010" d="M80,56h6.47v4.313H80Zm0,0" transform="translate(-58.434 -40.904)" fill="#70942d"/>
  <path id="Path_156011" data-name="Path 156011" d="M24,96h4.313v6.47H24Zm0,0" transform="translate(-17.53 -70.121)" fill="#70942d"/>
  <path id="Path_156012" data-name="Path 156012" d="M56,96h4.313v6.47H56Zm0,0" transform="translate(-40.904 -70.121)" fill="#70942d"/>
  <path id="Path_156013" data-name="Path 156013" d="M88,96h4.313v6.47H88Zm0,0" transform="translate(-64.278 -70.121)" fill="#70942d"/>
  <path id="Path_156014" data-name="Path 156014" d="M48,56h4.313v4.313H48Zm0,0" transform="translate(-35.061 -40.904)" fill="#70942d"/>
  <path id="Path_156015" data-name="Path 156015" d="M56,144H68.939v4.313H56Zm0,0" transform="translate(-40.904 -105.182)" fill="#70942d"/>
  <path id="Path_156016" data-name="Path 156016" d="M72,176h8.626v4.313H72Zm0,0" transform="translate(-52.591 -128.556)" fill="#70942d"/>
  <path id="Path_156017" data-name="Path 156017" d="M360,56h15.1v4.313H360Zm0,0" transform="translate(-262.955 -40.904)" fill="#ed9624"/>
  <path id="Path_156018" data-name="Path 156018" d="M424,96h4.313v6.47H424Zm0,0" transform="translate(-309.703 -70.121)" fill="#ed9624"/>
  <path id="Path_156019" data-name="Path 156019" d="M392,96h4.313v6.47H392Zm0,0" transform="translate(-286.329 -70.121)" fill="#ed9624"/>
  <path id="Path_156020" data-name="Path 156020" d="M360,96h4.313v6.47H360Zm0,0" transform="translate(-262.955 -70.121)" fill="#ed9624"/>
  <path id="Path_156021" data-name="Path 156021" d="M360,144h10.783v4.313H360Zm0,0" transform="translate(-262.955 -105.182)" fill="#ed9624"/>
  <path id="Path_156022" data-name="Path 156022" d="M360,176h6.47v4.313H360Zm0,0" transform="translate(-262.955 -128.556)" fill="#ed9624"/>
  <path id="Path_156023" data-name="Path 156023" d="M214.137,417.643h34.5V400.535c-10.647,8.818-25.051,13.91-35.193,16.606Zm0,0" transform="translate(-155.91 -292.563)" fill="#f7bb8f"/>
</svg>
