<svg id="subscription_settings"  width="20" height="20" viewBox="0 0 20 20" fill="none"
  xmlns="http://www.w3.org/2000/svg">
  <mask id="mask0_522_184099" style="mask-type:alpha" maskUnits="userSpaceOnUse" x="0" y="0" width="20" height="20">
    <rect width="20" height="20" fill="#D9D9D9"/>
  </mask>
  <g mask="url(#mask0_522_184099)">
    <path d="M11.9988 18C11.7211 18 11.485 17.9028 11.2905 17.7083C11.0961 17.5139 10.9988 17.2778 10.9988 17V13C10.9988 12.7222 11.0961 12.4861 11.2905 12.2917C11.485 12.0972 11.7211 12 11.9988 12L12.4988 13H13.4988L12.9988 12H13.9988L14.4988 13H15.4988L14.9988 12H15.9988L16.4988 13H17.4988L16.9988 12H17.9988C18.2766 12 18.5127 12.0972 18.7072 12.2917C18.9016 12.4861 18.9988 12.7222 18.9988 13V17C18.9988 17.2778 18.9016 17.5139 18.7072 17.7083C18.5127 17.9028 18.2766 18 17.9988 18H11.9988ZM11.9988 17H17.9988V14H11.9988V17ZM9.99884 7C9.16551 7 8.45718 7.29167 7.87384 7.875C7.29051 8.45833 6.99884 9.16667 6.99884 10C6.99884 10.75 7.23495 11.3993 7.70718 11.9479C8.1794 12.4965 8.77662 12.8333 9.49884 12.9583V11.4167C9.22107 11.3194 8.98495 11.1319 8.79051 10.8542C8.59607 10.5764 8.49884 10.2917 8.49884 10C8.49884 9.58333 8.64468 9.22917 8.93634 8.9375C9.22801 8.64583 9.58218 8.5 9.99884 8.5C10.4155 8.5 10.7697 8.64583 11.0613 8.9375C11.353 9.22917 11.4988 9.58333 11.4988 10C11.4988 10.0833 11.4919 10.1667 11.478 10.25C11.4641 10.3333 11.4433 10.4167 11.4155 10.5H12.9572C12.9711 10.4306 12.9815 10.3507 12.9884 10.2604C12.9954 10.1701 12.9988 10.0833 12.9988 10C12.9988 9.16667 12.7072 8.45833 12.1238 7.875C11.5405 7.29167 10.8322 7 9.99884 7ZM9.49884 18H9.01968C8.83912 18 8.67593 17.9444 8.53009 17.8333C8.38426 17.7222 8.29745 17.5764 8.26968 17.3958L7.93634 15.625C7.6169 15.5 7.30787 15.3542 7.00926 15.1875C6.71065 15.0208 6.4294 14.8264 6.16551 14.6042L4.45718 15.1875C4.29051 15.2431 4.12384 15.2396 3.95718 15.1771C3.79051 15.1146 3.65856 15.0069 3.56134 14.8542L2.58218 13.1458C2.48495 12.9931 2.45023 12.8264 2.47801 12.6458C2.50579 12.4653 2.58912 12.3194 2.72801 12.2083L4.08218 11.0208C4.0544 10.8542 4.03356 10.6875 4.01968 10.5208C4.00579 10.3542 3.99884 10.1806 3.99884 10C3.99884 9.81944 4.00579 9.64583 4.01968 9.47917C4.03356 9.3125 4.0544 9.14583 4.08218 8.97917L2.72801 7.79167C2.58912 7.68056 2.50579 7.53472 2.47801 7.35417C2.45023 7.17361 2.48495 7.00694 2.58218 6.85417L3.56134 5.14583C3.65856 4.99306 3.79051 4.88194 3.95718 4.8125C4.12384 4.74306 4.29051 4.74306 4.45718 4.8125L6.16551 5.39583C6.4294 5.17361 6.71065 4.97917 7.00926 4.8125C7.30787 4.64583 7.6169 4.5 7.93634 4.375L8.26968 2.60417C8.29745 2.42361 8.38426 2.27778 8.53009 2.16667C8.67593 2.05556 8.83912 2 9.01968 2H10.978C11.1586 2 11.3218 2.05556 11.4676 2.16667C11.6134 2.27778 11.7002 2.42361 11.728 2.60417L12.0613 4.375C12.3808 4.5 12.6898 4.64583 12.9884 4.8125C13.287 4.97917 13.5683 5.17361 13.8322 5.39583L15.5405 4.8125C15.7072 4.75694 15.8738 4.76042 16.0405 4.82292C16.2072 4.88542 16.3391 4.99306 16.4363 5.14583L17.4155 6.85417C17.5127 7.00694 17.5475 7.17361 17.5197 7.35417C17.4919 7.53472 17.4086 7.68056 17.2697 7.79167L15.9155 8.97917C15.9433 9.14583 15.9641 9.3125 15.978 9.47917C15.9919 9.64583 15.9988 9.81944 15.9988 10C15.9988 10.0833 15.9954 10.1667 15.9884 10.25C15.9815 10.3333 15.9711 10.4167 15.9572 10.5H14.4572C14.4711 10.4167 14.4815 10.3333 14.4884 10.25C14.4954 10.1667 14.4988 10.0833 14.4988 10C14.4988 9.75 14.4745 9.49306 14.4259 9.22917C14.3773 8.96528 14.3113 8.70833 14.228 8.45833L15.8113 7.0625L15.4363 6.4375L13.4363 7.10417C13.0752 6.6875 12.6725 6.34722 12.228 6.08333C11.7836 5.81944 11.2975 5.64583 10.7697 5.5625L10.3738 3.5H9.62384L9.22801 5.5625C8.70023 5.65972 8.21065 5.84028 7.75926 6.10417C7.30787 6.36806 6.90857 6.70139 6.56134 7.10417L4.56134 6.4375L4.18634 7.0625L5.76968 8.45833C5.68634 8.70833 5.62037 8.96181 5.57176 9.21875C5.52315 9.47569 5.49884 9.73611 5.49884 10C5.49884 10.2778 5.51968 10.5451 5.56134 10.8021C5.60301 11.059 5.66551 11.3056 5.74884 11.5417L4.18634 12.9375L4.54051 13.5625L6.54051 12.8958C6.91551 13.3403 7.35648 13.6944 7.86343 13.9583C8.37037 14.2222 8.91551 14.3958 9.49884 14.4792V18Z" fill="currentColor"/>
  </g>
</svg>
