<svg xmlns="http://www.w3.org/2000/svg" xmlns:xlink="http://www.w3.org/1999/xlink" width="15.681" height="14.976" viewBox="0 0 15.681 14.976"><defs><style>.a{fill:url(#a);}.b{fill:url(#b);}.c{fill:url(#c);}.d{fill:url(#d);}.e{fill:url(#e);}.f{fill:url(#f);}.g{fill:url(#g);}</style><linearGradient id="a" x1="0.463" y1="0.914" x2="0.463" y2="-0.169" gradientUnits="objectBoundingBox"><stop offset="0" stop-color="#ffcf95"/><stop offset="0.427" stop-color="#ffc954"/><stop offset="1" stop-color="#ffc200"/></linearGradient><linearGradient id="b" x1="1.217" y1="1.457" x2="-0.633" y2="1.457" gradientUnits="objectBoundingBox"><stop offset="0" stop-color="#ffc200" stop-opacity="0"/><stop offset="0.203" stop-color="#fb0" stop-opacity="0.204"/><stop offset="0.499" stop-color="#ffa700" stop-opacity="0.498"/><stop offset="0.852" stop-color="#f80" stop-opacity="0.851"/><stop offset="1" stop-color="#ff7800"/></linearGradient><linearGradient id="c" x1="0.518" y1="-0.407" x2="0.353" y2="1.223" xlink:href="#b"/><linearGradient id="d" x1="-0.462" y1="-1.03" x2="0.591" y2="-0.306" xlink:href="#b"/><linearGradient id="e" x1="-0.151" y1="-0.116" x2="0.585" y2="-0.571" xlink:href="#b"/><linearGradient id="f" x1="0.61" y1="2.287" x2="0.415" y2="1.017" xlink:href="#b"/><linearGradient id="g" x1="1.34" y1="1.58" x2="-0.083" y2="0.368" xlink:href="#b"/></defs><g transform="translate(-114.142 -55.001)"><g transform="translate(114.142 55.001)"><path class="a" d="M8.417,11.859l2.074,4.2,4.638.674a.643.643,0,0,1,.357,1.1L12.13,21.1l.792,4.619a.643.643,0,0,1-.934.678L7.84,24.221,3.692,26.4a.643.643,0,0,1-.934-.678L3.551,21.1.195,17.833a.643.643,0,0,1,.357-1.1l4.638-.674,2.074-4.2A.643.643,0,0,1,8.417,11.859Z" transform="translate(0 -11.501)"/><path class="b" d="M258.652,16.062l-2.074-4.2A.636.636,0,0,0,256,11.5v7.956Z" transform="translate(-248.161 -11.501)"/><path class="c" d="M260.289,200.942l3.356-3.271a.635.635,0,0,0,.165-.651L256,199.295Z" transform="translate(-248.16 -191.338)"/><path class="d" d="M260.828,278.183,256,271.289v4.764l4.148,2.181A.636.636,0,0,0,260.828,278.183Z" transform="translate(-248.16 -263.333)"/><path class="e" d="M94.849,271.289l-4.289,1.647-.792,4.619a.636.636,0,0,0,.254.628Z" transform="translate(-87.008 -263.333)"/><path class="f" d="M.968,161.55l7.811,2.275-2.651-3.4L1.49,161.1a.636.636,0,0,0-.522.447Z" transform="translate(-0.938 -155.868)"/><path class="g" d="M3.557,200.943.2,197.672a.635.635,0,0,1-.165-.651L7.846,199.3Z" transform="translate(-0.006 -191.339)"/></g></g></svg>