<svg xmlns="http://www.w3.org/2000/svg" width="37.021" height="37.021" viewBox="0 0 37.021 37.021">
  <g id="tick-4" transform="translate(0 0.001)">
    <path id="Subtraction_4" data-name="Subtraction 4" d="M-3355.99-9469.479a18.532,18.532,0,0,1-18.509-18.512,18.531,18.531,0,0,1,18.509-18.51,18.532,18.532,0,0,1,18.511,18.51A18.533,18.533,0,0,1-3355.99-9469.479Zm-8.1-20.718a1.41,1.41,0,0,0-1.007.407,1.537,1.537,0,0,0-.458,1.092,1.413,1.413,0,0,0,.407,1.01l5.6,5.752a1.518,1.518,0,0,0,1.05.451,1.728,1.728,0,0,0,1.05-.4l10.657-10.106a1.469,1.469,0,0,0,.475-1.047,1.435,1.435,0,0,0-.425-1.053,1.55,1.55,0,0,0-1.1-.458,1.543,1.543,0,0,0-1.048.405l-9.555,9.106-4.552-4.7A1.539,1.539,0,0,0-3364.087-9490.2Z" transform="translate(3374.5 9506.5)" fill="#fff"/>
  </g>
</svg>
