<svg id="followers" xmlns="http://www.w3.org/2000/svg" width="64.505" height="64.505" viewBox="0 0 64.505 64.505">
  <path id="Path_108942" data-name="Path 108942" d="M409.475,5.337H406V1.89a1.89,1.89,0,1,0-3.78,0V5.337h-3.473a1.89,1.89,0,0,0,0,3.78h3.473v3.447a1.89,1.89,0,1,0,3.78,0V9.116h3.474a1.89,1.89,0,0,0,0-3.78Z" transform="translate(-346.86)" fill="#2F0074"/>
  <path id="Path_108943" data-name="Path 108943" d="M10.876,317.582c0-.5.022-1,.061-1.5A14.053,14.053,0,0,1,4.2,312.022,12.533,12.533,0,0,0,0,321.389v15.827H10.876Z" transform="translate(0 -272.711)" fill="#ff71a4"/>
  <path id="Path_108944" data-name="Path 108944" d="M48.469,165.643a16.09,16.09,0,0,1-2.43-8.519c0-.337.012-.671.032-1a10.205,10.205,0,0,0-4.768,19.82,19.33,19.33,0,0,1,7.166-10.3Z" transform="translate(-29.694 -136.305)" fill="#ff71a4"/>
  <path id="Path_108945" data-name="Path 108945" d="M172.241,91.319a12.453,12.453,0,1,1,12.505-12.452A12.493,12.493,0,0,1,172.241,91.319Z" transform="translate(-139.611 -58.047)" fill="#2F0074"/>
  <path id="Path_108946" data-name="Path 108946" d="M145.8,256.369a16.3,16.3,0,0,1-23.005,0,15.452,15.452,0,0,0-6.472,12.572v19.634h35.949V268.941A15.452,15.452,0,0,0,145.8,256.369Z" transform="translate(-101.671 -224.07)" fill="#2F0074"/>
</svg>
