<svg xmlns="http://www.w3.org/2000/svg" width="12.898" height="19.807" viewBox="0 0 12.898 19.807">
  <g id="Group_51407" data-name="Group 51407" transform="translate(-153.301 -473.847)">
    <g id="unlocked-padlock" transform="translate(153.301 473.847)">
      <path id="Path_156008" data-name="Path 156008" d="M236.854,0h-.071A4.584,4.584,0,0,0,232.2,4.585v13.04a7.329,7.329,0,0,1,1.754-1.051c.171-.073.346-.139.521-.2V4.583a2.31,2.31,0,0,1,2.31-2.31h.071a2.31,2.31,0,0,1,2.31,2.31.971.971,0,0,0,.972.972h.332a.971.971,0,0,0,.972-.972A4.588,4.588,0,0,0,236.854,0Z" transform="translate(-230.37)" fill="#fff"/>
      <path id="Path_156009" data-name="Path 156009" d="M158.249,303.5a6.45,6.45,0,1,0,6.449,6.451A6.415,6.415,0,0,0,158.249,303.5Zm.68,7.075.494,2.342a.228.228,0,0,1-.223.275h-1.9a.227.227,0,0,1-.223-.275l.494-2.342a.452.452,0,0,0-.2-.476,1.661,1.661,0,1,1,1.761,0A.448.448,0,0,0,158.929,310.575Z" transform="translate(-151.8 -296.594)" fill="#fff"/>
    </g>
  </g>
</svg>
