<svg xmlns="http://www.w3.org/2000/svg" id="videoSettings" width="10.53" height="10.029" viewBox="0 0 20.53 15.029" fill="currentColor" >
  <g id="noun_Video_Settings_1612259" data-name="noun_Video Settings_1612259" transform="translate(-16.117 -25.245)">
    <path id="Path_170819" data-name="Path 170819" d="M69.5,33.183l4.747-2.971v7.3l-4.47-2.36" transform="translate(-37.995 -3.275)" fill="none" stroke="currentColor" stroke-miterlimit="10" stroke-width="0.8"/>
    <path id="Path_170820" data-name="Path 170820" d="M18.872,35.809h-1.2a1.155,1.155,0,0,1-1.155-1.155V26.8a1.155,1.155,0,0,1,1.155-1.155H30.345A1.155,1.155,0,0,1,31.5,26.8v7.855a1.155,1.155,0,0,1-1.154,1.155" fill="none" stroke="currentColor" stroke-miterlimit="10" stroke-width="0.8"/>
    <path id="Path_170821" data-name="Path 170821" d="M43.4,55.677a1.118,1.118,0,1,1-1.117-1.117A1.117,1.117,0,0,1,43.4,55.677Z" transform="translate(-17.679 -20.738)" fill="none" stroke="currentColor" stroke-miterlimit="10" stroke-width="0.8"/>
    <path id="Path_170822" data-name="Path 170822" d="M37.5,46.687V45.344l-1.119-.159a3.886,3.886,0,0,0-.536-1.292l.678-.9-.949-.95-.9.678a3.905,3.905,0,0,0-1.286-.532l-.156-1.1H31.886l-.158,1.1a3.888,3.888,0,0,0-1.292.536l-.893-.671L28.6,43l.67.893a3.883,3.883,0,0,0-.532,1.285l-1.129.161v1.343l1.129.159a3.87,3.87,0,0,0,.529,1.281l-.685.914.95.95.911-.685a3.856,3.856,0,0,0,1.292.536l.156,1.108h1.342l.158-1.109a3.9,3.9,0,0,0,1.29-.535l.891.671.949-.95-.67-.893a3.861,3.861,0,0,0,.535-1.29Zm-4.944,1.569a2.241,2.241,0,1,1,2.24-2.241A2.241,2.241,0,0,1,32.559,48.256Z" transform="translate(-7.952 -11.076)" fill="none" stroke="currentColor" stroke-miterlimit="10" stroke-width="0.8"/>
  </g>
</svg>
