
<svg id="analytics" color="currentColor" xmlns="http://www.w3.org/2000/svg" width="142" height="159.5" viewBox="0 0 142 159.5">
  <g id="Group_40539" data-name="Group 40539" transform="translate(-8073 10905.5)">
    <g id="analytics" transform="translate(8086 -10905.512)">
      <path id="Path_109017" data-name="Path 109017" d="M3.971.012H111.179a3.971,3.971,0,0,1,3.971,3.971V87.367a3.971,3.971,0,0,1-3.971,3.97H3.971A3.971,3.971,0,0,1,0,87.367V3.983A3.971,3.971,0,0,1,3.971.012Zm0,0" transform="translate(0)" fill="#35495e"/>
      <path id="Path_109018" data-name="Path 109018" d="M115.149,145.777v52a3.982,3.982,0,0,1-3.971,3.97H3.97A3.982,3.982,0,0,1,0,197.773V173.631c19.734-15.089,62.32-40.244,115.15-27.855Zm0,0" transform="translate(0 -110.407)" fill="#2c3e50"/>
      <path id="Path_109019" data-name="Path 109019" d="M115.149,335.461v11.912a3.982,3.982,0,0,1-3.971,3.97H3.97A3.982,3.982,0,0,1,0,347.373V335.461Zm0,0" transform="translate(0 -260.006)" fill="#bdc3c7"/>
      <path id="Path_109020" data-name="Path 109020" d="M202.575,421.961c-11.844-1.985-9.87-15.883-9.87-15.883H168.769s1.974,13.9-9.87,15.883Zm0,0" transform="translate(-123.162 -314.741)" fill="#95a5a5"/>
      <path id="Path_109021" data-name="Path 109021" d="M161.733,484.641H90.26a1.985,1.985,0,0,1-1.587-3.177l1.786-2.383a5.958,5.958,0,0,1,4.765-2.383h61.546a5.958,5.958,0,0,1,4.765,2.383l1.786,2.383a1.985,1.985,0,0,1-1.587,3.177Zm0,0" transform="translate(-68.422 -369.48)" fill="#bdc3c7"/>
      <path id="Path_109022" data-name="Path 109022" d="M415.478,374.56l-5.619,5.618a2,2,0,0,1-2.819,0l-2.8-2.819L388.8,361.913a1.977,1.977,0,0,1,0-2.8l5.619-5.619a1.977,1.977,0,0,1,2.8,0l2.819,2.819,2.8,2.8,7.028,7.028,2.8,2.8,2.819,2.8a2,2,0,0,1,0,2.819Zm0,0" transform="translate(-300.905 -273.534)" fill="#ff71a4"/>
      <path id="Path_109023" data-name="Path 109023" d="M348.867,319.185l5.618-5.618,9.43,9.43-5.618,5.619Zm0,0" transform="translate(-270.407 -243.036)" fill="#7f8c8d"/>
      <path id="Path_109024" data-name="Path 109024" d="M403.332,376.449l8.418-8.418,2.8,2.8-8.418,8.417Zm0,0" transform="translate(-312.622 -285.251)" fill="#e3e3e3"/>
      <path id="Path_109025" data-name="Path 109025" d="M447.031,420.148l8.417-8.418,2.8,2.8-8.418,8.418Zm0,0" transform="translate(-346.493 -319.122)" fill="#e3e3e3"/>
      <path id="Path_109026" data-name="Path 109026" d="M30.454,30.463H28.469a1.985,1.985,0,0,1,0-3.971h1.985a1.985,1.985,0,0,1,0,3.971Zm0,0" transform="translate(-20.528 -20.525)" fill="#c4e4ff"/>
      <path id="Path_109027" data-name="Path 109027" d="M161.947,30.463H72.606a1.985,1.985,0,0,1,0-3.971h89.34a1.985,1.985,0,0,1,0,3.971Zm0,0" transform="translate(-54.739 -20.525)" fill="#c4e4ff"/>
      <path id="Path_109028" data-name="Path 109028" d="M32.44,77.688a5.962,5.962,0,0,1-5.956-5.956V67.76a5.956,5.956,0,0,1,11.912,0v3.971A5.963,5.963,0,0,1,32.44,77.688Zm0-11.912a1.987,1.987,0,0,0-1.985,1.985v3.971a1.985,1.985,0,1,0,3.971,0V67.76A1.987,1.987,0,0,0,32.44,65.776Zm0,0" transform="translate(-20.528 -47.896)" fill="#fff"/>
      <path id="Path_109029" data-name="Path 109029" d="M32.44,174.789a5.962,5.962,0,0,1-5.956-5.956v-3.971a5.956,5.956,0,1,1,11.912,0v3.971A5.962,5.962,0,0,1,32.44,174.789Zm0-11.912a1.987,1.987,0,0,0-1.985,1.985v3.971a1.985,1.985,0,0,0,3.971,0v-3.971A1.987,1.987,0,0,0,32.44,162.877Zm0,0" transform="translate(-20.528 -123.158)" fill="#fff"/>
      <path id="Path_109030" data-name="Path 109030" d="M438.507,271.895a5.963,5.963,0,0,1-5.956-5.956v-3.971a5.956,5.956,0,0,1,11.912,0v3.971A5.962,5.962,0,0,1,438.507,271.895Zm0-11.912a1.987,1.987,0,0,0-1.985,1.985v3.971a1.985,1.985,0,1,0,3.971,0v-3.971A1.987,1.987,0,0,0,438.507,259.983Zm0,0" transform="translate(-335.27 -198.425)" fill="#fff"/>
      <path id="Path_109031" data-name="Path 109031" d="M90.262,77.688A1.985,1.985,0,0,1,88.277,75.7V63.79a1.985,1.985,0,1,1,3.97,0V75.7A1.985,1.985,0,0,1,90.262,77.688Zm0,0" transform="translate(-68.424 -47.896)" fill="#ff71a4"/>
      <path id="Path_109032" data-name="Path 109032" d="M412.026,77.688a5.962,5.962,0,0,1-5.956-5.956V67.76a5.956,5.956,0,0,1,11.912,0v3.971A5.963,5.963,0,0,1,412.026,77.688Zm0-11.912a1.988,1.988,0,0,0-1.985,1.985v3.971a1.985,1.985,0,1,0,3.971,0V67.76A1.987,1.987,0,0,0,412.026,65.776Zm0,0" transform="translate(-314.745 -47.896)" fill="#fff"/>
      <g id="Group_40537" data-name="Group 40537" transform="translate(9.926 13.909)">
        <path id="Path_109033" data-name="Path 109033" d="M469.848,77.688a1.985,1.985,0,0,1-1.985-1.985V63.79a1.985,1.985,0,1,1,3.97,0V75.7A1.985,1.985,0,0,1,469.848,77.688Zm0,0" transform="translate(-372.566 -61.805)" fill="#ff71a4"/>
        <path id="Path_109034" data-name="Path 109034" d="M461.02,174.789a1.986,1.986,0,0,1-1.985-1.985V160.891a1.985,1.985,0,0,1,3.971,0V172.8A1.986,1.986,0,0,1,461.02,174.789Zm0,0" transform="translate(-365.723 -137.068)" fill="#ff71a4"/>
        <path id="Path_109035" data-name="Path 109035" d="M46.122,271.895a1.986,1.986,0,0,1-1.985-1.985V258a1.985,1.985,0,1,1,3.971,0v11.912A1.986,1.986,0,0,1,46.122,271.895Zm0,0" transform="translate(-44.137 -212.334)" fill="#ff71a4"/>
      </g>
      <path id="Path_109036" data-name="Path 109036" d="M173.432,104.383a33.751,33.751,0,1,1-33.751-33.75A33.751,33.751,0,0,1,173.432,104.383Zm0,0" transform="translate(-82.107 -54.738)" fill="#95a5a5"/>
      <path id="Path_109037" data-name="Path 109037" d="M187.768,124.893a27.826,27.826,0,1,1-3.229-12.978,27.827,27.827,0,0,1,3.229,12.978Zm0,0" transform="translate(-102.399 -75.248)" fill="#fff"/>
      <path id="Path_109038" data-name="Path 109038" d="M192.644,131.735a25.838,25.838,0,1,1-3-12.051,25.839,25.839,0,0,1,3,12.051Zm0,0" transform="translate(-109.261 -82.091)" fill="#67b9cc"/>
      <path id="Path_109039" data-name="Path 109039" d="M210.446,179.168a25.8,25.8,0,0,1-46.516,15.386,72.419,72.419,0,0,1,43.519-27.437,25.673,25.673,0,0,1,3,12.051Zm0,0" transform="translate(-127.062 -129.523)" fill="#2fa8cc"/>
      <path id="Path_109040" data-name="Path 109040" d="M205.02,220.7h3.97a1.985,1.985,0,0,1,1.985,1.985v7.942a1.985,1.985,0,0,1-1.985,1.985h-3.97a1.986,1.986,0,0,1-1.985-1.985v-7.942A1.986,1.986,0,0,1,205.02,220.7Zm0,0" transform="translate(-158.372 -171.054)" fill="#e3e3e3"/>
      <path id="Path_109041" data-name="Path 109041" d="M240.329,185.391H244.3a1.986,1.986,0,0,1,1.985,1.985v15.883a1.986,1.986,0,0,1-1.985,1.985h-3.971a1.986,1.986,0,0,1-1.985-1.985V187.376a1.986,1.986,0,0,1,1.985-1.985Zm0,0" transform="translate(-184.74 -143.687)" fill="#ff71a4"/>
      <path id="Path_109042" data-name="Path 109042" d="M275.641,158.906h3.97a1.986,1.986,0,0,1,1.985,1.985v21.839a1.986,1.986,0,0,1-1.985,1.985h-3.97a1.985,1.985,0,0,1-1.985-1.985V160.891A1.985,1.985,0,0,1,275.641,158.906Zm0,0" transform="translate(-211.111 -123.159)" fill="#e3e3e3"/>
    </g>
    <text id="No_data_available" data-name="No data available" transform="translate(8144 -10752)" fill="currentColor" font-size="18" font-family="Avenir-Book, Avenir"><tspan x="-70.506" y="0">No data available</tspan></text>
  </g>
</svg>
