<svg xmlns="http://www.w3.org/2000/svg" width="80.069" height="106.741" viewBox="0 0 80.069 106.741">
  <g id="map-pointer" transform="translate(-24)">
    <path id="Path_8553" data-name="Path 8553" d="M64.035,0A40.08,40.08,0,0,0,24,40.035c0,28.208,35.383,63.915,36.889,65.421a4.492,4.492,0,0,0,6.291,0c1.506-1.506,36.889-37.214,36.889-65.421A40.08,40.08,0,0,0,64.035,0Z" fill="#ff71a4"/>
    <path id="Path_8554" data-name="Path 8554" d="M37.345,35.924A40.067,40.067,0,0,1,58.257.76,40.09,40.09,0,0,0,24,40.372c0,28.208,35.383,63.915,36.889,65.421a4.492,4.492,0,0,0,6.291,0c.346-.346,2.488-2.507,5.578-5.966-6.958-7.281-35.413-38.6-35.413-63.9Z" transform="translate(0 -0.337)" fill="#ff71a4"/>
    <ellipse id="Ellipse_547" data-name="Ellipse 547" cx="27" cy="26.5" rx="27" ry="26.5" transform="translate(37 13.773)" fill="#d4f5fc"/>
    <path id="Path_8555" data-name="Path 8555" d="M99.787,53.131l-17.793-8.9a2.224,2.224,0,0,0-1.989,0l-17.793,8.9L64.2,57.11l5.678-2.839V68.465A2.224,2.224,0,0,0,72.1,70.69H89.9a2.224,2.224,0,0,0,2.224-2.224V54.271L97.8,57.11Z" transform="translate(-16.964 -19.534)" fill="#ff71a4"/>
  </g>
</svg>
