<svg xmlns="http://www.w3.org/2000/svg" width="110.237" height="154.427" viewBox="0 0 110.237 154.427">
  <g id="noun_mobile_video_chat_3616237" data-name="noun_mobile video chat_3616237" transform="translate(-6 -1.983)">
    <g id="_98_live_chat" data-name="98 live chat" transform="translate(6 1.983)">
      <path id="Path_171939" data-name="Path 171939" d="M101.19,24.125h-7.5a30.152,30.152,0,0,1,.5,5.512,33.071,33.071,0,0,1-6.614,19.843,42.442,42.442,0,0,1,4.74,4.134,43.489,43.489,0,0,1,12.9,31.142A11.024,11.024,0,0,1,94.19,95.779H28.047A11.024,11.024,0,0,1,17.024,84.755a43.489,43.489,0,0,1,2.591-14.827,42.5,42.5,0,0,1,15.1-20.449,32.685,32.685,0,0,1-6.669-19.843,30.149,30.149,0,0,1,.5-5.512h-7.5A15.047,15.047,0,0,0,6,39.172v78.654H116.237V39.172A15.047,15.047,0,0,0,101.19,24.125Zm-40.071,88.19H28.047a5.512,5.512,0,1,1,0-11.024H61.119a5.512,5.512,0,0,1,0,11.024Zm16.536,0a5.512,5.512,0,1,1,5.512-5.512A5.512,5.512,0,0,1,77.654,112.315Zm16.536,0A5.512,5.512,0,1,1,99.7,106.8,5.512,5.512,0,0,1,94.19,112.315ZM6,141.362A15.047,15.047,0,0,0,21.047,156.41H101.19a15.047,15.047,0,0,0,15.047-15.047V128.85H6Zm71.654-7H88.678a5.512,5.512,0,0,1,0,11.024H77.654a5.512,5.512,0,0,1,0-11.024Zm-16.536,0a5.512,5.512,0,1,1-5.512,5.512A5.512,5.512,0,0,1,61.119,134.362Zm-27.559,0H44.583a5.512,5.512,0,1,1,0,11.024H33.559a5.512,5.512,0,1,1,0-11.024Zm0-104.725A27.559,27.559,0,1,1,78.922,50.582,38.583,38.583,0,0,1,99.7,84.755a5.512,5.512,0,0,1-5.512,5.512H28.047a5.512,5.512,0,0,1-5.512-5.512,37.591,37.591,0,0,1,2.26-12.9A37.977,37.977,0,0,1,43.37,50.527a27.559,27.559,0,0,1-9.811-20.89Z" transform="translate(-6 -1.983)" fill="#bec2ce"/>
    </g>
  </g>
</svg>
