<svg xmlns="http://www.w3.org/2000/svg" id="noOrderFound" width="74.986" height="92.695" viewBox="0 0 74.986 92.695">
  <g id="no_order" data-name="no order" transform="translate(2055.582 -5497.5)">
    <g id="noun_order_4081161" transform="translate(-2055.582 5497.5)">
      <circle id="Ellipse_1717" data-name="Ellipse 1717" cx="1.579" cy="1.579" r="1.579" transform="translate(6.705 5.353)" fill="#ff71a4"/>
      <circle id="Ellipse_1718" data-name="Ellipse 1718" cx="1.579" cy="1.579" r="1.579" transform="translate(28.107 5.353)" fill="#ff71a4"/>
      <circle id="Ellipse_1719" data-name="Ellipse 1719" cx="1.579" cy="1.579" r="1.579" transform="translate(17.406 5.353)" fill="#ff71a4"/>
      <path id="Path_170793" data-name="Path 170793" d="M48,167.974H98.7v-13.2a6.076,6.076,0,0,1,5.991-6.033h13.247V96H48Zm28.334-55h28.49a1.132,1.132,0,1,1,0,2.263H76.334a1.132,1.132,0,1,1,0-2.263Zm0,11.317h28.49a1.132,1.132,0,0,1,0,2.263H76.334a1.132,1.132,0,0,1,0-2.263Zm0,13.354H91.7a1.132,1.132,0,0,1,0,2.263H76.334a1.132,1.132,0,0,1,0-2.263Zm-9.309-24.67H71a1.132,1.132,0,1,1,0,2.263H67.026a1.132,1.132,0,1,1,0-2.263Zm0,11.317H71a1.132,1.132,0,0,1,0,2.263H67.026a1.132,1.132,0,0,1,0-2.263Zm0,13.354H71a1.132,1.132,0,1,1,0,2.263H67.026a1.132,1.132,0,1,1,0-2.263Zm-5.775-24.67h.526a1.132,1.132,0,1,1,0,2.263H61.25a1.132,1.132,0,0,1,0-2.263Zm0,11.317h.526a1.132,1.132,0,0,1,0,2.263H61.25a1.132,1.132,0,0,1,0-2.263Zm0,13.354h.526a1.132,1.132,0,1,1,0,2.263H61.25a1.132,1.132,0,0,1,0-2.263Zm-8.271-36.582a1.132,1.132,0,1,1,2.263,0v.772a1.132,1.132,0,1,1-2.263,0Zm0,5.072a1.132,1.132,0,1,1,2.263,0v23.418a1.132,1.132,0,0,1-2.263,0Z" transform="translate(-48 -80.157)" fill="#ff71a4"/>
      <circle id="Ellipse_1720" data-name="Ellipse 1720" cx="1.579" cy="1.579" r="1.579" transform="translate(38.808 5.353)" fill="#ff71a4"/>
      <circle id="Ellipse_1721" data-name="Ellipse 1721" cx="1.579" cy="1.579" r="1.579" transform="translate(60.21 5.353)" fill="#ff71a4"/>
      <path id="Path_170796" data-name="Path 170796" d="M268.324,52.8a1.579,1.579,0,1,0-1.579-1.579A1.579,1.579,0,0,0,268.324,52.8Z" transform="translate(-217.236 -44.293)" fill="#ff71a4"/>
      <path id="Path_170797" data-name="Path 170797" d="M48,39.58h69.937V26H48Zm61.789-10.491a3.843,3.843,0,1,1-3.843,3.843A3.843,3.843,0,0,1,109.789,29.089Zm-10.7,0a3.843,3.843,0,1,1-3.842,3.843,3.843,3.843,0,0,1,3.842-3.843Zm-10.7,0a3.843,3.843,0,1,1-3.843,3.843,3.843,3.843,0,0,1,3.843-3.843Zm-10.7,0a3.843,3.843,0,1,1-3.842,3.843,3.843,3.843,0,0,1,3.842-3.843Zm-10.7,0a3.843,3.843,0,1,1-3.843,3.843,3.843,3.843,0,0,1,3.843-3.843Zm-10.7,0a3.843,3.843,0,1,1-3.842,3.843,3.843,3.843,0,0,1,3.842-3.843Z" transform="translate(-48 -26)" fill="#ff71a4"/>
    </g>
    <path id="Icon_ionic-ios-close-circle" data-name="Icon ionic-ios-close-circle" d="M18.286,3.375A14.911,14.911,0,1,0,33.2,18.286,14.909,14.909,0,0,0,18.286,3.375Zm3.778,20.31-3.778-3.778-3.778,3.778a1.146,1.146,0,1,1-1.62-1.62l3.778-3.778-3.778-3.778a1.146,1.146,0,1,1,1.62-1.62l3.778,3.778,3.778-3.778a1.146,1.146,0,1,1,1.62,1.62l-3.778,3.778,3.778,3.778a1.151,1.151,0,0,1,0,1.62A1.138,1.138,0,0,1,22.064,23.685Z" transform="translate(-2013.793 5556.998)" fill="#2F0074"/>
  </g>
</svg>
