<svg xmlns="http://www.w3.org/2000/svg" width="111.95" height="100.148" viewBox="0 0 111.95 100.148"><defs><style>.a{fill:#fff;}.b{fill:#3eb2fd;}.c{fill:#61acf1;}.d{fill:#88d1fd;}.e{fill:#309ade;}</style></defs><g transform="translate(3320 -7778.854)"><g transform="translate(-3320 7778.854)"><path class="a" d="M56,176h7.7v34.667H56Zm0,0" transform="translate(-42.519 -133.63)"/><path class="b" d="M3.852,384H0v7.7H46.222V384Zm0,0" transform="translate(0 -291.556)"/><path class="c" d="M120.486,352H16v7.7H120.486Zm0,0" transform="translate(-12.148 -267.26)"/><path class="d" d="M55.407,320H40v7.7H55.407Zm0,0" transform="translate(-30.37 -242.963)"/><path class="d" d="M55.407,151.7V144H40v7.7Zm0,0" transform="translate(-30.37 -109.333)"/><path class="a" d="M376,176h7.7v35.705H376Zm0,0" transform="translate(-285.482 -133.63)"/><path class="d" d="M360,151.7h15.407V144H360Zm0,0" transform="translate(-273.334 -109.333)"/><path class="a" d="M160,176v34.667h7.7V176Zm0,0" transform="translate(-121.482 -133.63)"/><path class="d" d="M144,320v7.7h15.406V320Zm0,0" transform="translate(-109.333 -242.963)"/><path class="d" d="M147.852,151.7h11.556V144H144v7.7Zm0,0" transform="translate(-109.333 -109.333)"/><path class="a" d="M272,176h7.7v35.705H272Zm0,0" transform="translate(-206.519 -133.63)"/><path class="d" d="M259.852,151.7h11.555V144H256v7.7Zm0,0" transform="translate(-194.371 -109.333)"/><path class="b" d="M0,15.407V34.667H111.7V15.407L55.852,0ZM104,26.963H7.7V21.274L55.852,7.985,104,21.274Zm0,0"/><path class="a" d="M32,46.457v5.689h96.3V46.457L80.148,33.168Zm52-3.94a3.852,3.852,0,1,1-3.852-3.852A3.852,3.852,0,0,1,84,42.516Zm0,0" transform="translate(-24.296 -25.183)"/><path class="e" d="M223.7,59.852A3.852,3.852,0,1,1,219.852,56,3.852,3.852,0,0,1,223.7,59.852Zm0,0" transform="translate(-164 -42.519)"/><path class="b" d="M5.8,384H0v7.7H69.579V384Zm0,0" transform="translate(42.37 -291.556)"/><path class="d" d="M144,320v7.7h15.406V320Zm0,0" transform="translate(-82.609 -242.963)"/><path class="d" d="M144,320v7.7h15.406V320Zm0,0" transform="translate(-57.329 -242.963)"/></g></g></svg>