<svg xmlns="http://www.w3.org/2000/svg" width="117.879" height="89.93" viewBox="0 0 117.879 89.93"><defs><style>.a{fill:#ff71a4;}.b{fill:#d4f5fc;}.c{fill:#ff71a4;}.d{fill:#d4f5fc;}</style></defs><g transform="translate(0 0)"><g transform="translate(0 20.282) rotate(-11)"><path class="a" d="M92.84,70.952H13.454A13.469,13.469,0,0,1,0,57.5V13.454A13.469,13.469,0,0,1,13.454,0H92.84a13.469,13.469,0,0,1,13.454,13.454V57.5A13.469,13.469,0,0,1,92.84,70.952Z" transform="translate(0 0)"/><path class="b" d="M102.937,21.727H3.357A3.357,3.357,0,0,1,0,18.37V3.357A3.357,3.357,0,0,1,3.357,0h99.58a3.357,3.357,0,0,1,3.357,3.357V18.37A3.357,3.357,0,0,1,102.937,21.727Z" transform="translate(0 16.102)"/><path class="c" d="M17.034,5.224A134.09,134.09,0,0,1,0,9.42v6.065A13.469,13.469,0,0,0,13.454,28.938H92.84a13.469,13.469,0,0,0,13.454-13.454V8.966C86.7.769,48.348-4.434,17.034,5.224Z" transform="translate(0 42.013)"/><circle class="d" cx="3.542" cy="3.542" r="3.542" transform="translate(84.339 48.742)"/><circle class="d" cx="3.542" cy="3.542" r="3.542" transform="translate(74.41 48.742)"/><circle class="b" cx="3.542" cy="3.542" r="3.542" transform="translate(84.339 48.742)"/><circle class="b" cx="3.542" cy="3.542" r="3.542" transform="translate(74.41 48.742)"/></g></g></svg>