<svg xmlns="http://www.w3.org/2000/svg" width="75.014" height="61.681" viewBox="0 0 75.014 61.681">
  <path id="for_taggs" data-name="for taggs" d="M119.667,123.241l23.778,23.777a6.692,6.692,0,0,1-7.84-1.172l-19.463-19.463a6.689,6.689,0,0,1,0-9.429l26.129-26.129a18.547,18.547,0,0,1,11.382-4.714L119.666,120.1a2.23,2.23,0,0,0,0,3.143m53.987-14.905a6.667,6.667,0,1,1,6.668-6.669,6.669,6.669,0,0,1-6.668,6.669m8.891-22.226H166.988a18.552,18.552,0,0,0-11.382,4.714l-26.129,26.129a6.689,6.689,0,0,0,0,9.429l19.463,19.463a6.687,6.687,0,0,0,9.428,0L184.5,119.716a18.556,18.556,0,0,0,4.715-11.38V92.778a6.687,6.687,0,0,0-6.668-6.666" transform="translate(-114.198 -86.11)" fill="#ff71a4"/>
</svg>
