<svg xmlns="http://www.w3.org/2000/svg" width="47.31" height="67.326" viewBox="0 0 47.31 67.326">
  <g id="noun-lock-1075135" transform="translate(-152.83 -0.002)">
    <path id="Path_49" data-name="Path 49"
      d="M194.262,28h-.42V17.358A17.353,17.353,0,0,0,176.485,0a17.838,17.838,0,0,0-12.318,5.039,17.838,17.838,0,0,0-5.039,12.318V28h-.42a5.914,5.914,0,0,0-5.879,5.879V61.449a5.914,5.914,0,0,0,5.879,5.879h35.552a5.914,5.914,0,0,0,5.879-5.879V33.875A5.914,5.914,0,0,0,194.261,28ZM181.524,56.55H171.447l1.68-8.818a5.628,5.628,0,0,1-2.379-4.619,5.739,5.739,0,1,1,11.477,0,5.629,5.629,0,0,1-2.379,4.619ZM187.963,28H165.007V17.358a11.478,11.478,0,1,1,22.956,0Z"
      transform="translate(0)" fill="#ff71a4" />
  </g>
</svg>