<svg xmlns="http://www.w3.org/2000/svg" width="61.982" height="68.182" viewBox="0 0 61.982 68.182">
  <g id="no_post" data-name="no post" transform="translate(-157 -506)">
    <g id="Group_40394" data-name="Group 40394" transform="translate(-6425.615 -8979.615)">
      <path id="Subtraction_9" data-name="Subtraction 9" d="M45.984,68.181H16a16,16,0,0,1-16-16V16A16,16,0,0,1,16,0H45.984a16,16,0,0,1,16,16V52.182a16,16,0,0,1-16,16ZM16.313,4.989a11,11,0,0,0-11,11v36.2a11,11,0,0,0,11,11H45.671a11,11,0,0,0,11-11v-36.2a11,11,0,0,0-11-11Z" transform="translate(6582.615 9485.615)" fill="#485164"/>
      <rect id="Rectangle" width="37.19" height="19.956" rx="5" transform="translate(6595.012 9497.256)" fill="#485164"/>
    </g>
  </g>
</svg>
