<svg id="no_transactions_found" xmlns="http://www.w3.org/2000/svg" xmlns:xlink="http://www.w3.org/1999/xlink" width="94" height="92.225" viewBox="0 0 94 92.225" fill="currentColor"><defs>
<style>.a{fill:#2F0074;}.b{fill:#ff71a4;}.c{fill:url(#a);}.d{fill:#fff;}</style>
<linearGradient id="a" x1="0.223" y1="1.245" x2="0.259" y2="-0.145" gradientUnits="objectBoundingBox"><stop offset="0" stop-color="#2F0074"/><stop offset="1" stop-color="#ff71a4"/></linearGradient></defs><g transform="translate(0 -4.836)"><circle class="a" cx="29.431" cy="29.431" r="29.431" transform="translate(17.442 21.517)"/><circle class="b" cx="27.975" cy="27.975" r="27.975" transform="translate(18.898 22.973)"/><path class="c" d="M22.573,0A22.573,22.573,0,1,1,0,22.573,22.573,22.573,0,0,1,22.573,0Z" transform="translate(24.3 28.375)"/><path class="d" fill="#fff"  d="M204,189.414a2.685,2.685,0,0,1,.585-1.595,1.66,1.66,0,0,1,1.338-.8,2.281,2.281,0,0,1,1.311.735,13.932,13.932,0,0,0,2.23,1.574,7.321,7.321,0,0,0,3.283.965v-9.862q-1.261-.461-1.934-.735t-1.787-.8a6.777,6.777,0,0,1-1.724-1.091,15.515,15.515,0,0,1-1.282-1.364,4.838,4.838,0,0,1-.967-1.868,8.924,8.924,0,0,1-.294-2.371,6.777,6.777,0,0,1,2.292-5.546,10.552,10.552,0,0,1,5.7-2.271v-1.22a.858.858,0,0,1,.357-.673,1.315,1.315,0,0,1,.862-.294,1.428,1.428,0,0,1,.862.294.836.836,0,0,1,.4.673v1.135a15.438,15.438,0,0,1,4.731.862q2.166.779,2.166,2.166a3,3,0,0,1-.509,1.577,1.54,1.54,0,0,1-1.357.82,7.122,7.122,0,0,1-1.842-.715,8.941,8.941,0,0,0-3.189-.841V176.7a27.537,27.537,0,0,1,2.781,1.2,13.473,13.473,0,0,1,2.342,1.574,6.3,6.3,0,0,1,1.861,2.539,9.433,9.433,0,0,1,.627,3.588,8.451,8.451,0,0,1-2.049,5.973,9.059,9.059,0,0,1-5.562,2.722v1.4a.819.819,0,0,1-.4.661,1.444,1.444,0,0,1-.862.289,1.331,1.331,0,0,1-.862-.288.84.84,0,0,1-.357-.661v-1.279a11.506,11.506,0,0,1-6.2-1.674Q204,191.11,204,189.414Zm4.92-17.626a3.082,3.082,0,0,0,1.02,2.5A10.413,10.413,0,0,0,213,175.9v-7.645Q208.917,168.76,208.917,171.788Zm6.055,18.423q3.7-.671,3.7-4.155a4.109,4.109,0,0,0-.967-2.9,7.878,7.878,0,0,0-2.733-1.8v8.855Z" transform="translate(-166.544 -128.476)"/><path class="b" d="M104.132,25.253a4.125,4.125,0,0,0-4.972,1.786,46.134,46.134,0,0,0-83.222,9.378,4.125,4.125,0,0,0,7.83,2.6,37.894,37.894,0,0,1,67.823-8.522,4.125,4.125,0,0,0-2.026,7.954l8.589,3.143c.021.008.042.012.062.02.072.025.145.048.218.069l.118.033c.074.019.149.035.224.05.038.008.077.016.115.023.08.013.16.023.241.032.033,0,.066.009.1.012.113.009.226.015.34.015h0c.107,0,.214,0,.319-.013l.076-.009c.082-.008.163-.016.243-.029.031,0,.062-.012.094-.018.075-.014.15-.028.224-.045.035-.008.069-.019.1-.028.07-.019.14-.038.208-.06l.031-.009c.02-.007.039-.016.06-.023.091-.032.181-.066.269-.1l.113-.05c.086-.04.171-.084.254-.13.026-.015.054-.028.08-.043.1-.058.2-.122.293-.189.037-.026.073-.054.109-.081.064-.048.126-.1.187-.148.033-.028.066-.057.1-.086.069-.063.137-.128.2-.2.018-.019.037-.037.055-.056q.128-.137.243-.286l.015-.021c.068-.09.133-.184.195-.28l.048-.078q.071-.117.135-.24c.017-.034.035-.067.052-.1.037-.077.072-.156.1-.236.015-.037.032-.074.046-.111,0-.013.011-.025.016-.038l3.143-8.589A4.125,4.125,0,0,0,104.132,25.253Z" transform="translate(-12.84 0)"/><path class="b" d="M2.709,322.191a4.125,4.125,0,0,0,4.972-1.786A46.135,46.135,0,0,0,90.9,311.028a4.125,4.125,0,1,0-7.83-2.6,37.894,37.894,0,0,1-67.823,8.522A4.125,4.125,0,0,0,17.275,309l-8.589-3.143c-.021-.008-.041-.012-.062-.02-.072-.025-.145-.048-.218-.069l-.118-.033c-.074-.019-.149-.035-.224-.05-.038-.008-.077-.016-.115-.023-.08-.013-.16-.023-.241-.032-.033,0-.066-.009-.1-.012-.113-.009-.226-.015-.34-.015h0q-.161,0-.319.013l-.076.009c-.082.008-.163.016-.243.029l-.094.018c-.075.014-.15.028-.224.045-.035.008-.069.019-.1.028-.07.019-.14.038-.208.06l-.031.009c-.02.007-.039.016-.06.023-.091.032-.181.066-.269.1l-.113.05c-.086.04-.171.084-.254.13-.026.015-.054.028-.08.043-.1.058-.2.122-.293.189-.037.026-.073.054-.109.081-.064.048-.126.1-.187.148-.033.028-.066.057-.1.086-.069.063-.137.128-.2.2-.018.019-.037.036-.055.056q-.128.137-.243.286l-.015.021c-.068.09-.133.184-.195.28l-.048.078q-.071.117-.135.24c-.017.034-.035.067-.052.1-.037.077-.072.156-.1.236-.015.037-.032.074-.046.111,0,.013-.011.025-.016.038L.253,316.9A4.125,4.125,0,0,0,2.709,322.191Z" transform="translate(0 -245.548)"/></g></svg>