<svg xmlns="http://www.w3.org/2000/svg" width="70" height="41.127" viewBox="0 0 70 41.127">
  <g id="video-camera-3" transform="translate(0 -96.512)">
    <g id="Group_40839" data-name="Group 40839" transform="translate(0 96.512)">
      <g id="Group_40838" data-name="Group 40838" transform="translate(0 0)">
        <path id="Path_109018" data-name="Path 109018" d="M39.6,96.512H7.659A7.681,7.681,0,0,0,0,104.171v25.81a7.681,7.681,0,0,0,7.659,7.659H39.6a7.681,7.681,0,0,0,7.659-7.659v-25.81A7.632,7.632,0,0,0,39.6,96.512Z" transform="translate(0 -96.512)" fill="#ff71a4"/>
      </g>
    </g>
    <g id="Group_40841" data-name="Group 40841" transform="translate(51.083 100.601)">
      <g id="Group_40840" data-name="Group 40840" transform="translate(0 0)">
        <path id="Path_109019" data-name="Path 109019" d="M354.753,123.971a3.9,3.9,0,0,0-1.3.536L341.5,131.4v17.768l12.024,6.893a4.553,4.553,0,0,0,6.28-1.685,4.679,4.679,0,0,0,.613-2.3V128.413A4.609,4.609,0,0,0,354.753,123.971Z" transform="translate(-341.504 -123.847)" fill="#ff71a4"/>
      </g>
    </g>
  </g>
</svg>
