<svg xmlns="http://www.w3.org/2000/svg" width="74.695" height="74.695" viewBox="0 0 74.695 74.695">
  <g id="for_posts" data-name="for posts" transform="translate(2816.552 6610)">
    <path id="Path_173336" data-name="Path 173336" d="M417.974,37.341H403.445a4.021,4.021,0,0,0-.333-.626L409.9,34.89a7.99,7.99,0,0,1,8.07,2.451Z" transform="translate(-3174.232 -6644.619)" fill="#ff71a4"/>
    <path id="Path_173337" data-name="Path 173337" d="M107.341,129.24a7.99,7.99,0,0,0-2.451,8.07l2.451,9.149Z" transform="translate(-2921.171 -6724.838)" fill="#ff71a4"/>
    <path id="Path_173338" data-name="Path 173338" d="M579.949,326.776l-2.451-9.149v17.22a7.99,7.99,0,0,0,2.451-8.07Z" transform="translate(-3322.076 -6884.552)" fill="#ff71a4"/>
    <path id="Path_173339" data-name="Path 173339" d="M199.24,507.5a7.99,7.99,0,0,0,8.07,2.451l9.149-2.451Z" transform="translate(-3001.39 -7045.526)" fill="#ff71a4"/>
    <path id="Path_173340" data-name="Path 173340" d="M195.935,70H181.179a7.4,7.4,0,0,1,.106,1.332,9.322,9.322,0,0,1-18.645,0A7.4,7.4,0,0,1,162.747,70H147.991A7.99,7.99,0,0,0,140,77.991v47.944a7.99,7.99,0,0,0,7.991,7.991h47.944a7.99,7.99,0,0,0,7.991-7.991V77.991A7.99,7.99,0,0,0,195.935,70Zm-2.664,39.953H150.655a1.332,1.332,0,1,1,0-2.664h42.617a1.332,1.332,0,1,1,0,2.664Zm0-10.654H150.655a1.332,1.332,0,1,1,0-2.664h42.617a1.332,1.332,0,1,1,0,2.664Zm0-10.654H150.655a1.332,1.332,0,1,1,0-2.664h42.617a1.332,1.332,0,1,1,0,2.664Z" transform="translate(-2951.167 -6674.615)" fill="#ff71a4"/>
    <path id="Path_173341" data-name="Path 173341" d="M319.568,41.659A6.659,6.659,0,1,1,312.909,35a6.659,6.659,0,0,1,6.659,6.659" transform="translate(-3092.113 -6644.942)" fill="#ff71a4"/>
  </g>
</svg>
