<svg width="194" height="207" viewBox="0 0 194 207" fill="none" xmlns="http://www.w3.org/2000/svg">
<g clip-path="url(#clip0_341_22591)">
<g filter="url(#filter0_d_341_22591)">
<path d="M97.0882 125.08C95.9669 125.08 94.8677 124.768 93.9139 124.179C92.96 123.59 92.1893 122.746 91.6882 121.743L75.6442 89.642H45.3752C40.3474 89.6364 35.5271 87.6368 31.9717 84.0818C28.4164 80.5269 26.4162 75.7068 26.4102 70.679V18.964C26.4092 16.4733 26.8992 14.0068 27.8519 11.7055C28.8047 9.40418 30.2016 7.31319 31.9629 5.55202C33.7241 3.79086 35.8152 2.39404 38.1166 1.44139C40.4179 0.488744 42.8844 -0.00104959 45.3752 1.68873e-06H148.804C151.295 -0.000918169 153.761 0.488972 156.062 1.44168C158.364 2.39438 160.455 3.79122 162.216 5.55238C163.977 7.31353 165.374 9.40447 166.326 11.7057C167.279 14.0069 167.769 16.4734 167.768 18.964V70.679C167.762 75.7067 165.762 80.5268 162.207 84.0818C158.652 87.6368 153.832 89.6364 148.804 89.642H118.537L102.487 121.742C101.986 122.745 101.215 123.588 100.262 124.178C99.3083 124.768 98.2093 125.08 97.0882 125.08Z" fill="url(#paint0_linear_341_22591)"/>
</g>
<g filter="url(#filter1_d_341_22591)">
<path d="M148.642 155.142C143.528 155.142 138.528 153.626 134.276 150.784C130.024 147.943 126.709 143.905 124.752 139.18C122.795 134.455 122.282 129.256 123.28 124.24C124.278 119.224 126.74 114.616 130.356 111C133.973 107.383 138.58 104.921 143.596 103.923C148.612 102.925 153.811 103.437 158.536 105.394C163.261 107.351 167.3 110.665 170.141 114.918C172.983 119.17 174.499 124.17 174.499 129.284C174.491 136.139 171.765 142.711 166.917 147.559C162.07 152.407 155.498 155.134 148.642 155.142Z" fill="#D3C3CB"/>
</g>
<g filter="url(#filter2_d_341_22591)">
<path d="M148.642 155.14C136.755 155.14 125.355 159.862 116.949 168.267C108.543 176.672 103.821 188.072 103.82 199.96C103.821 201.56 104.456 203.095 105.588 204.227C106.72 205.358 108.255 205.994 109.855 205.995H187.427C189.028 205.995 190.563 205.359 191.695 204.227C192.826 203.095 193.462 201.56 193.462 199.96C193.462 194.074 192.303 188.246 190.051 182.808C187.798 177.37 184.497 172.429 180.335 168.267C176.173 164.105 171.232 160.804 165.794 158.551C160.356 156.299 154.528 155.14 148.642 155.14Z" fill="#D3C3CB"/>
</g>
<g filter="url(#filter3_d_341_22591)">
<path d="M44.8219 155.142C39.7076 155.142 34.7082 153.626 30.4557 150.784C26.2032 147.943 22.8888 143.905 20.9315 139.18C18.9742 134.455 18.462 129.256 19.4596 124.24C20.4573 119.224 22.9199 114.616 26.5362 111C30.1524 107.383 34.7599 104.921 39.7759 103.923C44.7919 102.925 49.9911 103.437 54.7161 105.394C59.4411 107.351 63.4796 110.665 66.321 114.918C69.1623 119.17 70.6789 124.17 70.6789 129.284C70.671 136.139 67.9442 142.711 63.0968 147.559C58.2495 152.407 51.6773 155.134 44.8219 155.142Z" fill="#D3C3CB"/>
</g>
<g filter="url(#filter4_d_341_22591)">
<path d="M44.822 155.14C32.9348 155.14 21.5345 159.862 13.1288 168.267C4.72306 176.672 0.000530418 188.072 0 199.96C0.000265137 201.56 0.636159 203.095 1.76788 204.227C2.89961 205.358 4.4345 205.994 6.035 205.995H83.607C85.2076 205.995 86.7426 205.359 87.8744 204.227C89.0062 203.095 89.642 201.56 89.642 199.96C89.642 194.074 88.4827 188.246 86.2303 182.808C83.9779 177.37 80.6764 172.429 76.5145 168.267C72.3526 164.105 67.4117 160.804 61.9739 158.551C56.5361 156.299 50.7078 155.14 44.822 155.14Z" fill="#D3C3CB"/>
</g>
<path d="M148.635 103.43V155.145C155.465 155.102 162.001 152.359 166.815 147.515C171.63 142.67 174.332 136.117 174.332 129.287C174.332 122.457 171.63 115.904 166.815 111.06C162.001 106.215 155.465 103.472 148.635 103.43Z" fill="#B7A6AE"/>
<path d="M187.42 206C189.02 206 190.555 205.364 191.687 204.232C192.819 203.101 193.455 201.566 193.455 199.965C193.455 188.078 188.733 176.678 180.327 168.272C171.922 159.867 160.522 155.145 148.635 155.145V206.001L187.42 206Z" fill="#B7A6AE"/>
<path d="M44.8242 103.43V155.145C51.6542 155.102 58.19 152.359 63.0045 147.515C67.8191 142.67 70.5214 136.117 70.5214 129.287C70.5214 122.457 67.8191 115.904 63.0045 111.06C58.19 106.215 51.6542 103.472 44.8242 103.43Z" fill="#B7A6AE"/>
<path d="M83.6092 206C85.2098 206 86.7448 205.364 87.8766 204.232C89.0084 203.101 89.6442 201.566 89.6442 199.965C89.6442 188.078 84.9221 176.678 76.5168 168.272C68.1114 159.867 56.7112 155.145 44.8242 155.145V206.001L83.6092 206Z" fill="#B7A6AE"/>
<g clip-path="url(#clip1_341_22591)">
<path d="M51.5685 42.7242C51.4419 42.7329 51.3726 42.7556 51.3137 42.7399C50.3864 42.5115 49.8786 41.9395 49.7468 41.0397C49.6411 40.3213 49.7468 39.6273 50.0484 38.9629C50.3535 38.2933 50.8024 37.7283 51.3345 37.2331C52.2253 36.4031 53.2272 35.7387 54.3243 35.2156C56.1771 34.3332 58.1391 33.8519 60.1687 33.634C61.044 33.5398 61.9262 33.4823 62.8067 33.4683C63.4792 33.4579 64.1551 33.5381 64.8276 33.5851C65.1049 33.6043 65.3822 33.6444 65.6596 33.6811C66.5262 33.7927 67.3546 34.035 68.1485 34.4012C68.606 34.6122 69.0272 34.879 69.3981 35.2208C70.0567 35.8259 70.4363 36.5618 70.4762 37.472C70.5022 38.0701 70.4519 38.6543 70.2682 39.2227C70.0429 39.922 69.5992 40.466 69.0393 40.9177C68.4604 41.385 67.8088 41.7181 67.1051 41.957C66.3078 42.2273 65.4914 42.3964 64.656 42.4888C64.4827 42.508 64.3128 42.5376 64.1361 42.59C64.5659 42.7661 65.0079 42.8951 65.3944 43.1497C65.8051 43.42 66.1622 43.7461 66.4464 44.1489C66.7203 44.5377 66.9231 44.9632 67.0409 45.4271C67.1588 45.8892 67.19 46.3582 67.1415 46.8552C67.2628 46.768 67.2645 46.6547 67.2922 46.5501C67.8035 44.6511 68.9752 43.3363 70.7795 42.59C70.9684 42.5115 71.1677 42.4539 71.3671 42.4016C71.5161 42.3633 71.5837 42.2761 71.6166 42.1313C71.6998 41.7721 71.7917 41.4129 71.8801 41.0554C71.8974 40.9839 71.913 40.9107 71.9356 40.841C72.0031 40.63 72.1522 40.5306 72.3689 40.5341C72.8386 40.5445 73.3083 40.5602 73.778 40.5759C73.8785 40.5794 73.979 40.5916 74.0917 40.6003C74.1281 40.5079 74.1645 40.4294 74.1905 40.3457C74.7624 38.5113 75.8024 37.0047 77.3207 35.8398C77.981 35.3341 78.7159 34.9697 79.4976 34.6907C80.4665 34.3437 81.4648 34.2181 82.4857 34.2164C83.4043 34.2164 84.3004 34.3559 85.1774 34.6279C86.7598 35.1197 88.3336 35.0621 89.9056 34.5756C91.1865 34.1798 92.3304 33.5259 93.3998 32.7272C93.4552 32.6854 93.502 32.6313 93.58 32.5581C93.4587 32.4639 93.3616 32.3785 93.2542 32.3087C92.7966 32.0035 92.2836 31.8205 91.7653 31.6531C91.1466 31.4525 90.5174 31.3374 89.864 31.3252C88.3804 31.2973 86.8985 31.2415 85.4166 31.1927C84.8446 31.1735 84.2726 31.1474 83.6989 31.1212C83.6625 31.1212 83.6244 31.102 83.588 31.0497C83.9364 31.027 84.2848 30.9939 84.6349 30.9852C86.4565 30.9364 88.2781 30.8945 90.1015 30.8439C90.2609 30.8405 90.4221 30.8073 90.5798 30.7742C91.4014 30.6016 92.2073 30.3801 92.9613 29.9965C93.2386 29.8552 93.483 29.6721 93.7447 29.4524C93.684 29.3635 93.639 29.2746 93.5748 29.2048C92.9925 28.5788 92.4049 27.9563 91.8208 27.332C91.7029 27.2047 91.5886 27.0739 91.4759 26.9466C91.5036 26.917 91.5123 26.9013 91.5244 26.8978C91.5366 26.8943 91.5539 26.8995 91.5643 26.9065C91.5886 26.9222 91.6146 26.9379 91.6354 26.9571C92.4101 27.6825 93.1831 28.4079 93.9579 29.1333C93.9665 29.142 93.9839 29.142 94.0255 29.1542C94.074 29.1037 94.1399 29.0461 94.1919 28.9799C94.6286 28.4253 94.8782 27.7767 95.0775 27.1105C95.2006 26.7008 95.2925 26.2822 95.3895 25.8637C95.419 25.7364 95.4207 25.6004 95.4259 25.4679C95.4727 24.0345 95.5178 22.6012 95.5594 21.1695C95.5732 20.6673 95.575 20.1634 95.5888 19.6612C95.5958 19.4415 95.6183 19.22 95.6807 18.9985C95.705 19.431 95.7396 19.8634 95.7535 20.2976C95.7795 21.1242 95.7656 21.9542 95.8176 22.779C95.8662 23.5463 95.8506 24.3153 95.8765 25.0825C95.9112 26.1131 96.1591 27.0983 96.5629 28.0435C96.7362 28.4498 96.9494 28.8334 97.2822 29.1734C97.7259 28.809 98.1072 28.4009 98.5162 28.026C98.927 27.6494 99.3291 27.2622 99.7399 26.8751C99.8318 26.9815 99.7399 27.0216 99.7035 27.0617C99.1731 27.6354 98.6376 28.2039 98.1089 28.7793C97.9217 28.9833 97.7068 29.1647 97.5456 29.4193C97.7588 29.6617 98.0205 29.8238 98.2892 29.9703C98.9149 30.3121 99.5943 30.5039 100.277 30.6818C100.705 30.7934 101.139 30.8439 101.582 30.8509C102.744 30.8701 103.903 30.9137 105.064 30.9468C105.829 30.9695 106.593 30.9869 107.356 31.0113C107.5 31.0166 107.643 31.0358 107.789 31.0985C107.682 31.109 107.576 31.1264 107.468 31.1299C106.03 31.1822 104.591 31.2328 103.153 31.2799C102.844 31.2903 102.536 31.2851 102.227 31.2938C101.83 31.3043 101.435 31.313 101.038 31.3339C100.506 31.3618 99.9947 31.4996 99.4903 31.6653C99.0015 31.8257 98.5162 31.9966 98.0812 32.2826C97.8975 32.4029 97.7068 32.5145 97.5456 32.7045C97.608 32.7865 97.66 32.8737 97.7276 32.9452C98.31 33.5712 98.8958 34.1937 99.4799 34.8197C99.577 34.9226 99.6827 35.0203 99.7399 35.1528C99.7104 35.172 99.7 35.1859 99.6879 35.1859C99.674 35.1859 99.6584 35.1807 99.6463 35.172C99.6012 35.1354 99.5562 35.097 99.5128 35.0569C98.7936 34.3803 98.0743 33.7037 97.355 33.0271C97.3446 33.0167 97.329 33.0132 97.2909 32.9923C97.2354 33.0376 97.1539 33.0795 97.1106 33.1457C96.9286 33.4317 96.738 33.7142 96.5906 34.0193C96.2925 34.6331 96.1001 35.2888 95.9771 35.9584C95.8973 36.3909 95.8939 36.839 95.8748 37.2819C95.8575 37.6813 95.8731 38.0806 95.8592 38.4799C95.8159 39.7633 95.7674 41.0485 95.7206 42.3319C95.7102 42.6091 95.6963 42.8864 95.6218 43.1654C95.6044 42.7539 95.5836 42.3406 95.5715 41.9291C95.5438 40.8497 95.5247 39.7703 95.4952 38.6926C95.4762 37.9986 95.4467 37.3046 95.4224 36.6106C95.419 36.5373 95.419 36.4624 95.4034 36.3909C95.2318 35.6271 95.0706 34.8581 94.7448 34.1414C94.6113 33.8467 94.4432 33.5677 94.2802 33.287C94.2231 33.1876 94.1347 33.1074 94.0428 32.9975C93.1727 33.6776 92.4257 34.4692 91.6146 35.2034C91.5452 35.0604 91.6492 35.0185 91.696 34.9575C91.748 34.8877 91.8139 34.8267 91.8745 34.7622C91.9248 34.7081 91.9768 34.6558 92.0253 34.6C92.0791 34.5372 92.1259 34.4692 92.1813 34.396C92.0756 34.3437 92.0167 34.4065 91.9577 34.4344C90.6509 35.0447 89.273 35.2749 87.8413 35.2243C87.0163 35.1946 86.2034 35.0813 85.4027 34.8755C83.9658 34.5076 82.5169 34.471 81.0835 34.8476C78.8788 35.4283 77 36.56 75.5407 38.3456C75.0242 38.9769 74.622 39.6814 74.2806 40.4225C74.2581 40.473 74.2563 40.5323 74.2425 40.5968C74.4297 40.7189 74.6342 40.7503 74.83 40.8043C75.3275 40.9438 75.8041 41.1322 76.2617 41.3745C76.3397 41.4164 76.4177 41.4565 76.4922 41.5053C76.6586 41.6134 76.7262 41.7669 76.6672 41.9622C76.6118 42.1453 76.5442 42.3266 76.4939 42.5115C76.4194 42.78 76.2929 43.0346 76.2565 43.3433C76.7348 43.7496 77.1889 44.1872 77.5443 44.7174C77.9082 45.2631 78.1717 45.8508 78.3467 46.4838C78.5166 47.0976 78.5478 47.7288 78.5599 48.3548C78.6951 48.3793 78.7402 48.2886 78.7974 48.2293C79.3 47.7097 79.7714 47.1621 80.1978 46.5762C80.9535 45.5387 81.7005 44.4941 82.4527 43.4531C82.5394 43.3345 82.6243 43.2125 82.7249 43.1044C82.9796 42.8289 83.3038 42.7678 83.6556 42.8341C83.9191 42.8829 84.0716 43.1462 83.9901 43.406C83.9589 43.5037 83.9121 43.5979 83.8619 43.6885C83.51 44.3198 83.153 44.9493 82.8029 45.5823C82.3106 46.4733 81.8201 47.3661 81.3331 48.2607C81.2586 48.3984 81.1719 48.5397 81.1563 48.7053C81.2603 48.7472 81.2984 48.6722 81.34 48.6269C82.4181 47.4952 83.5481 46.4158 84.699 45.3591C85.4062 44.7121 86.1272 44.0826 86.9037 43.5194C87.3335 43.2072 87.7703 42.9108 88.2781 42.7329C88.6091 42.6179 88.9142 42.6597 89.2036 42.848C89.2643 42.8881 89.3215 42.937 89.3683 42.9945C89.4983 43.1549 89.5486 43.3276 89.4428 43.5264C89.3024 43.7862 89.1724 44.0512 89.0321 44.3111C88.5953 45.1149 88.1533 45.9171 87.72 46.7227C87.6247 46.9005 87.5086 47.0732 87.4722 47.2877C87.6143 47.3295 87.6697 47.2197 87.7391 47.1604C88.5381 46.4855 89.3319 45.8037 90.1309 45.1289C90.8641 44.5098 91.6475 43.9606 92.4846 43.4915C92.8191 43.3032 93.1727 43.1567 93.5454 43.0643C93.8885 42.9806 94.2179 43.0085 94.5125 43.2212C94.5836 43.2718 94.6494 43.3328 94.7032 43.4026C94.8279 43.5595 94.8366 43.6798 94.7153 43.8455C94.3998 44.2727 94.074 44.6929 93.7551 45.1184C93.2334 45.8159 92.7047 46.5065 92.2004 47.2162C91.8676 47.6852 91.5816 48.1892 91.3823 48.7315C91.2852 48.9931 91.2107 49.2651 91.1414 49.5354C91.1119 49.647 91.1085 49.7708 91.1206 49.8876C91.1501 50.1945 91.306 50.409 91.6059 50.5084C91.8797 50.5991 92.1588 50.6095 92.4309 50.5258C92.6684 50.4526 92.9041 50.3619 93.1225 50.2451C93.9492 49.8091 94.6546 49.2058 95.3323 48.5658C95.4172 48.4856 95.5004 48.4002 95.5836 48.3165C96.0672 47.8369 96.5248 47.34 96.7796 46.6913C97.946 44.5622 99.2945 42.5568 100.854 40.6962C101.272 40.1975 101.726 39.7337 102.231 39.3256C102.586 39.0379 102.964 38.7833 103.411 38.6525C103.759 38.5496 104.08 38.5967 104.381 38.7851C104.456 38.8304 104.525 38.8897 104.583 38.9542C104.745 39.146 104.739 39.3099 104.565 39.4983C103.926 40.1923 103.279 40.8793 102.645 41.5786C101.574 42.7574 100.529 43.9588 99.5492 45.2178C98.9513 45.9868 98.3932 46.7855 97.9131 47.6347C97.6219 48.1491 97.3585 48.6774 97.2285 49.2616C97.1453 49.6348 97.1695 49.9922 97.3411 50.341C97.4884 50.6392 97.7034 50.7857 98.0448 50.756C98.4712 50.7194 98.8386 50.5398 99.1783 50.3044C99.9981 49.7359 100.667 49.0105 101.237 48.1962C101.567 47.7253 101.872 47.2371 102.095 46.7C102.206 46.4332 102.251 46.1839 102.18 45.8874C102.036 45.2945 102.014 44.686 102.14 44.0844C102.18 43.8978 102.234 43.7095 102.317 43.5403C102.588 42.998 103.097 42.937 103.556 43.0468C103.676 43.0747 103.766 43.1637 103.806 43.2805C103.848 43.4043 103.889 43.5351 103.896 43.6659C103.913 44.0198 103.912 44.3756 103.823 44.7226C103.714 45.1515 103.615 45.584 103.498 46.0112C103.426 46.2641 103.437 46.5012 103.52 46.7488C103.64 47.1011 103.789 47.4376 104.016 47.7323C104.399 48.231 104.919 48.3357 105.456 48.0113C105.617 47.9137 105.778 47.7968 105.903 47.6556C106.867 46.5535 107.954 45.5788 109.013 44.5761C110.136 43.5124 111.262 42.4505 112.391 41.3902C112.583 41.2089 112.791 41.0432 112.992 40.8706C113.223 40.6736 113.481 40.6265 113.776 40.7049C114.202 40.8165 114.394 41.1705 114.233 41.589C114.192 41.6989 114.133 41.8035 114.067 41.9012C113.968 42.0476 113.862 42.1906 113.748 42.3249C113.436 42.6893 113.219 43.1026 113.067 43.556C112.834 44.243 112.682 44.951 112.54 45.6607C112.306 46.8343 112.072 48.0078 111.834 49.1814C111.794 49.3837 111.742 49.5825 111.689 49.8126C111.774 49.8196 111.841 49.8371 111.907 49.8301C112.964 49.7063 113.873 49.2546 114.67 48.5624C114.803 48.4473 114.939 48.3322 115.069 48.2119C115.552 47.7707 115.932 47.2563 116.252 46.6808C117.346 44.7208 118.521 42.8079 119.797 40.963C120.284 40.2585 120.79 39.5663 121.377 38.9437C121.62 38.6874 121.887 38.4555 122.156 38.2253C122.265 38.1311 122.4 38.0597 122.534 38.0021C122.702 37.9306 122.882 37.901 123.024 38.0597C123.166 38.2201 123.265 38.4101 123.182 38.6264C123.107 38.8182 123.014 39.0065 122.899 39.1757C122.461 39.8243 122.027 40.4748 121.563 41.1043C120.669 42.3144 119.745 43.5019 118.852 44.7156C118.424 45.298 118.041 45.9118 117.642 46.5152C117.531 46.6826 117.434 46.8622 117.372 47.054C117.509 47.122 117.564 47.0331 117.627 46.9877C118.37 46.4576 119.109 45.9206 119.854 45.3922C120.792 44.7278 121.724 44.0582 122.738 43.5124C123.034 43.352 123.345 43.2142 123.657 43.0852C123.901 42.984 124.161 42.9248 124.431 42.9439C124.958 42.984 125.227 43.4723 124.962 43.9344C124.807 44.2012 124.619 44.4488 124.437 44.6999C123.764 45.6328 123.083 46.5605 122.416 47.4987C122.107 47.9329 121.847 48.3984 121.646 48.8919C121.535 49.164 121.45 49.4499 121.388 49.7377C121.351 49.9068 121.357 50.0934 121.384 50.2643C121.429 50.5415 121.62 50.6741 121.892 50.6252C122.078 50.5921 122.261 50.5293 122.438 50.4561C122.835 50.2904 123.182 50.0358 123.513 49.7656C123.877 49.4674 124.222 49.143 124.574 48.8292C124.684 48.7298 124.773 48.6199 124.828 48.4752C125.175 47.5806 125.723 46.8134 126.336 46.0932C126.941 45.3835 127.605 44.7365 128.347 44.1733C128.889 43.7618 129.466 43.413 130.116 43.2003C130.512 43.0712 130.915 43.0015 131.331 43.0346C131.697 43.0643 132.012 43.2003 132.264 43.4775C132.451 43.6833 132.545 43.9239 132.545 44.2029C132.545 44.5203 132.458 44.8133 132.321 45.0975C132.064 45.6293 131.671 46.0461 131.222 46.4088C130.298 47.1551 129.276 47.7341 128.166 48.1473C127.556 48.3758 126.924 48.5013 126.244 48.4333C126.185 48.5362 126.12 48.6321 126.074 48.7367C125.868 49.2076 125.799 49.701 125.851 50.2102C125.922 50.892 126.291 51.2478 126.964 51.2966C127.445 51.3332 127.896 51.2111 128.331 51.0176C128.939 50.7456 129.492 50.3811 130.012 49.9678C130.934 49.2337 131.829 48.4664 132.619 47.5841C132.848 47.3278 133.04 47.0557 133.196 46.7523C134.078 45.0295 135.054 43.3607 136.12 41.7442C136.737 40.8078 137.382 39.8889 138.152 39.0693C138.425 38.7781 138.717 38.5095 139.06 38.302C139.632 37.9568 140.173 38.1172 140.5 38.7589C140.427 38.8653 140.349 38.9856 140.263 39.1024C139.25 40.4835 138.231 41.8576 137.228 43.2439C136.352 44.4506 135.503 45.6747 134.713 46.9407C134.354 47.5178 134.002 48.0985 133.723 48.7193C133.546 49.1134 133.427 49.5214 133.392 49.9539C133.375 50.1631 133.394 50.3672 133.475 50.5625C133.567 50.7839 133.725 50.9182 133.968 50.9548C134.326 51.0106 134.671 50.9548 135.008 50.8345C135.566 50.6357 136.073 50.3393 136.557 49.9992C137.332 49.4552 138.013 48.8065 138.67 48.1264C139.231 47.5475 139.64 46.8796 140.015 46.1682C141.095 44.114 142.28 42.1226 143.67 40.2638C144.022 39.793 144.422 39.3553 144.812 38.9141C145.038 38.6578 145.31 38.4537 145.603 38.2794C146.15 37.9568 146.691 38.1294 147.005 38.7554C146.916 38.8845 146.823 39.0327 146.721 39.1739C145.395 40.9996 144.057 42.8201 142.741 44.6546C142.01 45.6729 141.322 46.7227 140.699 47.8143C140.517 48.1334 140.358 48.4682 140.199 48.8013C140.037 49.1378 139.959 49.4988 139.906 49.865C139.873 50.0882 139.888 50.3061 139.97 50.5189C140.067 50.7769 140.238 50.9286 140.519 50.9618C140.833 50.9984 141.134 50.9531 141.431 50.8606C141.883 50.7194 142.297 50.4945 142.696 50.2416C143.649 49.64 144.476 48.8867 145.234 48.0549C145.462 47.8038 145.682 47.5457 145.92 47.3034C146.01 47.2109 146.131 47.1499 146.244 47.0854C146.272 47.0697 146.343 47.0819 146.362 47.1081C146.395 47.1482 146.431 47.2231 146.416 47.2598C146.364 47.3801 146.299 47.4987 146.221 47.6033C145.724 48.2659 145.164 48.8727 144.573 49.4499C144.204 49.8091 143.821 50.1562 143.426 50.4875C143.031 50.8188 142.599 51.1065 142.128 51.3175C141.277 51.6994 140.424 51.7099 139.575 51.2914C139.065 51.0402 138.793 50.6322 138.755 50.0707C138.739 49.851 138.753 49.6278 138.776 49.4081C138.8 49.1744 138.85 48.9442 138.888 48.7071C138.732 48.7001 138.678 48.8187 138.604 48.8972C138.098 49.4342 137.569 49.9469 137.001 50.4177C136.637 50.7211 136.243 50.9757 135.833 51.2077C135.429 51.4378 134.988 51.5669 134.533 51.5965C133.935 51.6349 133.364 51.4989 132.853 51.1675C132.555 50.974 132.373 50.6967 132.288 50.3515C132.212 50.0463 132.205 49.7377 132.257 49.4273C132.295 49.1988 132.331 48.9687 132.38 48.6722C132.25 48.7751 132.168 48.8309 132.096 48.8972C131.274 49.6627 130.401 50.3602 129.449 50.9583C128.986 51.2478 128.504 51.5006 127.988 51.6785C127.381 51.8877 126.763 51.9871 126.126 51.804C125.662 51.6697 125.27 51.4204 124.953 51.0525C124.716 50.7752 124.584 50.4509 124.556 50.0847C124.544 49.9242 124.539 49.7621 124.528 49.558C124.433 49.6138 124.359 49.647 124.298 49.6958C123.806 50.0934 123.322 50.5032 122.823 50.892C122.627 51.0455 122.409 51.1745 122.185 51.2844C121.398 51.6732 120.502 51.2844 120.237 50.4404C120.104 50.0114 120.084 49.5685 120.157 49.1238C120.26 48.5031 120.492 47.9276 120.788 47.3818C121.154 46.707 121.554 46.0513 121.942 45.3904C122.1 45.1236 122.267 44.8621 122.426 44.597C122.461 44.5395 122.483 44.475 122.546 44.339C122.204 44.4819 121.955 44.6284 121.707 44.7749C120.228 45.6503 118.909 46.7262 117.705 47.9555C116.897 48.7803 116.195 49.6888 115.552 50.6462C115.379 50.9025 115.197 51.1553 114.997 51.3925C114.706 51.736 114.595 51.729 114.138 51.5983C113.942 51.5425 113.829 51.3541 113.869 51.1449C113.906 50.9583 113.968 50.7735 114.053 50.6043C114.231 50.2486 114.432 49.9033 114.621 49.5528C114.668 49.4674 114.703 49.375 114.739 49.2913C114.653 49.218 114.607 49.2773 114.568 49.3069C113.847 49.8388 113.048 50.2032 112.183 50.4142C111.718 50.5276 111.3 50.7211 110.914 51.0054C110.616 51.2251 110.288 51.3907 109.923 51.4744C109.314 51.6122 108.704 51.675 108.089 51.532C107.578 51.4117 107.182 51.1205 106.893 50.6845C106.539 50.1509 106.302 49.5633 106.115 48.953C106.073 48.8169 106.025 48.6844 105.971 48.5223C105.799 48.6478 105.661 48.7559 105.517 48.8536C105.416 48.9216 105.307 48.9669 105.198 48.8588C105.113 48.7751 105.007 48.7943 104.907 48.8065C104.3 48.8745 103.82 48.6286 103.418 48.1944C103.165 47.9224 102.974 47.6068 102.806 47.2772C102.761 47.19 102.702 47.1115 102.626 46.9877C102.543 47.1447 102.482 47.258 102.423 47.3714C101.705 48.7594 100.742 49.933 99.4557 50.8258C98.9929 51.1466 98.4954 51.403 97.9339 51.4971C97.6756 51.5407 97.4087 51.5599 97.147 51.5581C96.6184 51.5529 96.2561 51.2669 96.0637 50.7909C95.9597 50.5346 95.9008 50.2521 95.8713 49.9766C95.8384 49.6853 95.8644 49.3872 95.8644 49.0925C95.8644 49.007 95.8644 48.9233 95.8644 48.8466C95.7362 48.7943 95.6876 48.8884 95.6287 48.9442C95.0342 49.5179 94.4068 50.055 93.7135 50.5049C93.4188 50.6967 93.1086 50.8711 92.7897 51.0193C92.2489 51.2687 91.6822 51.2861 91.1102 51.1292C90.5434 50.974 90.2089 50.5956 90.0876 50.0254C90.0131 49.6731 90.0131 49.3174 90.1015 48.9687C90.1777 48.6687 90.2696 48.3705 90.384 48.0846C90.8762 46.8447 91.5036 45.6764 92.2749 44.5866C92.3338 44.5029 92.3945 44.4174 92.45 44.332C92.4656 44.3076 92.4708 44.2779 92.4812 44.2465C92.365 44.1698 92.2888 44.2709 92.2091 44.3163C91.5712 44.6877 90.9767 45.1202 90.4048 45.5875C89.247 46.5326 88.1862 47.5719 87.2988 48.7803C86.7633 49.5092 86.3057 50.28 85.9677 51.1222C85.9573 51.1501 85.9383 51.1745 85.9313 51.2024C85.8464 51.5407 85.5101 51.6837 85.1548 51.5634C84.9365 51.4901 84.8013 51.3402 84.7701 51.1222C84.7475 50.9653 84.7579 50.7979 84.7891 50.6409C84.8931 50.1021 85.0664 49.5842 85.2571 49.0715C85.602 48.1421 86.0422 47.2563 86.4669 46.3635C86.7841 45.6973 87.1134 45.0365 87.4358 44.3721C87.4791 44.2814 87.5138 44.1872 87.5502 44.1035C87.4756 44.0198 87.4254 44.0809 87.3855 44.107C86.2849 44.876 85.2519 45.7235 84.309 46.6861C83.224 47.7951 82.25 48.9966 81.2846 50.2102C81.009 50.5572 80.7195 50.892 80.4353 51.2303C80.3885 51.2861 80.3347 51.3384 80.2862 51.3942C80.0661 51.6453 79.7905 51.5983 79.5825 51.4152C79.2515 51.1205 79.0816 50.7578 79.2186 50.3061C79.3 50.0376 79.3884 49.7708 79.4941 49.511C79.7593 48.8693 80.0401 48.2345 80.3087 47.5946C80.3399 47.5196 80.411 47.4446 80.3434 47.3225C80.2238 47.4394 80.1077 47.5492 79.9968 47.6643C79.5253 48.1508 79.0608 48.6461 78.5825 49.1256C78.4403 49.2668 78.3554 49.4185 78.2965 49.6086C77.7696 51.2966 76.7088 52.5242 75.0987 53.2409C72.8143 54.2592 70.1538 53.6402 68.5159 51.7395C67.58 50.6549 67.1259 49.3906 67.112 47.9608C67.112 47.8282 67.112 47.6957 67.1085 47.5632C67.1085 47.5492 67.0964 47.537 67.0912 47.5231C67.008 47.5231 67.0167 47.5946 67.0011 47.6451C66.6787 48.6792 66.053 49.5057 65.2557 50.2102C64.4636 50.9095 63.5554 51.4221 62.5918 51.8372C61.6957 52.2208 60.7684 52.498 59.8082 52.6585C59.0525 52.784 58.2934 52.8363 57.5273 52.8084C56.8045 52.7823 56.0922 52.7073 55.3954 52.505C54.6085 52.2766 53.891 51.9191 53.2705 51.3768C52.936 51.0838 52.6465 50.7508 52.4039 50.3794C52.3155 50.2451 52.2288 50.1108 52.1248 49.9504C52.0018 50.0393 51.8943 50.1108 51.7955 50.191C51.1767 50.6915 50.5493 51.1815 49.863 51.586C49.5718 51.7569 49.2685 51.9086 48.96 52.0447C48.7745 52.1266 48.5683 52.1737 48.3672 52.2086C47.9304 52.2836 47.589 52.1127 47.3515 51.7412C47.1314 51.3977 47.0274 51.0158 47.0066 50.6095C46.9824 50.1317 47.0551 49.6662 47.1695 49.2058C47.4001 48.2799 47.8022 47.4272 48.2823 46.6093C48.596 46.074 48.9409 45.5578 49.3274 45.0731C49.5874 44.7487 49.8803 44.4575 50.2772 44.3041C50.3864 44.2622 50.5008 44.2274 50.6152 44.2064C51.0485 44.1245 51.3951 44.2675 51.6534 44.6267C51.8284 44.8691 51.9498 45.1359 52.0382 45.4201C52.2635 46.1385 52.4888 46.8587 52.7159 47.5771C52.7557 47.7009 52.8025 47.823 52.858 47.9817C52.955 47.8962 53.04 47.8387 53.1006 47.7637C53.6327 47.0941 54.1752 46.4332 54.6883 45.7479C56.0852 43.8821 57.4337 41.9779 58.9 40.1661C59.7822 39.0763 60.6661 37.9882 61.6679 37.0064C61.9834 36.6978 62.3092 36.3944 62.6645 36.1345C63.2122 35.7317 63.8414 35.6236 64.5087 35.7422C64.7323 35.7823 64.9229 35.8904 65.0893 36.0421C65.3458 36.2758 65.3614 36.7431 64.9507 36.9157C64.8969 36.9384 64.8415 36.9681 64.786 36.975C64.4775 37.0134 64.2452 37.1947 64.013 37.3761C63.292 37.9393 62.6177 38.5549 61.9643 39.1948C61.1012 40.0406 60.2519 40.9002 59.4026 41.7599C58.9659 42.2028 58.6175 42.7173 58.2518 43.2177C57.0922 44.8045 55.8616 46.3303 54.5028 47.7498C54.177 48.0898 53.8268 48.4089 53.4906 48.7367C53.4074 48.8169 53.3294 48.9024 53.241 48.9948C53.3381 49.2267 53.4577 49.4273 53.5825 49.6261C54.1302 50.5084 54.8234 51.2356 55.7611 51.7029C56.321 51.9819 56.912 52.1284 57.5342 52.1911C58.8203 52.3219 60.0145 52.0098 61.1566 51.4535C62.3352 50.8798 63.3682 50.1091 64.2054 49.089C64.611 48.5955 64.9507 48.0602 65.1621 47.4533C65.4741 46.5588 65.4585 45.6782 64.9767 44.8446C64.6543 44.2849 64.1984 43.8455 63.6542 43.5037C63.214 43.2282 62.7495 43.0311 62.2174 42.984C61.7061 42.9387 61.1982 42.8428 60.6904 42.7643C60.531 42.7399 60.3732 42.7016 60.219 42.6527C60.1219 42.6231 60.0283 42.5708 59.9469 42.5115C59.7943 42.4016 59.7701 42.2342 59.8845 42.086C60.0543 41.8645 60.29 41.7477 60.5587 41.7024C60.7788 41.6658 60.9989 41.6815 61.2121 41.7529C61.3941 41.8122 61.5795 41.8645 61.7546 41.9378C62.0302 42.0546 62.3196 42.1017 62.6143 42.1139C63.8431 42.161 65.0529 42.0476 66.2142 41.6134C67.0409 41.3048 67.7758 40.8619 68.3045 40.1243C68.5922 39.7232 68.7915 39.282 68.9041 38.8025C69.0619 38.1311 69.0913 37.4581 68.9128 36.7832C68.7724 36.2496 68.4795 35.8207 68.0653 35.4667C67.599 35.0691 67.0635 34.7988 66.4846 34.6105C65.5261 34.2983 64.5347 34.1798 63.5346 34.1431C62.356 34.1013 61.1844 34.192 60.0179 34.3437C59.5673 34.403 59.1218 34.5059 58.6781 34.6018C56.7127 35.0255 54.8876 35.7683 53.3051 37.0465C52.546 37.6603 51.8492 38.3352 51.279 39.1356C51.1178 39.3622 50.974 39.6064 50.844 39.854C50.3639 40.7712 50.584 41.9151 51.3778 42.5394C51.4315 42.5812 51.4731 42.6388 51.565 42.7347L51.5685 42.7242ZM77.8337 47.9102C77.8042 45.0487 75.4609 42.8533 72.6756 42.9195C69.951 42.984 67.7481 45.2998 67.8209 48.0776C67.8919 50.8467 70.1157 53.0351 72.868 53.0055C75.7694 52.9758 77.8701 50.5904 77.8337 47.9102ZM111.9 42.8044C111.737 42.8166 111.651 42.9265 111.554 43.0067C110.28 44.0582 109.111 45.2196 107.997 46.435C107.77 46.6843 107.558 46.9546 107.376 47.2371C106.935 47.9224 107.014 48.6269 107.425 49.2808C107.877 50.001 108.598 50.2311 109.408 50.1753C110.002 50.1352 110.418 49.8126 110.635 49.2459C110.682 49.1221 110.741 49.0018 110.777 48.8745C110.954 48.2816 111.155 47.694 111.294 47.0906C111.604 45.7375 111.753 44.3564 111.912 42.9788C111.919 42.9248 111.905 42.869 111.902 42.8044H111.9ZM51.7747 49.1291C51.4801 48.2119 51.2114 47.2755 50.7937 46.3949C50.6862 46.1699 50.5545 45.9554 50.4193 45.7444C50.3656 45.6607 50.2824 45.591 50.2009 45.5299C50.0952 45.4532 49.9687 45.4724 49.8838 45.5683C49.8352 45.6241 49.7936 45.6834 49.7538 45.7462C49.5181 46.1211 49.2754 46.489 49.0536 46.8726C48.7225 47.4481 48.4296 48.0427 48.2147 48.674C47.9634 49.4133 47.8559 50.1614 48.0552 50.9356C48.2199 51.5773 48.4799 51.7099 49.0744 51.403C49.3205 51.2757 49.5562 51.1205 49.7798 50.9531C50.4661 50.4421 51.0901 49.8597 51.6846 49.2459C51.714 49.2145 51.7366 49.1762 51.773 49.1256L51.7747 49.1291ZM126.69 47.7829C126.957 47.8422 127.184 47.8282 127.413 47.7829C127.981 47.6713 128.501 47.4394 129.005 47.1621C129.957 46.639 130.772 45.9537 131.446 45.0992C131.612 44.89 131.742 44.6615 131.806 44.3982C131.9 44.0181 131.772 43.8472 131.375 43.8228C131.104 43.8071 130.846 43.8681 130.61 43.9919C130.312 44.1489 130.009 44.3041 129.742 44.5064C129.298 44.8429 128.867 45.2004 128.459 45.5805C127.835 46.1629 127.263 46.7959 126.811 47.5283C126.768 47.5981 126.74 47.6783 126.69 47.7846V47.7829ZM72.3619 42.1941C72.7398 42.2081 73.1072 42.1959 73.466 42.2429C73.8421 42.2918 74.2165 42.3772 74.5787 42.4871C74.9236 42.5917 75.2529 42.7504 75.6013 42.8899C75.7382 42.5865 75.8457 42.304 75.8752 42.0075C75.2217 41.5123 73.2476 41.0676 72.5647 41.2891C72.4625 41.5681 72.3793 41.8611 72.3602 42.1941H72.3619Z" fill="white"/>
<path d="M57.6087 58.1911H58.1893C58.2794 58.3236 58.3713 58.4544 58.458 58.5904C59.0473 59.5094 59.6366 60.4284 60.2276 61.3456C60.2969 61.452 60.3385 61.5897 60.4824 61.6333C60.5898 61.5182 60.5465 61.3787 60.5465 61.2514C60.5465 60.4092 60.5413 59.5669 60.5413 58.723C60.5413 58.5625 60.5517 58.4021 60.5569 58.2574C60.7389 58.1562 60.8914 58.1667 61.0474 58.1981C61.0665 58.2591 61.0907 58.301 61.0907 58.3428C61.0873 59.7466 61.0803 61.1503 61.0717 62.5558C61.0717 62.5976 61.0474 62.6395 61.0318 62.69C60.8446 62.7441 60.6574 62.7249 60.4477 62.704C59.7076 61.5583 58.9658 60.4074 58.2292 59.2653C58.0645 59.2949 58.1183 59.4083 58.1183 59.4798C58.1131 60.3813 58.1148 61.2828 58.1131 62.1843C58.1131 62.3448 58.1044 62.5052 58.0992 62.6674C57.9397 62.7458 57.7959 62.7232 57.6312 62.697C57.6174 62.6185 57.5879 62.5348 57.5879 62.4511C57.5879 61.1363 57.5879 59.8198 57.5896 58.505C57.5896 58.4178 57.6018 58.3324 57.6104 58.1911H57.6087Z" fill="white"/>
<path d="M105.507 61.6317C105.511 61.4853 105.519 61.3405 105.519 61.194C105.519 60.3518 105.514 59.5096 105.516 58.6691C105.516 58.5243 105.485 58.3726 105.589 58.2052C105.708 58.1965 105.849 58.186 106.017 58.1738C106.038 58.2942 106.069 58.3918 106.067 58.4877C106.064 58.9463 106.048 59.4032 106.046 59.8618C106.041 60.6587 106.041 61.4574 106.038 62.2543C106.038 62.3972 106.026 62.542 106.019 62.7041H105.435C105.05 62.1601 104.694 61.5672 104.318 60.99C103.94 60.4111 103.568 59.8304 103.197 59.2532C103.053 59.3021 103.096 59.4067 103.096 59.4834C103.093 60.3989 103.095 61.3144 103.093 62.2298C103.093 62.3746 103.084 62.5211 103.077 62.6954C102.918 62.7059 102.778 62.7164 102.618 62.7268C102.601 62.6222 102.573 62.5402 102.573 62.4565C102.571 61.1417 102.573 59.8269 102.575 58.5139C102.575 58.4145 102.596 58.3133 102.606 58.2139C102.797 58.1529 102.97 58.1669 103.178 58.2017C103.934 59.3317 104.649 60.5122 105.415 61.6596C105.447 61.6509 105.478 61.6422 105.509 61.6335L105.507 61.6317Z" fill="white"/>
<path d="M133.29 62.631C133.142 62.685 133.05 62.7251 132.955 62.7513C132.723 62.8106 132.683 62.8019 132.553 62.5961C132.284 62.1724 132.026 61.7416 131.763 61.3144C131.716 61.2394 131.669 61.1645 131.619 61.0825C131.374 61.0093 131.127 61.0424 130.854 61.0633C130.839 61.1627 130.809 61.2604 130.809 61.358C130.809 61.6841 130.825 62.0084 130.828 62.3345C130.828 62.4496 130.815 62.563 130.806 62.6972H130.289C130.276 62.6257 130.251 62.556 130.251 62.488C130.248 61.1714 130.246 59.8549 130.246 58.5401C130.246 58.4389 130.262 58.3396 130.27 58.2402C130.326 58.2157 130.364 58.1826 130.402 58.1809C130.858 58.1739 131.314 58.1704 131.768 58.1704C131.856 58.1704 131.945 58.1844 132.03 58.2018C132.626 58.3151 132.979 58.7249 133.018 59.3352C133.054 59.9299 132.839 60.4024 132.352 60.7477C132.293 60.7895 132.232 60.8314 132.149 60.8907C132.193 60.9831 132.222 61.079 132.276 61.1575C132.539 61.5481 132.811 61.9352 133.078 62.3241C133.135 62.4078 133.193 62.4932 133.284 62.631H133.29ZM130.863 60.5262C131.12 60.535 131.354 60.5646 131.584 60.5489C131.972 60.5228 132.309 60.2228 132.381 59.8357C132.413 59.6648 132.413 59.4835 132.395 59.3091C132.366 59.0179 132.194 58.8226 131.92 58.7302C131.581 58.6168 131.238 58.6203 130.9 58.6988C130.822 59.0702 130.799 60.0711 130.863 60.5262Z" fill="white"/>
<path d="M84.1028 58.2192C84.2831 58.1581 84.4373 58.1494 84.5898 58.2157C84.6834 58.3552 84.6488 58.5086 84.647 58.6516C84.6436 59.3613 84.6314 60.071 84.6297 60.7808C84.6297 60.9865 84.6349 61.1958 84.6661 61.3998C84.7389 61.8689 84.9971 62.1269 85.4599 62.2351C85.7424 62.3013 86.0163 62.2699 86.2832 62.1671C86.6142 62.0398 86.8014 61.7834 86.8569 61.4382C86.8846 61.2638 86.8864 61.0842 86.8864 60.9081C86.8846 60.1547 86.8742 59.3997 86.8708 58.6464C86.8708 58.5017 86.843 58.3517 86.921 58.2139C87.0839 58.1529 87.2399 58.1546 87.4184 58.2192C87.4323 58.3133 87.4583 58.4127 87.4566 58.5121C87.4514 59.3701 87.4496 60.228 87.4306 61.0842C87.4254 61.3178 87.3855 61.5567 87.3162 61.7799C87.1862 62.1984 86.8968 62.4862 86.4894 62.6431C86.0041 62.8297 85.5119 62.8384 85.0214 62.671C84.5708 62.5176 84.2796 62.1967 84.1531 61.7416C84.0976 61.5445 84.0699 61.3335 84.0681 61.1295C84.0595 60.2576 84.0629 59.384 84.0647 58.5121C84.0647 58.4127 84.0907 58.3133 84.1028 58.2192Z" fill="white"/>
<path d="M122.174 58.7128C122.167 58.8819 122.157 59.0127 122.155 59.1452C122.154 59.4539 122.155 59.7625 122.155 60.0921C122.256 60.113 122.337 60.1427 122.42 60.1444C122.743 60.1496 123.067 60.1444 123.389 60.1479C123.502 60.1479 123.616 60.1653 123.757 60.1758C123.746 60.3327 123.738 60.4618 123.729 60.5908C123.452 60.7059 123.187 60.6292 122.927 60.6414C122.68 60.6536 122.433 60.6292 122.199 60.6745C122.126 61.0494 122.121 61.6092 122.181 62.1811C122.268 62.1986 122.362 62.2334 122.457 62.2334C122.779 62.2369 123.103 62.2282 123.426 62.2265C123.644 62.2265 123.862 62.2265 124.086 62.2265C124.2 62.3886 124.152 62.5351 124.096 62.6798C123.741 62.7339 122.048 62.7409 121.625 62.6921C121.614 62.6816 121.604 62.6711 121.595 62.6589C121.587 62.6467 121.575 62.6345 121.575 62.6223C121.569 61.2046 121.564 59.7852 121.562 58.3675C121.562 58.3257 121.583 58.2838 121.602 58.2123C121.866 58.1373 122.145 58.1792 122.417 58.1722C122.71 58.1652 123.005 58.1635 123.299 58.1722C123.573 58.1809 123.854 58.1269 124.119 58.221C124.169 58.3867 124.157 58.5262 124.044 58.6779C123.447 58.6971 122.831 58.6082 122.173 58.7128H122.174Z" fill="white"/>
<path d="M96.4525 58.219C96.4403 58.3672 96.4299 58.4945 96.4161 58.6497C96.2843 58.6619 96.1717 58.6811 96.059 58.6811C95.6621 58.6811 95.2652 58.6707 94.87 58.6707C94.7556 58.6707 94.6413 58.6933 94.5026 58.7073C94.4281 59.1729 94.4645 59.6228 94.4627 60.0918C94.5702 60.1128 94.6534 60.1407 94.7366 60.1424C95.0295 60.1476 95.3241 60.1424 95.6188 60.1459C95.7488 60.1459 95.8788 60.1546 96.0105 60.1598C96.0937 60.322 96.066 60.458 95.9897 60.6272C95.5096 60.6899 95.0087 60.5888 94.5061 60.6743C94.4003 60.9166 94.4558 61.1695 94.4506 61.4154C94.4437 61.6647 94.4593 61.9158 94.4645 62.1809C95.1144 62.3151 95.7453 62.1809 96.371 62.2192C96.5201 62.364 96.4525 62.5157 96.4178 62.6621C96.0833 62.7319 94.5771 62.7511 93.922 62.6935C93.9081 62.6168 93.8752 62.5331 93.8804 62.4529C93.9532 61.1956 93.889 59.9401 93.8769 58.6846C93.8769 58.5259 93.8318 58.3585 93.9358 58.2138C94.2842 58.1545 96.0018 58.151 96.4577 58.2173L96.4525 58.219Z" fill="white"/>
<path d="M141.64 58.3583C141.64 58.7036 141.64 58.7036 141.508 58.9233C141.395 58.8693 141.279 58.8169 141.163 58.7594C140.933 58.6443 140.69 58.6042 140.435 58.6373C140.187 58.6687 139.991 58.789 139.86 59.0035C139.705 59.2529 139.73 59.5284 139.939 59.7324C140.054 59.844 140.191 59.9347 140.331 60.0149C140.548 60.1387 140.778 60.2399 140.997 60.3619C141.137 60.4404 141.277 60.5258 141.399 60.6305C141.929 61.0856 141.957 61.8093 141.473 62.3132C141.328 62.4649 141.158 62.5765 140.964 62.655C140.383 62.8886 139.673 62.8084 139.104 62.437C139.087 62.2539 139.08 62.0656 139.18 61.879C139.319 61.8598 139.393 61.9697 139.485 62.0255C139.796 62.2173 140.123 62.3254 140.491 62.2853C140.754 62.2574 140.967 62.1388 141.116 61.9191C141.3 61.6453 141.258 61.2879 141.002 61.0821C140.855 60.9635 140.683 60.8711 140.518 60.7769C140.338 60.6758 140.151 60.5921 139.969 60.4945C139.865 60.4387 139.764 60.3759 139.669 60.3079C138.908 59.7603 139.14 58.8361 139.66 58.4542C139.931 58.2572 140.232 58.1526 140.562 58.1369C140.933 58.1194 141.29 58.1892 141.64 58.3601V58.3583Z" fill="white"/>
<path d="M115.471 58.4825C115.466 58.6708 115.455 58.8278 115.353 58.9969C115.252 58.9498 115.161 58.915 115.077 58.8661C114.764 58.6778 114.424 58.608 114.062 58.6429C113.62 58.6865 113.29 58.9062 113.086 59.3056C113.032 59.4102 112.991 59.5218 112.963 59.6369C112.817 60.2071 112.816 60.7808 112.987 61.3423C113.209 62.0677 113.843 62.4199 114.575 62.2299C114.784 62.1758 114.982 62.0677 115.187 61.9857C115.263 61.9543 115.339 61.9264 115.428 61.8916C115.441 61.9631 115.459 62.0049 115.457 62.0468C115.45 62.1636 115.436 62.2804 115.428 62.3833C114.696 62.9308 113.708 62.8384 113.204 62.5524C112.97 62.4182 112.777 62.2403 112.63 62.0136C112.433 61.7102 112.311 61.3772 112.289 61.0197C112.266 60.6814 112.252 60.3396 112.285 60.0031C112.413 58.6464 113.426 57.9088 114.76 58.1826C115.006 58.2331 115.24 58.3116 115.473 58.4825H115.471Z" fill="white"/>
<path d="M102.276 22.0061C102.328 22.1857 102.366 22.2956 102.392 22.4072C102.418 22.5223 102.427 22.6426 102.456 22.756C102.612 23.3593 102.962 23.7795 103.579 23.9452C103.818 24.0097 104.059 24.0742 104.359 24.1562C104.245 24.2085 104.186 24.2451 104.122 24.2626C103.924 24.3184 103.721 24.3602 103.526 24.4195C102.877 24.6148 102.538 25.0734 102.427 25.7273C102.395 25.9122 102.408 26.1127 102.248 26.2888C102.208 26.1947 102.168 26.1197 102.144 26.0395C102.085 25.8407 102.037 25.6401 101.979 25.4414C101.829 24.9147 101.487 24.5782 100.971 24.4213C100.816 24.3742 100.659 24.3376 100.505 24.2922C100.407 24.2643 100.314 24.2329 100.217 24.2015C100.234 24.0812 100.323 24.1004 100.38 24.083C100.577 24.0254 100.78 23.9853 100.974 23.9225C101.453 23.7708 101.789 23.4587 101.955 22.9792C102.033 22.756 102.082 22.524 102.151 22.2991C102.175 22.2206 102.215 22.1474 102.276 22.0044V22.0061Z" fill="white"/>
<path d="M87.0897 23.825C87.1729 24.1301 87.2301 24.3429 87.289 24.5556C87.4572 25.1747 87.8263 25.5897 88.4659 25.7362C88.693 25.7885 88.9183 25.8547 89.2043 25.9297C89.05 25.9873 88.9495 26.0291 88.8455 26.0605C88.6496 26.1215 88.452 26.1756 88.2562 26.2349C87.8003 26.3744 87.5126 26.6917 87.3532 27.1312C87.2786 27.3387 87.2301 27.5549 87.1695 27.7676C87.1469 27.8461 87.1227 27.9246 87.0741 28.0868C87.0187 27.9438 86.9892 27.881 86.9719 27.8165C86.9025 27.5758 86.854 27.3282 86.7673 27.0945C86.6131 26.6708 86.3271 26.3691 85.8869 26.2349C85.7049 26.1791 85.5229 26.125 85.3409 26.0692C85.2317 26.0361 85.1225 25.9995 84.9336 25.9384C85.2265 25.8565 85.4397 25.7867 85.6598 25.7379C86.3184 25.5914 86.6893 25.1607 86.8679 24.5295C86.9268 24.322 86.9459 24.1005 87.0932 23.8232L87.0897 23.825Z" fill="white"/>
<path d="M68.2596 60.7264C68.1955 61.4117 68.277 62.0447 68.2354 62.6812C68.0413 62.737 67.8749 62.7335 67.7033 62.6916C67.6877 62.6393 67.6634 62.5975 67.6634 62.5574C67.6617 61.1554 67.6617 59.7517 67.6634 58.3497C67.6634 58.3096 67.6894 58.2695 67.705 58.2259C67.7483 58.2102 67.7882 58.1823 67.8281 58.1805C68.5179 58.177 69.2077 58.1753 69.8975 58.1753C69.953 58.1753 70.0102 58.198 70.0761 58.2119C70.1263 58.3654 70.1142 58.5031 70.0431 58.6705C69.7606 58.742 69.4712 58.6705 69.1834 58.667C68.8923 58.6635 68.5994 58.6496 68.3186 58.7071C68.2371 59.0263 68.2215 59.5267 68.2648 60.1946C68.3411 60.2103 68.4226 60.2399 68.504 60.2417C68.8125 60.2469 69.121 60.2417 69.4296 60.2434C69.5284 60.2434 69.6289 60.2626 69.7346 60.273C69.7415 60.3498 69.7537 60.4073 69.7502 60.4649C69.745 60.5364 69.7259 60.6078 69.7121 60.6881C69.4798 60.7962 69.2458 60.7247 69.0171 60.7282C68.7831 60.7334 68.5491 60.7282 68.2596 60.7282V60.7264Z" fill="white"/>
<path d="M75.985 58.2049C76.1202 58.191 76.2069 58.1753 76.2935 58.1753C76.3646 58.1753 76.4356 58.1927 76.4998 58.2014C76.6072 58.3636 76.5639 58.531 76.5639 58.688C76.5622 59.7081 76.5535 60.7264 76.55 61.7465C76.55 61.8913 76.5362 62.0395 76.602 62.1894C77.1376 62.3045 77.6853 62.1546 78.2417 62.2854C78.2313 62.4266 78.2226 62.5504 78.2157 62.6672C77.8725 62.7335 76.5656 62.7475 76.0162 62.6934C76.0041 62.6167 75.9729 62.533 75.9781 62.451C76.0491 61.1955 75.9867 59.94 75.9746 58.6845C75.9746 58.5397 75.9815 58.3933 75.9867 58.2049H75.985Z" fill="white"/>
<path d="M100.252 40.8459C100.208 40.6925 100.156 40.5408 100.123 40.3856C99.9934 39.7822 99.6052 39.4474 99.028 39.3027C98.8876 39.2678 98.7455 39.2312 98.5254 39.1754C98.7143 39.1126 98.8287 39.0725 98.9431 39.0359C99.0974 38.9853 99.2551 38.9487 99.4041 38.8859C99.7022 38.7586 99.9137 38.5372 100.026 38.232C100.092 38.0524 100.139 37.8658 100.198 37.6827C100.219 37.6165 100.248 37.5537 100.283 37.4683C100.396 37.5607 100.382 37.6705 100.413 37.7595C100.46 37.899 100.489 38.0454 100.539 38.1832C100.678 38.5703 100.942 38.8284 101.337 38.947C101.546 39.0098 101.758 39.0725 102.028 39.1527C101.893 39.2051 101.808 39.2399 101.721 39.2678C101.567 39.3167 101.411 39.355 101.259 39.4091C100.87 39.5468 100.628 39.8293 100.505 40.2182C100.439 40.4274 100.385 40.6419 100.328 40.8547C100.304 40.8512 100.279 40.8477 100.255 40.8442L100.252 40.8459Z" fill="white"/>
<path d="M50.4366 58.2156C50.6376 58.1598 50.7919 58.158 50.9531 58.2068C51.0294 58.3708 50.9999 58.5347 50.9999 58.6934C50.9964 59.8739 50.9912 61.0562 50.986 62.2367C50.986 62.3814 50.9791 62.5244 50.9756 62.6744C50.7971 62.7476 50.6411 62.7127 50.4609 62.7058C50.4453 62.6116 50.4193 62.5279 50.4193 62.4459C50.4158 61.1608 50.4141 59.8774 50.4141 58.5922C50.4141 58.4754 50.4279 58.3603 50.4366 58.2138V58.2156Z" fill="white"/>
<path d="M68.4375 47.8839C68.5138 45.603 70.2037 43.8331 72.339 43.5837C72.4118 43.575 72.4863 43.5715 72.5574 43.5802C72.7272 43.6029 72.8468 43.7459 72.8503 43.9168C72.8538 44.072 72.7654 44.2028 72.6076 44.2446C72.4811 44.2778 72.3476 44.2882 72.2177 44.3144C70.689 44.623 69.7097 45.542 69.2798 47.0399C69.1915 47.3468 69.1915 47.6816 69.1568 48.0042C69.1464 48.1071 69.1637 48.2117 69.1516 48.3146C69.1343 48.4733 69.0164 48.5866 68.8673 48.6075C68.6992 48.6302 68.5398 48.5395 68.4982 48.3651C68.4618 48.2082 68.4566 48.0443 68.4375 47.8839Z" fill="white"/>
</g>
</g>
<defs>
<filter id="filter0_d_341_22591" x="20.4102" y="-3" width="153.357" height="137.08" filterUnits="userSpaceOnUse" color-interpolation-filters="sRGB">
<feFlood flood-opacity="0" result="BackgroundImageFix"/>
<feColorMatrix in="SourceAlpha" type="matrix" values="0 0 0 0 0 0 0 0 0 0 0 0 0 0 0 0 0 0 127 0" result="hardAlpha"/>
<feOffset dy="3"/>
<feGaussianBlur stdDeviation="3"/>
<feColorMatrix type="matrix" values="0 0 0 0 0 0 0 0 0 0 0 0 0 0 0 0 0 0 0.161 0"/>
<feBlend mode="normal" in2="BackgroundImageFix" result="effect1_dropShadow_341_22591"/>
<feBlend mode="normal" in="SourceGraphic" in2="effect1_dropShadow_341_22591" result="shape"/>
</filter>
<filter id="filter1_d_341_22591" x="116.783" y="100.426" width="63.7168" height="63.7158" filterUnits="userSpaceOnUse" color-interpolation-filters="sRGB">
<feFlood flood-opacity="0" result="BackgroundImageFix"/>
<feColorMatrix in="SourceAlpha" type="matrix" values="0 0 0 0 0 0 0 0 0 0 0 0 0 0 0 0 0 0 127 0" result="hardAlpha"/>
<feOffset dy="3"/>
<feGaussianBlur stdDeviation="3"/>
<feColorMatrix type="matrix" values="0 0 0 0 0 0 0 0 0 0 0 0 0 0 0 0 0 0 0.161 0"/>
<feBlend mode="normal" in2="BackgroundImageFix" result="effect1_dropShadow_341_22591"/>
<feBlend mode="normal" in="SourceGraphic" in2="effect1_dropShadow_341_22591" result="shape"/>
</filter>
<filter id="filter2_d_341_22591" x="97.8203" y="152.14" width="101.643" height="62.855" filterUnits="userSpaceOnUse" color-interpolation-filters="sRGB">
<feFlood flood-opacity="0" result="BackgroundImageFix"/>
<feColorMatrix in="SourceAlpha" type="matrix" values="0 0 0 0 0 0 0 0 0 0 0 0 0 0 0 0 0 0 127 0" result="hardAlpha"/>
<feOffset dy="3"/>
<feGaussianBlur stdDeviation="3"/>
<feColorMatrix type="matrix" values="0 0 0 0 0 0 0 0 0 0 0 0 0 0 0 0 0 0 0.161 0"/>
<feBlend mode="normal" in2="BackgroundImageFix" result="effect1_dropShadow_341_22591"/>
<feBlend mode="normal" in="SourceGraphic" in2="effect1_dropShadow_341_22591" result="shape"/>
</filter>
<filter id="filter3_d_341_22591" x="12.9629" y="100.426" width="63.7168" height="63.7158" filterUnits="userSpaceOnUse" color-interpolation-filters="sRGB">
<feFlood flood-opacity="0" result="BackgroundImageFix"/>
<feColorMatrix in="SourceAlpha" type="matrix" values="0 0 0 0 0 0 0 0 0 0 0 0 0 0 0 0 0 0 127 0" result="hardAlpha"/>
<feOffset dy="3"/>
<feGaussianBlur stdDeviation="3"/>
<feColorMatrix type="matrix" values="0 0 0 0 0 0 0 0 0 0 0 0 0 0 0 0 0 0 0.161 0"/>
<feBlend mode="normal" in2="BackgroundImageFix" result="effect1_dropShadow_341_22591"/>
<feBlend mode="normal" in="SourceGraphic" in2="effect1_dropShadow_341_22591" result="shape"/>
</filter>
<filter id="filter4_d_341_22591" x="-6" y="152.14" width="101.643" height="62.855" filterUnits="userSpaceOnUse" color-interpolation-filters="sRGB">
<feFlood flood-opacity="0" result="BackgroundImageFix"/>
<feColorMatrix in="SourceAlpha" type="matrix" values="0 0 0 0 0 0 0 0 0 0 0 0 0 0 0 0 0 0 127 0" result="hardAlpha"/>
<feOffset dy="3"/>
<feGaussianBlur stdDeviation="3"/>
<feColorMatrix type="matrix" values="0 0 0 0 0 0 0 0 0 0 0 0 0 0 0 0 0 0 0.161 0"/>
<feBlend mode="normal" in2="BackgroundImageFix" result="effect1_dropShadow_341_22591"/>
<feBlend mode="normal" in="SourceGraphic" in2="effect1_dropShadow_341_22591" result="shape"/>
</filter>
<linearGradient id="paint0_linear_341_22591" x1="97.0892" y1="0" x2="97.0892" y2="125.08" gradientUnits="userSpaceOnUse">
<stop stop-color="#FE70A5"/>
<stop offset="1" stop-color="#D33BFD"/>
</linearGradient>
<clipPath id="clip0_341_22591">
<rect width="193.462" height="206.001" fill="white"/>
</clipPath>
<clipPath id="clip1_341_22591">
<rect width="100" height="44" fill="white" transform="translate(47.0039 19)"/>
</clipPath>
</defs>
</svg>
