<svg id='add-image' width="100" height="100" viewBox="0 0 100 100" fill="none"
  xmlns="http://www.w3.org/2000/svg">
  <rect width="100" height="100" rx="16" fill="#F5D0FF" fill-opacity="0.15"/>
  <g clip-path="url(#clip0_530_46343)">
    <path d="M61 67.25H61.25V67V49.25H64.75V67C64.75 69.0619 63.0619 70.75 61 70.75H33C30.9381 70.75 29.25 69.0619 29.25 67V39C29.25 36.9381 30.9381 35.25 33 35.25H50.75V38.75H33H32.75V39V67V67.25H33H61ZM45.2277 60.8197L45.4265 61.0591L45.6174 60.8134L50.9167 53.9917L57.4994 62.75H36.5117L41.5062 56.3388L45.2277 60.8197ZM64.75 35V35.25H65H70.75V38.75H65H64.75V39V44.7312L64.3768 44.7328C64.0034 44.7344 63.5054 44.7363 63.0069 44.7375C62.5082 44.7388 62.0093 44.7394 61.6341 44.7384C61.4829 44.7381 61.3523 44.7374 61.25 44.7365V39V38.75H61H55.2512L55.2528 38.3789C55.2544 38.0053 55.2562 37.5071 55.2575 37.0081C55.2587 36.5093 55.2594 36.0094 55.2584 35.6328C55.2581 35.4837 55.2574 35.3534 55.2565 35.25H61H61.25V35V29.25H64.75V35Z" fill="white" stroke="#1E1C22" stroke-width="0.5"/>
  </g>
  <defs>
    <clipPath id="clip0_530_46343">
      <rect width="48" height="48" fill="white" transform="translate(26 26)"/>
    </clipPath>
  </defs>
</svg>
