<svg xmlns="http://www.w3.org/2000/svg" width="31.644" height="27.494" viewBox="0 0 31.644 27.494"><defs><style>.a{fill:#00acea;}.b{fill:#00ceb4;}.c{fill:#00efd1;}.d{fill:#d4e1f4;}</style></defs><g transform="translate(0 -26.907)"><g transform="translate(0 26.907)"><path class="a" d="M82.089,29.379a2.417,2.417,0,0,1,2.1,2.659l-1.853,16.4a2.377,2.377,0,0,1-2.621,2.105l-.078-.01h-.121V35.5a2.418,2.418,0,0,0-2.418-2.418H56.947l.443-4.029a2.458,2.458,0,0,1,2.7-2.136Z" transform="translate(-52.555 -26.907)"/><path class="b" d="M26.956,240.189v1.451a2.418,2.418,0,0,1-2.418,2.418H2.418A2.418,2.418,0,0,1,0,241.64v-3.385l6.648-4.835a2.74,2.74,0,0,1,3.505.161l4.432,3.868a2.861,2.861,0,0,0,3.3.282l9.066-5.319Z" transform="translate(0 -216.564)"/><path class="c" d="M26.956,109.443V116.7l-9.066,5.319a2.861,2.861,0,0,1-3.3-.282l-4.432-3.868a2.74,2.74,0,0,0-3.505-.161L0,122.538v-13.1a2.418,2.418,0,0,1,2.418-2.418h22.12A2.418,2.418,0,0,1,26.956,109.443Z" transform="translate(0 -100.846)"/></g><circle class="d" cx="2.579" cy="2.579" r="2.579" transform="translate(13.538 37.115)"/></g></svg>