<svg id="google" xmlns="http://www.w3.org/2000/svg" width="22.313" height="22.313" viewBox="0 0 22.313 22.313" fill="currentColor">
  <path id="Path_108798" data-name="Path 108798" d="M276.96,211.479h-9.1a.728.728,0,0,0-.728.728v2.907a.728.728,0,0,0,.728.728h5.125a6.842,6.842,0,0,1-2.945,3.451l2.185,3.783a10.94,10.94,0,0,0,5.578-9.567,7.372,7.372,0,0,0-.125-1.429A.731.731,0,0,0,276.96,211.479Z" transform="translate(-255.489 -202.263)"/>
  <path id="Path_108799" data-name="Path 108799" d="M44.068,337.245a6.79,6.79,0,0,1-5.874-3.4l-3.783,2.181a11.148,11.148,0,0,0,15.235,4.089v-.005l-2.185-3.783A6.74,6.74,0,0,1,44.068,337.245Z" transform="translate(-32.911 -319.298)"/>
  <path id="Path_108800" data-name="Path 108800" d="M261.578,394.567v-.005l-2.185-3.783A6.74,6.74,0,0,1,256,391.7v4.366A11.138,11.138,0,0,0,261.578,394.567Z" transform="translate(-244.843 -373.749)"/>
  <path id="Path_108801" data-name="Path 108801" d="M4.366,133.692a6.741,6.741,0,0,1,.917-3.393L1.5,128.119a11.106,11.106,0,0,0,0,11.146l3.783-2.181A6.741,6.741,0,0,1,4.366,133.692Z" transform="translate(0 -122.535)"/>
  <path id="Path_108802" data-name="Path 108802" d="M44.068,4.366A6.76,6.76,0,0,1,48.38,5.914a.725.725,0,0,0,.975-.044l2.06-2.06a.733.733,0,0,0-.042-1.072A11.132,11.132,0,0,0,34.411,5.584l3.783,2.181A6.79,6.79,0,0,1,44.068,4.366Z" transform="translate(-32.911 0)"/>
  <path id="Path_108803" data-name="Path 108803" d="M260.312,5.914a.725.725,0,0,0,.975-.044l2.06-2.06a.733.733,0,0,0-.042-1.072A11.123,11.123,0,0,0,256,0V4.366A6.76,6.76,0,0,1,260.312,5.914Z" transform="translate(-244.843)"/>
</svg>
