<svg id="google" xmlns="http://www.w3.org/2000/svg" width="49.205" height="49.205" viewBox="0 0 49.205 49.205">
  <path id="Path_108947" data-name="Path 108947" d="M24.6,0A24.6,24.6,0,1,1,0,24.6,24.6,24.6,0,0,1,24.6,0Z" transform="translate(0 0)" fill="#bec2ce"/>
  <g id="_x31__stroke" transform="translate(14.314 14.314)">
    <g id="Google-2" data-name="Google" transform="translate(0 0)">
      <rect id="Rectangle_22827" data-name="Rectangle 22827" width="21.055" height="21.055" fill="none"/>
      <path id="Path_108539" data-name="Path 108539" d="M5.561,40.184a6.053,6.053,0,0,1,.308-1.9L2.417,35.648a10.309,10.309,0,0,0,0,9.068l3.449-2.64a6.057,6.057,0,0,1-.3-1.892" transform="translate(-0.859 -29.656)" fill="#fff" fill-rule="evenodd"/>
      <path id="Path_108540" data-name="Path 108540" d="M17.14,4.189a5.933,5.933,0,0,1,3.775,1.35L23.9,2.56A10.247,10.247,0,0,0,7.938,5.7l3.451,2.635A6.043,6.043,0,0,1,17.14,4.189" transform="translate(-6.379 0.289)" fill="#fff" fill-rule="evenodd"/>
      <path id="Path_108541" data-name="Path 108541" d="M17.14,80.03a6.043,6.043,0,0,1-5.751-4.149L7.938,78.516a10.222,10.222,0,0,0,9.2,5.7,9.771,9.771,0,0,0,6.681-2.552l-3.275-2.532a6.343,6.343,0,0,1-3.405.9" transform="translate(-6.379 -63.453)" fill="#fff" fill-rule="evenodd"/>
      <path id="Path_108542" data-name="Path 108542" d="M75.244,54.226a8.48,8.48,0,0,0-.233-1.862H65.457V56.32h5.5a4.611,4.611,0,0,1-2.094,3.06l3.275,2.532a10.183,10.183,0,0,0,3.107-7.687" transform="translate(-54.696 -43.698)" fill="#fff" fill-rule="evenodd"/>
    </g>
  </g>
</svg>