<svg xmlns="http://www.w3.org/2000/svg" width="49" height="49" viewBox="0 0 49 49">
  <g id="twitter" transform="translate(0.167 -0.208)">
    <circle id="Ellipse_509" data-name="Ellipse 509" cx="24.5" cy="24.5" r="24.5" transform="translate(-0.167 0.208)" fill="#bec2ce"/>
    <path id="Icon_metro-twitter" data-name="Icon metro-twitter" d="M28.991,7.359a10.837,10.837,0,0,1-3.113.854,5.437,5.437,0,0,0,2.383-3,10.851,10.851,0,0,1-3.442,1.315,5.426,5.426,0,0,0-9.237,4.944A15.389,15.389,0,0,1,4.41,5.809a5.426,5.426,0,0,0,1.677,7.237,5.4,5.4,0,0,1-2.455-.678c0,.023,0,.045,0,.068A5.424,5.424,0,0,0,7.98,17.751a5.429,5.429,0,0,1-2.448.093A5.426,5.426,0,0,0,10.6,21.609a10.875,10.875,0,0,1-6.732,2.32,10.994,10.994,0,0,1-1.293-.076,15.342,15.342,0,0,0,8.309,2.435A15.317,15.317,0,0,0,26.3,10.866q0-.352-.016-.7a11.011,11.011,0,0,0,2.7-2.806Z" transform="translate(8.598 9.5)" fill="#fff"/>
  </g>
</svg>