<svg xmlns="http://www.w3.org/2000/svg" width="20.294" height="20.293" viewBox="0 0 20.294 20.293">
  <g id="_-settings" data-name="-settings" transform="translate(-0.75 -0.75)">
    <path id="Path_108805" data-name="Path 108805" d="M18.626,16.063A2.563,2.563,0,1,1,16.063,13.5,2.563,2.563,0,0,1,18.626,16.063Z" transform="translate(-5.166 -5.166)" fill="none" stroke="#fff" stroke-linecap="round" stroke-linejoin="round" stroke-width="1.5"/>
    <path id="Path_108806" data-name="Path 108806" d="M17.218,13.46a1.41,1.41,0,0,0,.282,1.555l.051.051a1.709,1.709,0,1,1-2.418,2.418l-.051-.051a1.421,1.421,0,0,0-2.409,1.008v.145a1.709,1.709,0,1,1-3.417,0v-.077a1.41,1.41,0,0,0-.923-1.29,1.41,1.41,0,0,0-1.555.282l-.051.051a1.709,1.709,0,1,1-2.418-2.418l.051-.051a1.421,1.421,0,0,0-1.008-2.409H3.209a1.709,1.709,0,1,1,0-3.417h.077a1.41,1.41,0,0,0,1.29-.923,1.41,1.41,0,0,0-.282-1.555l-.051-.051A1.709,1.709,0,1,1,6.66,4.311l.051.051a1.41,1.41,0,0,0,1.555.282h.068a1.41,1.41,0,0,0,.854-1.29V3.209a1.709,1.709,0,0,1,3.417,0v.077a1.421,1.421,0,0,0,2.409,1.008l.051-.051A1.709,1.709,0,1,1,17.483,6.66l-.051.051a1.41,1.41,0,0,0-.282,1.555v.068a1.41,1.41,0,0,0,1.29.854h.145a1.709,1.709,0,1,1,0,3.417h-.077a1.41,1.41,0,0,0-1.29.854Z" transform="translate(0 0)" fill="none" stroke="#fff" stroke-linecap="round" stroke-linejoin="round" stroke-width="1.5"/>
  </g>
</svg>
