<svg xmlns="http://www.w3.org/2000/svg" width="24.467" height="21.914" viewBox="0 0 24.467 21.914">
  <g id="_Add_Bank" data-name="_Add Bank" transform="translate(-6.064 -10.699)">
    <path id="Path_108807" data-name="Path 108807" d="M28.479,28.1a.421.421,0,0,1-.41.41H26.427v1.641a.41.41,0,1,1-.821,0V28.509H23.965a.41.41,0,1,1,0-.821h1.641V26.047a.41.41,0,1,1,.821,0v1.641h1.641A.4.4,0,0,1,28.479,28.1Zm2.052,0a4.514,4.514,0,1,1-4.514-4.514A4.518,4.518,0,0,1,30.531,28.1Zm-.821,0a3.693,3.693,0,1,0-3.693,3.693A3.713,3.713,0,0,0,29.71,28.1ZM25.99,16.855a.479.479,0,0,0-.465-.465H8.454a.465.465,0,0,0,0,.93H25.524A.479.479,0,0,0,25.99,16.855Zm-9-5.225L7.36,16.2H26.619Zm.848,14.855H20.6v-.191H17.837Zm.082-.465v.164h2.572V26.02Zm2.243-8.535H18.275a.547.547,0,0,0,0,1.094v6.347a.414.414,0,0,0-.356.41v.547h2.572v-.547a.393.393,0,0,0-.356-.41V18.606a.549.549,0,0,0,.547-.547A.518.518,0,0,0,20.163,17.484Zm-6.757,9h2.763v-.191H13.405Zm.082-.465v.164h2.572V26.02Zm2.243-8.535H13.843a.547.547,0,1,0,0,1.094v6.347a.414.414,0,0,0-.356.41v.547h2.572v-.547a.393.393,0,0,0-.356-.41V18.606a.549.549,0,0,0,.547-.547A.518.518,0,0,0,15.731,17.484Zm-6.757,9h2.763v-.191H8.974Zm.109-.465v.164h2.572V26.02ZM11.3,17.484H9.411a.547.547,0,1,0,0,1.094v6.347a.414.414,0,0,0-.356.41v.547h2.572v-.547a.393.393,0,0,0-.356-.41V18.606a.549.549,0,0,0,.547-.547A.518.518,0,0,0,11.3,17.484ZM27.631,16.39a.1.1,0,0,0,.082.027.23.23,0,0,0,.191-.109.207.207,0,0,0,.027-.109.23.23,0,0,0-.109-.191L17.1,10.727h0a.3.3,0,0,0-.137-.027h-.027L6.183,16.007a.236.236,0,0,0-.109.274.26.26,0,0,0,.274.109l10.642-5.225ZM7.36,28.755a.438.438,0,1,0,0,.875H21.038c-.082-.274-.137-.574-.191-.848H7.36Zm.52-1.067a.438.438,0,1,0,0,.875H20.846c0-.137-.027-.3-.027-.438a2.07,2.07,0,0,1,.027-.41H7.879Zm13.159-1.067H8.454a.438.438,0,0,0,0,.875h12.42A2.928,2.928,0,0,1,21.038,26.622Zm3.529-3.529V18.606a.547.547,0,1,0,0-1.094H22.679a.547.547,0,0,0,0,1.094v5.5A5.059,5.059,0,0,1,24.567,23.093Z" fill="#fff"/>
  </g>
</svg>
