<svg xmlns="http://www.w3.org/2000/svg" width="24.785" height="24.785" viewBox="0 0 24.785 24.785">
  <g id="_User_profile" transform="translate(-19.5 -19.5)" opacity="0.5">
    <path id="Path_108535" data-name="Path 108535" d="M31.893,44.285A12.393,12.393,0,1,1,44.285,31.893,12.41,12.41,0,0,1,31.893,44.285Zm0-23.056A10.663,10.663,0,1,0,42.556,31.893,10.676,10.676,0,0,0,31.893,21.229Zm0,10.4a3.487,3.487,0,1,1,3.487-3.487h0A3.481,3.481,0,0,1,31.893,31.633Zm0-5.245a1.758,1.758,0,1,0,1.758,1.758h0A1.747,1.747,0,0,0,31.893,26.388Zm6.946,15.563h-.058a.868.868,0,0,1-.807-.922c0-.173.029-.346.029-.49a6.1,6.1,0,1,0-12.191-.259v.259a3.142,3.142,0,0,0,.029.49.867.867,0,1,1-1.729.115h0a4.679,4.679,0,0,1-.029-.605,7.826,7.826,0,1,1,15.649-.288v.288a4.462,4.462,0,0,1-.029.605A.856.856,0,0,1,38.838,41.951Z" fill="#fff"/>
  </g>
</svg>
