<svg xmlns="http://www.w3.org/2000/svg" width="24.139" height="24.853" viewBox="0 0 24.139 24.853">
  <g id="baseline" opacity="0.5">
    <path id="Path_1731" data-name="Path 1731" d="M0,0H24.139V24.853H0Z" fill="none"/>
    <path id="Path_1732" data-name="Path 1732" d="M18.018,9.817v8.764H4.876V4.948h8.437V3H4.895A1.918,1.918,0,0,0,3.02,4.948V18.581a1.918,1.918,0,0,0,1.875,1.948H18.018a1.918,1.918,0,0,0,1.875-1.948V9.817Zm-1.894,0,.881-2.006L18.937,6.9,17.006,5.98l-.881-2.006L15.244,5.98,13.313,6.9l1.931.915Zm-3.515.73L11.438,7.869l-1.172,2.678L7.688,11.764l2.578,1.217,1.172,2.678,1.172-2.678,2.578-1.217Z" transform="translate(0.823 -0.132)" fill="#fff"/>
  </g>
</svg>
