<!-- <svg xmlns="http://www.w3.org/2000/svg" xmlns:xlink="http://www.w3.org/1999/xlink" width="24" height="24" viewBox="0 0 24 24">
  <defs>
    <clipPath id="clip-path">
      <rect id="Rectangle_25404" data-name="Rectangle 25404" width="24" height="24" transform="translate(1629 8876)" fill="none" stroke="currentColor" stroke-width="1"/>
    </clipPath>
  </defs>
  <g id="chat" data-name="Mask Group 26048" transform="translate(-1629 -8876)" clip-path="url(#clip-path)">
    <g id="chat" data-name="Group 50008" transform="translate(1629.618 8876.619)">
      <path id="chat" data-name="Path 108211" d="M5.345,23.677a1.722,1.722,0,0,1-1.722-1.669l-.055-1.833A10.784,10.784,0,0,1,0,12.027,10.834,10.834,0,0,1,3.291,4.134,11.509,11.509,0,0,1,11.341,1a11.509,11.509,0,0,1,8.051,3.134,10.834,10.834,0,0,1,3.291,7.895,10.834,10.834,0,0,1-3.291,7.894,11.509,11.509,0,0,1-8.051,3.134A12.271,12.271,0,0,1,8.1,22.624l-2.058.908A1.729,1.729,0,0,1,5.345,23.677Zm6-20.9a9.21,9.21,0,0,0-9.568,9.255,9.036,9.036,0,0,0,2.988,6.841,1.722,1.722,0,0,1,.574,1.223V20.1l.055,1.786L7.4,21a1.729,1.729,0,0,1,1.148-.086,10.5,10.5,0,0,0,2.794.37,9.261,9.261,0,1,0,0-18.512ZM5.765,15.647l3.312-2.553a.632.632,0,0,1,.758,0L12.285,15a1.58,1.58,0,0,0,2.275-.418L17.64,9.7a.5.5,0,0,0-.721-.659l-3.31,2.508a.632.632,0,0,1-.758,0L10.4,9.69a1.58,1.58,0,0,0-2.275.418l-3.081,4.88a.5.5,0,0,0,.72.659Z" transform="translate(0.001 -0.999)" fill="currentColor" />
    </g>
  </g>
</svg> -->

<!-- <svg xmlns="http://www.w3.org/2000/svg" width="25.461" height="25.463" viewBox="0 0 25.461 25.463">
  <g id="chat" data-name="005-chat" transform="translate(-0.5 -0.002)">
    <path id="Path_156041" data-name="Path 156041" d="M25.961,12.218A12.5,12.5,0,0,0,13.231,0,12.5,12.5,0,0,0,.5,12.218v.021a12.017,12.017,0,0,0,3.995,8.885V24.2a1.248,1.248,0,0,0,1.248,1.264,1.241,1.241,0,0,0,.659-.19L8.875,23.73a13.064,13.064,0,0,0,4.331.736h.019l.245,0A12.5,12.5,0,0,0,25.961,12.252v-.034Zm-4.882,7.7a10.938,10.938,0,0,1-7.834,3.058h-.016A11.58,11.58,0,0,1,9.2,22.262a1.087,1.087,0,0,0-.956.1L5.988,23.773V20.942a1.092,1.092,0,0,0-.377-.825,10.522,10.522,0,0,1-3.618-7.876A11.008,11.008,0,0,1,13.216,1.5h.03A11.008,11.008,0,0,1,24.468,12.235,10.939,10.939,0,0,1,21.079,19.915Zm0,0" fill="currentColor"/>
    <path id="Path_156042" data-name="Path 156042" d="M143.146,174.273H132.2a.747.747,0,0,0,0,1.493h10.942a.747.747,0,1,0,0-1.493Zm0,0" transform="translate(-124.444 -165.605)" fill="currentColor"/>
    <path id="Path_156043" data-name="Path 156043" d="M143.146,240.688H132.2a.747.747,0,0,0,0,1.493h10.942a.747.747,0,1,0,0-1.493Zm0,0" transform="translate(-124.444 -228.716)" fill="currentColor"/>
    <path id="Path_156044" data-name="Path 156044" d="M249.419,307.1h-5.38a.747.747,0,0,0,0,1.493h5.38a.747.747,0,1,0,0-1.493Zm0,0" transform="translate(-230.718 -291.827)" fill="currentColor"/>
  </g>
</svg> -->

<svg id='chat' width="52" height="52" viewBox="0 0 52 52" fill="none" xmlns="http://www.w3.org/2000/svg">
<path d="M25.9999 46.0166C24.8499 46.0166 23.7666 45.4333 22.9999 44.4166L20.4999 41.0833C20.4038 41.0018 20.2894 40.9446 20.1666 40.9166H19.3333C12.3833 40.9166 8.08325 39.0333 8.08325 29.6666V21.3333C8.08325 13.9666 11.9666 10.0833 19.3333 10.0833H32.6666C40.0333 10.0833 43.9166 13.9666 43.9166 21.3333V29.6666C43.9166 37.0333 40.0333 40.9166 32.6666 40.9166H31.8333C31.6999 40.9166 31.5833 40.9833 31.4999 41.0833L28.9999 44.4166C28.2333 45.4333 27.1499 46.0166 25.9999 46.0166ZM19.3333 12.5833C13.3666 12.5833 10.5833 15.3666 10.5833 21.3333V29.6666C10.5833 37.1999 13.1666 38.4166 19.3333 38.4166H20.1666C21.0166 38.4166 21.9833 38.8999 22.4999 39.5833L24.9999 42.9166C25.5833 43.6833 26.4166 43.6833 26.9999 42.9166L29.4999 39.5833C30.0499 38.8499 30.9166 38.4166 31.8333 38.4166H32.6666C38.6333 38.4166 41.4166 35.6333 41.4166 29.6666V21.3333C41.4166 15.3666 38.6333 12.5833 32.6666 12.5833H19.3333Z" fill="currentColor"/>
<path d="M34.3334 22.5833H17.6667C16.9834 22.5833 16.4167 22.0166 16.4167 21.3333C16.4167 20.6499 16.9834 20.0833 17.6667 20.0833H34.3334C35.0167 20.0833 35.5834 20.6499 35.5834 21.3333C35.5834 22.0166 35.0167 22.5833 34.3334 22.5833ZM27.6667 30.9166H17.6667C16.9834 30.9166 16.4167 30.3499 16.4167 29.6666C16.4167 28.9833 16.9834 28.4166 17.6667 28.4166H27.6667C28.3501 28.4166 28.9167 28.9833 28.9167 29.6666C28.9167 30.3499 28.3501 30.9166 27.6667 30.9166Z" fill="currentColor"/>
</svg>

