<svg xmlns="http://www.w3.org/2000/svg" xmlns:xlink="http://www.w3.org/1999/xlink" width="16" height="16" viewBox="0 0 16 16"><defs><style>.a{fill:rgba(255,255,255,0.4);stroke:#bcbcbc;}.b{clip-path:url(#a);}</style><clipPath id="a"><rect class="a" width="16" height="16" transform="translate(18.906 40)"/></clipPath></defs><g class="b" transform="translate(-18.906 -40)"><g transform="translate(21 42)"><path class="a" d="M11.6.139a.474.474,0,0,0-.67,0L.139,10.926a.474.474,0,1,0,.67.67L11.6.809A.474.474,0,0,0,11.6.139Z" transform="translate(0 0)"/><g transform="translate(0 0)"><path class="a" d="M11.6,10.926.809.139a.474.474,0,0,0-.67.67L10.926,11.6a.474.474,0,1,0,.67-.67Z" transform="translate(0 0)"/></g></g></g></svg>