<svg xmlns="http://www.w3.org/2000/svg" width="21.367" height="21.386" viewBox="0 0 21.367 21.386">
  <g id="comment" transform="translate(-2.5 -2.4)">
    <circle id="Ellipse_68" data-name="Ellipse 68" cx="1.574" cy="1.574" r="1.574" transform="translate(6.615 11.395)" fill="#fff"/>
    <circle id="Ellipse_69" data-name="Ellipse 69" cx="1.574" cy="1.574" r="1.574" transform="translate(11.473 11.395)" fill="#fff"/>
    <circle id="Ellipse_70" data-name="Ellipse 70" cx="1.5" cy="1.5" r="1.5" transform="translate(16 11.686)" fill="#fff"/>
    <path id="Path_108155" data-name="Path 108155" d="M23.729,21.65h0l-1.552-3.418A10.5,10.5,0,1,0,18.332,22.1l3.4,1.552a1.587,1.587,0,0,0,.63.135,1.5,1.5,0,0,0,1.057-.45A1.478,1.478,0,0,0,23.729,21.65Zm-5.1-1.349a1.059,1.059,0,0,0-.36-.09.885.885,0,0,0-.472.135,8.79,8.79,0,1,1,4.048-7.4,8.667,8.667,0,0,1-1.394,4.745.909.909,0,0,0-.067.832L21.84,21.74Z" fill="#fff"/>
  </g>
</svg>
