<svg xmlns="http://www.w3.org/2000/svg" width="14.444" height="14.461" viewBox="0 0 14.444 14.461"><defs><style>.a{fill:#fedb41;}.b{fill:#fc3;}.c{fill:#fea832;}.d{fill:#fe9923;}</style></defs><path class="a" d="M7.25,0A7.251,7.251,0,0,0,0,7.2a7.3,7.3,0,0,0,7.25,7.259A7.23,7.23,0,0,0,7.25,0Z" transform="translate(0)"/><path class="b" d="M264.518,7.2A7.417,7.417,0,0,1,257,14.461V0A7.37,7.37,0,0,1,264.518,7.2Z" transform="translate(-250.073)"/><path class="c" d="M65.481,60a5.462,5.462,0,1,0,5.426,5.434A5.488,5.488,0,0,0,65.481,60Z" transform="translate(-58.231 -58.231)"/><path class="d" d="M262.749,65.434A5.655,5.655,0,0,1,257,70.923V60A5.609,5.609,0,0,1,262.749,65.434Z" transform="translate(-250.073 -58.231)"/><path class="a" d="M183.154,123.258h-.442v-1.629h.442a.422.422,0,0,1,.442.407.444.444,0,0,0,.884,0,1.276,1.276,0,0,0-1.327-1.222h-.442v-.407a.444.444,0,0,0-.884,0v.407h-.5A1.276,1.276,0,0,0,180,122.036v.815a1.276,1.276,0,0,0,1.327,1.222h.5v1.683h-.5a.422.422,0,0,1-.442-.407.444.444,0,0,0-.884,0,1.276,1.276,0,0,0,1.327,1.222h.5v.407a.444.444,0,0,0,.884,0v-.407h.442a1.276,1.276,0,0,0,1.327-1.222v-.869A1.276,1.276,0,0,0,183.154,123.258Zm-1.327,0h-.5a.422.422,0,0,1-.442-.407v-.815a.422.422,0,0,1,.442-.407h.5Zm1.769,2.091a.422.422,0,0,1-.442.407h-.442v-1.683h.442a.422.422,0,0,1,.442.407Z" transform="translate(-175.018 -116.462)"/><path class="b" d="M257.885,123.258h-.442v-1.629h.442a.422.422,0,0,1,.442.407.444.444,0,0,0,.884,0,1.276,1.276,0,0,0-1.327-1.222h-.442v-.407A.412.412,0,0,0,257,120v7.385a.412.412,0,0,0,.442-.407v-.407h.442a1.276,1.276,0,0,0,1.327-1.222v-.869A1.276,1.276,0,0,0,257.885,123.258Zm.442,2.091a.422.422,0,0,1-.442.407h-.442v-1.683h.442a.422.422,0,0,1,.442.407Z" transform="translate(-249.806 -116.462)"/></svg>