<svg xmlns="http://www.w3.org/2000/svg" width="24.544" height="22.811" viewBox="0 0 24.544 22.811"><defs><style>.a{opacity:0.5;}.b{fill:#fff;}</style></defs><g class="a" transform="translate(-5 -10.414)"><g transform="translate(5 10.414)"><path class="b" d="M21.4,10.414H13.147A8.16,8.16,0,0,0,5,18.569v2.18a8.137,8.137,0,0,0,5.546,7.726l.119.04-.063.109c-.435.751-1.026,1.93-1.805,3.6a.7.7,0,0,0,.138.791.713.713,0,0,0,.5.205.685.685,0,0,0,.286-.062l9.31-4.259H21.4a8.16,8.16,0,0,0,8.147-8.155v-2.18A8.16,8.16,0,0,0,21.4,10.414Zm-10.358,20.4a18.491,18.491,0,0,1,1.164-2.1l.012-.016.017-.01a.7.7,0,0,0-.243-1.291A6.739,6.739,0,0,1,6.4,20.749v-2.18a6.756,6.756,0,0,1,6.745-6.752H21.4a6.756,6.756,0,0,1,6.745,6.752v2.18A6.756,6.756,0,0,1,21.4,27.5H18.88a.708.708,0,0,0-.292.064l-7.681,3.514Z" transform="translate(-5 -10.414)"/><path class="b" d="M19.205,32.681a1.676,1.676,0,1,0,1.675,1.675A1.677,1.677,0,0,0,19.205,32.681Z" transform="translate(-13.167 -24.928)"/><path class="b" d="M55.013,32.681a1.676,1.676,0,1,0,1.675,1.675A1.677,1.677,0,0,0,55.013,32.681Z" transform="translate(-36.508 -24.928)"/><path class="b" d="M37.11,32.681a1.676,1.676,0,1,0,1.675,1.675A1.677,1.677,0,0,0,37.11,32.681Z" transform="translate(-24.838 -24.928)"/></g></g></svg>