<svg xmlns="http://www.w3.org/2000/svg" width="88.551" height="59.034" viewBox="0 0 88.551 59.034"><defs><style>.a{fill:#1e67b5;}.b{fill:#3d9ce8;}.c{fill:#187ccc;}</style></defs><g transform="translate(0 -85.333)"><path class="a" d="M96.645,272.67a9.224,9.224,0,0,1-7.084,3.321h-70.1a9.224,9.224,0,0,1-7.084-3.321l33.834-28.189,3.505,2.4a8.445,8.445,0,0,0,9.593,0l3.505-2.4Z" transform="translate(-10.234 -131.623)"/><path class="b" d="M94.692,89.355l-34.35,23.5-3.505,2.4a8.445,8.445,0,0,1-9.593,0l-3.505-2.4L9.388,89.318a9.264,9.264,0,0,1,7.6-3.985h70.1A9.1,9.1,0,0,1,94.692,89.355Z" transform="translate(-7.764 0)"/><g transform="translate(0 89.318)"><path class="c" d="M35.974,131.915,2.14,160.1A9.183,9.183,0,0,1,0,154.2V113.614a9.091,9.091,0,0,1,1.623-5.239Z" transform="translate(0 -108.375)"/><path class="c" d="M339.975,113.79v40.586a9.184,9.184,0,0,1-2.14,5.9L304,132.091l34.35-23.5A9.06,9.06,0,0,1,339.975,113.79Z" transform="translate(-251.424 -108.551)"/></g></g></svg>