<svg xmlns="http://www.w3.org/2000/svg" width="17.324" height="17.32" viewBox="0 0 17.324 17.32">
  <path id="globe" d="M12.035,3.375h-.029a8.66,8.66,0,0,0,0,17.319h.029a8.66,8.66,0,1,0,0-17.319Zm7.5,8.077H16.306A16.4,16.4,0,0,0,15.9,8.279a12.683,12.683,0,0,0,2.069-.874A7.459,7.459,0,0,1,19.537,11.452Zm-8.085,0H8.879a14.8,14.8,0,0,1,.366-2.877,12.666,12.666,0,0,0,2.207.3Zm0,1.166v2.577a12.72,12.72,0,0,0-2.207.3,14.8,14.8,0,0,1-.366-2.873Zm1.166,0H15.17a14.711,14.711,0,0,1-.366,2.869,12.427,12.427,0,0,0-2.186-.291Zm0-1.166V8.871A12.72,12.72,0,0,0,14.8,8.579a14.755,14.755,0,0,1,.366,2.873Zm4.555-4.909a11.566,11.566,0,0,1-1.582.645,8.6,8.6,0,0,0-1.1-2.269A7.534,7.534,0,0,1,17.172,6.543Zm-2.681.945a11.717,11.717,0,0,1-1.873.25V4.682A5.045,5.045,0,0,1,14.491,7.488ZM11.452,4.666V7.734A11.515,11.515,0,0,1,9.558,7.48,5.042,5.042,0,0,1,11.452,4.666Zm-1.9.266A8.664,8.664,0,0,0,8.458,7.184,11.826,11.826,0,0,1,6.9,6.543,7.421,7.421,0,0,1,9.553,4.932ZM6.1,7.409a12.432,12.432,0,0,0,2.048.866,15.735,15.735,0,0,0-.408,3.172H4.537A7.42,7.42,0,0,1,6.1,7.409Zm-1.57,5.208H7.738a16.353,16.353,0,0,0,.408,3.172,13.19,13.19,0,0,0-2.048.866A7.46,7.46,0,0,1,4.532,12.618Zm2.361,4.909a11.651,11.651,0,0,1,1.565-.641,8.7,8.7,0,0,0,1.095,2.257A7.606,7.606,0,0,1,6.893,17.526Zm2.665-.941a11.575,11.575,0,0,1,1.894-.254V19.4A5.034,5.034,0,0,1,9.558,16.585Zm3.06,2.8v-3.06a11.717,11.717,0,0,1,1.873.25A5.042,5.042,0,0,1,12.618,19.387Zm1.873-.237a8.6,8.6,0,0,0,1.1-2.269,11.375,11.375,0,0,1,1.582.649A7.62,7.62,0,0,1,14.491,19.15Zm3.476-2.49a12.683,12.683,0,0,0-2.069-.874,16.31,16.31,0,0,0,.408-3.168h3.231A7.426,7.426,0,0,1,17.967,16.66Z" transform="translate(-3.375 -3.375)" fill="#fff"/>
</svg>
