<svg xmlns="http://www.w3.org/2000/svg" width="21.446" height="36.263" viewBox="0 0 21.446 36.263"><defs><style>.a{fill:#fff;}</style></defs><g transform="translate(-22.5 -3.5)"><g transform="translate(22.5 3.5)"><path class="a" d="M40.826,3.5H25.619A3.119,3.119,0,0,0,22.5,6.619V36.643a3.119,3.119,0,0,0,3.119,3.119H40.826a3.119,3.119,0,0,0,3.119-3.119V6.619A3.119,3.119,0,0,0,40.826,3.5Zm-7.6,33.494a1.56,1.56,0,1,1,1.56-1.56A1.56,1.56,0,0,1,33.223,36.994Zm8.383-5.186H24.84V7.672H41.606Z" transform="translate(-22.5 -3.5)"/></g></g></svg>