<?xml version="1.0"?>
<svg xmlns="http://www.w3.org/2000/svg" xmlns:xlink="http://www.w3.org/1999/xlink" xmlns:svgjs="http://svgjs.com/svgjs" version="1.1" width="512" height="512" x="0" y="0" viewBox="0 0 480 480" style="enable-background:new 0 0 512 512" xml:space="preserve" class=""><g><path xmlns="http://www.w3.org/2000/svg" d="m310.367188 184 34.402343-24-164.386719-114.574219v-45.425781h-16v45.425781l-164.382812 114.574219 34.398438 24-34.398438 24 34.398438 24-34.398438 24 164.382812 114.574219v29.425781h-56c-39.746093.042969-71.953124 32.253906-72 72v8h272v-8c-.042968-39.746094-32.253906-71.957031-72-72h-56v-29.425781l164.386719-114.574219-34.402343-24 34.402343-24zm-18.550782 280h-238.863281c4.011719-27.535156 27.605469-47.964844 55.429687-48h128c27.828126.035156 51.421876 20.464844 55.433594 48zm-127.433594-399.070312v111.070312h16v-111.070312l136.417969 95.070312-144.417969 100.648438-144.414062-100.648438zm-116 128.796874 124 86.425782 124-86.398438 20.417969 14.246094-144.417969 100.648438-144.414062-100.648438zm268.417969 62.273438-144.417969 100.648438-144.414062-100.648438 20.414062-14.265625 124 86.417969 124-86.398438zm0 0" fill="#ffffff" data-original="#000000" style=""/></g></svg>
