<svg xmlns="http://www.w3.org/2000/svg" width="19.327" height="15.821" viewBox="0 0 19.327 15.821">
  <g id="image" opacity="0.5">
    <g id="Layer_2" data-name="Layer 2">
      <path id="Path_108539" data-name="Path 108539" d="M17.77,15.822H1.557A1.557,1.557,0,0,1,0,14.265V1.557A1.557,1.557,0,0,1,1.557,0H17.77a1.557,1.557,0,0,1,1.557,1.557V14.265a1.557,1.557,0,0,1-1.557,1.557ZM1.557,1.214a.343.343,0,0,0-.343.343V14.265a.343.343,0,0,0,.343.343H17.77a.343.343,0,0,0,.34-.343V1.557a.343.343,0,0,0-.34-.343Z" fill="#fff"/>
      <path id="Path_108540" data-name="Path 108540" d="M10.873,27.218H22.865a.513.513,0,0,0,.428-.816l-1.654-2.246a.513.513,0,0,0-.774-.067l-1.7,1.618-3.946-5.357a.513.513,0,0,0-.844.024L10.43,26.426a.513.513,0,0,0,.443.792Z" transform="translate(-7.207 -14.027)" fill="#fff"/>
      <circle id="Ellipse_511" data-name="Ellipse 511" cx="1.8" cy="1.8" r="1.8" transform="translate(11.594 2.789)" fill="#fff"/>
    </g>
  </g>
</svg>
