<svg xmlns="http://www.w3.org/2000/svg" width="24.165" height="21.785" viewBox="0 0 24.165 21.785"><defs><style>.a{opacity:0.5;}.b{fill:#fff;}</style></defs><g class="a" transform="translate(-237.7 -135.6)"><path class="b" d="M666.717,515.338a1.24,1.24,0,0,1-.841-.328l-5.154-4.731a1.243,1.243,0,1,1,1.682-1.83l5.154,4.731a1.243,1.243,0,0,1-.841,2.159Z" transform="translate(-406.094 -357.953)"/><path class="b" d="M247.648,155.5a9.948,9.948,0,1,1,9.948-9.948A9.958,9.958,0,0,1,247.648,155.5Zm0-17.906a7.958,7.958,0,1,0,7.962,7.958A7.967,7.967,0,0,0,247.648,137.59Z" transform="translate(0 0)"/></g></svg>