<svg xmlns="http://www.w3.org/2000/svg" width="20.753" height="21.327" viewBox="0 0 20.753 21.327"><defs><style>.a{opacity:0.5;}.b,.c{fill:#fff;stroke:#fff;}.b{stroke-width:0.5px;}.c{stroke-width:0.2px;}</style></defs><g class="a" transform="translate(-9.845 -8.715)"><g transform="translate(10.095 8.965)"><path class="b" d="M29.427,15.474h-.658a5.713,5.713,0,0,0,.067-.868,5.641,5.641,0,1,0-11.283,0,5.72,5.72,0,0,0,.067.868h-6.6a.922.922,0,0,0-.921.921v1.766a.918.918,0,0,0,.594.856v9.615a1.161,1.161,0,0,0,1.16,1.16H28.6a1.161,1.161,0,0,0,1.16-1.16V19.017a.918.918,0,0,0,.591-.855V16.4A.922.922,0,0,0,29.427,15.474Zm-6.233-6a5.14,5.14,0,0,1,5.134,5.134,5.208,5.208,0,0,1-.111,1.069q-.046.218-.111.431a5.126,5.126,0,0,1-1.725,2.522,5.055,5.055,0,0,1-3.186,1.112q-.22,0-.436-.018c-.167-.014-.331-.038-.493-.067a5.021,5.021,0,0,1-1.907-.77q-.179-.12-.35-.256h0a5.119,5.119,0,0,1-1.835-2.952h0a5.225,5.225,0,0,1-.111-1.069A5.14,5.14,0,0,1,23.195,9.472Zm-6.751,6.509h1.278c.016.063.036.124.054.187.012.041.023.082.035.123.044.141.092.28.147.416.005.013.012.026.017.039.05.123.106.243.165.362.021.041.043.082.064.123q.073.138.153.272c.025.041.049.082.075.123q.1.151.2.3c.016.023.031.046.048.068.087.116.18.228.276.337.028.032.059.063.088.095.046.05.091.1.14.15H16.444Zm-3.609,0h3.1v2.591h-3.1Zm2.7,3.1v3.4l-.214.2-.292-.28a.254.254,0,0,0-.351,0l-.291.279-.29-.279a.254.254,0,0,0-.352,0l-.29.279-.212-.2v-3.4Zm-4.515-.508a.413.413,0,0,1-.414-.411V16.4a.414.414,0,0,1,.414-.414h1.311v2.591H11.016ZM29.25,28.632a.653.653,0,0,1-.652.652H11.849a.653.653,0,0,1-.652-.652V19.08h1.536v3.48c0,.005,0,.01,0,.015a.25.25,0,0,0,.075.195l.466.448a.254.254,0,0,0,.352,0l.29-.279.29.279a.254.254,0,0,0,.352,0l.291-.279.292.279a.254.254,0,0,0,.351,0l.467-.448a.25.25,0,0,0,.075-.195c0-.005,0-.01,0-.015v-3.48h3.723c.054.042.111.078.166.118s.12.089.182.129.142.088.214.131.123.076.186.11.151.076.227.114.125.064.189.092c.079.035.16.065.241.1.063.024.126.051.19.073.084.029.17.052.256.077.063.018.125.039.188.055.091.023.184.04.276.058.06.012.119.027.179.037.1.017.208.028.313.039.051.006.1.014.153.019q.235.019.474.02t.474-.02c.052,0,.1-.013.156-.019.1-.011.208-.022.31-.039.063-.01.124-.026.186-.038.09-.018.181-.035.27-.057.066-.017.13-.038.2-.057.083-.024.167-.047.248-.075.067-.023.131-.051.2-.076s.157-.059.233-.093.13-.063.2-.095.148-.071.221-.11.126-.075.189-.112.142-.083.211-.129.12-.085.18-.128.114-.077.169-.12H29.25v9.552Zm.591-10.471a.413.413,0,0,1-.414.411H27.2c.05-.051.1-.1.145-.156.027-.029.054-.057.08-.086.1-.111.191-.224.279-.342.014-.019.027-.039.041-.059q.109-.15.209-.306c.025-.039.048-.079.072-.119q.082-.136.156-.276c.021-.04.043-.079.063-.12.06-.121.116-.243.167-.368l.015-.034c.055-.137.1-.277.148-.418.012-.039.023-.08.034-.119.018-.063.038-.125.054-.189h.76a.414.414,0,0,1,.414.414Z" transform="translate(-10.095 -8.965)"/><path class="c" d="M50.161,22.909a.137.137,0,0,1,.039.121l-.236,1.378a.644.644,0,0,0,.935.679l1.238-.651a.136.136,0,0,1,.128,0l1.237.651a.645.645,0,0,0,.935-.679L54.2,23.03a.137.137,0,0,1,.039-.121l1-.976a.645.645,0,0,0-.357-1.1l-1.383-.2a.137.137,0,0,1-.1-.075L52.778,19.3h0a.645.645,0,0,0-1.156,0L51,20.558a.137.137,0,0,1-.1.075l-1.384.2a.645.645,0,0,0-.357,1.1Zm-.681-1.479a.133.133,0,0,1,.111-.093l1.383-.2a.645.645,0,0,0,.485-.353l.619-1.254a.137.137,0,0,1,.246,0l.619,1.254a.645.645,0,0,0,.485.352l1.383.2a.137.137,0,0,1,.076.234l-1,.976a.645.645,0,0,0-.185.57l.236,1.378a.137.137,0,0,1-.2.144L52.5,23.988a.645.645,0,0,0-.6,0l-1.238.651a.137.137,0,0,1-.2-.144l.236-1.378a.644.644,0,0,0-.185-.571l-1-.976A.133.133,0,0,1,49.479,21.429Z" transform="translate(-39.101 -16.412)"/></g></g></svg>