<svg id="selfUserLogo" width="118" height="118" viewBox="0 0 118 118" fill="none"
    xmlns="http://www.w3.org/2000/svg">
    <g clip-path="url(#clip0_345_13310)">
        <path d="M59 117C91.0325 117 117 91.0325 117 59C117 26.9675 91.0325 1 59 1C26.9675 1 1 26.9675 1 59C1 91.0325 26.9675 117 59 117Z" stroke="currentColor" stroke-width="2"/>
        <g clip-path="url(#clip1_345_13310)">
            <path d="M16.2468 60.108C16.1292 60.1162 16.0647 60.1373 16.0099 60.1227C15.1475 59.9098 14.6753 59.3768 14.5527 58.5384C14.4544 57.869 14.5527 57.2223 14.8332 56.6032C15.1169 55.9792 15.5344 55.4528 16.0292 54.9913C16.8578 54.2179 17.7894 53.5988 18.8098 53.1113C20.5329 52.2891 22.3575 51.8407 24.2451 51.6376C25.0591 51.5498 25.8795 51.4962 26.6984 51.4832C27.3238 51.4735 27.9524 51.5482 28.5779 51.5921C28.8358 51.6099 29.0937 51.6473 29.3516 51.6814C30.1575 51.7854 30.928 52.0113 31.6663 52.3525C32.0918 52.5491 32.4835 52.7977 32.8284 53.1162C33.441 53.68 33.794 54.3657 33.831 55.2139C33.8552 55.7712 33.8085 56.3156 33.6376 56.8453C33.4281 57.4969 33.0154 58.0038 32.4948 58.4247C31.9564 58.8601 31.3503 59.1705 30.6959 59.3931C29.9544 59.6449 29.1952 59.8026 28.4183 59.8887C28.2571 59.9065 28.0991 59.9342 27.9347 59.9829C28.3345 60.147 28.7455 60.2673 29.1049 60.5045C29.487 60.7564 29.819 61.0602 30.0834 61.4355C30.338 61.7979 30.5266 62.1944 30.6362 62.6266C30.7459 63.0572 30.7749 63.4943 30.7297 63.9574C30.8426 63.8761 30.8442 63.7705 30.87 63.673C31.3455 61.9035 32.4351 60.6784 34.1131 59.9829C34.2888 59.9098 34.4742 59.8562 34.6595 59.8074C34.7982 59.7717 34.861 59.6904 34.8917 59.5556C34.969 59.2208 35.0545 58.8861 35.1367 58.553C35.1528 58.4864 35.1673 58.4182 35.1882 58.3532C35.2511 58.1566 35.3897 58.0639 35.5912 58.0672C36.028 58.0769 36.4649 58.0916 36.9017 58.1062C36.9952 58.1094 37.0887 58.1208 37.1934 58.1289C37.2273 58.0428 37.2611 57.9697 37.2853 57.8917C37.8172 56.1823 38.7844 54.7784 40.1964 53.693C40.8105 53.2218 41.494 52.8822 42.2209 52.6222C43.122 52.2989 44.0505 52.1819 44.9999 52.1803C45.8542 52.1803 46.6875 52.3103 47.5031 52.5637C48.9748 53.022 50.4384 52.9683 51.9004 52.515C53.0916 52.1461 54.1554 51.5368 55.15 50.7926C55.2015 50.7536 55.2451 50.7033 55.3176 50.635C55.2048 50.5473 55.1145 50.4677 55.0146 50.4027C54.589 50.1183 54.1119 49.9477 53.63 49.7917C53.0545 49.6048 52.4694 49.4976 51.8617 49.4862C50.4819 49.4602 49.1037 49.4082 47.7256 49.3627C47.1937 49.3449 46.6617 49.3205 46.1282 49.2961C46.0943 49.2961 46.0589 49.2782 46.025 49.2295C46.349 49.2084 46.673 49.1775 46.9986 49.1694C48.6927 49.1239 50.3868 49.0849 52.0825 49.0378C52.2308 49.0345 52.3807 49.0036 52.5274 48.9728C53.2915 48.8119 54.041 48.6055 54.7422 48.2481C55.0001 48.1165 55.2273 47.9458 55.4707 47.7411C55.4143 47.6582 55.3724 47.5754 55.3128 47.5104C54.7712 46.9271 54.2247 46.347 53.6815 45.7653C53.5719 45.6467 53.4655 45.5248 53.3608 45.4062C53.3866 45.3785 53.3946 45.3639 53.4059 45.3607C53.4172 45.3574 53.4333 45.3623 53.443 45.3688C53.4655 45.3834 53.4897 45.398 53.5091 45.4159C54.2296 46.0919 54.9485 46.7678 55.669 47.4438C55.6771 47.4519 55.6932 47.4519 55.7319 47.4633C55.777 47.4161 55.8382 47.3625 55.8866 47.3008C56.2928 46.7841 56.5249 46.1796 56.7103 45.5589C56.8247 45.1771 56.9102 44.7871 57.0004 44.3971C57.0278 44.2785 57.0294 44.1518 57.0343 44.0283C57.0778 42.6926 57.1197 41.357 57.1584 40.023C57.1713 39.555 57.1729 39.0854 57.1858 38.6175C57.1922 38.4127 57.2132 38.2064 57.2712 38C57.2938 38.403 57.326 38.8059 57.3389 39.2105C57.3631 39.9807 57.3502 40.7542 57.3986 41.5227C57.4437 42.2377 57.4292 42.9542 57.4534 43.6692C57.4856 44.6295 57.7161 45.5475 58.0917 46.4282C58.2529 46.8068 58.4511 47.1643 58.7606 47.4811C59.1733 47.1415 59.5279 46.7613 59.9083 46.412C60.2903 46.061 60.6643 45.7003 61.0463 45.3396C61.1317 45.4387 61.0463 45.476 61.0124 45.5134C60.5192 46.048 60.0211 46.5777 59.5295 47.1139C59.3554 47.304 59.1555 47.473 59.0056 47.7102C59.2039 47.9361 59.4473 48.0872 59.6971 48.2237C60.279 48.5422 60.9109 48.7209 61.546 48.8867C61.9441 48.9906 62.3471 49.0378 62.7597 49.0443C63.8397 49.0621 64.9181 49.1028 65.998 49.1336C66.7089 49.1548 67.4197 49.171 68.129 49.1938C68.2627 49.1986 68.3965 49.2165 68.5319 49.275C68.432 49.2847 68.3337 49.301 68.2337 49.3042C66.8959 49.353 65.558 49.4001 64.2201 49.444C63.9332 49.4537 63.6463 49.4489 63.3594 49.457C62.9902 49.4667 62.6227 49.4749 62.2536 49.4944C61.7587 49.5204 61.2832 49.6487 60.8142 49.8031C60.3596 49.9526 59.9083 50.1118 59.5037 50.3783C59.3328 50.4904 59.1555 50.5944 59.0056 50.7715C59.0637 50.8479 59.112 50.9291 59.1749 50.9957C59.7165 51.5791 60.2613 52.1591 60.8045 52.7425C60.8948 52.8383 60.9931 52.9293 61.0463 53.0528C61.0189 53.0707 61.0092 53.0837 60.9979 53.0837C60.985 53.0837 60.9705 53.0788 60.9592 53.0707C60.9173 53.0366 60.8754 53.0008 60.8351 52.9635C60.1662 52.333 59.4973 51.7026 58.8283 51.0721C58.8186 51.0624 58.8041 51.0591 58.7687 51.0396C58.7171 51.0819 58.6413 51.1209 58.601 51.1826C58.4318 51.4491 58.2545 51.7123 58.1175 51.9967C57.8402 52.5686 57.6613 53.1796 57.5469 53.8035C57.4727 54.2065 57.4695 54.6241 57.4518 55.0368C57.4356 55.4089 57.4501 55.781 57.4372 56.1531C57.397 57.349 57.3518 58.5465 57.3083 59.7424C57.2986 60.0008 57.2857 60.2591 57.2164 60.5191C57.2003 60.1357 57.181 59.7506 57.1697 59.3671C57.1439 58.3613 57.1262 57.3555 57.0988 56.3513C57.081 55.7046 57.0536 55.0579 57.031 54.4112C57.0278 54.343 57.0278 54.2731 57.0133 54.2065C56.8537 53.4948 56.7038 52.7782 56.4008 52.1104C56.2767 51.8358 56.1203 51.5758 55.9688 51.3142C55.9156 51.2216 55.8334 51.1469 55.748 51.0445C54.9388 51.6782 54.2441 52.4159 53.4897 53.0999C53.4252 52.9667 53.522 52.9277 53.5655 52.8708C53.6138 52.8058 53.6751 52.749 53.7315 52.6889C53.7782 52.6385 53.8266 52.5897 53.8717 52.5377C53.9217 52.4792 53.9652 52.4159 54.0168 52.3476C53.9185 52.2989 53.8637 52.3574 53.8089 52.3834C52.5935 52.9521 51.312 53.1666 49.9806 53.1194C49.2134 53.0918 48.4574 52.9862 47.7127 52.7945C46.3764 52.4516 45.0289 52.4175 43.6958 52.7685C41.6455 53.3096 39.8982 54.3641 38.541 56.028C38.0606 56.6162 37.6867 57.2726 37.3691 57.9632C37.3482 58.0103 37.3466 58.0656 37.3337 58.1257C37.5078 58.2394 37.698 58.2687 37.8801 58.319C38.3427 58.449 38.786 58.6245 39.2115 58.8504C39.2841 58.8894 39.3566 58.9267 39.4259 58.9722C39.5807 59.073 39.6435 59.216 39.5887 59.398C39.5371 59.5686 39.4743 59.7376 39.4275 59.9098C39.3582 60.16 39.2406 60.3973 39.2067 60.6849C39.6516 61.0635 40.0739 61.4713 40.4043 61.9653C40.7428 62.4738 40.9878 63.0214 41.1506 63.6113C41.3086 64.1832 41.3376 64.7714 41.3489 65.3547C41.4746 65.3775 41.5166 65.293 41.5697 65.2378C42.0372 64.7535 42.4756 64.2433 42.8722 63.6974C43.5749 62.7306 44.2697 61.7573 44.9692 60.7872C45.0498 60.6767 45.1288 60.563 45.2223 60.4622C45.4592 60.2055 45.7607 60.1486 46.0879 60.2104C46.3329 60.2559 46.4747 60.5012 46.399 60.7434C46.37 60.8343 46.3264 60.9221 46.2797 61.0066C45.9525 61.5948 45.6204 62.1814 45.2948 62.7712C44.8371 63.6015 44.3809 64.4334 43.9279 65.267C43.8586 65.3954 43.778 65.527 43.7635 65.6813C43.8602 65.7203 43.8957 65.6505 43.9344 65.6082C44.937 64.5537 45.988 63.5479 47.0583 62.5632C47.7159 61.9604 48.3865 61.3738 49.1086 60.849C49.5083 60.5581 49.9145 60.2819 50.3868 60.1162C50.6947 60.0089 50.9784 60.0479 51.2476 60.2234C51.304 60.2608 51.3572 60.3063 51.4007 60.3599C51.5216 60.5094 51.5683 60.6702 51.47 60.8555C51.3394 61.0976 51.2186 61.3446 51.088 61.5867C50.6818 62.3357 50.2708 63.0832 49.8678 63.8339C49.7791 63.9996 49.6711 64.1605 49.6373 64.3603C49.7695 64.3993 49.821 64.297 49.8855 64.2417C50.6286 63.6129 51.3668 62.9776 52.1099 62.3487C52.7918 61.7719 53.5203 61.2601 54.2989 60.823C54.61 60.6475 54.9388 60.511 55.2854 60.4249C55.6045 60.3469 55.9108 60.3729 56.1848 60.5711C56.2509 60.6182 56.3121 60.6751 56.3621 60.7401C56.4782 60.8863 56.4862 60.9985 56.3734 61.1528C56.08 61.5509 55.777 61.9425 55.4804 62.339C54.9952 62.9889 54.5036 63.6324 54.0345 64.2937C53.725 64.7308 53.4591 65.2004 53.2737 65.7057C53.1835 65.9494 53.1141 66.2029 53.0497 66.4548C53.0223 66.5588 53.019 66.6741 53.0303 66.783C53.0577 67.069 53.2028 67.2688 53.4817 67.3615C53.7363 67.446 53.9959 67.4557 54.2489 67.3777C54.4697 67.3095 54.689 67.225 54.8921 67.1161C55.6609 66.7099 56.317 66.1477 56.9472 65.5514C57.0262 65.4766 57.1036 65.397 57.181 65.319C57.6307 64.8722 58.0562 64.4091 58.2932 63.8046C59.378 61.8206 60.632 59.952 62.0827 58.2183C62.4712 57.7536 62.8935 57.3214 63.3626 56.9411C63.693 56.673 64.0444 56.4358 64.4603 56.3139C64.7843 56.2181 65.0825 56.262 65.3629 56.4374C65.4323 56.4797 65.4967 56.5349 65.5499 56.5951C65.7014 56.7738 65.695 56.9265 65.5338 57.102C64.939 57.7487 64.3378 58.3889 63.7478 59.0405C62.7517 60.1389 61.7797 61.2584 60.869 62.4316C60.3129 63.1482 59.7938 63.8924 59.3473 64.6837C59.0765 65.163 58.8315 65.6553 58.7106 66.1997C58.6333 66.5474 58.6558 66.8805 58.8154 67.2055C58.9524 67.4833 59.1523 67.6198 59.4698 67.5922C59.8664 67.5581 60.2081 67.3907 60.524 67.1714C61.2865 66.6416 61.9087 65.9657 62.439 65.2069C62.7452 64.7682 63.0289 64.3132 63.2369 63.8127C63.34 63.5641 63.3819 63.3318 63.3158 63.0555C63.182 62.5031 63.1611 61.936 63.2788 61.3754C63.3158 61.2016 63.3658 61.0261 63.4432 60.8685C63.6946 60.3631 64.1685 60.3063 64.5957 60.4086C64.7069 60.4346 64.7907 60.5175 64.8278 60.6264C64.8665 60.7417 64.9052 60.8636 64.9116 60.9855C64.9277 61.3153 64.9261 61.6468 64.8439 61.9701C64.7424 62.3698 64.6505 62.7728 64.5409 63.1709C64.4748 63.4065 64.4845 63.6275 64.5618 63.8582C64.6731 64.1865 64.8117 64.5001 65.0228 64.7747C65.3791 65.2394 65.8626 65.3369 66.3623 65.0346C66.5122 64.9436 66.6621 64.8348 66.7782 64.7032C67.6744 63.6762 68.6851 62.7679 69.6699 61.8336C70.7144 60.8425 71.7622 59.8529 72.8115 58.865C72.9904 58.696 73.1839 58.5416 73.3708 58.3808C73.5852 58.1972 73.8254 58.1533 74.0994 58.2264C74.4959 58.3304 74.6749 58.6603 74.525 59.0502C74.4863 59.1526 74.4315 59.2501 74.3702 59.3411C74.2783 59.4776 74.18 59.6108 74.0736 59.7359C73.7835 60.0755 73.582 60.4606 73.4402 60.8831C73.2242 61.5233 73.0823 62.183 72.9501 62.8443C72.7325 63.9379 72.5149 65.0314 72.2941 66.1249C72.257 66.3134 72.2087 66.4987 72.1587 66.7131C72.2377 66.7196 72.3005 66.7359 72.3618 66.7294C73.3451 66.614 74.1897 66.1932 74.9312 65.5481C75.0553 65.4409 75.181 65.3336 75.3019 65.2215C75.7516 64.8104 76.1046 64.3311 76.4028 63.7949C77.4199 61.9685 78.5128 60.186 79.6991 58.4669C80.1521 57.8105 80.6228 57.1654 81.1692 56.5853C81.3949 56.3464 81.6431 56.1303 81.8929 55.9159C81.9945 55.8281 82.1202 55.7615 82.2443 55.7079C82.4007 55.6413 82.5683 55.6136 82.7005 55.7615C82.8327 55.911 82.9246 56.0881 82.8472 56.2896C82.7779 56.4683 82.6908 56.6438 82.5844 56.8014C82.1766 57.4059 81.7737 58.0119 81.3417 58.5985C80.5099 59.7262 79.6508 60.8327 78.8207 61.9636C78.4225 62.5063 78.0663 63.0783 77.6956 63.6405C77.5924 63.7965 77.5021 63.9639 77.4441 64.1426C77.5714 64.206 77.623 64.1231 77.6811 64.0808C78.3726 63.5869 79.0592 63.0864 79.7523 62.5941C80.6244 61.975 81.4916 61.3511 82.4345 60.8425C82.7102 60.693 82.9987 60.5646 83.2888 60.4444C83.5161 60.3501 83.7579 60.2949 84.0094 60.3128C84.4994 60.3501 84.7492 60.8051 84.5026 61.2357C84.3591 61.4843 84.1834 61.715 84.0142 61.949C83.3888 62.8183 82.7553 63.6827 82.1347 64.5569C81.8478 64.9615 81.606 65.3954 81.419 65.8552C81.3159 66.1087 81.2369 66.3752 81.1789 66.6433C81.145 66.8009 81.1499 66.9747 81.1756 67.134C81.2176 67.3923 81.3949 67.5158 81.6479 67.4703C81.8204 67.4395 81.9913 67.381 82.1557 67.3127C82.5248 67.1584 82.8472 66.9211 83.1551 66.6693C83.4936 66.3914 83.8143 66.0892 84.1415 65.7967C84.2447 65.7041 84.3269 65.6017 84.3785 65.4669C84.7009 64.6333 85.2102 63.9184 85.7808 63.2473C86.3434 62.586 86.9607 61.9831 87.6506 61.4583C88.1552 61.0748 88.6919 60.7499 89.2964 60.5516C89.6639 60.4314 90.0395 60.3664 90.4263 60.3973C90.7664 60.4249 91.0598 60.5516 91.2935 60.81C91.4676 61.0017 91.5547 61.2259 91.5547 61.4859C91.5547 61.7816 91.4741 62.0546 91.3467 62.3195C91.1082 62.8151 90.7423 63.2034 90.3248 63.5414C89.4656 64.2368 88.5146 64.7763 87.483 65.1614C86.9156 65.3742 86.3273 65.4912 85.6954 65.4279C85.6406 65.5237 85.5793 65.6131 85.5374 65.7106C85.3456 66.1493 85.2812 66.6091 85.3295 67.0836C85.3956 67.7189 85.7389 68.0504 86.3643 68.0959C86.8124 68.13 87.2315 68.0163 87.6361 67.8359C88.2019 67.5824 88.7161 67.2428 89.1997 66.8578C90.0572 66.1737 90.8889 65.4587 91.624 64.6365C91.8367 64.3977 92.0156 64.1442 92.1607 63.8615C92.9812 62.2561 93.8887 60.7011 94.88 59.1948C95.4538 58.3223 96.0535 57.466 96.7691 56.7023C97.0238 56.4309 97.2946 56.1807 97.6138 55.9873C98.1457 55.6656 98.6486 55.8151 98.9533 56.4131C98.8856 56.5122 98.813 56.6243 98.7324 56.7332C97.7911 58.0201 96.8433 59.3005 95.91 60.5922C95.096 61.7167 94.3062 62.8573 93.5711 64.037C93.2375 64.5748 92.9103 65.1159 92.6507 65.6943C92.4863 66.0616 92.3751 66.4418 92.3429 66.8448C92.3267 67.0397 92.3445 67.2298 92.4202 67.4118C92.5057 67.6182 92.6524 67.7433 92.878 67.7774C93.2117 67.8294 93.5324 67.7774 93.8452 67.6653C94.3642 67.4801 94.8365 67.2038 95.2862 66.887C96.0067 66.38 96.6402 65.7756 97.2511 65.1419C97.7733 64.6024 98.1538 63.9801 98.5019 63.3172C99.5061 61.4031 100.609 59.5474 101.901 57.8153C102.229 57.3766 102.601 56.9688 102.964 56.5577C103.173 56.3188 103.426 56.1287 103.699 55.9662C104.208 55.6656 104.711 55.8265 105.003 56.4098C104.92 56.5301 104.833 56.6682 104.738 56.7998C103.505 58.501 102.261 60.1974 101.037 61.9068C100.357 62.8557 99.7173 63.8339 99.1386 64.851C98.9694 65.1484 98.8211 65.4604 98.6728 65.7707C98.5229 66.0843 98.4503 66.4207 98.4004 66.7619C98.3697 66.9699 98.3843 67.173 98.46 67.3712C98.5503 67.6117 98.7099 67.7531 98.971 67.7839C99.2627 67.8181 99.5432 67.7758 99.8188 67.6897C100.24 67.5581 100.625 67.3485 100.996 67.1129C101.882 66.5523 102.651 65.8503 103.355 65.0753C103.568 64.8413 103.773 64.6008 103.994 64.3749C104.077 64.2888 104.19 64.232 104.295 64.1718C104.321 64.1572 104.387 64.1686 104.405 64.193C104.435 64.2303 104.469 64.3002 104.455 64.3343C104.406 64.4464 104.347 64.5569 104.274 64.6544C103.812 65.2719 103.291 65.8373 102.741 66.3752C102.398 66.7099 102.042 67.0332 101.674 67.342C101.307 67.6507 100.905 67.9188 100.467 68.1154C99.6754 68.4713 98.8823 68.481 98.0925 68.091C97.6186 67.857 97.3655 67.4768 97.3301 66.9536C97.3156 66.7489 97.3285 66.5409 97.3494 66.3362C97.372 66.1184 97.4187 65.904 97.4542 65.683C97.3091 65.6765 97.2592 65.787 97.1898 65.8601C96.7192 66.3605 96.2275 66.8383 95.6988 67.277C95.3603 67.5597 94.9944 67.7969 94.6124 68.013C94.2368 68.2275 93.8274 68.3478 93.4035 68.3754C92.8474 68.4111 92.3171 68.2844 91.8416 67.9757C91.5643 67.7953 91.3951 67.5369 91.3161 67.2152C91.2452 66.9309 91.2387 66.6433 91.2871 66.354C91.3225 66.1412 91.3564 65.9267 91.4015 65.6505C91.2806 65.7463 91.2049 65.7983 91.1372 65.8601C90.3731 66.5734 89.5607 67.2233 88.6758 67.7807C88.2454 68.0504 87.7973 68.286 87.317 68.4518C86.7528 68.6467 86.1774 68.7394 85.5858 68.5687C85.1538 68.4436 84.7895 68.2113 84.4945 67.8684C84.2737 67.6101 84.1512 67.3078 84.1254 66.9666C84.1141 66.8171 84.1093 66.666 84.0996 66.4759C84.011 66.5279 83.9417 66.5588 83.8852 66.6043C83.4275 66.9747 82.9778 67.3566 82.5135 67.7189C82.3314 67.8619 82.1283 67.9822 81.9203 68.0845C81.1885 68.4469 80.3552 68.0845 80.1086 67.2981C79.9845 66.8984 79.9667 66.4857 80.0344 66.0713C80.1295 65.4929 80.3455 64.9566 80.6212 64.4481C80.9613 63.8192 81.3336 63.2083 81.6947 62.5925C81.8414 62.3439 81.9961 62.1001 82.1444 61.8531C82.1766 61.7995 82.1976 61.7394 82.2556 61.6127C81.9381 61.7459 81.706 61.8824 81.4755 62.0189C80.1005 62.8346 78.8739 63.8371 77.7536 64.9826C77.0025 65.7512 76.3496 66.5978 75.7516 67.4898C75.5904 67.7287 75.4212 67.9643 75.2358 68.1853C74.965 68.5054 74.8618 68.4989 74.4363 68.377C74.2542 68.325 74.1494 68.1495 74.1865 67.9545C74.2203 67.7807 74.2783 67.6084 74.3573 67.4508C74.5234 67.1194 74.7103 66.7976 74.886 66.471C74.9296 66.3914 74.9618 66.3053 74.9956 66.2273C74.915 66.1591 74.8731 66.2143 74.8361 66.2419C74.1655 66.7375 73.4224 67.0771 72.6181 67.2737C72.1861 67.3793 71.7976 67.5597 71.4382 67.8245C71.1609 68.0293 70.8563 68.1836 70.5162 68.2616C69.9504 68.39 69.383 68.4485 68.8108 68.3153C68.3353 68.2031 67.9678 67.9318 67.6986 67.5256C67.3698 67.0284 67.1489 66.4808 66.9748 65.9121C66.9362 65.7853 66.891 65.6618 66.8411 65.5107C66.6815 65.6277 66.5525 65.7285 66.4187 65.8195C66.3252 65.8828 66.2237 65.9251 66.1221 65.8243C66.0432 65.7463 65.9448 65.7642 65.8513 65.7756C65.2872 65.839 64.8407 65.6098 64.4667 65.2053C64.2314 64.9518 64.0541 64.6577 63.8977 64.3506C63.8558 64.2693 63.801 64.1962 63.7301 64.0808C63.6527 64.2271 63.5963 64.3327 63.5415 64.4383C62.8742 65.7317 61.978 66.8253 60.7819 67.6572C60.3516 67.9562 59.8889 68.195 59.3667 68.2828C59.1265 68.3234 58.8783 68.3413 58.6349 68.3396C58.1433 68.3348 57.8064 68.0683 57.6275 67.6247C57.5307 67.3858 57.4759 67.1226 57.4485 66.8659C57.4179 66.5945 57.4421 66.3167 57.4421 66.0421C57.4421 65.9624 57.4421 65.8845 57.4421 65.813C57.3228 65.7642 57.2777 65.852 57.2229 65.904C56.67 66.4385 56.0865 66.939 55.4417 67.3582C55.1677 67.5369 54.8792 67.6994 54.5826 67.8375C54.0797 68.0699 53.5526 68.0862 53.0207 67.9399C52.4936 67.7953 52.1825 67.4427 52.0696 66.9114C52.0003 66.5831 52.0003 66.2517 52.0825 65.9267C52.1535 65.6472 52.2389 65.3694 52.3453 65.1029C52.803 63.9476 53.3866 62.8589 54.1038 61.8434C54.1587 61.7654 54.2151 61.6858 54.2666 61.6062C54.2812 61.5834 54.286 61.5558 54.2957 61.5265C54.1877 61.455 54.1167 61.5493 54.0426 61.5915C53.4494 61.9376 52.8965 62.3406 52.3646 62.7761C51.2879 63.6568 50.3014 64.6252 49.4761 65.7512C48.978 66.4304 48.5525 67.1486 48.2382 67.9334C48.2285 67.9594 48.2108 67.9822 48.2043 68.0082C48.1253 68.3234 47.8126 68.4566 47.4822 68.3445C47.2791 68.2763 47.1534 68.1365 47.1243 67.9334C47.1034 67.7872 47.1131 67.6312 47.1421 67.485C47.2388 66.9829 47.4 66.5003 47.5773 66.0226C47.898 65.1565 48.3075 64.3311 48.7024 63.4991C48.9974 62.8784 49.3036 62.2626 49.6034 61.6435C49.6437 61.559 49.676 61.4713 49.7098 61.3933C49.6405 61.3153 49.5938 61.3722 49.5567 61.3966C48.5331 62.1131 47.5724 62.9028 46.6956 63.7997C45.6865 64.8332 44.7806 65.9527 43.8828 67.0836C43.6265 67.407 43.3573 67.7189 43.093 68.0342C43.0495 68.0862 42.9995 68.1349 42.9544 68.1869C42.7497 68.4209 42.4934 68.377 42.2999 68.2064C41.9921 67.9318 41.8341 67.5938 41.9614 67.173C42.0372 66.9227 42.1194 66.6741 42.2177 66.432C42.4643 65.8341 42.7255 65.2426 42.9753 64.6463C43.0043 64.5764 43.0704 64.5066 43.0076 64.3928C42.8963 64.5017 42.7883 64.6041 42.6852 64.7113C42.2467 65.1646 41.8148 65.6261 41.3699 66.0729C41.2377 66.2046 41.1587 66.3459 41.1039 66.523C40.6139 68.0959 39.6274 69.2398 38.13 69.9076C36.0055 70.8566 33.5312 70.2797 32.008 68.5086C31.1375 67.498 30.7152 66.3199 30.7023 64.9875C30.7023 64.864 30.7023 64.7405 30.6991 64.6171C30.6991 64.6041 30.6878 64.5927 30.683 64.5797C30.6056 64.5797 30.6137 64.6463 30.5992 64.6934C30.2994 65.657 29.7175 66.4272 28.976 67.0836C28.2394 67.7352 27.3947 68.2129 26.4985 68.5996C25.6652 68.9571 24.8028 69.2154 23.9098 69.3649C23.207 69.4819 22.501 69.5307 21.7885 69.5047C21.1164 69.4803 20.4539 69.4104 19.8059 69.2219C19.0741 69.0091 18.4068 68.676 17.8297 68.1706C17.5186 67.8977 17.2494 67.5873 17.0238 67.2412C16.9416 67.1161 16.861 66.991 16.7643 66.8415C16.6498 66.9244 16.5499 66.991 16.458 67.0657C15.8826 67.5321 15.2991 67.9887 14.6607 68.3656C14.3899 68.5249 14.1079 68.6662 13.8209 68.793C13.6485 68.8693 13.4567 68.9132 13.2697 68.9457C12.8635 69.0156 12.5459 68.8563 12.3251 68.5102C12.1204 68.1901 12.0237 67.8343 12.0043 67.4557C11.9818 67.0105 12.0495 66.5766 12.1559 66.1477C12.3702 65.2849 12.7442 64.4903 13.1907 63.7282C13.4824 63.2294 13.8032 62.7484 14.1627 62.2967C14.4045 61.9945 14.6769 61.7232 15.046 61.5802C15.1475 61.5412 15.2539 61.5087 15.3603 61.4892C15.7633 61.4128 16.0857 61.546 16.3258 61.8808C16.4886 62.1066 16.6015 62.3552 16.6837 62.6201C16.8932 63.2895 17.1028 63.9606 17.3139 64.6301C17.351 64.7454 17.3945 64.8592 17.4461 65.007C17.5364 64.9274 17.6153 64.8738 17.6718 64.8039C18.1666 64.18 18.6711 63.5641 19.1483 62.9256C20.4475 61.1869 21.7015 59.4126 23.0652 57.7243C23.8856 56.7088 24.7077 55.6949 25.6394 54.7801C25.9327 54.4925 26.2358 54.2097 26.5662 53.9676C27.0756 53.5923 27.6607 53.4915 28.2813 53.602C28.4892 53.6394 28.6665 53.7401 28.8213 53.8815C29.0598 54.0992 29.0743 54.5347 28.6923 54.6956C28.6423 54.7167 28.5908 54.7443 28.5392 54.7508C28.2523 54.7866 28.0363 54.9556 27.8203 55.1245C27.1497 55.6494 26.5227 56.223 25.915 56.8193C25.1123 57.6073 24.3225 58.4084 23.5326 59.2095C23.1264 59.6222 22.8024 60.1015 22.4623 60.5679C21.384 62.0465 20.2395 63.4683 18.9758 64.7909C18.6728 65.1078 18.3472 65.4051 18.0344 65.7106C17.9571 65.7853 17.8845 65.865 17.8023 65.9511C17.8926 66.1672 18.0038 66.354 18.1199 66.5393C18.6292 67.3615 19.274 68.039 20.146 68.4745C20.6667 68.7345 21.2163 68.871 21.795 68.9295C22.991 69.0513 24.1016 68.7605 25.1639 68.2421C26.26 67.7076 27.2206 66.9894 27.9992 66.0388C28.3764 65.579 28.6923 65.0801 28.889 64.5147C29.1791 63.6811 29.1646 62.8606 28.7165 62.0839C28.4167 61.5623 27.9927 61.1528 27.4866 60.8343C27.0772 60.5776 26.6452 60.394 26.1503 60.3501C25.6748 60.3079 25.2025 60.2185 24.7303 60.1454C24.582 60.1227 24.4353 60.0869 24.2918 60.0414C24.2016 60.0138 24.1145 59.965 24.0388 59.9098C23.8969 59.8074 23.8743 59.6514 23.9807 59.5133C24.1387 59.307 24.3579 59.1981 24.6078 59.1559C24.8125 59.1217 25.0172 59.1364 25.2154 59.203C25.3847 59.2582 25.5572 59.307 25.72 59.3752C25.9763 59.4841 26.2454 59.5279 26.5195 59.5393C27.6623 59.5832 28.7874 59.4776 29.8674 59.073C30.6362 58.7854 31.3197 58.3727 31.8113 57.6853C32.0789 57.3116 32.2643 56.9005 32.369 56.4537C32.5157 55.8281 32.5431 55.2009 32.3771 54.5721C32.2465 54.0749 31.9741 53.6752 31.5889 53.3453C31.1553 52.9748 30.6572 52.723 30.1188 52.5475C29.2275 52.2566 28.3054 52.1461 27.3754 52.112C26.2793 52.073 25.1897 52.1575 24.1048 52.2989C23.6858 52.3541 23.2715 52.45 22.8588 52.5394C21.031 52.9342 19.3336 53.6264 17.862 54.8174C17.156 55.3894 16.508 56.0182 15.9777 56.764C15.8278 56.9753 15.694 57.2028 15.5731 57.4335C15.1266 58.2882 15.3313 59.3541 16.0695 59.9358C16.1195 59.9748 16.1582 60.0284 16.2436 60.1178L16.2468 60.108ZM40.6735 64.9404C40.6461 62.274 38.4668 60.2283 35.8765 60.29C33.3426 60.3501 31.2939 62.508 31.3616 65.0964C31.4277 67.6767 33.4958 69.7159 36.0554 69.6883C38.7538 69.6607 40.7074 67.4378 40.6735 64.9404ZM72.3553 60.1828C72.2038 60.1941 72.1232 60.2965 72.033 60.3713C70.8482 61.3511 69.7618 62.4332 68.7254 63.5658C68.5142 63.7981 68.3175 64.05 68.1483 64.3132C67.7373 64.9518 67.8114 65.6082 68.1934 66.2176C68.6141 66.8886 69.2847 67.1031 70.0374 67.0511C70.5903 67.0137 70.9772 66.7131 71.1787 66.1851C71.2222 66.0697 71.277 65.9576 71.3108 65.839C71.4753 65.2865 71.6622 64.7389 71.7912 64.1767C72.0797 62.9158 72.2183 61.6289 72.3666 60.3453C72.3731 60.2949 72.3602 60.2429 72.357 60.1828H72.3553ZM16.4387 66.0762C16.1646 65.2215 15.9148 64.3489 15.5263 63.5284C15.4264 63.3188 15.3039 63.1189 15.1782 62.9223C15.1282 62.8443 15.0508 62.7793 14.9751 62.7224C14.8767 62.651 14.7591 62.6688 14.6801 62.7582C14.635 62.8102 14.5963 62.8654 14.5592 62.9239C14.34 63.2733 14.1143 63.6161 13.908 63.9736C13.6001 64.5098 13.3277 65.0639 13.1278 65.6521C12.8941 66.341 12.7942 67.0381 12.9795 67.7596C13.1327 68.3575 13.3744 68.481 13.9273 68.195C14.1562 68.0764 14.3754 67.9318 14.5834 67.7758C15.2217 67.2997 15.802 66.757 16.3548 66.1851C16.3822 66.1558 16.4032 66.1201 16.4371 66.0729L16.4387 66.0762ZM86.1097 64.8218C86.3579 64.877 86.5691 64.864 86.7818 64.8218C87.3105 64.7178 87.7941 64.5017 88.2632 64.2433C89.1481 63.7559 89.9057 63.1173 90.5327 62.3211C90.6875 62.1261 90.8083 61.9133 90.868 61.6679C90.955 61.3137 90.8357 61.1544 90.4666 61.1317C90.2152 61.1171 89.975 61.1739 89.7558 61.2893C89.4785 61.4355 89.1964 61.5802 88.9482 61.7686C88.5356 62.0822 88.1342 62.4153 87.7554 62.7696C87.1751 63.3123 86.6432 63.9021 86.2225 64.5846C86.1822 64.6495 86.1564 64.7243 86.1097 64.8234V64.8218ZM35.5848 59.6141C35.9362 59.6271 36.2779 59.6157 36.6115 59.6596C36.9613 59.7051 37.3095 59.7847 37.6464 59.887C37.9672 59.9845 38.2734 60.1324 38.5974 60.2624C38.7247 59.9797 38.8247 59.7164 38.8521 59.4402C38.2444 58.9787 36.4084 58.5644 35.7734 58.7708C35.6783 59.0307 35.6009 59.3037 35.5832 59.6141H35.5848Z" fill="currentColor"/>
            <path d="M21.8631 74.5216H22.4031C22.4869 74.6451 22.5723 74.767 22.6529 74.8937C23.201 75.75 23.749 76.6064 24.2987 77.461C24.3631 77.5602 24.4018 77.6885 24.5356 77.7291C24.6356 77.6219 24.5953 77.4919 24.5953 77.3733C24.5953 76.5885 24.5904 75.8037 24.5904 75.0172C24.5904 74.8677 24.6001 74.7183 24.6049 74.5834C24.7742 74.4891 24.916 74.4989 25.0611 74.5281C25.0788 74.585 25.1014 74.624 25.1014 74.663C25.0982 75.971 25.0917 77.2791 25.0837 78.5887C25.0837 78.6277 25.0611 78.6667 25.0466 78.7138C24.8725 78.7642 24.6984 78.7463 24.5034 78.7268C23.8151 77.6593 23.1252 76.5869 22.4402 75.5226C22.287 75.5502 22.337 75.6558 22.337 75.7224C22.3322 76.5625 22.3338 77.4025 22.3322 78.2426C22.3322 78.3921 22.3241 78.5416 22.3193 78.6927C22.171 78.7658 22.0372 78.7447 21.884 78.7203C21.8712 78.6472 21.8438 78.5692 21.8438 78.4912C21.8438 77.2661 21.8438 76.0393 21.8454 74.8141C21.8454 74.7329 21.8566 74.6533 21.8647 74.5216H21.8631Z" fill="currentColor"/>
            <path d="M66.4093 77.724C66.4125 77.5875 66.4206 77.4526 66.4206 77.3161C66.4206 76.5313 66.4157 75.7465 66.4174 74.9633C66.4174 74.8284 66.3883 74.6871 66.4851 74.5311C66.5963 74.523 66.7268 74.5132 66.8832 74.5018C66.9025 74.6139 66.9316 74.7049 66.9299 74.7943C66.9267 75.2216 66.9122 75.6474 66.9106 76.0747C66.9058 76.8173 66.9058 77.5615 66.9025 78.304C66.9025 78.4373 66.8913 78.5721 66.8848 78.7233H66.3416C65.9838 78.2163 65.6533 77.6638 65.3035 77.126C64.9521 76.5865 64.6056 76.0455 64.2606 75.5076C64.1269 75.5531 64.1672 75.6506 64.1672 75.7221C64.1639 76.5752 64.1655 77.4282 64.1639 78.2813C64.1639 78.4162 64.1559 78.5526 64.1494 78.7151C64.0011 78.7249 63.8706 78.7346 63.7223 78.7444C63.7061 78.6469 63.6804 78.5705 63.6804 78.4925C63.6787 77.2674 63.6804 76.0422 63.682 74.8187C63.682 74.7261 63.7013 74.6318 63.711 74.5392C63.8883 74.4823 64.0495 74.4953 64.2429 74.5278C64.9457 75.5807 65.6114 76.6808 66.3239 77.75C66.3529 77.7418 66.3819 77.7337 66.4109 77.7256L66.4093 77.724Z" fill="currentColor"/>
            <path d="M92.2446 78.6564C92.1075 78.7068 92.0221 78.7442 91.9335 78.7685C91.7175 78.8238 91.6804 78.8157 91.5595 78.6239C91.3097 78.2291 91.0695 77.8277 90.8245 77.4296C90.781 77.3598 90.7374 77.2899 90.6907 77.2135C90.4634 77.1453 90.2329 77.1762 89.9798 77.1957C89.9653 77.2883 89.9379 77.3793 89.9379 77.4703C89.9379 77.7741 89.9524 78.0763 89.9557 78.3802C89.9557 78.4874 89.9428 78.5931 89.9347 78.7182H89.4544C89.4415 78.6516 89.4189 78.5866 89.4189 78.5232C89.4157 77.2964 89.4141 76.0696 89.4141 74.8445C89.4141 74.7502 89.4286 74.6576 89.4366 74.565C89.4882 74.5422 89.5237 74.5114 89.5591 74.5097C89.9831 74.5032 90.407 74.5 90.8293 74.5C90.9115 74.5 90.9937 74.513 91.0727 74.5292C91.6272 74.6349 91.956 75.0167 91.9915 75.5854C92.0253 76.1395 91.8255 76.5798 91.3725 76.9016C91.3177 76.9406 91.2613 76.9796 91.1839 77.0348C91.2242 77.1209 91.2516 77.2103 91.3016 77.2834C91.5466 77.6474 91.7997 78.0081 92.0479 78.3704C92.1011 78.4484 92.1543 78.5281 92.2397 78.6564H92.2446ZM89.9879 76.6952C90.2265 76.7033 90.4441 76.731 90.6584 76.7163C91.0195 76.692 91.3322 76.4125 91.3999 76.0518C91.4289 75.8925 91.4289 75.7235 91.4128 75.561C91.3854 75.2897 91.2258 75.1077 90.9712 75.0216C90.6552 74.916 90.3361 74.9192 90.0218 74.9923C89.9492 75.3384 89.9283 76.2711 89.9879 76.6952Z" fill="currentColor"/>
            <path d="M46.5023 74.5463C46.67 74.4895 46.8134 74.4813 46.9553 74.5431C47.0423 74.6731 47.0101 74.8161 47.0085 74.9493C47.0052 75.6106 46.9939 76.272 46.9923 76.9333C46.9923 77.125 46.9972 77.32 47.0262 77.5101C47.0939 77.9472 47.3341 78.1877 47.7644 78.2884C48.0272 78.3502 48.2819 78.3209 48.5301 78.2251C48.838 78.1064 49.012 77.8676 49.0636 77.5459C49.0894 77.3834 49.091 77.216 49.091 77.0519C49.0894 76.35 49.0797 75.6464 49.0765 74.9444C49.0765 74.8096 49.0507 74.6698 49.1233 74.5415C49.2748 74.4846 49.4199 74.4862 49.5859 74.5463C49.5988 74.6341 49.623 74.7267 49.6213 74.8193C49.6165 75.6188 49.6149 76.4182 49.5972 77.216C49.5923 77.4337 49.5553 77.6564 49.4908 77.8643C49.3699 78.2543 49.1007 78.5224 48.7219 78.6686C48.2706 78.8425 47.8128 78.8506 47.3566 78.6946C46.9375 78.5517 46.6667 78.2527 46.5491 77.8286C46.4975 77.645 46.4717 77.4484 46.4701 77.2583C46.462 76.4458 46.4652 75.6318 46.4669 74.8193C46.4669 74.7267 46.491 74.6341 46.5023 74.5463Z" fill="currentColor"/>
            <path d="M81.9088 75.003C81.9024 75.1606 81.8927 75.2825 81.8911 75.406C81.8895 75.6936 81.8911 75.9812 81.8911 76.2883C81.9846 76.3078 82.0604 76.3354 82.1377 76.3371C82.4375 76.3419 82.739 76.3371 83.0388 76.3403C83.1436 76.3403 83.2499 76.3566 83.3805 76.3663C83.3708 76.5125 83.3628 76.6328 83.3547 76.753C83.0968 76.8603 82.8502 76.7888 82.6084 76.8001C82.3795 76.8115 82.149 76.7888 81.9314 76.831C81.8637 77.1804 81.8589 77.702 81.9153 78.2349C81.9959 78.2512 82.0829 78.2837 82.1716 78.2837C82.4714 78.2869 82.7728 78.2788 83.0726 78.2772C83.2757 78.2772 83.4788 78.2772 83.6868 78.2772C83.7932 78.4283 83.748 78.5648 83.6964 78.6996C83.366 78.75 81.7912 78.7565 81.3979 78.711C81.3882 78.7012 81.3785 78.6915 81.3705 78.6801C81.3624 78.6687 81.3511 78.6574 81.3511 78.646C81.3463 77.325 81.3415 76.0023 81.3398 74.6813C81.3398 74.6423 81.3592 74.6033 81.3769 74.5367C81.6219 74.4668 81.8814 74.5058 82.1345 74.4993C82.4069 74.4928 82.6809 74.4912 82.955 74.4993C83.2096 74.5074 83.4708 74.4571 83.7174 74.5448C83.7641 74.6992 83.7529 74.8292 83.6481 74.9705C83.092 74.9884 82.5198 74.9055 81.9072 75.003H81.9088Z" fill="currentColor"/>
            <path d="M57.9863 74.5471C57.9751 74.6852 57.9654 74.8039 57.9525 74.9485C57.83 74.9598 57.7252 74.9777 57.6204 74.9777C57.2513 74.9777 56.8822 74.968 56.5147 74.968C56.4083 74.968 56.3019 74.9891 56.173 75.0021C56.1036 75.4359 56.1375 75.8551 56.1359 76.2922C56.2358 76.3117 56.3132 76.3377 56.3906 76.3394C56.663 76.3442 56.937 76.3394 57.211 76.3426C57.3319 76.3426 57.4528 76.3507 57.5753 76.3556C57.6527 76.5067 57.6269 76.6335 57.556 76.7911C57.1095 76.8496 56.6436 76.7553 56.1762 76.8349C56.0779 77.0608 56.1294 77.2964 56.1246 77.5255C56.1182 77.7579 56.1327 77.9919 56.1375 78.2388C56.742 78.364 57.3287 78.2388 57.9106 78.2746C58.0492 78.4094 57.9863 78.5508 57.9541 78.6873C57.643 78.7523 56.2423 78.7702 55.633 78.7165C55.6201 78.6451 55.5895 78.5671 55.5943 78.4923C55.662 77.3208 55.6023 76.1509 55.5911 74.981C55.5911 74.8331 55.5492 74.6771 55.6459 74.5422C55.9699 74.487 57.5672 74.4838 57.9912 74.5455L57.9863 74.5471Z" fill="currentColor"/>
            <path d="M100.012 74.6775C100.012 74.9993 100.012 74.9993 99.8898 75.204C99.785 75.1536 99.677 75.1049 99.569 75.0513C99.3546 74.944 99.129 74.9066 98.892 74.9375C98.6615 74.9668 98.4794 75.0789 98.3569 75.2787C98.2134 75.5111 98.236 75.7678 98.431 75.9579C98.5374 76.0619 98.6647 76.1464 98.7953 76.2212C98.9968 76.3365 99.2112 76.4308 99.4143 76.5445C99.5448 76.6176 99.6754 76.6973 99.7882 76.7947C100.281 77.2188 100.307 77.8932 99.8575 78.3627C99.7221 78.5041 99.5642 78.6081 99.3836 78.6812C98.8437 78.899 98.1828 78.8242 97.6541 78.4781C97.638 78.3075 97.6315 78.132 97.725 77.9582C97.854 77.9403 97.9233 78.0426 98.0087 78.0946C98.2972 78.2734 98.6019 78.3741 98.9436 78.3367C99.1886 78.3107 99.3869 78.2003 99.5255 77.9955C99.6964 77.7404 99.6577 77.4073 99.4191 77.2156C99.2821 77.1051 99.1225 77.019 98.9694 76.9312C98.8018 76.837 98.6277 76.759 98.4584 76.668C98.3617 76.616 98.2682 76.5575 98.1796 76.4941C97.4719 75.9839 97.6879 75.1227 98.1715 74.7669C98.423 74.5833 98.7034 74.4858 99.0097 74.4712C99.3546 74.4549 99.6867 74.5199 100.012 74.6792V74.6775Z" fill="currentColor"/>
            <path d="M75.6723 74.7932C75.6674 74.9686 75.6578 75.1149 75.5626 75.2725C75.4692 75.2286 75.3837 75.1961 75.3064 75.1506C75.0146 74.9751 74.6987 74.9101 74.3618 74.9426C73.9508 74.9833 73.6445 75.188 73.4543 75.5601C73.4043 75.6576 73.3656 75.7616 73.3398 75.8688C73.2044 76.4002 73.2028 76.9347 73.3624 77.4579C73.5687 78.1339 74.1587 78.4621 74.8389 78.285C75.0339 78.2346 75.2177 78.1339 75.4079 78.0575C75.4788 78.0283 75.5498 78.0023 75.632 77.9698C75.6449 78.0364 75.661 78.0754 75.6594 78.1144C75.6529 78.2233 75.64 78.3321 75.632 78.428C74.9517 78.9382 74.033 78.8521 73.5639 78.5856C73.3463 78.4605 73.1674 78.2948 73.0304 78.0835C72.8466 77.8008 72.7338 77.4904 72.7128 77.1573C72.6919 76.8421 72.679 76.5236 72.7096 76.21C72.8289 74.9459 73.7702 74.2586 75.0114 74.5137C75.2403 74.5608 75.4579 74.6339 75.6739 74.7932H75.6723Z" fill="currentColor"/>
            <path d="M63.4032 40.7985C63.4516 40.9659 63.487 41.0682 63.5112 41.1722C63.5354 41.2795 63.5435 41.3916 63.5709 41.4972C63.7159 42.0594 64.0415 42.451 64.6154 42.6054C64.8378 42.6655 65.0619 42.7256 65.3407 42.802C65.2343 42.8507 65.1795 42.8848 65.1199 42.9011C64.9361 42.9531 64.7475 42.9921 64.5654 43.0473C63.9625 43.2293 63.6466 43.6567 63.5434 44.266C63.5144 44.4382 63.5257 44.6251 63.3774 44.7892C63.3404 44.7014 63.3033 44.6316 63.2807 44.5568C63.2259 44.3716 63.1808 44.1847 63.1276 43.9995C62.9873 43.5088 62.6698 43.1952 62.1895 43.0489C62.046 43.0051 61.8993 42.971 61.7559 42.9287C61.6656 42.9027 61.5785 42.8735 61.4883 42.8442C61.5044 42.7321 61.5866 42.75 61.6398 42.7337C61.8236 42.6801 62.0122 42.6427 62.1927 42.5842C62.6376 42.4429 62.9503 42.152 63.105 41.7052C63.1775 41.4972 63.2227 41.2811 63.2872 41.0715C63.3097 40.9984 63.3468 40.9301 63.4032 40.7969V40.7985Z" fill="#D33AFF"/>
            <path d="M49.2786 42.4938C49.356 42.7782 49.4092 42.9764 49.464 43.1746C49.6204 43.7515 49.9637 44.1382 50.5585 44.2747C50.7696 44.3234 50.9792 44.3852 51.2452 44.455C51.1017 44.5087 51.0082 44.5477 50.9115 44.5769C50.7293 44.6338 50.5456 44.6841 50.3634 44.7394C49.9395 44.8694 49.6719 45.1651 49.5236 45.5746C49.4543 45.7679 49.4092 45.9694 49.3528 46.1677C49.3318 46.2408 49.3093 46.3139 49.2641 46.465C49.2126 46.3318 49.1851 46.2733 49.169 46.2131C49.1046 45.9889 49.0594 45.7582 48.9788 45.5405C48.8354 45.1456 48.5694 44.8645 48.16 44.7394C47.9907 44.6874 47.8215 44.637 47.6522 44.585C47.5507 44.5542 47.4491 44.52 47.2734 44.4632C47.5458 44.3868 47.7441 44.3218 47.9488 44.2763C48.5613 44.1398 48.9063 43.7385 49.0723 43.1503C49.1271 42.9569 49.1449 42.7505 49.2819 42.4922L49.2786 42.4938Z" fill="#D33AFF"/>
            <path d="M31.7666 76.885C31.707 77.5236 31.7828 78.1134 31.7441 78.7065C31.5635 78.7585 31.4088 78.7552 31.2492 78.7162C31.2347 78.6675 31.2121 78.6285 31.2121 78.5911C31.2105 77.2847 31.2105 75.9767 31.2121 74.6703C31.2121 74.6329 31.2363 74.5956 31.2508 74.5549C31.2911 74.5403 31.3282 74.5143 31.3653 74.5127C32.0068 74.5094 32.6483 74.5078 33.2899 74.5078C33.3415 74.5078 33.3947 74.5289 33.4559 74.5419C33.5027 74.6849 33.4914 74.8133 33.4253 74.9693C33.1625 75.0359 32.8934 74.9693 32.6258 74.966C32.355 74.9628 32.0826 74.9498 31.8214 75.0034C31.7457 75.3008 31.7312 75.7671 31.7715 76.3894C31.8424 76.404 31.9182 76.4317 31.9939 76.4333C32.2808 76.4382 32.5678 76.4333 32.8547 76.4349C32.9465 76.4349 33.04 76.4528 33.1384 76.4625C33.1448 76.534 33.1561 76.5876 33.1529 76.6413C33.148 76.7079 33.1303 76.7745 33.1174 76.8493C32.9014 76.95 32.6838 76.8834 32.471 76.8866C32.2534 76.8915 32.0358 76.8866 31.7666 76.8866V76.885Z" fill="currentColor"/>
            <path d="M38.9511 74.5354C39.0768 74.5224 39.1574 74.5078 39.238 74.5078C39.3041 74.5078 39.3702 74.5241 39.4298 74.5322C39.5297 74.6833 39.4895 74.8393 39.4895 74.9855C39.4878 75.9361 39.4798 76.885 39.4766 77.8356C39.4766 77.9704 39.4637 78.1085 39.5249 78.2483C40.023 78.3555 40.5323 78.2158 41.0498 78.3376C41.0401 78.4693 41.032 78.5846 41.0256 78.6935C40.7064 78.7552 39.4911 78.7682 38.9801 78.7179C38.9688 78.6464 38.9398 78.5684 38.9446 78.492C39.0107 77.3221 38.9527 76.1522 38.9414 74.9823C38.9414 74.8474 38.9479 74.7109 38.9527 74.5354H38.9511Z" fill="currentColor"/>
            <path d="M61.5195 58.3583C61.4792 58.2153 61.4309 58.074 61.4002 57.9294C61.2793 57.3671 60.9183 57.0552 60.3815 56.9203C60.2509 56.8878 60.1188 56.8537 59.9141 56.8017C60.0898 56.7432 60.1961 56.7058 60.3025 56.6717C60.446 56.6246 60.5927 56.5905 60.7313 56.532C61.0085 56.4133 61.2052 56.207 61.31 55.9226C61.3712 55.7553 61.4147 55.5814 61.4695 55.4108C61.4889 55.3491 61.5163 55.2906 61.5485 55.2109C61.6533 55.2971 61.6404 55.3994 61.6694 55.4823C61.7129 55.6123 61.7403 55.7488 61.7871 55.8771C61.916 56.2379 62.161 56.4783 62.5286 56.5888C62.7236 56.6473 62.9202 56.7058 63.1717 56.7806C63.046 56.8293 62.967 56.8618 62.8864 56.8878C62.7429 56.9333 62.5979 56.9691 62.456 57.0194C62.095 57.1478 61.8693 57.411 61.7548 57.7734C61.6936 57.9683 61.6436 58.1682 61.5904 58.3664C61.5679 58.3632 61.5453 58.3599 61.5227 58.3567L61.5195 58.3583Z" fill="#D33AFF"/>
            <path d="M15.1928 74.5407C15.3798 74.4887 15.5233 74.4871 15.6732 74.5326C15.7441 74.6853 15.7167 74.8381 15.7167 74.9859C15.7135 76.086 15.7086 77.1876 15.7038 78.2877C15.7038 78.4225 15.6974 78.5558 15.6941 78.6955C15.5281 78.7638 15.383 78.7313 15.2154 78.7248C15.2009 78.637 15.1767 78.559 15.1767 78.4827C15.1735 77.2851 15.1719 76.0892 15.1719 74.8917C15.1719 74.7828 15.1848 74.6756 15.1928 74.5391V74.5407Z" fill="currentColor"/>
            <path d="M31.9336 64.9133C32.0045 62.788 33.5761 61.1387 35.562 60.9064C35.6297 60.8983 35.699 60.895 35.7651 60.9031C35.923 60.9243 36.0343 61.0575 36.0375 61.2167C36.0407 61.3614 35.9585 61.4832 35.8118 61.5222C35.6941 61.5531 35.57 61.5628 35.4491 61.5872C34.0274 61.8748 33.1167 62.7311 32.717 64.1269C32.6348 64.4129 32.6348 64.7248 32.6025 65.0254C32.5929 65.1213 32.609 65.2188 32.5977 65.3147C32.5816 65.4625 32.472 65.5682 32.3333 65.5877C32.177 65.6088 32.0287 65.5243 31.99 65.3618C31.9562 65.2156 31.9513 65.0628 31.9336 64.9133Z" fill="currentColor"/>
        </g>
    </g>
    <defs>
        <clipPath id="clip0_345_13310">
            <rect width="118" height="118" fill="currentColor"/>
        </clipPath>
        <clipPath id="clip1_345_13310">
            <rect width="93" height="41" fill="currentColor" transform="translate(12 38)"/>
        </clipPath>
    </defs>
</svg>
