<svg xmlns="http://www.w3.org/2000/svg" width="66" height="66" viewBox="0 0 66 66">
  <g id="Group_132805" data-name="Group 132805" transform="translate(-2541 -19405)">
    <g id="Profile" transform="translate(2418 19269.619)">
      <g id="Group_55807" data-name="Group 55807" transform="translate(135 -75.619)">
        <g id="_76c9f31ddbbff4e4afc536fa266f6d89" data-name="76c9f31ddbbff4e4afc536fa266f6d89" transform="translate(-12 211)" fill="none" stroke="#dadada" stroke-width="1">
          <circle cx="33" cy="33" r="33" stroke="none"/>
          <circle cx="33" cy="33" r="32.5" fill="none"/>
        </g>
      </g>
    </g>
    <g id="starstruck" transform="translate(2545.356 19388.543)">
      <g id="Group_28321" data-name="Group 28321" transform="translate(6.734 53.851)">
        <path id="Path_16" data-name="Path 16" d="M218.942,916.155H220.6a.663.663,0,0,0,.219.482.889.889,0,0,0,.612.185,1.065,1.065,0,0,0,.588-.157.508.508,0,0,0,.244-.455.531.531,0,0,0,0-.079.367.367,0,0,0-.041-.1.4.4,0,0,0-.1-.12,1.285,1.285,0,0,0-.2-.125,2.123,2.123,0,0,0-.329-.135l-.794-.274a3.272,3.272,0,0,1-.759-.31,2.2,2.2,0,0,1-.515-.391,1.808,1.808,0,0,1-.3-.444,1.743,1.743,0,0,1-.153-.438,2.256,2.256,0,0,1-.036-.408,1.874,1.874,0,0,1,.674-1.5,2.52,2.52,0,0,1,1.7-.577,2.442,2.442,0,0,1,1.669.565,1.951,1.951,0,0,1,.645,1.547h-1.63a.621.621,0,0,0-.172-.461.724.724,0,0,0-.53-.172.841.841,0,0,0-.523.148.471.471,0,0,0-.193.394q0,.368.617.557l.778.242q1.872.582,1.869,2.065a1.98,1.98,0,0,1-.15.783,1.7,1.7,0,0,1-.4.585,2.3,2.3,0,0,1-.575.389,2.824,2.824,0,0,1-.67.227,3.523,3.523,0,0,1-.7.069,2.717,2.717,0,0,1-1.808-.572A1.894,1.894,0,0,1,218.942,916.155Z" transform="translate(-218.943 -911.191)" fill="#dadada"/>
        <path id="Path_17" data-name="Path 17" d="M247.748,917.463v-1.146h.815v-1.639h1.562v1.639h.938v1.146h-.939v3.426h-1.562v-3.426Z" transform="translate(-242.243 -913.912)" fill="#dadada"/>
        <path id="Path_18" data-name="Path 18" d="M267.376,925.017a2.607,2.607,0,0,1,.187-.994,2.192,2.192,0,0,1,.5-.758,2.316,2.316,0,0,1,.7-.468,2.037,2.037,0,0,1,.816-.17,1.72,1.72,0,0,1,.718.161,1.336,1.336,0,0,1,.555.448v-.489h1.562v4.571H270.85v-.526a1.355,1.355,0,0,1-.548.453,1.694,1.694,0,0,1-.725.159,2.126,2.126,0,0,1-1.065-.281,2.192,2.192,0,0,1-.816-.835A2.494,2.494,0,0,1,267.376,925.017Zm1.843-.66a.936.936,0,0,0,0,1.337.962.962,0,0,0,1.35,0,.936.936,0,0,0,0-1.337.956.956,0,0,0-1.35,0Z" transform="translate(-258.118 -920.34)" fill="#dadada"/>
        <path id="Path_19" data-name="Path 19" d="M299.963,927.317v-4.571h1.479v1.126a1.713,1.713,0,0,1,.565-.931,1.384,1.384,0,0,1,.876-.314,1.575,1.575,0,0,1,.676.129l-.379,1.471a2.039,2.039,0,0,0-.709-.12.881.881,0,0,0-.513.136.964.964,0,0,0-.316.522,3.68,3.68,0,0,0-.12,1.052v1.5Z" transform="translate(-284.476 -920.34)" fill="#dadada"/>
        <path id="Path_20" data-name="Path 20" d="M320.992,916.155h1.658a.662.662,0,0,0,.219.482.89.89,0,0,0,.612.185,1.065,1.065,0,0,0,.587-.157.508.508,0,0,0,.244-.455.536.536,0,0,0,0-.079.369.369,0,0,0-.041-.1.4.4,0,0,0-.1-.12,1.288,1.288,0,0,0-.2-.125,2.155,2.155,0,0,0-.329-.135l-.794-.274a3.271,3.271,0,0,1-.76-.31,2.2,2.2,0,0,1-.515-.391,1.805,1.805,0,0,1-.3-.444,1.742,1.742,0,0,1-.153-.438,2.276,2.276,0,0,1-.036-.408,1.876,1.876,0,0,1,.674-1.5,2.52,2.52,0,0,1,1.7-.577,2.441,2.441,0,0,1,1.669.565,1.952,1.952,0,0,1,.645,1.548h-1.63a.622.622,0,0,0-.172-.461.724.724,0,0,0-.53-.171.842.842,0,0,0-.523.148.47.47,0,0,0-.193.394q0,.368.616.557l.778.242q1.872.582,1.869,2.065a1.979,1.979,0,0,1-.151.783,1.687,1.687,0,0,1-.4.585,2.289,2.289,0,0,1-.575.389,2.824,2.824,0,0,1-.67.227,3.523,3.523,0,0,1-.7.069,2.718,2.718,0,0,1-1.808-.573A1.894,1.894,0,0,1,320.992,916.155Z" transform="translate(-301.486 -911.191)" fill="#dadada"/>
        <path id="Path_21" data-name="Path 21" d="M349.8,917.463v-1.146h.815v-1.639h1.562v1.639h.939v1.146h-.939v3.426h-1.562v-3.426Z" transform="translate(-324.785 -913.912)" fill="#dadada"/>
        <path id="Path_22" data-name="Path 22" d="M371.154,927.317v-4.571h1.479v1.126a1.713,1.713,0,0,1,.565-.931,1.384,1.384,0,0,1,.876-.314,1.574,1.574,0,0,1,.676.129l-.379,1.471a2.037,2.037,0,0,0-.709-.12.881.881,0,0,0-.513.136.965.965,0,0,0-.316.522,3.679,3.679,0,0,0-.12,1.052v1.5Z" transform="translate(-342.059 -920.34)" fill="#dadada"/>
        <path id="Path_23" data-name="Path 23" d="M392.857,925.652v-2.4h1.562V925.6a.745.745,0,0,0,.227.606.785.785,0,0,0,.518.19,1.041,1.041,0,0,0,.274-.036.941.941,0,0,0,.256-.115.554.554,0,0,0,.2-.232.834.834,0,0,0,.074-.364v-2.4h1.562v4.573h-1.562v-.719a.876.876,0,0,1-.313.462,1.439,1.439,0,0,1-.493.268,1.676,1.676,0,0,1-.475.074,1.634,1.634,0,0,1-1.37-.587A2.649,2.649,0,0,1,392.857,925.652Z" transform="translate(-359.613 -920.847)" fill="#dadada"/>
        <path id="Path_24" data-name="Path 24" d="M423.444,917.643v-6.975h1.565v3.512l.891-1.107h1.912l-1.687,2.032,2.05,2.54h-1.863L425.01,916v1.646Z" transform="translate(-384.353 -910.668)" fill="#dadada"/>
      </g>
      <g id="Group_39793" data-name="Group 39793" transform="translate(21.252 36)">
        <path id="Subtraction_14" data-name="Subtraction 14" d="M-2611.606-19411.146h-.029a1.145,1.145,0,0,1-.975-.57l-1.16-2.014-.039-.068-.955-1.658-3.525-2.037-.136-.078a1.139,1.139,0,0,1-.575-.994,1.157,1.157,0,0,1,.575-1l2.954-1.7.166-.1.536-.307,1.033-1.795.015-.023,1.116-1.936a1.155,1.155,0,0,1,.995-.576,1.159,1.159,0,0,1,1,.576l1.36,2.359.795,1.375.79.453.877.512.273.15.288.166,1.438.834a1.16,1.16,0,0,1,.58,1,1.159,1.159,0,0,1-.58,1l-1,.57-.478.277-.712.41-1.467.854-.41.707-.707,1.223-.6,1.039-.448.775a.089.089,0,0,0-.015.023.045.045,0,0,0,0,.01l0,.006A1.142,1.142,0,0,1-2611.606-19411.146Zm0-10.3a2.874,2.874,0,0,0-2.872,2.871,2.878,2.878,0,0,0,2.872,2.877,2.878,2.878,0,0,0,2.871-2.877A2.874,2.874,0,0,0-2611.606-19421.443Z" transform="translate(2618.999 19425.998)" fill="#dadada"/>
        <path id="Path_2" data-name="Path 2" d="M284.111,714.375a2.84,2.84,0,0,1-1.552,2.532,1.146,1.146,0,0,1-.149-1.355l1.406-2.438A2.822,2.822,0,0,1,284.111,714.375Z" transform="translate(-278.553 -710.58)" fill="#dadada" opacity="0.15"/>
        <path id="Path_5" data-name="Path 5" d="M285.188,730.969v.876a2.844,2.844,0,0,1-3-1.135l1.277-.737a1.151,1.151,0,0,1,1.723,1Z" transform="translate(-278.489 -726.08)" fill="#dadada" opacity="0.2"/>
        <path id="Path_12" data-name="Path 12" d="M285.583,792.644a2.842,2.842,0,0,1-1.834,2.658l-1.287-2.229-.05-.086a1.151,1.151,0,0,1,1-1.727h1.814a2.821,2.821,0,0,1,.357,1.384Z" transform="translate(-278.556 -783.103)" fill="#dadada" opacity="0.1"/>
        <path id="Path_14" data-name="Path 14" d="M353.406,810.182l-2.211,1.276a1.143,1.143,0,0,1-1.24-.058,2.844,2.844,0,0,1,3.451-1.218Z" transform="translate(-341.384 -800.495)" fill="#dadada" opacity="0.15"/>
        <path id="Path_15" data-name="Path 15" d="M351.1,834.014l-.706,1.223-.6,1.033A1.4,1.4,0,0,1,350.9,834a1.434,1.434,0,0,1,.2.014Z" transform="translate(-340.956 -822.768)" fill="#dadada" opacity="0.2"/>
      </g>
      <g id="Group_1" data-name="Group 1" transform="translate(27.446 41.805)">
        <path id="Path_13" data-name="Path 13" d="M319.6,760.63l-.439.254-.21.121-1.284.741a.506.506,0,0,1-.759-.438v-2.232a.506.506,0,0,1,.759-.438l.67.387.386.223.119.069.126.073.632.365a.506.506,0,0,1,0,.875Z" transform="translate(-316.911 -758.568)" fill="#dadada"/>
      </g>
    </g>
  </g>
</svg>
