<svg xmlns="http://www.w3.org/2000/svg" width="102" height="102" viewBox="0 0 102 102">
  <g id="Group_56754" data-name="Group 56754" transform="translate(-635 -277.5)">
    <rect id="Rectangle" width="100" height="100" rx="50" transform="translate(636 278.5)" fill="none" stroke="#dfdfdf" stroke-width="2"/>
    <path id="Icon_metro-gift" data-name="Icon metro-gift" d="M31.418,14.009a15.282,15.282,0,0,0,1.957-1.642,8.4,8.4,0,0,0,2.394-4.4,4.892,4.892,0,0,0-1.2-4.379,4.58,4.58,0,0,0-3.324-1.3,7.937,7.937,0,0,0-5.458,2.487,21.487,21.487,0,0,0-4.8,8.512c-.587-2.5-1.758-5.884-4.034-8.16A6.1,6.1,0,0,0,12.7,3.279,4.467,4.467,0,0,0,9.491,4.553c-1.9,1.9-1.645,5.242.574,7.461a12.262,12.262,0,0,0,2.691,1.994H4.5v9.74H6.934V40.794h29.22V23.749h2.435v-9.74Zm-3.7-7.3a5.279,5.279,0,0,1,3.521-1.685,1.943,1.943,0,0,1,1.387.495c.99.99.434,3.284-1.19,4.908a17.154,17.154,0,0,1-5.876,3.579H23.634a18.661,18.661,0,0,1,4.086-7.3ZM10.964,7.955a1.868,1.868,0,0,1,.464-1.465A1.769,1.769,0,0,1,12.7,6.019a3.361,3.361,0,0,1,2.318,1.046,13.534,13.534,0,0,1,3.069,5.931q.029.105.057.209l-.209-.057A13.534,13.534,0,0,1,12,10.077a3.465,3.465,0,0,1-1.038-2.123Zm8.145,30.4H9.369V22.531h9.74Zm0-17.045H6.934v-4.87H19.109v4.87Zm14.61,17.045h-9.74V22.531h9.74Zm2.435-17.045H23.979v-4.87H36.154v4.87Z" transform="translate(664.001 306.712)" fill="#dfdfdf"/>
  </g>
</svg>
