<svg xmlns="http://www.w3.org/2000/svg" width="75.35" height="96.688" viewBox="0 0 75.35 96.688">
  <g id="noun_order_770970" transform="translate(-20.416 -20.305)" opacity="0.6">
    <g id="Group_56767" data-name="Group 56767" transform="translate(23.416 23.305)">
      <g id="Group_56766" data-name="Group 56766">
        <path id="Path_170738" data-name="Path 170738" d="M79.43,113.992H36.752a13.374,13.374,0,0,1-13.336-13.336V36.644A13.377,13.377,0,0,1,36.752,23.305H56.089a12.864,12.864,0,0,1,6.005,2L90.767,53.976c1.668,1.666,2,3.669,2,6.005v40.673A13.162,13.162,0,0,1,79.43,113.992Z" transform="translate(-23.416 -23.305)" fill="none" stroke="#ff71a4" stroke-linecap="round" stroke-linejoin="round" stroke-miterlimit="10" stroke-width="6"/>
      </g>
      <path id="Path_170739" data-name="Path 170739" d="M45,24.087v20.2s-.369,13.633,11.384,13.4H78.011" transform="translate(-10.326 -22.831)" fill="none" stroke="#ff71a4" stroke-linecap="round" stroke-linejoin="round" stroke-miterlimit="10" stroke-width="6"/>
      <line id="Line_1167" data-name="Line 1167" x2="37.345" transform="translate(16.002 48.01)" fill="none" stroke="#ff71a4" stroke-linecap="round" stroke-linejoin="round" stroke-miterlimit="10" stroke-width="6"/>
      <line id="Line_1168" data-name="Line 1168" x2="37.345" transform="translate(16.001 61.348)" fill="none" stroke="#ff71a4" stroke-linecap="round" stroke-linejoin="round" stroke-miterlimit="10" stroke-width="6"/>
      <line id="Line_1169" data-name="Line 1169" x2="37.343" transform="translate(15.816 74.686)" fill="none" stroke="#ff71a4" stroke-linecap="round" stroke-linejoin="round" stroke-miterlimit="10" stroke-width="6"/>
    </g>
  </g>
</svg>
