<svg xmlns="http://www.w3.org/2000/svg" id="my_purchases" fill="currentColor" width="16.416" height="20.816" viewBox="0 0 16.416 20.816">
  <g id="noun_Purchase_1898932" transform="translate(-17.406 -8.638)">
    <g id="Group_56761" data-name="Group 56761" transform="translate(17.457 8.688)">
      <path id="Path_170731" data-name="Path 170731" d="M27.059,961.05v4.034h6.713V961.05Zm-6.04.509-.016.008a.15.15,0,0,0-.055.031l-1.692,1.676L17.518,965a.149.149,0,0,0-.024.031l-.008.008a.152.152,0,0,0-.016.031s0,.005,0,.008a.151.151,0,0,0,0,.125v14.993a.15.15,0,0,0,.157.149l11.664-.016a2.233,2.233,0,0,1-.047-.3l-11.468.016V965.28h3.267a.15.15,0,0,0,.149-.149l.016-3.274h5.554v-.3H21.019Zm9.22.149h.36v.227a1.6,1.6,0,0,1,.345.063.793.793,0,0,1,.368.235.589.589,0,0,1,.141.352l-.36.016a.421.421,0,0,0-.2-.313.714.714,0,0,0-.3-.094v.7a3.7,3.7,0,0,1,.454.11.841.841,0,0,1,.36.227.466.466,0,0,1,.118.313.5.5,0,0,1-.125.329.824.824,0,0,1-.368.243,1.547,1.547,0,0,1-.439.078v.227h-.36V964.2a1.733,1.733,0,0,1-.384-.078.883.883,0,0,1-.407-.259.647.647,0,0,1-.157-.4l.352-.023a.537.537,0,0,0,.118.274.624.624,0,0,0,.282.164,1.163,1.163,0,0,0,.2.055v-.807a2.871,2.871,0,0,1-.439-.11.731.731,0,0,1-.3-.211.428.428,0,0,1-.1-.274.487.487,0,0,1,.125-.313.74.74,0,0,1,.352-.219,1.578,1.578,0,0,1,.36-.063v-.227Zm-9.33.36-.016,2.914H17.972l2.1-2.084.838-.83Zm9.33.117a.715.715,0,0,0-.321.094.282.282,0,0,0-.157.235.231.231,0,0,0,.11.2,1.294,1.294,0,0,0,.368.118v-.642Zm.36,1.018v.736a1.168,1.168,0,0,0,.251-.047.533.533,0,0,0,.243-.133.28.28,0,0,0,.086-.188.248.248,0,0,0-.078-.18.62.62,0,0,0-.258-.133c-.037-.011-.163-.038-.243-.055Zm1.058,2.178v12.2a1.935,1.935,0,0,1,.3.047V965.382h-.3ZM23.6,968.437a.151.151,0,0,0-.078.063l-2.264,3.079L19.876,970.2a.15.15,0,1,0-.212.212l1.5,1.5a.15.15,0,0,0,.227-.016l2.366-3.227a.15.15,0,0,0-.165-.235Zm1.731,0a.15.15,0,0,0,.031.3h4.3a.15.15,0,1,0,0-.3h-4.3a.142.142,0,0,0-.031,0Zm0,1.935a.15.15,0,0,0,.031.3h4.3a.15.15,0,1,0,0-.3h-4.3a.149.149,0,0,0-.031,0Zm-1.716,3.439a.151.151,0,0,0-.094.063l-2.256,3.086-1.387-1.386a.15.15,0,1,0-.212.212l1.5,1.512a.151.151,0,0,0,.227-.024l2.366-3.22a.15.15,0,0,0-.149-.243Zm1.716,0a.15.15,0,0,0,.031.3h4.3a.15.15,0,1,0,0-.3h-4.3a.149.149,0,0,0-.031,0Zm0,1.935a.15.15,0,0,0,.031.3h4.3a.15.15,0,1,0,0-.3h-4.3a.149.149,0,0,0-.031,0Zm6.016,2.139a1.948,1.948,0,1,0,1.81.987l-1.9,1.786a.15.15,0,0,1-.211,0l-.893-.924a.152.152,0,0,1,.219-.212l.791.815,1.833-1.723a1.923,1.923,0,0,0-.611-.509l-.016-.008s0-.006-.008-.008a1.914,1.914,0,0,0-1.011-.2Z" transform="translate(-17.457 -961.05)" stroke="currentColor" stroke-width="0.1"/>
    </g>
  </g>
</svg>
