<svg xmlns="http://www.w3.org/2000/svg" width="80" height="80" viewBox="0 0 80 80">
  <g id="Group_56758" data-name="Group 56758" transform="translate(-4289 1624)">
    <g id="Ellipse_1717" data-name="Ellipse 1717" transform="translate(4289 -1624)" fill="#f8f8f8" stroke="#ff71a4" stroke-width="1.5">
      <circle cx="40" cy="40" r="40" stroke="none"/>
      <circle cx="40" cy="40" r="39.25" fill="none"/>
    </g>
    <path id="Icon_material-not-interested" data-name="Icon material-not-interested" d="M18,3A15,15,0,1,0,33,18,15.005,15.005,0,0,0,18,3Zm0,27A12,12,0,0,1,6,18a11.854,11.854,0,0,1,2.535-7.35L25.35,27.465A11.854,11.854,0,0,1,18,30Zm9.465-4.65L10.65,8.535A11.854,11.854,0,0,1,18,6,12,12,0,0,1,30,18,11.854,11.854,0,0,1,27.465,25.35Z" transform="translate(4311 -1602)" fill="#ff71a4"/>
  </g>
</svg>
