<!-- <svg xmlns="http://www.w3.org/2000/svg" width="19.695" height="19.695" viewBox="0 0 19.695 19.695">
  <g id="noun_Speaker_3836478" transform="translate(-1.248 3.947) rotate(-17)">
    <path id="Path_171918" data-name="Path 171918" d="M15.2,1a1.577,1.577,0,0,0-1.525,1.19l-5.4,1.965H5.732A3.154,3.154,0,0,0,3,5.732H2.577a1.577,1.577,0,0,0,0,3.154H3A3.167,3.167,0,0,0,4.68,10.279V15.2a1.577,1.577,0,0,0,3.154,0V10.463h.434l5.4,1.965a1.574,1.574,0,0,0,3.1-.387V2.577A1.577,1.577,0,0,0,15.2,1ZM2.577,7.835a.526.526,0,1,1,0-1.051Zm1.051-.526a2.1,2.1,0,0,1,2.1-2.1h2.1V9.412h-2.1A2.1,2.1,0,0,1,3.629,7.309ZM6.783,15.2a.526.526,0,0,1-1.051,0V10.463H6.783Zm2.1-10.147,4.732-1.721V11.29L8.886,9.57Zm6.835,6.992a.526.526,0,0,1-1.051,0V2.577a.526.526,0,1,1,1.051,0Z" fill="currentColor"/>
  </g>
</svg> -->


<svg xmlns="http://www.w3.org/2000/svg" width="28.625" height="22.819" viewBox="0 0 28.625 22.819">
  <g id="noun_Speaker_3836478" data-name="Group 132012" transform="translate(0.659 0.756)">
    <path id="Path_71897" data-name="Path 71897" d="M22.347,15.452A1.263,1.263,0,0,0,21.1,15.7L15.033,21.07,9.426,22.144a5.3,5.3,0,0,0,.97,10.5l1.437,3.225a1.261,1.261,0,1,0,2.3-1.028l-1.153-2.588,4.045-.773,7.624,2.745a1.257,1.257,0,0,0,.665.053A1.287,1.287,0,0,0,25.9,34a1.265,1.265,0,0,0,.42-1.2L23.179,16.408A1.263,1.263,0,0,0,22.347,15.452ZM7.695,27.871a2.781,2.781,0,0,1,2.2-3.25l4.709-.9,1.047,5.455-4.71.9A2.779,2.779,0,0,1,7.695,27.871ZM23.426,31.1l-5.193-1.87-1.248-6.521,4.132-3.657Z" transform="translate(-5.122 -15.218)" fill="currentColor" stroke="#f1f1f1" stroke-width="1.3"/>
    <path id="Path_71898" data-name="Path 71898" d="M77.265,21.085l-2.98.57a1.262,1.262,0,0,0,.476,2.478l2.979-.572a1.261,1.261,0,1,0-.475-2.476Zm-3.518-2.406a1.286,1.286,0,0,0,.483-.205l1.917-1.343A1.261,1.261,0,0,0,74.7,15.064l-1.919,1.344a1.261,1.261,0,0,0,.964,2.271Zm4.415,8.971-2.277-.54a1.261,1.261,0,0,0-.582,2.455l2.279.539a1.241,1.241,0,0,0,.526.012,1.261,1.261,0,0,0,.054-2.466Z" transform="translate(-51.822 -14.837)" fill="currentColor" stroke="#f1f1f1" stroke-width="1.3"/>
  </g>
</svg>