<svg xmlns="http://www.w3.org/2000/svg" width="29" height="29" viewBox="0 0 29 29">
  <g id="Group_55823" data-name="Group 55823" transform="translate(18931 7434)">
    <circle id="Ellipse_1719" data-name="Ellipse 1719" cx="14.5" cy="14.5" r="14.5" transform="translate(-18931 -7434)" fill="#9192a6"/>
    <g id="noun_Gift_2271170" transform="translate(-18929.969 -7432.969)">
      <g id="Group_55765" data-name="Group 55765" transform="translate(7 7)">
        <path id="Path_170677" data-name="Path 170677" d="M11.814,959.362a1.811,1.811,0,0,1,1.7,1.19,1.653,1.653,0,1,1,2.412,2.12h2.962a1.054,1.054,0,0,1,1.053,1.053v.9a1.054,1.054,0,0,1-1.053,1.053v5.567a1.054,1.054,0,0,1-1.053,1.053H9.106a1.054,1.054,0,0,1-1.053-1.053v-5.567A1.054,1.054,0,0,1,7,964.628v-.9a1.054,1.054,0,0,1,1.053-1.053h2.769a1.8,1.8,0,0,1,.992-3.31Zm0,.3a1.5,1.5,0,1,0,0,3.009h1.5v-1.5A1.5,1.5,0,0,0,11.814,959.663Zm3.16.3a1.352,1.352,0,0,0-1.354,1.354v1.354h1.354a1.354,1.354,0,1,0,0-2.708Zm3.912,3.009H16.178v2.407h2.708a.747.747,0,0,0,.752-.752v-.9A.747.747,0,0,0,18.886,962.973Zm-3.009,0H11.062v2.407h4.814Zm-5.115,0H8.053a.747.747,0,0,0-.752.752v.9a.747.747,0,0,0,.752.752h2.708Zm7.824,2.708H14.824V972h3.009a.747.747,0,0,0,.752-.752Zm-4.062,0H12.416V972h2.106Zm-2.407,0H8.354v5.567a.747.747,0,0,0,.752.752h3.009Z" transform="translate(-7 -959.362)" fill="#fff" stroke="#fff" stroke-width="0.5"/>
      </g>
    </g>
  </g>
</svg>
