<!-- <svg xmlns="http://www.w3.org/2000/svg" width="19.129" height="19.129" viewBox="0 0 19.129 19.129">
  <g id="Group_55861" data-name="Group 55861" transform="translate(-20.389 -255.389)">
    <g id="Group_28110" data-name="Group 28110" transform="translate(20.389 255.389)">
      <g id="Ellipse_572" data-name="Ellipse 572" fill="rgba(236,24,125,0.07)" stroke="#ff71a4" stroke-width="1" opacity="0.999">
        <circle cx="9.564" cy="9.564" r="9.564" stroke="none"/>
        <circle cx="9.564" cy="9.564" r="9.064" fill="none"/>
      </g>
    </g>
    <g id="Group_28113" data-name="Group 28113" transform="translate(25.742 261.653)">
      <path id="Path_71897" data-name="Path 71897" d="M10.435,15.405a.39.39,0,0,0-.383.077L8.179,17.138l-1.729.331a1.633,1.633,0,0,0,.3,3.238l.443.995a.389.389,0,1,0,.71-.317l-.355-.8,1.248-.238,2.351.847a.388.388,0,0,0,.2.016.4.4,0,0,0,.179-.086.39.39,0,0,0,.13-.369L10.691,15.7A.389.389,0,0,0,10.435,15.405Zm-4.519,3.83a.858.858,0,0,1,.68-1l1.452-.278.323,1.682-1.453.278A.857.857,0,0,1,5.916,19.235Zm4.851,1-1.6-.577-.385-2.011,1.274-1.128Z" transform="translate(-5.122 -15.333)" fill="#ff71a4"/>
      <path id="Path_71898" data-name="Path 71898" d="M73.794,16.764l-.919.176a.389.389,0,1,0,.147.764l.919-.176a.389.389,0,1,0-.146-.764Zm-1.085-.742a.4.4,0,0,0,.149-.063l.591-.414A.389.389,0,0,0,73,14.907l-.592.415a.389.389,0,0,0,.3.7Zm1.362,2.767-.7-.167a.389.389,0,0,0-.179.757l.7.166a.383.383,0,0,0,.162,0,.389.389,0,0,0,.017-.76Z" transform="translate(-65.947 -14.837)" fill="#ff71a4"/>
    </g>
  </g>
</svg> -->


<!-- <svg xmlns="http://www.w3.org/2000/svg" width="20" height="20" viewBox="0 0 20 20">
  <g id="Group_55861" data-name="Group 55861" transform="translate(-20.389 -255.389)">
    <g id="Group_28110" data-name="Group 28110" transform="translate(20.389 255.389)">
      <g id="Ellipse_572" data-name="Ellipse 572" transform="translate(0 0)" fill="none" stroke="currentColor" stroke-width="1" opacity="0.999">
        <ellipse cx="10" cy="10" rx="10" ry="10" stroke="none"/>
        <ellipse cx="10" cy="10" rx="9.5" ry="9.5" fill="none"/>
      </g>
    </g>
    <g id="Group_28113" data-name="Group 28113" transform="translate(25.927 261.894)">
      <path id="Path_71897" data-name="Path 71897" d="M10.746,15.406a.413.413,0,0,0-.405.082L8.358,17.241l-1.83.35a1.729,1.729,0,0,0,.318,3.428l.469,1.053a.412.412,0,1,0,.752-.336L7.69,20.89l1.321-.252,2.489.9a.411.411,0,0,0,.212.017.423.423,0,0,0,.189-.091.413.413,0,0,0,.138-.391l-1.022-5.351a.412.412,0,0,0-.271-.312ZM5.963,19.461a.908.908,0,0,1,.72-1.059l1.537-.294.342,1.781-1.538.294a.907.907,0,0,1-1.061-.722ZM11.1,20.519,9.4,19.908,9,17.78l1.349-1.194Z" transform="translate(-5.118 -15.329)" fill="currentColor"/>
      <path id="Path_71898" data-name="Path 71898" d="M73.885,16.877l-.973.186a.412.412,0,0,0,.156.809l.973-.186a.412.412,0,1,0-.155-.809Zm-1.149-.785a.424.424,0,0,0,.158-.067l.626-.438a.413.413,0,1,0-.475-.675l-.627.439a.412.412,0,0,0,.318.741Zm1.442,2.929-.741-.177a.412.412,0,1,0-.189.8l.741.176a.405.405,0,0,0,.172,0,.412.412,0,0,0,.018-.8Z" transform="translate(-65.574 -14.836)" fill="currentColor"/>
    </g>
  </g>
</svg> -->

<svg id="Group_55861" width="52" height="52" viewBox="0 0 52 52" fill="none" xmlns="http://www.w3.org/2000/svg">
<path d="M20.7768 17.6772H19.547C18.1644 17.6772 16.7917 17.9218 15.4862 18.4007C13.2076 19.2365 11.5494 21.3224 11.1695 23.8307L11.157 23.9134C10.9477 25.2957 10.9477 26.7042 11.157 28.0864L11.1695 28.1691C11.5494 30.6774 13.2076 32.7633 15.4862 33.5991C16.7917 34.0781 18.1644 34.3226 19.547 34.3226H20.7768C21.5182 34.3226 22.2288 34.6351 22.7499 35.1902L23.6523 36.1516C26.3131 38.9862 30.8966 37.6454 31.7865 33.7721C32.9601 28.6643 32.9601 23.3356 31.7865 18.2277C30.8966 14.3544 26.3131 13.0136 23.6523 15.8482L22.7499 16.8096C22.2288 17.3648 21.5182 17.6772 20.7768 17.6772Z" stroke="currentColor" stroke-width="2.5"/>
<path d="M37.6667 17.6667C40.6558 19.3302 42.6667 22.4392 42.6667 26.0001C42.6667 29.561 40.6558 32.67 37.6667 34.3334" stroke="currentColor" stroke-width="2.5" stroke-linecap="round" stroke-linejoin="round"/>
<path d="M36.8333 22.6667C37.8296 23.3321 38.4999 24.5757 38.4999 26.0001C38.4999 27.4244 37.8296 28.6681 36.8333 29.3334" stroke="currentColor" stroke-width="2.5" stroke-linecap="round" stroke-linejoin="round"/>
</svg>

