<svg id="Group_56760" data-name="Group 56760" xmlns="http://www.w3.org/2000/svg" width="49.875" height="49.875" viewBox="0 0 49.875 49.875">
  <g id="Group_28110" data-name="Group 28110">
    <g id="Ellipse_572" data-name="Ellipse 572" fill="rgba(201,178,255,0.26)" stroke="#ff71a4" stroke-width="1" opacity="0.999">
      <circle cx="24.938" cy="24.938" r="24.938" stroke="none"/>
      <circle cx="24.938" cy="24.938" r="24.438" fill="none"/>
    </g>
  </g>
  <g id="Group_28113" data-name="Group 28113" transform="translate(13.957 16.334)">
    <path id="Path_71897" data-name="Path 71897" d="M18.973,15.438a1.016,1.016,0,0,0-1,.2l-4.881,4.317-4.509.864a4.259,4.259,0,0,0,.78,8.442l1.155,2.594a1.014,1.014,0,1,0,1.852-.826l-.927-2.081,3.253-.622,6.131,2.207a1.011,1.011,0,0,0,.534.043,1.035,1.035,0,0,0,.468-.224,1.017,1.017,0,0,0,.338-.962L19.641,16.207A1.015,1.015,0,0,0,18.973,15.438ZM7.191,25.425a2.236,2.236,0,0,1,1.773-2.613l3.786-.726.842,4.387L9.8,27.2A2.235,2.235,0,0,1,7.191,25.425Zm12.649,2.6-4.175-1.5-1-5.244,3.323-2.94Z" transform="translate(-5.122 -15.25)" fill="#ff71a4"/>
    <path id="Path_71898" data-name="Path 71898" d="M76.282,19.861l-2.4.458a1.015,1.015,0,1,0,.383,1.993l2.4-.46a1.014,1.014,0,1,0-.382-1.991Zm-2.829-1.935a1.034,1.034,0,0,0,.389-.165l1.541-1.08a1.014,1.014,0,0,0-1.162-1.662L72.678,16.1a1.014,1.014,0,0,0,.775,1.826ZM77,25.14l-1.831-.434a1.014,1.014,0,0,0-.468,1.974l1.832.433a1,1,0,0,0,.423.01A1.014,1.014,0,0,0,77,25.14Z" transform="translate(-55.823 -14.837)" fill="#ff71a4"/>
  </g>
</svg>
