<svg id="tick-4" xmlns="http://www.w3.org/2000/svg" width="103.842" height="103.841" viewBox="0 0 103.842 103.841">
  <path id="Path_108805" data-name="Path 108805" d="M51.921,0a51.921,51.921,0,1,0,51.921,51.921A51.983,51.983,0,0,0,51.921,0Z" fill="#ff71a4"/>
  <path id="Path_108806" data-name="Path 108806" d="M140.2,125.939l-26.8,25.54-12.77-13.191a4.169,4.169,0,0,0-6.034,5.754l15.717,16.138a4.279,4.279,0,0,0,2.947,1.263,4.825,4.825,0,0,0,2.947-1.123l29.89-28.346a4.069,4.069,0,0,0,.14-5.894A4.368,4.368,0,0,0,140.2,125.939Z" transform="translate(-68.351 -91.278)" fill="#fff"/>
</svg>
