
<svg xmlns="http://www.w3.org/2000/svg" width="42.964" height="42.963" viewBox="0 0 42.964 42.963">
  <g id="funBegins" data-name="Group 132172" transform="translate(14020.662 18527.68)">
    <path id="Path_172359" data-name="Path 172359" d="M106.482,56.964a20.482,20.482,0,1,1,20.482-20.482A20.505,20.505,0,0,1,106.482,56.964Zm0-39.723a19.241,19.241,0,1,0,19.241,19.241A19.262,19.262,0,0,0,106.482,17.241Z" transform="translate(-14105.662 -18542.68)" fill="#dd80ac" stroke="#ff71a4" stroke-width="2"/>
    <path id="Path_172360" data-name="Path 172360" d="M397.288,171.773a.621.621,0,0,1-.612-.725l.348-2.027-1.473-1.435a.62.62,0,0,1,.344-1.058l2.035-.3.91-1.844a.646.646,0,0,1,1.113,0l.91,1.844,2.035.3a.62.62,0,0,1,.344,1.058l-1.473,1.436.347,2.027a.62.62,0,0,1-.9.654l-1.821-.956-1.821.956A.616.616,0,0,1,397.288,171.773Zm2.109-2.35a.615.615,0,0,1,.289.072l1,.524-.19-1.11a.62.62,0,0,1,.178-.549l.806-.786-1.113-.162a.62.62,0,0,1-.467-.339l-.5-1.009-.5,1.009a.62.62,0,0,1-.467.339l-1.113.162.806.786a.621.621,0,0,1,.178.549l-.19,1.109,1-.523a.614.614,0,0,1,.289-.072Z" transform="translate(-14391.024 -18679.26)" fill="#ff71a4"/>
    <path id="Path_172361" data-name="Path 172361" d="M206.8,171.773a.616.616,0,0,1-.289-.072l-1.821-.956-1.821.956a.62.62,0,0,1-.9-.654l.347-2.027-1.473-1.436a.62.62,0,0,1,.344-1.058l2.035-.3.91-1.844a.646.646,0,0,1,1.113,0l.91,1.844,2.035.3a.62.62,0,0,1,.344,1.058l-1.473,1.435.348,2.027a.621.621,0,0,1-.612.725Zm-4.188-4.2.806.786a.621.621,0,0,1,.178.549l-.19,1.11,1-.524a.615.615,0,0,1,.577,0l1,.523-.19-1.109a.62.62,0,0,1,.178-.549l.806-.786-1.113-.162a.62.62,0,0,1-.467-.339l-.5-1.009-.5,1.009a.619.619,0,0,1-.467.339Z" transform="translate(-14211.428 -18679.26)" fill="#ff71a4"/>
    <path id="Path_172362" data-name="Path 172362" d="M219.373,352.894c-5.585,0-9.516-4.8-10.932-9.567a1.274,1.274,0,0,1,.445-1.335,1.391,1.391,0,0,1,1.528-.178h0a18.478,18.478,0,0,0,17.942-.007,1.391,1.391,0,0,1,1.517.168,1.282,1.282,0,0,1,.464,1.325c-1.326,4.775-5.231,9.594-10.965,9.594Zm-9.582-9.991a.149.149,0,0,0-.061.014.184.184,0,0,0-.1.088c1.284,4.289,4.794,8.648,9.741,8.648,5.082,0,8.568-4.362,9.768-8.685-.008.015-.042-.035-.1-.059a.113.113,0,0,0-.111,0,19.659,19.659,0,0,1-19.088.008.1.1,0,0,0-.052-.013Z" transform="translate(-14218.56 -18843.07)" fill="#ff71a4"/>
    <path id="Path_172363" data-name="Path 172363" d="M281.544,422.211a.615.615,0,0,1-.394-.142,8.045,8.045,0,0,0-5.21-1.943,8.173,8.173,0,0,0-5.239,1.916.621.621,0,1,1-.781-.965,9.276,9.276,0,0,1,12.019.035.621.621,0,0,1-.4,1.1Z" transform="translate(-14275.102 -18914.309)" fill="#ff71a4"/>
  </g>
</svg>
