
<svg xmlns="http://www.w3.org/2000/svg" width="36.078" height="45.871" viewBox="0 0 36.078 45.871">
  <g id="processIcon" data-name="Group 132166" transform="translate(15430.478 19129)">
    <path id="Path_172356" data-name="Path 172356" d="M197.792,72.8a.593.593,0,0,0-.593.593v3.077h-2.217a5.929,5.929,0,0,0-5.929,5.929v28.344a5.929,5.929,0,0,0,5.929,5.929H217.2a5.929,5.929,0,0,0,5.929-5.929V82.379a5.929,5.929,0,0,0-5.929-5.929h-2.217V73.391a.593.593,0,0,0-1.186,0v3.077h-7.114V73.391a.593.593,0,0,0-1.186,0v3.077h-7.114V73.391a.593.593,0,0,0-.593-.593Zm7.707,4.855v3.207a.593.593,0,0,0,1.186,0V77.637H213.8v3.225a.593.593,0,0,0,1.186,0V77.637H217.2a4.743,4.743,0,0,1,4.743,4.743v28.362a4.743,4.743,0,0,1-4.743,4.743H194.982a4.743,4.743,0,0,1-4.743-4.743V82.38a4.743,4.743,0,0,1,4.743-4.743H197.2v3.225a.593.593,0,0,0,1.186,0V77.637Z" transform="translate(-15618.531 -19200.799)" fill="#b191fe" stroke="#ff71a4" stroke-width="2"/>
    <path id="Icon_ionic-ios-heart-empty" data-name="Icon ionic-ios-heart-empty" d="M15.015,3.938h-.038A4.563,4.563,0,0,0,11.34,5.651,4.563,4.563,0,0,0,7.7,3.938H7.664c-2.37.02-4.289,1.678-4.289,3.724a7.344,7.344,0,0,0,1.83,4.374,30.71,30.71,0,0,0,6.134,5.086,30.71,30.71,0,0,0,6.134-5.086A7.344,7.344,0,0,0,19.3,7.662C19.3,5.615,17.386,3.957,15.015,3.938Zm1.593,7.554a27.861,27.861,0,0,1-5.269,4.469,27.9,27.9,0,0,1-5.269-4.473A6.511,6.511,0,0,1,4.447,7.662a2.606,2.606,0,0,1,.942-1.971,3.511,3.511,0,0,1,2.282-.827h.034a3.622,3.622,0,0,1,1.574.356,3.2,3.2,0,0,1,1.164.939,1.177,1.177,0,0,0,1.8,0,3.232,3.232,0,0,1,1.164-.939,3.622,3.622,0,0,1,1.574-.356h.034a3.519,3.519,0,0,1,2.282.827,2.6,2.6,0,0,1,.942,1.971A6.6,6.6,0,0,1,16.608,11.492Z" transform="translate(-15423.354 -19113.953)" fill="#b191fe" stroke="#ff71a4" stroke-width="2"/>
  </g>
</svg>
