
<svg xmlns="http://www.w3.org/2000/svg" width="36.078" height="45.871" viewBox="0 0 36.078 45.871">
  <g id="requestBooking" data-name="Group 132166" transform="translate(15430.478 19129)">
    <path id="Path_172354" data-name="Path 172354" d="M259,336.591a.593.593,0,0,0,.593.593h18.082a.593.593,0,1,0,0-1.186H259.589a.593.593,0,0,0-.593.593Z" transform="translate(-15681.069 -19436.135)" fill="#b191fe" stroke="#ff71a4" stroke-width="2"/>
    <path id="Path_172355" data-name="Path 172355" d="M290.611,260.806h11.513a.593.593,0,1,0,0-1.186H290.611a.593.593,0,1,0,0,1.186Z" transform="translate(-15708.808 -19367.844)" fill="#b191fe" stroke="#ff71a4" stroke-width="2"/>
    <path id="Path_172356" data-name="Path 172356" d="M197.792,72.8a.593.593,0,0,0-.593.593v3.077h-2.217a5.929,5.929,0,0,0-5.929,5.929v28.344a5.929,5.929,0,0,0,5.929,5.929H217.2a5.929,5.929,0,0,0,5.929-5.929V82.379a5.929,5.929,0,0,0-5.929-5.929h-2.217V73.391a.593.593,0,0,0-1.186,0v3.077h-7.114V73.391a.593.593,0,0,0-1.186,0v3.077h-7.114V73.391a.593.593,0,0,0-.593-.593Zm7.707,4.855v3.207a.593.593,0,0,0,1.186,0V77.637H213.8v3.225a.593.593,0,0,0,1.186,0V77.637H217.2a4.743,4.743,0,0,1,4.743,4.743v28.362a4.743,4.743,0,0,1-4.743,4.743H194.982a4.743,4.743,0,0,1-4.743-4.743V82.38a4.743,4.743,0,0,1,4.743-4.743H197.2v3.225a.593.593,0,0,0,1.186,0V77.637Z" transform="translate(-15618.531 -19200.799)" fill="#b191fe" stroke="#ff71a4" stroke-width="2"/>
  </g>
</svg>
