<svg xmlns="http://www.w3.org/2000/svg" width="34.306" height="72.547" viewBox="0 0 34.306 72.547">
  <path id="section3" data-name="Path 173347" d="M5.662-7.364c1.6,2.441,5.583,8.788,14.235,8.788,9.769,0,15.91-8.3,15.91-19.139,0-7.226-3.978-14.452-9.769-16.5,4.675-2.051,8.513-8.3,8.513-16.014,0-9.765-5.373-16.893-13.4-16.893-9.141,0-13.887,8.788-13.887,8.788a.649.649,0,0,0,.14.781l.419.391c.209.2.419.1.558-.2,0,0,4.326-8.1,12.77-8.1,7.327,0,12.142,6.445,12.142,15.233C33.3-41.248,27.992-35,22.2-35H12.779c-.279,0-.488.293-.488.684v.391c0,.391.209.684.488.684H22.2c7.467,0,12.351,7.714,12.351,15.526,0,9.96-5.513,17.381-14.654,17.381-8.025,0-11.723-5.956-13.259-8.2-.14-.2-.349-.391-.628-.1l-.349.391C5.452-7.95,5.452-7.755,5.662-7.364Z" transform="translate(-3.502 69.123)" fill="currentColor" stroke="currentColor" stroke-width="4"/>
</svg>