<svg xmlns="http://www.w3.org/2000/svg" width="31.24" height="73.451" viewBox="0 0 31.24 73.451">
  <path id="section2" data-name="Path 173346" d="M3.7,1.123c-.32.4-.128,1.2.32,1.2H30c.256,0,.448-.3.448-.7v-.4c0-.4-.192-.7-.448-.7H5.749l16.957-24.89c4.8-7.025,8.063-14.051,8.063-22.883,0-10.538-4.8-19.872-14.142-19.872-7.807,0-11.134,10.036-11.134,10.036-.192.5-.064.7.128.9l.448.4c.128.1.32.1.448-.3,0,0,2.944-9.334,10.11-9.334,8.575,0,12.99,8.631,12.99,18.166,0,8.33-3.135,15.054-7.679,21.678Z" transform="translate(-1.529 69.123)" fill="currentColor" stroke="currentColor" stroke-width="4"/>
</svg>