
<svg xmlns="http://www.w3.org/2000/svg" width="47.552" height="41.715" viewBox="0 0 47.552 41.715">
  <path id="walletSection" data-name="Icon awesome-wallet" d="M40.131,10.546H6.961a1.383,1.383,0,1,1,0-2.765H40.375A1.387,1.387,0,0,0,41.767,6.4,4.162,4.162,0,0,0,37.591,2.25H5.569A5.55,5.55,0,0,0,0,7.781V35.434a5.55,5.55,0,0,0,5.569,5.531H40.131a4.3,4.3,0,0,0,4.42-4.148V14.694A4.3,4.3,0,0,0,40.131,10.546ZM36.2,28.521a2.765,2.765,0,1,1,2.784-2.765A2.775,2.775,0,0,1,36.2,28.521Z" transform="translate(1.5 -0.75)" fill="none" stroke="#ff71a4" stroke-width="3"/>
</svg>
