<svg xmlns="http://www.w3.org/2000/svg" width="23.539" height="23.563" viewBox="0 0 23.539 23.563">
  <g id="chat" data-name="_Icons / 11 Comment_2" transform="translate(1 1)">
    <path id="_11_Comment_2" data-name="11 Comment_2" d="M18.974,0H2.564A2.564,2.564,0,0,0,0,2.564V14.872a2.564,2.564,0,0,0,2.564,2.564H5.128v3.077a1.026,1.026,0,0,0,1.749.723l3.8-3.8h8.3a2.564,2.564,0,0,0,2.564-2.564V2.564A2.564,2.564,0,0,0,18.974,0Z" fill="none" stroke="#4e586e" stroke-width="2"/>
    <path id="Path" d="M10.256,2.051H1.026A1.026,1.026,0,0,1,1.026,0h9.231a1.026,1.026,0,1,1,0,2.051Z" transform="translate(5.128 5.385)" fill="#4e586e"/>
    <path id="Path-2" data-name="Path" d="M7.692,2.051H1.026A1.026,1.026,0,0,1,1.026,0H7.692a1.026,1.026,0,0,1,0,2.051Z" transform="translate(5.128 10)" fill="#4e586e"/>
  </g>
</svg>
