<svg id="exclusive_d" xmlns="http://www.w3.org/2000/svg" width="31.926" height="23.002" viewBox="0 0 31.926 23.002">
  <g id="exclusive_d" data-name="exclusive d" transform="translate(-203.078 -154.395)">
    <path id="Path_389445" data-name="Path 389445" d="M219.3,176.829c-.02.009-.038.022-.059.03a.551.551,0,0,1-.4,0,.46.46,0,0,1-.059-.03.56.56,0,0,1-.092-.047c-.011-.008-.017-.019-.027-.028s-.02-.01-.029-.018l-14.87-13.951s0-.005-.005-.008a.6.6,0,0,1-.057-.078.538.538,0,0,1-.059-.086c0-.009-.012-.016-.015-.026a.658.658,0,0,1-.019-.082.58.58,0,0,1-.025-.11c0-.012,0-.022,0-.035s0-.006,0-.009a.6.6,0,0,1,.015-.073.548.548,0,0,1,.018-.106.376.376,0,0,1,.012-.038.562.562,0,0,1,.05-.085.556.556,0,0,1,.033-.064l5.4-6.866c.007-.009.017-.012.025-.021s.012-.021.021-.03a.564.564,0,0,1,.074-.05.578.578,0,0,1,.089-.06c.011-.005.018-.014.029-.018h0a.477.477,0,0,1,.076-.015.609.609,0,0,1,.115-.023c.012,0,.022-.007.034-.007h18.936c.01,0,.018.006.029.007a.587.587,0,0,1,.2.038c.007,0,.011.008.016.011a.551.551,0,0,1,.071.048.577.577,0,0,1,.129.1c.007.008.017.011.024.019l5.4,6.866a.484.484,0,0,1,.037.071.664.664,0,0,1,.05.094.622.622,0,0,1,.026.131.536.536,0,0,1,.014.068c0,.008,0,.013,0,.021a.562.562,0,0,1-.029.142S219.328,176.814,219.3,176.829Zm5.449-13.883H213.334l5.706,11.984Zm-19.359-1.183h6.129l-2.105-5.113Zm8.449,0h10.408l-5.2-5.42Zm12.729,0h6.129l-4.023-5.113Zm-6.136-5.682,5.037,5.246,2.161-5.246Zm-2.776,0h-7.2l2.16,5.246Zm-.494,17.649-5.135-10.784h-6.36Zm3.764,0,11.5-10.784h-6.361Z" transform="translate(0 0)" fill="currentColor"/>
    <path id="Path_389445_-_Outline" data-name="Path 389445 - Outline" d="M219.04,177.4a1.091,1.091,0,0,1-.364-.065.7.7,0,0,1-.118-.054h0a.818.818,0,0,1-.157-.088l-.011-.008c-.016-.012-.03-.024-.042-.036a.544.544,0,0,1-.044-.036l-.007-.006L203.36,163.088l-.013-.024c-.02-.026-.035-.049-.045-.065l-.007-.01a.923.923,0,0,1-.083-.123.536.536,0,0,1-.047-.092.68.68,0,0,1-.04-.147l0-.006a.919.919,0,0,1-.035-.171c0-.008,0-.017,0-.026a.511.511,0,0,1-.005-.072.619.619,0,0,1,.021-.159.877.877,0,0,1,.033-.166.69.69,0,0,1,.028-.082.756.756,0,0,1,.074-.138.62.62,0,0,1,.078-.13l5.4-6.866a.5.5,0,0,1,.044-.05.543.543,0,0,1,.042-.047.694.694,0,0,1,.141-.106l0,0a.983.983,0,0,1,.112-.075l.109-.091h.121l.035-.005a1.049,1.049,0,0,1,.134-.027.534.534,0,0,1,.117-.013h18.936a.535.535,0,0,1,.1.01,1.046,1.046,0,0,1,.3.069.516.516,0,0,1,.1.051.792.792,0,0,1,.083.057l0,0a1.089,1.089,0,0,1,.186.146.535.535,0,0,1,.079.081l5.4,6.866a.647.647,0,0,1,.087.147.988.988,0,0,1,.074.149l.006.017a1.028,1.028,0,0,1,.046.205.617.617,0,0,1,.021.156.519.519,0,0,1-.008.092,1.113,1.113,0,0,1-.046.214l-.038.129-.1.092-7.576,7.152-5.215,4.92-1.723,1.624c-.708.666-.708.666-.777.7l-.007,0a.737.737,0,0,1-.1.048l-.006,0A1.088,1.088,0,0,1,219.04,177.4Zm-.011-1h0c.875-.817,9.956-9.389,14.944-14.1l-.018-.036-5.341-6.787c-.011-.01-.022-.021-.033-.033l-.032-.021-.024-.017H228.5l-.043-.005H209.626l-.04,0-.013,0-.045.037H209.5l-.028.028-5.342,6.788c-.007.015-.017.033-.028.052l-.011.018v.011q0,.012,0,.023l0,.009.006.023.006.008c.011.015.022.031.033.048l.015.015,14.791,13.876.029.021.018.015.01,0,.011.006Zm.011-.3-6.5-13.647h13Zm-4.914-12.647,4.915,10.321,4.915-10.321Zm7.139,10.648-.794-.58,5.271-11.069h7.94Zm5.108-10.648-3.86,8.106,8.641-8.106Zm-9.556,10.648L204.4,162.446h7.939l5.27,11.069Zm-9.889-10.648,8.64,8.106-3.859-8.106Zm26.8-1.182h-7.905l2.715-6.595Zm-6.412-1h4.352l-2.857-3.631Zm-1.895,1H212.663l6.377-6.642Zm-10.408-1h8.061l-4.03-4.2Zm-2.747,1h-7.906l5.19-6.595Zm-5.846-1h4.353l-1.5-3.631Zm6.029.963-2.737-6.645h9.117Zm-1.243-5.645,1.584,3.846,3.693-3.846Zm14.433,5.645-6.381-6.645h9.118Zm-4.034-5.645,3.693,3.846,1.584-3.846Z" transform="translate(0 0)" fill="currentColor"/>
  </g>
</svg>
