<!-- <svg id="image"
  xmlns="http://www.w3.org/2000/svg" width="23.846" height="19.521" viewBox="0 0 23.846 19.521" fill="currentColor">
  <g>
    <g id="Layer_2" data-name="Layer 2">
      <path id="Path_108539" data-name="Path 108539" d="M21.925,19.521h-20A1.921,1.921,0,0,1,0,17.6V1.921A1.921,1.921,0,0,1,1.921,0h20a1.921,1.921,0,0,1,1.921,1.921V17.6a1.921,1.921,0,0,1-1.921,1.921ZM1.921,1.5a.423.423,0,0,0-.423.423V17.6a.423.423,0,0,0,.423.423h20a.423.423,0,0,0,.419-.423V1.921a.423.423,0,0,0-.419-.423Z"/>
      <path id="Path_108540" data-name="Path 108540" d="M11,28.872h14.8a.633.633,0,0,0,.528-1.007l-2.041-2.771a.633.633,0,0,0-.955-.082l-2.1,2L16.358,20.4a.633.633,0,0,0-1.041.03L10.449,27.9a.633.633,0,0,0,.547.977Z" transform="translate(-6.473 -12.598)"/>
      <circle id="Ellipse_511" data-name="Ellipse 511" cx="2.221" cy="2.221" r="2.221" transform="translate(14.304 3.441)"/>
    </g>
  </g>
</svg> -->
<!-- New Icon Updated on June 2nd, 2021 by Bhavleen -->

<!-- <svg xmlns="http://www.w3.org/2000/svg" width="18.83" height="17.62" viewBox="0 0 18.83 17.62">
  <g id="image" transform="translate(-1.607 -1.919)">
    <g id="Layer_15" data-name="Layer 15" transform="translate(1.607 1.919)">
      <path id="Path_170666" data-name="Path 170666" d="M18.544,1.919H3.5a1.853,1.853,0,0,0-1.894,1.8v14.01a1.853,1.853,0,0,0,1.894,1.8H18.544a1.853,1.853,0,0,0,1.894-1.8V3.724a1.853,1.853,0,0,0-1.894-1.8ZM3.5,2.717H18.544A1.034,1.034,0,0,1,19.6,3.724v8.022L15.715,8.161a.434.434,0,0,0-.581,0L9.622,13.2l-1.83-1.8a.435.435,0,0,0-.573-.025L2.445,15.276V3.724A1.034,1.034,0,0,1,3.5,2.717ZM2.445,17.734V16.328l5.021-4.107,1.843,1.812h0L14.1,18.741H3.5A1.034,1.034,0,0,1,2.445,17.734Zm16.1,1.007H15.262l-5.057-4.972L15.423,9,19.6,12.857v4.878a1.034,1.034,0,0,1-1.056,1.007Z" transform="translate(-1.607 -1.919)" fill="currentColor"/>
      <path id="Path_170667" data-name="Path 170667" d="M9.4,10.92A1.555,1.555,0,1,0,7.845,9.365,1.555,1.555,0,0,0,9.4,10.92Zm0-2.448a.893.893,0,1,1-.893.893A.893.893,0,0,1,9.4,8.473Z" transform="translate(-5.78 -5.86)" fill="currentColor"/>
    </g>
  </g>
</svg> -->

<svg xmlns="http://www.w3.org/2000/svg" width="17.404" height="17.404" viewBox="0 0 21.43 17.62">
  <g id="image" data-name="Icon feather-image" transform="translate(-3.9 -3.9)">
    <path id="Path_170788" data-name="Path 170788" d="M6.273,4.5h12.41a1.773,1.773,0,0,1,1.773,1.773v12.41a1.773,1.773,0,0,1-1.773,1.773H6.273A1.773,1.773,0,0,1,4.5,18.682V6.273A1.773,1.773,0,0,1,6.273,4.5Z" fill="none" stroke="currentColor" stroke-linecap="round" stroke-linejoin="round" stroke-width="1.2"/>
    <path id="Path_170789" data-name="Path 170789" d="M13.159,11.83a1.33,1.33,0,1,1-1.33-1.33A1.33,1.33,0,0,1,13.159,11.83Z" transform="translate(-2.454 -2.454)" fill="none" stroke="currentColor" stroke-linecap="round" stroke-linejoin="round" stroke-width="1.2"/>
    <path id="Path_170790" data-name="Path 170790" d="M21.682,19.432,17.25,15,7.5,24.75" transform="translate(-1.227 -4.295)" fill="none" stroke="currentColor    " stroke-linecap="round" stroke-linejoin="round" stroke-width="1.2"/>
  </g>
</svg>


