<svg id="lock" xmlns="http://www.w3.org/2000/svg" width="25.633" height="26.391" viewBox="0 0 25.633 26.391">
  <g  opacity="0.5">
    <path id="Path_1731" data-name="Path 1731" d="M0,0H25.632V26.391H0Z" fill="none"/>
    <path id="lock-open-outline" d="M16.807,18.381V9.233H5.83v9.148H16.807m0-10.977a1.83,1.83,0,0,1,1.83,1.83v9.148a1.83,1.83,0,0,1-1.83,1.83H5.83A1.829,1.829,0,0,1,4,18.381V9.233A1.83,1.83,0,0,1,5.83,7.4h8.233V5.574a2.744,2.744,0,0,0-5.489,0H6.744a4.574,4.574,0,0,1,9.148,0V7.4h.915m-5.489,8.233a1.83,1.83,0,1,1,1.83-1.83A1.83,1.83,0,0,1,11.318,15.637Z" 
      transform="translate(1.309 1.637)" 
      fill="currentColor"/>
  </g>
</svg>
