<svg  id="purchased_post"  xmlns="http://www.w3.org/2000/svg" width="17.932" height="16.104" viewBox="0 0 14.003 16.918">
  <path 
   
    data-name="002-shopping-bag" 
    d="M32,16.212,30.97,4.747a.607.607,0,0,0-.6-.553H28.242V3.236a3.236,3.236,0,1,0-6.472,0v.958H19.646a.607.607,0,0,0-.6.553l-1.034,11.51a.607.607,0,0,0,.6.661H31.4a.607.607,0,0,0,.607-.607A.619.619,0,0,0,32,16.212ZM22.985,3.236a2.022,2.022,0,1,1,4.043,0v.958H22.985ZM19.277,15.7l.924-10.3H21.77V6.494a.607.607,0,1,0,1.214,0V5.408h4.043V6.494a.607.607,0,1,0,1.214,0V5.408H29.81l.924,10.3H19.277Z" 
    transform="translate(-18.005)" 
    fill="none" 
    stroke="currentColor" 
    opacity="0.5"/>
</svg>
