<!-- <svg id="tag" xmlns="http://www.w3.org/2000/svg" width="18.691" height="18.69" viewBox="0 0 18.691 18.69">
  <g id="tag">
    <g id="Group_50113" data-name="Group 50113" transform="translate(0)">
      <g id="Group_50112" data-name="Group 50112">
        <path id="Path_109097" data-name="Path 109097" d="M.667,0H8.01a.668.668,0,0,1,.472.2L18.5,10.209a.667.667,0,0,1,0,.944L11.153,18.5a.668.668,0,0,1-.944,0L.2,8.482A.668.668,0,0,1,0,8.01V.668A.668.668,0,0,1,.667,0Zm.668,7.734,9.346,9.346,6.4-6.4L7.734,1.335h-6.4Z" transform="translate(0)" fill="currentColor"/>
      </g>
    </g>
    <g id="Group_50115" data-name="Group 50115" transform="translate(2.67 2.67)">
      <g id="Group_50114" data-name="Group 50114">
        <path id="Path_109098" data-name="Path 109098" d="M309.2,68.267a2,2,0,1,1-2,2A2,2,0,0,1,309.2,68.267Zm0,2.67a.668.668,0,1,0-.668-.668A.668.668,0,0,0,309.2,70.937Z" transform="translate(-307.196 -68.267)" fill="currentColor"/>
      </g>
    </g>
  </g>
</svg> -->
<!-- New Icon Updated on June 2nd, 2021 by Bhavleen -->
<!-- 
<svg id="tag" xmlns="http://www.w3.org/2000/svg" width="18.41" height="18.492" viewBox="0 0 18.41 18.492">
  <g id="noun_Tag_1487116_1_" data-name="noun_Tag_1487116 (1)" transform="translate(-6.296 -6.097)">
    <path id="Path_170668" data-name="Path 170668" d="M23.961,15.5,15.332,6.359a.206.206,0,0,0-.165-.062l-7.435.618a.206.206,0,0,0-.185.185L6.5,14.473a.206.206,0,0,0,.062.165l8.65,9.144a1.606,1.606,0,0,0,2.265.062L23.9,17.768A1.606,1.606,0,0,0,23.961,15.5Zm-.35,1.977-6.425,6.075a1.194,1.194,0,0,1-1.689-.041L6.93,14.432l.989-7.126,7.167-.6,8.567,9.062a1.194,1.194,0,0,1-.021,1.709Z" transform="translate(0 0)" fill="currentColor" stroke="currentColor" stroke-width="0.4"/>
    <path id="Path_170669" data-name="Path 170669" d="M22.953,19.7a2.08,2.08,0,1,0,1.442.638A2.08,2.08,0,0,0,22.953,19.7Zm1.071,3.275a1.668,1.668,0,1,1-1.133-2.863h.041a1.668,1.668,0,0,1,1.091,2.863Z" transform="translate(-11.369 -10.64)" fill="currentColor" stroke="currentColor" stroke-width="0.2"/>
  </g>
</svg> -->

<svg xmlns="http://www.w3.org/2000/svg" width="17.604" height="17.604" viewBox="0 0 17.604 17.604">
  <path id="tag" data-name="Icon awesome-tag" d="M0,8.078V1.538A1.538,1.538,0,0,1,1.538,0h6.54A1.538,1.538,0,0,1,9.165.45l6.789,6.789a1.538,1.538,0,0,1,0,2.175l-6.54,6.54a1.538,1.538,0,0,1-2.175,0L.45,9.165A1.538,1.538,0,0,1,0,8.078ZM3.588,2.051A1.538,1.538,0,1,0,5.126,3.588,1.538,1.538,0,0,0,3.588,2.051Z" transform="translate(0.6 0.6)" fill="none" stroke="currentColor" stroke-width="1.2"/>
</svg>
