<svg id="instagram" xmlns="http://www.w3.org/2000/svg" width="13.978" height="13.979" viewBox="0 0 13.978 13.979">
  <path id="Exclusion_3" data-name="Exclusion 3" d="M6.99,13.978A6.992,6.992,0,0,1,0,6.987,6.988,6.988,0,0,1,6.99,0a6.988,6.988,0,0,1,4.941,11.93A6.935,6.935,0,0,1,6.99,13.978Zm.039-3.18.392,0h.386c1.2,0,2.323-.1,2.792-1.3a5.939,5.939,0,0,0,.2-2.075c0-.126,0-.257,0-.394,0-.1,0-.193,0-.286V6.617c.007-1.25.012-2.076-.633-2.722a3.02,3.02,0,0,0-2.318-.633H6.3c-1.273,0-2.364.1-2.834,1.3a6.037,6.037,0,0,0-.2,2.1c0,.117,0,.24,0,.365v.153c0,.05,0,.1,0,.15a6.651,6.651,0,0,0,.2,2.165c.467,1.2,1.556,1.3,2.826,1.3h.366Zm.857-.673c-.131,0-.265,0-.407,0s-.291,0-.447,0c-3,0-3.089-.088-3.089-3.087,0-1.54.063-2.293.434-2.683s1.012-.405,2.316-.406h0v0h.016c.215,0,.414,0,.591,0h.033c.173,0,.337,0,.491,0,.955,0,1.5.066,1.843.422.507.53.542,1.723.43,4.194C10.03,10.008,9.1,10.124,7.886,10.124ZM7.032,5.1A1.935,1.935,0,1,0,8.965,7.031,1.937,1.937,0,0,0,7.032,5.1Zm2.01-.527a.451.451,0,1,0,.453.453A.452.452,0,0,0,9.041,4.569ZM7.032,8.288A1.2,1.2,0,0,1,5.785,7.031,1.2,1.2,0,0,1,7.032,5.775,1.2,1.2,0,0,1,8.277,7.032,1.2,1.2,0,0,1,7.032,8.288Z" transform="translate(0)" fill="currentColor"/>
</svg>
