<svg id="linked_in" data-name="linked in" xmlns="http://www.w3.org/2000/svg" width="14.096" height="14.098" viewBox="0 0 14.096 14.098">
  <path id="Exclusion_4" data-name="Exclusion 4" d="M7.048,14.1A7.047,7.047,0,0,1,2.065,2.066,7.048,7.048,0,0,1,14.1,7.05,7.048,7.048,0,0,1,7.048,14.1ZM8.722,6.665c.558,0,.853.4.853,1.146v2.711H11.26V7.615c0-1.428-.725-2.279-1.938-2.279A1.661,1.661,0,0,0,7.8,6.172V5.454H6.116c.019.389.006,3.6,0,4.967,0,.062,0,.1,0,.1H7.8V7.693a1.216,1.216,0,0,1,.054-.412A.943.943,0,0,1,8.722,6.665ZM3.5,5.454h0v5.068H5.187V5.454Zm.852-2.441a.878.878,0,1,0-.023,1.752h.013a.878.878,0,1,0,.011-1.752Z" transform="translate(0 0)" fill="currentColor"/>
</svg>
