<svg id="twitter" xmlns="http://www.w3.org/2000/svg" width="13.978" height="13.977" viewBox="0 0 13.978 13.977">
  <path id="Exclusion_2" data-name="Exclusion 2" d="M6.989,13.977A6.988,6.988,0,0,1,2.048,2.047a6.989,6.989,0,0,1,9.884,9.883A6.944,6.944,0,0,1,6.989,13.977ZM3.263,9.4h0A4.221,4.221,0,0,0,9.758,5.851c0-.064,0-.129,0-.193a3.165,3.165,0,0,0,.742-.767,2.876,2.876,0,0,1-.852.229A1.474,1.474,0,0,0,10.3,4.3a2.817,2.817,0,0,1-.941.359A1.484,1.484,0,0,0,6.788,5.677a1.534,1.534,0,0,0,.039.34A4.239,4.239,0,0,1,3.768,4.465a1.445,1.445,0,0,0-.2.747,1.474,1.474,0,0,0,.659,1.234,1.507,1.507,0,0,1-.67-.187v.017a1.492,1.492,0,0,0,1.19,1.457,1.679,1.679,0,0,1-.389.049,2.008,2.008,0,0,1-.282-.021A1.493,1.493,0,0,0,5.463,8.787a2.959,2.959,0,0,1-1.841.635A3.014,3.014,0,0,1,3.263,9.4Z" fill="currentColor"/>
</svg>
