<svg xmlns="http://www.w3.org/2000/svg" width="14" height="14" viewBox="0 0 14 14">
  <g id="youtube" transform="translate(-0.089 -0.109)">
    <path id="Exclusion_5" data-name="Exclusion 5" d="M7,14A7,7,0,0,1,2.05,2.05a7,7,0,1,1,9.9,9.9A6.954,6.954,0,0,1,7,14ZM6.1,5.666V8.449l2.138-1.5Z" transform="translate(0.089 0.11)" fill="#fff"/>
    <g id="Group_57004" data-name="Group 57004" transform="translate(3.373 4.931)">
      <rect id="Rectangle_27419" data-name="Rectangle 27419" width="3.727" height="3.261" transform="translate(1.714 0.77)" fill="#000"/>
      <path id="Path_170867" data-name="Path 170867" d="M127.537,156.334a1.062,1.062,0,0,0-1.062-1.062h-4.981a1.062,1.062,0,0,0-1.062,1.062v2.849a1.062,1.062,0,0,0,1.062,1.062h4.981a1.062,1.062,0,0,0,1.062-1.062v-2.849Zm-4.263,2.626v-2.676l2.029,1.338Z" transform="translate(-120.432 -155.272)"/>
    </g>
  </g>
</svg>
