<svg xmlns="http://www.w3.org/2000/svg" width="19.455" height="18.558" viewBox="0 0 19.455 18.558">
  <g id="billing_plans" data-name="Billing and plans" transform="translate(9520.338 686.126)">
    <g id="Path_171115" data-name="Path 171115" transform="translate(-9520.338 -686.126)">
      <path id="Path_171213" data-name="Path 171213" d="M-9501.05-681.149c-.055.261-.095.526-.167.781a4.4,4.4,0,0,1-4.273,3.217h-.2v6.928a2.423,2.423,0,0,1-1.987,2.433,4.226,4.226,0,0,1-.781.047h-9.234a2.447,2.447,0,0,1-2.5-2.4v-1.295c0-.326.091-.421.421-.421h2.074c0-.076.011-.142.013-.211q.035-5.264.071-10.521c0-.383.094-.476.474-.476h7.271a.337.337,0,0,0,.367-.235,4.369,4.369,0,0,1,3.612-2.656,1.1,1.1,0,0,0,.125-.032h.6a1.025,1.025,0,0,0,.125.031,4.4,4.4,0,0,1,3.854,3.316c.054.211.089.435.133.653Zm-16.008,9.3h6.753c.251.005.351.105.353.354v1.214a2.272,2.272,0,0,0,.022.391,1.827,1.827,0,0,0,1.959,1.521,1.807,1.807,0,0,0,1.652-1.824c.006-2.291,0-4.584,0-6.875,0-.135-.044-.175-.171-.211a4.3,4.3,0,0,1-2.558-1.755.3.3,0,0,0-.29-.145h-2.935a1.1,1.1,0,0,1-.186-.007.305.305,0,0,1-.266-.316.308.308,0,0,1,.277-.3,1.118,1.118,0,0,1,.168,0h2.79a4.484,4.484,0,0,1-.3-2.62h-7.21c-.022,3.528-.047,7.034-.07,10.577Zm11.609-5.924a3.776,3.776,0,0,0,3.774-3.777h0a3.776,3.776,0,0,0-3.774-3.78h-.017a3.79,3.79,0,0,0-3.768,3.79,3.779,3.779,0,0,0,3.784,3.77Zm-5.131,6.549h-8.989v.959a1.815,1.815,0,0,0,1.733,1.9h8.047a.675.675,0,0,0-.037-.064,2.452,2.452,0,0,1-.755-1.864v-.924Z" transform="translate(9520.346 686.134)"/>
      <path id="Path_171214" data-name="Path 171214" d="M-9508.317-667.57h-9.366a2.563,2.563,0,0,1-1.854-.724,2.6,2.6,0,0,1-.8-1.827v-1.3c0-.421.162-.579.579-.579h1.925v-.055l.073-10.519c0-.466.165-.632.632-.632h7.271a.182.182,0,0,0,.216-.123,4.534,4.534,0,0,1,3.75-2.768.661.661,0,0,0,.089-.024l.05-.008.646.007a.927.927,0,0,0,.1.025,4.559,4.559,0,0,1,3.982,3.434c.037.145.066.3.094.452l.041.211.006.882v.017c-.017.082-.032.164-.049.246-.034.183-.069.367-.12.545a4.559,4.559,0,0,1-4.428,3.332h-.04v6.771a2.569,2.569,0,0,1-2.118,2.588A4.324,4.324,0,0,1-9508.317-667.57Zm-.133-.316a4.3,4.3,0,0,0,.757-.046,2.253,2.253,0,0,0,1.853-2.274v-7.088h.358a4.279,4.279,0,0,0,4.123-3.1c.048-.171.081-.344.113-.52.015-.078.031-.157.047-.235v-.819l-.038-.181c-.027-.145-.055-.292-.091-.433a4.25,4.25,0,0,0-3.716-3.2,1.193,1.193,0,0,1-.134-.029h-.549a1.089,1.089,0,0,1-.12.028,4.221,4.221,0,0,0-3.5,2.563.483.483,0,0,1-.535.33h-7.249c-.291,0-.315.023-.315.316l-.073,10.522a.616.616,0,0,1-.006.105.54.54,0,0,0,0,.105v.158h-2.232c-.24,0-.264.022-.264.263v1.291a2.274,2.274,0,0,0,.7,1.606,2.26,2.26,0,0,0,1.635.638Zm.335-.307a2,2,0,0,1-1.959-1.659,2.531,2.531,0,0,1-.027-.421v-1.211c0-.161-.03-.192-.2-.2h-6.75v-.156h-.158v-.158l.07-10.577h7.558l-.034.187a4.305,4.305,0,0,0,.284,2.527l.1.221h-3.03a1.15,1.15,0,0,0-.158,0,.148.148,0,0,0-.13.146.148.148,0,0,0,.127.157.878.878,0,0,0,.158.006h2.943a.455.455,0,0,1,.421.222,4.127,4.127,0,0,0,2.458,1.685.335.335,0,0,1,.292.364v6.874a1.969,1.969,0,0,1-1.8,1.98h-.172Zm-8.774-3.8h6.6a.456.456,0,0,1,.378.132.457.457,0,0,1,.13.38v1.214a2.312,2.312,0,0,0,.022.367,1.677,1.677,0,0,0,1.791,1.388,1.657,1.657,0,0,0,1.507-1.666q0-1.79,0-3.58v-3.294c0-.014,0-.029,0-.043l-.052-.016a4.436,4.436,0,0,1-2.645-1.817.153.153,0,0,0-.144-.078h-2.948a1.254,1.254,0,0,1-.211-.008.464.464,0,0,1-.4-.48.463.463,0,0,1,.422-.452,1.2,1.2,0,0,1,.194,0h2.545a4.6,4.6,0,0,1-.247-2.3h-6.868Zm-.854,3.8h-.089a1.963,1.963,0,0,1-1.369-.64,1.96,1.96,0,0,1-.516-1.421v-1.11h9.306v1.084a2.292,2.292,0,0,0,.7,1.749.567.567,0,0,1,.072.111l.105.224h-8.122a.666.666,0,0,0-.089,0Zm-1.658-2.857v.8a1.658,1.658,0,0,0,.433,1.2,1.651,1.651,0,0,0,1.149.538h7.7a2.6,2.6,0,0,1-.607-1.777v-.762Zm13.96-6.548a3.943,3.943,0,0,1-3.937-3.928,3.956,3.956,0,0,1,3.924-3.948,3.915,3.915,0,0,1,2.8,1.158,3.908,3.908,0,0,1,1.151,2.783,3.935,3.935,0,0,1-3.774,3.935h-.161Zm0-7.56a3.643,3.643,0,0,0-3.626,3.632,3.628,3.628,0,0,0,3.559,3.612h.067a3.623,3.623,0,0,0,3.619-3.619,3.6,3.6,0,0,0-1.062-2.562,3.591,3.591,0,0,0-2.56-1.068Z" transform="translate(9520.338 686.126)"/>
    </g>
    <g id="Path_171116" data-name="Path 171116" transform="translate(-9512.841 -674.521)">
      <path id="Path_171215" data-name="Path 171215" d="M-9510.723-674.332h-2.018c-.152,0-.293-.048-.322-.2a.506.506,0,0,1,.074-.335.316.316,0,0,1,.234-.086q2.036-.006,4.072,0a.312.312,0,0,1,.227.07.312.312,0,0,1,.109.21v.036a.316.316,0,0,1-.334.3h-.008C-9509.365-674.33-9510.039-674.332-9510.723-674.332Z" transform="translate(9513.225 675.111)"/>
      <path id="Path_171216" data-name="Path 171216" d="M-9509.967-674.166h-2.768a.43.43,0,0,1-.477-.324.685.685,0,0,1,.1-.449.473.473,0,0,1,.373-.16q2.027-.006,4.067,0a.465.465,0,0,1,.49.421v.053a.474.474,0,0,1-.159.332.48.48,0,0,1-.341.12C-9509.1-674.167-9509.535-674.166-9509.967-674.166Zm-2.792-.618a.151.151,0,0,0-.11.042.414.414,0,0,0-.032.2c.008.034.064.057.167.057h2.388c.556,0,1.11,0,1.666-.005a.182.182,0,0,0,.134-.039.155.155,0,0,0,.05-.105.156.156,0,0,0-.049-.11.155.155,0,0,0-.115-.039h-4.086Z" transform="translate(9513.217 675.103)"/>
    </g>
    <g id="Path_171117" data-name="Path 171117" transform="translate(-9512.863 -677.237)">
      <path id="Path_171217" data-name="Path 171217" d="M-9510.722-677.525h2c.246,0,.385.115.383.31s-.137.3-.369.3h-4.019c-.232,0-.362-.119-.36-.316s.132-.3.367-.3Q-9511.721-677.525-9510.722-677.525Z" transform="translate(9513.246 677.691)"/>
      <path id="Path_171218" data-name="Path 171218" d="M-9508.7-676.745h-4.019a.536.536,0,0,1-.393-.143.45.45,0,0,1-.125-.331.464.464,0,0,1,.158-.349.463.463,0,0,1,.367-.11h4a.575.575,0,0,1,.421.148.442.442,0,0,1,.124.316.466.466,0,0,1-.158.36A.463.463,0,0,1-9508.7-676.745Zm-4.013-.618c-.211,0-.211.092-.211.146a.146.146,0,0,0,.033.1.243.243,0,0,0,.17.05h4.018c.211,0,.211-.105.211-.148a.119.119,0,0,0-.031-.1.282.282,0,0,0-.193-.054h-2c-.657,0-1.331,0-1.994,0Z" transform="translate(9513.239 677.683)"/>
    </g>
    <g id="Path_171118" data-name="Path 171118" transform="translate(-9515.384 -680.415)">
      <path id="Path_171219" data-name="Path 171219" d="M-9513.651-679.745a.98.98,0,0,1-.985.963.99.99,0,0,1-1-.972.986.986,0,0,1,1-.948.977.977,0,0,1,.984.956Zm-.984.337a.358.358,0,0,0,.368-.342.358.358,0,0,0-.376-.334.355.355,0,0,0-.366.34h0a.354.354,0,0,0,.116.244.354.354,0,0,0,.256.089Z" transform="translate(9515.633 680.701)"/>
    </g>
    <g id="Path_171119" data-name="Path 171119" transform="translate(-9515.385 -677.724)">
      <path id="Path_171220" data-name="Path 171220" d="M-9513.651-677.19a.979.979,0,0,1-.979.969.989.989,0,0,1-1-.967.986.986,0,0,1,.992-.957.973.973,0,0,1,.991.955Zm-.993.341a.355.355,0,0,0,.377-.332.361.361,0,0,0-.369-.343.357.357,0,0,0-.375.336.351.351,0,0,0,.109.244.349.349,0,0,0,.251.095Z" transform="translate(9515.634 678.145)"/>
    </g>
    <g id="Path_171120" data-name="Path 171120" transform="translate(-9515.385 -675.027)">
      <path id="Path_171221" data-name="Path 171221" d="M-9513.651-674.624a.973.973,0,0,1-.985.96.984.984,0,0,1-1-.972.978.978,0,0,1,1-.947.964.964,0,0,1,.688.27.967.967,0,0,1,.3.678Zm-1,.335a.355.355,0,0,0,.379-.33.361.361,0,0,0-.362-.346.359.359,0,0,0-.378.333.351.351,0,0,0,.358.341h0Z" transform="translate(9515.634 675.583)"/>
    </g>
    <g id="Path_171121" data-name="Path 171121" transform="translate(-9506.59 -684.034)">
      <path id="Path_171222" data-name="Path 171222" d="M-9505.912-683.625c.083.032.16.055.232.089a1.124,1.124,0,0,1,.657.924c.025.211-.074.352-.244.365s-.269-.1-.291-.316a.586.586,0,0,0-.571-.544.589.589,0,0,0-.608.52.6.6,0,0,0,.128.445.605.605,0,0,0,.407.223.571.571,0,0,0,.095,0,1.12,1.12,0,0,1,1.066.9,1.122,1.122,0,0,1-.738,1.29l-.131.047v.27a.257.257,0,0,1-.066.181.254.254,0,0,1-.176.08.077.077,0,0,1-.023,0,.234.234,0,0,1-.171-.058.233.233,0,0,1-.08-.162.082.082,0,0,1,0-.031.363.363,0,0,0-.256-.414,1.022,1.022,0,0,1-.585-.916c-.01-.194.077-.31.233-.323s.27.082.293.282a.593.593,0,0,0,.521.564.587.587,0,0,0,.633-.382.6.6,0,0,0-.018-.451.592.592,0,0,0-.33-.307.592.592,0,0,0-.115-.029c-.126-.021-.256-.022-.379-.053a1.107,1.107,0,0,1-.842-.984,1.1,1.1,0,0,1,.688-1.139c.114-.045.16-.1.148-.22a.464.464,0,0,1,.028-.219.239.239,0,0,1,.278-.141.238.238,0,0,1,.208.226A2.233,2.233,0,0,1-9505.912-683.625Z" transform="translate(9507.279 684.139)"/>
    </g>
  </g>
</svg>
