<svg id="Bookmark" xmlns="http://www.w3.org/2000/svg" width="13.061" height="19.595" viewBox="0 0 13.061 19.595">
  <path id="_14_Bookmark_2" data-name="14 Bookmark_2" d="M11.838,19.595a1.219,1.219,0,0,1-.867-.358L7.4,15.661a1.225,1.225,0,0,0-1.731,0L2.09,19.237A1.224,1.224,0,0,1,0,18.367V2.041A2.044,2.044,0,0,1,2.041,0h8.979a2.043,2.043,0,0,1,2.04,2.041V18.367a1.222,1.222,0,0,1-1.223,1.228ZM4.49,6.939a.816.816,0,0,0,0,1.633H5.714V9.8a.816.816,0,0,0,1.633,0V8.572H8.572a.816.816,0,1,0,0-1.633H7.347V5.714a.816.816,0,1,0-1.633,0V6.939Z" transform="translate(0 0)" fill="#000000"/>
</svg>
