<svg xmlns="http://www.w3.org/2000/svg" width="20.881" height="18.017" viewBox="0 0 20.881 18.017">
  <g id="Group_131913" transform="translate(-102.33 -67.049)">
    <path id="Path_172544" data-name="Path 172544" d="M102.48,90.293a2.709,2.709,0,0,0,.815,1.956l10.1,10.1a2.766,2.766,0,0,0,1.956.815,2.71,2.71,0,0,0,1.956-.815l1.723-1.723a1.25,1.25,0,0,0,0-1.769L116.774,96.6a1.25,1.25,0,0,0-1.769,0L112.561,99l.419.419L115.4,97a.689.689,0,0,1,.955,0l2.258,2.258a.675.675,0,0,1,0,.931l-1.723,1.723a2.128,2.128,0,0,1-1.537.629,2.227,2.227,0,0,1-1.537-.629l-8.125-8.1,3.259-3.259a1.25,1.25,0,0,0,0-1.769l-2.165-2.165a1.237,1.237,0,0,0-1.769,0l-1.723,1.723a2.673,2.673,0,0,0-.815,1.956Zm2.933-3.259a.675.675,0,0,1,.931,0l2.165,2.165a.689.689,0,0,1,0,.955l-3.259,3.259-1.56-1.583a2.128,2.128,0,0,1-.629-1.537,2.227,2.227,0,0,1,.629-1.537Z" transform="translate(0 -18.252)" stroke="none" stroke-width="0.3"/>
    <path id="Path_172545" data-name="Path 172545" d="M327.011,73.205V67.5a.308.308,0,0,0-.3-.3H315.58a.308.308,0,0,0-.3.3v5.727a.308.308,0,0,0,.3.3h2.631v2.375a.286.286,0,0,0,.163.256.253.253,0,0,0,.116.023.264.264,0,0,0,.186-.07l3.143-2.584h4.889a.348.348,0,0,0,.3-.326Zm-.582-.279h-4.7a.264.264,0,0,0-.186.07l-2.747,2.258V73.205a.308.308,0,0,0-.3-.3h-2.607V70.435h7.473v-.582h-7.473V67.781h10.546Z" transform="translate(-203.951)" stroke="none" stroke-width="0.3"/>
  </g>
</svg>
