<svg id="noun_design_43765" width="20" height="20" viewBox="0 0 20 20" fill="none"
  xmlns="http://www.w3.org/2000/svg">
  <path d="M2.01843 7.26619C2.59408 5.05879 4.35286 3.37001 6.56143 2.90403L6.98345 2.81498C8.97395 2.39501 11.0287 2.39501 13.0192 2.81498L13.4412 2.90403C15.6497 3.37001 17.4085 5.05879 17.9842 7.26619C18.4515 9.05806 18.4515 10.9419 17.9842 12.7338C17.4085 14.9412 15.6497 16.63 13.4412 17.096L13.0192 17.185C11.0287 17.605 8.97395 17.605 6.98345 17.185L6.56143 17.096C4.35286 16.63 2.59408 14.9412 2.01843 12.7338C1.55115 10.9419 1.55115 9.05806 2.01843 7.26619Z" stroke="currentColor" stroke-width="1.5"/>
  <path d="M5 10H6.66667L8.33333 12.5L11.6667 7.5L13.3333 10H15" stroke="currentColor" stroke-width="1.5" stroke-linecap="round" stroke-linejoin="round"/>
</svg>
