<!-- <svg id="dashboard_icon" xmlns="http://www.w3.org/2000/svg" width="23.241" height="18.594" viewBox="0 0 23.241 18.594" fill="currentColor">
  <g id="noun_dashboard_3493466" transform="translate(-4 -8)" >
    <g id="icons" transform="translate(4 8)">
      <path id="Path_108778" data-name="Path 108778" d="M26.079,8H5.162A1.162,1.162,0,0,0,4,9.162V25.431a1.162,1.162,0,0,0,1.162,1.162H26.079a1.162,1.162,0,0,0,1.162-1.162V9.162A1.162,1.162,0,0,0,26.079,8Zm0,1.162v2.324H5.162V9.162ZM5.162,25.431V12.648H26.079V25.431ZM6.324,10.324a.581.581,0,1,1,.581.581A.581.581,0,0,1,6.324,10.324Zm5.229,4.648a4.067,4.067,0,1,0,4.067,4.067A4.067,4.067,0,0,0,11.553,14.972ZM14.4,18.459H12.135V16.193A2.914,2.914,0,0,1,14.4,18.459Zm-2.847,3.486a2.905,2.905,0,0,1-.581-5.752v3.428H14.4a2.91,2.91,0,0,1-2.847,2.324Zm6.391-2.324h1.162v3.486H17.945ZM20.269,17.3h1.162v5.81H20.269Zm2.324-2.324h1.162v8.135H22.593Z" transform="translate(-4 -8)" />
    </g>
  </g>
</svg> -->

<svg xmlns="http://www.w3.org/2000/svg" width="24.999" height="25" viewBox="0 0 24.999 25">
  <path id="dashboard_icon" data-name="Union 55" d="M971,8201.5a12.5,12.5,0,1,1,12.5,12.5A12.511,12.511,0,0,1,971,8201.5Zm1.738,0a10.763,10.763,0,1,0,10.763-10.763A10.794,10.794,0,0,0,972.737,8201.5Zm13.107,4.972v-7.263h2.1v7.263Zm-2.946,0v-4.314H985v4.314Zm-3,0v-5.693h2.259v5.693Zm-2.9,0v-3.57h2.1v3.57Zm11.787,0V8197h2.1v9.468Z" transform="translate(-971 -8189)" fill="currentColor"/>
</svg>