<svg xmlns="http://www.w3.org/2000/svg" width="23.241" height="18.594" viewBox="0 0 23.241 18.594" fill="#ffffff">
  <g id="noun_dashboard_3493466" transform="translate(-4 -8)" >
    <g id="icons" transform="translate(4 8)">
      <path id="Path_108778" data-name="Path 108778" d="M26.079,8H5.162A1.162,1.162,0,0,0,4,9.162V25.431a1.162,1.162,0,0,0,1.162,1.162H26.079a1.162,1.162,0,0,0,1.162-1.162V9.162A1.162,1.162,0,0,0,26.079,8Zm0,1.162v2.324H5.162V9.162ZM5.162,25.431V12.648H26.079V25.431ZM6.324,10.324a.581.581,0,1,1,.581.581A.581.581,0,0,1,6.324,10.324Zm5.229,4.648a4.067,4.067,0,1,0,4.067,4.067A4.067,4.067,0,0,0,11.553,14.972ZM14.4,18.459H12.135V16.193A2.914,2.914,0,0,1,14.4,18.459Zm-2.847,3.486a2.905,2.905,0,0,1-.581-5.752v3.428H14.4a2.91,2.91,0,0,1-2.847,2.324Zm6.391-2.324h1.162v3.486H17.945ZM20.269,17.3h1.162v5.81H20.269Zm2.324-2.324h1.162v8.135H22.593Z" transform="translate(-4 -8)" />
    </g>
  </g>
</svg>
