<svg xmlns="http://www.w3.org/2000/svg" xmlns:xlink="http://www.w3.org/1999/xlink" width="17" height="18" viewBox="0 0 17 18">
  <defs>
    <clipPath id="clip-path">
      <rect id="Rectangle_23048" data-name="Rectangle 23048" width="17" height="18" transform="translate(-0.027 0.43)" fill="#666" stroke="#707070" stroke-width="1"/>
    </clipPath>
  </defs>
  <g id="delete" transform="translate(0.027 -0.43)" clip-path="url(#clip-path)">
    <g id="delete_1_" data-name="delete (1)" transform="translate(1.703 0.233)">
      <path id="Path_109054" data-name="Path 109054" d="M15.514,10.507a.409.409,0,0,0-.409.409v7.736a.409.409,0,0,0,.819,0V10.916A.409.409,0,0,0,15.514,10.507Zm0,0" transform="translate(-6.001 -4.175)" fill="#666"/>
      <path id="Path_109055" data-name="Path 109055" d="M7.5,10.507a.409.409,0,0,0-.409.409v7.736a.409.409,0,0,0,.819,0V10.916A.409.409,0,0,0,7.5,10.507Zm0,0" transform="translate(-2.817 -4.175)" fill="#666"/>
      <path id="Path_109056" data-name="Path 109056" d="M1.162,5.2V15.287a2.258,2.258,0,0,0,.6,1.557,2.016,2.016,0,0,0,1.462.632h7.744a2.015,2.015,0,0,0,1.462-.632,2.258,2.258,0,0,0,.6-1.557V5.2a1.564,1.564,0,0,0-.4-3.075h-2.1V1.617A1.608,1.608,0,0,0,8.915,0H5.28A1.608,1.608,0,0,0,3.659,1.617v.512h-2.1a1.564,1.564,0,0,0-.4,3.075Zm9.807,11.456H3.225a1.3,1.3,0,0,1-1.244-1.371V5.239H12.214V15.287a1.3,1.3,0,0,1-1.244,1.371ZM4.478,1.617a.789.789,0,0,1,.8-.8H8.915a.789.789,0,0,1,.8.8v.512H4.478ZM1.563,2.947H12.631a.737.737,0,1,1,0,1.473H1.563a.737.737,0,1,1,0-1.473Zm0,0" transform="translate(0 0)" fill="#666"/>
      <path id="Path_109057" data-name="Path 109057" d="M11.507,10.507a.409.409,0,0,0-.409.409v7.736a.409.409,0,0,0,.819,0V10.916A.409.409,0,0,0,11.507,10.507Zm0,0" transform="translate(-4.409 -4.175)" fill="#666"/>
    </g>
  </g>
</svg>
