<svg xmlns="http://www.w3.org/2000/svg" width="20" height="20" viewBox="0 0 20 20">
  <g id="Group_40498" data-name="Group 40498" transform="translate(-959.93 -13177.768)">
    <g id="Group_40304" data-name="Group 40304" transform="translate(959.93 13177.768)">
      <circle id="Ellipse_1636" data-name="Ellipse 1636" cx="10" cy="10" r="10" transform="translate(0)" fill="#ff71a4"/>
    </g>
    <g id="noun_gem_754524" transform="translate(962.93 13182.768)">
      <g id="Group_40305" data-name="Group 40305" transform="translate(0 0)">
        <path id="Path_108835" data-name="Path 108835" d="M68.056,15.205l-2.94-3.332H63.683l.845,3.332Z" transform="translate(-54.764 -11.873)" fill="#fff"/>
        <path id="Path_108836" data-name="Path 108836" d="M37.8,15.205l-.842-3.321L37,11.873H33.583l.044.011-.842,3.321Z" transform="translate(-28.683 -11.873)" fill="#fff"/>
        <path id="Path_108837" data-name="Path 108837" d="M50.98,45.11l6.633-7.864H53.791Z" transform="translate(-44.042 -33.29)" fill="#fff"/>
        <path id="Path_108838" data-name="Path 108838" d="M6.476,37.246l6.308,7.932L9.948,37.246Z" transform="translate(-6.476 -33.29)" fill="#fff"/>
        <path id="Path_108839" data-name="Path 108839" d="M32.995,37.246l2.476,7.239,2.476-7.239Z" transform="translate(-28.861 -33.29)" fill="#fff"/>
        <path id="Path_108840" data-name="Path 108840" d="M11.244,15.205l.845-3.332h-1.43L8.028,15.205Z" transform="translate(-7.786 -11.873)" fill="#fff"/>
      </g>
    </g>
  </g>
</svg>
