<svg xmlns="http://www.w3.org/2000/svg" width="25.111" height="16.031" viewBox="0 0 25.111 16.031">
  <path id="Path_109061" data-name="Path 109061" d="M22.215,6.628A2.929,2.929,0,1,0,20.2,5.813L17.289,9.625A2.9,2.9,0,0,0,14.17,10L11.718,8.1a2.891,2.891,0,0,0,.326-1.335A2.921,2.921,0,1,0,6.594,8.219L4.057,11.2a2.934,2.934,0,1,0,.989.675L7.395,9.114a2.908,2.908,0,0,0,3.575-.088l2.457,1.907a2.893,2.893,0,0,0-.32,1.322,2.921,2.921,0,1,0,5.128-1.907l2.976-3.9A2.89,2.89,0,0,0,22.215,6.628Zm-19.269,9a1.73,1.73,0,1,1,1.73-1.73A1.732,1.732,0,0,1,2.946,15.626ZM7.393,6.765a1.731,1.731,0,1,1,1.73,1.73A1.732,1.732,0,0,1,7.393,6.765Zm8.634,7.222a1.731,1.731,0,1,1,1.73-1.731A1.733,1.733,0,0,1,16.027,13.987ZM22.215,1.976a1.731,1.731,0,1,1-1.731,1.731A1.732,1.732,0,0,1,22.215,1.976Z" transform="translate(-0.025 -0.786)" fill="#242a37"/>
</svg>
