<svg xmlns="http://www.w3.org/2000/svg" width="21.854" height="21.854" viewBox="0 0 21.854 21.854" fill="#ffffff">
  <g id="explore" transform="translate(-2.5 -2.5)">
    <path id="Path_108785" data-name="Path 108785" d="M13.427,2.5A10.927,10.927,0,1,0,24.354,13.427,10.937,10.937,0,0,0,13.427,2.5Zm0,20.335a9.409,9.409,0,1,1,9.409-9.409A9.435,9.435,0,0,1,13.427,22.835Z" />
    <path id="Path_108786" data-name="Path 108786" d="M34.25,25.452l-5.5,2.185A1.823,1.823,0,0,0,27.74,28.65l-2.185,5.5a1.776,1.776,0,0,0,.414,1.955,1.8,1.8,0,0,0,1.265.529,1.846,1.846,0,0,0,.69-.138l5.5-2.185A1.823,1.823,0,0,0,34.434,33.3l2.185-5.5a1.776,1.776,0,0,0-.414-1.955A1.81,1.81,0,0,0,34.25,25.452Zm.943,1.794-2.185,5.5a.278.278,0,0,1-.161.161l-5.5,2.185a.3.3,0,0,1-.391-.391l2.185-5.5a.278.278,0,0,1,.161-.161l5.5-2.185h0a.207.207,0,0,1,.115-.023.292.292,0,0,1,.207.092A.306.306,0,0,1,35.193,27.246Z" transform="translate(-17.649 -17.569)" />
    <circle id="Ellipse_1631" data-name="Ellipse 1631" cx="1.288" cy="1.288" r="1.288" transform="translate(12.139 12.139)" />
  </g>
</svg>
