<svg xmlns="http://www.w3.org/2000/svg" width="15.867" height="15.865" viewBox="0 0 15.867 15.865">
  <g id="faq_icon" transform="translate(9519.227 194.003)">
    <g id="Group_130887" data-name="Group 130887">
      <g id="Path_171168" data-name="Path 171168">
        <path id="Path_171301" data-name="Path 171301" d="M-9512.75-193.969c.318.052.639.089.952.16a6.035,6.035,0,0,1,4.586,4.973c.024.167.042.336.052.505a.152.152,0,0,0,.126.157,5,5,0,0,1,3.441,3.576,4.906,4.906,0,0,1-.465,3.765.331.331,0,0,0-.03.273c.208.745.413,1.491.62,2.237.006.023.011.047.022.1l-.987-.273c-.454-.126-.908-.255-1.364-.375a.348.348,0,0,0-.227.026,5.1,5.1,0,0,1-6.939-1.964,5.045,5.045,0,0,1-.425-.995.16.16,0,0,0-.166-.135,6.014,6.014,0,0,1-2.6-.776.306.306,0,0,0-.2-.006c-.9.244-1.8.494-2.7.742l-.109.027c.1-.373.2-.725.3-1.077.159-.578.323-1.155.477-1.734a.34.34,0,0,0-.028-.226,6.066,6.066,0,0,1-.742-2.407c-.008-.045-.017-.089-.027-.132v-.832c.052-.312.077-.631.157-.936a5.936,5.936,0,0,1,4.542-4.516c.3-.076.6-.1.9-.153Zm-5.086,10.688c.05-.012.078-.018.1-.026.489-.135.979-.266,1.467-.407a.377.377,0,0,1,.343.05,4.978,4.978,0,0,0,3.771.709,5.091,5.091,0,0,0,4-5.914,5.1,5.1,0,0,0-5.941-4.088,5.083,5.083,0,0,0-.6.147,5.087,5.087,0,0,0-3.332,6.374,5.218,5.218,0,0,0,.446,1.018.928.928,0,0,1,.1.852c-.14.414-.236.843-.358,1.285Zm13.069,3.731c-.1-.372-.189-.724-.3-1.068a.479.479,0,0,1,.065-.439,4.169,4.169,0,0,0-1.272-5.759,4.009,4.009,0,0,0-.456-.252c-.144-.069-.3-.123-.429-.178a6.141,6.141,0,0,1-5.3,5.305.049.049,0,0,0,0,.017c.011.034.021.068.034.1a4.058,4.058,0,0,0,1.109,1.621,4.149,4.149,0,0,0,5.059.4.431.431,0,0,1,.4-.055c.356.112.71.2,1.089.309Z"/>
        <path id="Path_171302" data-name="Path 171302" d="M-9508.5-178.148a5.155,5.155,0,0,1-4.5-2.637,5.168,5.168,0,0,1-.429-1,.113.113,0,0,0-.115-.1,6.109,6.109,0,0,1-2.627-.782.256.256,0,0,0-.16,0q-1.024.277-2.04.56l-.855.23.022-.082c.1-.373.2-.725.3-1.078.051-.186.1-.371.154-.557.108-.392.218-.784.322-1.176a.288.288,0,0,0-.025-.191,6.051,6.051,0,0,1-.748-2.425.9.9,0,0,0-.025-.124v-.844c.018-.109.032-.211.046-.313a5.821,5.821,0,0,1,.114-.635,6,6,0,0,1,4.578-4.552,5.214,5.214,0,0,1,.581-.1c.108-.015.215-.03.322-.049h.848l.294.046c.218.032.443.066.661.115a6.059,6.059,0,0,1,4.626,5.014c.024.169.041.339.051.509a.1.1,0,0,0,.085.112,5.076,5.076,0,0,1,3.479,3.613,4.993,4.993,0,0,1-.47,3.8.288.288,0,0,0-.028.233q.218.774.431,1.545l.192.694.014.057.028.127-1.374-.381c-.346-.1-.7-.2-1.058-.289a.281.281,0,0,0-.191.022,5.12,5.12,0,0,1-2.5.638Zm-5.036-3.841a.206.206,0,0,1,.2.178,5.144,5.144,0,0,0,.42.977,5.054,5.054,0,0,0,6.871,1.946.39.39,0,0,1,.261-.032c.357.093.715.193,1.063.29l1.213.337v-.017l-.192-.694q-.214-.771-.429-1.542a.382.382,0,0,1,.035-.313,4.885,4.885,0,0,0,.46-3.725,4.976,4.976,0,0,0-3.405-3.542.2.2,0,0,1-.162-.208c-.011-.162-.028-.33-.052-.5a5.953,5.953,0,0,0-4.547-4.931c-.216-.049-.439-.082-.654-.115-.1-.014-.2-.028-.292-.045l-.831.005c-.1.018-.208.034-.317.049a5.562,5.562,0,0,0-.57.1,5.9,5.9,0,0,0-4.506,4.478,4.861,4.861,0,0,0-.111.626c-.015.1-.029.206-.046.308v.816c.011.043.02.087.026.131a5.948,5.948,0,0,0,.736,2.39.4.4,0,0,1,.034.261c-.105.4-.214.788-.322,1.18l-.155.557c-.093.326-.185.653-.277,1l.026-.006.662-.183q1.02-.282,2.037-.559a.34.34,0,0,1,.23.008,6.051,6.051,0,0,0,2.586.773Zm5.013,2.911a4.192,4.192,0,0,1-2.821-1.088,4.113,4.113,0,0,1-1.123-1.641c-.014-.033-.025-.067-.036-.1a.092.092,0,0,1,0-.046l.009-.031h.033a6.1,6.1,0,0,0,5.257-5.262l.008-.065.062.026.148.06c.093.036.189.074.282.119a4.207,4.207,0,0,1,.46.255,4.227,4.227,0,0,1,1.286,5.827.426.426,0,0,0-.06.4c.092.279.165.56.244.857l.064.24-.038.046-.3-.084c-.281-.077-.546-.15-.816-.234a.379.379,0,0,0-.355.047,4.188,4.188,0,0,1-2.312.673Zm-3.873-2.821c.008.018.015.038.021.058a4,4,0,0,0,1.1,1.6,4.1,4.1,0,0,0,5,.4.485.485,0,0,1,.444-.06c.266.084.53.156.81.232l.192.053-.035-.133c-.079-.295-.153-.574-.242-.85a.513.513,0,0,1,.071-.484,4.126,4.126,0,0,0-1.256-5.687,4.351,4.351,0,0,0-.451-.25c-.09-.043-.185-.079-.276-.115l-.091-.036a6.2,6.2,0,0,1-5.291,5.271Zm-.778-.9a5.061,5.061,0,0,1-2.772-.824.33.33,0,0,0-.3-.045l-1.077.3-.393.108-.092.023h-.01l-.1.048.03-.108c.038-.138.073-.275.108-.409.079-.3.154-.593.251-.879a.886.886,0,0,0-.094-.808,5.17,5.17,0,0,1-.454-1.031,5.144,5.144,0,0,1,3.366-6.437,5.275,5.275,0,0,1,.6-.149,5.157,5.157,0,0,1,6,4.128,5.165,5.165,0,0,1-4.033,5.973,4.982,4.982,0,0,1-1.037.109Zm-2.965-.986a.435.435,0,0,1,.249.079,4.967,4.967,0,0,0,3.733.7,5.066,5.066,0,0,0,3.955-5.856,5.052,5.052,0,0,0-5.884-4.048,4.82,4.82,0,0,0-.589.146,5.041,5.041,0,0,0-3.3,6.311,5.062,5.062,0,0,0,.441,1.008.984.984,0,0,1,.1.9c-.1.281-.17.567-.248.87-.029.109-.058.218-.087.329l.021-.006.395-.108,1.071-.3a.432.432,0,0,1,.142-.019Z"/>
      </g>
      <g id="Path_171169" data-name="Path 171169">
        <path id="Path_171303" data-name="Path 171303" d="M-9512.71-186.554h-.923v-1.078c0-.045.054-.094.094-.131.335-.311.676-.614,1.006-.93a.9.9,0,0,0,.2-1.035.928.928,0,0,0-.89-.545.924.924,0,0,0-.864.781,1.158,1.158,0,0,1-.02.142h-.915a1.8,1.8,0,0,1,.566-1.331,1.841,1.841,0,0,1,2.6.044h0a1.846,1.846,0,0,1-.04,2.612l-.017.014c-.232.224-.479.434-.711.659a.358.358,0,0,0-.092.208C-9512.71-186.948-9512.71-186.754-9512.71-186.554Z"/>
        <path id="Path_171304" data-name="Path 171304" d="M-9512.66-186.505h-1.022v-1.127c0-.066.06-.122.107-.166.127-.119.254-.234.38-.349.207-.189.422-.385.627-.582a.858.858,0,0,0,.188-.978.867.867,0,0,0-.84-.516.88.88,0,0,0-.817.739,1.033,1.033,0,0,1-.019.136l-.006.043h-1.009v-.049a1.855,1.855,0,0,1,.584-1.368,1.89,1.89,0,0,1,2.67.045,1.881,1.881,0,0,1,.536,1.351,1.885,1.885,0,0,1-.578,1.333l-.014.013c-.115.111-.231.217-.349.323s-.244.222-.363.337a.3.3,0,0,0-.078.176v.585Zm-.923-.1h.823v-.541a.4.4,0,0,1,.106-.24c.121-.118.244-.229.367-.341s.233-.211.346-.32l.017-.015a1.792,1.792,0,0,0,.545-1.261,1.794,1.794,0,0,0-.507-1.279,1.79,1.79,0,0,0-2.528-.044,1.753,1.753,0,0,0-.555,1.245h.823c.006-.04.01-.069.014-.1a.981.981,0,0,1,.91-.825h.047a.975.975,0,0,1,.891.575.96.96,0,0,1-.212,1.092c-.206.2-.421.394-.629.584l-.377.346c-.025.023-.078.073-.078.1Z"/>
      </g>
      <g id="Path_171170" data-name="Path 171170">
        <path id="Path_171305" data-name="Path 171305" d="M-9512.71-184.706h-.905v-.91h.905Z"/>
        <path id="Path_171306" data-name="Path 171306" d="M-9512.67-184.656h-1v-1.01h1Zm-.905-.1h.806v-.811h-.806Z"/>
      </g>
    </g>
  </g>
</svg>
