<svg width="28" height="28" viewBox="0 0 28 28" fill="none" xmlns="http://www.w3.org/2000/svg">
<path d="M15.1428 7.14279C15.1428 7.44589 15.0224 7.73658 14.8081 7.95091C14.5937 8.16524 14.303 8.28564 13.9999 8.28564C13.6968 8.28564 13.4061 8.16524 13.1918 7.95091C12.9775 7.73658 12.8571 7.44589 12.8571 7.14279C12.8571 6.83968 12.9775 6.54899 13.1918 6.33467C13.4061 6.12034 13.6968 5.99993 13.9999 5.99993C14.303 5.99993 14.5937 6.12034 14.8081 6.33467C15.0224 6.54899 15.1428 6.83968 15.1428 7.14279ZM13.1428 11.4285V19.9999C13.1428 20.2273 13.2331 20.4453 13.3938 20.606C13.5546 20.7668 13.7726 20.8571 13.9999 20.8571C14.2273 20.8571 14.4453 20.7668 14.606 20.606C14.7668 20.4453 14.8571 20.2273 14.8571 19.9999V11.4285C14.8571 11.2012 14.7668 10.9832 14.606 10.8224C14.4453 10.6617 14.2273 10.5714 13.9999 10.5714C13.7726 10.5714 13.5546 10.6617 13.3938 10.8224C13.2331 10.9832 13.1428 11.2012 13.1428 11.4285ZM0.285645 13.9999C0.285645 6.42622 6.42622 0.285645 13.9999 0.285645C21.5736 0.285645 27.7142 6.42622 27.7142 13.9999C27.7142 21.5736 21.5736 27.7142 13.9999 27.7142C6.42622 27.7142 0.285645 21.5736 0.285645 13.9999ZM13.9999 1.99993C7.3725 1.99993 1.99993 7.3725 1.99993 13.9999C1.99993 20.6274 7.3725 25.9999 13.9999 25.9999C20.6274 25.9999 25.9999 20.6274 25.9999 13.9999C25.9999 7.3725 20.6274 1.99993 13.9999 1.99993Z" fill="url(#paint0_linear_896_73673)"/>
<defs>
<linearGradient id="paint0_linear_896_73673" x1="13.9999" y1="0.285645" x2="13.9999" y2="27.7142" gradientUnits="userSpaceOnUse">
<stop stop-color="#D33AFF"/>
<stop offset="1" stop-color="#FF71A4"/>
</linearGradient>
</defs>
</svg>
