<svg xmlns="http://www.w3.org/2000/svg" width="74.713" height="99.617" viewBox="0 0 74.713 99.617">
  <g id="no_billing" data-name="no billing" transform="translate(-3765 19637.172)">
    <g id="invoice-2" transform="translate(3765 -19637.172)">
      <g id="Group_50090" data-name="Group 50090" transform="translate(0)">
        <g id="Group_50089" data-name="Group 50089">
          <path id="Path_109075" data-name="Path 109075" d="M113.809,31.13a6.236,6.236,0,0,1-6.226-6.226V0H70.226A6.236,6.236,0,0,0,64,6.226V93.391a6.232,6.232,0,0,0,6.226,6.226h62.261a6.228,6.228,0,0,0,6.226-6.226V31.13ZM85.791,19.064v-3.5a3.113,3.113,0,0,1,6.226,0V19.07a12.8,12.8,0,0,1,5.267,2.484,3.111,3.111,0,0,1-3.929,4.825A7.066,7.066,0,0,0,88.9,24.9c-3.375,0-6.226,2.136-6.226,4.67s2.852,4.67,6.226,4.67c6.867,0,12.452,4.887,12.452,10.9,0,5.062-3.985,9.289-9.339,10.51v3.5a3.113,3.113,0,0,1-6.226,0V55.642a12.8,12.8,0,0,1-5.267-2.484,3.114,3.114,0,0,1,3.929-4.831A7.034,7.034,0,0,0,88.9,49.809c3.375,0,6.226-2.136,6.226-4.67s-2.852-4.67-6.226-4.67c-6.867,0-12.452-4.887-12.452-10.9C76.452,24.512,80.437,20.285,85.791,19.064Zm37.356,68.1H79.565a3.113,3.113,0,0,1,0-6.226h43.583a3.113,3.113,0,0,1,0,6.226Zm0-12.452H79.565a3.113,3.113,0,0,1,0-6.226h43.583a3.113,3.113,0,0,1,0,6.226Zm0-12.452H110.7a3.113,3.113,0,0,1,0-6.226h12.452a3.113,3.113,0,0,1,0,6.226Zm0-12.452H110.7a3.113,3.113,0,0,1,0-6.226h12.452a3.113,3.113,0,0,1,0,6.226Z" transform="translate(-64)" fill="#ff71a4"/>
        </g>
      </g>
    </g>
    <g id="Group_50091" data-name="Group 50091" transform="translate(3814.809 -19637.172)">
      <g id="Group_50087" data-name="Group 50087">
        <path id="Path_109074" data-name="Path 109074" d="M320,0V24.9h24.9Z" transform="translate(-320)" fill="#ff71a4"/>
      </g>
    </g>
  </g>
</svg>
