<!-- <svg id="posting_icon"
  xmlns="http://www.w3.org/2000/svg" width="24" height="23" viewBox="0 0 24 23" fill="currentColor">
  <g id="posting" transform="translate(-1170 6016)">
    <g id="Rectangle_22823" data-name="Rectangle 22823" transform="translate(1170 -6016)" fill="none" stroke="currentColor" stroke-width="1.5">
      <rect width="24" height="23" rx="4" stroke="none"/>
      <rect x="0.75" y="0.75" width="22.5" height="21.5" rx="3.25" fill="none"/>
    </g>
    <g id="Group_39996" data-name="Group 39996" transform="translate(1.5 -0.5)">
      <line id="Line_130" data-name="Line 130" y2="12.269" transform="translate(1180.634 -6010.5)" fill="none" stroke="currentColor" stroke-width="1"/>
      <line id="Line_131" data-name="Line 131" x2="12.269" transform="translate(1174.5 -6004.366)" fill="none" stroke="currentColor" stroke-width="1.5"/>
    </g>
  </g>
</svg> -->


<svg xmlns="http://www.w3.org/2000/svg" width="24.999" height="25" viewBox="0 0 24.999 25">
  <g id="posting_icon" data-name="Group 55829" transform="translate(-2.5 -2.904)">
    <path id="Union_49" data-name="Union 49" d="M0,12.5A12.5,12.5,0,1,1,12.5,25,12.511,12.511,0,0,1,0,12.5Zm1.737,0A10.763,10.763,0,1,0,12.5,1.738,10.793,10.793,0,0,0,1.738,12.5Zm10.276,4.411V13.905H9.007a.945.945,0,1,1,0-1.891h3.007V9.007a.945.945,0,1,1,1.891,0v3.007h3.007a.945.945,0,0,1,0,1.891H13.905v3.007a.945.945,0,0,1-1.891,0Z" transform="translate(2.499 2.903)" fill="currentColor"/>
  </g>
</svg>
