<svg id='process_icon' width="76" height="76" viewBox="0 0 76 76" fill="none" xmlns="http://www.w3.org/2000/svg">
<rect width="76" height="76" rx="38" fill="#EA3428"/>
<rect x="4" y="4" width="68" height="68" rx="34" fill="#FFE0DE"/>
<path fill-rule="evenodd" clip-rule="evenodd" d="M32.7588 38C32.7588 35.2386 34.9974 33 37.7588 33C40.5202 33 42.7588 35.2386 42.7588 38C42.7588 40.7614 40.5202 43 37.7588 43C36.7264 43 35.767 42.6871 34.9704 42.1509L19.4142 57.7071L18 56.2929L33.5667 40.7262C33.0557 39.9421 32.7588 39.0057 32.7588 38ZM42.7588 38V39H59.7588V37H42.7588V38ZM34.7588 38C34.7588 36.3431 36.1019 35 37.7588 35C39.4157 35 40.7588 36.3431 40.7588 38C40.7588 39.6569 39.4157 41 37.7588 41C36.1019 41 34.7588 39.6569 34.7588 38Z" fill="#EA3428"/>
<path d="M38.7578 41L37.7578 7L36.7578 41.5L37.7578 54L38.7578 41Z" fill="#FFC2BE"/>
</svg>
