<svg xmlns="http://www.w3.org/2000/svg" width="15.753" height="13.306" viewBox="0 0 15.753 13.306">
  <g id="noun_reload_3647887" transform="translate(-4.91 -12)" opacity="0.5">
    <path id="Path_108956" data-name="Path 108956" d="M15.974,36.935a5.705,5.705,0,0,1-3.218,1A5.766,5.766,0,0,1,7.58,29.64l.576,1.385a.438.438,0,0,0,.809-.336l-.73-1.751a.826.826,0,0,0-1-.539l-1.983.464a.438.438,0,1,0,.2.853l1.269-.3a6.626,6.626,0,0,0,9.751,8.244.438.438,0,0,0-.492-.725Z" transform="translate(0 -13.504)" fill="#c8cfe0"/>
    <path id="Path_108957" data-name="Path 108957" d="M38.132,21.453a.438.438,0,0,0-.525-.326l-1.353.326A6.652,6.652,0,0,0,30.237,12a6.542,6.542,0,0,0-3.962,1.323.438.438,0,0,0,.525.7,5.681,5.681,0,0,1,3.436-1.148,5.777,5.777,0,0,1,5.2,8.249l-.541-1.3a.438.438,0,1,0-.809.336l.73,1.751a.805.805,0,0,0,.193.31.432.432,0,0,0,.4.285.448.448,0,0,0,.137-.025H35.6a.875.875,0,0,0,.221-.03l1.989-.471a.436.436,0,0,0,.32-.525Z" transform="translate(-17.48 0)" fill="#c8cfe0"/>
  </g>
</svg>
