<svg xmlns="http://www.w3.org/2000/svg" width="20.594" height="17.843" viewBox="0 0 20.594 17.843">
  <g id="report_problem" data-name="Report a problem" transform="translate(-17936.371 14134.205)">
    <path id="Path_172244" data-name="Path 172244" d="M226.605,142.967h7.1a.365.365,0,1,0,0-.73h-7.1a.376.376,0,0,0-.365.365A.362.362,0,0,0,226.605,142.967Z" transform="translate(17715.682 -14272.801)" stroke="#000" stroke-width="0.2"/>
    <path id="Path_172245" data-name="Path 172245" d="M226.605,228.651h7.1a.365.365,0,1,0,0-.73h-7.1a.376.376,0,0,0-.365.365A.362.362,0,0,0,226.605,228.651Z" transform="translate(17715.682 -14355.2)" stroke="#000" stroke-width="0.2"/>
    <path id="Path_172246" data-name="Path 172246" d="M226.6,314.331h6.138a.376.376,0,0,0,.365-.365.381.381,0,0,0-.386-.365H226.6a.376.376,0,0,0-.365.365.362.362,0,0,0,.365.365Z" transform="translate(17715.684 -14437.597)" stroke="#000" stroke-width="0.2"/>
    <path id="Path_172247" data-name="Path 172247" d="M230.061,398.72h-3.456a.365.365,0,1,0,0,.73h3.456a.365.365,0,1,0,0-.73Z" transform="translate(17715.682 -14519.453)" stroke="#000" stroke-width="0.2"/>
    <path id="Path_172248" data-name="Path 172248" d="M104.156,57.458l-.966-.966a.8.8,0,0,0-1.116,0L99.8,58.746V50.2a.349.349,0,0,0-.365-.365H84.367A.349.349,0,0,0,84,50.2V67.116a.362.362,0,0,0,.365.365H99.434a.362.362,0,0,0,.365-.365V62.931l4.357-4.357a.766.766,0,0,0,0-1.116Zm-7.941,5.9,1.073,1.052-.021.021-1.438.365Zm1.588.558-1.052-1.052,4.743-4.786,1.052,1.052Zm1.266,2.833H84.732V50.568H99.069v8.907l-3.37,3.37a.841.841,0,0,0-.215.343L95.1,64.605a.765.765,0,0,0,.193.73.7.7,0,0,0,.515.215A.6.6,0,0,0,96,65.528l1.417-.386a.722.722,0,0,0,.343-.215l1.288-1.288v3.112Zm4.572-8.692-.58.58-1.052-1.052.58-.58c.021-.021.021-.021.043-.021s.043,0,.043.021l.966.966a.065.065,0,0,1,0,.086Z" transform="translate(17852.469 -14183.943)" stroke="#000" stroke-width="0.2"/>
    <path id="Path_172249" data-name="Path 172249" d="M140.059,120.4a1.18,1.18,0,1,0,1.18,1.18A1.177,1.177,0,0,0,140.059,120.4Zm0,1.653a.454.454,0,0,1-.451-.451.451.451,0,1,1,.9,0A.453.453,0,0,1,140.059,122.053Z" transform="translate(17799.695 -14251.801)" stroke="#000" stroke-width="0.2"/>
    <path id="Path_172250" data-name="Path 172250" d="M140.059,206.08a1.18,1.18,0,1,0,1.18,1.18A1.164,1.164,0,0,0,140.059,206.08Zm0,1.653a.454.454,0,0,1-.451-.451.451.451,0,1,1,.9,0A.453.453,0,0,1,140.059,207.733Z" transform="translate(17799.695 -14334.196)" stroke="#000" stroke-width="0.2"/>
    <path id="Path_172251" data-name="Path 172251" d="M140.059,291.76a1.18,1.18,0,1,0,1.18,1.18A1.177,1.177,0,0,0,140.059,291.76Zm0,1.652a.453.453,0,0,1-.451-.451.451.451,0,1,1,.9,0A.453.453,0,0,1,140.059,293.413Z" transform="translate(17799.695 -14416.593)" stroke="#000" stroke-width="0.2"/>
    <path id="Path_172252" data-name="Path 172252" d="M140.059,377.44a1.18,1.18,0,1,0,1.18,1.18A1.164,1.164,0,0,0,140.059,377.44Zm0,1.653a.451.451,0,0,1,0-.9.468.468,0,0,1,.451.451A.44.44,0,0,1,140.059,379.093Z" transform="translate(17799.695 -14498.988)" stroke="#000" stroke-width="0.2"/>
  </g>
</svg>