<svg xmlns="http://www.w3.org/2000/svg" width="102" height="102" viewBox="0 0 102 102"><defs><style>.a{fill:rgba(255,255,255,0.2);stroke-width:2px;}.a,.b{stroke:#c4c4c4;}.b{fill:#c4c4c4;}</style></defs><g transform="translate(-109 -241.784)"><rect class="a" width="100" height="100" rx="50" transform="translate(110 242.784)"/><g transform="translate(144.12 275.189)"><path class="b" d="M68.815,0A8.754,8.754,0,0,1,77.63,8.815,8.815,8.815,0,1,1,68.815,0Zm0,2.825a5.933,5.933,0,0,0-5.877,5.99,5.933,5.933,0,0,0,5.877,5.99,5.99,5.99,0,1,0,0-11.979Z" transform="translate(-53.219)"/><path class="b" d="M31.3,181.708c0,1.808-2.938,1.808-2.938,0a12.755,12.755,0,0,0-25.427-1.469H24.523a1.413,1.413,0,1,1,0,2.825H1.469A1.4,1.4,0,0,1,0,181.708a15.652,15.652,0,1,1,31.3,0Z" transform="translate(0 -147.24)"/></g></g></svg>