<svg id="wallet"
  xmlns="http://www.w3.org/2000/svg" width="19.236" height="22.168" viewBox="0 0 19.236 22.168" fill="currentColor">
  <g id="Group_25888" data-name="Group 25888">
    <g id="Group_25887" data-name="Group 25887">
      <path id="Path_8142" data-name="Path 8142" d="M38.51,182.457l-6.771-3.665a1.428,1.428,0,0,0-1.872.562l-3.956,7.356H21.1a1.085,1.085,0,0,0-1.1,1.07v11.93a1.085,1.085,0,0,0,1.07,1.1h15.41a1.085,1.085,0,0,0,1.1-1.07v-2.813h.455a.422.422,0,0,0,.428-.416v-3.2a.422.422,0,0,0-.416-.428h-.467v-3.129a1.117,1.117,0,0,0-.856-1.07l2.354-4.36A1.4,1.4,0,0,0,38.51,182.457Zm-4.815-1.632-4.226,7.837h-1.2l4.517-8.323Zm-3.049-1.07a.527.527,0,0,1,.693-.216l.669.374L27.3,188.66H25.831Zm-9.817,8.025a.258.258,0,0,1,.241-.214h4.36l-.591,1.073H21.07a.753.753,0,0,0-.241.027Zm15.862,11.929a.239.239,0,0,1-.239.241H21.07a.239.239,0,0,1-.241-.239v-9.952a.239.239,0,0,1,.239-.241H36.423a.239.239,0,0,1,.241.239v3.132H35.032a1.284,1.284,0,0,0-1.284,1.284h0v1.466a1.284,1.284,0,0,0,1.284,1.284H36.69Zm.856-5.965h.027v2.327H35.032a.422.422,0,0,1-.427-.417v-1.482a.422.422,0,0,1,.416-.428h2.526ZM38.3,183.9l-2.568,4.761h-5.3l4.012-7.409,3.638,1.979a.468.468,0,0,1,.246.615C38.316,183.865,38.306,183.883,38.3,183.9Z" transform="translate(-19.997 -178.642)" />
    </g>
  </g>
  <g id="Group_25890" data-name="Group 25890" transform="translate(14.5 4.62)">
    <g id="Group_25889" data-name="Group 25889">
      <path id="Path_8143" data-name="Path 8143" d="M36.664,183.5l-.214-.107a1.171,1.171,0,0,0-1.551.455l-.267.508a1.128,1.128,0,0,0-.08.883,1.079,1.079,0,0,0,.562.669l.214.107a1.217,1.217,0,0,0,.535.134,1.2,1.2,0,0,0,1.016-.588l.267-.508A1.2,1.2,0,0,0,36.664,183.5Zm-.294,1.15-.267.508a.3.3,0,0,1-.4.107l-.214-.134a.393.393,0,0,1-.134-.16.2.2,0,0,1,.027-.214l.267-.508a.353.353,0,0,1,.267-.16.24.24,0,0,1,.134.027l.214.107a.415.415,0,0,1,.106.429Z" transform="translate(-34.497 -183.262)" />
    </g>
  </g>
</svg>
