<svg width="17" height="18" viewBox="0 0 17 18" fill="none" xmlns="http://www.w3.org/2000/svg">
<g id="Frame 48101889">
<g id="instagram-seeklogo.com">
<path id="Path 171442" d="M8.59236 3.16992C6.98071 3.16992 6.77884 3.1765 6.148 3.20503C5.65717 3.21462 5.17141 3.30621 4.71079 3.47602C4.31668 3.62176 3.95886 3.85121 3.66195 4.14854C3.36154 4.4389 3.12858 4.79171 2.97955 5.18202C2.80699 5.63446 2.71347 6.11318 2.70308 6.59729C2.67455 7.22045 2.66797 7.41903 2.66797 9.00216C2.66797 10.5853 2.67455 10.785 2.70308 11.407C2.71287 11.8918 2.80602 12.3713 2.97845 12.8245C3.12749 13.2148 3.36044 13.5676 3.66085 13.858C3.95776 14.1553 4.31559 14.3847 4.70969 14.5305C5.17031 14.7003 5.65608 14.7919 6.1469 14.8015C6.77884 14.83 6.97961 14.8366 8.58797 14.8366C10.1963 14.8366 10.3982 14.83 11.029 14.8015C11.5199 14.7919 12.0056 14.7003 12.4663 14.5305C12.8604 14.3847 13.2182 14.1553 13.5151 13.858C13.8159 13.5677 14.0492 13.2149 14.1986 12.8245C14.3709 12.3716 14.4641 11.8925 14.474 11.4081C14.5025 10.7861 14.5091 10.5875 14.5091 9.00326C14.5091 7.41903 14.5025 7.22045 14.474 6.59839C14.4641 6.11397 14.3709 5.63486 14.1986 5.18202C14.0496 4.79171 13.8166 4.4389 13.5162 4.14854C13.2193 3.85121 12.8615 3.62176 12.4674 3.47602C12.0067 3.30621 11.521 3.21462 11.0301 3.20503C10.3982 3.1765 10.1974 3.16992 8.59236 3.16992ZM8.59236 10.9473C8.20927 10.9413 7.83651 10.8222 7.5209 10.6049C7.20529 10.3877 6.9609 10.0821 6.81842 9.72644C6.67594 9.37078 6.64174 8.98095 6.72009 8.60591C6.79845 8.23087 6.98588 7.88734 7.25884 7.61848C7.5318 7.34961 7.87811 7.1674 8.25429 7.09472C8.63047 7.02204 9.01974 7.06213 9.37321 7.20997C9.72668 7.3578 10.0286 7.60679 10.241 7.92564C10.4534 8.2445 10.5669 8.61902 10.5672 9.00216C10.5653 9.25957 10.5127 9.51409 10.4125 9.75118C10.3122 9.98827 10.1662 10.2033 9.98279 10.3839C9.7994 10.5646 9.58221 10.7073 9.34364 10.804C9.10506 10.9006 8.84977 10.9494 8.59236 10.9473ZM12.4641 5.88966C12.4662 6.03071 12.4264 6.16923 12.3496 6.28757C12.2728 6.40592 12.1626 6.49874 12.0329 6.55424C11.9032 6.60973 11.7599 6.62539 11.6213 6.59921C11.4827 6.57303 11.355 6.5062 11.2544 6.40722C11.1539 6.30825 11.0851 6.18161 11.0568 6.04341C11.0284 5.90521 11.0419 5.76171 11.0953 5.63116C11.1488 5.50062 11.2399 5.38893 11.357 5.31032C11.4742 5.2317 11.6121 5.18972 11.7531 5.1897C11.9395 5.18941 12.1184 5.26285 12.2507 5.39399C12.3831 5.52513 12.4582 5.70332 12.4597 5.88966H12.4641Z" fill="url(#paint0_linear_417_5847)"/>
</g>
</g>
<defs>
<linearGradient id="paint0_linear_417_5847" x1="2.66797" y1="3.16992" x2="15.7305" y2="4.7521" gradientUnits="userSpaceOnUse">
<stop stop-color="#FF71A4"/>
<stop offset="1" stop-color="#D33BFE"/>
</linearGradient>
</defs>
</svg>
