<svg width="160" height="71" viewBox="0 0 160 71" fill="none" xmlns="http://www.w3.org/2000/svg">
<g id="Group">
<g id="Group_2">
<g id="Group_3">
<g id="Group_4">
<g id="Group_5">
<path id="Vector" d="M17.403 54.0364C12.8884 54.0364 9.81573 52.5026 8.18718 49.4328C5.24335 51.8771 3.14379 53.0993 1.88627 53.0993C1.2864 53.0993 0.822051 52.8142 0.493231 52.2462C0.16441 51.6782 0 51.0373 0 50.3279C0 48.6218 0.65764 46.6327 1.9707 44.3586C2.54169 43.3641 3.17045 42.4557 3.85697 41.6292C4.54349 40.8048 5.31445 40.3938 6.17205 40.3938C7.00076 40.3938 7.62952 41.0767 8.05832 42.4403L9.34472 46.5333C9.8024 46.0493 10.309 45.4614 10.8666 44.763C11.4243 44.0669 12.0464 43.2491 12.7307 42.3121L16.5454 37.1958C21.2311 31.1425 24.3038 27.8319 25.7613 27.2617C26.2745 27.0628 26.79 26.9633 27.3032 26.9633C27.8742 26.9633 28.3385 27.0849 28.6962 27.3258C29.0539 27.5667 29.2317 27.8452 29.2317 28.1568C29.2317 28.6673 28.8162 28.9678 27.9897 29.0518C27.1321 29.5358 25.4614 30.9701 22.9752 33.357C21.831 34.4664 20.9112 35.3814 20.2113 36.1063C19.5115 36.8312 19.0316 37.3793 18.7761 37.7483C15.5745 42.1817 12.6174 45.594 9.9046 47.9809C11.6465 51.4197 14.2615 53.1391 17.7474 53.1391C19.0605 53.1391 20.398 52.8628 21.7555 52.3081C23.113 51.7534 24.3705 51.0219 25.528 50.1113C26.6856 49.203 27.6209 48.1864 28.3363 47.0637C29.0495 45.941 29.4072 44.8249 29.4072 43.7177C29.4072 42.553 28.9917 41.501 28.1652 40.5617C27.3365 39.6247 26.3212 38.9572 25.1214 38.5572C24.2638 38.4445 23.3929 38.3296 22.5064 38.2169C21.1623 38.0467 20.4913 37.7771 20.4913 37.4058C20.4913 37.1494 20.6557 36.9218 20.9845 36.7229C21.3133 36.524 21.6488 36.4245 21.991 36.4245C22.2487 36.4245 22.5486 36.482 22.8908 36.5947C23.2329 36.7096 23.6773 36.8643 24.2194 37.0632C24.4482 37.092 24.706 37.1141 24.9903 37.1273C25.2747 37.1428 25.5613 37.1494 25.8479 37.1494C27.7342 37.1494 29.4472 36.8511 30.9913 36.2544C32.4777 35.6577 33.5619 34.8333 34.2484 33.7813C34.9349 32.7293 35.2771 31.5072 35.2771 30.1149C35.2771 28.6938 34.8261 27.5711 33.9263 26.7468C33.0265 25.9224 31.84 25.3323 30.3692 24.9765C28.8962 24.6207 27.3054 24.4439 25.5902 24.4439C22.2465 24.4439 19.0671 24.9279 16.0544 25.8937C13.0395 26.8595 10.4334 28.4662 8.23162 30.7116C6.5453 32.4465 5.70325 33.8962 5.70325 35.0609C5.70325 35.8853 5.91654 36.5814 6.34534 37.1494C6.45865 37.2931 6.58751 37.4345 6.73193 37.576C6.87412 37.7196 7.0452 37.8611 7.24515 38.0025C7.38735 38.0887 7.30292 38.1307 6.98743 38.1307C5.21447 37.7329 4.33021 36.5527 4.33021 34.5924C4.33021 32.6321 5.33 30.7845 7.32958 29.0496C8.87148 27.7148 10.6356 26.634 12.6218 25.8097C14.6081 24.9854 16.7076 24.3886 18.9227 24.0196C21.1378 23.6505 23.3307 23.4648 25.5014 23.4648C27.0433 23.4648 28.5296 23.5798 29.9582 23.8052C31.3868 24.0328 32.6732 24.4085 33.8152 24.9345C34.9572 25.4605 35.8659 26.15 36.5368 27.0031C37.2078 27.8562 37.5433 28.9082 37.5433 30.1591C37.5433 31.9227 37.0723 33.3283 36.128 34.3802C35.186 35.4322 33.9129 36.2411 32.3133 36.8113C30.427 37.4655 28.3985 37.8058 26.2279 37.8345C27.4276 37.892 28.4785 38.2036 29.3783 38.7716C30.2781 39.3396 30.978 40.0799 31.4779 40.9883C31.9778 41.8988 32.2288 42.8933 32.2288 43.9718C32.2288 45.4216 31.7934 46.7653 30.9224 48.0007C30.0515 49.2362 28.8873 50.3036 27.4298 51.1987C25.9724 52.0937 24.3727 52.7899 22.6286 53.2872C20.889 53.7888 19.1449 54.0364 17.403 54.0364ZM2.44394 52.118C3.35708 52.118 5.11449 50.8252 7.71617 48.2372L7.58731 48.067C6.4431 44.2879 5.52996 42.3961 4.84343 42.3961C4.81455 42.3961 4.74346 42.4248 4.63015 42.4823C2.51503 45.5233 1.45747 47.9676 1.45747 49.8152C1.45747 50.213 1.53523 50.697 1.69298 51.265C1.85072 51.8352 2.10178 52.118 2.44394 52.118Z" fill="black"/>
<path id="Vector_2" d="M61.4185 52.1199C60.732 52.1199 60.3899 51.7354 60.3899 50.9685C60.7031 49.3772 61.3474 47.5871 62.3183 45.5959C62.776 44.6301 63.2404 43.6775 63.7114 42.7383C64.1824 41.8012 64.6468 40.8487 65.1044 39.8807C64.0469 40.5923 62.9893 41.3813 61.9318 42.2476C60.8742 43.114 59.8455 44.0886 58.8457 45.1671C57.6726 46.418 56.3174 48.0247 54.7733 49.985C53.6579 51.3773 53.0158 52.0735 52.8448 52.0735C52.4449 52.0735 52.116 51.8879 51.8583 51.5188C51.6006 51.1497 51.4717 50.8359 51.4717 50.5817C51.4717 50.2126 51.8005 49.2601 52.4582 47.7241C52.6581 47.2401 52.8648 46.765 53.0803 46.2964C53.2936 45.8279 53.5024 45.366 53.7024 44.9107L51.1318 47.596C51.074 47.6534 50.903 47.8236 50.6186 48.1087C50.3342 48.3938 50.1031 48.5352 49.932 48.5352C49.7899 48.5352 49.7188 48.4358 49.7188 48.2369C49.7188 48.1794 49.741 48.1021 49.7832 48.0026C49.8254 47.9032 49.9187 47.7838 50.0609 47.6402C50.4897 47.2136 50.9318 46.7606 51.3895 46.2766C51.8472 45.7926 52.3182 45.24 52.8048 44.6146C53.1758 44.1306 53.7113 43.4146 54.4111 42.462C55.111 41.5095 55.9752 40.3094 57.0039 38.8597C57.3172 38.4331 57.7615 38.221 58.3325 38.221C58.9035 38.221 59.1901 38.4906 59.1901 39.032C59.1901 39.2309 58.4614 40.5525 57.0039 42.9969C56.2596 44.3052 55.6686 45.3704 55.2243 46.1948C54.7799 47.0191 54.5022 47.6313 54.3889 48.0291C55.0176 47.3462 55.7664 46.5793 56.6395 45.7263C57.5105 44.8732 58.5169 43.9207 59.6611 42.8687C63.176 39.6287 65.491 38.0088 66.6041 38.0088C66.9174 38.0088 67.2262 38.1082 67.5261 38.3071C67.8261 38.506 67.9772 38.7624 67.9772 39.074C67.9772 39.2177 67.4195 40.2542 66.3064 42.1858C65.22 44.1461 64.6201 45.313 64.5068 45.6821C67.6795 43.0388 69.2636 41.704 69.2636 41.6752C71.9497 39.6 73.8782 38.5635 75.049 38.5635C75.3912 38.5635 75.7133 38.6696 76.0133 38.884C76.3132 39.0961 76.4643 39.3459 76.4643 39.631C76.4643 39.6884 75.5489 40.8818 73.7204 43.2112C71.8341 45.5716 70.7766 47.5031 70.5478 49.0104C70.4322 50.0336 70.961 50.5442 72.1341 50.5442C72.8473 50.5442 73.8493 50.0889 75.1335 49.1806C76.4198 48.2722 77.7618 47.0213 79.1615 45.4279C79.3326 45.229 79.5192 45.0367 79.7192 44.8533C79.9191 44.6676 80.0902 44.577 80.2346 44.577C80.4057 44.577 80.4923 44.6478 80.4923 44.7892C80.4923 44.9881 80.3635 45.2157 80.1057 45.4721C79.3615 46.3539 78.4839 47.2622 77.4707 48.2015C76.4554 49.1386 75.4489 49.9275 74.4492 50.5685C73.4494 51.2072 72.5629 51.5276 71.7919 51.5276C69.8479 51.5276 68.877 50.6326 68.877 48.8424C68.877 48.217 69.0481 47.4854 69.3902 46.6456C69.7324 45.808 70.0767 45.0478 70.4189 44.3649C71.2476 42.7736 72.1474 41.3658 73.1183 40.1437C72.203 40.599 71.2543 41.1957 70.2678 41.9338C69.2813 42.6742 68.2593 43.5405 67.204 44.535C64.7467 46.9219 63.0604 49.3397 62.1473 51.784C62.0051 52.0072 61.7607 52.1199 61.4185 52.1199Z" fill="black"/>
<path id="Vector_3" d="M80.4113 52.0763C78.896 52.0763 78.1406 50.9404 78.1406 48.6662C78.1406 46.8761 79.7981 43.6074 83.1129 38.8603C86.5122 34.0004 89.0983 31.5693 90.8713 31.5693C91.2135 31.5693 91.5423 31.6754 91.8578 31.8898C92.171 32.102 92.3288 32.3804 92.3288 32.7208C92.3288 32.692 91.2846 33.8015 89.2005 36.0469C88.0008 37.3552 86.9144 38.5774 85.9434 39.7133C84.9725 40.8515 84.1149 41.9168 83.3707 42.9113C81.2844 45.7534 80.2424 47.8286 80.2424 49.137C80.2424 49.506 80.3491 49.884 80.5646 50.2663C80.7801 50.6486 81.0711 50.8409 81.4422 50.8409C82.0998 50.8409 82.7997 50.5845 83.5417 50.074C84.2838 49.5635 84.9992 48.9226 85.6857 48.1557C86.3722 47.3888 86.9566 46.5998 87.4431 45.7887C87.9297 44.9777 88.2585 44.2616 88.4296 43.6362C88.2296 43.0395 88.1297 42.3013 88.1297 41.4195C88.1297 39.2868 88.8584 38.3365 90.3159 38.5619C90.6002 38.5906 90.7935 38.7321 90.8935 38.9885C90.9935 39.2448 91.0446 39.5432 91.0446 39.8835C91.0446 40.5951 90.938 41.3046 90.7224 42.0162C90.5092 42.7278 90.3425 43.3246 90.2292 43.8063C90.3425 44.4605 90.6069 45.1213 91.0224 45.7887C91.4356 46.4562 91.9578 46.7899 92.5865 46.7899C93.2153 46.7899 93.944 46.3346 94.7727 45.4263C94.9438 45.2274 95.1149 45.1279 95.286 45.1279C95.4281 45.1279 95.5148 45.2274 95.5437 45.4263C95.5437 45.5965 95.4281 45.8396 95.2015 46.1512C94.315 47.2032 93.3863 47.7292 92.4154 47.7292C91.0157 47.7292 89.8871 46.7059 89.0295 44.6594C88.4851 45.9103 87.7431 47.1037 86.8011 48.2397C85.859 49.3779 84.837 50.3017 83.7372 51.0111C82.633 51.7205 81.5266 52.0763 80.4113 52.0763Z" fill="black"/>
<path id="Vector_4" d="M98.9214 52.1203C97.5773 52.1203 96.5864 51.6805 95.942 50.7987C95.3 49.9169 94.7778 48.6948 94.3779 47.1323C93.8647 47.6428 93.507 47.8991 93.307 47.8991C93.1649 47.8991 93.0938 47.7864 93.0938 47.5588C93.0938 47.3886 93.1649 47.2317 93.307 47.0903C94.7645 45.3289 96.3642 43.6514 98.1083 42.0602L103.509 37.0302C104.251 36.3207 104.845 35.7793 105.289 35.4102C105.731 35.0411 106.053 34.8555 106.253 34.8555C107.166 34.8555 107.624 35.1958 107.624 35.8787C107.624 36.2191 107.437 36.6191 107.066 37.0721C106.78 37.4125 106.573 37.6755 106.444 37.8611C106.315 38.0468 106.238 38.1529 106.209 38.1816C105.693 39.0634 105.222 40.6414 104.794 42.9133C104.478 44.5907 104.207 45.9698 103.978 47.0483C103.749 48.129 103.563 48.9113 103.42 49.3931C104.62 49.3644 105.807 48.9953 106.978 48.2837C108.148 47.5743 109.406 46.4074 110.75 44.7874C110.808 44.7299 110.892 44.646 111.008 44.531C111.121 44.4183 111.237 44.3609 111.35 44.3609C111.521 44.3609 111.608 44.4316 111.608 44.573C111.608 44.7167 111.565 44.8581 111.479 44.9996C111.392 45.1432 111.308 45.2692 111.221 45.3841C110.335 46.4361 109.506 47.2958 108.735 47.9632C107.964 48.6307 107.149 49.1567 106.291 49.5412C105.433 49.9258 104.42 50.244 103.247 50.5004L101.876 51.3954C101.505 51.6518 101.061 51.8374 100.548 51.9501C100.037 52.0629 99.4924 52.1203 98.9214 52.1203ZM99.4369 49.9456C100.095 49.9456 100.637 49.7887 101.065 49.4771C101.379 49.3069 101.688 48.8318 101.987 48.0494C102.287 47.2671 102.581 46.2947 102.865 45.13C103.094 44.1354 103.272 43.163 103.4 42.2105C103.529 41.258 103.649 40.343 103.765 39.4612L103.936 38.0114C103.278 38.4954 102.45 39.1916 101.45 40.0999C100.45 41.0104 99.4635 41.9608 98.4926 42.9575C97.5217 43.952 96.893 44.6835 96.6064 45.1543C96.3197 45.6228 96.162 45.972 96.1353 46.1996C96.0198 47.3378 96.2998 48.2461 96.9707 48.929C97.6417 49.6053 98.4637 49.9456 99.4369 49.9456Z" fill="black"/>
<path id="Vector_5" d="M108.229 52.2466C107.4 52.2466 106.984 52.0057 106.984 51.5217C106.984 51.2388 107.155 50.7835 107.5 50.1581C108.815 47.8287 109.993 45.7601 111.037 43.9545C112.079 42.1489 113.001 40.6217 113.801 39.3709C117.2 33.943 119.602 31.0014 121.001 30.5462C121.059 30.5462 121.101 30.5395 121.13 30.5241C121.159 30.5108 121.188 30.502 121.217 30.502C121.588 30.502 121.83 30.8003 121.946 31.397C121.859 31.9937 120.375 34.1552 117.489 37.8769C115.974 39.7819 114.796 41.3511 113.952 42.5887C113.108 43.8241 112.588 44.728 112.388 45.296C113.33 44.6131 114.345 43.8882 115.432 43.1213C116.518 42.3544 117.575 41.6229 118.604 40.9245C119.633 40.2284 120.562 39.6604 121.39 39.2184C122.219 38.7786 122.861 38.5288 123.319 38.4714C123.377 38.4714 123.448 38.4647 123.532 38.4493C123.619 38.436 123.674 38.4272 123.703 38.4272C124.503 38.4272 124.903 38.7962 124.903 39.5366C124.903 39.7355 124.645 40.1753 124.132 40.8582C123.619 41.5411 122.832 42.5931 121.775 44.0142C119.888 46.5159 118.946 48.3922 118.946 49.6409C118.946 50.2951 119.188 50.6222 119.675 50.6222C120.191 50.5935 120.782 50.3658 121.455 49.9393C122.126 49.5127 122.806 48.9868 123.49 48.3613C124.176 47.7359 124.796 47.1193 125.354 46.5071C125.912 45.8971 126.331 45.4197 126.618 45.0794C126.876 44.823 127.076 44.6948 127.218 44.6948C127.331 44.6948 127.389 44.7523 127.389 44.865C127.389 45.0927 127.273 45.3623 127.047 45.6761C126.705 46.1026 126.196 46.6574 125.525 47.3381C124.854 48.021 124.125 48.7105 123.339 49.4067C122.552 50.1028 121.81 50.6863 121.11 51.1548C120.41 51.6233 119.888 51.8576 119.546 51.8576C117.86 51.8576 117.018 50.8763 117.018 48.916C117.018 47.8066 117.533 46.359 118.56 44.5667C118.96 43.8838 119.375 43.2031 119.802 42.5202C120.231 41.8373 120.659 41.1566 121.088 40.4737C117.431 42.2925 114.116 44.9799 111.144 48.5315C110.772 49.0442 110.386 49.5901 109.986 50.1735C109.586 50.757 109.228 51.2476 108.915 51.6454C108.602 52.0477 108.373 52.2466 108.229 52.2466Z" fill="black"/>
<path id="Vector_6" d="M127.68 52.5845C126.764 52.5845 125.936 52.2928 125.193 51.7115C124.451 51.1303 124.078 50.3546 124.078 49.3888C124.078 47.371 125.32 45.0681 127.806 42.4824C130.35 39.8679 132.621 38.5596 134.62 38.5596C135.278 38.5596 135.813 38.7364 136.227 39.0922C136.64 39.448 136.849 39.8812 136.849 40.3917C136.849 41.9829 135.578 43.5476 133.034 45.0814C130.777 46.445 128.877 47.1279 127.333 47.1279C127.104 47.1279 126.904 47.0992 126.733 47.0417C126.304 47.8086 126.091 48.6197 126.091 49.4728C126.091 50.9513 126.791 51.6894 128.191 51.6894C129.619 51.6894 131.463 50.7369 133.721 48.8319C135.462 47.4395 136.949 45.961 138.177 44.3985C138.435 44.0582 138.664 43.888 138.864 43.888C139.035 43.888 139.122 43.9742 139.122 44.1444C139.122 44.3145 139.006 44.5576 138.78 44.8692C137.98 45.9212 137.122 46.887 136.209 47.7688C135.294 48.6506 134.309 49.4595 133.252 50.1999C131.05 51.7889 129.193 52.5845 127.68 52.5845ZM127.935 46.1908C129.022 46.1908 130.435 45.6516 132.179 44.5709C132.75 44.1731 133.314 43.7244 133.872 43.2272C134.429 42.7299 134.885 42.226 135.242 41.7133C135.6 41.2028 135.778 40.7475 135.778 40.3497C135.778 39.9806 135.478 39.795 134.878 39.795C134.021 39.795 132.821 40.4337 131.277 41.7133C130.532 42.3387 129.819 43.0216 129.133 43.7598C128.446 44.5002 127.862 45.2803 127.375 46.1047C127.551 46.1621 127.735 46.1908 127.935 46.1908Z" fill="black"/>
<path id="Vector_7" d="M139.769 52.1169C138.94 52.1169 138.169 51.9114 137.454 51.4981C136.738 51.087 136.383 50.3975 136.383 49.4295C136.383 48.0946 136.86 46.5012 137.818 44.6536C138.776 42.806 139.869 40.8877 141.097 38.8986C144.441 33.4995 146.812 30.7988 148.211 30.7988C148.496 30.7988 148.789 30.9049 149.089 31.1193C149.389 31.3315 149.553 31.5679 149.582 31.8221L146.583 35.8289C145.412 37.3914 144.354 38.8345 143.41 40.1561C142.468 41.4778 141.653 42.6646 140.966 43.7165C140.624 44.2558 140.238 44.868 139.809 45.5509C139.38 46.2338 139 46.9366 138.673 47.6615C138.345 48.3864 138.18 49.1179 138.18 49.8582C138.18 50.1986 138.28 50.5058 138.48 50.7754C138.68 51.045 139.038 51.1798 139.551 51.1798C140.464 51.1798 141.666 50.6892 143.15 49.708C144.637 48.7267 146.107 47.3697 147.565 45.6371C147.707 45.4669 147.865 45.31 148.036 45.1685C148.207 45.0271 148.349 44.9564 148.465 44.9564C148.607 44.9564 148.678 45.0426 148.678 45.2127C148.678 45.2989 148.585 45.4625 148.4 45.7034C148.214 45.9443 148.065 46.1365 147.949 46.278L146.921 47.4294C146.35 48.0548 145.67 48.7377 144.885 49.4759C144.099 50.2163 143.27 50.8395 142.399 51.3522C141.533 51.8605 140.653 52.1169 139.769 52.1169Z" fill="black"/>
<path id="Vector_8" d="M150.183 52.1169C149.354 52.1169 148.583 51.9114 147.868 51.4981C147.152 51.087 146.797 50.3975 146.797 49.4295C146.797 48.0946 147.275 46.5012 148.232 44.6536C149.19 42.806 150.283 40.8877 151.511 38.8986C154.855 33.4995 157.226 30.7988 158.626 30.7988C158.91 30.7988 159.203 30.9049 159.503 31.1193C159.803 31.3315 159.967 31.5679 159.996 31.8221L156.997 35.8289C155.826 37.3914 154.769 38.8345 153.824 40.1561C152.882 41.4778 152.067 42.6646 151.38 43.7165C151.038 44.2558 150.652 44.868 150.223 45.5509C149.794 46.2338 149.414 46.9366 149.088 47.6615C148.759 48.3864 148.594 49.1179 148.594 49.8582C148.594 50.1986 148.694 50.5058 148.894 50.7754C149.094 51.045 149.452 51.1798 149.965 51.1798C150.878 51.1798 152.08 50.6892 153.564 49.708C155.051 48.7267 156.522 47.3697 157.979 45.6371C158.121 45.4669 158.279 45.31 158.45 45.1685C158.621 45.0271 158.763 44.9564 158.879 44.9564C159.021 44.9564 159.092 45.0426 159.092 45.2127C159.092 45.2989 158.999 45.4625 158.814 45.7034C158.628 45.9443 158.479 46.1365 158.363 46.278L157.335 47.4294C156.764 48.0548 156.084 48.7377 155.3 49.4759C154.513 50.2163 153.684 50.8395 152.813 51.3522C151.947 51.8605 151.067 52.1169 150.183 52.1169Z" fill="black"/>
</g>
<g id="Group_6">
<g id="Group_7">
<path id="Vector_9" d="M5.64062 69.9608V62.5947H6.42269V69.9608H5.64062Z" fill="black"/>
<path id="Vector_10" d="M15.8203 69.9608V62.5947H16.4646L21.5747 68.9928H21.237V62.5947H22.0101V69.9608H21.3658L16.2669 63.5627H16.6046V69.9608H15.8203Z" fill="black"/>
<path id="Vector_11" d="M32.1883 69.9608H31.4062V62.5947H36.4852V63.2688H32.1905V69.9608H32.1883ZM32.1039 66.1617H36.0186V66.8358H32.1039V66.1617Z" fill="black"/>
<path id="Vector_12" d="M45.0859 69.9608V62.5947H45.868V69.2889H50.016V69.963H45.0859V69.9608Z" fill="black"/>
<path id="Vector_13" d="M61.142 70.0232C60.1977 70.0232 59.4535 69.7536 58.9091 69.2121C58.3648 68.6729 58.0938 67.8728 58.0938 66.812V62.5908H58.8758V66.7788C58.8758 67.6496 59.0735 68.2905 59.469 68.7038C59.8645 69.1171 60.4221 69.3248 61.1398 69.3248C61.8663 69.3248 62.4262 69.1171 62.8216 68.7038C63.2171 68.2905 63.4149 67.6474 63.4149 66.7788V62.5908H64.1769V66.812C64.1769 67.8706 63.9081 68.6706 63.3682 69.2121C62.8305 69.7514 62.0862 70.0232 61.142 70.0232Z" fill="black"/>
<path id="Vector_14" d="M74.3055 69.2867H78.7601V69.9608H73.5234V62.5947H78.6024V63.2688H74.3077V69.2867H74.3055ZM74.2211 65.8877H78.1358V66.5507H74.2211V65.8877Z" fill="black"/>
<path id="Vector_15" d="M87.5859 69.9608V62.5947H88.2325L93.3425 68.9928H93.0048V62.5947H93.778V69.9608H93.1315L88.0325 63.5627H88.3702V69.9608H87.5859Z" fill="black"/>
<path id="Vector_16" d="M106.386 70.0243C105.828 70.0243 105.313 69.9315 104.842 69.7458C104.369 69.5602 103.96 69.2994 103.615 68.9612C103.269 68.6253 103 68.2275 102.807 67.7722C102.613 67.317 102.516 66.8175 102.516 66.2783C102.516 65.739 102.613 65.2395 102.807 64.7843C103 64.329 103.271 63.9312 103.622 63.5953C103.971 63.2593 104.382 62.9963 104.855 62.8107C105.328 62.625 105.842 62.5322 106.399 62.5322C106.935 62.5322 107.439 62.6206 107.912 62.7996C108.386 62.9787 108.783 63.2461 109.108 63.6041L108.61 64.0991C108.306 63.7897 107.972 63.5687 107.606 63.4317C107.239 63.2947 106.844 63.2262 106.421 63.2262C105.977 63.2262 105.564 63.3013 105.184 63.4516C104.804 63.6019 104.471 63.8163 104.189 64.0947C103.906 64.371 103.686 64.6937 103.527 65.0627C103.369 65.4318 103.289 65.8362 103.289 66.2783C103.289 66.7203 103.369 67.1247 103.527 67.4938C103.684 67.8629 103.906 68.1855 104.189 68.4618C104.471 68.738 104.802 68.9524 105.184 69.1049C105.564 69.2552 105.977 69.3303 106.421 69.3303C106.846 69.3303 107.239 69.2596 107.606 69.1204C107.972 68.9811 108.308 68.7557 108.61 68.4463L109.108 68.9413C108.783 69.2994 108.383 69.569 107.912 69.7524C107.437 69.9314 106.928 70.0243 106.386 70.0243Z" fill="black"/>
<path id="Vector_17" d="M118.54 69.2867H122.995V69.9608H117.758V62.5947H122.837V63.2688H118.542V69.2867H118.54ZM118.455 65.8877H122.37V66.5507H118.455V65.8877Z" fill="black"/>
<path id="Vector_18" d="M131.82 69.9608V62.5947H134.593C135.22 62.5947 135.759 62.6942 136.213 62.8953C136.664 63.0942 137.013 63.3837 137.255 63.7594C137.499 64.1351 137.619 64.5882 137.619 65.123C137.619 65.6424 137.497 66.0888 137.255 66.4645C137.01 66.8402 136.664 67.1275 136.213 67.3286C135.762 67.5275 135.222 67.6292 134.593 67.6292H132.256L132.605 67.2712V69.9652H131.82V69.9608ZM132.602 67.3308L132.254 66.9618H134.571C135.311 66.9618 135.873 66.8004 136.259 66.4778C136.644 66.1551 136.837 65.702 136.837 65.1208C136.837 64.5307 136.644 64.0755 136.259 63.7528C135.875 63.4301 135.313 63.2688 134.571 63.2688H132.254L132.602 62.8997V67.3308ZM136.877 69.9608L134.973 67.2866H135.819L137.735 69.9608H136.877Z" fill="black"/>
<path id="Vector_19" d="M148.493 70.026C147.942 70.026 147.415 69.9376 146.911 69.7586C146.406 69.5795 146.018 69.3497 145.742 69.069L146.049 68.4701C146.309 68.722 146.66 68.9342 147.102 69.1066C147.542 69.279 148.006 69.3652 148.493 69.3652C148.959 69.3652 149.337 69.3077 149.63 69.1906C149.924 69.0757 150.139 68.9187 150.277 68.722C150.415 68.5254 150.483 68.3088 150.483 68.0701C150.483 67.7828 150.401 67.5507 150.235 67.3761C150.068 67.2015 149.852 67.0623 149.584 66.9606C149.315 66.859 149.019 66.7706 148.695 66.6932C148.371 66.6159 148.046 66.5341 147.722 66.4457C147.397 66.3573 147.1 66.2402 146.829 66.0921C146.558 65.944 146.338 65.7495 146.173 65.5086C146.007 65.2655 145.924 64.9495 145.924 64.5561C145.924 64.1915 146.022 63.8555 146.215 63.5505C146.409 63.2456 146.706 63.0002 147.109 62.8146C147.511 62.629 148.026 62.5361 148.653 62.5361C149.068 62.5361 149.481 62.5936 149.89 62.7107C150.299 62.8257 150.652 62.987 150.948 63.1903L150.683 63.8113C150.366 63.6014 150.028 63.4467 149.672 63.3472C149.317 63.25 148.973 63.1992 148.642 63.1992C148.197 63.1992 147.831 63.2588 147.542 63.3782C147.253 63.4975 147.04 63.6566 146.902 63.8577C146.764 64.0566 146.695 64.2843 146.695 64.5362C146.695 64.8235 146.778 65.0556 146.944 65.2302C147.111 65.4048 147.329 65.5418 147.6 65.6412C147.871 65.7407 148.168 65.8269 148.493 65.9042C148.817 65.9816 149.139 66.0656 149.461 66.1562C149.781 66.2468 150.079 66.3639 150.35 66.5098C150.621 66.6534 150.841 66.8457 151.006 67.0844C151.172 67.3231 151.254 67.6347 151.254 68.0215C151.254 68.3795 151.157 68.711 150.959 69.016C150.761 69.321 150.459 69.5663 150.055 69.7519C149.648 69.9331 149.128 70.026 148.493 70.026Z" fill="black"/>
</g>
</g>
<path id="Vector_20" d="M86.727 19.1036C83.401 19.1036 80.5594 16.898 80.5594 16.898C80.5594 16.898 78.3421 14.0736 78.3421 10.7629C78.3421 7.45448 77.8555 0 77.8555 0C77.8555 0 77.3689 7.45227 77.3689 10.7629C77.3689 14.0713 75.1516 16.898 75.1516 16.898C75.1516 16.898 72.3122 19.1036 68.984 19.1036C65.658 19.1036 58.1641 19.5876 58.1641 19.5876C58.1641 19.5876 65.6558 20.0716 68.984 20.0716C72.31 20.0716 75.1516 22.2772 75.1516 22.2772C75.1516 22.2772 77.3689 25.1017 77.3689 28.4123C77.3689 31.7207 77.8555 39.1752 77.8555 39.1752C77.8555 39.1752 78.3421 31.723 78.3421 28.4123C78.3421 25.1039 80.5594 22.2772 80.5594 22.2772C80.5594 22.2772 83.3988 20.0716 86.727 20.0716C90.053 20.0716 97.547 19.5876 97.547 19.5876C97.547 19.5876 90.053 19.1036 86.727 19.1036Z" fill="black"/>
<path id="Vector_21" d="M64.1017 8.4248C64.1017 8.4248 64.155 11.4791 67.4144 11.6139C64.155 11.7487 64.1017 14.803 64.1017 14.803C64.1017 14.803 64.0484 11.7487 60.7891 11.6139C64.0484 11.4791 64.1017 8.4248 64.1017 8.4248Z" fill="#D33BFE"/>
<path id="Vector_22" d="M88.4767 5.62695C88.4767 5.62695 88.53 8.68123 91.7894 8.81605C88.53 8.95086 88.4767 12.0051 88.4767 12.0051C88.4767 12.0051 88.4234 8.95086 85.1641 8.81605C88.4234 8.68123 88.4767 5.62695 88.4767 5.62695Z" fill="#D33BFE"/>
<path id="Vector_23" d="M85.2611 29.7715C85.2611 29.7715 85.3077 32.4302 88.1471 32.5473C85.3099 32.6644 85.2611 35.3231 85.2611 35.3231C85.2611 35.3231 85.2144 32.6644 82.375 32.5473C85.2144 32.4324 85.2611 29.7715 85.2611 29.7715Z" fill="#D33BFE"/>
<g id="Group_8">
<path id="Vector_24" d="M70.2969 12.2539C75.5136 16.9149 80.4814 21.8543 85.1671 27.0457C79.946 22.3847 74.9826 17.4431 70.2969 12.2539Z" fill="black"/>
<path id="Vector_25" d="M85.4171 12.2539C80.7314 17.4431 75.7658 22.3847 70.5469 27.0457C75.2303 21.8521 80.1982 16.9149 85.4171 12.2539Z" fill="black"/>
</g>
<path id="Vector_26" d="M62.2436 25.6036C55.5694 23.8688 47.5311 24.3108 43.6719 34.1477C43.6874 34.1543 43.7052 34.1609 43.7208 34.1676C44.8561 32.0636 50.4305 23.1284 62.0547 25.8578C67.9179 27.3098 72.2015 25.155 73.0924 24.5075C73.9833 23.8599 75.7696 21.4443 75.7696 21.4443C75.7696 21.4443 69.0199 27.3673 62.2436 25.6036Z" fill="black"/>
</g>
</g>
</g>
<path id="Vector_27" d="M51.9422 43.6457C51.489 38.7306 47.1166 35.1105 42.1731 35.5614C37.232 36.0122 33.5927 40.3638 34.0459 45.2789C34.4992 50.1941 38.8716 53.8141 43.815 53.3633C48.7562 52.9124 52.3955 48.563 51.9422 43.6457ZM43.0663 51.4251C39.1693 51.7809 35.7189 48.9255 35.3612 45.0491C35.0058 41.1727 37.874 37.7405 41.7732 37.3847C45.6702 37.0288 49.1206 39.8842 49.4783 43.7606C49.836 47.6392 46.9655 51.0692 43.0663 51.4251Z" fill="black"/>
<path id="Vector_28" d="M39.3689 49.1415C36.1718 47.1923 36.0918 42.4473 38.9912 40.1776C39.8999 39.4461 41.0441 39.0239 42.1639 39.0284C40.0998 39.6825 38.4669 41.2406 37.9025 43.3004C37.3182 45.3491 37.9558 47.5547 39.3689 49.1415Z" fill="black"/>
<path id="Vector_29" d="M40.5312 36.432L40.8267 34.359C40.9045 33.8109 41.4066 33.422 41.9598 33.4816L46.2634 33.9369C46.8411 33.9988 47.2543 34.5203 47.1788 35.0927L46.9344 36.9359L40.5312 36.432Z" fill="black"/>
</g>
</svg>
