<svg width="252" height="111" viewBox="0 0 252 111" fill="none" xmlns="http://www.w3.org/2000/svg">
<g id="Group">
<g id="Group_2">
<g id="Group_3">
<g id="Group_4">
<g id="Group_5">
<path id="Vector" d="M27.6386 84.8773C20.5447 84.8773 15.7166 82.4681 13.1576 77.6461C8.53192 81.4856 5.23285 83.4054 3.2569 83.4054C2.3143 83.4054 1.58467 82.9576 1.06799 82.0654C0.551309 81.1732 0.292969 80.1665 0.292969 79.0521C0.292969 76.3721 1.32633 73.2477 3.38956 69.6754C4.28677 68.1133 5.27474 66.6864 6.35349 65.3881C7.43223 64.0932 8.64364 63.4475 9.9912 63.4475C11.2934 63.4475 12.2813 64.5202 12.9551 66.6621L14.9765 73.0914C15.6956 72.3312 16.4916 71.4078 17.3679 70.3107C18.2441 69.2172 19.2216 67.9327 20.2969 66.4608L26.2911 58.4242C33.6538 48.9156 38.4819 43.7152 40.7721 42.8196C41.5785 42.5072 42.3885 42.3509 43.1949 42.3509C44.0921 42.3509 44.8217 42.5419 45.3838 42.9203C45.9459 43.2987 46.2252 43.7361 46.2252 44.2256C46.2252 45.0275 45.5723 45.4996 44.2736 45.6315C42.9261 46.3918 40.3008 48.6448 36.3943 52.3941C34.5964 54.1368 33.1511 55.574 32.0514 56.7127C30.9517 57.8514 30.1976 58.7123 29.7961 59.2921C24.7655 66.256 20.1188 71.616 15.8562 75.3653C18.5932 80.767 22.7022 83.4679 28.1797 83.4679C30.243 83.4679 32.3446 83.0339 34.4777 82.1626C36.6107 81.2912 38.5867 80.1422 40.4055 78.7119C42.2244 77.2851 43.6941 75.6882 44.8182 73.9246C45.9389 72.1611 46.5009 70.4079 46.5009 68.6687C46.5009 66.8392 45.8481 65.1867 44.5494 63.7113C43.2473 62.2394 41.6518 61.191 39.7666 60.5626C38.4191 60.3856 37.0506 60.2051 35.6576 60.028C33.5455 59.7607 32.4912 59.3372 32.4912 58.754C32.4912 58.3513 32.7496 57.9937 33.2663 57.6813C33.7829 57.3688 34.3101 57.2126 34.8477 57.2126C35.2527 57.2126 35.724 57.3029 36.2616 57.4799C36.7992 57.6604 37.4974 57.9034 38.3493 58.2159C38.7089 58.261 39.1138 58.2957 39.5607 58.3166C40.0075 58.3409 40.4579 58.3513 40.9082 58.3513C43.8722 58.3513 46.5638 57.8826 48.9901 56.9453C51.3256 56.008 53.0293 54.7131 54.108 53.0606C55.1868 51.4082 55.7244 49.4884 55.7244 47.3013C55.7244 45.0691 55.0157 43.3056 53.6018 42.0107C52.1879 40.7158 50.3237 39.7889 48.0126 39.23C45.698 38.6711 43.1984 38.3934 40.5033 38.3934C35.2492 38.3934 30.2534 39.1536 25.5195 40.6707C20.7821 42.1878 16.6871 44.7116 13.2274 48.2387C10.5777 50.9638 9.25458 53.2412 9.25458 55.0707C9.25458 56.3655 9.58972 57.4591 10.2635 58.3513C10.4415 58.5769 10.644 58.7991 10.8709 59.0213C11.0944 59.2469 11.3632 59.4691 11.6774 59.6913C11.9008 59.8267 11.7682 59.8926 11.2724 59.8926C8.48654 59.2678 7.09709 57.414 7.09709 54.3347C7.09709 51.2554 8.66808 48.3532 11.8101 45.6281C14.2329 43.5313 17.0048 41.8337 20.1258 40.5388C23.2468 39.2439 26.5459 38.3066 30.0265 37.7268C33.5071 37.1471 36.9528 36.8555 40.3636 36.8555C42.7864 36.8555 45.122 37.036 47.3667 37.3901C49.6115 37.7477 51.6328 38.3378 53.4273 39.1641C55.2217 39.9903 56.6495 41.0734 57.7038 42.4134C58.7581 43.7534 59.2853 45.4059 59.2853 47.3708C59.2853 50.1411 58.5452 52.349 57.0615 54.0014C55.5813 55.6539 53.5809 56.9245 51.0673 57.8201C48.1034 58.8477 44.916 59.3823 41.5052 59.4275C43.3904 59.5177 45.0417 60.0072 46.4556 60.8994C47.8695 61.7916 48.9692 62.9545 49.7546 64.3813C50.5401 65.8116 50.9346 67.3738 50.9346 69.0679C50.9346 71.3453 50.2504 73.456 48.8819 75.3966C47.5134 77.3371 45.684 79.0139 43.3939 80.4199C41.1037 81.8259 38.5902 82.9194 35.8497 83.7005C33.1161 84.4885 30.3756 84.8773 27.6386 84.8773ZM4.13316 81.864C5.568 81.864 8.32944 79.8332 12.4175 75.768L12.215 75.5007C10.4171 69.5644 8.98227 66.5927 7.90353 66.5927C7.85814 66.5927 7.74643 66.6378 7.56839 66.7281C4.24487 71.505 2.58312 75.3445 2.58312 78.2467C2.58312 78.8716 2.70531 79.6318 2.95317 80.524C3.20104 81.4197 3.59553 81.864 4.13316 81.864Z" fill="white"/>
<path id="Vector_2" d="M96.802 81.8689C95.7233 81.8689 95.1856 81.2649 95.1856 80.0603C95.6779 77.5607 96.6903 74.7488 98.2159 71.6209C98.9351 70.1039 99.6647 68.6076 100.405 67.1322C101.145 65.6603 101.875 64.1641 102.594 62.6435C100.932 63.7614 99.2702 65.0007 97.6085 66.3615C95.9467 67.7224 94.3303 69.2533 92.7593 70.9474C90.916 72.9123 88.7865 75.4362 86.3602 78.5154C84.6077 80.7025 83.5988 81.796 83.3299 81.796C82.7015 81.796 82.1849 81.5044 81.7799 80.9247C81.3749 80.3449 81.1724 79.852 81.1724 79.4527C81.1724 78.873 81.6891 77.3767 82.7225 74.964C83.0367 74.2038 83.3614 73.4574 83.7 72.7214C84.0351 71.9854 84.3633 71.2599 84.6775 70.5447L80.6383 74.7627C80.5475 74.8529 80.2787 75.1202 79.8319 75.5681C79.385 76.0159 79.0219 76.2381 78.7531 76.2381C78.5297 76.2381 78.418 76.0819 78.418 75.7694C78.418 75.6792 78.4529 75.5577 78.5192 75.4014C78.5855 75.2452 78.7322 75.0578 78.9556 74.8321C79.6294 74.1621 80.3241 73.4504 81.0433 72.6902C81.7624 71.9299 82.5025 71.062 83.2671 70.0796C83.8501 69.3193 84.6915 68.1945 85.7911 66.6983C86.8908 65.202 88.2489 63.317 89.8652 61.0397C90.3575 60.3697 91.0557 60.0364 91.9529 60.0364C92.8501 60.0364 93.3005 60.4599 93.3005 61.3105C93.3005 61.6229 92.1554 63.6989 89.8652 67.5384C88.6957 69.5936 87.7671 71.2668 87.0689 72.5617C86.3707 73.8566 85.9343 74.8182 85.7562 75.4431C86.7442 74.3704 87.9207 73.1658 89.2927 71.8257C90.6612 70.4857 92.2427 68.9895 94.0406 67.337C99.5635 62.2478 103.201 59.7031 104.95 59.7031C105.442 59.7031 105.928 59.8593 106.399 60.1718C106.87 60.4842 107.108 60.8869 107.108 61.3764C107.108 61.6021 106.231 63.2302 104.482 66.2643C102.775 69.3436 101.833 71.1766 101.655 71.7563C106.64 67.6044 109.129 65.5075 109.129 65.4624C113.35 62.2026 116.38 60.5745 118.22 60.5745C118.757 60.5745 119.264 60.7411 119.735 61.0779C120.206 61.4111 120.444 61.8034 120.444 62.2512C120.444 62.3415 119.005 64.2161 116.132 67.8751C113.168 71.5827 111.506 74.6169 111.147 76.9845C110.965 78.5918 111.796 79.3937 113.64 79.3937C114.76 79.3937 116.335 78.6786 118.352 77.2518C120.374 75.825 122.482 73.8601 124.682 71.3571C124.951 71.0447 125.244 70.7426 125.558 70.4545C125.872 70.1629 126.141 70.0206 126.368 70.0206C126.637 70.0206 126.773 70.1316 126.773 70.3538C126.773 70.6663 126.57 71.0238 126.166 71.4265C124.996 72.8117 123.617 74.2385 122.025 75.7139C120.43 77.1858 118.848 78.4252 117.277 79.4319C115.706 80.4352 114.313 80.9386 113.102 80.9386C110.047 80.9386 108.522 79.5326 108.522 76.7206C108.522 75.7382 108.79 74.5891 109.328 73.2699C109.866 71.9542 110.407 70.76 110.944 69.6873C112.247 67.1878 113.66 64.9764 115.186 63.0566C113.748 63.7718 112.257 64.7091 110.707 65.8686C109.157 67.0315 107.551 68.3924 105.893 69.9546C102.032 73.7039 99.3819 77.5017 97.9471 81.3413C97.7237 81.6919 97.3396 81.8689 96.802 81.8689Z" fill="white"/>
<path id="Vector_3" d="M126.642 81.7984C124.261 81.7984 123.074 80.014 123.074 76.4418C123.074 73.6298 125.679 68.4954 130.887 61.0386C136.229 53.4046 140.292 49.5859 143.078 49.5859C143.616 49.5859 144.132 49.7526 144.628 50.0893C145.12 50.4226 145.368 50.86 145.368 51.3946C145.368 51.3495 143.727 53.0922 140.453 56.6193C138.568 58.6744 136.861 60.5942 135.335 62.3786C133.809 64.1664 132.462 65.8397 131.292 67.4019C128.014 71.8663 126.377 75.1261 126.377 77.1812C126.377 77.761 126.544 78.3546 126.883 78.9552C127.222 79.5558 127.679 79.8578 128.262 79.8578C129.295 79.8578 130.395 79.4551 131.561 78.6532C132.727 77.8512 133.851 76.8445 134.93 75.6399C136.009 74.4352 136.927 73.1959 137.691 71.9218C138.456 70.6478 138.973 69.523 139.241 68.5406C138.927 67.6033 138.77 66.4438 138.77 65.0586C138.77 61.7086 139.915 60.2158 142.205 60.5699C142.652 60.615 142.956 60.8372 143.113 61.2399C143.27 61.6426 143.35 62.1113 143.35 62.6459C143.35 63.7637 143.183 64.8781 142.844 65.9959C142.509 67.1138 142.247 68.0511 142.069 68.8079C142.247 69.8354 142.663 70.8734 143.316 71.9218C143.965 72.9703 144.785 73.4945 145.773 73.4945C146.761 73.4945 147.906 72.7793 149.208 71.3525C149.477 71.0401 149.746 70.8839 150.015 70.8839C150.238 70.8839 150.374 71.0401 150.42 71.3525C150.42 71.6198 150.238 72.0017 149.882 72.4912C148.489 74.1436 147.03 74.9699 145.504 74.9699C143.305 74.9699 141.532 73.3625 140.184 70.1479C139.329 72.1128 138.163 73.9874 136.682 75.7718C135.202 77.5596 133.596 79.0107 131.868 80.1251C130.133 81.2395 128.395 81.7984 126.642 81.7984Z" fill="white"/>
<path id="Vector_4" d="M155.731 81.8658C153.619 81.8658 152.062 81.175 151.05 79.7898C150.041 78.4047 149.22 76.4849 148.592 74.0305C147.786 74.8324 147.224 75.2351 146.909 75.2351C146.686 75.2351 146.574 75.0581 146.574 74.7005C146.574 74.4332 146.686 74.1867 146.909 73.9646C149.2 71.1977 151.713 68.5628 154.454 66.0633L162.94 58.1621C164.106 57.0477 165.039 56.1972 165.737 55.6175C166.432 55.0377 166.938 54.7461 167.252 54.7461C168.687 54.7461 169.406 55.2807 169.406 56.3534C169.406 56.888 169.113 57.5164 168.53 58.2281C168.079 58.7627 167.755 59.1758 167.552 59.4674C167.35 59.759 167.227 59.9256 167.182 59.9708C166.372 61.3559 165.632 63.8346 164.958 67.4033C164.463 70.0382 164.037 72.2045 163.677 73.8986C163.317 75.5962 163.024 76.8251 162.801 77.5819C164.686 77.5368 166.55 76.957 168.39 75.8392C170.23 74.7248 172.206 72.8919 174.318 70.3472C174.409 70.2569 174.541 70.125 174.723 69.9445C174.901 69.7675 175.082 69.6772 175.26 69.6772C175.529 69.6772 175.665 69.7883 175.665 70.0105C175.665 70.2361 175.599 70.4583 175.463 70.6805C175.327 70.9061 175.194 71.104 175.058 71.2845C173.665 72.937 172.363 74.2874 171.151 75.3358C169.94 76.3842 168.659 77.2105 167.311 77.8145C165.964 78.4186 164.372 78.9185 162.528 79.3212L160.374 80.7271C159.791 81.1298 159.093 81.4214 158.287 81.5985C157.484 81.7755 156.629 81.8658 155.731 81.8658ZM156.541 78.4498C157.575 78.4498 158.426 78.2033 159.1 77.7138C159.592 77.4465 160.078 76.7001 160.549 75.4712C161.02 74.2423 161.481 72.7148 161.928 70.8853C162.288 69.3231 162.567 67.7956 162.769 66.2994C162.972 64.8032 163.16 63.3659 163.342 61.9808L163.611 59.7035C162.577 60.4637 161.275 61.5573 159.704 62.9841C158.133 64.4143 156.583 65.9071 155.058 67.4728C153.532 69.035 152.544 70.184 152.094 70.9235C151.643 71.6595 151.395 72.208 151.354 72.5655C151.172 74.3534 151.612 75.7802 152.666 76.8529C153.72 77.9152 155.012 78.4498 156.541 78.4498Z" fill="white"/>
<path id="Vector_5" d="M170.35 82.0706C169.047 82.0706 168.395 81.6922 168.395 80.9319C168.395 80.4876 168.663 79.7724 169.204 78.79C171.271 75.131 173.121 71.8816 174.762 69.0454C176.4 66.2091 177.848 63.8103 179.105 61.8454C184.447 53.3193 188.22 48.6986 190.42 47.9835C190.511 47.9835 190.577 47.9731 190.622 47.9488C190.668 47.928 190.713 47.9141 190.758 47.9141C191.341 47.9141 191.722 48.3827 191.903 49.32C191.767 50.2574 189.435 53.6525 184.9 59.4986C182.519 62.4911 180.669 64.9559 179.343 66.8999C178.016 68.8405 177.199 70.2604 176.885 71.1526C178.365 70.0799 179.96 68.9412 181.668 67.7366C183.375 66.532 185.037 65.3829 186.653 64.2859C188.269 63.1923 189.729 62.3001 191.031 61.6058C192.333 60.915 193.342 60.5227 194.061 60.4325C194.152 60.4325 194.263 60.422 194.396 60.3977C194.532 60.3769 194.62 60.363 194.665 60.363C195.922 60.363 196.55 60.9428 196.55 62.1057C196.55 62.4182 196.145 63.109 195.339 64.1817C194.532 65.2544 193.296 66.9069 191.635 69.1391C188.671 73.0689 187.191 76.0162 187.191 77.9776C187.191 79.0052 187.571 79.519 188.336 79.519C189.146 79.4739 190.074 79.1163 191.132 78.4463C192.186 77.7763 193.255 76.9501 194.33 75.9676C195.409 74.9852 196.383 74.0166 197.259 73.055C198.135 72.0968 198.795 71.347 199.245 70.8124C199.65 70.4097 199.964 70.2083 200.188 70.2083C200.366 70.2083 200.457 70.2986 200.457 70.4756C200.457 70.8332 200.275 71.2567 199.919 71.7497C199.381 72.4197 198.582 73.2911 197.528 74.3603C196.473 75.433 195.328 76.5161 194.092 77.6096C192.857 78.7032 191.691 79.6197 190.591 80.3556C189.491 81.0916 188.671 81.4596 188.133 81.4596C185.483 81.4596 184.16 79.9182 184.16 76.839C184.16 75.0963 184.97 72.8224 186.583 70.007C187.211 68.9343 187.864 67.865 188.535 66.7923C189.208 65.7196 189.882 64.6504 190.556 63.5777C184.81 66.4348 179.601 70.6562 174.93 76.2349C174.347 77.0403 173.739 77.8978 173.111 78.8143C172.483 79.7308 171.921 80.5014 171.428 81.1263C170.936 81.7581 170.576 82.0706 170.35 82.0706Z" fill="white"/>
<path id="Vector_6" d="M200.921 82.5988C199.482 82.5988 198.18 82.1405 197.014 81.2275C195.848 80.3145 195.262 79.096 195.262 77.5789C195.262 74.4094 197.213 70.7921 201.12 66.7303C205.117 62.6235 208.685 60.5684 211.827 60.5684C212.86 60.5684 213.702 60.8461 214.351 61.405C215 61.9639 215.328 62.6443 215.328 63.4463C215.328 65.9458 213.332 68.4036 209.334 70.8129C205.787 72.9548 202.802 74.0275 200.376 74.0275C200.017 74.0275 199.702 73.9824 199.434 73.8921C198.76 75.0968 198.425 76.3708 198.425 77.7108C198.425 80.0333 199.524 81.1928 201.724 81.1928C203.968 81.1928 206.866 79.6966 210.413 76.7041C213.15 74.517 215.486 72.1946 217.416 69.7402C217.821 69.2056 218.181 68.9383 218.495 68.9383C218.764 68.9383 218.9 69.0736 218.9 69.341C218.9 69.6083 218.718 69.9901 218.362 70.4796C217.105 72.1321 215.758 73.6491 214.323 75.0343C212.885 76.4194 211.338 77.69 209.676 78.853C206.217 81.349 203.298 82.5988 200.921 82.5988ZM201.322 72.5556C203.029 72.5556 205.25 71.7085 207.99 70.011C208.887 69.3861 209.774 68.6814 210.65 67.9003C211.527 67.1192 212.242 66.3277 212.804 65.5223C213.366 64.7203 213.646 64.0052 213.646 63.3803C213.646 62.8006 213.174 62.509 212.232 62.509C210.884 62.509 208.999 63.5122 206.573 65.5223C205.403 66.5047 204.283 67.5774 203.204 68.7369C202.125 69.8999 201.207 71.1253 200.442 72.4202C200.718 72.5105 201.008 72.5556 201.322 72.5556Z" fill="white"/>
<path id="Vector_7" d="M219.918 81.8635C218.616 81.8635 217.404 81.5406 216.28 80.8914C215.156 80.2457 214.598 79.1626 214.598 77.6421C214.598 75.5453 215.348 73.0423 216.853 70.1401C218.358 67.2379 220.075 64.2245 222.006 61.1002C227.26 52.6192 230.985 48.377 233.184 48.377C233.631 48.377 234.092 48.5436 234.563 48.8803C235.034 49.2136 235.293 49.5851 235.338 49.9843L230.625 56.2782C228.785 58.7326 227.124 60.9995 225.64 63.0755C224.16 65.1515 222.878 67.0157 221.8 68.6681C221.262 69.5152 220.655 70.4768 219.981 71.5495C219.307 72.6222 218.71 73.7262 218.197 74.8648C217.68 76.0035 217.422 77.1526 217.422 78.3156C217.422 78.8502 217.579 79.3327 217.893 79.7562C218.207 80.1798 218.769 80.3915 219.576 80.3915C221.011 80.3915 222.899 79.6208 225.231 78.0795C227.567 76.5381 229.878 74.4066 232.168 71.6849C232.392 71.4176 232.64 71.1711 232.908 70.9489C233.177 70.7268 233.401 70.6157 233.582 70.6157C233.806 70.6157 233.917 70.7511 233.917 71.0184C233.917 71.1538 233.771 71.4106 233.481 71.789C233.188 72.1674 232.954 72.4695 232.772 72.6916L231.156 74.5003C230.259 75.4828 229.19 76.5555 227.958 77.715C226.722 78.8779 225.42 79.8569 224.051 80.6623C222.69 81.4608 221.308 81.8635 219.918 81.8635Z" fill="white"/>
<path id="Vector_8" d="M236.285 81.8635C234.983 81.8635 233.772 81.5406 232.648 80.8914C231.523 80.2457 230.965 79.1626 230.965 77.6421C230.965 75.5453 231.715 73.0423 233.22 70.1401C234.725 67.2379 236.442 64.2245 238.373 61.1002C243.627 52.6192 247.352 48.377 249.551 48.377C249.998 48.377 250.459 48.5436 250.93 48.8803C251.402 49.2136 251.66 49.5851 251.705 49.9843L246.992 56.2782C245.153 58.7326 243.491 60.9995 242.007 63.0755C240.527 65.1515 239.246 67.0157 238.167 68.6681C237.629 69.5152 237.022 70.4768 236.348 71.5495C235.674 72.6222 235.077 73.7262 234.564 74.8648C234.047 76.0035 233.789 77.1526 233.789 78.3156C233.789 78.8502 233.946 79.3327 234.26 79.7562C234.575 80.1798 235.137 80.3915 235.943 80.3915C237.378 80.3915 239.267 79.6208 241.599 78.0795C243.934 76.5381 246.245 74.4066 248.535 71.6849C248.759 71.4176 249.007 71.1711 249.276 70.9489C249.544 70.7268 249.768 70.6157 249.949 70.6157C250.173 70.6157 250.285 70.7511 250.285 71.0184C250.285 71.1538 250.138 71.4106 249.848 71.789C249.555 72.1674 249.321 72.4695 249.139 72.6916L247.523 74.5003C246.626 75.4828 245.558 76.5555 244.325 77.715C243.089 78.8779 241.787 79.8569 240.419 80.6623C239.057 81.4608 237.675 81.8635 236.285 81.8635Z" fill="white"/>
</g>
<g id="Group_6">
<g id="Group_7">
<path id="Vector_9" d="M9.15234 109.9V98.3298H10.3812V109.9H9.15234Z" fill="white"/>
<path id="Vector_10" d="M25.1445 109.901V98.3301H26.157L34.1864 108.38H33.6558V98.3301H34.8707V109.901H33.8583L25.8462 99.8506H26.3769V109.901H25.1445Z" fill="white"/>
<path id="Vector_11" d="M50.8656 109.901H49.6367V98.3301H57.6173V99.3889H50.8691V109.901H50.8656ZM50.7329 103.933H56.8842V104.992H50.7329V103.933Z" fill="white"/>
<path id="Vector_12" d="M71.1289 109.901V98.3301H72.3578V108.845H78.8756V109.904H71.1289V109.901Z" fill="white"/>
<path id="Vector_13" d="M96.364 109.999C94.8803 109.999 93.7108 109.575 92.8554 108.725C92.0001 107.878 91.5742 106.621 91.5742 104.955V98.3242H92.8031V104.903C92.8031 106.271 93.1138 107.277 93.7352 107.927C94.3566 108.576 95.2329 108.902 96.3605 108.902C97.5021 108.902 98.3818 108.576 99.0032 107.927C99.6246 107.277 99.9353 106.267 99.9353 104.903V98.3242H101.133V104.955C101.133 106.618 100.71 107.874 99.862 108.725C99.0172 109.572 97.8477 109.999 96.364 109.999Z" fill="white"/>
<path id="Vector_14" d="M117.053 108.842H124.053V109.901H115.824V98.3301H123.805V99.3889H117.057V108.842H117.053ZM116.92 103.503H123.072V104.544H116.92V103.503Z" fill="white"/>
<path id="Vector_15" d="M137.91 109.901V98.3301H138.926L146.956 108.38H146.425V98.3301H147.64V109.901H146.624L138.612 99.8506H139.142V109.901H137.91Z" fill="white"/>
<path id="Vector_16" d="M167.46 109.999C166.584 109.999 165.774 109.853 165.034 109.562C164.29 109.27 163.648 108.86 163.107 108.329C162.562 107.802 162.14 107.177 161.836 106.461C161.533 105.746 161.379 104.962 161.379 104.115C161.379 103.268 161.533 102.483 161.836 101.768C162.14 101.053 162.566 100.428 163.117 99.9003C163.666 99.3726 164.311 98.9595 165.055 98.6679C165.799 98.3763 166.605 98.2305 167.481 98.2305C168.323 98.2305 169.115 98.3693 169.859 98.6505C170.602 98.9317 171.227 99.3518 171.737 99.9142L170.955 100.692C170.477 100.206 169.953 99.8586 169.377 99.6434C168.801 99.4282 168.18 99.3205 167.516 99.3205C166.818 99.3205 166.169 99.4386 165.572 99.6746C164.975 99.9107 164.451 100.247 164.008 100.685C163.564 101.119 163.219 101.626 162.967 102.205C162.719 102.785 162.594 103.42 162.594 104.115C162.594 104.809 162.719 105.444 162.967 106.024C163.215 106.604 163.564 107.111 164.008 107.545C164.451 107.979 164.971 108.315 165.572 108.555C166.169 108.791 166.818 108.909 167.516 108.909C168.183 108.909 168.801 108.798 169.377 108.579C169.953 108.36 170.48 108.006 170.955 107.52L171.737 108.298C171.227 108.86 170.599 109.284 169.859 109.572C169.112 109.853 168.312 109.999 167.46 109.999Z" fill="white"/>
<path id="Vector_17" d="M186.553 108.842H193.553V109.901H185.324V98.3301H193.305V99.3889H186.557V108.842H186.553ZM186.42 103.503H192.572V104.544H186.42V103.503Z" fill="white"/>
<path id="Vector_18" d="M207.426 109.901V98.3301H211.783C212.767 98.3301 213.615 98.4863 214.328 98.8022C215.036 99.1146 215.584 99.5694 215.965 100.16C216.349 100.75 216.538 101.461 216.538 102.302C216.538 103.117 216.346 103.819 215.965 104.409C215.581 104.999 215.036 105.45 214.328 105.766C213.619 106.079 212.771 106.238 211.783 106.238H208.11L208.658 105.676V109.908H207.426V109.901ZM208.655 105.77L208.107 105.19H211.748C212.91 105.19 213.794 104.936 214.401 104.43C215.005 103.923 215.309 103.211 215.309 102.298C215.309 101.371 215.005 100.656 214.401 100.149C213.797 99.6423 212.914 99.3889 211.748 99.3889H208.107L208.655 98.8092V105.77ZM215.371 109.901L212.38 105.7H213.71L216.719 109.901H215.371Z" fill="white"/>
<path id="Vector_19" d="M233.623 110.001C232.757 110.001 231.93 109.863 231.137 109.581C230.345 109.3 229.734 108.939 229.301 108.498L229.783 107.557C230.191 107.953 230.743 108.286 231.437 108.557C232.129 108.828 232.858 108.963 233.623 108.963C234.356 108.963 234.949 108.873 235.41 108.689C235.871 108.509 236.21 108.262 236.426 107.953C236.643 107.644 236.751 107.304 236.751 106.929C236.751 106.478 236.622 106.113 236.36 105.839C236.098 105.565 235.759 105.346 235.337 105.186C234.914 105.027 234.45 104.888 233.94 104.766C233.431 104.645 232.921 104.516 232.411 104.378C231.902 104.239 231.434 104.055 231.008 103.822C230.582 103.589 230.236 103.284 229.978 102.906C229.716 102.524 229.587 102.027 229.587 101.409C229.587 100.837 229.741 100.309 230.044 99.8298C230.348 99.3507 230.816 98.9654 231.448 98.6737C232.08 98.3821 232.89 98.2363 233.874 98.2363C234.527 98.2363 235.176 98.3266 235.819 98.5106C236.461 98.6911 237.016 98.9445 237.48 99.2639L237.065 100.239C236.566 99.9096 236.035 99.6666 235.477 99.5104C234.918 99.3576 234.377 99.2778 233.857 99.2778C233.158 99.2778 232.582 99.3715 232.129 99.559C231.675 99.7465 231.34 99.9964 231.123 100.312C230.907 100.625 230.798 100.982 230.798 101.378C230.798 101.829 230.928 102.194 231.189 102.468C231.451 102.742 231.793 102.958 232.219 103.114C232.645 103.27 233.113 103.405 233.623 103.527C234.132 103.648 234.639 103.78 235.145 103.923C235.648 104.065 236.115 104.249 236.541 104.478C236.967 104.704 237.313 105.006 237.571 105.381C237.833 105.756 237.962 106.245 237.962 106.853C237.962 107.415 237.809 107.936 237.498 108.415C237.187 108.894 236.712 109.279 236.077 109.571C235.438 109.856 234.621 110.001 233.623 110.001Z" fill="white"/>
</g>
</g>
<path id="Vector_20" d="M136.573 30.008C131.347 30.008 126.882 26.5434 126.882 26.5434C126.882 26.5434 123.397 22.1068 123.397 16.9064C123.397 11.7095 122.633 0 122.633 0C122.633 0 121.868 11.706 121.868 16.9064C121.868 22.1033 118.384 26.5434 118.384 26.5434C118.384 26.5434 113.923 30.008 108.693 30.008C103.467 30.008 91.6914 30.7683 91.6914 30.7683C91.6914 30.7683 103.463 31.5286 108.693 31.5286C113.919 31.5286 118.384 34.9932 118.384 34.9932C118.384 34.9932 121.868 39.4298 121.868 44.6302C121.868 49.8271 122.633 61.5366 122.633 61.5366C122.633 61.5366 123.397 49.8305 123.397 44.6302C123.397 39.4333 126.882 34.9932 126.882 34.9932C126.882 34.9932 131.343 31.5286 136.573 31.5286C141.799 31.5286 153.574 30.7683 153.574 30.7683C153.574 30.7683 141.799 30.008 136.573 30.008Z" fill="white"/>
<path id="Vector_21" d="M101.014 13.2344C101.014 13.2344 101.098 18.032 106.219 18.2438C101.098 18.4556 101.014 23.2532 101.014 23.2532C101.014 23.2532 100.93 18.4556 95.8086 18.2438C100.93 18.032 101.014 13.2344 101.014 13.2344Z" fill="#D33BFE"/>
<path id="Vector_22" d="M139.318 8.83984C139.318 8.83984 139.402 13.6375 144.524 13.8493C139.402 14.061 139.318 18.8587 139.318 18.8587C139.318 18.8587 139.235 14.061 134.113 13.8493C139.235 13.6375 139.318 8.83984 139.318 8.83984Z" fill="#D33BFE"/>
<path id="Vector_23" d="M134.273 46.7637C134.273 46.7637 134.347 50.9399 138.808 51.1239C134.35 51.3079 134.273 55.4842 134.273 55.4842C134.273 55.4842 134.2 51.3079 129.738 51.1239C134.2 50.9434 134.273 46.7637 134.273 46.7637Z" fill="#D33BFE"/>
<g id="Group_8">
<path id="Vector_24" d="M110.746 19.25C118.943 26.5715 126.749 34.3304 134.112 42.485C125.908 35.1636 118.109 27.4012 110.746 19.25Z" fill="white"/>
<path id="Vector_25" d="M134.503 19.25C127.14 27.4012 119.337 35.1636 111.137 42.485C118.496 34.3269 126.302 26.5715 134.503 19.25Z" fill="white"/>
</g>
<path id="Vector_26" d="M98.0999 40.219C87.6127 37.4938 74.982 38.1881 68.918 53.64C68.9424 53.6504 68.9703 53.6608 68.9948 53.6712C70.7787 50.3663 79.5378 36.3309 97.8032 40.6182C107.016 42.899 113.747 39.5143 115.147 38.4971C116.547 37.4799 119.354 33.6855 119.354 33.6855C119.354 33.6855 108.748 42.9893 98.0999 40.219Z" fill="white"/>
</g>
</g>
</g>
<path id="Vector_27" d="M81.9111 68.5593C81.1989 60.8386 74.3284 55.1522 66.5608 55.8604C58.7966 56.5686 53.0782 63.404 53.7904 71.1247C54.5026 78.8455 61.373 84.5318 69.1407 83.8236C76.9049 83.1155 82.6233 76.2835 81.9111 68.5593ZM67.9642 80.7791C61.8408 81.338 56.4192 76.8528 55.8571 70.7637C55.2985 64.6746 59.8055 59.2833 65.9324 58.7244C72.0557 58.1655 77.4774 62.6507 78.0395 68.7398C78.6015 74.8323 74.091 80.2202 67.9642 80.7791Z" fill="white"/>
<path id="Vector_28" d="M62.148 77.1925C57.1244 74.1306 56.9987 66.6772 61.5546 63.1119C62.9824 61.9628 64.7803 61.2998 66.5398 61.3067C63.2966 62.3343 60.7307 64.7817 59.8439 68.0172C58.9258 71.2353 59.9277 74.6999 62.148 77.1925Z" fill="white"/>
<path id="Vector_29" d="M63.9727 57.2299L64.437 53.9736C64.5592 53.1127 65.3482 52.5017 66.2174 52.5954L72.9797 53.3106C73.8873 53.4078 74.5367 54.2271 74.418 55.1262L74.034 58.0214L63.9727 57.2299Z" fill="white"/>
</g>
</svg>
