<svg width="16" height="16" viewBox="0 0 16 16" fill="none" xmlns="http://www.w3.org/2000/svg">
<g id="Group">
<path id="Vector" d="M14.8711 11.372C12.5493 10.248 12.1792 8.51267 12.1627 8.38396C12.1428 8.22804 12.1202 8.10545 12.2922 7.94686C12.4581 7.79362 13.194 7.33813 13.3982 7.19563C13.7357 6.95965 13.8843 6.72405 13.7747 6.43444C13.6981 6.23408 13.5116 6.15861 13.315 6.15861C13.253 6.1588 13.1913 6.16574 13.1308 6.1793C12.7599 6.25975 12.3998 6.44555 12.1915 6.49573C12.1664 6.50219 12.1407 6.50566 12.1148 6.50607C12.0037 6.50607 11.9616 6.45666 11.9723 6.32296C11.9984 5.91765 12.0535 5.12658 11.9896 4.38761C11.9018 3.3709 11.5739 2.86715 11.1851 2.42162C10.997 2.20556 10.1236 1.27734 8.43798 1.27734C6.75241 1.27734 5.88012 2.20556 5.69318 2.41894C5.3032 2.86447 4.97566 3.36822 4.8887 4.38493C4.82472 5.1239 4.88219 5.91459 4.90594 6.32028C4.9136 6.44746 4.87452 6.50339 4.76343 6.50339C4.73757 6.50295 4.71186 6.49948 4.68681 6.49305C4.4788 6.44286 4.1187 6.25707 3.74787 6.17662C3.68738 6.16306 3.6256 6.15612 3.56361 6.15593C3.36632 6.15593 3.18052 6.23255 3.1039 6.43175C2.99434 6.72137 3.14221 6.95696 3.48086 7.19294C3.68504 7.33545 4.42095 7.79056 4.58683 7.94417C4.75845 8.10277 4.73623 8.22536 4.71631 8.38128C4.69984 8.51191 4.32939 10.2473 2.0079 11.3693C1.8719 11.4352 1.64052 11.5747 2.0485 11.7999C2.68902 12.1539 3.1154 12.116 3.44677 12.3293C3.72795 12.5105 3.56169 12.9013 3.76626 13.0423C4.01756 13.2158 4.76036 13.03 5.71999 13.3468C6.52447 13.6119 7.01329 14.3609 8.4399 14.3609C9.86651 14.3609 10.3695 13.6085 11.1598 13.3468C12.1175 13.03 12.8618 13.2158 13.1135 13.0423C13.3177 12.9013 13.1518 12.5105 13.433 12.3293C13.7644 12.116 14.1904 12.1539 14.8313 11.7999C15.2385 11.5774 15.0071 11.4379 14.8711 11.372Z" fill="url(#paint0_linear_421_2678)"/>
<path id="Vector_2" d="M15.8815 11.2401C15.7773 10.9567 15.5789 10.805 15.3529 10.6793C15.3104 10.6544 15.2713 10.6345 15.2379 10.6192C15.1705 10.5843 15.1016 10.5506 15.033 10.515C14.3285 10.1415 13.7784 9.67027 13.3968 9.11173C13.2885 8.95449 13.1945 8.78781 13.116 8.61372C13.0835 8.52063 13.085 8.46776 13.1084 8.41949C13.1316 8.38231 13.1622 8.35034 13.1984 8.32564C13.3195 8.24557 13.4443 8.16436 13.529 8.10958C13.6799 8.01189 13.7995 7.93451 13.8765 7.87973C14.1657 7.67746 14.368 7.46255 14.4944 7.22235C14.5826 7.05641 14.634 6.87341 14.6452 6.68581C14.6564 6.49821 14.627 6.3104 14.5591 6.13516C14.3676 5.63102 13.8914 5.31804 13.3145 5.31804C13.1928 5.31792 13.0714 5.33077 12.9525 5.35635C12.9207 5.36324 12.8889 5.37052 12.8578 5.37857C12.8632 5.03379 12.8555 4.66986 12.8249 4.31167C12.7161 3.05247 12.2752 2.39242 11.8155 1.86606C11.5211 1.53622 11.1743 1.25717 10.7892 1.04013C10.0916 0.641722 9.30052 0.439453 8.43819 0.439453C7.57587 0.439453 6.78863 0.641722 6.09027 1.04013C5.70416 1.25724 5.35672 1.53685 5.06207 1.86759C4.60237 2.39395 4.16144 3.05516 4.05264 4.31321C4.02199 4.67139 4.01433 5.03724 4.01931 5.3801C3.98828 5.37205 3.95687 5.36478 3.92507 5.35788C3.8061 5.3323 3.68475 5.31946 3.56306 5.31957C2.98575 5.31957 2.50881 5.63255 2.31803 6.13669C2.24984 6.31201 2.22019 6.49995 2.2311 6.68775C2.24201 6.87554 2.29321 7.05879 2.38124 7.22504C2.50804 7.46523 2.71031 7.68014 2.99954 7.88241C3.07616 7.93604 3.19606 8.01342 3.347 8.11226C3.4286 8.16513 3.54774 8.24251 3.66458 8.31989C3.70546 8.34632 3.7402 8.3812 3.76648 8.42218C3.79099 8.47236 3.79176 8.52637 3.75537 8.62598C3.67796 8.79641 3.58553 8.95961 3.47916 9.11364C3.10604 9.65954 2.57202 10.1223 1.89013 10.4927C1.52888 10.6843 1.15346 10.8122 0.994859 11.2432C0.875337 11.5685 0.953486 11.9385 1.25727 12.2503C1.36876 12.3667 1.49808 12.4646 1.64036 12.5403C1.9364 12.703 2.2512 12.829 2.57776 12.9154C2.64516 12.9328 2.70914 12.9614 2.76701 13C2.87772 13.097 2.86201 13.2429 3.0095 13.4567C3.08354 13.5672 3.17761 13.6628 3.28685 13.7386C3.59639 13.9524 3.94423 13.9658 4.31276 13.98C4.64566 13.9926 5.02299 14.0072 5.45397 14.1493C5.63248 14.2083 5.8179 14.3224 6.03281 14.4558C6.54882 14.773 7.25523 15.207 8.43743 15.207C9.61963 15.207 10.331 14.7707 10.8509 14.4523C11.0642 14.3213 11.2485 14.2083 11.422 14.1508C11.853 14.0083 12.2303 13.9941 12.5633 13.9815C12.9318 13.9673 13.2796 13.9539 13.5892 13.7402C13.7185 13.6499 13.8263 13.5322 13.9048 13.3954C14.0109 13.2149 14.0082 13.0889 14.1078 13.0008C14.1621 12.964 14.2222 12.9365 14.2856 12.9196C14.6166 12.8329 14.9357 12.7058 15.2356 12.5411C15.3868 12.46 15.5229 12.3535 15.6379 12.2262L15.6417 12.2216C15.9267 11.9167 15.9984 11.5573 15.8815 11.2401ZM14.8307 11.8048C14.1898 12.1588 13.7638 12.1209 13.4325 12.3342C13.1509 12.5154 13.3175 12.9062 13.113 13.0472C12.8617 13.2207 12.1189 13.0349 11.1592 13.3517C10.3678 13.6134 9.86289 14.3657 8.43934 14.3657C7.0158 14.3657 6.52277 13.6149 5.71829 13.3498C4.76058 13.033 4.01625 13.2188 3.76456 13.0452C3.56038 12.9043 3.72625 12.5135 3.44507 12.3323C3.11332 12.1189 2.68733 12.1569 2.04681 11.8048C1.63882 11.5796 1.87021 11.4401 2.0062 11.3742C4.3277 10.2503 4.69814 8.51488 4.71461 8.38617C4.73453 8.23025 4.75675 8.10766 4.58513 7.94907C4.41925 7.79583 3.68335 7.34034 3.47916 7.19784C3.14128 6.96186 2.99265 6.72626 3.10221 6.43665C3.17882 6.23629 3.36577 6.16083 3.56191 6.16083C3.6239 6.16102 3.68568 6.16795 3.74617 6.18151C4.117 6.26196 4.4771 6.44776 4.68511 6.49794C4.71016 6.50437 4.73588 6.50784 4.76173 6.50828C4.87283 6.50828 4.9119 6.45235 4.90424 6.32517C4.88049 5.91948 4.82302 5.1288 4.887 4.38982C4.97473 3.37312 5.30226 2.86936 5.69148 2.42383C5.87842 2.20969 6.75684 1.28147 8.43666 1.28147C10.1165 1.28147 10.9972 2.20586 11.1841 2.41924C11.5737 2.86476 11.9017 3.36852 11.9886 4.38523C12.0526 5.1242 11.9974 5.91527 11.9714 6.32057C11.9626 6.45427 12.0028 6.50369 12.1139 6.50369C12.1398 6.50327 12.1655 6.4998 12.1905 6.49334C12.3989 6.44316 12.759 6.25736 13.1298 6.17691C13.1903 6.16335 13.2521 6.15642 13.3141 6.15623C13.5114 6.15623 13.6972 6.23285 13.7738 6.43205C13.8834 6.72166 13.7355 6.95726 13.3972 7.19324C13.193 7.33575 12.4571 7.79085 12.2913 7.94447C12.1193 8.10307 12.1419 8.22565 12.1618 8.38157C12.1783 8.5122 12.5483 10.2476 14.8702 11.3696C15.0073 11.4382 15.2387 11.5776 14.8307 11.8048Z" fill="url(#paint1_linear_421_2678)"/>
</g>
<defs>
<linearGradient id="paint0_linear_421_2678" x1="1.81836" y1="1.27734" x2="16.428" y2="3.04202" gradientUnits="userSpaceOnUse">
<stop stop-color="#D33AFF"/>
<stop offset="1" stop-color="#FF71A4"/>
</linearGradient>
<linearGradient id="paint1_linear_421_2678" x1="0.941406" y1="0.439453" x2="17.4816" y2="2.44358" gradientUnits="userSpaceOnUse">
<stop stop-color="#D33AFF"/>
<stop offset="1" stop-color="#FF71A4"/>
</linearGradient>
</defs>
</svg>
