<svg width="17" height="18" viewBox="0 0 17 18" fill="none" xmlns="http://www.w3.org/2000/svg">
<g id="Telegram" clip-path="url(#clip0_417_5822)">
<path id="Vector" fill-rule="evenodd" clip-rule="evenodd" d="M1.52773 8.50674C5.86877 6.61542 8.76348 5.36855 10.2119 4.76612C14.3473 3.04607 15.2066 2.74728 15.7666 2.73741C15.8898 2.73524 16.1652 2.76577 16.3437 2.91054C16.4943 3.03278 16.5358 3.19791 16.5556 3.3138C16.5754 3.4297 16.6001 3.69372 16.5805 3.90001C16.3564 6.25464 15.3867 11.9687 14.8934 14.6059C14.6847 15.7218 14.2737 16.096 13.8757 16.1326C13.011 16.2121 12.3543 15.5611 11.5168 15.0121C10.2062 14.1529 9.46578 13.6181 8.19361 12.7798C6.7234 11.811 7.67647 11.2785 8.51434 10.4082C8.73362 10.1805 12.5437 6.71489 12.6175 6.4005C12.6267 6.36119 12.6353 6.21462 12.5482 6.13723C12.4611 6.05984 12.3326 6.08631 12.2399 6.10735C12.1084 6.13719 10.0147 7.52105 5.95875 10.2589C5.36445 10.667 4.82616 10.8659 4.34387 10.8554C3.81218 10.844 2.78943 10.5548 2.02912 10.3077C1.09657 10.0045 0.355394 9.84426 0.419933 9.32945C0.45355 9.0613 0.822816 8.78706 1.52773 8.50674Z" fill="url(#paint0_linear_417_5822)"/>
</g>
<defs>
<linearGradient id="paint0_linear_417_5822" x1="0.416016" y1="2.7373" x2="18.1498" y2="5.29102" gradientUnits="userSpaceOnUse">
<stop stop-color="#D33AFF"/>
<stop offset="1" stop-color="#FF71A4"/>
</linearGradient>
<clipPath id="clip0_417_5822">
<rect width="16.8" height="16.8" fill="white" transform="translate(0.101562 0.601562)"/>
</clipPath>
</defs>
</svg>
