<svg width="28" height="28" viewBox="0 0 28 28" fill="none" xmlns="http://www.w3.org/2000/svg">
<path d="M19.2409 2H15.0976V18.3478C15.0976 20.2957 13.504 21.8957 11.5209 21.8957C9.53771 21.8957 7.94412 20.2957 7.94412 18.3478C7.94412 16.4348 9.5023 14.8695 11.4146 14.8V10.6957C7.20044 10.7652 3.80078 14.1391 3.80078 18.3478C3.80078 22.5913 7.27127 26 11.5563 26C15.8412 26 19.3117 22.5565 19.3117 18.3478V9.9652C20.8699 11.0783 22.7822 11.7391 24.8008 11.7739V7.66957C21.6844 7.56522 19.2409 5.06087 19.2409 2Z" fill="url(#paint0_linear_746_82401)"/>
<defs>
<linearGradient id="paint0_linear_746_82401" x1="14.3008" y1="2" x2="14.3008" y2="26" gradientUnits="userSpaceOnUse">
<stop stop-color="#D33AFF"/>
<stop offset="1" stop-color="#FF71A4"/>
</linearGradient>
</defs>
</svg>
