<svg width="14" height="15" viewBox="0 0 14 15" fill="none" xmlns="http://www.w3.org/2000/svg">
<g id="Frame 48101886">
<path id="twitter-3" d="M12.75 3.82873C12.3366 4.02897 11.8995 4.16136 11.4522 4.22179C11.9233 3.90652 12.2763 3.41149 12.446 2.82819C12.0036 3.12253 11.5193 3.33021 11.0142 3.44224C10.6759 3.03157 10.2249 2.75801 9.73223 2.66451C9.23953 2.57101 8.73297 2.66288 8.2921 2.92569C7.85123 3.18849 7.50102 3.60735 7.29647 4.11648C7.09192 4.62561 7.04462 5.19617 7.16199 5.73858C6.2653 5.68817 5.38814 5.42769 4.5875 4.97407C3.78685 4.52046 3.08063 3.88384 2.51472 3.1056C2.31713 3.49099 2.21292 3.92724 2.21237 4.37131C2.21105 4.78605 2.30173 5.1947 2.47631 5.56078C2.6509 5.92685 2.90396 6.23896 3.2129 6.46923C2.85434 6.45897 2.5033 6.35219 2.18963 6.15797V6.18901C2.19243 6.76919 2.37458 7.33051 2.70528 7.77805C3.03598 8.22559 3.49494 8.5319 4.00457 8.6452C3.80846 8.71183 3.60485 8.74697 3.39987 8.74958C3.25871 8.7475 3.11791 8.73304 2.97877 8.70632C3.12382 9.20535 3.40453 9.64151 3.78189 9.95414C4.15925 10.2668 4.61448 10.4403 5.08428 10.4507C4.29171 11.1468 3.31343 11.5272 2.30501 11.5311C2.11946 11.5315 1.93408 11.5186 1.75 11.4926C2.78103 12.2358 3.98254 12.6303 5.20977 12.6285C6.0566 12.6383 6.8967 12.4596 7.68098 12.1028C8.46526 11.746 9.178 11.2183 9.77759 10.5505C10.3772 9.8827 10.8516 9.08821 11.1731 8.21342C11.4946 7.33863 11.6567 6.40108 11.6501 5.45553V5.13111C12.0816 4.77187 12.4538 4.33054 12.75 3.82873Z" fill="url(#paint0_linear_712_2332)"/>
</g>
<defs>
<linearGradient id="paint0_linear_712_2332" x1="1.75" y1="2.62891" x2="13.8541" y2="4.21785" gradientUnits="userSpaceOnUse">
<stop stop-color="#FF71A4"/>
<stop offset="1" stop-color="#D33BFE"/>
</linearGradient>
</defs>
</svg>
