<svg width="48" height="48" viewBox="0 0 48 48" fill="none" xmlns="http://www.w3.org/2000/svg">
<path opacity="0.2" d="M23.9988 47.9996C37.2532 47.9996 47.9979 37.2549 47.9979 24.0005C47.9979 10.7462 37.2532 0.00146484 23.9988 0.00146484C10.7445 0.00146484 -0.000244141 10.7462 -0.000244141 24.0005C-0.000244141 37.2549 10.7445 47.9996 23.9988 47.9996Z" fill="url(#paint0_linear_4040_193871)"/>
<path d="M27.5987 16.4872H29.6165V13.0719C28.6395 12.9706 27.6579 12.9207 26.6756 12.9224C26.0066 12.8745 25.3352 12.9733 24.7084 13.212C24.0816 13.4506 23.5144 13.8234 23.0467 14.3041C22.579 14.7849 22.2219 15.362 22.0006 15.9951C21.7792 16.6283 21.6988 17.3022 21.7651 17.9696V20.783H18.4606V24.6044H21.7651V34.3887H25.7157V24.6044H29.0017L29.4965 20.7812H25.7083V18.3444C25.7083 17.2182 26.0111 16.4872 27.5987 16.4872Z" fill="url(#paint1_linear_4040_193871)"/>
<defs>
<linearGradient id="paint0_linear_4040_193871" x1="-0.000244141" y1="0.00146484" x2="52.9715" y2="6.32306" gradientUnits="userSpaceOnUse">
<stop stop-color="#D33AFF"/>
<stop offset="1" stop-color="#FF71A4"/>
</linearGradient>
<linearGradient id="paint1_linear_4040_193871" x1="18.4606" y1="12.9106" x2="30.9" y2="13.6817" gradientUnits="userSpaceOnUse">
<stop stop-color="#D33AFF"/>
<stop offset="1" stop-color="#FF71A4"/>
</linearGradient>
</defs>
</svg>
