<svg xmlns="http://www.w3.org/2000/svg" width="22.555" height="22.555" viewBox="0 0 22.555 22.555">
  <g id="Icon_feather-settings" data-name="Icon feather-settings" transform="translate(-0.75 -0.75)">
    <path id="Path_155950" data-name="Path 155950" d="M19.242,16.371A2.871,2.871,0,1,1,16.371,13.5,2.871,2.871,0,0,1,19.242,16.371Z" transform="translate(-4.344 -4.344)" fill="none" stroke="#ed1c24" stroke-linecap="round" stroke-linejoin="round" stroke-width="1.5"/>
    <path id="Path_155951" data-name="Path 155951" d="M19.109,14.9a1.579,1.579,0,0,0,.316,1.742l.057.057a1.915,1.915,0,1,1-2.708,2.708l-.057-.057a1.592,1.592,0,0,0-2.7,1.129v.163a1.914,1.914,0,0,1-3.828,0v-.086a1.579,1.579,0,0,0-1.034-1.445,1.579,1.579,0,0,0-1.742.316l-.057.057a1.915,1.915,0,1,1-2.708-2.708l.057-.057a1.592,1.592,0,0,0-1.129-2.7H3.414a1.914,1.914,0,1,1,0-3.828H3.5A1.579,1.579,0,0,0,4.945,9.156a1.579,1.579,0,0,0-.316-1.742l-.057-.057A1.915,1.915,0,1,1,7.28,4.649l.057.057a1.579,1.579,0,0,0,1.742.316h.077a1.579,1.579,0,0,0,.957-1.445V3.414a1.914,1.914,0,0,1,3.828,0V3.5a1.592,1.592,0,0,0,2.7,1.129l.057-.057A1.915,1.915,0,1,1,19.406,7.28l-.057.057a1.579,1.579,0,0,0-.316,1.742v.077a1.579,1.579,0,0,0,1.445.957h.163a1.914,1.914,0,0,1,0,3.828h-.086a1.579,1.579,0,0,0-1.445.957Z" transform="translate(0 0)" fill="none" stroke="#ed1c24" stroke-linecap="round" stroke-linejoin="round" stroke-width="1.5"/>
  </g>
</svg>
