<svg width="48" height="48" viewBox="0 0 48 48" fill="none" xmlns="http://www.w3.org/2000/svg">
<path opacity="0.2" d="M23.9991 47.9996C37.2534 47.9996 47.9982 37.2549 47.9982 24.0005C47.9982 10.7462 37.2534 0.00146484 23.9991 0.00146484C10.7448 0.00146484 0 10.7462 0 24.0005C0 37.2549 10.7448 47.9996 23.9991 47.9996Z" fill="url(#paint0_linear_4040_193865)"/>
<path d="M24.7384 14.771C22.0265 14.771 21.6868 14.7821 20.6253 14.8301C19.7994 14.8462 18.982 15.0003 18.2069 15.2861C17.5438 15.5313 16.9417 15.9174 16.4421 16.4177C15.9366 16.9063 15.5446 17.4999 15.2938 18.1567C15.0035 18.918 14.8461 19.7236 14.8286 20.5382C14.7806 21.5867 14.7695 21.9209 14.7695 24.5848C14.7695 27.2487 14.7806 27.5847 14.8286 28.6314C14.8451 29.4471 15.0018 30.254 15.292 31.0165C15.5428 31.6733 15.9347 32.267 16.4402 32.7555C16.9398 33.2559 17.5419 33.6419 18.2051 33.8872C18.9802 34.1729 19.7976 34.327 20.6235 34.3432C21.6868 34.3912 22.0246 34.4022 24.731 34.4022C27.4374 34.4022 27.777 34.3912 28.8385 34.3432C29.6644 34.327 30.4818 34.1729 31.2569 33.8872C31.92 33.6419 32.5222 33.2559 33.0218 32.7555C33.5279 32.2671 33.9205 31.6735 34.1719 31.0165C34.4618 30.2545 34.6186 29.4484 34.6352 28.6332C34.6832 27.5865 34.6943 27.2524 34.6943 24.5866C34.6943 21.9209 34.6832 21.5867 34.6352 20.54C34.6186 19.7249 34.4618 18.9187 34.1719 18.1567C33.9211 17.4999 33.5291 16.9063 33.0236 16.4177C32.524 15.9174 31.9219 15.5313 31.2587 15.2861C30.4837 15.0003 29.6663 14.8462 28.8404 14.8301C27.777 14.7821 27.4392 14.771 24.7384 14.771ZM24.7384 27.8579C24.0938 27.8477 23.4665 27.6473 22.9355 27.2818C22.4044 26.9162 21.9931 26.402 21.7534 25.8035C21.5137 25.205 21.4561 24.5491 21.588 23.918C21.7198 23.2869 22.0352 22.7089 22.4945 22.2565C22.9538 21.8041 23.5365 21.4975 24.1695 21.3752C24.8025 21.2529 25.4575 21.3203 26.0523 21.5691C26.6471 21.8179 27.1551 22.2368 27.5125 22.7733C27.87 23.3099 28.0609 23.9401 28.0613 24.5848C28.0582 25.0179 27.9697 25.4462 27.801 25.8451C27.6323 26.2441 27.3866 26.6059 27.078 26.9098C26.7694 27.2138 26.404 27.454 26.0025 27.6166C25.6011 27.7793 25.1715 27.8613 24.7384 27.8579ZM31.2532 19.3474C31.2569 19.5848 31.1898 19.8179 31.0606 20.017C30.9314 20.2161 30.7459 20.3723 30.5277 20.4657C30.3094 20.5591 30.0683 20.5854 29.8351 20.5414C29.6018 20.4973 29.387 20.3849 29.2178 20.2183C29.0487 20.0518 28.9329 19.8387 28.8852 19.6061C28.8375 19.3736 28.8601 19.1321 28.9501 18.9125C29.0401 18.6928 29.1934 18.5049 29.3905 18.3726C29.5876 18.2403 29.8196 18.1697 30.0569 18.1696C30.3705 18.1691 30.6715 18.2927 30.8942 18.5134C31.117 18.7341 31.2434 19.0339 31.2458 19.3474H31.2532Z" fill="url(#paint1_linear_4040_193865)"/>
<defs>
<linearGradient id="paint0_linear_4040_193865" x1="0" y1="0.00146484" x2="52.9718" y2="6.32306" gradientUnits="userSpaceOnUse">
<stop stop-color="#D33AFF"/>
<stop offset="1" stop-color="#FF71A4"/>
</linearGradient>
<linearGradient id="paint1_linear_4040_193865" x1="14.7695" y1="14.771" x2="36.7496" y2="17.4333" gradientUnits="userSpaceOnUse">
<stop stop-color="#D33AFF"/>
<stop offset="1" stop-color="#FF71A4"/>
</linearGradient>
</defs>
</svg>
