<svg width="48" height="48" viewBox="0 0 48 48" fill="none" xmlns="http://www.w3.org/2000/svg">
<path d="M23.9992 47.9996C37.2535 47.9996 47.9983 37.2549 47.9983 24.0005C47.9983 10.7462 37.2535 0.00146484 23.9992 0.00146484C10.7449 0.00146484 0.00012207 10.7462 0.00012207 24.0005C0.00012207 37.2549 10.7449 47.9996 23.9992 47.9996Z" fill="#3C2342"/>
<path d="M37.3462 17.1226C36.4401 17.5157 35.4819 17.7756 34.5014 17.8942C35.5341 17.2753 36.3079 16.3035 36.6797 15.1583C35.71 15.7362 34.6486 16.1439 33.5414 16.3638C32.7997 15.5576 31.8113 15.0205 30.7313 14.837C29.6513 14.6534 28.541 14.8338 27.5746 15.3497C26.6082 15.8657 25.8406 16.688 25.3922 17.6875C24.9438 18.687 24.8402 19.8071 25.0974 20.872C23.1319 20.773 21.2092 20.2616 19.4542 19.3711C17.6992 18.4806 16.1512 17.2308 14.9107 15.7029C14.4776 16.4595 14.2492 17.316 14.248 18.1877C14.2451 19.002 14.4439 19.8042 14.8266 20.5229C15.2093 21.2416 15.764 21.8543 16.4411 22.3064C15.6552 22.2862 14.8857 22.0766 14.1982 21.6953V21.7562C14.2043 22.8952 14.6036 23.9972 15.3284 24.8758C16.0533 25.7544 17.0594 26.3558 18.1765 26.5782C17.7466 26.709 17.3003 26.778 16.851 26.7831C16.5415 26.779 16.2329 26.7506 15.9279 26.6982C16.2459 27.6779 16.8612 28.5341 17.6883 29.1479C18.5155 29.7616 19.5134 30.1024 20.5431 30.1227C18.8058 31.4894 16.6615 32.236 14.4511 32.2438C14.0443 32.2445 13.638 32.2192 13.2345 32.1681C15.4945 33.6272 18.1282 34.4017 20.8182 34.3982C22.6744 34.4174 24.5159 34.0665 26.235 33.3661C27.9542 32.6656 29.5165 31.6296 30.8307 30.3186C32.145 29.0076 33.1849 27.4479 33.8896 25.7305C34.5943 24.0131 34.9498 22.1726 34.9352 20.3163V19.6794C35.8811 18.9741 36.6969 18.1077 37.3462 17.1226Z" fill="#836B8A"/>
</svg>
