<svg width="48" height="48" viewBox="0 0 48 48" fill="none" xmlns="http://www.w3.org/2000/svg">
<path d="M23.9992 47.9996C37.2535 47.9996 47.9983 37.2549 47.9983 24.0005C47.9983 10.7462 37.2535 0.00146484 23.9992 0.00146484C10.7449 0.00146484 0.00012207 10.7462 0.00012207 24.0005C0.00012207 37.2549 10.7449 47.9996 23.9992 47.9996Z" fill="#3C2342"/>
<path d="M28.0001 20.2459V27.5005C28.0001 31.0904 25.09 34.0005 21.5001 34.0005C17.9103 34.0005 15.0001 31.0904 15.0001 27.5005C15.0001 23.9106 17.9103 21.0005 21.5001 21.0005C22.0164 21.0005 22.5186 21.0607 23.0001 21.1744V24.3373C22.5455 24.1213 22.0369 24.0005 21.5001 24.0005C19.5671 24.0005 18.0001 25.5675 18.0001 27.5005C18.0001 29.4335 19.5671 31.0005 21.5001 31.0005C23.4331 31.0005 25.0001 29.4335 25.0001 27.5005V14.0005H28.0001C28.0001 16.7619 30.2387 19.0005 33.0001 19.0005V22.0005C31.1082 22.0005 29.3697 21.3438 28.0001 20.2459Z" fill="#836B8A"/>
</svg>
