<svg width="49" height="48" viewBox="0 0 49 48" fill="none" xmlns="http://www.w3.org/2000/svg">
<g clip-path="url(#clip0_1070_200782)">
<path d="M24.9972 47.9996C38.2516 47.9996 48.9963 37.2549 48.9963 24.0005C48.9963 10.7462 38.2516 0.00146484 24.9972 0.00146484C11.7429 0.00146484 0.998169 10.7462 0.998169 24.0005C0.998169 37.2549 11.7429 47.9996 24.9972 47.9996Z" fill="#F2F2F2"/>
<path d="M29 20.2459V27.5005C29 31.0904 26.0899 34.0005 22.5 34.0005C18.9102 34.0005 16 31.0904 16 27.5005C16 23.9106 18.9102 21.0005 22.5 21.0005C23.0163 21.0005 23.5185 21.0607 24 21.1744V24.3373C23.5454 24.1213 23.0368 24.0005 22.5 24.0005C20.567 24.0005 19 25.5675 19 27.5005C19 29.4335 20.567 31.0005 22.5 31.0005C24.433 31.0005 26 29.4335 26 27.5005V14.0005H29C29 16.7619 31.2386 19.0005 34 19.0005V22.0005C32.1081 22.0005 30.3696 21.3438 29 20.2459Z" fill="#B7A6AE"/>
</g>
<defs>
<clipPath id="clip0_1070_200782">
<rect width="48" height="48" fill="white" transform="translate(0.998047)"/>
</clipPath>
</defs>
</svg>
