<svg width="48" height="48" viewBox="0 0 48 48" fill="none" xmlns="http://www.w3.org/2000/svg">
<circle cx="24" cy="24" r="24" fill="#3C2342"/>
<path d="M34.9199 29.7822C30.9395 27.8554 30.3051 24.8805 30.2769 24.6598C30.2427 24.3925 30.204 24.1824 30.4989 23.9105C30.7832 23.6478 32.0448 22.867 32.3948 22.6227C32.9734 22.2181 33.2282 21.8143 33.0404 21.3178C32.909 20.9743 32.5892 20.8449 32.2523 20.8449C32.146 20.8453 32.0401 20.8572 31.9364 20.8804C31.3007 21.0183 30.6834 21.3368 30.3261 21.4229C30.2832 21.4339 30.2391 21.4399 30.1948 21.4406C30.0044 21.4406 29.9321 21.3559 29.9505 21.1267C29.9952 20.4319 30.0897 19.0757 29.9801 17.8089C29.8297 16.066 29.2675 15.2024 28.6009 14.4387C28.2785 14.0683 26.7812 12.4771 23.8916 12.4771C21.0021 12.4771 19.5067 14.0683 19.1862 14.4341C18.5177 15.1978 17.9562 16.0614 17.8071 17.8043C17.6975 19.0712 17.796 20.4266 17.8367 21.1221C17.8498 21.3401 17.7828 21.436 17.5924 21.436C17.5481 21.4352 17.504 21.4293 17.461 21.4183C17.1045 21.3322 16.4871 21.0137 15.8514 20.8758C15.7477 20.8526 15.6418 20.8407 15.5356 20.8403C15.1973 20.8403 14.8788 20.9717 14.7475 21.3132C14.5597 21.8097 14.8132 22.2135 15.3937 22.6181C15.7437 22.8624 17.0053 23.6426 17.2896 23.9059C17.5839 24.1778 17.5458 24.3879 17.5116 24.6552C17.4834 24.8792 16.8483 27.8541 12.8686 29.7776C12.6355 29.8906 12.2388 30.1296 12.9382 30.5158C14.0363 31.1226 14.7672 31.0576 15.3353 31.4233C15.8173 31.734 15.5323 32.4038 15.883 32.6455C16.3138 32.943 17.5871 32.6245 19.2322 33.1676C20.6113 33.622 21.4493 34.9059 23.8949 34.9059C26.3405 34.9059 27.2028 33.6161 28.5576 33.1676C30.1994 32.6245 31.4754 32.943 31.9069 32.6455C32.2569 32.4038 31.9725 31.734 32.4546 31.4233C33.0226 31.0576 33.7529 31.1226 34.8516 30.5158C35.5497 30.1342 35.153 29.8952 34.9199 29.7822Z" fill="#836B8A"/>
</svg>
