<svg width="48" height="48" viewBox="0 0 48 48" fill="none" xmlns="http://www.w3.org/2000/svg">
<path opacity="0.2" d="M23.9991 48.0001C37.2534 48.0001 47.9982 37.2554 47.9982 24.001C47.9982 10.7467 37.2534 0.00195312 23.9991 0.00195312C10.7448 0.00195312 0 10.7467 0 24.001C0 37.2554 10.7448 48.0001 23.9991 48.0001Z" fill="url(#paint0_linear_4040_193880)"/>
<path d="M35.4537 21.6272C35.5058 20.1351 35.1793 18.6541 34.5048 17.3221C34.0483 16.7761 33.4145 16.4076 32.7141 16.281C29.8198 16.0207 26.9136 15.9153 24.008 15.9653C21.1123 15.9153 18.216 16.0195 15.3314 16.2773C14.761 16.381 14.2331 16.6485 13.8121 17.0471C13.005 18.0673 12.5956 19.3458 12.6601 20.6451C12.5091 22.8905 12.5091 25.1435 12.6601 27.3888C12.6901 28.0921 12.7947 28.7901 12.9721 29.4712C13.0973 29.997 13.3511 30.4835 13.7105 30.8872C14.1343 31.3073 14.6746 31.5903 15.2612 31.6994C17.5054 31.9764 19.7665 32.0912 22.0271 32.0428C25.6695 32.0945 28.8576 32.0428 32.644 31.7511C33.2453 31.6488 33.8011 31.3654 34.2371 30.9389C34.5288 30.6474 34.7466 30.2904 34.8722 29.8977C35.2443 28.7554 35.427 27.56 35.4131 26.3587C35.4537 25.7698 35.4537 22.2512 35.4537 21.6272ZM21.6524 26.9809V20.5343L27.8128 23.7705C26.0848 24.7286 23.8068 25.8141 21.6524 26.9772V26.9809Z" fill="url(#paint1_linear_4040_193880)"/>
<defs>
<linearGradient id="paint0_linear_4040_193880" x1="0" y1="0.00195313" x2="52.9718" y2="6.32355" gradientUnits="userSpaceOnUse">
<stop stop-color="#D33AFF"/>
<stop offset="1" stop-color="#FF71A4"/>
</linearGradient>
<linearGradient id="paint1_linear_4040_193880" x1="12.5469" y1="15.9531" x2="37.475" y2="20.1848" gradientUnits="userSpaceOnUse">
<stop stop-color="#D33AFF"/>
<stop offset="1" stop-color="#FF71A4"/>
</linearGradient>
</defs>
</svg>
