<svg xmlns="http://www.w3.org/2000/svg" width="25.461" height="25.464" viewBox="0 0 25.461 25.464">
  <g id="_005-chat" data-name="005-chat" transform="translate(-0.5 -0.002)">
    <path id="Path_156041" data-name="Path 156041" d="M25.961,12.218A12.5,12.5,0,0,0,13.231,0,12.5,12.5,0,0,0,.5,12.218v.021a12.017,12.017,0,0,0,3.995,8.885V24.2a1.248,1.248,0,0,0,1.248,1.264,1.241,1.241,0,0,0,.659-.19L8.875,23.73a13.064,13.064,0,0,0,4.331.736h.019l.245,0A12.5,12.5,0,0,0,25.961,12.252v-.034Zm-4.882,7.7a10.938,10.938,0,0,1-7.834,3.058h-.016A11.58,11.58,0,0,1,9.2,22.262a1.087,1.087,0,0,0-.956.1L5.988,23.773V20.942a1.092,1.092,0,0,0-.377-.825,10.522,10.522,0,0,1-3.618-7.876A11.008,11.008,0,0,1,13.216,1.5h.03A11.008,11.008,0,0,1,24.468,12.235,10.939,10.939,0,0,1,21.079,19.915Zm0,0" fill="#fff"/>
    <path id="Path_156042" data-name="Path 156042" d="M143.146,174.273H132.2a.747.747,0,0,0,0,1.493h10.942a.747.747,0,1,0,0-1.493Zm0,0" transform="translate(-124.444 -165.605)" fill="#fff"/>
    <path id="Path_156043" data-name="Path 156043" d="M143.146,240.688H132.2a.747.747,0,0,0,0,1.493h10.942a.747.747,0,1,0,0-1.493Zm0,0" transform="translate(-124.444 -228.716)" fill="#fff"/>
    <path id="Path_156044" data-name="Path 156044" d="M249.419,307.1h-5.38a.747.747,0,0,0,0,1.493h5.38a.747.747,0,1,0,0-1.493Zm0,0" transform="translate(-230.718 -291.827)" fill="#fff"/>
  </g>
</svg>
