<svg xmlns="http://www.w3.org/2000/svg" width="24.814" height="24.813" viewBox="0 0 24.814 24.813">
  <g id="Group_55721" data-name="Group 55721" transform="translate(-2.498 -2.903)">
    <path id="Union_49" data-name="Union 49" d="M-488.5-14617.689a12.417,12.417,0,0,1,12.407-12.407,12.417,12.417,0,0,1,12.407,12.407,12.417,12.417,0,0,1-12.407,12.406A12.417,12.417,0,0,1-488.5-14617.689Zm1.726,0A10.713,10.713,0,0,0-476.094-14607a10.714,10.714,0,0,0,10.685-10.685,10.711,10.711,0,0,0-10.685-10.682A10.71,10.71,0,0,0-486.775-14617.689Zm10.2,4.376v-2.981h-2.985a.941.941,0,0,1-.94-.939.942.942,0,0,1,.94-.94h2.985v-2.981a.936.936,0,0,1,.936-.939.939.939,0,0,1,.94.939v2.981h2.985a.939.939,0,0,1,.936.94.938.938,0,0,1-.936.939H-474.7v2.981a.94.94,0,0,1-.94.94A.937.937,0,0,1-476.575-14613.313Z" transform="translate(491 14633)" fill="#fff"/>
  </g>
</svg>
