<svg xmlns="http://www.w3.org/2000/svg" width="25.488" height="25.464" viewBox="0 0 25.488 25.464">
  <g id="Group_131411" data-name="Group 131411" transform="translate(-100 -771.001)">
    <g id="noun_play_869748" transform="translate(98.6 769.401)">
      <path id="Path_156040" data-name="Path 156040" d="M14.145,27.063A12.732,12.732,0,1,1,26.89,14.345,12.736,12.736,0,0,1,14.145,27.063Zm0-23.89A11.171,11.171,0,1,0,25.316,14.345,11.181,11.181,0,0,0,14.145,3.173Z" transform="translate(0 0)" fill="#fff"/>
    </g>
    <g id="Polygon_1" data-name="Polygon 1" transform="translate(119.5 776.5) rotate(90)" fill="none">
      <path d="M5.848,2.424a2,2,0,0,1,3.3,0l3.716,5.45A2,2,0,0,1,11.216,11H3.784A2,2,0,0,1,2.132,7.873Z" stroke="none"/>
      <path d="M 7.499999523162842 3.050272941589355 C 7.401309490203857 3.050272941589355 7.216409683227539 3.078633308410645 7.086889743804932 3.268612861633301 L 3.371159553527832 8.71832275390625 C 3.223489761352539 8.93491268157959 3.289639472961426 9.134142875671387 3.342219352722168 9.233633041381836 C 3.39479923248291 9.333112716674805 3.522139549255371 9.500002861022949 3.784279823303223 9.500002861022949 L 11.21571922302246 9.500002861022949 C 11.47785949707031 9.500002861022949 11.60519981384277 9.333112716674805 11.65777969360352 9.233633041381836 C 11.71035957336426 9.134142875671387 11.77650928497314 8.93491268157959 11.62883949279785 8.718332290649414 L 7.913109302520752 3.268612861633301 C 7.783579349517822 3.078642845153809 7.598689556121826 3.050272941589355 7.499999523162842 3.050272941589355 M 7.499999523162842 1.550272941589355 C 8.127741813659668 1.550272941589355 8.755484580993652 1.84138298034668 9.152449607849121 2.423603057861328 L 12.86817932128906 7.8733229637146 C 13.77336978912354 9.200942993164062 12.82255935668945 11.00000286102295 11.21571922302246 11.00000286102295 L 3.784279823303223 11.00000286102295 C 2.17743968963623 11.00000286102295 1.226629257202148 9.200942993164062 2.131819725036621 7.8733229637146 L 5.847549438476562 2.423603057861328 C 6.244514465332031 1.84138298034668 6.872257232666016 1.550272941589355 7.499999523162842 1.550272941589355 Z" stroke="none" fill="#fff"/>
    </g>
  </g>
</svg>
