<svg xmlns="http://www.w3.org/2000/svg" width="13.893" height="16.531" viewBox="0 0 13.893 16.531">
  <path id="Icon_awesome-apple" data-name="Icon awesome-apple" d="M11.9,10.986a3.445,3.445,0,0,1,1.845-3.13A3.965,3.965,0,0,0,10.615,6.21c-1.31-.1-2.742.764-3.266.764-.554,0-1.823-.727-2.82-.727C2.47,6.28.281,7.889.281,11.163a9.2,9.2,0,0,0,.531,3c.472,1.354,2.178,4.676,3.956,4.621.93-.022,1.587-.661,2.8-.661,1.174,0,1.783.661,2.82.661,1.794-.026,3.336-3.045,3.787-4.4A3.659,3.659,0,0,1,11.9,10.986ZM9.807,4.926a3.476,3.476,0,0,0,.886-2.676A3.913,3.913,0,0,0,8.187,3.538a3.531,3.531,0,0,0-.945,2.654A3.1,3.1,0,0,0,9.807,4.926Z" transform="translate(-0.281 -2.25)" fill="#fff"/>
</svg>
