<svg xmlns="http://www.w3.org/2000/svg" width="17.113" height="13.899" viewBox="0 0 17.113 13.899">
  <path id="Icon_awesome-twitter" data-name="Icon awesome-twitter" d="M15.354,6.845c.011.152.011.3.011.456A9.911,9.911,0,0,1,5.386,17.28,9.912,9.912,0,0,1,0,15.705a7.256,7.256,0,0,0,.847.043A7.024,7.024,0,0,0,5.2,14.25a3.514,3.514,0,0,1-3.279-2.432,4.423,4.423,0,0,0,.662.054,3.71,3.71,0,0,0,.923-.119A3.508,3.508,0,0,1,.695,8.311V8.267a3.532,3.532,0,0,0,1.585.445A3.513,3.513,0,0,1,1.194,4.021a9.97,9.97,0,0,0,7.232,3.67,3.959,3.959,0,0,1-.087-.8,3.511,3.511,0,0,1,6.07-2.4,6.905,6.905,0,0,0,2.226-.847,3.5,3.5,0,0,1-1.542,1.933,7.031,7.031,0,0,0,2.02-.543,7.54,7.54,0,0,1-1.759,1.813Z" transform="translate(0 -3.381)" fill="#fff"/>
</svg>
