<svg xmlns="http://www.w3.org/2000/svg" width="14.863" height="14.859" viewBox="0 0 14.863 14.859">
  <path id="Icon_awesome-instagram" data-name="Icon awesome-instagram" d="M7.428,5.858a3.81,3.81,0,1,0,3.81,3.81A3.8,3.8,0,0,0,7.428,5.858Zm0,6.287A2.477,2.477,0,1,1,9.9,9.667a2.481,2.481,0,0,1-2.477,2.477ZM12.282,5.7a.889.889,0,1,1-.889-.889A.887.887,0,0,1,12.282,5.7Zm2.523.9A4.4,4.4,0,0,0,13.6,3.49a4.426,4.426,0,0,0-3.113-1.2c-1.227-.07-4.9-.07-6.131,0a4.42,4.42,0,0,0-3.113,1.2A4.412,4.412,0,0,0,.047,6.6c-.07,1.227-.07,4.9,0,6.131a4.4,4.4,0,0,0,1.2,3.113,4.432,4.432,0,0,0,3.113,1.2c1.227.07,4.9.07,6.131,0a4.4,4.4,0,0,0,3.113-1.2,4.426,4.426,0,0,0,1.2-3.113c.07-1.227.07-4.9,0-6.127ZM13.22,14.048a2.508,2.508,0,0,1-1.413,1.413,16.376,16.376,0,0,1-4.38.3,16.5,16.5,0,0,1-4.38-.3,2.508,2.508,0,0,1-1.413-1.413,16.376,16.376,0,0,1-.3-4.38,16.5,16.5,0,0,1,.3-4.38A2.508,2.508,0,0,1,3.048,3.875a16.376,16.376,0,0,1,4.38-.3,16.5,16.5,0,0,1,4.38.3A2.508,2.508,0,0,1,13.22,5.287a16.376,16.376,0,0,1,.3,4.38A16.367,16.367,0,0,1,13.22,14.048Z" transform="translate(0.006 -2.237)" fill="#fff"/>
</svg>
