<svg xmlns="http://www.w3.org/2000/svg" fill="currentColor" width="25.001" height="25" viewBox="0 0 25.001 25">
  <path id="HomeIcon" d="M15.4,4.244a1.575,1.575,0,0,0-1.792,0L4.679,10.39a1.586,1.586,0,0,0-.689,1.245,62.472,62.472,0,0,0,.055,6.85c.142,1.608.521,3.734.829,5.3A1.55,1.55,0,0,0,6.4,25.036h4.155a.324.324,0,0,0,.321-.327V19.47a2.268,2.268,0,0,1,2.244-2.292h3.142a2.268,2.268,0,0,1,2.244,2.292v5.239a.324.324,0,0,0,.321.327H22.6a1.55,1.55,0,0,0,1.526-1.254c.308-1.564.686-3.689.829-5.3a62.443,62.443,0,0,0,.055-6.85,1.586,1.586,0,0,0-.689-1.245ZM12.53,2.615a3.464,3.464,0,0,1,3.941,0L25.4,8.761a3.56,3.56,0,0,1,1.535,2.8,64.275,64.275,0,0,1-.062,7.1c-.152,1.722-.549,3.937-.858,5.508A3.484,3.484,0,0,1,22.6,27H18.826a2.268,2.268,0,0,1-2.244-2.292V19.47a.324.324,0,0,0-.321-.328H13.12a.324.324,0,0,0-.321.328v5.239A2.268,2.268,0,0,1,10.556,27H6.4A3.484,3.484,0,0,1,2.989,24.17c-.309-1.571-.706-3.786-.858-5.508a64.288,64.288,0,0,1-.062-7.1A3.56,3.56,0,0,1,3.6,8.761Z" transform="translate(-2 -2)" fill-rule="evenodd"/>
</svg>
