<svg xmlns="http://www.w3.org/2000/svg" width="34" height="34" viewBox="0 0 34 34">
  <g id="moreIcon" data-name="Group 132268" transform="translate(-204 -140.887)">
    <circle id="Ellipse_1737" data-name="Ellipse 1737" cx="17" cy="17" r="17" transform="translate(204 140.887)" fill="#fff" opacity="0.237"/>
    <g id="Group_51422" data-name="Group 51422" transform="translate(219 148.886)">
      <g id="_Icons_Close_Copy_4" data-name="_Icons / Close Copy 4" transform="translate(0 0)">
        <path id="Combined_Shape" data-name="Combined Shape" d="M0,16.669a2.157,2.157,0,1,1,2.157,2.157A2.157,2.157,0,0,1,0,16.669ZM0,9.413A2.157,2.157,0,1,1,2.157,11.57,2.157,2.157,0,0,1,0,9.413ZM0,2.157A2.157,2.157,0,1,1,2.157,4.315,2.157,2.157,0,0,1,0,2.157Z" fill="#fff"/>
      </g>
    </g>
  </g>
</svg>
