<svg xmlns="http://www.w3.org/2000/svg" width="34" height="34" viewBox="0 0 34 34">
  <g id="shoutoutShareBtn" data-name="Group 132267" transform="translate(-204 -140.998)">
    <circle id="Ellipse_1737" data-name="Ellipse 1737" cx="17" cy="17" r="17" transform="translate(204 140.998)" fill="#fff" opacity="0.237"/>
    <path id="export-variant" d="M10.54,1,7.27,4.27H9.723v7.358h1.635V4.27H13.81m1.635,14.715H5.635A1.635,1.635,0,0,1,4,17.35V7.54A1.635,1.635,0,0,1,5.635,5.905H8.088V7.54H5.635v9.81h9.81V7.54H12.993V5.905h2.453A1.635,1.635,0,0,1,17.08,7.54v9.81A1.635,1.635,0,0,1,15.445,18.985Z" transform="translate(210.388 147.555)" fill="#fff"/>
  </g>
</svg>
