<svg xmlns="http://www.w3.org/2000/svg" id="sortIcon" xmlns:xlink="http://www.w3.org/1999/xlink" width="15" height="15" viewBox="0 0 15 15">
  <defs>
    <clipPath id="clip-path">
      <rect id="Rectangle_28245" data-name="Rectangle 28245" width="15" height="15" transform="translate(-21841 -12488)" fill="currentColor" stroke="currentColor" stroke-width="1"/>
    </clipPath>
  </defs>
  <g id="sort" transform="translate(21841 12488.001)" clip-path="url(#clip-path)">
    <g id="sort-2" data-name="sort" transform="translate(-21841 -12488)">
      <path id="Path_172179" data-name="Path 172179" d="M10.752,15a.586.586,0,0,1-.586-.586V5.156H7.647A1.146,1.146,0,0,1,6.838,3.2L9.507.518a1.756,1.756,0,0,1,2.49,0L14.666,3.2a1.145,1.145,0,0,1-.809,1.954h-.644a.586.586,0,0,1,0-1.172h.577l-2.624-2.64a.584.584,0,0,0-.828,0L7.713,3.984h2.453a1.173,1.173,0,0,1,1.172,1.172v9.258a.586.586,0,0,1-.586.586Zm0,0" fill="currentColor"/>
      <path id="Path_172180" data-name="Path 172180" d="M4.248,15A1.744,1.744,0,0,1,3,14.482L.334,11.8a1.146,1.146,0,0,1,.809-1.954H3.662V.586a.586.586,0,1,1,1.172,0V9.844a1.173,1.173,0,0,1-1.172,1.172H1.209l2.624,2.64a.584.584,0,0,0,.828,0l2.624-2.64H6.709a.586.586,0,1,1,0-1.172h.644A1.146,1.146,0,0,1,8.162,11.8L5.493,14.482A1.744,1.744,0,0,1,4.248,15Zm0,0" fill="currentColor"/>
    </g>
  </g>
</svg>
