<svg xmlns="http://www.w3.org/2000/svg" width="20.877" height="16.425" viewBox="0 0 20.877 16.425">
  <g id="shoutout" transform="translate(0.156 0.152)">
    <path id="Path_71897" data-name="Path 71897" d="M18.094,15.435a.952.952,0,0,0-.936.188l-4.572,4.043-4.223.809a3.989,3.989,0,0,0,.73,7.907l1.082,2.429a.95.95,0,1,0,1.735-.774l-.868-1.949,3.047-.582,5.742,2.067a.947.947,0,0,0,.5.04.969.969,0,0,0,.438-.21.953.953,0,0,0,.316-.9L18.72,16.155A.951.951,0,0,0,18.094,15.435ZM7.06,24.788a2.094,2.094,0,0,1,1.66-2.447l3.546-.68.788,4.108-3.547.679A2.093,2.093,0,0,1,7.06,24.788Zm11.847,2.434L15,25.814l-.94-4.911,3.112-2.754Z" transform="translate(-5.122 -15.259)" fill="#fff" stroke="#ff71a4" stroke-width="0.3"/>
    <path id="Path_71898" data-name="Path 71898" d="M76.026,19.542l-2.244.429a.95.95,0,0,0,.358,1.866l2.243-.431a.949.949,0,1,0-.358-1.865ZM73.376,17.73a.968.968,0,0,0,.364-.155l1.443-1.012A.949.949,0,0,0,74.1,15.008L72.651,16.02a.95.95,0,0,0,.726,1.71ZM76.7,24.486l-1.715-.407a.95.95,0,0,0-.438,1.849l1.716.406a.934.934,0,0,0,.4.009.95.95,0,0,0,.041-1.857Z" transform="translate(-56.864 -14.837)" fill="#fff" stroke="#ff71a4" stroke-width="0.3"/>
  </g>
</svg>
