<svg id="calendar" xmlns="http://www.w3.org/2000/svg" width="13.203" height="14.728" viewBox="0 0 13.203 14.728">
  <path id="Path_2980" data-name="Path 2980" d="M12.39,15.174H1.219A1.015,1.015,0,0,1,.2,14.158V2.985A1.015,1.015,0,0,1,1.219,1.97H2.234v.508a1.524,1.524,0,0,0,3.047,0V1.97H8.328v.508a1.523,1.523,0,0,0,3.047,0V1.97H12.39a1.016,1.016,0,0,1,1.016,1.016V14.158A1.016,1.016,0,0,1,12.39,15.174Zm0-9.649H1.219v8.633H12.39ZM3.758,8.064H2.234V6.54H3.758Zm0,2.539H2.234V9.079H3.758Zm0,2.539H2.234V11.619H3.758ZM6.3,8.064H4.773V6.54H6.3Zm0,2.539H4.773V9.079H6.3Zm0,2.539H4.773V11.619H6.3ZM8.836,8.064H7.312V6.54H8.836Zm0,2.539H7.312V9.079H8.836Zm0,2.539H7.312V11.619H8.836Zm2.539-5.079H9.852V6.54h1.523Zm0,2.539H9.852V9.079h1.523Zm0,2.539H9.852V11.619h1.523ZM9.835,3.493a1,1,0,0,1-1-1V1.446a1,1,0,1,1,2,0V2.493A1,1,0,0,1,9.835,3.493Zm-6.094,0a1,1,0,0,1-1-1V1.446a1,1,0,0,1,2,0V2.493A1,1,0,0,1,3.742,3.493Z" transform="translate(-0.203 -0.446)" fill="#b5b5b5" fill-rule="evenodd"/>
</svg>
