<svg xmlns="http://www.w3.org/2000/svg" width="13.441" height="13.441" viewBox="0 0 13.441 13.441">
  <g id="klnfY4.tif" transform="translate(0)">
    <g id="dollar-icon" data-name="Group 130835">
      <path id="Path_171076" data-name="Path 171076" d="M681.1-1654.69v-.84c.011-.086.022-.172.032-.258a6.584,6.584,0,0,1,1.671-3.786,6.577,6.577,0,0,1,4.79-2.25,6.315,6.315,0,0,1,3.61.912,6.575,6.575,0,0,1,3.334,5.676,6.327,6.327,0,0,1-1.11,3.829,6.618,6.618,0,0,1-4.434,2.913c-.248.046-.5.07-.751.1h-.84c-.164-.02-.329-.038-.492-.061a6.6,6.6,0,0,1-3.3-1.428,6.619,6.619,0,0,1-2.4-4.06C681.164-1654.187,681.139-1654.439,681.1-1654.69Zm6.724-6.353a5.937,5.937,0,0,0-5.936,5.934,5.937,5.937,0,0,0,5.925,5.932,5.937,5.937,0,0,0,5.943-5.928A5.936,5.936,0,0,0,687.829-1661.043Z" transform="translate(-681.105 1661.831)" fill="currentColor"/>
      <path id="Path_171077" data-name="Path 171077" d="M863.807-1557.919v.683h-.786v-.673a2.018,2.018,0,0,1-1.59-1.932h.792a1.149,1.149,0,0,0,.323.788,4.384,4.384,0,0,0,.429.329l.032-.03v-2.31a2,2,0,0,1-1.565-2.016,1.99,1.99,0,0,1,1.567-1.85v-.685h.79v.681a1.989,1.989,0,0,1,1.26.863,1.959,1.959,0,0,1,.32,1.061H864.6a1.209,1.209,0,0,0-.785-1.1v2.326a2,2,0,0,1,1.565,2.042A2,2,0,0,1,863.807-1557.919Zm-.8-6.177a1.146,1.146,0,0,0-.781,1.137,1.134,1.134,0,0,0,.781,1.05Zm.8,3.15v2.193a1.158,1.158,0,0,0,.778-1.134A1.146,1.146,0,0,0,863.813-1560.946Z" transform="translate(-856.688 1568.147)" fill="currentColor"/>
    </g>
  </g>
</svg>
