
<svg id='like_posticon' width="52" height="52" viewBox="0 0 52 52" fill="none" xmlns="http://www.w3.org/2000/svg">
<mask id="mask0_749_98440" style="mask-type:luminance" maskUnits="userSpaceOnUse" x="9" y="11" width="35" height="33">
<path fill-rule="evenodd" clip-rule="evenodd" d="M9.33228 11.0002H43.4531V43.5019H9.33228V11.0002Z" fill="white"/>
</mask>
<g mask="url(#mask0_749_98440)">
<path fill-rule="evenodd" clip-rule="evenodd" d="M12.3721 26.2059C14.7088 33.4759 23.9405 39.3543 26.3938 40.8093C28.8555 39.3393 38.1538 33.3959 40.4155 26.2126C41.9005 21.5693 40.5221 15.6876 35.0455 13.9226C32.3921 13.0709 29.2971 13.5893 27.1605 15.2426C26.7138 15.5859 26.0938 15.5926 25.6438 15.2526C23.3805 13.5509 20.4238 13.0526 17.7288 13.9226C12.2605 15.6859 10.8871 21.5676 12.3721 26.2059ZM26.3952 43.5023C26.1885 43.5023 25.9835 43.4524 25.7968 43.3507C25.2752 43.0657 12.9868 36.2924 9.99184 26.969C9.99017 26.969 9.99017 26.9674 9.99017 26.9674C8.11017 21.0974 10.2035 13.7207 16.9618 11.5424C20.1352 10.5157 23.5935 10.9674 26.3902 12.7324C29.1002 11.019 32.7002 10.5457 35.8102 11.5424C42.5752 13.724 44.6752 21.099 42.7968 26.9674C39.8985 36.184 27.5202 43.059 26.9952 43.3474C26.8085 43.4507 26.6018 43.5023 26.3952 43.5023Z" fill="#E84953"/>
</g>
<path fill-rule="evenodd" clip-rule="evenodd" d="M36.2554 23.7086C35.6104 23.7086 35.0637 23.2136 35.0104 22.5603C34.9004 21.1903 33.9837 20.0336 32.6787 19.6119C32.0204 19.3986 31.6604 18.6936 31.872 18.0386C32.087 17.3819 32.7854 17.0253 33.4454 17.2319C35.717 17.9669 37.3087 19.9786 37.5037 22.3569C37.5587 23.0453 37.047 23.6486 36.3587 23.7036C36.3237 23.7069 36.2904 23.7086 36.2554 23.7086Z" fill="url(#paint0_linear_3080_5782)"/>
<path d="M39.5 14.9999C35.1 9.79992 29 12.1666 26.5 13.9999C21.0823 9.56614 14.5741 14.2008 14.9772 14.0118C14.4827 14.2721 6.20637 18.8537 13 30.4995C15.8001 35.2995 23.1667 40.4995 26.5 42.4995C30.9 40.8995 37.3334 33.8328 40 30.4995C41.6667 27.4996 43.9 20.1999 39.5 14.9999Z" fill="#E84953"/>
<defs>
<linearGradient id="paint0_linear_3080_5782" x1="18" y1="5.25" x2="18" y2="33.7501" gradientUnits="userSpaceOnUse">
<stop stop-color="#E10909"/>
<stop offset="1" stop-color="#FF3131"/>
</linearGradient>
</defs>
</svg>
