
<svg id='like_posticon' width="52" height="52" viewBox="0 0 52 52" fill="none" xmlns="http://www.w3.org/2000/svg">
<mask id="mask0_851_114677" style="mask-type:luminance" maskUnits="userSpaceOnUse" x="9" y="11" width="35" height="33">
<path fill-rule="evenodd" clip-rule="evenodd" d="M9.33252 11.0007H43.4534V43.5024H9.33252V11.0007Z" fill="white"/>
</mask>
<g mask="url(#mask0_851_114677)">
<path fill-rule="evenodd" clip-rule="evenodd" d="M12.373 26.2055C14.7097 33.4755 23.9414 39.3538 26.3947 40.8088C28.8564 39.3388 38.1547 33.3955 40.4164 26.2121C41.9014 21.5688 40.523 15.6871 35.0464 13.9221C32.393 13.0705 29.298 13.5888 27.1614 15.2421C26.7147 15.5855 26.0947 15.5921 25.6447 15.2521C23.3814 13.5505 20.4247 13.0521 17.7297 13.9221C12.2614 15.6855 10.888 21.5671 12.373 26.2055ZM26.3961 43.5026C26.1895 43.5026 25.9845 43.4526 25.7978 43.3509C25.2761 43.0659 12.9878 36.2926 9.99281 26.9693C9.99115 26.9693 9.99115 26.9676 9.99115 26.9676C8.11115 21.0976 10.2045 13.7209 16.9628 11.5426C20.1361 10.5159 23.5945 10.9676 26.3911 12.7326C29.1011 11.0193 32.7011 10.5459 35.8111 11.5426C42.5761 13.7243 44.6762 21.0993 42.7978 26.9676C39.8995 36.1843 27.5211 43.0593 26.9961 43.3476C26.8095 43.4509 26.6028 43.5026 26.3961 43.5026Z" fill="currentColor"/>
</g>
<path fill-rule="evenodd" clip-rule="evenodd" d="M36.2564 23.7086C35.6114 23.7086 35.0647 23.2136 35.0114 22.5603C34.9014 21.1903 33.9847 20.0336 32.6797 19.6119C32.0214 19.3986 31.6614 18.6936 31.873 18.0386C32.088 17.3819 32.7864 17.0253 33.4464 17.2319C35.718 17.9669 37.3097 19.9786 37.5047 22.3569C37.5597 23.0453 37.048 23.6486 36.3597 23.7036C36.3247 23.7069 36.2914 23.7086 36.2564 23.7086Z" fill="currentColor"/>
</svg>
