<svg xmlns="http://www.w3.org/2000/svg" width="80" height="36" viewBox="0 0 80 36">
  <g id="Group_131082" data-name="Group 131083" transform="translate(-17766 -1323)">
    <rect id="Rectangle_27420" data-name="Rectangle 27420" width="80" height="36" rx="18" transform="translate(17766 1323)" fill="#ff71a4"/>
    <path id="Icon_map-locksmith" data-name="Icon map-locksmith" d="M20.632,9.647h-.964V5.794A5.463,5.463,0,0,0,14.591.72H10.36A5.369,5.369,0,0,0,5.385,5.794V9.647H4.319a.957.957,0,0,0-.719.741V21.75c0,.267.416.394.719.394H20.632c.3,0,.821-.127.821-.394V10.388a1.091,1.091,0,0,0-.821-.741Zm-6,10.712H10.323l.9-4.449a2.308,2.308,0,0,1-.9-1.832,2.187,2.187,0,0,1,2.154-2.184A2.125,2.125,0,0,1,14.63,14a2.482,2.482,0,0,1-.9,1.918ZM16.544,9.647H8.51V5.794A1.825,1.825,0,0,1,10.4,3.844h4.146a1.907,1.907,0,0,1,2,1.95Z" transform="translate(17793.4 1329.28)" fill="#fff"/>
  </g>
</svg>