<svg id="reportIcon" width="24" height="24" viewBox="0 0 24 24" fill="none" xmlns="http://www.w3.org/2000/svg">
<path d="M17 18.4297H13L8.55 21.3897C8.39982 21.4898 8.22528 21.5473 8.045 21.556C7.86472 21.5646 7.68546 21.5242 7.52635 21.439C7.36724 21.3538 7.23424 21.227 7.14154 21.0722C7.04884 20.9173 6.99992 20.7402 7 20.5597V18.4297C4 18.4297 2 16.4297 2 13.4297V7.42969C2 4.42969 4 2.42969 7 2.42969H17C20 2.42969 22 4.42969 22 7.42969V13.4297C22 16.4297 20 18.4297 17 18.4297Z" stroke="currentColor" stroke-width="1.5" stroke-miterlimit="10" stroke-linecap="round" stroke-linejoin="round"/>
<path d="M11.9998 11.3594V11.1494C11.9998 10.4694 12.4198 10.1094 12.8398 9.81937C13.2498 9.53937 13.6598 9.17938 13.6598 8.51938C13.6598 7.59938 12.9198 6.85938 11.9998 6.85938C11.0798 6.85938 10.3398 7.59938 10.3398 8.51938M11.9948 13.7494H12.0048" stroke="currentColor" stroke-width="1.5" stroke-linecap="round" stroke-linejoin="round"/>
</svg>
