<svg xmlns="http://www.w3.org/2000/svg" width="14.878" height="12.441" viewBox="0 0 14.878 12.441">
  <g id="Icon_feather-users" data-name="Icon feather-users" transform="translate(-0.9 -3.851)">
    <path id="Path_172074" data-name="Path 172074" d="M11.448,26.231V24.987A2.487,2.487,0,0,0,8.961,22.5H3.987A2.487,2.487,0,0,0,1.5,24.987v1.244" transform="translate(0 -10.539)" fill="none" stroke="#b5b5b5" stroke-linecap="round" stroke-linejoin="round" stroke-width="1.2"/>
    <path id="Path_172075" data-name="Path 172075" d="M12.474,6.987A2.487,2.487,0,1,1,9.987,4.5,2.487,2.487,0,0,1,12.474,6.987Z" transform="translate(-3.513)" fill="none" stroke="#b5b5b5" stroke-linecap="round" stroke-linejoin="round" stroke-width="1.2"/>
    <path id="Path_172076" data-name="Path 172076" d="M31.865,26.345V25.1A2.487,2.487,0,0,0,30,22.7" transform="translate(-16.686 -10.653)" fill="none" stroke="#b5b5b5" stroke-linecap="round" stroke-linejoin="round" stroke-width="1.2"/>
    <path id="Path_172077" data-name="Path 172077" d="M24,4.7a2.487,2.487,0,0,1,0,4.819" transform="translate(-13.173 -0.114)" fill="none" stroke="#b5b5b5" stroke-linecap="round" stroke-linejoin="round" stroke-width="1.2"/>
  </g>
</svg>