<svg id="collectionIcon" width="24" height="24" viewBox="0 0 24 24" fill="none" xmlns="http://www.w3.org/2000/svg">
<path d="M12.89 5.88086H5.11C4.28599 5.8835 3.49648 6.212 2.91381 6.79467C2.33114 7.37734 2.00264 8.16685 2 8.99086V20.3509C2 21.8009 3.04 22.4209 4.31 21.7109L8.24 19.5209C8.66 19.2909 9.34 19.2909 9.75 19.5209L13.68 21.7109C14.95 22.4209 15.99 21.8009 15.99 20.3509V8.99086C15.9907 8.5831 15.911 8.17921 15.7556 7.80225C15.6001 7.42528 15.372 7.08262 15.0841 6.79383C14.7962 6.50504 14.4543 6.27577 14.0779 6.11913C13.7014 5.96248 13.2978 5.88152 12.89 5.88086Z" stroke="currentColor" stroke-width="1.5" stroke-linecap="round" stroke-linejoin="round"/>
<path d="M16 8.99086V20.3509C16 21.8009 14.96 22.4109 13.69 21.7109L9.76 19.5209C9.34 19.2909 8.66 19.2909 8.24 19.5209L4.31 21.7109C3.04 22.4109 2 21.8009 2 20.3509V8.99086C2 7.28086 3.4 5.88086 5.11 5.88086H12.89C14.6 5.88086 16 7.28086 16 8.99086Z" stroke="currentColor" stroke-width="1.5" stroke-linecap="round" stroke-linejoin="round"/>
<path d="M22 5.11V16.47C22 17.92 20.96 18.53 19.69 17.83L16 15.77V8.99C16 7.28 14.6 5.88 12.89 5.88H8V5.11C8 3.4 9.4 2 11.11 2H18.89C20.6 2 22 3.4 22 5.11Z" stroke="currentColor" stroke-width="1.5" stroke-linecap="round" stroke-linejoin="round"/>
</svg>
