<svg xmlns="http://www.w3.org/2000/svg" width="26.16" height="24.313" viewBox="0 0 26.16 24.313">
  <g id="Group_40398" data-name="Group 40398" transform="translate(1507.8 -13728)">
    <g id="noun_messages_738684" transform="translate(-1512.8 13717.586)" opacity="0.5">
      <g id="Group_39995" data-name="Group 39995" transform="translate(5 10.414)">
        <path id="Path_108529" data-name="Path 108529" d="M22.476,10.414H13.684A8.7,8.7,0,0,0,5,19.106v2.323a8.673,8.673,0,0,0,5.911,8.235l.127.043-.067.116c-.464.8-1.093,2.057-1.924,3.841a.75.75,0,0,0,.147.843.76.76,0,0,0,.535.219.73.73,0,0,0,.305-.066l9.923-4.539h2.519a8.7,8.7,0,0,0,8.684-8.692V19.106A8.7,8.7,0,0,0,22.476,10.414ZM11.436,32.16a19.709,19.709,0,0,1,1.241-2.24l.013-.017.018-.011a.748.748,0,0,0-.259-1.376,7.183,7.183,0,0,1-5.954-7.088V19.106a7.2,7.2,0,0,1,7.189-7.2h8.793a7.2,7.2,0,0,1,7.189,7.2v2.323a7.2,7.2,0,0,1-7.189,7.2H19.794a.755.755,0,0,0-.311.068L11.3,32.439Z" transform="translate(-5 -10.414)" fill="#fff"/>
        <path id="Path_108531" data-name="Path 108531" d="M19.316,32.681A1.786,1.786,0,1,0,21.1,34.467,1.788,1.788,0,0,0,19.316,32.681Z" transform="translate(-12.88 -24.418)" fill="#fff"/>
        <path id="Path_108532" data-name="Path 108532" d="M55.124,32.681a1.786,1.786,0,1,0,1.786,1.786A1.788,1.788,0,0,0,55.124,32.681Z" transform="translate(-35.4 -24.418)" fill="#fff"/>
        <path id="Path_108533" data-name="Path 108533" d="M37.221,32.681a1.786,1.786,0,1,0,1.786,1.786A1.788,1.788,0,0,0,37.221,32.681Z" transform="translate(-24.14 -24.418)" fill="#fff"/>
      </g>
    </g>
  </g>
</svg>
