<svg xmlns="http://www.w3.org/2000/svg" width="18.052" height="18.052" viewBox="0 0 18.052 18.052">
  <g id="follow_hashtag" transform="translate(-12.498 -12.498)">
    <g id="follow_hashtag" data-name="Group 56931" transform="translate(12.5 12.5)">
      <path id="Path_170860" data-name="Path 170860" d="M36.571,30.5H30.664a.164.164,0,0,0-.164.164v5.907a.164.164,0,0,0,.164.164h5.907a.164.164,0,0,0,.164-.164V30.664A.164.164,0,0,0,36.571,30.5Zm-.164,5.907H30.828V30.828h5.578Z" transform="translate(-24.593 -24.593)" fill="currentColor"/>
      <path id="Path_170861" data-name="Path 170861" d="M29.4,24.313H26.61V18.735H29.4a1.15,1.15,0,0,0,0-2.3H26.61V13.648a1.15,1.15,0,1,0-2.3,0v2.789H18.735V13.648a1.15,1.15,0,0,0-2.3,0v2.789H13.648a1.15,1.15,0,1,0,0,2.3h2.789v5.578H13.648a1.15,1.15,0,0,0,0,2.3h2.789V29.4a1.15,1.15,0,1,0,2.3,0V26.61h5.578V29.4a1.15,1.15,0,1,0,2.3,0V26.61H29.4a1.15,1.15,0,1,0,0-2.3Zm0,1.969H26.446a.164.164,0,0,0-.164.164V29.4a.821.821,0,0,1-1.641,0V26.446a.164.164,0,0,0-.164-.164H18.571a.164.164,0,0,0-.164.164V29.4a.821.821,0,0,1-1.641,0V26.446a.164.164,0,0,0-.164-.164H13.648a.821.821,0,0,1,0-1.641H16.6a.164.164,0,0,0,.164-.164V18.571a.164.164,0,0,0-.164-.164H13.648a.821.821,0,0,1,0-1.641H16.6a.164.164,0,0,0,.164-.164V13.648a.82.82,0,1,1,1.641,0V16.6a.164.164,0,0,0,.164.164h5.907a.164.164,0,0,0,.164-.164V13.648a.82.82,0,1,1,1.641,0V16.6a.164.164,0,0,0,.164.164H29.4a.82.82,0,0,1,0,1.641H26.446a.164.164,0,0,0-.164.164v5.907a.164.164,0,0,0,.164.164H29.4a.82.82,0,0,1,0,1.641Z" transform="translate(-12.5 -12.5)" fill="currentColor"/>
    </g>
  </g>
</svg>
