<svg xmlns="http://www.w3.org/2000/svg" width="26.942" height="29.637" viewBox="0 0 26.942 29.637">
  <g id="Group_40496" data-name="Group 40496" transform="translate(-6582.615 -9485.615)">
    <path id="Subtraction_9" data-name="Subtraction 9" d="M20.943,29.637H6a6.007,6.007,0,0,1-6-6V6A6.007,6.007,0,0,1,6,0H20.943a6.007,6.007,0,0,1,6,6V23.637A6.007,6.007,0,0,1,20.943,29.637ZM6.809,2.169a4.505,4.505,0,0,0-4.5,4.5v16.3a4.505,4.505,0,0,0,4.5,4.5H20.133a4.505,4.505,0,0,0,4.5-4.5V6.669a4.505,4.505,0,0,0-4.5-4.5Z" transform="translate(6582.615 9485.615)" fill="#fff"/>
    <rect id="Rectangle" width="16.166" height="8.674" rx="3.22" transform="translate(6588.004 9490.675)" fill="#fff"/>
  </g>
</svg>
