
<svg id="noun_connect_people_3560491" data-name="noun_connect people_3560491" xmlns="http://www.w3.org/2000/svg" width="17.802" height="17.44" viewBox="0 0 17.802 17.44">
  <g id="Group_40511" data-name="Group 40511">
    <rect id="Rectangle_22990" data-name="Rectangle 22990" width="0.537" height="0.537" transform="translate(3.79 6.537)" fill="#fff"/>
    <path id="Path_108918" data-name="Path 108918" d="M81.943,15.487A1.443,1.443,0,1,0,80.5,14.043,1.446,1.446,0,0,0,81.943,15.487Zm0-2.353a.906.906,0,1,1-.906.906A.907.907,0,0,1,81.943,13.134Z" transform="translate(-77.885 -12.6)" fill="#fff"/>
    <path id="Path_108919" data-name="Path 108919" d="M8.832,113.423a1.39,1.39,0,0,1,1.386-1.386H12.9a1.39,1.39,0,0,1,1.386,1.386v1.071h-1.92v.537h3.252v-.537h-.8v-1.071A1.926,1.926,0,0,0,12.9,111.5H10.219A1.926,1.926,0,0,0,8.3,113.423v1.071H7.5v.537h3.252v-.537H8.832Z" transform="translate(-7.5 -107.958)" fill="#fff"/>
    <rect id="Rectangle_22991" data-name="Rectangle 22991" width="0.537" height="0.537" transform="translate(13.475 16.903)" fill="#fff"/>
    <path id="Path_108920" data-name="Path 108920" d="M285.221,403.894v-1.071A1.926,1.926,0,0,0,283.3,400.9h-2.679a1.926,1.926,0,0,0-1.923,1.923v1.071h-.8v.537h3.252v-.537h-1.92v-1.071a1.39,1.39,0,0,1,1.386-1.386H283.3a1.39,1.39,0,0,1,1.386,1.386v1.071h-1.92v.537h3.252v-.537Z" transform="translate(-268.215 -386.992)" fill="#fff"/>
    <path id="Path_108921" data-name="Path 108921" d="M350.8,303.443A1.443,1.443,0,1,0,352.243,302,1.446,1.446,0,0,0,350.8,303.443Zm2.353,0a.906.906,0,1,1-.906-.906A.907.907,0,0,1,353.153,303.443Z" transform="translate(-338.504 -291.634)" fill="#fff"/>
    <path id="Path_108922" data-name="Path 108922" d="M232.762,69.064h2.744v5.523h.537v-6.06h-3.818v.433l-1.15-.663,1.15-.666v.358h.537V66.7L230,68.3l2.762,1.594Z" transform="translate(-222.03 -64.762)" fill="#fff"/>
    <path id="Path_108923" data-name="Path 108923" d="M116.581,231.7v1.286l2.762-1.594-2.762-1.6v.831h-2.744V225.1H113.3v6.06h3.818v-.437l1.15.666-1.15.666V231.7Z" transform="translate(-109.51 -217.489)" fill="#fff"/>
  </g>
</svg>
