<svg xmlns="http://www.w3.org/2000/svg" width="17.1" height="17.088" viewBox="0 0 17.1 17.088">
  <g id="noun_subscription_3488374" transform="translate(-2.002 -2.05)">
    <path id="Path_108964" data-name="Path 108964" d="M6.624,3.591A8.032,8.032,0,0,1,17.289,6.213l-2.073-.319a.262.262,0,0,0-.078.518l2.607.4h.041a.259.259,0,0,0,.259-.218l.394-2.614a.258.258,0,1,0-.51-.08l-.3,1.9a8.55,8.55,0,0,0-15.476,6.41.259.259,0,0,0,.259.21.15.15,0,0,0,.049,0,.259.259,0,0,0,.207-.3A8.011,8.011,0,0,1,6.624,3.591Z" transform="translate(0 0)" fill="#fff"/>
    <path id="Path_108965" data-name="Path 108965" d="M21.191,27.919a.264.264,0,0,0-.518.1A8.032,8.032,0,0,1,6.093,34l2.073.21a.26.26,0,1,0,.052-.518L5.59,33.433H5.564a.259.259,0,0,0-.259.231l-.259,2.625a.259.259,0,0,0,.233.285h.026a.259.259,0,0,0,.246-.241l.192-1.915a8.551,8.551,0,0,0,15.448-6.5Z" transform="translate(-2.254 -19.009)" fill="#fff"/>
    <path id="Path_108966" data-name="Path 108966" d="M29.325,26.21V25l.106-.018A1.924,1.924,0,0,0,31.2,23.093c0-.969-.518-1.542-1.757-2.049-1.036-.425-1.555-.777-1.555-1.469,0-.573.43-1.15,1.386-1.15a2.974,2.974,0,0,1,1.425.347l.2-.536a3.073,3.073,0,0,0-1.381-.345H29.39V16.74h-.472v1.179l-.109.018a1.823,1.823,0,0,0-1.679,1.78c0,.858.518,1.4,1.873,1.928.7.285,1.42.689,1.42,1.531a1.372,1.372,0,0,1-1.539,1.3,3.309,3.309,0,0,1-1.638-.443l-.2.552a3.472,3.472,0,0,0,1.658.443h.127v1.194Z" transform="translate(-18.558 -10.884)" fill="#fff"/>
  </g>
</svg>
