<svg id="no_purchase_post"
  xmlns="http://www.w3.org/2000/svg" width="11.906" height="16.514" viewBox="0 0 11.906 16.514" fill="currentColor">
  <g id="padlock" transform="translate(-65.801)">
    <g id="Group_50051" data-name="Group 50051" transform="translate(65.8)">
      <g id="Group_50050" data-name="Group 50050" transform="translate(0)">
        <path id="Path_109052" data-name="Path 109052" d="M76.128,7.023V4.408a4.385,4.385,0,0,0-1.309-3.151A4.245,4.245,0,0,0,71.8,0h-.056a4.4,4.4,0,0,0-4.373,4.408V7.023a1.786,1.786,0,0,0-1.575,1.8v5.875a1.81,1.81,0,0,0,1.8,1.821h8.315a1.81,1.81,0,0,0,1.8-1.821V8.819A1.794,1.794,0,0,0,76.128,7.023ZM68.072,4.408h0A3.7,3.7,0,0,1,71.752.69h0a3.626,3.626,0,0,1,2.57,1.057,3.707,3.707,0,0,1,1.1,2.661V7.027h-.77V4.408a2.95,2.95,0,0,0-.872-2.118,2.838,2.838,0,0,0-2.006-.833h-.021A2.932,2.932,0,0,0,68.842,4.4V7.027h-.77Zm5.885,0V7.027H69.546V4.408A2.229,2.229,0,0,1,71.759,2.16h.021a2.147,2.147,0,0,1,1.516.63A2.257,2.257,0,0,1,73.957,4.408Zm3.081,10.3h0a1.11,1.11,0,0,1-1.11,1.11H67.61A1.11,1.11,0,0,1,66.5,14.7V8.837a1.11,1.11,0,0,1,1.11-1.11h8.318a1.11,1.11,0,0,1,1.11,1.11Z" transform="translate(-65.8 0)"/>
      </g>
    </g>
    <g id="Group_50053" data-name="Group 50053" transform="translate(70.488 10.64)">
      <g id="Group_50052" data-name="Group 50052" transform="translate(0)">
        <path id="Path_109053" data-name="Path 109053" d="M202.175,304.814a1.262,1.262,0,1,0-1.561,1.561v.98a.35.35,0,0,0,.7,0v-.98A1.259,1.259,0,0,0,202.175,304.814Zm-1.211.91a.564.564,0,1,1,.564-.564A.563.563,0,0,1,200.964,305.724Z" transform="translate(-199.7 -303.9)"/>
      </g>
    </g>
  </g>
</svg>
