
<svg xmlns="http://www.w3.org/2000/svg" width="17.235" height="17.231" viewBox="0 0 17.235 17.231">
  <g id="noun_Settings_2650529" transform="translate(0.012 -0.008)">
    <g id="Group_39710" data-name="Group 39710" transform="translate(-0.012 0.007)">
      <path id="Path_108165" data-name="Path 108165" d="M8.6,17.239a8.88,8.88,0,0,1-.993-.057.932.932,0,0,1-.822-.977,1.329,1.329,0,0,0-.808-1.3,1.4,1.4,0,0,0-1.491.345.934.934,0,0,1-1.272.1,8.665,8.665,0,0,1-1.363-1.379.931.931,0,0,1,.1-1.258,1.334,1.334,0,0,0,.345-1.48,1.306,1.306,0,0,0-1.222-.822H1.05A1,1,0,0,1,.043,9.588a8.665,8.665,0,0,1,0-1.959.918.918,0,0,1,.95-.822A1.413,1.413,0,0,0,2.32,6a1.323,1.323,0,0,0-.345-1.491.934.934,0,0,1-.09-1.28A8.427,8.427,0,0,1,3.279,1.848a.936.936,0,0,1,1.261.105,1.4,1.4,0,0,0,1.48.345A1.334,1.334,0,0,0,6.84,1.019.932.932,0,0,1,7.667.06,8.489,8.489,0,0,1,9.606.067a.929.929,0,0,1,.822.974,1.332,1.332,0,0,0,.808,1.3,1.4,1.4,0,0,0,1.491-.345A.931.931,0,0,1,14,1.9,8.551,8.551,0,0,1,15.365,3.28a.936.936,0,0,1-.1,1.261,1.32,1.32,0,0,0,.908,2.3,1,1,0,0,1,1,.825h0a8.665,8.665,0,0,1,0,1.959.936.936,0,0,1-.979.824H16.1a1.32,1.32,0,0,0-.882,2.3.934.934,0,0,1,.105,1.268A8.556,8.556,0,0,1,13.933,15.4h0a.927.927,0,0,1-1.256-.105,1.408,1.408,0,0,0-1.484-.345,1.33,1.33,0,0,0-.819,1.275.931.931,0,0,1-.827.956,8.96,8.96,0,0,1-.951.059Zm-.862-1a7.582,7.582,0,0,0,1.68,0,2.283,2.283,0,0,1,1.41-2.171,2.354,2.354,0,0,1,2.538.565,7.655,7.655,0,0,0,1.206-1.194,2.276,2.276,0,0,1-.558-2.55,2.3,2.3,0,0,1,2.1-1.4h.109a7.755,7.755,0,0,0,0-1.677.134.134,0,0,0-.053-.021A2.273,2.273,0,0,1,14.6,3.846a7.488,7.488,0,0,0-1.17-1.187,2.342,2.342,0,0,1-2.55.558,2.285,2.285,0,0,1-1.4-2.211,7.582,7.582,0,0,0-1.68,0,2.29,2.29,0,0,1-1.41,2.171,2.354,2.354,0,0,1-2.535-.562A7.657,7.657,0,0,0,2.65,3.809a2.287,2.287,0,0,1,.558,2.554A2.361,2.361,0,0,1,1,7.761,7.719,7.719,0,0,0,1,9.434a.186.186,0,0,0,.064.024,2.257,2.257,0,0,1,2.111,1.4,2.287,2.287,0,0,1-.558,2.531,7.484,7.484,0,0,0,1.182,1.194,2.332,2.332,0,0,1,2.55-.558,2.282,2.282,0,0,1,1.4,2.2Zm8.485-8.466Zm-7.6,4.06a3.191,3.191,0,1,1,3.19-3.191A3.191,3.191,0,0,1,8.62,11.83Zm0-5.428a2.24,2.24,0,1,0,2.24,2.24A2.24,2.24,0,0,0,8.62,6.4Z" transform="translate(0.012 -0.007)" fill="#fff"/>
    </g>
  </g>
</svg>
