<svg id='delete_fill' width="32" height="32" viewBox="0 0 32 32" fill="none" xmlns="http://www.w3.org/2000/svg">
<path d="M8.69998 28C8.16665 28 7.69998 27.8 7.29998 27.4C6.89998 27 6.69998 26.5333 6.69998 26V7H6.33331C6.04998 7 5.81248 6.90361 5.62081 6.71083C5.42915 6.51803 5.33331 6.27915 5.33331 5.99417C5.33331 5.70917 5.42915 5.47222 5.62081 5.28333C5.81248 5.09444 6.04998 5 6.33331 5H11.6C11.6 4.71111 11.6958 4.47222 11.8875 4.28333C12.0791 4.09444 12.3166 4 12.6 4H19.4C19.6833 4 19.9208 4.09583 20.1125 4.2875C20.3041 4.47917 20.4 4.71667 20.4 5H25.6666C25.95 5 26.1875 5.09639 26.3791 5.28917C26.5708 5.48197 26.6666 5.72086 26.6666 6.00583C26.6666 6.29083 26.5708 6.52778 26.3791 6.71667C26.1875 6.90556 25.95 7 25.6666 7H25.3V26C25.3 26.5333 25.1 27 24.7 27.4C24.3 27.8 23.8333 28 23.3 28H8.69998ZM12.2333 22.1333C12.2333 22.4167 12.3297 22.6542 12.5225 22.8458C12.7153 23.0375 12.9542 23.1333 13.2391 23.1333C13.5241 23.1333 13.7611 23.0375 13.95 22.8458C14.1389 22.6542 14.2333 22.4167 14.2333 22.1333V10.8333C14.2333 10.55 14.1369 10.3125 13.9441 10.1208C13.7513 9.92917 13.5125 9.83333 13.2275 9.83333C12.9425 9.83333 12.7055 9.92917 12.5166 10.1208C12.3278 10.3125 12.2333 10.55 12.2333 10.8333V22.1333ZM17.7666 22.1333C17.7666 22.4167 17.863 22.6542 18.0558 22.8458C18.2486 23.0375 18.4875 23.1333 18.7725 23.1333C19.0575 23.1333 19.2944 23.0375 19.4833 22.8458C19.6722 22.6542 19.7666 22.4167 19.7666 22.1333V10.8333C19.7666 10.55 19.6703 10.3125 19.4775 10.1208C19.2847 9.92917 19.0458 9.83333 18.7608 9.83333C18.4758 9.83333 18.2389 9.92917 18.05 10.1208C17.8611 10.3125 17.7666 10.55 17.7666 10.8333V22.1333Z" fill="currentColor"/>
</svg>
