<svg id="folder_show" width="28" height="24" viewBox="0 0 28 24" fill="none" xmlns="http://www.w3.org/2000/svg">
<g filter="url(#filter0_d_1659_174414)">
<path d="M6 20C5.45 20 4.979 19.804 4.587 19.412C4.195 19.02 3.99934 18.5493 4 18V6C4 5.45 4.196 4.979 4.588 4.587C4.98 4.195 5.45067 3.99934 6 4H11.175C11.4417 4 11.696 4.05 11.938 4.15C12.18 4.25 12.3923 4.39167 12.575 4.575L14 6H22C22.55 6 23.021 6.196 23.413 6.588C23.805 6.98 24.0007 7.45067 24 8V18C24 18.55 23.804 19.021 23.412 19.413C23.02 19.805 22.5493 20.0007 22 20H6Z" fill="url(#paint0_linear_1659_174414)"/>
</g>
<defs>
<filter id="filter0_d_1659_174414" x="0" y="0" width="28" height="24" filterUnits="userSpaceOnUse" color-interpolation-filters="sRGB">
<feFlood flood-opacity="0" result="BackgroundImageFix"/>
<feColorMatrix in="SourceAlpha" type="matrix" values="0 0 0 0 0 0 0 0 0 0 0 0 0 0 0 0 0 0 127 0" result="hardAlpha"/>
<feOffset/>
<feGaussianBlur stdDeviation="2"/>
<feComposite in2="hardAlpha" operator="out"/>
<feColorMatrix type="matrix" values="0 0 0 0 0 0 0 0 0 0 0 0 0 0 0 0 0 0 0.12 0"/>
<feBlend mode="normal" in2="BackgroundImageFix" result="effect1_dropShadow_1659_174414"/>
<feBlend mode="normal" in="SourceGraphic" in2="effect1_dropShadow_1659_174414" result="shape"/>
</filter>
<linearGradient id="paint0_linear_1659_174414" x1="4" y1="4" x2="25.8995" y2="7.26682" gradientUnits="userSpaceOnUse">
<stop stop-color="#D33AFF"/>
<stop offset="1" stop-color="#FF71A4"/>
</linearGradient>
</defs>
</svg>
