<svg id="move_folder" width="32" height="32" viewBox="0 0 32 32" fill="none" xmlns="http://www.w3.org/2000/svg">
<path d="M17.3333 25.3333C17.3333 25.7866 17.3867 26.2266 17.4533 26.6666H5.33334C4.62609 26.6666 3.94782 26.3856 3.44772 25.8855C2.94762 25.3854 2.66667 24.7072 2.66667 23.9999V7.99992C2.66667 6.51992 3.85334 5.33325 5.33334 5.33325H13.3333L16 7.99992H26.6667C27.3739 7.99992 28.0522 8.28087 28.5523 8.78097C29.0524 9.28106 29.3333 9.95934 29.3333 10.6666V18.4133C28.16 17.7333 26.8 17.3333 25.3333 17.3333C20.92 17.3333 17.3333 20.9199 17.3333 25.3333ZM30.6667 25.3333L26.6667 21.3333V23.9999H21.3333V26.6666H26.6667V29.3333L30.6667 25.3333Z" fill="currentColor"/>
</svg>
