<svg id="media_album" width="16" height="20" viewBox="0 0 16 20" fill="none" xmlns="http://www.w3.org/2000/svg">
<g clip-path="url(#clip0_1659_174418)">
<path d="M8.00066 19.989C5.97037 19.989 3.93964 19.9639 1.9098 20C0.927231 20.0171 -0.0120553 19.1826 -7.40668e-06 17.8382C0.0294429 14.6026 0.00936315 11.3659 0.00936315 8.12977C0.00936315 6.83311 0.734912 6.00011 1.88347 5.9991C5.96636 5.99509 10.0497 5.99509 14.1326 5.9991C15.2677 6.00011 15.9991 6.83762 15.9995 8.11321C15.9995 11.3745 16 14.6357 15.9995 17.8969C15.9995 19.1439 15.2495 19.988 14.1366 19.989C12.0916 19.991 10.0461 19.9895 8.00111 19.989H8.00066ZM1.79869 9.98144H3.53314V8.00984H1.79869V9.98144ZM12.4682 9.98044H14.2V8.01085H12.4682V9.98044ZM1.79825 13.9748H3.5376V12.0173H1.79825V13.9748ZM14.2102 12.0128H12.4713V13.9698H14.2102V12.0128ZM1.80226 16.0011V17.9692H3.53448V16.0011H1.80226ZM14.2017 17.9777V16.0101H12.4718V17.9777H14.2017Z" fill="currentColor"/>
<path d="M0.918303 4.97189C0.850032 4.16649 1.44885 3.29184 2.21947 3.07356C2.39707 3.02338 2.58671 3.00832 2.771 3.00832C6.25952 3.00481 9.74804 3.00431 13.237 3.00632C14.1714 3.00632 14.8693 3.60045 15.0719 4.56242C15.0986 4.68938 15.1026 4.82185 15.1192 4.97239H0.918303V4.97189Z" fill="currentColor"/>
<path d="M2.68131 1.98113C2.67105 1.51997 2.80268 1.13158 3.04409 0.78834C3.3908 0.297072 3.84103 0.00752923 4.40371 0.00602381C6.8048 -0.00100148 9.20634 -0.00300871 11.6074 0.00702742C12.424 0.0105401 13.1411 0.702029 13.3013 1.60076C13.3227 1.71969 13.3214 1.84414 13.3316 1.98214H2.68131V1.98113Z" fill="currentColor"/>
</g>
<defs>
<clipPath id="clip0_1659_174418">
<rect width="16" height="20" fill="white"/>
</clipPath>
</defs>
</svg>
