<svg id="users_group" width="16" height="17" viewBox="0 0 16 17" fill="none" xmlns="http://www.w3.org/2000/svg">
<path d="M6.0026 7.16536C7.47536 7.16536 8.66927 5.97146 8.66927 4.4987C8.66927 3.02594 7.47536 1.83203 6.0026 1.83203C4.52984 1.83203 3.33594 3.02594 3.33594 4.4987C3.33594 5.97146 4.52984 7.16536 6.0026 7.16536Z" fill="#836B8A"/>
<path d="M6.0026 14.5013C8.57993 14.5013 10.6693 13.3074 10.6693 11.8346C10.6693 10.3619 8.57993 9.16797 6.0026 9.16797C3.42528 9.16797 1.33594 10.3619 1.33594 11.8346C1.33594 13.3074 3.42528 14.5013 6.0026 14.5013Z" fill="#836B8A"/>
<path d="M14.0024 11.8338C14.0024 12.9384 12.6451 13.8338 10.9884 13.8338C11.4764 13.3004 11.8124 12.6304 11.8124 11.8351C11.8124 11.0384 11.4757 10.3684 10.9864 9.83442C12.6437 9.83375 14.0024 10.7298 14.0024 11.8338ZM12.0024 4.50042C12.0026 4.82223 11.9252 5.13934 11.7766 5.42482C11.6281 5.71031 11.4129 5.95574 11.1492 6.14027C10.8856 6.3248 10.5813 6.44299 10.2622 6.4848C9.94315 6.52661 9.61869 6.4908 9.31641 6.38042C9.64209 5.80745 9.81281 5.15948 9.81174 4.50042C9.81174 3.81709 9.63174 3.17575 9.31707 2.62109C9.61932 2.51084 9.94371 2.47514 10.2627 2.51701C10.5817 2.55888 10.8859 2.6771 11.1494 2.86161C11.413 3.04613 11.6282 3.29151 11.7766 3.57692C11.9251 3.86233 12.0026 4.17869 12.0024 4.50042Z" fill="#836B8A"/>
</svg>
