<svg width="1200" height="627" viewBox="0 0 1200 627" fill="none" xmlns="http://www.w3.org/2000/svg">
<rect width="1200" height="627" fill="url(#paint0_linear_852_104808)"/>
<path d="M355.872 387.691C338.265 387.691 326.281 381.71 319.93 369.742C308.449 379.272 300.261 384.037 295.356 384.037C293.017 384.037 291.206 382.925 289.924 380.711C288.641 378.496 288 375.997 288 373.231C288 366.579 290.565 358.824 295.686 349.957C297.913 346.08 300.365 342.538 303.042 339.315C305.72 336.101 308.726 334.498 312.071 334.498C315.303 334.498 317.755 337.161 319.427 342.478L324.444 358.436C326.229 356.549 328.205 354.257 330.38 351.534C332.555 348.82 334.981 345.632 337.65 341.978L352.527 322.03C370.801 298.428 382.785 285.52 388.469 283.297C390.471 282.521 392.481 282.134 394.482 282.134C396.709 282.134 398.52 282.608 399.915 283.547C401.31 284.486 402.004 285.572 402.004 286.787C402.004 288.777 400.383 289.949 397.16 290.277C393.815 292.164 387.299 297.756 377.603 307.062C373.141 311.388 369.554 314.955 366.824 317.782C364.095 320.608 362.223 322.745 361.227 324.184C348.741 341.47 337.208 354.774 326.628 364.08C333.421 377.488 343.62 384.192 357.215 384.192C362.336 384.192 367.552 383.115 372.846 380.952C378.141 378.789 383.045 375.937 387.559 372.387C392.074 368.845 395.722 364.882 398.512 360.504C401.293 356.127 402.688 351.775 402.688 347.458C402.688 342.917 401.068 338.816 397.844 335.153C394.612 331.5 390.653 328.898 385.974 327.338C382.629 326.898 379.232 326.45 375.775 326.011C370.533 325.347 367.916 324.296 367.916 322.848C367.916 321.849 368.557 320.961 369.84 320.186C371.122 319.41 372.43 319.023 373.765 319.023C374.77 319.023 375.94 319.247 377.274 319.686C378.608 320.134 380.341 320.737 382.456 321.513C383.348 321.625 384.353 321.711 385.462 321.763C386.571 321.823 387.689 321.849 388.807 321.849C396.163 321.849 402.844 320.686 408.866 318.359C414.663 316.033 418.891 312.818 421.569 308.717C424.246 304.615 425.581 299.85 425.581 294.421C425.581 288.881 423.822 284.503 420.312 281.289C416.803 278.075 412.176 275.774 406.44 274.387C400.695 273 394.491 272.31 387.802 272.31C374.761 272.31 362.362 274.198 350.612 277.963C338.854 281.729 328.69 287.993 320.103 296.748C313.527 303.512 310.243 309.165 310.243 313.706C310.243 316.92 311.075 319.634 312.747 321.849C313.189 322.409 313.691 322.96 314.255 323.512C314.809 324.072 315.476 324.624 316.256 325.175C316.811 325.511 316.481 325.675 315.251 325.675C308.336 324.124 304.888 319.522 304.888 311.879C304.888 304.236 308.787 297.032 316.585 290.268C322.599 285.063 329.479 280.85 337.225 277.636C344.971 274.422 353.16 272.095 361.799 270.656C370.437 269.217 378.99 268.493 387.455 268.493C393.469 268.493 399.266 268.941 404.837 269.82C410.409 270.708 415.425 272.173 419.879 274.223C424.333 276.274 427.877 278.963 430.494 282.289C433.11 285.615 434.419 289.717 434.419 294.594C434.419 301.47 432.582 306.95 428.899 311.052C425.225 315.154 420.26 318.307 414.022 320.531C406.665 323.081 398.754 324.408 390.289 324.52C394.968 324.744 399.066 325.959 402.575 328.174C406.085 330.388 408.814 333.275 410.764 336.816C412.713 340.367 413.693 344.244 413.693 348.449C413.693 354.102 411.994 359.341 408.598 364.158C405.201 368.975 400.661 373.137 394.976 376.626C389.292 380.116 383.054 382.831 376.252 384.769C369.467 386.725 362.665 387.691 355.872 387.691ZM297.531 380.211C301.093 380.211 307.946 375.17 318.093 365.08L317.591 364.416C313.128 349.681 309.567 342.305 306.889 342.305C306.777 342.305 306.499 342.417 306.058 342.641C297.809 354.498 293.684 364.029 293.684 371.232C293.684 372.783 293.987 374.67 294.603 376.885C295.218 379.108 296.197 380.211 297.531 380.211Z" fill="white"/>
<path d="M527.539 380.21C524.862 380.21 523.527 378.711 523.527 375.721C524.749 369.517 527.262 362.537 531.049 354.773C532.834 351.008 534.645 347.294 536.481 343.632C538.318 339.978 540.129 336.264 541.914 332.49C537.79 335.265 533.665 338.341 529.541 341.719C525.416 345.096 521.405 348.896 517.505 353.101C512.93 357.979 507.645 364.243 501.623 371.886C497.273 377.315 494.769 380.029 494.102 380.029C492.542 380.029 491.26 379.305 490.254 377.866C489.249 376.427 488.747 375.204 488.747 374.213C488.747 372.774 490.029 369.06 492.594 363.071C493.374 361.184 494.18 359.331 495.02 357.505C495.852 355.678 496.666 353.877 497.446 352.102L487.421 362.571C487.196 362.795 486.529 363.459 485.419 364.571C484.31 365.682 483.409 366.234 482.742 366.234C482.187 366.234 481.91 365.846 481.91 365.07C481.91 364.846 481.997 364.545 482.161 364.157C482.326 363.769 482.69 363.304 483.245 362.744C484.917 361.081 486.641 359.314 488.426 357.427C490.211 355.54 492.048 353.386 493.946 350.947C495.393 349.06 497.481 346.268 500.21 342.554C502.94 338.841 506.31 334.162 510.322 328.509C511.544 326.846 513.277 326.019 515.504 326.019C517.731 326.019 518.849 327.07 518.849 329.181C518.849 329.957 516.006 335.109 510.322 344.64C507.42 349.741 505.115 353.894 503.382 357.108C501.649 360.322 500.566 362.709 500.124 364.26C502.576 361.598 505.496 358.608 508.901 355.282C512.298 351.955 516.223 348.242 520.685 344.14C534.393 331.508 543.422 325.191 547.763 325.191C548.985 325.191 550.189 325.579 551.359 326.355C552.529 327.13 553.118 328.13 553.118 329.345C553.118 329.905 550.943 333.946 546.602 341.477C542.365 349.12 540.025 353.67 539.584 355.109C551.957 344.803 558.135 339.599 558.135 339.487C568.611 331.396 576.132 327.354 580.698 327.354C582.033 327.354 583.289 327.768 584.459 328.604C585.629 329.431 586.218 330.405 586.218 331.516C586.218 331.74 582.648 336.393 575.517 345.476C568.16 354.678 564.036 362.21 563.143 368.086C562.693 372.076 564.755 374.066 569.33 374.066C572.111 374.066 576.019 372.291 581.028 368.75C586.044 365.208 591.278 360.331 596.737 354.118C597.404 353.343 598.132 352.593 598.912 351.878C599.692 351.154 600.359 350.801 600.922 350.801C601.589 350.801 601.927 351.077 601.927 351.628C601.927 352.404 601.425 353.291 600.419 354.291C597.517 357.729 594.094 361.27 590.143 364.932C586.183 368.586 582.258 371.662 578.359 374.161C574.46 376.651 571.002 377.901 567.996 377.901C560.414 377.901 556.627 374.411 556.627 367.431C556.627 364.993 557.294 362.141 558.629 358.866C559.963 355.6 561.306 352.636 562.641 349.974C565.873 343.769 569.382 338.28 573.169 333.515C569.599 335.29 565.899 337.617 562.052 340.495C558.204 343.382 554.218 346.759 550.103 350.637C540.519 359.943 533.943 369.37 530.381 378.9C529.827 379.771 528.874 380.21 527.539 380.21Z" fill="white"/>
<path d="M601.588 380.045C595.679 380.045 592.732 375.616 592.732 366.749C592.732 359.769 599.196 347.025 612.124 328.516C625.382 309.567 635.468 300.089 642.382 300.089C643.716 300.089 644.999 300.502 646.229 301.338C647.451 302.166 648.066 303.251 648.066 304.578C648.066 304.466 643.994 308.792 635.866 317.547C631.187 322.648 626.95 327.413 623.163 331.842C619.377 336.28 616.032 340.433 613.13 344.311C604.993 355.392 600.929 363.483 600.929 368.584C600.929 370.023 601.345 371.497 602.186 372.988C603.026 374.478 604.161 375.228 605.608 375.228C608.173 375.228 610.903 374.229 613.797 372.238C616.691 370.248 619.481 367.749 622.158 364.759C624.836 361.769 627.115 358.692 629.012 355.53C630.91 352.368 632.192 349.576 632.859 347.137C632.08 344.811 631.69 341.932 631.69 338.494C631.69 330.179 634.532 326.474 640.216 327.353C641.325 327.465 642.079 328.016 642.469 329.016C642.859 330.015 643.058 331.179 643.058 332.506C643.058 335.28 642.642 338.046 641.802 340.821C640.97 343.596 640.32 345.922 639.878 347.801C640.32 350.351 641.351 352.928 642.971 355.53C644.583 358.132 646.619 359.433 649.071 359.433C651.524 359.433 654.366 357.658 657.598 354.117C658.265 353.341 658.932 352.953 659.599 352.953C660.154 352.953 660.492 353.341 660.604 354.117C660.604 354.78 660.154 355.728 659.27 356.943C655.813 361.045 652.191 363.096 648.404 363.096C642.945 363.096 638.544 359.106 635.199 351.127C633.076 356.004 630.182 360.657 626.508 365.086C622.834 369.524 618.848 373.126 614.559 375.892C610.253 378.658 605.938 380.045 601.588 380.045Z" fill="white"/>
<path d="M673.802 380.213C668.56 380.213 664.695 378.498 662.183 375.06C659.678 371.622 657.642 366.856 656.082 360.764C654.081 362.755 652.686 363.754 651.906 363.754C651.352 363.754 651.074 363.315 651.074 362.427C651.074 361.764 651.352 361.152 651.906 360.601C657.59 353.733 663.829 347.193 670.631 340.989L691.695 321.376C694.589 318.61 696.903 316.499 698.636 315.06C700.36 313.621 701.616 312.897 702.396 312.897C705.957 312.897 707.742 314.224 707.742 316.887C707.742 318.214 707.015 319.774 705.568 321.54C704.45 322.867 703.644 323.893 703.141 324.616C702.639 325.34 702.336 325.754 702.223 325.866C700.213 329.304 698.376 335.456 696.703 344.315C695.473 350.855 694.416 356.232 693.523 360.437C692.631 364.65 691.903 367.701 691.348 369.579C696.028 369.467 700.655 368.028 705.221 365.254C709.787 362.488 714.692 357.938 719.934 351.622C720.159 351.398 720.488 351.07 720.939 350.622C721.381 350.183 721.831 349.959 722.273 349.959C722.941 349.959 723.279 350.234 723.279 350.786C723.279 351.346 723.114 351.897 722.776 352.449C722.438 353.009 722.109 353.5 721.771 353.948C718.314 358.05 715.082 361.402 712.075 364.004C709.068 366.606 705.888 368.657 702.544 370.157C699.199 371.656 695.248 372.897 690.673 373.896L685.326 377.386C683.879 378.386 682.146 379.11 680.145 379.549C678.152 379.989 676.029 380.213 673.802 380.213ZM675.812 371.734C678.377 371.734 680.491 371.122 682.164 369.907C683.385 369.243 684.59 367.391 685.76 364.34C686.929 361.29 688.073 357.498 689.182 352.957C690.075 349.08 690.768 345.288 691.271 341.574C691.773 337.861 692.241 334.293 692.692 330.855L693.359 325.202C690.794 327.089 687.562 329.804 683.663 333.345C679.764 336.895 675.916 340.601 672.13 344.487C668.343 348.365 665.891 351.217 664.773 353.052C663.656 354.879 663.04 356.24 662.936 357.128C662.486 361.566 663.578 365.107 666.194 367.77C668.811 370.407 672.017 371.734 675.812 371.734Z" fill="white"/>
<path d="M710.077 380.712C706.845 380.712 705.225 379.773 705.225 377.886C705.225 376.783 705.892 375.008 707.235 372.569C712.364 363.487 716.957 355.422 721.029 348.382C725.093 341.342 728.689 335.387 731.808 330.51C745.066 309.347 754.432 297.878 759.891 296.103C760.117 296.103 760.281 296.077 760.394 296.017C760.506 295.965 760.619 295.931 760.732 295.931C762.179 295.931 763.123 297.094 763.574 299.421C763.236 301.747 757.448 310.174 746.192 324.685C740.283 332.113 735.69 338.231 732.398 343.056C729.105 347.873 727.077 351.398 726.298 353.612C729.971 350.949 733.931 348.123 738.168 345.133C742.406 342.143 746.53 339.291 750.542 336.568C754.554 333.854 758.176 331.639 761.408 329.916C764.64 328.201 767.144 327.227 768.929 327.003C769.154 327.003 769.431 326.977 769.761 326.917C770.098 326.865 770.315 326.831 770.428 326.831C773.547 326.831 775.107 328.27 775.107 331.156C775.107 331.932 774.102 333.647 772.1 336.309C770.098 338.972 767.031 343.074 762.907 348.614C755.55 358.369 751.876 365.684 751.876 370.553C751.876 373.103 752.821 374.379 754.718 374.379C756.729 374.267 759.033 373.379 761.659 371.716C764.276 370.053 766.927 368.002 769.596 365.564C772.273 363.125 774.691 360.721 776.866 358.334C779.041 355.956 780.678 354.095 781.796 352.768C782.801 351.768 783.581 351.268 784.136 351.268C784.577 351.268 784.803 351.492 784.803 351.932C784.803 352.819 784.352 353.871 783.468 355.094C782.134 356.757 780.15 358.92 777.533 361.574C774.916 364.237 772.074 366.925 769.007 369.639C765.939 372.354 763.045 374.629 760.316 376.455C757.586 378.282 755.55 379.196 754.216 379.196C747.639 379.196 744.355 375.37 744.355 367.727C744.355 363.401 746.365 357.757 750.369 350.769C751.928 348.106 753.549 345.452 755.212 342.789C756.885 340.127 758.557 337.473 760.229 334.81C745.967 341.902 733.039 352.38 721.445 366.227C719.998 368.226 718.491 370.355 716.931 372.63C715.371 374.904 713.976 376.817 712.754 378.368C711.533 379.937 710.64 380.712 710.077 380.712Z" fill="white"/>
<path d="M785.966 382.038C782.396 382.038 779.164 380.901 776.27 378.635C773.376 376.368 771.92 373.344 771.92 369.578C771.92 361.711 776.764 352.732 786.46 342.65C796.381 332.457 805.236 327.355 813.035 327.355C815.6 327.355 817.688 328.045 819.299 329.432C820.911 330.819 821.726 332.508 821.726 334.499C821.726 340.703 816.769 346.804 806.848 352.784C798.044 358.101 790.636 360.763 784.614 360.763C783.721 360.763 782.942 360.651 782.274 360.427C780.602 363.417 779.77 366.58 779.77 369.906C779.77 375.67 782.5 378.548 787.959 378.548C793.53 378.548 800.722 374.835 809.525 367.407C816.319 361.978 822.115 356.213 826.907 350.121C827.912 348.794 828.805 348.131 829.585 348.131C830.252 348.131 830.59 348.467 830.59 349.13C830.59 349.794 830.139 350.742 829.255 351.957C826.136 356.058 822.791 359.824 819.23 363.262C815.66 366.7 811.822 369.854 807.697 372.741C799.11 378.936 791.866 382.038 785.966 382.038ZM786.962 357.11C791.199 357.11 796.71 355.007 803.512 350.793C805.739 349.242 807.94 347.493 810.115 345.554C812.29 343.616 814.066 341.651 815.461 339.652C816.856 337.661 817.549 335.886 817.549 334.335C817.549 332.896 816.379 332.172 814.04 332.172C810.695 332.172 806.016 334.663 799.994 339.652C797.091 342.09 794.31 344.753 791.632 347.631C788.955 350.518 786.676 353.559 784.779 356.774C785.463 356.998 786.182 357.11 786.962 357.11Z" fill="white"/>
<path d="M833.106 380.21C829.874 380.21 826.867 379.409 824.077 377.798C821.287 376.195 819.9 373.506 819.9 369.732C819.9 364.528 821.763 358.315 825.498 351.111C829.232 343.907 833.496 336.428 838.287 328.673C851.328 307.622 860.573 297.092 866.032 297.092C867.141 297.092 868.285 297.505 869.455 298.341C870.624 299.168 871.266 300.09 871.378 301.081L859.681 316.704C855.114 322.796 850.99 328.423 847.307 333.576C843.633 338.729 840.453 343.356 837.776 347.457C836.442 349.56 834.934 351.947 833.262 354.609C831.589 357.272 830.108 360.012 828.834 362.839C827.551 365.665 826.91 368.517 826.91 371.404C826.91 372.731 827.3 373.929 828.08 374.98C828.86 376.031 830.255 376.557 832.256 376.557C835.818 376.557 840.505 374.644 846.294 370.818C852.09 366.992 857.826 361.701 863.511 354.946C864.065 354.282 864.68 353.67 865.348 353.119C866.015 352.567 866.569 352.292 867.02 352.292C867.574 352.292 867.852 352.628 867.852 353.291C867.852 353.627 867.488 354.265 866.769 355.204C866.041 356.143 865.46 356.893 865.01 357.444L860.998 361.934C858.771 364.372 856.119 367.035 853.061 369.913C849.993 372.8 846.761 375.23 843.365 377.229C839.986 379.211 836.554 380.21 833.106 380.21Z" fill="white"/>
<path d="M873.729 380.21C870.497 380.21 867.49 379.409 864.7 377.798C861.91 376.195 860.523 373.506 860.523 369.732C860.523 364.528 862.386 358.315 866.121 351.111C869.856 343.907 874.119 336.428 878.91 328.673C891.951 307.622 901.196 297.092 906.655 297.092C907.764 297.092 908.908 297.505 910.078 298.341C911.248 299.168 911.889 300.09 912.001 301.081L900.304 316.704C895.737 322.796 891.613 328.423 887.93 333.576C884.257 338.729 881.076 343.356 878.399 347.457C877.065 349.56 875.557 351.947 873.885 354.609C872.212 357.272 870.731 360.012 869.457 362.839C868.175 365.665 867.533 368.517 867.533 371.404C867.533 372.731 867.923 373.929 868.703 374.98C869.483 376.031 870.878 376.557 872.88 376.557C876.441 376.557 881.129 374.644 886.917 370.818C892.713 366.992 898.45 361.701 904.134 354.946C904.688 354.282 905.303 353.67 905.971 353.119C906.638 352.567 907.192 352.292 907.643 352.292C908.198 352.292 908.475 352.628 908.475 353.291C908.475 353.627 908.111 354.265 907.392 355.204C906.664 356.143 906.083 356.893 905.633 357.444L901.621 361.934C899.394 364.372 896.743 367.035 893.684 369.913C890.617 372.8 887.385 375.23 883.988 377.229C880.609 379.211 877.177 380.21 873.729 380.21Z" fill="white"/>
<path d="M309.992 449.752V421.032H313.042V449.752H309.992Z" fill="white"/>
<path d="M349.686 449.752V421.032H352.198L372.128 445.978H370.81V421.032H373.826V449.752H371.313L351.427 424.806H352.744V449.752H349.686Z" fill="white"/>
<path d="M413.521 449.752H410.471V421.032H430.279V423.66H413.529V449.752H413.521ZM413.191 434.94H428.459V437.568H413.191V434.94Z" fill="white"/>
<path d="M463.822 449.752V421.032H466.872V447.133H483.05V449.761H463.822V449.752Z" fill="white"/>
<path d="M526.455 449.999C522.772 449.999 519.869 448.948 517.746 446.837C515.624 444.734 514.566 441.615 514.566 437.479V421.021H517.616V437.349C517.616 440.745 518.388 443.243 519.93 444.855C521.472 446.466 523.647 447.276 526.446 447.276C529.279 447.276 531.463 446.466 533.005 444.855C534.548 443.243 535.319 440.736 535.319 437.349V421.021H538.291V437.479C538.291 441.606 537.242 444.726 535.137 446.837C533.04 448.939 530.137 449.999 526.455 449.999Z" fill="white"/>
<path d="M577.792 447.124H595.165V449.752H574.742V421.032H594.55V423.66H577.801V447.124H577.792ZM577.463 433.871H592.73V436.456H577.463V433.871Z" fill="white"/>
<path d="M629.578 449.752V421.032H632.1L652.029 445.978H650.712V421.032H653.727V449.752H651.206L631.32 424.806H632.637V449.752H629.578Z" fill="white"/>
<path d="M702.907 449.999C700.732 449.999 698.722 449.637 696.885 448.914C695.039 448.19 693.445 447.173 692.102 445.855C690.75 444.545 689.701 442.994 688.948 441.219C688.194 439.444 687.812 437.496 687.812 435.394C687.812 433.291 688.194 431.344 688.948 429.569C689.701 427.794 690.759 426.243 692.128 424.933C693.488 423.623 695.091 422.598 696.937 421.874C698.782 421.15 700.784 420.788 702.959 420.788C705.047 420.788 707.014 421.133 708.859 421.831C710.705 422.529 712.256 423.571 713.521 424.967L711.58 426.897C710.393 425.691 709.093 424.829 707.664 424.295C706.234 423.761 704.692 423.494 703.045 423.494C701.312 423.494 699.701 423.787 698.219 424.373C696.737 424.959 695.438 425.795 694.337 426.88C693.237 427.957 692.379 429.215 691.755 430.654C691.14 432.093 690.828 433.67 690.828 435.394C690.828 437.117 691.14 438.694 691.755 440.133C692.37 441.572 693.237 442.83 694.337 443.907C695.438 444.984 696.729 445.82 698.219 446.415C699.701 447.001 701.312 447.294 703.045 447.294C704.7 447.294 706.234 447.018 707.664 446.475C709.093 445.932 710.402 445.053 711.58 443.847L713.521 445.777C712.256 447.173 710.696 448.224 708.859 448.939C707.005 449.637 705.021 449.999 702.907 449.999Z" fill="white"/>
<path d="M750.308 447.124H767.681V449.752H747.258V421.032H767.066V423.66H750.316V447.124H750.308ZM749.979 433.871H765.246V436.456H749.979V433.871Z" fill="white"/>
<path d="M802.102 449.752V421.032H812.915C815.359 421.032 817.464 421.42 819.232 422.204C820.991 422.98 822.351 424.108 823.296 425.573C824.249 427.038 824.717 428.805 824.717 430.89C824.717 432.915 824.24 434.656 823.296 436.12C822.343 437.585 820.991 438.705 819.232 439.49C817.473 440.265 815.368 440.661 812.915 440.661H803.8L805.16 439.266V449.77H802.102V449.752ZM805.152 439.498L803.791 438.059H812.829C815.714 438.059 817.906 437.43 819.414 436.172C820.913 434.914 821.667 433.148 821.667 430.881C821.667 428.581 820.913 426.806 819.414 425.547C817.915 424.289 815.723 423.66 812.829 423.66H803.791L805.152 422.221V439.498ZM821.823 449.752L814.397 439.326H817.698L825.167 449.752H821.823Z" fill="white"/>
<path d="M867.124 449.999C864.975 449.999 862.921 449.654 860.954 448.956C858.987 448.258 857.471 447.362 856.396 446.267L857.592 443.932C858.606 444.915 859.975 445.742 861.699 446.414C863.415 447.086 865.226 447.422 867.124 447.422C868.943 447.422 870.416 447.198 871.56 446.741C872.704 446.293 873.544 445.681 874.081 444.915C874.619 444.148 874.887 443.303 874.887 442.373C874.887 441.252 874.567 440.348 873.917 439.667C873.267 438.986 872.426 438.443 871.378 438.047C870.33 437.651 869.177 437.306 867.912 437.004C866.647 436.703 865.382 436.384 864.117 436.039C862.852 435.695 861.691 435.238 860.634 434.66C859.576 434.083 858.719 433.325 858.077 432.386C857.428 431.438 857.107 430.206 857.107 428.672C857.107 427.25 857.488 425.94 858.242 424.751C858.996 423.562 860.157 422.605 861.725 421.882C863.294 421.158 865.304 420.796 867.747 420.796C869.368 420.796 870.979 421.02 872.574 421.477C874.168 421.925 875.546 422.554 876.698 423.347L875.667 425.768C874.428 424.949 873.111 424.346 871.725 423.958C870.338 423.579 868.995 423.381 867.704 423.381C865.971 423.381 864.541 423.614 863.415 424.079C862.289 424.544 861.457 425.165 860.92 425.949C860.382 426.724 860.114 427.612 860.114 428.594C860.114 429.714 860.434 430.619 861.084 431.3C861.734 431.981 862.583 432.515 863.64 432.903C864.697 433.29 865.859 433.626 867.124 433.928C868.389 434.23 869.645 434.557 870.901 434.91C872.149 435.264 873.31 435.72 874.367 436.289C875.425 436.849 876.282 437.599 876.924 438.529C877.573 439.46 877.894 440.675 877.894 442.183C877.894 443.579 877.513 444.872 876.742 446.061C875.97 447.25 874.792 448.206 873.215 448.93C871.629 449.637 869.602 449.999 867.124 449.999Z" fill="white"/>
<path d="M626.235 251.484C613.264 251.484 602.182 242.885 602.182 242.885C602.182 242.885 593.534 231.872 593.534 218.964C593.534 206.065 591.637 177 591.637 177C591.637 177 589.739 206.056 589.739 218.964C589.739 231.864 581.091 242.885 581.091 242.885C581.091 242.885 570.018 251.484 557.038 251.484C544.066 251.484 514.84 253.371 514.84 253.371C514.84 253.371 544.058 255.259 557.038 255.259C570.009 255.259 581.091 263.858 581.091 263.858C581.091 263.858 589.739 274.871 589.739 287.779C589.739 300.678 591.637 329.743 591.637 329.743C591.637 329.743 593.534 300.687 593.534 287.779C593.534 274.879 602.182 263.858 602.182 263.858C602.182 263.858 613.255 255.259 626.235 255.259C639.207 255.259 668.433 253.371 668.433 253.371C668.433 253.371 639.207 251.484 626.235 251.484Z" fill="white"/>
<path d="M537.99 209.838C537.99 209.838 538.198 221.746 550.909 222.272C538.198 222.798 537.99 234.706 537.99 234.706C537.99 234.706 537.782 222.798 525.07 222.272C537.782 221.746 537.99 209.838 537.99 209.838Z" fill="white"/>
<path d="M633.06 198.93C633.06 198.93 633.268 210.838 645.979 211.364C633.268 211.889 633.06 223.798 633.06 223.798C633.06 223.798 632.852 211.889 620.141 211.364C632.852 210.838 633.06 198.93 633.06 198.93Z" fill="white"/>
<path d="M620.533 293.078C620.533 293.078 620.715 303.444 631.789 303.901C620.724 304.358 620.533 314.724 620.533 314.724C620.533 314.724 620.351 304.358 609.277 303.901C620.351 303.453 620.533 293.078 620.533 293.078Z" fill="white"/>
<path d="M562.143 224.787C582.488 242.96 601.862 262.219 620.137 282.46C599.774 264.287 580.417 245.02 562.143 224.787Z" fill="white"/>
<path d="M621.095 224.787C602.821 245.02 583.455 264.287 563.102 282.46C581.367 262.21 600.742 242.96 621.095 224.787Z" fill="white"/>
<path d="M530.766 276.82C504.736 270.055 473.387 271.779 458.336 310.132C458.397 310.158 458.466 310.184 458.527 310.21C462.954 302.007 484.694 267.169 530.029 277.81C552.896 283.472 569.601 275.07 573.076 272.546C576.551 270.021 583.517 260.603 583.517 260.603C583.517 260.603 557.193 283.696 530.766 276.82Z" fill="white"/>
<path d="M490.567 347.183C488.8 328.019 471.747 313.905 452.468 315.663C433.197 317.42 419.004 334.387 420.772 353.551C422.539 372.715 439.592 386.829 458.871 385.072C478.142 383.314 492.335 366.356 490.567 347.183ZM455.951 377.515C440.753 378.902 427.296 367.769 425.901 352.655C424.515 337.541 435.701 324.159 450.908 322.771C466.106 321.384 479.563 332.517 480.958 347.631C482.353 362.754 471.158 376.127 455.951 377.515Z" fill="white"/>
<path d="M441.523 368.604C429.054 361.004 428.742 342.503 440.05 333.654C443.594 330.802 448.056 329.156 452.423 329.173C444.373 331.724 438.005 337.798 435.804 345.829C433.525 353.817 436.012 362.417 441.523 368.604Z" fill="white"/>
<path d="M446.057 319.059L447.209 310.977C447.512 308.84 449.471 307.323 451.628 307.556L468.412 309.331C470.665 309.572 472.277 311.606 471.982 313.837L471.029 321.024L446.057 319.059Z" fill="white"/>
<defs>
<linearGradient id="paint0_linear_852_104808" x1="0" y1="0" x2="1276.61" y2="291.577" gradientUnits="userSpaceOnUse">
<stop stop-color="#FF71A4"/>
<stop offset="1" stop-color="#D33BFE"/>
</linearGradient>
</defs>
</svg>
