<svg width="20" height="20" viewBox="0 0 20 20" fill="none" xmlns="http://www.w3.org/2000/svg" id="bulkUnsend">
<mask id="mask0_996_103508" style="mask-type:alpha" maskUnits="userSpaceOnUse" x="0" y="0" width="20" height="20">
<rect width="20" height="20" fill="#D9D9D9"/>
</mask>
<g mask="url(#mask0_996_103508)">
<path d="M9.96544 10.2122L11.6412 11.9397C11.7526 12.0551 11.8926 12.1115 12.0613 12.1088C12.2299 12.1061 12.3699 12.0471 12.4813 11.9317C12.5927 11.8163 12.6484 11.6726 12.6484 11.5006C12.6484 11.3286 12.5927 11.1849 12.4813 11.0695L10.8133 9.33396L12.4813 7.59838C12.5927 7.48299 12.6472 7.33796 12.6446 7.1633C12.642 6.98862 12.585 6.84359 12.4736 6.72821C12.3622 6.61283 12.2235 6.55513 12.0574 6.55513C11.8913 6.55513 11.7526 6.61283 11.6412 6.72821L9.96544 8.45578L8.2897 6.72821C8.17829 6.61283 8.03826 6.55646 7.86962 6.55913C7.70096 6.56181 7.56094 6.62084 7.44954 6.73621C7.33813 6.8516 7.28242 6.9953 7.28242 7.1673C7.28242 7.3393 7.33813 7.48299 7.44954 7.59838L9.11753 9.33396L7.44954 11.0695C7.33813 11.1849 7.28371 11.33 7.28629 11.5046C7.28888 11.6793 7.34587 11.8243 7.45726 11.9397C7.56867 12.0551 7.70741 12.1128 7.87348 12.1128C8.03955 12.1128 8.17829 12.0551 8.2897 11.9397L9.96544 10.2122ZM5.16881 15.5839L3.55808 17.2522C3.32908 17.4894 3.06578 17.543 2.76819 17.4132C2.47058 17.2834 2.32178 17.0497 2.32178 16.7121V4.5904C2.32178 4.16946 2.46258 3.81315 2.74419 3.52148C3.0258 3.22982 3.36982 3.08398 3.77625 3.08398H16.1546C16.5611 3.08398 16.9051 3.22982 17.1867 3.52148C17.4683 3.81315 17.6091 4.16946 17.6091 4.5904V14.0775C17.6091 14.4985 17.4683 14.8548 17.1867 15.1464C16.9051 15.4381 16.5611 15.5839 16.1546 15.5839H5.16881ZM4.65511 14.334H16.1546C16.2165 14.334 16.2733 14.3073 16.3249 14.2538C16.3764 14.2004 16.4022 14.1416 16.4022 14.0775V4.5904C16.4022 4.52629 16.3764 4.46752 16.3249 4.41409C16.2733 4.36067 16.2165 4.33396 16.1546 4.33396H3.77625C3.71435 4.33396 3.6576 4.36067 3.60602 4.41409C3.55444 4.46752 3.52865 4.52629 3.52865 4.5904V15.4878L4.65511 14.334Z" fill="white"/>
</g>
</svg>
