<svg width="28" height="28" viewBox="0 0 28 28" fill="none" xmlns="http://www.w3.org/2000/svg"
    id="chatEmoji">
    <path
        d="M18.2609 12.4568C18.7159 12.4568 19.0922 12.308 19.3897 12.0105C19.6872 11.713 19.8359 11.3368 19.8359 10.8818C19.8359 10.4268 19.6872 10.0505 19.3897 9.75302C19.0922 9.45552 18.7159 9.30677 18.2609 9.30677C17.8059 9.30677 17.4297 9.45552 17.1322 9.75302C16.8347 10.0505 16.6859 10.4268 16.6859 10.8818C16.6859 11.3368 16.8347 11.713 17.1322 12.0105C17.4297 12.308 17.8059 12.4568 18.2609 12.4568ZM9.74427 12.4568C10.1993 12.4568 10.5755 12.308 10.873 12.0105C11.1705 11.713 11.3193 11.3368 11.3193 10.8818C11.3193 10.4268 11.1705 10.0505 10.873 9.75302C10.5755 9.45552 10.1993 9.30677 9.74427 9.30677C9.28927 9.30677 8.91302 9.45552 8.61552 9.75302C8.31802 10.0505 8.16927 10.4268 8.16927 10.8818C8.16927 11.3368 8.31802 11.713 8.61552 12.0105C8.91302 12.308 9.28927 12.4568 9.74427 12.4568ZM14.0026 20.3901C15.1109 20.3901 16.1561 20.1276 17.138 19.6026C18.12 19.0776 18.8929 18.3484 19.4568 17.4151C19.6123 17.1818 19.6269 16.9776 19.5005 16.8026C19.3741 16.6276 19.1763 16.5401 18.9069 16.5401H9.09461C8.82527 16.5401 8.63288 16.6276 8.51743 16.8026C8.40199 16.9776 8.42205 17.1818 8.5776 17.4151C9.14149 18.3484 9.90955 19.0776 10.8818 19.6026C11.854 20.1276 12.8943 20.3901 14.0026 20.3901ZM14.0104 25.6693C12.4016 25.6693 10.8898 25.363 9.47495 24.7505C8.06005 24.138 6.82274 23.3019 5.76302 22.2422C4.7033 21.1825 3.86719 19.9444 3.25469 18.5281C2.64219 17.1117 2.33594 15.5984 2.33594 13.988C2.33594 12.3777 2.64219 10.8643 3.25469 9.44797C3.86719 8.03161 4.7033 6.79844 5.76302 5.74844C6.82274 4.69844 8.06078 3.86719 9.47713 3.25469C10.8935 2.64219 12.4068 2.33594 14.0172 2.33594C15.6276 2.33594 17.1409 2.64219 18.5572 3.25469C19.9736 3.86719 21.2068 4.69844 22.2568 5.74844C23.3068 6.79844 24.138 8.03316 24.7505 9.4526C25.363 10.872 25.6693 12.3861 25.6693 13.9948C25.6693 15.6036 25.363 17.1154 24.7505 18.5303C24.138 19.9452 23.3068 21.1807 22.2568 22.2368C21.2068 23.293 19.972 24.1291 18.5526 24.7452C17.1332 25.3612 15.6191 25.6693 14.0104 25.6693Z"
        fill="currentColor" />
</svg>