<svg width="28" height="28" viewBox="0 0 28 28" fill="none" xmlns="http://www.w3.org/2000/svg" id="chat_tip">
    <path
        d="M3.36613 10.3235C4.15089 7.16314 6.65686 4.71956 9.83549 4.01522L10.365 3.89789C12.7592 3.36737 15.2405 3.36737 17.6347 3.89789L18.1642 4.01522C21.3428 4.71956 23.8488 7.16314 24.6335 10.3235C25.233 12.7378 25.233 15.2622 24.6335 17.6765C23.8488 20.8369 21.3428 23.2804 18.1642 23.9848L17.6347 24.1021C15.2405 24.6326 12.7592 24.6326 10.365 24.1021L9.83549 23.9848C6.65685 23.2804 4.15089 20.8369 3.36613 17.6765C2.76663 15.2622 2.76663 12.7378 3.36613 10.3235Z"
        stroke="currentColor" stroke-width="1.75" />
    <path fill-rule="evenodd" clip-rule="evenodd"
        d="M14.0003 8.16663C14.4464 8.16663 14.808 8.50728 14.808 8.9275V9.54998H14.8974C16.3995 9.54998 17.5 10.7801 17.5 12.1554C17.5 12.5756 17.1384 12.9163 16.6923 12.9163C16.2462 12.9163 15.8846 12.5756 15.8846 12.1554C15.8846 11.4932 15.3779 11.0717 14.8974 11.0717H14.808V13.4671L15.8985 13.8406C16.8895 14.1801 17.5 15.1033 17.5 16.0811C17.5 17.3256 16.5026 18.4499 15.1277 18.4499H14.808V19.0724C14.808 19.4926 14.4464 19.8333 14.0003 19.8333C13.5542 19.8333 13.1926 19.4926 13.1926 19.0724V18.4499H13.1026C11.6005 18.4499 10.5 17.2197 10.5 15.8444C10.5 15.4242 10.8616 15.0836 11.3077 15.0836C11.7538 15.0836 12.1154 15.4242 12.1154 15.8444C12.1154 16.5066 12.6221 16.9281 13.1026 16.9281H13.1926V14.5329L12.1015 14.1592C11.1105 13.8197 10.5 12.8965 10.5 11.9187C10.5 10.6742 11.4974 9.54998 12.8723 9.54998H13.1926V8.9275C13.1926 8.50728 13.5542 8.16663 14.0003 8.16663ZM13.1926 11.0717H12.8723C12.519 11.0717 12.1154 11.3873 12.1154 11.9187C12.1154 12.3252 12.3667 12.6308 12.6535 12.7291L13.1926 12.9137V11.0717ZM14.808 15.0863V16.9281H15.1277C15.481 16.9281 15.8846 16.6126 15.8846 16.0811C15.8846 15.6747 15.6333 15.369 15.3465 15.2708L14.808 15.0863Z"
        fill="currentColor" />
</svg>