<svg id="No_chat_2" xmlns="http://www.w3.org/2000/svg" fill="currentColor" width="115.5" height="122.689" viewBox="0 0 115.5 122.689">
  <g id="conversation" transform="translate(-15)">
    <path id="Path_105445" data-name="Path 105445" d="M279.451,34.345A34.326,34.326,0,0,0,210.892,31.8,49.153,49.153,0,0,1,253.561,68.69h25.89L270.8,57.144a34.223,34.223,0,0,0,8.655-22.8Z" transform="translate(-148.951)" />
    <path id="Path_105446" data-name="Path 105446" d="M60.715,161.8a41.981,41.981,0,0,0-35.137,69.676L15,245.591H56.955a41.981,41.981,0,0,0,3.761-83.79ZM34.07,192.168H56.955V199.8H34.07Zm45.769,22.909H34.07v-7.636H79.839Z" transform="translate(0 -122.903)"/>
  </g>
</svg>
