<svg xmlns="http://www.w3.org/2000/svg" width="31.93" height="31.871" viewBox="0 0 31.93 31.871">
  <g id="noun_Save_2209758" transform="translate(-41.2 -41.5)">
    <g id="Group_1423" data-name="Group 1423" transform="translate(41.2 41.5)">
      <path id="Path_3352" data-name="Path 3352" d="M73.13,258.618v7.068a1.608,1.608,0,0,1-.05.392h0a1.518,1.518,0,0,1-1.478,1.216H42.718a1.513,1.513,0,0,1-1.5-1.347,1.191,1.191,0,0,1-.02-.271v-7.068a1.508,1.508,0,0,1,3.016,0v5.66H70.124v-5.66a1.507,1.507,0,0,1,2.574-1.066A1.592,1.592,0,0,1,73.13,258.618Z" transform="translate(-41.2 -235.425)" fill="#011f3f"/>
      <path id="Path_3353" data-name="Path 3353" d="M126.4,57.616l-7.409,7.409c-.01.02-.03.03-.04.04a1.746,1.746,0,0,1-.975.493c-.03,0-.06.01-.09.01a1.092,1.092,0,0,1-.181.01h0l-.171-.01c-.03,0-.06-.01-.09-.01a1.715,1.715,0,0,1-.975-.493l-.04-.04-7.409-7.409a1.763,1.763,0,0,1,2.493-2.493l4.454,4.454V43.259a1.768,1.768,0,0,1,1.759-1.759,1.8,1.8,0,0,1,1.247.513,1.738,1.738,0,0,1,.513,1.247V59.576l4.454-4.454a1.772,1.772,0,0,1,2.493,0A1.8,1.8,0,0,1,126.4,57.616Z" transform="translate(-101.734 -41.5)" fill="#011f3f"/>
    </g>
  </g>
</svg>
