<svg id="chatEye" width="16" height="16" viewBox="0 0 16 16" fill="none" xmlns="http://www.w3.org/2000/svg">
<path fill-rule="evenodd" clip-rule="evenodd" d="M2.62533 5.86232C5.03738 2.04589 10.9626 2.0459 13.3747 5.86232C14.2084 7.18153 14.2084 8.81847 13.3747 10.1377C10.9626 13.9541 5.03738 13.9541 2.62533 10.1377C1.79156 8.81847 1.79156 7.18153 2.62533 5.86232ZM6.24354 8.03427C6.24354 7.12088 7.02971 6.38136 7.99966 6.38136C8.96977 6.38136 9.75646 7.12104 9.75646 8.03427C9.75646 8.94677 8.96986 9.68652 7.99966 9.68652C7.02963 9.68652 6.24354 8.94693 6.24354 8.03427ZM7.99966 5.60717C6.57509 5.60717 5.42069 6.69346 5.42069 8.03427C5.42069 9.37451 6.57518 10.4607 7.99966 10.4607C9.42397 10.4607 10.5793 9.37467 10.5793 8.03427C10.5793 6.6933 9.42406 5.60717 7.99966 5.60717Z" fill="currentColor"/>
</svg>
