<svg xmlns="http://www.w3.org/2000/svg" width="60" height="60" viewBox="0 0 60 60">
  <g id="chat_gallery" transform="translate(11805 -2190)">
    <path id="Path_108955" data-name="Path 108955" d="M30,0A30,30,0,1,1,0,30,30,30,0,0,1,30,0Z" transform="translate(-11805 2190)" fill="#f68d0b"/>
    <path id="Icon_awesome-image" data-name="Icon awesome-image" d="M22.647,23.243H2.343A2.343,2.343,0,0,1,0,20.9V6.843A2.343,2.343,0,0,1,2.343,4.5h20.3A2.343,2.343,0,0,1,24.99,6.843V20.9A2.343,2.343,0,0,1,22.647,23.243ZM5.467,7.233A2.733,2.733,0,1,0,8.2,9.967,2.733,2.733,0,0,0,5.467,7.233ZM3.124,20.119H21.866V14.652l-4.272-4.272a.586.586,0,0,0-.828,0L10.152,17l-2.71-2.71a.586.586,0,0,0-.828,0L3.124,17.776Z" transform="translate(-11787 2206.5)" fill="#fff"/>
  </g>
</svg>