<svg xmlns="http://www.w3.org/2000/svg" width="88.904" height="75.708" viewBox="0 0 88.904 75.708">
  <g id="message_icon" transform="translate(-2.5 -6.5)">
    <path id="Path_172083" data-name="Path 172083" d="M36.8,32.019,72.07,6.5H3.35ZM86.163,13.086H79.577V50.1A15.674,15.674,0,0,1,63.9,65.77H50.37L44.147,76.175l3.062,4.577a3.293,3.293,0,0,0,5.466,0l5.5-8.4h18.11A13.171,13.171,0,0,0,89.455,59.184V16.378A3.293,3.293,0,0,0,86.163,13.086Z" transform="translate(1.949 0)" fill="#ff71a4"/>
    <path id="Path_172084" data-name="Path 172084" d="M40.663,35.248a3.311,3.311,0,0,1-3.918-.033L2.5,9.2V55.63a3.293,3.293,0,0,0,3.293,3.293H26.965L35.889,73.74a3.293,3.293,0,0,0,5.664,0l2.5-4.182,3.721-6.19,2.7-4.478H65.853A12.414,12.414,0,0,0,78.233,46.509V8.05Z" transform="translate(0 3.554)" fill="#ff71a4"/>
  </g>
</svg>