<svg width="28" height="28" viewBox="0 0 28 28" fill="none" xmlns="http://www.w3.org/2000/svg"
    id="micIcon">
    <path
        d="M14.5249 18.2377L14.6491 19.1038H14.6491L14.5249 18.2377ZM13.4857 18.2377L13.6099 17.3715H13.6099L13.4857 18.2377ZM13.4779 3.5382L13.3519 2.67232H13.3519L13.4779 3.5382ZM14.5327 3.5382L14.6587 2.67232V2.67232L14.5327 3.5382ZM9.1933 13.8981L8.32765 14.0257L9.1933 13.8981ZM9.19352 7.88309L10.0592 8.01067L9.19352 7.88309ZM18.8142 7.90302L19.6801 7.77672L18.8142 7.90302ZM18.8145 13.8782L17.9486 13.7519L18.8145 13.8782ZM14.6413 18.221L14.5171 17.3548H14.5171L14.6413 18.221ZM14.6455 3.55463L14.5195 4.42051L14.5195 4.42051L14.6455 3.55463ZM13.3471 3.55724L13.4731 4.42312L13.3471 3.55724ZM13.3513 18.2184L13.2271 19.0845L13.2271 19.0845L13.3513 18.2184ZM23.0418 13.3619C23.0418 12.8787 22.6501 12.4869 22.1668 12.4869C21.6836 12.4869 21.2918 12.8787 21.2918 13.3619H23.0418ZM6.7085 13.3619C6.7085 12.8787 6.31675 12.4869 5.8335 12.4869C5.35025 12.4869 4.9585 12.8787 4.9585 13.3619H6.7085ZM13.1252 24.5C13.1252 24.9833 13.5169 25.375 14.0002 25.375C14.4834 25.375 14.8752 24.9833 14.8752 24.5H13.1252ZM13.4731 4.42312L13.6039 4.40408L13.3519 2.67232L13.221 2.69137L13.4731 4.42312ZM14.4066 4.40408L14.5195 4.42051L14.7716 2.68875L14.6587 2.67232L14.4066 4.40408ZM14.5171 17.3548L14.4007 17.3715L14.6491 19.1038L14.7655 19.0871L14.5171 17.3548ZM13.6099 17.3715L13.4755 17.3523L13.2271 19.0845L13.3615 19.1038L13.6099 17.3715ZM14.4007 17.3715C14.1382 17.4092 13.8723 17.4092 13.6099 17.3715L13.3615 19.1038C13.7887 19.1651 14.2219 19.1651 14.6491 19.1038L14.4007 17.3715ZM13.6039 4.40408C13.8703 4.36531 14.1403 4.36531 14.4066 4.40408L14.6587 2.67232C14.2252 2.60923 13.7854 2.60923 13.3519 2.67232L13.6039 4.40408ZM10.0589 13.7705C9.77778 11.8628 9.77799 9.91854 10.0592 8.01067L8.32787 7.75551C8.02178 9.83244 8.02153 11.9486 8.32765 14.0257L10.0589 13.7705ZM17.9484 8.02933C18.2249 9.92507 18.2251 11.8563 17.9486 13.7519L19.6803 14.0045C19.9813 11.9412 19.981 9.83985 19.6801 7.77672L17.9484 8.02933ZM17.9486 13.7519C17.6692 15.6673 16.2474 17.1067 14.5171 17.3548L14.7655 19.0871C17.3236 18.7203 19.2979 16.6255 19.6803 14.0045L17.9486 13.7519ZM19.6801 7.77672C19.298 5.15778 17.3275 3.06075 14.7716 2.68875L14.5195 4.42051C16.2488 4.67219 17.669 6.1141 17.9484 8.02933L19.6801 7.77672ZM10.0592 8.01067C10.3399 6.10607 11.7533 4.67343 13.4731 4.42312L13.221 2.69137C10.6756 3.06183 8.71214 5.14813 8.32787 7.75551L10.0592 8.01067ZM8.32765 14.0257C8.71223 16.6352 10.6796 18.7192 13.2271 19.0845L13.4755 17.3523C11.7546 17.1055 10.3397 15.6753 10.0589 13.7705L8.32765 14.0257ZM21.2918 13.3619C21.2918 17.7124 17.9793 21.1499 14.0002 21.1499V22.8999C19.0417 22.8999 23.0418 18.5802 23.0418 13.3619H21.2918ZM14.0002 21.1499C10.021 21.1499 6.7085 17.7124 6.7085 13.3619H4.9585C4.9585 18.5802 8.95867 22.8999 14.0002 22.8999V21.1499ZM13.1252 22.0249V24.5H14.8752V22.0249H13.1252Z"
        fill="currentColor" />
</svg>