<svg xmlns="http://www.w3.org/2000/svg" width="25" height="25" viewBox="0 0 25 25"><defs><style>.a{fill:#9d9d9d;}</style></defs><path class="a" d="M12.5,0A12.5,12.5,0,1,0,25,12.5,12.514,12.514,0,0,0,12.5,0Zm0,23.649A11.147,11.147,0,1,1,23.649,12.5,11.113,11.113,0,0,1,12.5,23.649Z"/><circle class="a" cx="1.351" cy="1.351" r="1.351" transform="translate(7.066 8.361)"/><circle class="a" cx="1.351" cy="1.351" r="1.351" transform="translate(15.428 8.361)"/><path class="a" d="M77.184,183.488a7.846,7.846,0,0,0,6.554-3.557L82.6,179.2a6.42,6.42,0,0,1-10.791,0l-1.135.733a7.847,7.847,0,0,0,5.632,3.507A7.632,7.632,0,0,0,77.184,183.488Z" transform="translate(-64.708 -164.063)"/></svg>