<svg id="unlockIcon" width="16" height="16" viewBox="0 0 16 16" fill="none" xmlns="http://www.w3.org/2000/svg">
<g clip-path="url(#clip0_23_52010)">
<path d="M11.9993 6.66732V5.33398C11.9993 3.12732 11.3327 1.33398 7.99935 1.33398C4.99935 1.33398 3.99935 2.66732 3.99935 4.66732M4.66602 14.6673H11.3327C13.9993 14.6673 14.666 14.0007 14.666 11.334V10.0007C14.666 7.33398 13.9993 6.66732 11.3327 6.66732H4.66602C1.99935 6.66732 1.33268 7.33398 1.33268 10.0007V11.334C1.33268 14.0007 1.99935 14.6673 4.66602 14.6673Z" stroke="currentColor" stroke-width="1.5" stroke-linecap="round" stroke-linejoin="round"/>
<path d="M7.99935 12.3333C7.55732 12.3333 7.1334 12.1577 6.82084 11.8452C6.50828 11.5326 6.33268 11.1087 6.33268 10.6667C6.33268 10.2246 6.50828 9.80072 6.82084 9.48816C7.1334 9.17559 7.55732 9 7.99935 9C8.44138 9 8.8653 9.17559 9.17786 9.48816C9.49042 9.80072 9.66602 10.2246 9.66602 10.6667C9.66602 11.1087 9.49042 11.5326 9.17786 11.8452C8.8653 12.1577 8.44138 12.3333 7.99935 12.3333Z" stroke="currentColor" stroke-width="1.5" stroke-linecap="round" stroke-linejoin="round"/>
</g>
<defs>
<clipPath id="clip0_23_52010">
<rect width="16" height="16" fill="white" transform="matrix(-1 0 0 1 16 0)"/>
</clipPath>
</defs>
</svg>
