<svg id="userListAvtar" width="16" height="16" viewBox="0 0 16 16" fill="none" xmlns="http://www.w3.org/2000/svg">
<path d="M12.6667 0.666016C12.0373 0.666016 11.4613 0.884682 11.0027 1.25268C10.6891 1.50093 10.4359 1.81711 10.2622 2.1774C10.0885 2.5377 9.99887 2.93271 10 3.33268C10 3.83401 10.1387 4.30334 10.3893 4.70334C10.6233 5.09893 10.9564 5.42659 11.3558 5.65389C11.7553 5.8812 12.2071 6.00028 12.6667 5.99934C13.3387 5.99934 13.952 5.75401 14.4213 5.33268C14.6293 5.15668 14.8107 4.94334 14.9493 4.70334C15.1947 4.30334 15.3333 3.83401 15.3333 3.33268C15.3333 1.86068 14.1387 0.666016 12.6667 0.666016ZM14.048 3.04468L12.624 4.35668C12.528 4.44735 12.4053 4.49001 12.2827 4.49001C12.2174 4.49035 12.1527 4.4778 12.0923 4.45309C12.0319 4.42838 11.977 4.39199 11.9307 4.34601L11.2747 3.68468C11.2278 3.63826 11.1906 3.58302 11.1652 3.52215C11.1398 3.46127 11.1268 3.39597 11.1268 3.33001C11.1268 3.26406 11.1398 3.19875 11.1652 3.13788C11.1906 3.077 11.2278 3.02176 11.2747 2.97535C11.472 2.77801 11.7867 2.77801 11.984 2.97535L12.2987 3.29001L13.3707 2.30335C13.5733 2.11668 13.888 2.12735 14.0747 2.33001C14.2613 2.53801 14.2507 2.85801 14.048 3.04468Z" fill="currentColor"/>
<path d="M14.6673 8.00068C14.6673 7.12735 14.5007 6.28735 14.1873 5.52068C13.9807 5.66735 13.7473 5.78068 13.5007 5.86068C13.4273 5.88735 13.354 5.90735 13.274 5.92735C13.6762 6.94846 13.7724 8.06455 13.5511 9.13945C13.3297 10.2144 12.8002 11.2016 12.0273 11.9807C11.834 11.734 11.5873 11.5073 11.294 11.314C9.48732 10.1007 6.52732 10.1007 4.70732 11.314C4.41398 11.5073 4.17398 11.734 3.97398 11.9807C2.92386 10.9222 2.33441 9.49171 2.33398 8.00068C2.33398 4.87401 4.87398 2.33401 8.00065 2.33401C8.72732 2.33401 9.42732 2.47401 10.0673 2.72735C10.0873 2.64735 10.1073 2.57401 10.134 2.49401C10.214 2.24735 10.3273 2.02068 10.4807 1.81401C9.69298 1.49453 8.85064 1.3315 8.00065 1.33401C4.32732 1.33401 1.33398 4.32735 1.33398 8.00068C1.33398 9.93401 2.16732 11.674 3.48732 12.894C3.48732 12.9007 3.48732 12.9007 3.48065 12.9073C3.54732 12.974 3.62732 13.0273 3.69398 13.0873C3.73398 13.1207 3.76732 13.154 3.80732 13.1807C3.92732 13.2807 4.06065 13.374 4.18732 13.4673L4.32065 13.5607C4.44732 13.6473 4.58065 13.7273 4.72065 13.8007C4.76732 13.8273 4.82065 13.8607 4.86732 13.8873C5.00065 13.9607 5.14065 14.0273 5.28732 14.0873C5.34065 14.114 5.39398 14.1407 5.44732 14.1607C5.59398 14.2207 5.74065 14.274 5.88732 14.3207C5.94065 14.3407 5.99398 14.3607 6.04732 14.374C6.20732 14.4207 6.36732 14.4607 6.52732 14.5007C6.57398 14.514 6.62065 14.5273 6.67398 14.534C6.86065 14.574 7.04732 14.6007 7.24065 14.6207C7.26732 14.6207 7.29398 14.6273 7.32065 14.634C7.54732 14.654 7.77398 14.6673 8.00065 14.6673C8.22732 14.6673 8.45398 14.654 8.67398 14.634C8.70065 14.634 8.72732 14.6273 8.75398 14.6207C8.94732 14.6007 9.13398 14.574 9.32065 14.534C9.36732 14.5273 9.41398 14.5073 9.46732 14.5007C9.62732 14.4607 9.79398 14.4273 9.94732 14.374C10.0007 14.354 10.054 14.334 10.1073 14.3207C10.254 14.2673 10.4073 14.2207 10.5473 14.1607C10.6006 14.1407 10.654 14.114 10.7073 14.0873C10.8473 14.0273 10.9873 13.9607 11.1273 13.8873C11.1807 13.8607 11.2273 13.8273 11.274 13.8007C11.4073 13.7207 11.5407 13.6473 11.674 13.5607C11.7207 13.534 11.7606 13.5007 11.8073 13.4673C11.9406 13.374 12.0673 13.2807 12.1873 13.1807C12.2273 13.1473 12.2607 13.114 12.3007 13.0873C12.374 13.0273 12.4473 12.9673 12.514 12.9073C12.514 12.9007 12.514 12.9007 12.5073 12.894C13.834 11.674 14.6673 9.93401 14.6673 8.00068Z" fill="currentColor"/>
<path d="M8 4.61914C6.62 4.61914 5.5 5.73914 5.5 7.11914C5.5 8.47247 6.56 9.57247 7.96667 9.61247H8.08667C8.73381 9.5912 9.34734 9.31921 9.79766 8.85396C10.248 8.38871 10.4998 7.76663 10.5 7.11914C10.5 5.73914 9.38 4.61914 8 4.61914Z" fill="currentColor"/>
</svg>
