
<svg xmlns="http://www.w3.org/2000/svg" width="18.299" height="10.457" viewBox="0 0 18.299 10.457">
  <g id="Icon_ionic-ios-videocam" data-name="Icon ionic-ios-videocam" transform="translate(-2.25 -9)">
    <path id="Path_75" data-name="Path 75" d="M28.742,10.8a.7.7,0,0,0-.38.11l-3.533,2.23a.349.349,0,0,0-.163.294v3.1a.349.349,0,0,0,.163.294l3.533,2.23a.734.734,0,0,0,.38.11h.85a.348.348,0,0,0,.351-.347V11.147a.35.35,0,0,0-.351-.347Z" transform="translate(-9.394 -0.754)" fill="#fff"/>
    <path id="Path_76" data-name="Path 76" d="M12.114,19.457H4.354a2.11,2.11,0,0,1-2.1-2.1V11.1A2.107,2.107,0,0,1,4.349,9H12.11a2.107,2.107,0,0,1,2.1,2.1v6.254A2.1,2.1,0,0,1,12.114,19.457Z" fill="#fff"/>
  </g>
</svg>
