<svg xmlns="http://www.w3.org/2000/svg" width="60" height="60" viewBox="0 0 60 60">
  <g id="chat_video" transform="translate(11660 -2164)">
    <path id="Path_108955" data-name="Path 108955" d="M30,0A30,30,0,1,1,0,30,30,30,0,0,1,30,0Z" transform="translate(-11660 2164)" fill="#ec407a"/>
    <g id="Icon_ionic-ios-videocam" data-name="Icon ionic-ios-videocam" transform="translate(-11646.25 2177)">
      <path id="Path_108966" data-name="Path 108966" d="M30.771,10.8a1.045,1.045,0,0,0-.569.165l-5.292,3.34a.523.523,0,0,0-.245.44V19.4a.523.523,0,0,0,.245.44l5.292,3.34a1.1,1.1,0,0,0,.569.165h1.273a.521.521,0,0,0,.526-.52V11.32a.525.525,0,0,0-.526-.52Z" transform="translate(-2.912 -0.234)" fill="#fff"/>
      <path id="Path_108967" data-name="Path 108967" d="M17.025,24.662H5.4A3.161,3.161,0,0,1,2.25,21.517V12.145A3.155,3.155,0,0,1,5.395,9H17.019a3.155,3.155,0,0,1,3.145,3.145v9.367A3.148,3.148,0,0,1,17.025,24.662Z" transform="translate(0 0)" fill="#fff"/>
    </g>
  </g>
</svg>