<svg id="purchasedIcon" width="18" height="18" viewBox="0 0 18 18" fill="none" xmlns="http://www.w3.org/2000/svg">
<path d="M8.95539 1.65884L7.14789 5.86634H5.34039C5.04039 5.86634 4.74789 5.88884 4.46289 5.94884L5.21289 4.14884L5.24289 4.08134L5.28789 3.96134C5.31039 3.90884 5.32539 3.86384 5.34789 3.82634C6.21789 1.80884 7.19289 1.17884 8.95539 1.65884ZM14.0486 6.06734L14.0336 6.05984C13.5836 5.93234 13.1261 5.86484 12.6611 5.86484H7.96614L9.65364 1.94234L9.67614 1.88984C9.78114 1.92734 9.89364 1.97984 10.0061 2.01734L11.6636 2.71484C12.5861 3.09734 13.2311 3.49484 13.6286 3.97484C13.6961 4.06484 13.7561 4.14734 13.8161 4.24484C13.8836 4.34984 13.9361 4.45484 13.9661 4.56734C13.9961 4.63484 14.0186 4.69484 14.0336 4.76234C14.1461 5.14484 14.1536 5.57984 14.0486 6.06734ZM9.39039 13.2433H9.57789C9.80289 13.2433 9.99039 13.0408 9.99039 12.7933C9.99039 12.4783 9.90039 12.4333 9.70539 12.3583L9.39039 12.2458V13.2433Z" fill="currentColor"/>
<path d="M13.7152 7.14023C13.3777 7.04273 13.0252 6.99023 12.6577 6.99023H5.33773C4.82773 6.99023 4.34773 7.08773 3.89773 7.28273C3.23932 7.56598 2.67824 8.0358 2.28373 8.63422C1.88923 9.23265 1.67856 9.93348 1.67773 10.6502V12.1127C1.67773 12.2927 1.69273 12.4652 1.71523 12.6452C1.88023 15.0302 3.15523 16.3052 5.54023 16.4627C5.71273 16.4852 5.88523 16.5002 6.07273 16.5002H11.9227C14.6977 16.5002 16.1602 15.1802 16.3027 12.5552C16.3102 12.4127 16.3177 12.2627 16.3177 12.1127V10.6502C16.3167 9.8637 16.0633 9.09825 15.5948 8.46644C15.1263 7.83462 14.4675 7.36978 13.7152 7.14023ZM9.95773 11.6252C10.3027 11.7452 10.7677 12.0002 10.7677 12.7952C10.7677 13.4777 10.2352 14.0252 9.57523 14.0252H9.38773V14.1902C9.38773 14.4077 9.21523 14.5802 8.99773 14.5802C8.78023 14.5802 8.60773 14.4077 8.60773 14.1902V14.0252H8.54023C7.82023 14.0252 7.22773 13.4177 7.22773 12.6677C7.22773 12.4502 7.40023 12.2777 7.61773 12.2777C7.83523 12.2777 8.00773 12.4502 8.00773 12.6677C8.00773 12.9827 8.24773 13.2452 8.54023 13.2452H8.60773V11.9777L8.03773 11.7752C7.69273 11.6552 7.22773 11.4002 7.22773 10.6052C7.22773 9.92273 7.76023 9.37523 8.42023 9.37523H8.60773V9.21023C8.60773 8.99273 8.78023 8.82023 8.99773 8.82023C9.21523 8.82023 9.38773 8.99273 9.38773 9.21023V9.37523H9.45523C10.1752 9.37523 10.7677 9.98273 10.7677 10.7327C10.7677 10.9502 10.5952 11.1227 10.3777 11.1227C10.1602 11.1227 9.98773 10.9502 9.98773 10.7327C9.98773 10.4177 9.74773 10.1552 9.45523 10.1552H9.38773V11.4227L9.95773 11.6252Z" fill="currentColor"/>
<path d="M8.00977 10.6043C8.00977 10.9193 8.09977 10.9643 8.29477 11.0393L8.60977 11.1518V10.1543H8.42227C8.18977 10.1543 8.00977 10.3568 8.00977 10.6043Z" fill="currentColor"/>
</svg>
