<svg id="arrowcircleright2"  width="24" height="24" viewBox="0 0 24 24" fill="none" xmlns="http://www.w3.org/2000/svg">
<path opacity="0.4" d="M12 22C17.523 22 22 17.523 22 12C22 6.477 17.523 2 12 2C6.477 2 2 6.477 2 12C2 17.523 6.477 22 12 22Z" fill="#D33AFF"/>
<path d="M18.2801 11.4716L15.28 8.47161C15.1389 8.33213 14.9485 8.25391 14.75 8.25391C14.5516 8.25391 14.3612 8.33213 14.22 8.47161C13.93 8.76161 13.93 9.24161 14.22 9.53161L15.94 11.2516H6.80797C6.39797 11.2516 6 11.59 6 12C6 12.41 6.39797 12.7516 6.80797 12.7516H15.94L14.22 14.4716C13.93 14.7616 13.93 15.2416 14.22 15.5316C14.37 15.6816 14.56 15.7516 14.75 15.7516C14.94 15.7516 15.13 15.6816 15.28 15.5316L18.2801 12.5316C18.5701 12.2416 18.5701 11.7616 18.2801 11.4716Z" fill="black"/>
</svg>
