<svg id="noun_Calendar_1776645" xmlns="http://www.w3.org/2000/svg" width="12.478" height="12.478" viewBox="0 0 12.478 12.478">
  <path id="Path_172171" data-name="Path 172171" d="M16.156,11.036v-3.9A1.039,1.039,0,0,0,15.116,6.1H13.973V5.346a.346.346,0,1,0-.693,0V6.1H7.808V5.346a.346.346,0,1,0-.693,0V6.1H6.039A1.039,1.039,0,0,0,5,7.137v7.979a1.039,1.039,0,0,0,1.039,1.039h5a3.636,3.636,0,1,0,5.119-5.119ZM6.039,6.79H7.115v.75a.346.346,0,1,0,.693,0V6.79H13.28v.75a.346.346,0,0,0,.693,0V6.79h1.143a.346.346,0,0,1,.346.346V8.811H5.693V7.137A.346.346,0,0,1,6.039,6.79Zm0,8.672a.346.346,0,0,1-.346-.346V9.5h9.77v1.08a3.635,3.635,0,0,0-4.879,4.879Zm7.8,1.316a2.945,2.945,0,1,1,2.945-2.945,2.945,2.945,0,0,1-2.945,2.945Z" transform="translate(-5 -5)" fill="#ff71a4"/>
  <path id="Path_172172" data-name="Path 172172" d="M56.3,66.25H52.346a.346.346,0,0,0,0,.693H56.3a.346.346,0,0,0,0-.693Z" transform="translate(-45.487 -57.762)" fill="#ff71a4"/>
  <path id="Path_172173" data-name="Path 172173" d="M4.3,0H.346a.346.346,0,0,0,0,.693H4.3A.346.346,0,1,0,4.3,0Z" transform="translate(9.181 6.513) rotate(90)" fill="#ff71a4"/>
</svg>
