<svg id="addCalendar" width="32" height="32" viewBox="0 0 32 32" fill="none" xmlns="http://www.w3.org/2000/svg">
<circle cx="16" cy="16" r="16" fill="url(#paint0_linear_1195_48558)"/>
<mask id="mask0_1195_48558" style="mask-type:alpha" maskUnits="userSpaceOnUse" x="6" y="6" width="20" height="20">
<rect x="6" y="6" width="20" height="20" fill="#D9D9D9"/>
</mask>
<g mask="url(#mask0_1195_48558)">
<path d="M15.1243 20.9873L12.4545 18.3174L13.3583 17.4136L15.1243 19.1796L18.6403 15.6636L19.5442 16.5674L15.1243 20.9873ZM10.4224 23.9167C10.0015 23.9167 9.64518 23.7709 9.35352 23.4792C9.06185 23.1876 8.91602 22.8313 8.91602 22.4103V11.2565C8.91602 10.8356 9.06185 10.4793 9.35352 10.1876C9.64518 9.89595 10.0015 9.75012 10.4224 9.75012H11.5763V7.9873H12.8583V9.75012H19.1724V7.9873H20.4224V9.75012H21.5762C21.9972 9.75012 22.3535 9.89595 22.6451 10.1876C22.9368 10.4793 23.0826 10.8356 23.0826 11.2565V22.4103C23.0826 22.8313 22.9368 23.1876 22.6451 23.4792C22.3535 23.7709 21.9972 23.9167 21.5762 23.9167H10.4224ZM10.4224 22.6668H21.5762C21.6403 22.6668 21.6991 22.6401 21.7525 22.5866C21.806 22.5332 21.8327 22.4744 21.8327 22.4103V14.5899H10.166V22.4103C10.166 22.4744 10.1927 22.5332 10.2461 22.5866C10.2996 22.6401 10.3583 22.6668 10.4224 22.6668ZM10.166 13.3399H21.8327V11.2565C21.8327 11.1924 21.806 11.1337 21.7525 11.0802C21.6991 11.0268 21.6403 11.0001 21.5762 11.0001H10.4224C10.3583 11.0001 10.2996 11.0268 10.2461 11.0802C10.1927 11.1337 10.166 11.1924 10.166 11.2565V13.3399Z" fill="white"/>
</g>
<defs>
<linearGradient id="paint0_linear_1195_48558" x1="16" y1="0" x2="16" y2="32" gradientUnits="userSpaceOnUse">
<stop stop-color="#D33AFF"/>
<stop offset="1" stop-color="#FF71A4"/>
</linearGradient>
</defs>
</svg>
