<svg id="videocam_off-24px" xmlns="http://www.w3.org/2000/svg" width="24" height="24" viewBox="0 0 24 24">
  <path id="Path_108043" data-name="Path 108043" d="M0,0H24V24H0ZM0,0H24V24H0Z" fill="none"/>
  <path id="message-bulleted-off" d="M1.1,1.73,0,2.827,1.727,4.554V19.236l3.455-3.455h7.773L17.9,20.73l1.1-1.1L1.1,1.73m5.812,10.6H5.182V10.6H6.909v1.727M5.182,9.736V8.009L6.909,9.736H5.182M17.273,1.963H3.524L8.636,7.076V5.418h6.909V7.145H8.705l.864.864h5.976V9.736H11.3l6.037,6.045A1.738,1.738,0,0,0,19,14.054V3.69A1.727,1.727,0,0,0,17.273,1.963Z" transform="translate(2 1.27)" fill="#8c959d"/>
</svg>
