<svg xmlns="http://www.w3.org/2000/svg" width="50" height="50" viewBox="0 0 50 50">
  <g id="Group_56920" data-name="Group 56920" transform="translate(-4589 -16326)">
    <rect id="Rectangle_22948" data-name="Rectangle 22948" width="50" height="50" rx="25" transform="translate(4589 16326)" fill="rgba(0,0,0,0.5)"/>
    <g id="_005-chat" data-name="005-chat" transform="translate(4604 16341)">
      <path id="Subtraction_15" data-name="Subtraction 15" d="M5633.9-14994.973a.981.981,0,0,1-.52-.15l-1.945-1.213a10.282,10.282,0,0,1-3.406.576h-.015c-.064,0-.129,0-.192,0a9.777,9.777,0,0,1-6.8-2.736,9.773,9.773,0,0,1-3.026-6.873v-.026a9.773,9.773,0,0,1,3.026-6.873,9.792,9.792,0,0,1,6.813-2.738l.172,0,.189,0a9.787,9.787,0,0,1,6.8,2.738,9.767,9.767,0,0,1,3.026,6.873v.016a9.481,9.481,0,0,1-3.143,6.989v2.42a.991.991,0,0,1-.78.972A.838.838,0,0,1,5633.9-14994.973Zm-10.193-8.015a.588.588,0,0,0-.588.588.588.588,0,0,0,.588.588h4.232a.588.588,0,0,0,.588-.588.588.588,0,0,0-.588-.588Zm0-2.6a.586.586,0,0,0-.588.584.588.588,0,0,0,.588.588h8.607a.588.588,0,0,0,.588-.588.586.586,0,0,0-.588-.584Zm0-2.6a.588.588,0,0,0-.588.588.588.588,0,0,0,.588.588h8.607a.588.588,0,0,0,.588-.588.588.588,0,0,0-.588-.588Z" transform="translate(-5618 15015)" fill="#fff"/>
    </g>
  </g>
</svg>
