<svg width="32" height="32" viewBox="0 0 32 32" fill="none" xmlns="http://www.w3.org/2000/svg">
<circle cx="16" cy="16" r="16" fill="url(#paint0_linear_2750_185517)"/>
<path d="M23.5 9.98307C20.725 9.70807 17.9333 9.56641 15.15 9.56641C13.5 9.56641 11.85 9.64974 10.2 9.81641L8.5 9.98307" stroke="white" stroke-width="1.5" stroke-linecap="round" stroke-linejoin="round"/>
<path d="M13.0833 9.14102L13.2666 8.04935C13.3999 7.25768 13.4999 6.66602 14.9083 6.66602H17.0916C18.4999 6.66602 18.6083 7.29102 18.7333 8.05768L18.9166 9.14102" stroke="white" stroke-width="1.5" stroke-linecap="round" stroke-linejoin="round"/>
<path d="M21.7084 12.6172L21.1667 21.0089C21.0751 22.3172 21.0001 23.3339 18.6751 23.3339H13.3251C11.0001 23.3339 10.9251 22.3172 10.8334 21.0089L10.2917 12.6172" stroke="white" stroke-width="1.5" stroke-linecap="round" stroke-linejoin="round"/>
<path d="M14.6084 18.75H17.3834" stroke="white" stroke-width="1.5" stroke-linecap="round" stroke-linejoin="round"/>
<path d="M13.9167 15.416H18.0834" stroke="white" stroke-width="1.5" stroke-linecap="round" stroke-linejoin="round"/>
<defs>
<linearGradient id="paint0_linear_2750_185517" x1="16" y1="0" x2="16" y2="32" gradientUnits="userSpaceOnUse">
<stop stop-color="#D33AFF"/>
<stop offset="1" stop-color="#FF71A4"/>
</linearGradient>
</defs>
</svg>
