<!-- <svg id="passVisibleGery" color="currentColor" xmlns="http://www.w3.org/2000/svg" width="19.01" height="10.138" viewBox="0 0 19.01 10.138"><defs><style>.a{opacity:0.6;}.b{fill:#666666;}</style></defs><g class="a" transform="translate(35 -354.581)"><g transform="translate(-35 354.581)"><circle class="b" cx="1.938" cy="1.938" r="1.938" transform="translate(7.567 3.116)"/><path class="b" d="M0,5.029s8.537,11.494,19.01,0C8.537-6.287,0,5.029,0,5.029ZM9.8,8.847a3.311,3.311,0,0,1-.391.025,3.27,3.27,0,0,1-1.381-.307A3.817,3.817,0,1,1,9.8,8.847Z" transform="translate(0 0)"/></g></g></svg>

<svg xmlns="http://www.w3.org/2000/svg" width="14.153" height="10.566" viewBox="0 0 14.153 10.566">
  <g id="Icon_feather-eye" data-name="Icon feather-eye" transform="translate(-1 -5.5)">
    <path id="Path_172088" data-name="Path 172088" d="M1.5,10.783S3.892,6,8.077,6s6.577,4.783,6.577,4.783-2.392,4.783-6.577,4.783S1.5,10.783,1.5,10.783Z" fill="none" stroke="#ffffff" stroke-linecap="round" stroke-linejoin="round" stroke-width="1"/>
    <path id="Path_172089" data-name="Path 172089" d="M17.087,15.294A1.794,1.794,0,1,1,15.294,13.5,1.794,1.794,0,0,1,17.087,15.294Z" transform="translate(-7.217 -4.511)" fill="none" stroke="#ffffff" stroke-linecap="round" stroke-linejoin="round" stroke-width="1"/>
  </g>
</svg> -->

<svg xmlns="http://www.w3.org/2000/svg" width="14.153" height="10.566" viewBox="0 0 14.153 10.566">
  <g id="Icon_feather-eye" data-name="Icon feather-eye" transform="translate(-1 -5.5)">
    <path id="Path_172088" data-name="Path 172088" d="M1.5,10.783S3.892,6,8.077,6s6.577,4.783,6.577,4.783-2.392,4.783-6.577,4.783S1.5,10.783,1.5,10.783Z" fill="none" stroke="#ffffff" stroke-linecap="round" stroke-linejoin="round" stroke-width="1"/>
    <path id="Path_172089" data-name="Path 172089" d="M17.087,15.294A1.794,1.794,0,1,1,15.294,13.5,1.794,1.794,0,0,1,17.087,15.294Z" transform="translate(-7.217 -4.511)" fill="none" stroke="#ffffff" stroke-linecap="round" stroke-linejoin="round" stroke-width="1"/>
  </g>
</svg>
