<svg width="230" height="110" viewBox="0 0 230 110" fill="none" xmlns="http://www.w3.org/2000/svg">
<path d="M0 22.068C0.458727 20.9152 1.46075 20.6713 2.52684 20.6328C4.68465 20.5558 6.72201 21.1386 8.72094 21.8754C11.2811 22.8176 13.6875 24.0448 15.7787 25.8317C15.8735 25.9113 15.9991 25.9678 16.0401 26.1116C15.8812 26.263 15.6787 26.2014 15.4993 26.204C13.0007 26.2399 10.502 26.2399 8.01363 26.0037C6.0634 25.8189 4.11573 25.5801 2.26544 24.869C1.30955 24.5018 0.466415 24.0012 0 23.0307C0 22.7098 0 22.3889 0 22.068Z" fill="white"/>
<path d="M30.9785 0.00256736C32.2931 0.921681 32.7262 2.34143 33.085 3.78428C33.4643 5.30673 33.4925 6.85484 33.2618 8.46714C32.7903 8.1873 32.452 7.80476 32.1086 7.43763C30.9426 6.1976 29.8278 4.91649 29.305 3.25027C29.0052 2.29008 29.0308 1.3607 29.692 0.521173C29.8662 0.300381 30.102 0.177148 30.3045 0C30.53 0.00256736 30.7555 0.00256736 30.9785 0.00256736Z" fill="white"/>
<path d="M45.957 12.2184C46.121 11.2222 46.385 10.2903 46.6592 9.3609C47.2153 7.4893 47.8432 5.64337 48.9939 4.03877C49.5013 3.33018 50.0933 2.70888 51.0312 2.55998C52.0486 2.39823 52.8636 3.05804 52.9199 4.08755C52.9994 5.51757 52.3818 6.69856 51.5925 7.80252C50.1804 9.77938 48.2635 11.1427 46.121 12.2184C46.098 12.2286 46.0595 12.2184 45.957 12.2184Z" fill="white"/>
<path d="M16.7953 43.9277C14.9527 46.1742 13.0794 48.3616 10.7012 50.038C10.2296 50.3692 9.73503 50.6645 9.17123 50.8083C8.60743 50.9546 8.06157 50.9931 7.6336 50.4848C7.19537 49.9662 7.13643 49.3936 7.41833 48.7877C7.73867 48.0997 8.26659 47.5914 8.8637 47.1498C11.2317 45.404 13.9174 44.4309 16.7953 43.9277Z" fill="white"/>
<path d="M14.2493 34.6481C11.9044 36.1218 9.60311 37.5159 6.95838 38.2039C6.19469 38.4016 5.41306 38.4863 4.64425 38.2398C3.97025 38.0242 3.52946 37.4003 3.5474 36.7662C3.56278 36.1937 3.96 35.883 4.37772 35.616C5.29262 35.0281 6.33564 34.7893 7.38636 34.5968C9.28533 34.2527 11.1997 34.2065 13.1166 34.4094C13.4779 34.453 13.8521 34.4581 14.2493 34.6481Z" fill="white"/>
<path d="M13.7435 11.5649C14.3432 11.6214 14.8583 11.9115 15.3042 12.3043C17.2032 13.9885 18.4486 16.0989 19.2815 18.4763C19.3763 18.751 19.3123 18.8716 19.0406 18.7715C16.8931 17.9885 14.766 17.1592 13.1464 15.4365C12.2545 14.4892 12.0675 13.3287 12.6364 12.3172C12.8747 11.8936 13.2104 11.5957 13.7435 11.5649Z" fill="white"/>
<path d="M32.7564 57.3252C33.0076 58.1134 33.0307 58.8836 33.064 59.6384C33.1434 61.4073 32.982 63.1557 32.4207 64.8476C32.2439 65.379 32.0235 65.895 31.6083 66.293C31.2086 66.6755 30.7063 66.7166 30.2604 66.3931C29.4557 65.8077 29.2558 64.9862 29.3865 64.0542C29.6376 62.2853 30.4884 60.768 31.3982 59.279C31.8031 58.614 32.226 57.9568 32.7564 57.3252Z" fill="white"/>
<path d="M44.2601 8.05986C42.7353 8.96871 41.5052 10.1471 40.5262 11.5848C39.6216 12.9122 39.027 14.3756 38.6785 15.9416C38.6657 16.0033 38.6606 16.07 38.6426 16.1316C38.6042 16.2805 38.5453 16.4038 38.3531 16.3781C38.1583 16.3524 38.1916 16.2035 38.1967 16.0854C38.2224 15.5411 38.2352 14.9943 38.2941 14.4526C38.5581 12.047 39.1962 9.76716 40.5544 7.72867C41.067 6.96103 41.7025 6.30636 42.3868 5.69789C42.5559 5.54899 42.702 5.42575 42.8352 5.76208C43.171 6.6016 43.6323 7.36924 44.2601 8.05986Z" fill="white"/>
<path d="M24.9259 50.0918C24.8721 50.6258 24.7157 51.0237 24.5389 51.4166C23.7188 53.224 22.7245 54.9082 21.1894 56.2124C20.9665 56.4024 20.7179 56.541 20.4514 56.654C20.0259 56.8337 19.6287 56.79 19.2981 56.4665C18.9599 56.1379 18.8727 55.7348 19.0085 55.2779C19.1828 54.6899 19.5442 54.2201 19.9542 53.7939C21.3868 52.3049 23.1038 51.1958 24.9259 50.0918Z" fill="white"/>
<path d="M47.744 59.5415C48.277 59.7443 48.687 60.0781 49.0714 60.4247C50.158 61.4028 51.0114 62.5402 51.4112 63.9779C51.5009 64.2962 51.5009 64.6197 51.4573 64.9304C51.3651 65.5825 50.7372 65.9008 50.0632 65.6647C49.4507 65.449 49.0766 64.9715 48.787 64.4246C48.2129 63.3361 47.9772 62.1474 47.8183 60.9407C47.7619 60.4991 47.662 60.0575 47.744 59.5415Z" fill="white"/>
<path fill-rule="evenodd" clip-rule="evenodd" d="M39.7194 72.0006L40.2242 71.9929C40.7419 71.9211 41.0494 71.5873 41.234 71.138C41.3852 70.7837 41.4467 70.4037 41.4646 70.0135C41.5181 68.8503 41.2914 67.7247 41.0645 66.5978C41.0195 66.3741 40.9744 66.1504 40.9316 65.9263C40.9016 65.7686 40.8714 65.611 40.8411 65.4534L40.8411 65.4534C40.4914 63.6294 40.1416 61.8053 40.1935 59.9289C40.2191 59.0458 40.6215 58.4399 41.3493 58.0111C42.2667 57.472 43.0714 57.9264 43.0868 58.9944C43.0931 59.3782 43.0002 59.7466 42.9072 60.115C42.8864 60.1976 42.8656 60.2801 42.8459 60.3628C42.8199 60.4713 42.7927 60.5796 42.7655 60.6879C42.6133 61.2948 42.461 61.9016 42.5153 62.5399C42.5768 63.2614 43.2073 63.7646 44.0504 63.762C44.6859 63.762 45.0857 63.2922 45.1165 62.5297C45.1395 61.9879 45.0088 61.4899 44.7859 60.997C44.0888 59.4591 44.281 57.7698 46.1082 56.9636C46.163 56.9394 46.2147 56.9081 46.2666 56.8767C46.2973 56.8582 46.328 56.8396 46.3594 56.8224C48.7094 55.49 50.4854 53.5388 52.1383 51.4541L52.219 51.3522L52.219 51.3521L52.2191 51.352L52.2192 51.3519L52.2193 51.3518L52.2194 51.3517L52.2194 51.3516C52.3412 51.1977 52.4636 51.0431 52.5894 50.8918C52.6747 50.7892 52.7629 50.6885 52.8704 50.5657L52.8708 50.5652L52.871 50.5651L52.871 50.565C52.9409 50.4852 53.0189 50.3961 53.1096 50.2911C52.6124 52.9765 53.0712 55.3077 54.7164 57.3179C56.131 59.0458 57.9916 60.1318 60.134 60.7043C63.1503 61.513 66.2 61.3435 69.2368 60.8711C74.8235 60.0008 79.2647 57.092 83.0165 52.9868C83.066 52.9327 83.1139 52.8767 83.162 52.8204L83.1621 52.8204C83.3056 52.6524 83.4505 52.4828 83.6444 52.3578C85.0206 55.0715 88.019 56.1292 90.8533 55.6132C92.0783 55.3898 93.0727 54.73 94.026 53.9881C94.2925 53.7801 94.4437 53.7904 94.7 54.0317C96.0326 55.2923 97.6753 55.7518 99.459 55.7493C100.968 55.7467 102.316 55.2358 103.482 54.273C103.754 54.0497 103.926 54.0548 104.21 54.2936C106.36 56.0984 109.843 56.2319 112.144 54.6248C112.829 54.1472 113.508 53.6646 114.138 53.1152C114.295 52.9791 114.407 52.9046 114.607 53.1152C117.511 56.2011 122.495 56.5914 125.929 55.0561C126.762 54.6838 127.575 54.2602 128.341 53.7621C128.612 53.5876 128.766 53.6184 128.981 53.8494C129.445 54.3424 129.989 54.7506 130.609 55.0253C130.965 55.1819 131.027 55.3103 130.85 55.6851C129.691 58.1343 130.35 60.961 132.444 62.6811C134.017 63.9751 135.829 64.5681 137.856 64.5887C141.634 64.6246 144.735 62.3859 145.852 58.789L145.899 58.6373C146.255 57.4943 146.61 56.3532 146.951 55.205C147.049 54.8815 147.21 54.6453 147.482 54.4374C148.553 53.6209 149.563 52.7301 150.549 51.8109C152.034 50.4326 153.321 48.8796 154.609 47.3262C154.928 46.9409 155.247 46.5557 155.57 46.173C156.262 45.3489 156.674 44.3733 156.736 43.2745V42.2938C156.613 40.8663 155.982 39.6905 154.939 38.7328C154.442 38.2758 153.832 38.0294 153.161 37.9678L153.124 37.9643C152.742 37.9283 152.549 37.9101 152.478 37.8072C152.405 37.7013 152.462 37.5057 152.578 37.1087L152.578 37.1083L152.578 37.1082L152.582 37.0974C152.587 37.082 152.59 37.0667 152.593 37.0513C152.596 37.0358 152.6 37.0204 152.605 37.005C153.184 35.0512 152.453 33.3029 150.667 32.3298C148.358 31.0744 144.422 31.308 142.651 33.4107C142.479 33.6135 142.369 33.6469 142.182 33.4056C141.772 32.8818 141.247 32.4788 140.634 32.2143C138.52 31.3029 136.406 31.3337 134.299 32.24C134.09 32.3299 133.898 32.4925 133.713 32.6493C133.453 32.8687 133.208 33.0769 132.946 33.059C132.663 33.0394 132.392 32.8474 132.111 32.6485C131.913 32.5085 131.71 32.365 131.496 32.2759C129.089 31.2721 126.611 31.2259 124.097 31.7548C122.903 32.0064 121.78 32.4659 120.704 33.0384C120.625 32.9061 120.647 32.7915 120.668 32.6806C120.674 32.6517 120.68 32.623 120.683 32.5943C120.891 31.0616 120.519 29.6778 119.515 28.5148C117.485 26.1605 113.867 25.6881 111.204 27.4159C109.636 28.4326 108.687 29.8832 108.534 31.7599C108.485 32.3375 108.352 32.7483 107.878 33.0795C107.68 33.2182 107.583 33.249 107.403 33.0718C106.858 32.5301 106.199 32.1732 105.476 31.9293C104.315 31.5391 103.121 31.4672 101.919 31.6341C100.694 31.8035 99.5589 32.2169 98.6338 33.0872C98.129 33.5627 98.1287 33.5624 97.6563 33.1129L97.6266 33.0846C96.3581 31.8729 94.7794 31.5571 93.106 31.5596C92.7908 31.5596 92.6934 31.498 92.7523 31.2002C93.0752 29.5982 93.2777 27.9756 93.4673 26.353C93.78 23.6958 92.8215 21.3005 90.1973 20.1015C89.1568 19.624 88.0728 19.3904 86.9426 19.3724C85.5308 19.3503 84.1331 19.5325 82.736 19.7147L82.545 19.7395C79.4211 20.1452 76.3765 20.864 73.4884 22.1503C70.6976 23.3903 68.1861 25.018 66.4101 27.5854C65.2723 29.2285 64.5188 31.0333 64.5906 33.0615C64.6828 35.6931 65.9027 37.7829 67.9324 39.4081C69.7391 40.8535 71.8431 41.6339 74.0829 42.0909L74.1099 42.0964C74.5704 42.1901 74.801 42.2371 74.8623 42.3651C74.9239 42.4934 74.8154 42.7032 74.5983 43.1234L74.5852 43.1487C74.4366 43.4337 74.3366 43.5338 74.1085 43.218C73.842 42.8457 73.4755 42.5787 73.0681 42.3836C69.675 40.7662 66.1667 40.2065 62.4789 41.2129C61.4308 41.5004 60.4236 41.8881 59.4293 42.3836C59.4321 42.3554 59.4332 42.333 59.4341 42.3149C59.4356 42.2835 59.4365 42.2647 59.4446 42.2501C59.5343 42.0961 59.624 41.9472 59.7163 41.7957C61.3436 39.1154 62.6455 36.3195 62.9812 33.1437C63.1734 31.3183 63.2554 29.5109 62.9402 27.6855C61.7613 20.8871 55.985 15.3185 48.4762 14.9514C44.9166 14.7768 41.6645 15.7601 38.7661 17.8448C38.4175 18.0939 38.2356 18.0553 37.9178 17.8089C34.9886 15.5368 31.7032 14.6125 28.0411 15.393C24.056 16.2428 21.2217 18.6715 19.2586 22.158C17.5519 25.1875 16.9086 28.466 17.2008 31.937C17.4135 34.489 18.108 36.8895 19.4329 39.0769C21.1499 41.9189 22.8977 44.743 24.8992 47.3977C26.8955 50.0472 29.0636 52.5272 31.7135 54.5529C31.9817 54.7587 32.2633 54.9461 32.5448 55.1333L32.5449 55.1333C33.0112 55.4435 33.4772 55.7534 33.8815 56.1472C34.5017 56.7505 34.7067 57.4566 34.4376 58.2961C34.3919 58.4397 34.3439 58.5826 34.2959 58.7254C34.1499 59.1594 34.0041 59.5931 33.9251 60.047C33.7918 60.7993 34.0712 61.3512 34.676 61.4899C35.2756 61.6285 35.7805 61.2537 35.9958 60.5246C36.2033 59.8134 36.0086 59.1485 35.7139 58.522C35.332 57.7107 35.5422 57.0792 36.1598 56.4964C36.7851 55.9059 37.5641 55.9161 38.1408 56.5631C38.4688 56.9303 38.6456 57.377 38.7737 57.8442C39.1479 59.2024 39.0813 60.5785 38.9352 61.9546C38.7251 63.934 38.5867 65.9186 38.6123 67.9083C38.6251 68.9481 38.6559 69.9981 38.9736 71.0045C39.1043 71.4179 39.2479 71.8363 39.7194 72.0006ZM115.326 46.852C115.423 46.7401 115.52 46.6283 115.616 46.5163C115.657 46.5265 115.698 46.5342 115.744 46.5419C115.744 46.6177 115.742 46.6934 115.74 46.769C115.736 46.9291 115.731 47.0884 115.747 47.2454C115.903 48.8166 116.387 50.2697 117.715 51.2145C119.834 52.7216 122.174 52.8422 124.521 51.8564C126.995 50.8192 129.07 49.1812 130.905 47.2326C130.929 47.2068 130.952 47.178 130.975 47.1486L130.975 47.1485C131.057 47.0433 131.145 46.9311 131.326 46.9271C131.324 46.9436 131.323 46.9599 131.323 46.976C131.322 46.9927 131.321 47.0091 131.321 47.0253L131.321 47.0273L131.321 47.0277C131.318 47.0952 131.316 47.1592 131.302 47.2197C131.156 47.8734 131.092 48.5381 131.028 49.2027L131.028 49.2038C131.005 49.4472 130.981 49.6906 130.954 49.9334C130.885 50.5522 131.11 51.0528 131.566 51.479C132.52 52.3673 134.273 52.5239 135.372 51.8153C137.015 50.7524 138.44 49.4482 139.7 47.9566C139.986 47.6166 140.278 47.2809 140.588 46.9242L140.59 46.9221C140.696 46.7999 140.804 46.6752 140.915 46.5471C140.915 46.5944 140.917 46.6309 140.918 46.6602C140.92 46.7104 140.921 46.7394 140.913 46.7653C140.234 48.9397 139.638 51.1384 139.042 53.3377L138.993 53.5175C138.921 53.7793 138.765 53.9103 138.537 54.0258C138.31 54.1406 138.082 54.2533 137.854 54.3661C136.832 54.8707 135.809 55.3757 134.898 56.0745C133.337 57.2684 133.399 59.2247 135.049 60.2901C137.522 61.8845 141.553 61.2811 142.599 57.6252C142.884 56.6253 143.195 55.6318 143.507 54.6385L143.507 54.6381C143.68 54.0859 143.853 53.5339 144.021 52.9809C144.096 52.7421 144.198 52.5444 144.408 52.3955C146.861 50.6446 149.039 48.5958 150.969 46.2801C151.158 46.0527 151.349 45.8262 151.54 45.5997L151.542 45.5969L151.546 45.5925C151.993 45.0618 152.44 44.5309 152.873 43.9874C153.457 43.2532 153.473 42.3084 152.96 41.6742C152.806 41.4843 152.683 41.4278 152.517 41.6511C152.433 41.762 152.345 41.8695 152.257 41.9768L152.257 41.9775C152.131 42.1309 152.005 42.2841 151.894 42.447C150.292 44.7679 148.388 46.8269 146.397 48.8064C146.359 48.8441 146.321 48.882 146.283 48.9201C145.907 49.2971 145.514 49.6898 144.972 50.0233C145.005 49.9061 145.033 49.8047 145.058 49.7136L145.059 49.7124C145.101 49.5586 145.136 49.4336 145.174 49.3096L145.716 47.5638C146.904 43.7351 148.091 39.9069 149.29 36.0825C149.408 35.7077 149.308 35.5126 148.99 35.3457C148.568 35.1223 148.101 35.0222 147.647 35.0171C146.243 34.9965 145.318 35.2379 144.723 36.5395C144.101 37.8977 143.493 39.2584 142.95 40.6473C142.897 40.7817 142.854 40.9208 142.811 41.0599L142.811 41.06L142.811 41.0601L142.811 41.0602L142.811 41.0602L142.811 41.0603L142.811 41.0604C142.716 41.3676 142.621 41.6748 142.422 41.931C142.043 42.4174 141.668 42.9068 141.293 43.3961C140.049 45.0193 138.804 46.6424 137.43 48.1594C137.107 48.5162 136.751 48.8423 136.315 49.0631C136.008 49.2171 135.856 49.1042 135.846 48.7781C135.833 48.3545 135.944 47.9489 136.061 47.5509C136.762 45.1864 137.466 42.8228 138.169 40.4596L138.174 40.4436C138.598 39.0172 139.023 37.591 139.447 36.1647C139.611 35.6127 139.557 35.4766 139.003 35.2687C138.14 34.9452 137.261 34.9349 136.364 35.1609C135.703 35.3277 135.264 35.6923 134.995 36.3187C134.183 38.2057 133.414 40.1081 132.73 42.0439C132.694 42.144 132.662 42.2461 132.63 42.3484C132.533 42.6586 132.435 42.9714 132.233 43.2378C130.941 44.9373 129.606 46.5984 127.894 47.9104C126.682 48.8397 125.444 49.7229 123.942 50.1362C122.438 50.5496 121.354 50.0798 120.862 48.8012C120.501 47.8564 120.516 46.8808 120.685 45.9104C121.203 42.9374 122.456 40.2956 124.368 37.9721C125.096 37.0889 125.967 36.3983 127.13 36.1673C127.538 36.0851 127.833 36.2083 127.948 36.6242C128.143 37.3226 128.168 38.026 127.833 38.6884C127.2 39.9336 126.187 40.7551 124.896 41.2506C124.445 41.4252 124.429 41.4637 124.803 41.7795C125.252 42.1595 125.757 42.4444 126.354 42.4855C128.296 42.6139 129.896 41.9361 131.133 40.4188C132.668 38.5369 131.877 35.8797 129.55 35.2199C127.599 34.6654 125.639 34.7347 123.75 35.4664C120.947 36.5549 118.817 38.4522 117.305 41.0606C117.14 41.3465 117 41.645 116.86 41.9435C116.621 42.4546 116.382 42.966 116.013 43.4149C115.609 43.9064 115.216 44.4061 114.822 44.9059L114.822 44.906C113.866 46.1187 112.911 47.3311 111.813 48.4238C111.788 48.4486 111.763 48.4735 111.738 48.4983C111.536 48.7004 111.335 48.902 111.072 49.0323C110.69 49.2197 110.514 49.1247 110.555 48.6934C110.593 48.2826 110.675 47.8693 110.793 47.4713C111.908 43.6896 113.025 39.9079 114.171 36.1339C114.319 35.6461 114.145 35.4407 113.758 35.2892C112.812 34.9195 111.857 34.9272 110.893 35.2302C110.321 35.4099 109.934 35.7796 109.696 36.329C108.884 38.1955 108.128 40.0876 107.446 42.008C107.419 42.0842 107.392 42.1606 107.365 42.2368L107.365 42.2379L107.365 42.2379C107.156 42.8342 106.948 43.4262 106.503 43.9335C105.958 44.5538 105.44 45.1965 104.921 45.8391C104.493 46.3694 104.065 46.8997 103.623 47.4174L103.525 47.5314C103.047 48.0884 102.564 48.6526 101.918 49.0323C101.565 49.2402 101.413 49.1427 101.406 48.737C101.398 48.2826 101.519 47.8462 101.647 47.4174C102.764 43.6511 103.881 39.8848 105.024 36.1287C105.163 35.6743 105.027 35.4587 104.65 35.3046C103.776 34.9452 102.882 34.9324 101.97 35.1557C101.349 35.3072 100.911 35.6409 100.64 36.2263C99.8604 37.9002 99.1198 39.5895 98.4868 41.3225C98.3766 41.628 98.2254 41.9053 98.023 42.1569C97.5404 42.7603 97.069 43.3723 96.5977 43.9842L96.5974 43.9846L96.5971 43.9849C95.7773 45.0494 94.9575 46.1137 94.0789 47.1324C94.0118 47.2105 93.945 47.2889 93.8781 47.3673L93.878 47.3674C93.404 47.9235 92.9292 48.4806 92.3363 48.9193L92.3146 48.9353L92.2778 48.963L92.2774 48.9633C92.1143 49.0865 91.9371 49.2204 91.7315 49.099C91.5243 48.9749 91.5645 48.7537 91.5999 48.5589L91.5999 48.5589L91.6072 48.5186L91.6112 48.4948L91.6136 48.4803C91.67 48.1337 91.7443 47.7871 91.8443 47.4508L92.2938 45.9312L92.2955 45.9257C93.2592 42.6679 94.2226 39.4108 95.2091 36.1596C95.3577 35.6641 95.2065 35.4381 94.7863 35.2789C93.8688 34.9298 92.9437 34.9272 92.0057 35.184C91.4291 35.3431 91.0242 35.682 90.7782 36.2391C89.8146 38.4291 88.9535 40.655 88.1667 42.9143C87.3826 45.1658 86.8905 47.4765 86.6983 49.8538C86.6599 50.3134 86.7162 50.7473 86.993 51.1375C87.9182 52.4443 90.1093 52.4777 91.0088 51.8846C92.5695 50.8551 93.9713 49.6433 95.1937 48.2236C95.5912 47.7636 95.9963 47.3113 96.4019 46.8586L96.4033 46.857L96.4039 46.8564C96.5704 46.6706 96.7369 46.4846 96.9031 46.298C96.7683 47.1217 96.6872 47.9361 96.6064 48.7473C96.5827 48.9854 96.559 49.2233 96.534 49.461C96.4597 50.1671 96.452 50.85 97.0005 51.3943C97.9948 52.3801 99.8886 52.5367 101.055 51.7588C102.587 50.737 103.892 49.461 105.142 48.1234C105.218 48.043 105.288 47.957 105.358 47.8708C105.506 47.6877 105.656 47.5039 105.86 47.3712C105.967 47.5091 105.934 47.642 105.906 47.7571L105.906 47.7589C105.806 48.1862 105.77 48.6204 105.734 49.0549L105.734 49.055L105.734 49.0551L105.734 49.0553L105.734 49.0554L105.734 49.0556L105.734 49.0557L105.734 49.056C105.711 49.3233 105.689 49.5906 105.652 49.8564C105.565 50.4828 105.762 51.0143 106.236 51.4584C107.203 52.3698 108.971 52.5444 110.078 51.8025C111.659 50.7447 113.082 49.5047 114.306 48.0438C114.642 47.6435 114.984 47.2478 115.326 46.852ZM71.0891 45.3953C66.6248 44.8356 62.7064 49.0358 62.1657 52.7225C61.8941 54.5839 63.0216 55.9651 64.8899 55.9908C67.4449 56.0267 69.5873 55.046 71.4607 53.3644C73.8184 51.2437 75.5867 48.6764 77.0833 45.9113C79.9305 40.6508 81.9422 35.0591 83.6003 29.3288C83.7816 28.7005 83.9594 28.0712 84.1373 27.4421L84.1374 27.4416L84.1375 27.4412L84.1377 27.4408L84.1378 27.4403L84.1379 27.4399C84.3697 26.6198 84.6015 25.7998 84.8406 24.9823C84.9406 24.6357 84.8817 24.5047 84.5024 24.5817C82.4035 25.0131 80.3866 25.6395 78.5645 26.8282C75.0485 29.1183 74.4053 33.054 75.7456 36.4994C76.0787 37.3518 76.5579 38.122 77.1602 38.923C76.1171 38.9179 75.1946 38.7561 74.2848 38.5379C72.66 38.1528 71.1583 37.5238 69.8539 36.4378C68.2188 35.0745 67.6807 32.9077 68.5289 30.9591C69.5079 28.7101 71.271 27.2467 73.3443 26.0991C76.0556 24.5971 78.99 23.7807 82.0345 23.3083C83.7105 23.049 85.3891 22.818 87.0907 22.8359C87.7263 22.8411 88.326 22.9977 88.8949 23.2775C89.9353 23.7859 90.1865 24.5432 90.0968 25.5342C89.6099 30.918 88.2901 36.1015 86.263 41.113C85.0021 44.2297 83.4209 47.1591 81.2631 49.7393C78.1545 53.4568 74.4463 56.2912 69.572 57.2642C66.8709 57.8033 64.1467 57.9882 61.4199 57.4208C59.972 57.1204 58.6855 56.4529 57.6861 55.3644C56.1279 53.6725 56.0895 51.7161 57.0069 49.7239C58.3062 46.9049 60.6101 45.3054 63.5496 44.5198C66.1943 43.8138 68.7186 44.2297 71.1788 45.2952C71.207 45.3876 71.1916 45.4338 71.0891 45.3953ZM45.1159 17.1802C43.7039 17.3778 42.3328 17.7681 41.0796 18.4921L41.0767 18.4939C39.1667 19.3361 37.6457 20.6832 36.4087 22.3278C34.0767 25.4266 33.2079 28.9208 33.8614 32.759C34.4764 36.361 36.278 39.257 39.238 41.3802C42.4337 43.6754 46.001 44.4199 49.8553 43.6369C51.3981 43.3237 52.8691 42.7768 54.1684 41.8474L54.1684 41.8447L54.17 41.8473C54.185 41.8411 54.2006 41.8359 54.2163 41.8306L54.2163 41.8306C54.2462 41.8205 54.2764 41.8102 54.3033 41.7934C58.6445 39.167 61.1867 33.5522 60.341 28.515C59.5697 23.9246 57.1248 20.5511 53.004 18.4279C50.5258 17.1519 47.8632 16.795 45.1159 17.1802ZM29.7166 17.0822C28.8606 17.1618 28.0098 17.3415 27.2282 17.7446L27.2253 17.7473C27.0942 17.7425 26.9846 17.8023 26.876 17.8615C26.8459 17.8779 26.8159 17.8943 26.7855 17.9092C25.1787 18.6384 23.8563 19.7321 22.7646 21.1056C21.2961 22.9567 20.3454 25.0491 19.9277 27.3802C19.9622 27.6022 19.9192 27.8169 19.8762 28.0315C19.8426 28.1992 19.809 28.3669 19.8123 28.5381C19.7547 28.8015 19.7449 29.0688 19.735 29.3361C19.727 29.556 19.7189 29.776 19.6842 29.9938C19.6694 30.1605 19.6737 30.3286 19.6781 30.4969C19.6842 30.738 19.6904 30.9795 19.6406 31.2184C19.6842 32.8487 20.0199 34.4225 20.5786 35.9475C21.3935 38.1734 22.6646 40.0989 24.5047 41.6034C26.624 43.3389 29.0509 44.1656 31.811 43.8447C33.6895 43.6264 35.345 42.8768 36.8211 41.7086C36.9979 41.5674 37.0159 41.4519 36.839 41.2876C36.1681 40.6702 35.6283 39.9404 35.0894 39.2117C34.9717 39.0525 34.854 38.8935 34.735 38.7356L34.7296 38.737L34.7344 38.7276C34.7178 38.6945 34.7017 38.6611 34.6856 38.6277L34.6856 38.6276L34.6855 38.6276L34.6855 38.6275C34.6468 38.5472 34.6079 38.4667 34.5627 38.3887C32.1665 34.263 31.6796 29.9267 33.1711 25.3928C33.8861 23.2157 35.0624 21.2978 36.6795 19.6624C36.6982 19.6434 36.7175 19.625 36.7366 19.6068L36.7366 19.6068L36.7367 19.6068C36.8748 19.4753 36.9977 19.3584 36.7231 19.1464C34.6524 17.5444 32.3177 16.8383 29.7166 17.0822ZM111.962 32.4356C112.115 33.5113 113.071 34.2096 114.286 34.2096C114.968 34.2276 115.555 34.0761 116.077 33.7449C116.792 33.2931 117.29 32.6538 117.254 31.7784C117.22 30.926 116.69 30.3509 115.908 30.0736C114.781 29.6731 113.684 29.7809 112.751 30.5717C112.2 31.039 111.852 31.668 111.962 32.4356Z" fill="white"/>
<path d="M39.2042 65.1152C39.2811 66.9997 39.7168 68.8148 40.1883 70.6273C40.2447 70.8404 40.4318 71.2076 40.1217 71.3128C39.7936 71.4258 39.645 71.0741 39.5297 70.8096C39.2375 70.1395 39.1709 69.4181 39.1145 68.7018C39.0171 67.5054 39.0197 66.3091 39.2042 65.1152Z" fill="white"/>
<path d="M19.9148 28.5213C19.7585 28.8217 19.8405 29.1477 19.82 29.4635C19.8098 29.6355 19.8585 29.8178 19.7226 29.9667C19.6816 29.9487 19.6534 29.9179 19.6406 29.8769C19.6406 29.7767 19.6406 29.6766 19.6406 29.5765C19.7354 29.3916 19.615 29.176 19.7201 28.9911C19.7252 28.8037 19.7303 28.6163 19.7354 28.4289C19.838 28.375 19.8636 28.4725 19.9148 28.5213Z" fill="white"/>
<path d="M19.9157 28.5213C19.8568 28.4905 19.7953 28.4597 19.7363 28.4288C19.8004 28.0771 19.8645 27.7228 19.9285 27.3711C20.1259 27.7562 19.8158 28.1387 19.9157 28.5213Z" fill="white"/>
<path d="M19.6412 29.8794C19.6694 29.9102 19.6976 29.941 19.7232 29.9693C19.6797 30.3826 19.8155 30.8088 19.6387 31.2119C19.6387 30.7703 19.6412 30.3235 19.6412 29.8794Z" fill="white"/>
<path d="M19.7185 28.9956C19.7057 29.1933 19.7774 29.4012 19.6391 29.581C19.6365 29.3807 19.5904 29.1753 19.7185 28.9956Z" fill="white"/>
<path d="M71.0898 45.3953C71.1206 45.3645 71.1488 45.3337 71.1795 45.3003C71.2615 45.3285 71.4102 45.3722 71.3666 45.4415C71.3051 45.5391 71.177 45.4723 71.0898 45.3953Z" fill="white"/>
<path d="M139.953 59.1681C143.046 51.9281 145.117 44.3775 147.359 36.8834C147.546 36.2621 148.003 36.3314 148.392 36.1543C148.502 36.2904 148.413 36.4033 148.377 36.5214C146.852 41.669 145.284 46.8063 143.982 52.0154C143.554 53.7279 143.098 55.4223 142.108 56.9165C141.529 57.7997 140.796 58.5262 139.953 59.1681Z" fill="white"/>
<path d="M138.501 36.4695C138.016 37.9791 137.522 39.481 137.05 40.9906C136.351 43.2319 135.641 45.4732 135.131 47.7684C134.992 48.3871 134.964 48.9622 135.338 49.5116C135.441 49.6631 135.49 49.8505 135.569 50.0379C134.095 49.9609 133.163 48.7543 133.296 47.201C133.403 45.9327 133.906 44.7877 134.359 43.6298C135.238 41.3783 136.243 39.1832 137.337 37.0292C137.678 36.3616 137.678 36.3616 138.501 36.4695Z" fill="white"/>
<path d="M108.721 49.2111C108.9 47.5295 109.308 45.7041 109.774 43.8941C110.425 41.3729 111.15 38.8723 112.091 36.441C112.181 36.2125 112.211 35.9199 112.496 35.8223C112.793 35.7222 113.139 35.6939 113.382 35.8634C113.603 36.0174 113.377 36.2973 113.318 36.5052C112.109 40.8287 110.889 45.1469 109.659 49.4627C109.602 49.6604 109.646 49.9633 109.298 50.0095C108.752 50.084 108.685 50.0275 108.721 49.2111Z" fill="white"/>
<path d="M125.638 36.3262C124.946 36.9372 124.346 37.4841 123.813 38.1002C121.688 40.5546 120.397 43.3736 120.053 46.6161C120.03 46.8241 120.002 47.0295 119.977 47.2374C119.792 48.6649 120.361 49.7303 121.54 50.5057C121.591 50.5391 121.635 50.5904 121.696 50.6443C119.764 50.3183 118.18 48.0847 118.48 46.1463C118.854 43.7484 119.997 41.7151 121.445 39.8255C122.419 38.5572 123.541 37.4404 124.923 36.6163C125.11 36.5033 125.284 36.3621 125.638 36.3262Z" fill="white"/>
<path d="M103.759 36.1319C103.961 36.1319 104.059 36.1396 104.156 36.1294C104.433 36.1037 104.512 36.1627 104.415 36.476C103.323 39.9855 102.257 43.5054 101.165 47.0149C100.889 47.9033 100.479 48.7402 99.9354 49.5027C99.8021 49.6901 99.6381 50.0444 99.4408 49.9443C99.1999 49.8211 99.3844 49.4822 99.4459 49.246C99.8764 47.6414 100.297 46.0317 100.761 44.4348C101.509 41.8571 102.293 39.2872 103.047 36.7096C103.177 36.268 103.323 35.9445 103.759 36.1319Z" fill="white"/>
<path d="M136.026 58.3664C136.059 57.8863 136.246 57.4781 136.572 57.1263C136.977 56.6873 137.464 56.3561 137.961 56.0378C138.038 55.989 138.127 55.9043 138.209 55.9839C138.25 56.0224 138.243 56.1379 138.22 56.2072C137.976 57.0005 137.756 57.8015 137.469 58.5769C137.233 59.211 136.585 59.3471 136.185 58.9029C136.049 58.7438 136.021 58.564 136.026 58.3664Z" fill="white"/>
<path d="M54.1702 23.8718C54.1497 24.5572 53.937 25.2273 53.4193 25.7819C52.4711 26.7908 51.0129 26.7113 50.1724 25.6047C49.4241 24.6189 49.3907 23.1632 50.0929 22.1439C51.0258 20.7909 52.7863 20.8089 53.6859 22.1824C54.0113 22.6754 54.1625 23.2222 54.1702 23.8718Z" fill="white"/>
<path d="M53.5836 28.4691C53.5605 28.0712 53.6502 27.704 53.8937 27.3857C54.2319 26.9415 54.724 26.939 55.0674 27.3677C55.5005 27.9094 55.5107 28.9415 55.0879 29.4935C54.7035 29.9941 54.1781 29.971 53.8373 29.4319C53.6528 29.1366 53.5631 28.8183 53.5836 28.4691Z" fill="white"/>
<path d="M50.8104 31.3619C50.4029 31.3568 50.1159 31.0513 50.1133 30.6148C50.1107 30.1604 50.4131 29.8523 50.8488 29.8677C51.246 29.8831 51.5535 30.222 51.5433 30.6277C51.5305 31.0308 51.1948 31.3671 50.8104 31.3619Z" fill="white"/>
<path d="M74.3359 53.8828C81.7781 45.3669 86.7421 35.7572 87.9722 24.4224C88.1311 24.6226 88.1797 24.8383 88.2259 25.2799C88.3771 26.7099 88.2669 28.1373 88.1054 29.5545C87.68 33.272 86.8164 36.8894 85.471 40.3862C84.2742 43.4978 82.734 46.4169 80.5864 48.9868C78.9873 50.9021 77.1139 52.4861 74.8818 53.6209C74.6998 53.7108 74.5179 53.7955 74.3359 53.8828Z" fill="white"/>
<path d="M72.0246 36.4016C71.1558 35.9934 70.3947 35.4671 69.7796 34.7585C68.8468 33.6828 68.6033 32.4762 69.162 31.1437C69.6925 29.8806 70.6176 28.9486 71.7145 28.145C70.815 29.3979 70.4152 30.7843 70.5228 32.3093C70.6279 33.8163 71.2071 35.1488 72.0246 36.4016Z" fill="white"/>
<path d="M8.21875 102.773V104H2.53125V102.773H8.21875ZM2.82812 92.625V104H1.32031V92.625H2.82812ZM9.74371 99.8672V99.6875C9.74371 99.0781 9.83225 98.513 10.0093 97.9922C10.1864 97.4661 10.4416 97.0104 10.775 96.625C11.1083 96.2344 11.5119 95.9323 11.9859 95.7188C12.4599 95.5 12.9911 95.3906 13.5796 95.3906C14.1734 95.3906 14.7073 95.5 15.1812 95.7188C15.6604 95.9323 16.0666 96.2344 16.4 96.625C16.7385 97.0104 16.9963 97.4661 17.1734 97.9922C17.3505 98.513 17.439 99.0781 17.439 99.6875V99.8672C17.439 100.477 17.3505 101.042 17.1734 101.562C16.9963 102.083 16.7385 102.539 16.4 102.93C16.0666 103.315 15.663 103.617 15.189 103.836C14.7203 104.049 14.189 104.156 13.5953 104.156C13.0015 104.156 12.4677 104.049 11.9937 103.836C11.5198 103.617 11.1135 103.315 10.775 102.93C10.4416 102.539 10.1864 102.083 10.0093 101.562C9.83225 101.042 9.74371 100.477 9.74371 99.8672ZM11.189 99.6875V99.8672C11.189 100.289 11.2385 100.688 11.3375 101.062C11.4364 101.432 11.5849 101.76 11.7828 102.047C11.9859 102.333 12.2385 102.56 12.5406 102.727C12.8427 102.888 13.1942 102.969 13.5953 102.969C13.9911 102.969 14.3375 102.888 14.6343 102.727C14.9364 102.56 15.1864 102.333 15.3843 102.047C15.5823 101.76 15.7307 101.432 15.8296 101.062C15.9338 100.688 15.9859 100.289 15.9859 99.8672V99.6875C15.9859 99.2708 15.9338 98.8776 15.8296 98.5078C15.7307 98.1328 15.5796 97.8021 15.3765 97.5156C15.1786 97.224 14.9286 96.9948 14.6265 96.8281C14.3296 96.6615 13.9807 96.5781 13.5796 96.5781C13.1838 96.5781 12.8349 96.6615 12.5328 96.8281C12.2359 96.9948 11.9859 97.224 11.7828 97.5156C11.5849 97.8021 11.4364 98.1328 11.3375 98.5078C11.2385 98.8776 11.189 99.2708 11.189 99.6875ZM25.128 95.5469H26.4405V103.82C26.4405 104.565 26.2895 105.201 25.9874 105.727C25.6853 106.253 25.2635 106.651 24.7218 106.922C24.1853 107.198 23.5655 107.336 22.8624 107.336C22.5708 107.336 22.227 107.289 21.8312 107.195C21.4405 107.107 21.0551 106.953 20.6749 106.734C20.2999 106.521 19.9848 106.232 19.7296 105.867L20.4874 105.008C20.8416 105.435 21.2114 105.732 21.5968 105.898C21.9874 106.065 22.3728 106.148 22.753 106.148C23.2114 106.148 23.6072 106.062 23.9405 105.891C24.2739 105.719 24.5317 105.464 24.714 105.125C24.9015 104.792 24.9952 104.38 24.9952 103.891V97.4062L25.128 95.5469ZM19.3077 99.8672V99.7031C19.3077 99.0573 19.3833 98.4714 19.5343 97.9453C19.6905 97.4141 19.9119 96.9583 20.1984 96.5781C20.49 96.1979 20.8416 95.9062 21.253 95.7031C21.6645 95.4948 22.128 95.3906 22.6437 95.3906C23.1749 95.3906 23.6385 95.4844 24.0343 95.6719C24.4353 95.8542 24.7739 96.1224 25.0499 96.4766C25.3312 96.8255 25.5525 97.2474 25.714 97.7422C25.8754 98.237 25.9874 98.7969 26.0499 99.4219V100.141C25.9926 100.76 25.8806 101.318 25.714 101.812C25.5525 102.307 25.3312 102.729 25.0499 103.078C24.7739 103.427 24.4353 103.695 24.0343 103.883C23.6333 104.065 23.1645 104.156 22.628 104.156C22.1228 104.156 21.6645 104.049 21.253 103.836C20.8468 103.622 20.4978 103.323 20.2062 102.938C19.9145 102.552 19.6905 102.099 19.5343 101.578C19.3833 101.052 19.3077 100.482 19.3077 99.8672ZM20.753 99.7031V99.8672C20.753 100.289 20.7947 100.685 20.878 101.055C20.9666 101.424 21.0994 101.75 21.2765 102.031C21.4588 102.312 21.6905 102.534 21.9718 102.695C22.253 102.852 22.589 102.93 22.9796 102.93C23.4588 102.93 23.8546 102.828 24.1671 102.625C24.4796 102.422 24.727 102.154 24.9093 101.82C25.0968 101.487 25.2426 101.125 25.3468 100.734V98.8516C25.2895 98.5651 25.201 98.2891 25.0812 98.0234C24.9666 97.7526 24.8155 97.513 24.628 97.3047C24.4458 97.0911 24.2192 96.9219 23.9484 96.7969C23.6775 96.6719 23.3598 96.6094 22.9952 96.6094C22.5994 96.6094 22.2583 96.6927 21.9718 96.8594C21.6905 97.0208 21.4588 97.2448 21.2765 97.5312C21.0994 97.8125 20.9666 98.1406 20.878 98.5156C20.7947 98.8854 20.753 99.2812 20.753 99.7031ZM30.6061 95.5469V104H29.153V95.5469H30.6061ZM29.0436 93.3047C29.0436 93.0703 29.1139 92.8724 29.2546 92.7109C29.4004 92.5495 29.6139 92.4688 29.8952 92.4688C30.1712 92.4688 30.3822 92.5495 30.528 92.7109C30.679 92.8724 30.7546 93.0703 30.7546 93.3047C30.7546 93.5286 30.679 93.7214 30.528 93.8828C30.3822 94.0391 30.1712 94.1172 29.8952 94.1172C29.6139 94.1172 29.4004 94.0391 29.2546 93.8828C29.1139 93.7214 29.0436 93.5286 29.0436 93.3047ZM34.7717 97.3516V104H33.3264V95.5469H34.6936L34.7717 97.3516ZM34.428 99.4531L33.8264 99.4297C33.8316 98.8516 33.9175 98.3177 34.0842 97.8281C34.2509 97.3333 34.4853 96.9036 34.7873 96.5391C35.0894 96.1745 35.4488 95.8932 35.8655 95.6953C36.2873 95.4922 36.7535 95.3906 37.2639 95.3906C37.6806 95.3906 38.0556 95.4479 38.3889 95.5625C38.7222 95.6719 39.0061 95.849 39.2405 96.0938C39.48 96.3385 39.6623 96.6562 39.7873 97.0469C39.9123 97.4323 39.9748 97.9036 39.9748 98.4609V104H38.5217V98.4453C38.5217 98.0026 38.4566 97.6484 38.3264 97.3828C38.1962 97.112 38.0061 96.9167 37.7561 96.7969C37.5061 96.6719 37.1988 96.6094 36.8342 96.6094C36.4748 96.6094 36.1467 96.6849 35.8498 96.8359C35.5582 96.987 35.3056 97.1953 35.092 97.4609C34.8837 97.7266 34.7196 98.0312 34.5998 98.375C34.4853 98.7135 34.428 99.0729 34.428 99.4531ZM50.4779 95.5469V96.6562H45.9076V95.5469H50.4779ZM47.4544 93.4922H48.8998V101.906C48.8998 102.193 48.944 102.409 49.0326 102.555C49.1211 102.701 49.2357 102.797 49.3763 102.844C49.5169 102.891 49.668 102.914 49.8294 102.914C49.9492 102.914 50.0742 102.904 50.2044 102.883C50.3399 102.857 50.4414 102.836 50.5091 102.82L50.5169 104C50.4024 104.036 50.2513 104.07 50.0638 104.102C49.8815 104.138 49.6602 104.156 49.3998 104.156C49.0456 104.156 48.7201 104.086 48.4232 103.945C48.1263 103.805 47.8893 103.57 47.7123 103.242C47.5404 102.909 47.4544 102.461 47.4544 101.898V93.4922ZM52.0341 99.8672V99.6875C52.0341 99.0781 52.1226 98.513 52.2997 97.9922C52.4768 97.4661 52.732 97.0104 53.0653 96.625C53.3987 96.2344 53.8023 95.9323 54.2763 95.7188C54.7502 95.5 55.2815 95.3906 55.87 95.3906C56.4638 95.3906 56.9976 95.5 57.4716 95.7188C57.9508 95.9323 58.357 96.2344 58.6903 96.625C59.0289 97.0104 59.2867 97.4661 59.4638 97.9922C59.6409 98.513 59.7294 99.0781 59.7294 99.6875V99.8672C59.7294 100.477 59.6409 101.042 59.4638 101.562C59.2867 102.083 59.0289 102.539 58.6903 102.93C58.357 103.315 57.9534 103.617 57.4794 103.836C57.0107 104.049 56.4794 104.156 55.8857 104.156C55.2919 104.156 54.7581 104.049 54.2841 103.836C53.8101 103.617 53.4039 103.315 53.0653 102.93C52.732 102.539 52.4768 102.083 52.2997 101.562C52.1226 101.042 52.0341 100.477 52.0341 99.8672ZM53.4794 99.6875V99.8672C53.4794 100.289 53.5289 100.688 53.6278 101.062C53.7268 101.432 53.8752 101.76 54.0732 102.047C54.2763 102.333 54.5289 102.56 54.831 102.727C55.1331 102.888 55.4846 102.969 55.8857 102.969C56.2815 102.969 56.6278 102.888 56.9247 102.727C57.2268 102.56 57.4768 102.333 57.6747 102.047C57.8726 101.76 58.0211 101.432 58.12 101.062C58.2242 100.688 58.2763 100.289 58.2763 99.8672V99.6875C58.2763 99.2708 58.2242 98.8776 58.12 98.5078C58.0211 98.1328 57.87 97.8021 57.6669 97.5156C57.469 97.224 57.219 96.9948 56.9169 96.8281C56.62 96.6615 56.2711 96.5781 55.87 96.5781C55.4742 96.5781 55.1252 96.6615 54.8232 96.8281C54.5263 96.9948 54.2763 97.224 54.0732 97.5156C53.8752 97.8021 53.7268 98.1328 53.6278 98.5078C53.5289 98.8776 53.4794 99.2708 53.4794 99.6875ZM68.8809 102.695L71.1934 95.5469H72.67L69.6309 104H68.6621L68.8809 102.695ZM66.9512 95.5469L69.334 102.734L69.4981 104H68.5293L65.4668 95.5469H66.9512ZM76.0309 95.5469V104H74.5777V95.5469H76.0309ZM74.4684 93.3047C74.4684 93.0703 74.5387 92.8724 74.6793 92.7109C74.8251 92.5495 75.0387 92.4688 75.3199 92.4688C75.596 92.4688 75.8069 92.5495 75.9527 92.7109C76.1038 92.8724 76.1793 93.0703 76.1793 93.3047C76.1793 93.5286 76.1038 93.7214 75.9527 93.8828C75.8069 94.0391 75.596 94.1172 75.3199 94.1172C75.0387 94.1172 74.8251 94.0391 74.6793 93.8828C74.5387 93.7214 74.4684 93.5286 74.4684 93.3047ZM82.2589 104.156C81.6704 104.156 81.1365 104.057 80.6574 103.859C80.1834 103.656 79.7746 103.372 79.4308 103.008C79.0923 102.643 78.8319 102.211 78.6496 101.711C78.4673 101.211 78.3761 100.664 78.3761 100.07V99.7422C78.3761 99.0547 78.4777 98.4427 78.6808 97.9062C78.8839 97.3646 79.16 96.9062 79.5089 96.5312C79.8579 96.1562 80.2537 95.8724 80.6964 95.6797C81.1391 95.487 81.5975 95.3906 82.0714 95.3906C82.6756 95.3906 83.1964 95.4948 83.6339 95.7031C84.0766 95.9115 84.4386 96.2031 84.7199 96.5781C85.0011 96.9479 85.2095 97.3854 85.3449 97.8906C85.4803 98.3906 85.548 98.9375 85.548 99.5312V100.18H79.2355V99H84.1027V98.8906C84.0819 98.5156 84.0037 98.151 83.8683 97.7969C83.7381 97.4427 83.5298 97.151 83.2433 96.9219C82.9569 96.6927 82.5662 96.5781 82.0714 96.5781C81.7433 96.5781 81.4412 96.6484 81.1652 96.7891C80.8891 96.9245 80.6522 97.1276 80.4542 97.3984C80.2563 97.6693 80.1027 98 79.9933 98.3906C79.8839 98.7812 79.8292 99.2318 79.8292 99.7422V100.07C79.8292 100.471 79.8839 100.849 79.9933 101.203C80.1079 101.552 80.272 101.859 80.4855 102.125C80.7042 102.391 80.9673 102.599 81.2746 102.75C81.5871 102.901 81.9412 102.977 82.3371 102.977C82.8475 102.977 83.2798 102.872 83.6339 102.664C83.9881 102.456 84.298 102.177 84.5636 101.828L85.4386 102.523C85.2563 102.799 85.0246 103.062 84.7433 103.312C84.4621 103.562 84.1157 103.766 83.7042 103.922C83.298 104.078 82.8162 104.156 82.2589 104.156ZM89.7761 102.5L91.948 95.5469H92.9011L92.7136 96.9297L90.5026 104H89.573L89.7761 102.5ZM88.3151 95.5469L90.1667 102.578L90.2995 104H89.323L86.8698 95.5469H88.3151ZM94.9792 102.523L96.7448 95.5469H98.1823L95.7292 104H94.7605L94.9792 102.523ZM93.112 95.5469L95.237 102.383L95.4792 104H94.5573L92.2839 96.9141L92.0964 95.5469H93.112ZM107.974 95.5469V96.6562H103.404V95.5469H107.974ZM104.951 93.4922H106.396V101.906C106.396 102.193 106.441 102.409 106.529 102.555C106.618 102.701 106.732 102.797 106.873 102.844C107.014 102.891 107.165 102.914 107.326 102.914C107.446 102.914 107.571 102.904 107.701 102.883C107.836 102.857 107.938 102.836 108.006 102.82L108.014 104C107.899 104.036 107.748 104.07 107.56 104.102C107.378 104.138 107.157 104.156 106.896 104.156C106.542 104.156 106.217 104.086 105.92 103.945C105.623 103.805 105.386 103.57 105.209 103.242C105.037 102.909 104.951 102.461 104.951 101.898V93.4922ZM111.515 92V104H110.07V92H111.515ZM111.171 99.4531L110.57 99.4297C110.575 98.8516 110.661 98.3177 110.828 97.8281C110.994 97.3333 111.229 96.9036 111.531 96.5391C111.833 96.1745 112.192 95.8932 112.609 95.6953C113.031 95.4922 113.497 95.3906 114.007 95.3906C114.424 95.3906 114.799 95.4479 115.132 95.5625C115.466 95.6719 115.749 95.849 115.984 96.0938C116.223 96.3385 116.406 96.6562 116.531 97.0469C116.656 97.4323 116.718 97.9036 116.718 98.4609V104H115.265V98.4453C115.265 98.0026 115.2 97.6484 115.07 97.3828C114.94 97.112 114.749 96.9167 114.499 96.7969C114.249 96.6719 113.942 96.6094 113.578 96.6094C113.218 96.6094 112.89 96.6849 112.593 96.8359C112.301 96.987 112.049 97.1953 111.835 97.4609C111.627 97.7266 111.463 98.0312 111.343 98.375C111.229 98.7135 111.171 99.0729 111.171 99.4531ZM122.79 104.156C122.201 104.156 121.668 104.057 121.188 103.859C120.714 103.656 120.306 103.372 119.962 103.008C119.623 102.643 119.363 102.211 119.181 101.711C118.998 101.211 118.907 100.664 118.907 100.07V99.7422C118.907 99.0547 119.009 98.4427 119.212 97.9062C119.415 97.3646 119.691 96.9062 120.04 96.5312C120.389 96.1562 120.785 95.8724 121.227 95.6797C121.67 95.487 122.129 95.3906 122.602 95.3906C123.207 95.3906 123.727 95.4948 124.165 95.7031C124.608 95.9115 124.97 96.2031 125.251 96.5781C125.532 96.9479 125.741 97.3854 125.876 97.8906C126.011 98.3906 126.079 98.9375 126.079 99.5312V100.18H119.767V99H124.634V98.8906C124.613 98.5156 124.535 98.151 124.399 97.7969C124.269 97.4427 124.061 97.151 123.774 96.9219C123.488 96.6927 123.097 96.5781 122.602 96.5781C122.274 96.5781 121.972 96.6484 121.696 96.7891C121.42 96.9245 121.183 97.1276 120.985 97.3984C120.787 97.6693 120.634 98 120.524 98.3906C120.415 98.7812 120.36 99.2318 120.36 99.7422V100.07C120.36 100.471 120.415 100.849 120.524 101.203C120.639 101.552 120.803 101.859 121.017 102.125C121.235 102.391 121.498 102.599 121.806 102.75C122.118 102.901 122.472 102.977 122.868 102.977C123.379 102.977 123.811 102.872 124.165 102.664C124.519 102.456 124.829 102.177 125.095 101.828L125.97 102.523C125.787 102.799 125.556 103.062 125.274 103.312C124.993 103.562 124.647 103.766 124.235 103.922C123.829 104.078 123.347 104.156 122.79 104.156ZM132.527 92H133.981V102.359L133.856 104H132.527V92ZM139.691 99.7031V99.8672C139.691 100.482 139.619 101.052 139.473 101.578C139.327 102.099 139.113 102.552 138.832 102.938C138.551 103.323 138.207 103.622 137.801 103.836C137.395 104.049 136.928 104.156 136.402 104.156C135.866 104.156 135.395 104.065 134.988 103.883C134.587 103.695 134.249 103.427 133.973 103.078C133.697 102.729 133.475 102.307 133.309 101.812C133.147 101.318 133.035 100.76 132.973 100.141V99.4219C133.035 98.7969 133.147 98.237 133.309 97.7422C133.475 97.2474 133.697 96.8255 133.973 96.4766C134.249 96.1224 134.587 95.8542 134.988 95.6719C135.389 95.4844 135.856 95.3906 136.387 95.3906C136.918 95.3906 137.389 95.4948 137.801 95.7031C138.212 95.9062 138.556 96.1979 138.832 96.5781C139.113 96.9583 139.327 97.4141 139.473 97.9453C139.619 98.4714 139.691 99.0573 139.691 99.7031ZM138.238 99.8672V99.7031C138.238 99.2812 138.199 98.8854 138.121 98.5156C138.043 98.1406 137.918 97.8125 137.746 97.5312C137.574 97.2448 137.348 97.0208 137.066 96.8594C136.785 96.6927 136.439 96.6094 136.027 96.6094C135.663 96.6094 135.345 96.6719 135.074 96.7969C134.809 96.9219 134.582 97.0911 134.395 97.3047C134.207 97.513 134.053 97.7526 133.934 98.0234C133.819 98.2891 133.733 98.5651 133.676 98.8516V100.734C133.759 101.099 133.895 101.451 134.082 101.789C134.275 102.122 134.53 102.396 134.848 102.609C135.171 102.823 135.569 102.93 136.043 102.93C136.434 102.93 136.767 102.852 137.043 102.695C137.324 102.534 137.551 102.312 137.723 102.031C137.9 101.75 138.03 101.424 138.113 101.055C138.197 100.685 138.238 100.289 138.238 99.8672ZM145.427 104.156C144.839 104.156 144.305 104.057 143.826 103.859C143.352 103.656 142.943 103.372 142.599 103.008C142.261 102.643 142 102.211 141.818 101.711C141.636 101.211 141.545 100.664 141.545 100.07V99.7422C141.545 99.0547 141.646 98.4427 141.849 97.9062C142.052 97.3646 142.328 96.9062 142.677 96.5312C143.026 96.1562 143.422 95.8724 143.865 95.6797C144.308 95.487 144.766 95.3906 145.24 95.3906C145.844 95.3906 146.365 95.4948 146.802 95.7031C147.245 95.9115 147.607 96.2031 147.888 96.5781C148.17 96.9479 148.378 97.3854 148.513 97.8906C148.649 98.3906 148.716 98.9375 148.716 99.5312V100.18H142.404V99H147.271V98.8906C147.25 98.5156 147.172 98.151 147.037 97.7969C146.907 97.4427 146.698 97.151 146.412 96.9219C146.125 96.6927 145.735 96.5781 145.24 96.5781C144.912 96.5781 144.61 96.6484 144.334 96.7891C144.058 96.9245 143.821 97.1276 143.623 97.3984C143.425 97.6693 143.271 98 143.162 98.3906C143.052 98.7812 142.998 99.2318 142.998 99.7422V100.07C142.998 100.471 143.052 100.849 143.162 101.203C143.276 101.552 143.44 101.859 143.654 102.125C143.873 102.391 144.136 102.599 144.443 102.75C144.755 102.901 145.11 102.977 145.505 102.977C146.016 102.977 146.448 102.872 146.802 102.664C147.157 102.456 147.466 102.177 147.732 101.828L148.607 102.523C148.425 102.799 148.193 103.062 147.912 103.312C147.63 103.562 147.284 103.766 146.873 103.922C146.466 104.078 145.985 104.156 145.427 104.156ZM155.726 101.758C155.726 101.549 155.679 101.357 155.585 101.18C155.497 100.997 155.312 100.833 155.03 100.688C154.754 100.536 154.338 100.406 153.78 100.297C153.312 100.198 152.887 100.081 152.507 99.9453C152.132 99.8099 151.812 99.6458 151.546 99.4531C151.286 99.2604 151.085 99.0339 150.945 98.7734C150.804 98.513 150.734 98.2083 150.734 97.8594C150.734 97.526 150.806 97.2109 150.952 96.9141C151.103 96.6172 151.314 96.3542 151.585 96.125C151.861 95.8958 152.192 95.7161 152.577 95.5859C152.963 95.4557 153.392 95.3906 153.866 95.3906C154.543 95.3906 155.122 95.5104 155.601 95.75C156.08 95.9896 156.447 96.3099 156.702 96.7109C156.958 97.1068 157.085 97.5469 157.085 98.0312H155.64C155.64 97.7969 155.57 97.5703 155.429 97.3516C155.293 97.1276 155.093 96.9427 154.827 96.7969C154.567 96.651 154.247 96.5781 153.866 96.5781C153.465 96.5781 153.14 96.6406 152.89 96.7656C152.645 96.8854 152.465 97.0391 152.351 97.2266C152.241 97.4141 152.187 97.612 152.187 97.8203C152.187 97.9766 152.213 98.1172 152.265 98.2422C152.322 98.362 152.421 98.474 152.562 98.5781C152.702 98.6771 152.9 98.7708 153.155 98.8594C153.411 98.9479 153.736 99.0365 154.132 99.125C154.825 99.2812 155.395 99.4688 155.843 99.6875C156.291 99.9062 156.624 100.174 156.843 100.492C157.062 100.81 157.171 101.195 157.171 101.648C157.171 102.018 157.093 102.357 156.937 102.664C156.786 102.971 156.564 103.237 156.273 103.461C155.986 103.68 155.642 103.852 155.241 103.977C154.846 104.096 154.4 104.156 153.905 104.156C153.161 104.156 152.53 104.023 152.015 103.758C151.499 103.492 151.109 103.148 150.843 102.727C150.577 102.305 150.445 101.859 150.445 101.391H151.898C151.918 101.786 152.033 102.102 152.241 102.336C152.45 102.565 152.705 102.729 153.007 102.828C153.309 102.922 153.609 102.969 153.905 102.969C154.301 102.969 154.632 102.917 154.898 102.812C155.168 102.708 155.374 102.565 155.515 102.383C155.655 102.201 155.726 101.992 155.726 101.758ZM163.009 95.5469V96.6562H158.438V95.5469H163.009ZM159.985 93.4922H161.43V101.906C161.43 102.193 161.475 102.409 161.563 102.555C161.652 102.701 161.766 102.797 161.907 102.844C162.048 102.891 162.199 102.914 162.36 102.914C162.48 102.914 162.605 102.904 162.735 102.883C162.871 102.857 162.972 102.836 163.04 102.82L163.048 104C162.933 104.036 162.782 104.07 162.594 104.102C162.412 104.138 162.191 104.156 161.93 104.156C161.576 104.156 161.251 104.086 160.954 103.945C160.657 103.805 160.42 103.57 160.243 103.242C160.071 102.909 159.985 102.461 159.985 101.898V93.4922ZM172.855 102.969C173.199 102.969 173.517 102.898 173.808 102.758C174.1 102.617 174.34 102.424 174.527 102.18C174.715 101.93 174.821 101.646 174.848 101.328H176.223C176.196 101.828 176.027 102.294 175.715 102.727C175.407 103.154 175.004 103.5 174.504 103.766C174.004 104.026 173.454 104.156 172.855 104.156C172.22 104.156 171.665 104.044 171.191 103.82C170.723 103.596 170.332 103.289 170.019 102.898C169.712 102.508 169.48 102.06 169.324 101.555C169.173 101.044 169.098 100.505 169.098 99.9375V99.6094C169.098 99.0417 169.173 98.5052 169.324 98C169.48 97.4896 169.712 97.0391 170.019 96.6484C170.332 96.2578 170.723 95.9505 171.191 95.7266C171.665 95.5026 172.22 95.3906 172.855 95.3906C173.517 95.3906 174.095 95.526 174.59 95.7969C175.084 96.0625 175.473 96.4271 175.754 96.8906C176.04 97.349 176.196 97.8698 176.223 98.4531H174.848C174.821 98.1042 174.723 97.7891 174.551 97.5078C174.384 97.2266 174.155 97.0026 173.863 96.8359C173.577 96.6641 173.241 96.5781 172.855 96.5781C172.413 96.5781 172.04 96.6667 171.738 96.8438C171.441 97.0156 171.204 97.25 171.027 97.5469C170.855 97.8385 170.73 98.1641 170.652 98.5234C170.579 98.8776 170.543 99.2396 170.543 99.6094V99.9375C170.543 100.307 170.579 100.672 170.652 101.031C170.725 101.391 170.848 101.716 171.019 102.008C171.196 102.299 171.433 102.534 171.73 102.711C172.032 102.883 172.407 102.969 172.855 102.969ZM179.693 96.875V104H178.247V95.5469H179.654L179.693 96.875ZM182.333 95.5L182.326 96.8438C182.206 96.8177 182.091 96.8021 181.982 96.7969C181.878 96.7865 181.758 96.7812 181.622 96.7812C181.289 96.7812 180.995 96.8333 180.74 96.9375C180.484 97.0417 180.268 97.1875 180.091 97.375C179.914 97.5625 179.774 97.7865 179.669 98.0469C179.57 98.3021 179.505 98.5833 179.474 98.8906L179.068 99.125C179.068 98.6146 179.117 98.1354 179.216 97.6875C179.32 97.2396 179.479 96.8438 179.693 96.5C179.906 96.151 180.177 95.8802 180.505 95.6875C180.839 95.4896 181.234 95.3906 181.693 95.3906C181.797 95.3906 181.917 95.4036 182.052 95.4297C182.188 95.4505 182.281 95.474 182.333 95.5ZM187.421 104.156C186.832 104.156 186.298 104.057 185.819 103.859C185.345 103.656 184.936 103.372 184.593 103.008C184.254 102.643 183.994 102.211 183.811 101.711C183.629 101.211 183.538 100.664 183.538 100.07V99.7422C183.538 99.0547 183.64 98.4427 183.843 97.9062C184.046 97.3646 184.322 96.9062 184.671 96.5312C185.02 96.1562 185.416 95.8724 185.858 95.6797C186.301 95.487 186.759 95.3906 187.233 95.3906C187.838 95.3906 188.358 95.4948 188.796 95.7031C189.239 95.9115 189.601 96.2031 189.882 96.5781C190.163 96.9479 190.371 97.3854 190.507 97.8906C190.642 98.3906 190.71 98.9375 190.71 99.5312V100.18H184.397V99H189.265V98.8906C189.244 98.5156 189.166 98.151 189.03 97.7969C188.9 97.4427 188.692 97.151 188.405 96.9219C188.119 96.6927 187.728 96.5781 187.233 96.5781C186.905 96.5781 186.603 96.6484 186.327 96.7891C186.051 96.9245 185.814 97.1276 185.616 97.3984C185.418 97.6693 185.265 98 185.155 98.3906C185.046 98.7812 184.991 99.2318 184.991 99.7422V100.07C184.991 100.471 185.046 100.849 185.155 101.203C185.27 101.552 185.434 101.859 185.647 102.125C185.866 102.391 186.129 102.599 186.436 102.75C186.749 102.901 187.103 102.977 187.499 102.977C188.009 102.977 188.442 102.872 188.796 102.664C189.15 102.456 189.46 102.177 189.726 101.828L190.601 102.523C190.418 102.799 190.186 103.062 189.905 103.312C189.624 103.562 189.278 103.766 188.866 103.922C188.46 104.078 187.978 104.156 187.421 104.156ZM197.782 102.555V98.2031C197.782 97.8698 197.714 97.5807 197.579 97.3359C197.448 97.0859 197.251 96.8932 196.985 96.7578C196.719 96.6224 196.391 96.5547 196.001 96.5547C195.636 96.5547 195.316 96.6172 195.04 96.7422C194.769 96.8672 194.555 97.0312 194.399 97.2344C194.248 97.4375 194.172 97.6562 194.172 97.8906H192.727C192.727 97.5885 192.805 97.2891 192.961 96.9922C193.118 96.6953 193.342 96.4271 193.633 96.1875C193.93 95.9427 194.284 95.75 194.696 95.6094C195.112 95.4635 195.576 95.3906 196.086 95.3906C196.701 95.3906 197.243 95.4948 197.711 95.7031C198.185 95.9115 198.555 96.2266 198.821 96.6484C199.092 97.0651 199.227 97.5885 199.227 98.2188V102.156C199.227 102.438 199.251 102.737 199.297 103.055C199.349 103.372 199.425 103.646 199.524 103.875V104H198.016C197.943 103.833 197.886 103.612 197.844 103.336C197.803 103.055 197.782 102.794 197.782 102.555ZM198.032 98.875L198.047 99.8906H196.586C196.175 99.8906 195.808 99.9245 195.485 99.9922C195.162 100.055 194.891 100.151 194.672 100.281C194.454 100.411 194.287 100.576 194.172 100.773C194.058 100.966 194.001 101.193 194.001 101.453C194.001 101.719 194.06 101.961 194.18 102.18C194.3 102.398 194.48 102.573 194.719 102.703C194.964 102.828 195.264 102.891 195.618 102.891C196.06 102.891 196.451 102.797 196.79 102.609C197.128 102.422 197.396 102.193 197.594 101.922C197.797 101.651 197.907 101.388 197.922 101.133L198.54 101.828C198.503 102.047 198.404 102.289 198.243 102.555C198.081 102.82 197.865 103.076 197.594 103.32C197.329 103.56 197.011 103.76 196.641 103.922C196.277 104.078 195.865 104.156 195.407 104.156C194.834 104.156 194.331 104.044 193.899 103.82C193.472 103.596 193.139 103.297 192.899 102.922C192.665 102.542 192.547 102.117 192.547 101.648C192.547 101.195 192.636 100.797 192.813 100.453C192.99 100.104 193.245 99.8151 193.579 99.5859C193.912 99.3516 194.313 99.1745 194.782 99.0547C195.251 98.9349 195.774 98.875 196.352 98.875H198.032ZM205.44 95.5469V96.6562H200.869V95.5469H205.44ZM202.416 93.4922H203.861V101.906C203.861 102.193 203.906 102.409 203.994 102.555C204.083 102.701 204.197 102.797 204.338 102.844C204.479 102.891 204.63 102.914 204.791 102.914C204.911 102.914 205.036 102.904 205.166 102.883C205.302 102.857 205.403 102.836 205.471 102.82L205.479 104C205.364 104.036 205.213 104.07 205.025 104.102C204.843 104.138 204.622 104.156 204.361 104.156C204.007 104.156 203.682 104.086 203.385 103.945C203.088 103.805 202.851 103.57 202.674 103.242C202.502 102.909 202.416 102.461 202.416 101.898V93.4922ZM206.996 99.8672V99.6875C206.996 99.0781 207.084 98.513 207.261 97.9922C207.438 97.4661 207.694 97.0104 208.027 96.625C208.36 96.2344 208.764 95.9323 209.238 95.7188C209.712 95.5 210.243 95.3906 210.832 95.3906C211.425 95.3906 211.959 95.5 212.433 95.7188C212.912 95.9323 213.319 96.2344 213.652 96.625C213.991 97.0104 214.248 97.4661 214.425 97.9922C214.603 98.513 214.691 99.0781 214.691 99.6875V99.8672C214.691 100.477 214.603 101.042 214.425 101.562C214.248 102.083 213.991 102.539 213.652 102.93C213.319 103.315 212.915 103.617 212.441 103.836C211.972 104.049 211.441 104.156 210.847 104.156C210.254 104.156 209.72 104.049 209.246 103.836C208.772 103.617 208.366 103.315 208.027 102.93C207.694 102.539 207.438 102.083 207.261 101.562C207.084 101.042 206.996 100.477 206.996 99.8672ZM208.441 99.6875V99.8672C208.441 100.289 208.491 100.688 208.59 101.062C208.688 101.432 208.837 101.76 209.035 102.047C209.238 102.333 209.491 102.56 209.793 102.727C210.095 102.888 210.446 102.969 210.847 102.969C211.243 102.969 211.59 102.888 211.886 102.727C212.188 102.56 212.438 102.333 212.636 102.047C212.834 101.76 212.983 101.432 213.082 101.062C213.186 100.688 213.238 100.289 213.238 99.8672V99.6875C213.238 99.2708 213.186 98.8776 213.082 98.5078C212.983 98.1328 212.832 97.8021 212.629 97.5156C212.431 97.224 212.181 96.9948 211.879 96.8281C211.582 96.6615 211.233 96.5781 210.832 96.5781C210.436 96.5781 210.087 96.6615 209.785 96.8281C209.488 96.9948 209.238 97.224 209.035 97.5156C208.837 97.8021 208.688 98.1328 208.59 98.5078C208.491 98.8776 208.441 99.2708 208.441 99.6875ZM218.349 96.875V104H216.904V95.5469H218.31L218.349 96.875ZM220.989 95.5L220.982 96.8438C220.862 96.8177 220.747 96.8021 220.638 96.7969C220.534 96.7865 220.414 96.7812 220.279 96.7812C219.945 96.7812 219.651 96.8333 219.396 96.9375C219.141 97.0417 218.924 97.1875 218.747 97.375C218.57 97.5625 218.43 97.7865 218.325 98.0469C218.226 98.3021 218.161 98.5833 218.13 98.8906L217.724 99.125C217.724 98.6146 217.773 98.1354 217.872 97.6875C217.976 97.2396 218.135 96.8438 218.349 96.5C218.562 96.151 218.833 95.8802 219.161 95.6875C219.495 95.4896 219.891 95.3906 220.349 95.3906C220.453 95.3906 220.573 95.4036 220.708 95.4297C220.844 95.4505 220.937 95.474 220.989 95.5ZM227.647 101.758C227.647 101.549 227.6 101.357 227.507 101.18C227.418 100.997 227.233 100.833 226.952 100.688C226.676 100.536 226.259 100.406 225.702 100.297C225.233 100.198 224.809 100.081 224.428 99.9453C224.053 99.8099 223.733 99.6458 223.468 99.4531C223.207 99.2604 223.007 99.0339 222.866 98.7734C222.725 98.513 222.655 98.2083 222.655 97.8594C222.655 97.526 222.728 97.2109 222.874 96.9141C223.025 96.6172 223.236 96.3542 223.507 96.125C223.783 95.8958 224.113 95.7161 224.499 95.5859C224.884 95.4557 225.314 95.3906 225.788 95.3906C226.465 95.3906 227.043 95.5104 227.522 95.75C228.001 95.9896 228.369 96.3099 228.624 96.7109C228.879 97.1068 229.007 97.5469 229.007 98.0312H227.561C227.561 97.7969 227.491 97.5703 227.35 97.3516C227.215 97.1276 227.014 96.9427 226.749 96.7969C226.488 96.651 226.168 96.5781 225.788 96.5781C225.387 96.5781 225.061 96.6406 224.811 96.7656C224.567 96.8854 224.387 97.0391 224.272 97.2266C224.163 97.4141 224.108 97.612 224.108 97.8203C224.108 97.9766 224.134 98.1172 224.186 98.2422C224.244 98.362 224.343 98.474 224.483 98.5781C224.624 98.6771 224.822 98.7708 225.077 98.8594C225.332 98.9479 225.658 99.0365 226.053 99.125C226.746 99.2812 227.317 99.4688 227.764 99.6875C228.212 99.9062 228.546 100.174 228.764 100.492C228.983 100.81 229.093 101.195 229.093 101.648C229.093 102.018 229.014 102.357 228.858 102.664C228.707 102.971 228.486 103.237 228.194 103.461C227.908 103.68 227.564 103.852 227.163 103.977C226.767 104.096 226.322 104.156 225.827 104.156C225.082 104.156 224.452 104.023 223.936 103.758C223.421 103.492 223.03 103.148 222.764 102.727C222.499 102.305 222.366 101.859 222.366 101.391H223.819C223.84 101.786 223.955 102.102 224.163 102.336C224.371 102.565 224.626 102.729 224.928 102.828C225.231 102.922 225.53 102.969 225.827 102.969C226.223 102.969 226.553 102.917 226.819 102.812C227.09 102.708 227.296 102.565 227.436 102.383C227.577 102.201 227.647 101.992 227.647 101.758Z" fill="white"/>
</svg>
