


<svg id="go_live_arrow_7" xmlns="http://www.w3.org/2000/svg" width="24.584" height="24.584" viewBox="0 0 24.584 24.584">
  <g id="Group_131229" data-name="Group 131229" transform="translate(-6846.556 -11175.916)">
    <g id="Path_170816" data-name="Path 170816" transform="translate(6847 11176)" fill="currentColor">
      <path d="M 12 23.5 C 8.928239822387695 23.5 6.040329933166504 22.30378913879395 3.868269920349121 20.13172912597656 C 1.696210026741028 17.95966911315918 0.5 15.0717601776123 0.5 12 C 0.5 8.928239822387695 1.696210026741028 6.040329933166504 3.868269920349121 3.868269920349121 C 6.040329933166504 1.696210026741028 8.928239822387695 0.5 12 0.5 C 15.0717601776123 0.5 17.95966911315918 1.696210026741028 20.13172912597656 3.868269920349121 C 22.30378913879395 6.040329933166504 23.5 8.928239822387695 23.5 12 C 23.5 15.0717601776123 22.30378913879395 17.95966911315918 20.13172912597656 20.13172912597656 C 17.95966911315918 22.30378913879395 15.0717601776123 23.5 12 23.5 Z" stroke="none"/>
      <path d="M 12 1 C 9.061790466308594 1 6.299449920654297 2.144199371337891 4.221820831298828 4.221820831298828 C 2.144199371337891 6.299449920654297 1 9.061790466308594 1 12 C 1 14.93820953369141 2.144199371337891 17.7005500793457 4.221820831298828 19.77817916870117 C 6.299449920654297 21.85580062866211 9.061790466308594 23 12 23 C 14.93820953369141 23 17.7005500793457 21.85580062866211 19.77817916870117 19.77817916870117 C 21.85580062866211 17.7005500793457 23 14.93820953369141 23 12 C 23 9.061790466308594 21.85580062866211 6.299449920654297 19.77817916870117 4.221820831298828 C 17.7005500793457 2.144199371337891 14.93820953369141 1 12 1 M 12 0 C 18.62742042541504 0 24 5.372579574584961 24 12 C 24 18.62742042541504 18.62742042541504 24 12 24 C 5.372579574584961 24 0 18.62742042541504 0 12 C 0 5.372579574584961 5.372579574584961 0 12 0 Z" stroke="none" fill="#fff"/>
    </g>
    <g id="noun_go_327544" transform="translate(6846.556 11175.916)">
      <g id="Group_56311" data-name="Group 56311">
        <g id="Group_56310" data-name="Group 56310">
          <g id="Group_56309" data-name="Group 56309">
            <path id="Path_170816-2" data-name="Path 170816" d="M12.292,1.536A10.755,10.755,0,1,1,1.536,12.292,10.767,10.767,0,0,1,12.292,1.536m0-1.536A12.292,12.292,0,1,0,24.584,12.292,12.289,12.289,0,0,0,12.292,0Z" fill="currentColor"/>
          </g>
        </g>
      </g>
      <g id="Group_56313" data-name="Group 56313" transform="translate(8.719 5.852)">
        <g id="Group_56312" data-name="Group 56312">
          <path id="Path_170817" data-name="Path 170817" d="M12.223,20.41l-.943-1.186,6.63-5.254L11.28,8.716l.943-1.186,8.136,6.44Z" transform="translate(-11.28 -7.53)" fill="#fff"/>
        </g>
      </g>
    </g>
  </g>
</svg> 
