<svg xmlns="http://www.w3.org/2000/svg" width="40" height="40" viewBox="0 0 40 40">
  <g id="share" transform="translate(-1095.952 -971.952)">
    <path id="Path_170813" data-name="Path 170813" d="M20,0A20,20,0,1,1,0,20,20,20,0,0,1,20,0Z" transform="translate(1095.952 971.952)" fill="#5d5c5ca1"/>
    <path id="Icon_awesome-info-circle" data-name="Icon awesome-info-circle" d="M10.337.563a9.774,9.774,0,1,0,9.774,9.774A9.776,9.776,0,0,0,10.337.563Zm0,4.335A1.655,1.655,0,1,1,8.682,6.553,1.655,1.655,0,0,1,10.337,4.9Zm2.207,10.011a.473.473,0,0,1-.473.473H8.6a.473.473,0,0,1-.473-.473v-.946A.473.473,0,0,1,8.6,13.49h.473V10.968H8.6a.473.473,0,0,1-.473-.473V9.549A.473.473,0,0,1,8.6,9.076h2.522a.473.473,0,0,1,.473.473V13.49h.473a.473.473,0,0,1,.473.473Z" transform="translate(1105.389 981.388)" fill="#fff"/>
  </g>
</svg>
