<svg id="shareStreamIcon" width="32" height="32" viewBox="0 0 32 32" fill="none" xmlns="http://www.w3.org/2000/svg">
<circle cx="16" cy="16" r="16" fill="url(#paint0_linear_1195_48564)"/>
<mask id="mask0_1195_48564" style="mask-type:alpha" maskUnits="userSpaceOnUse" x="5" y="5" width="21" height="21">
<rect x="5.94238" y="5.88477" width="20" height="20" fill="#D9D9D9"/>
</mask>
<g mask="url(#mask0_1195_48564)">
<path d="M20.943 24.0097C20.3067 24.0097 19.7655 23.7869 19.3195 23.3413C18.8734 22.8957 18.6504 22.3546 18.6504 21.7181C18.6504 21.614 18.6587 21.5063 18.6752 21.3949C18.6918 21.2834 18.7166 21.1807 18.7497 21.0867L12.5863 17.4777C12.3662 17.6967 12.1156 17.8679 11.8347 17.9913C11.5537 18.1147 11.2561 18.1764 10.942 18.1764C10.3055 18.1764 9.76438 17.9537 9.31879 17.5083C8.87319 17.0628 8.65039 16.522 8.65039 15.8857C8.65039 15.2494 8.87319 14.7082 9.31879 14.2622C9.76438 13.8161 10.3055 13.5931 10.942 13.5931C11.2561 13.5931 11.5537 13.6548 11.8347 13.7782C12.1156 13.9016 12.3662 14.0728 12.5863 14.2918L18.7497 10.6828C18.7166 10.5888 18.6918 10.4861 18.6752 10.3746C18.6587 10.2632 18.6504 10.1554 18.6504 10.0514C18.6504 9.41484 18.8731 8.87376 19.3185 8.42816C19.7639 7.98256 20.3048 7.75977 20.9411 7.75977C21.5774 7.75977 22.1186 7.98247 22.5646 8.42789C23.0107 8.87331 23.2337 9.41417 23.2337 10.0505C23.2337 10.6868 23.0109 11.228 22.5653 11.674C22.1197 12.12 21.5786 12.3431 20.942 12.3431C20.6279 12.3431 20.3304 12.2814 20.0494 12.158C19.7684 12.0346 19.5179 11.8634 19.2978 11.6443L13.1343 15.2533C13.1675 15.3473 13.1923 15.4499 13.2088 15.561C13.2254 15.672 13.2337 15.7794 13.2337 15.8831C13.2337 15.9868 13.2254 16.0947 13.2088 16.2069C13.1923 16.3191 13.1675 16.4221 13.1343 16.5162L19.2978 20.1251C19.5179 19.9061 19.7684 19.7349 20.0494 19.6115C20.3304 19.4881 20.6279 19.4264 20.942 19.4264C21.5786 19.4264 22.1197 19.6491 22.5653 20.0946C23.0109 20.54 23.2337 21.0808 23.2337 21.7171C23.2337 22.3534 23.011 22.8946 22.5656 23.3407C22.1201 23.7867 21.5793 24.0097 20.943 24.0097Z" fill="white"/>
</g>
<defs>
<linearGradient id="paint0_linear_1195_48564" x1="16" y1="0" x2="16" y2="32" gradientUnits="userSpaceOnUse">
<stop stop-color="#D33AFF"/>
<stop offset="1" stop-color="#FF71A4"/>
</linearGradient>
</defs>
</svg>
