<svg xmlns="http://www.w3.org/2000/svg" xmlns:xlink="http://www.w3.org/1999/xlink" width="17.576" height="17.562" viewBox="0 0 17.576 17.562">
  <defs>
    <linearGradient id="linear-gradient" x1="0.5" x2="1" y2="1" gradientUnits="objectBoundingBox">
      <stop offset="0" stop-color="#ffd90a"/>
      <stop offset="1" stop-color="#ff9d00"/>
    </linearGradient>
  </defs>
  <g id="coin1" transform="translate(-0.618 -0.127)">
    <g id="Group_1317" data-name="Group 1317" transform="translate(0.618 0.127)">
      <g id="dollar">
        <path id="Subtraction_16" data-name="Subtraction 16" d="M8.823,17.562A8.875,8.875,0,0,1,0,8.746,8.641,8.641,0,0,1,2.6,2.564a8.772,8.772,0,0,1,12.412,12.4A8.655,8.655,0,0,1,8.823,17.562ZM6.794,10.428a.489.489,0,0,0-.489.531,1.543,1.543,0,0,0,1.47,1.6h.557V13.1a.492.492,0,1,0,.979,0v-.538H9.8a1.543,1.543,0,0,0,1.47-1.6V9.817A1.546,1.546,0,0,0,9.8,8.208H9.31V6.065H9.8a.511.511,0,0,1,.491.538.491.491,0,1,0,.979,0A1.546,1.546,0,0,0,9.8,4.994H9.31V4.46a.491.491,0,1,0-.979,0v.534H7.775A1.546,1.546,0,0,0,6.3,6.6V7.675A1.544,1.544,0,0,0,7.775,9.28h.557v2.212H7.775a.508.508,0,0,1-.491-.533A.489.489,0,0,0,6.794,10.428ZM9.8,11.492H9.31V9.28H9.8a.51.51,0,0,1,.491.537v1.142A.508.508,0,0,1,9.8,11.492ZM8.332,8.208H7.775a.508.508,0,0,1-.491-.533V6.6a.511.511,0,0,1,.491-.538h.557V8.207Z" fill="url(#linear-gradient)"/>
      </g>
    </g>
  </g>
</svg>
