<svg xmlns="http://www.w3.org/2000/svg" width="37" height="37" viewBox="0 0 37 37">
  <g id="Group_56982" data-name="Group 56982" transform="translate(3766 -14479)">
    <g id="pexels-giftpunditscom-1310522" transform="translate(-3766 14479)" fill="#ff71a4">
      <path d="M 18.5 36.5 C 13.69202041625977 36.5 9.171830177307129 34.62767028808594 5.772079944610596 31.22792053222656 C 2.372329950332642 27.82817077636719 0.5 23.30797958374023 0.5 18.5 C 0.5 13.69202041625977 2.372329950332642 9.171830177307129 5.772079944610596 5.772079944610596 C 9.171830177307129 2.372329950332642 13.69202041625977 0.5 18.5 0.5 C 23.30797958374023 0.5 27.82817077636719 2.372329950332642 31.22792053222656 5.772079944610596 C 34.62767028808594 9.171830177307129 36.5 13.69202041625977 36.5 18.5 C 36.5 23.30797958374023 34.62767028808594 27.82817077636719 31.22792053222656 31.22792053222656 C 27.82817077636719 34.62767028808594 23.30797958374023 36.5 18.5 36.5 Z" stroke="none"/>
      <path d="M 18.5 1 C 13.82558059692383 1 9.430940628051758 2.820320129394531 6.125629425048828 6.125629425048828 C 2.820320129394531 9.430940628051758 1 13.82558059692383 1 18.5 C 1 23.17441940307617 2.820320129394531 27.56906127929688 6.125629425048828 30.87437057495117 C 9.430940628051758 34.17967987060547 13.82558059692383 36 18.5 36 C 23.17441940307617 36 27.56906127929688 34.17967987060547 30.87437057495117 30.87437057495117 C 34.17967987060547 27.56906127929688 36 23.17441940307617 36 18.5 C 36 13.82558059692383 34.17967987060547 9.430940628051758 30.87437057495117 6.125629425048828 C 27.56906127929688 2.820320129394531 23.17441940307617 1 18.5 1 M 18.5 0 C 28.71726989746094 0 37 8.282730102539062 37 18.5 C 37 28.71726989746094 28.71726989746094 37 18.5 37 C 8.282730102539062 37 0 28.71726989746094 0 18.5 C 0 8.282730102539062 8.282730102539062 0 18.5 0 Z" stroke="none" fill="#fff"/>
    </g>
    <g id="tick-3" transform="translate(-4484.189 13839.022)">
      <g id="Group_56981" data-name="Group 56981" transform="translate(728.189 651.978)">
        <path id="Path_170915" data-name="Path 170915" d="M118.453,138.5l-10.346,10.346a1.035,1.035,0,0,1-1.463,0l-4.138-4.138a1.035,1.035,0,0,1,1.437-1.488l.025.025,3.407,3.407,9.615-9.615a1.035,1.035,0,0,1,1.463,1.463Z" transform="translate(-102.189 -136.743)" fill="#fff"/>
      </g>
    </g>
  </g>
</svg>
