<svg xmlns="http://www.w3.org/2000/svg" width="46.478" height="46.478" viewBox="0 0 46.478 46.478">
  <g id="Group_56980" data-name="Group 56980" transform="translate(-447.261 -13176.768)">
    <g id="Group_56979" data-name="Group 56979" transform="translate(447.261 13176.768)">
      <path id="Path_170721" data-name="Path 170721" d="M23.239,0A23.239,23.239,0,1,1,0,23.239,23.239,23.239,0,0,1,23.239,0Z" transform="translate(0 0)" fill="#fff" opacity="0.412"/>
    </g>
    <g id="XMLID_486_" transform="translate(462.167 13188.053)">
      <path id="XMLID_487_" d="M58.333,23.911A8.328,8.328,0,0,0,64.491,9.972V6.159a6.159,6.159,0,1,0-12.318,0V9.971a8.328,8.328,0,0,0,6.159,13.939Zm1.087-7.971v1.45a1.087,1.087,0,0,1-2.174,0V15.94a1.811,1.811,0,1,1,2.174,0ZM54.348,6.159a3.985,3.985,0,1,1,7.97,0v2.1a8.32,8.32,0,0,0-7.97,0Z" transform="translate(-50 0)" fill="#fff"/>
    </g>
  </g>
</svg>
