<svg xmlns="http://www.w3.org/2000/svg" width="20" height="20" viewBox="0 0 20 20">
  <path id="_11_Dollar_2" data-name="11 Dollar_2" d="M10,20A10,10,0,1,1,20,10,10.011,10.011,0,0,1,10,20ZM7.7,12.374a.79.79,0,0,0-.555.226l-.371.366a.784.784,0,0,0,.071,1.171,3.868,3.868,0,0,0,2.117.8v.529a.784.784,0,0,0,.783.784h.517a.785.785,0,0,0,.784-.784v-.537a2.911,2.911,0,0,0,2.6-2.9A2.818,2.818,0,0,0,11.629,9.4L8.971,8.6a.75.75,0,0,1-.529-.791.77.77,0,0,1,.764-.68h1.577a1.806,1.806,0,0,1,1.055.338A.783.783,0,0,0,12.858,7.4l.371-.371a.783.783,0,0,0-.067-1.166,3.9,3.9,0,0,0-2.12-.8V4.533a.784.784,0,0,0-.784-.783H9.742a.784.784,0,0,0-.783.783V5.05a2.909,2.909,0,0,0-2.6,2.917A2.82,2.82,0,0,0,8.371,10.6l2.659.8a.75.75,0,0,1,.466,1.025.787.787,0,0,1-.707.446H9.217a1.785,1.785,0,0,1-1.05-.337A.784.784,0,0,0,7.7,12.374Z" fill="#fff"/>
</svg>
