<svg width="12" height="12" viewBox="0 0 12 12" fill="none" xmlns="http://www.w3.org/2000/svg">
<g id="lock">
<mask id="mask0_681_2314" style="mask-type:alpha" maskUnits="userSpaceOnUse" x="0" y="0" width="12" height="12">
<rect id="Bounding box" width="12" height="12" fill="#D9D9D9"/>
</mask>
<g mask="url(#mask0_681_2314)">
<path id="lock_2" d="M2.99805 10.9995C2.72305 10.9995 2.48763 10.9016 2.2918 10.7058C2.09596 10.5099 1.99805 10.2745 1.99805 9.99951V4.99951C1.99805 4.72451 2.09596 4.4891 2.2918 4.29326C2.48763 4.09743 2.72305 3.99951 2.99805 3.99951H3.49805V2.99951C3.49805 2.30785 3.7418 1.71826 4.2293 1.23076C4.7168 0.743262 5.30638 0.499512 5.99805 0.499512C6.68971 0.499512 7.2793 0.743262 7.7668 1.23076C8.2543 1.71826 8.49805 2.30785 8.49805 2.99951V3.99951H8.99805C9.27305 3.99951 9.50846 4.09743 9.7043 4.29326C9.90013 4.4891 9.99805 4.72451 9.99805 4.99951V9.99951C9.99805 10.2745 9.90013 10.5099 9.7043 10.7058C9.50846 10.9016 9.27305 10.9995 8.99805 10.9995H2.99805ZM2.99805 9.99951H8.99805V4.99951H2.99805V9.99951ZM5.99805 8.49951C6.27305 8.49951 6.50846 8.4016 6.7043 8.20576C6.90013 8.00993 6.99805 7.77451 6.99805 7.49951C6.99805 7.22451 6.90013 6.9891 6.7043 6.79326C6.50846 6.59743 6.27305 6.49951 5.99805 6.49951C5.72305 6.49951 5.48763 6.59743 5.2918 6.79326C5.09596 6.9891 4.99805 7.22451 4.99805 7.49951C4.99805 7.77451 5.09596 8.00993 5.2918 8.20576C5.48763 8.4016 5.72305 8.49951 5.99805 8.49951ZM4.49805 3.99951H7.49805V2.99951C7.49805 2.58284 7.35221 2.22868 7.06055 1.93701C6.76888 1.64534 6.41471 1.49951 5.99805 1.49951C5.58138 1.49951 5.22721 1.64534 4.93555 1.93701C4.64388 2.22868 4.49805 2.58284 4.49805 2.99951V3.99951Z" fill="#A588AD"/>
</g>
</g>
</svg>
