<svg width="12" height="12" viewBox="0 0 12 12" fill="none" xmlns="http://www.w3.org/2000/svg">
<g id="shield_lock">
<mask id="mask0_681_2311" style="mask-type:alpha" maskUnits="userSpaceOnUse" x="0" y="0" width="12" height="12">
<rect id="Bounding box" width="12" height="12" fill="#D9D9D9"/>
</mask>
<g mask="url(#mask0_681_2311)">
<path id="shield_lock_2" d="M5.99805 11.0005C4.83971 10.7088 3.88346 10.0442 3.1293 9.00674C2.37513 7.96924 1.99805 6.81715 1.99805 5.55049V2.50049L5.99805 1.00049L9.99805 2.50049V5.55049C9.99805 6.81715 9.62096 7.96924 8.8668 9.00674C8.11263 10.0442 7.15638 10.7088 5.99805 11.0005ZM5.99805 9.95049C6.86471 9.67549 7.58138 9.12549 8.14805 8.30049C8.71471 7.47549 8.99805 6.55882 8.99805 5.55049V3.18799L5.99805 2.06299L2.99805 3.18799V5.55049C2.99805 6.55882 3.28138 7.47549 3.84805 8.30049C4.41471 9.12549 5.13138 9.67549 5.99805 9.95049ZM4.99805 8.00049H6.99805C7.13971 8.00049 7.25846 7.95257 7.3543 7.85674C7.45013 7.7609 7.49805 7.64215 7.49805 7.50049V6.00049C7.49805 5.85882 7.45013 5.74007 7.3543 5.64424C7.25846 5.5484 7.13971 5.50049 6.99805 5.50049V5.00049C6.99805 4.72549 6.90013 4.49007 6.7043 4.29424C6.50846 4.0984 6.27305 4.00049 5.99805 4.00049C5.72305 4.00049 5.48763 4.0984 5.2918 4.29424C5.09596 4.49007 4.99805 4.72549 4.99805 5.00049V5.50049C4.85638 5.50049 4.73763 5.5484 4.6418 5.64424C4.54596 5.74007 4.49805 5.85882 4.49805 6.00049V7.50049C4.49805 7.64215 4.54596 7.7609 4.6418 7.85674C4.73763 7.95257 4.85638 8.00049 4.99805 8.00049ZM5.49805 5.50049V5.00049C5.49805 4.85882 5.54596 4.74007 5.6418 4.64424C5.73763 4.5484 5.85638 4.50049 5.99805 4.50049C6.13971 4.50049 6.25846 4.5484 6.3543 4.64424C6.45013 4.74007 6.49805 4.85882 6.49805 5.00049V5.50049H5.49805Z" fill="#A588AD"/>
</g>
</g>
</svg>
