<svg width="40" id="admininfo" height="40" viewBox="0 0 40 40" fill="none" xmlns="http://www.w3.org/2000/svg">
<rect width="40" height="40" rx="10" fill="#F6F6F6"/>
<path d="M9.38229 28C9.159 28 8.97436 27.927 8.82837 27.781C8.68237 27.635 8.60938 27.4503 8.60938 27.2271V25.5781C8.60938 24.9769 8.76396 24.4316 9.07312 23.942C9.38229 23.4525 9.81169 23.0875 10.3613 22.847C11.6152 22.2974 12.7445 21.9023 13.7493 21.6618C14.754 21.4214 15.7889 21.3011 16.8538 21.3011C17.9187 21.3011 18.9492 21.4214 19.9454 21.6618C20.9416 21.9023 22.0667 22.2974 23.3205 22.847C23.8701 23.0875 24.3038 23.4525 24.6216 23.942C24.9393 24.4316 25.0982 24.9769 25.0982 25.5781V27.2271C25.0982 27.4503 25.0252 27.635 24.8792 27.781C24.7332 27.927 24.5486 28 24.3253 28H9.38229ZM26.0772 28C26.249 27.9656 26.3864 27.8755 26.4894 27.7295C26.5925 27.5835 26.644 27.3988 26.644 27.1755V25.5781C26.644 24.496 26.3692 23.6071 25.8196 22.9114C25.27 22.2158 24.5486 21.6532 23.6554 21.2238C24.8406 21.3612 25.957 21.5631 27.0047 21.8293C28.0525 22.0955 28.9027 22.4004 29.5553 22.744C30.1221 23.0703 30.5687 23.474 30.8951 23.9549C31.2214 24.4359 31.3846 24.9769 31.3846 25.5781V27.2271C31.3846 27.4503 31.3116 27.635 31.1656 27.781C31.0196 27.927 30.8349 28 30.6117 28H26.0772ZM16.8538 19.7295C15.7202 19.7295 14.7927 19.3688 14.0713 18.6473C13.3499 17.9259 12.9892 16.9984 12.9892 15.8647C12.9892 14.7311 13.3499 13.8035 14.0713 13.0821C14.7927 12.3607 15.7202 12 16.8538 12C17.9874 12 18.9149 12.3607 19.6363 13.0821C20.3577 13.8035 20.7184 14.7311 20.7184 15.8647C20.7184 16.9984 20.3577 17.9259 19.6363 18.6473C18.9149 19.3688 17.9874 19.7295 16.8538 19.7295ZM26.1288 15.8647C26.1288 16.9984 25.7681 17.9259 25.0467 18.6473C24.3253 19.3688 23.3978 19.7295 22.2642 19.7295C22.0753 19.7295 21.8648 19.7166 21.633 19.6908C21.4011 19.6651 21.1907 19.6178 21.0018 19.5491C21.414 19.1197 21.7274 18.5915 21.9421 17.9646C22.1568 17.3376 22.2642 16.6377 22.2642 15.8647C22.2642 15.0918 22.1568 14.409 21.9421 13.8164C21.7274 13.2238 21.414 12.6785 21.0018 12.1804C21.1907 12.1288 21.4011 12.0859 21.633 12.0515C21.8648 12.0172 22.0753 12 22.2642 12C23.3978 12 24.3253 12.3607 25.0467 13.0821C25.7681 13.8035 26.1288 14.7311 26.1288 15.8647ZM10.1552 26.4541H23.5524V25.5781C23.5524 25.3033 23.4708 25.037 23.3076 24.7794C23.1444 24.5217 22.9426 24.3414 22.7022 24.2383C21.4655 23.6887 20.4264 23.3194 19.5848 23.1304C18.7431 22.9415 17.8328 22.847 16.8538 22.847C15.8748 22.847 14.9601 22.9415 14.1099 23.1304C13.2597 23.3194 12.2163 23.6887 10.9796 24.2383C10.7392 24.3414 10.5417 24.5217 10.3871 24.7794C10.2325 25.037 10.1552 25.3033 10.1552 25.5781V26.4541ZM16.8538 18.1836C17.5236 18.1836 18.0776 17.9646 18.5156 17.5266C18.9535 17.0886 19.1725 16.5346 19.1725 15.8647C19.1725 15.1948 18.9535 14.6409 18.5156 14.2029C18.0776 13.7649 17.5236 13.5459 16.8538 13.5459C16.1839 13.5459 15.63 13.7649 15.192 14.2029C14.754 14.6409 14.535 15.1948 14.535 15.8647C14.535 16.5346 14.754 17.0886 15.192 17.5266C15.63 17.9646 16.1839 18.1836 16.8538 18.1836Z" fill="#5F596B"/>
</svg>
