<svg id="block" width="40" height="40" viewBox="0 0 40 40" fill="none" xmlns="http://www.w3.org/2000/svg">
<rect width="40" height="40" rx="10" fill="#F6F6F6"/>
<path d="M20 30C18.6167 30 17.3167 29.7375 16.1 29.2125C14.8833 28.6875 13.825 27.975 12.925 27.075C12.025 26.175 11.3125 25.1167 10.7875 23.9C10.2625 22.6833 10 21.3833 10 20C10 18.6167 10.2625 17.3167 10.7875 16.1C11.3125 14.8833 12.025 13.825 12.925 12.925C13.825 12.025 14.8833 11.3125 16.1 10.7875C17.3167 10.2625 18.6167 10 20 10C21.3833 10 22.6833 10.2625 23.9 10.7875C25.1167 11.3125 26.175 12.025 27.075 12.925C27.975 13.825 28.6875 14.8833 29.2125 16.1C29.7375 17.3167 30 18.6167 30 20C30 21.3833 29.7375 22.6833 29.2125 23.9C28.6875 25.1167 27.975 26.175 27.075 27.075C26.175 27.975 25.1167 28.6875 23.9 29.2125C22.6833 29.7375 21.3833 30 20 30ZM20 28.5C22.3729 28.5 24.3828 27.6766 26.0297 26.0297C27.6766 24.3828 28.5 22.3729 28.5 20C28.5 18.989 28.325 18.0154 27.975 17.0792C27.625 16.1431 27.1333 15.2917 26.5 14.525L14.525 26.5C15.275 27.15 16.1208 27.6458 17.0623 27.9875C18.0039 28.3292 18.9831 28.5 20 28.5ZM13.525 25.475L25.475 13.525C24.7083 12.875 23.8569 12.375 22.9208 12.025C21.9846 11.675 21.011 11.5 20 11.5C17.6271 11.5 15.6172 12.3234 13.9703 13.9703C12.3234 15.6172 11.5 17.6271 11.5 20C11.5 21.0169 11.6833 21.9961 12.05 22.9376C12.4167 23.8792 12.9083 24.725 13.525 25.475Z" fill="currentColor"/>
</svg>
