<svg width="36" id="Icons_back" height="36" viewBox="0 0 36 36" fill="none" xmlns="http://www.w3.org/2000/svg">
<path d="M17.9984 19.5734L10.1234 27.4484C9.89844 27.6734 9.63594 27.7859 9.33594 27.7859C9.03594 27.7859 8.77344 27.6734 8.54844 27.4484C8.32344 27.2234 8.21094 26.9609 8.21094 26.6609C8.21094 26.3609 8.32344 26.0984 8.54844 25.8734L16.4234 17.9984L8.54844 10.1234C8.32344 9.89844 8.21094 9.63594 8.21094 9.33594C8.21094 9.03594 8.32344 8.77344 8.54844 8.54844C8.77344 8.32344 9.03594 8.21094 9.33594 8.21094C9.63594 8.21094 9.89844 8.32344 10.1234 8.54844L17.9984 16.4234L25.8734 8.54844C26.0984 8.32344 26.3609 8.21094 26.6609 8.21094C26.9609 8.21094 27.2234 8.32344 27.4484 8.54844C27.6734 8.77344 27.7859 9.03594 27.7859 9.33594C27.7859 9.63594 27.6734 9.89844 27.4484 10.1234L19.5734 17.9984L27.4484 25.8734C27.6734 26.0984 27.7859 26.3609 27.7859 26.6609C27.7859 26.9609 27.6734 27.2234 27.4484 27.4484C27.2234 27.6734 26.9609 27.7859 26.6609 27.7859C26.3609 27.7859 26.0984 27.6734 25.8734 27.4484L17.9984 19.5734Z" fill="currentColor"/>
</svg>
