<svg id="delete" width="40" height="40" viewBox="0 0 40 40" fill="none" xmlns="http://www.w3.org/2000/svg">
<rect width="40" height="40" rx="10" fill="#F6F6F6"/>
<path d="M13.9149 30C13.4705 30 13.0816 29.8333 12.7483 29.5C12.4149 29.1667 12.2483 28.7778 12.2483 28.3333V12.5H11.9427C11.7066 12.5 11.5087 12.4197 11.349 12.259C11.1892 12.0984 11.1094 11.8993 11.1094 11.6618C11.1094 11.4243 11.1892 11.2269 11.349 11.0694C11.5087 10.912 11.7066 10.8333 11.9427 10.8333H16.3316C16.3316 10.5926 16.4115 10.3935 16.5712 10.2361C16.7309 10.0787 16.9288 10 17.1649 10H22.8316C23.0677 10 23.2656 10.0799 23.4253 10.2396C23.5851 10.3993 23.6649 10.5972 23.6649 10.8333H28.0538C28.2899 10.8333 28.4878 10.9137 28.6476 11.0743C28.8073 11.235 28.8872 11.434 28.8872 11.6715C28.8872 11.909 28.8073 12.1065 28.6476 12.2639C28.4878 12.4213 28.2899 12.5 28.0538 12.5H27.7483V28.3333C27.7483 28.7778 27.5816 29.1667 27.2483 29.5C26.9149 29.8333 26.526 30 26.0816 30H13.9149ZM13.9149 12.5V28.3333H26.0816V12.5H13.9149ZM16.8594 25.1111C16.8594 25.3472 16.9397 25.5451 17.1003 25.7049C17.261 25.8646 17.4601 25.9444 17.6976 25.9444C17.9351 25.9444 18.1325 25.8646 18.2899 25.7049C18.4473 25.5451 18.526 25.3472 18.526 25.1111V15.6944C18.526 15.4583 18.4457 15.2604 18.2851 15.1007C18.1244 14.941 17.9253 14.8611 17.6878 14.8611C17.4503 14.8611 17.2529 14.941 17.0955 15.1007C16.9381 15.2604 16.8594 15.4583 16.8594 15.6944V25.1111ZM21.4705 25.1111C21.4705 25.3472 21.5508 25.5451 21.7115 25.7049C21.8721 25.8646 22.0712 25.9444 22.3087 25.9444C22.5462 25.9444 22.7436 25.8646 22.901 25.7049C23.0584 25.5451 23.1372 25.3472 23.1372 25.1111V15.6944C23.1372 15.4583 23.0568 15.2604 22.8962 15.1007C22.7355 14.941 22.5364 14.8611 22.299 14.8611C22.0615 14.8611 21.864 14.941 21.7066 15.1007C21.5492 15.2604 21.4705 15.4583 21.4705 15.6944V25.1111Z" fill="#5F596B"/>
</svg>
