<svg id="device" width="40" height="40" viewBox="0 0 40 40" fill="none" xmlns="http://www.w3.org/2000/svg">
<rect width="40" height="40" rx="10" fill="#F6F6F6"/>
<path d="M11.2717 26.3911V12.7799C11.2717 12.3355 11.4384 11.9466 11.7717 11.6133C12.105 11.2799 12.4939 11.1133 12.9384 11.1133H29.3273C29.5634 11.1133 29.7613 11.1936 29.921 11.3543C30.0807 11.5149 30.1606 11.714 30.1606 11.9515C30.1606 12.189 30.0807 12.3864 29.921 12.5438C29.7613 12.7012 29.5634 12.7799 29.3273 12.7799H12.9384V26.3911H18.1884C18.5356 26.3911 18.8307 26.5131 19.0738 26.7571C19.3168 27.0011 19.4384 27.2974 19.4384 27.646C19.4384 27.9945 19.3168 28.2892 19.0738 28.5299C18.8307 28.7707 18.5356 28.8911 18.1884 28.8911H10.1328C9.78559 28.8911 9.49045 28.7691 9.2474 28.5251C9.00434 28.281 8.88281 27.9847 8.88281 27.6362C8.88281 27.2876 9.00434 26.9929 9.2474 26.7522C9.49045 26.5114 9.78559 26.3911 10.1328 26.3911H11.2717ZM22.1884 28.8911C21.8921 28.8911 21.6374 28.7799 21.4245 28.5577C21.2115 28.3355 21.105 28.0392 21.105 27.6688V15.5299C21.105 15.2337 21.2115 14.979 21.4245 14.7661C21.6374 14.5531 21.8921 14.4466 22.1884 14.4466H29.7439C30.1143 14.4466 30.4337 14.5531 30.7023 14.7661C30.9708 14.979 31.105 15.2337 31.105 15.5299V27.6688C31.105 28.0392 30.9708 28.3355 30.7023 28.5577C30.4337 28.7799 30.1143 28.8911 29.7439 28.8911H22.1884ZM22.7717 26.3911H29.4384V16.1133H22.7717V26.3911Z" fill="#5F6368"/>
</svg>
