<svg width="50" height="50" viewBox="0 0 50 50" fill="none" xmlns="http://www.w3.org/2000/svg">
<g id="Iconsax/Bold/discountshape">
<path id="Vector" d="M44.8519 22.6436L41.6852 19.4769C41.1436 18.9352 40.7061 17.8727 40.7061 17.1227V12.6227C40.7061 10.7894 39.2061 9.28939 37.3727 9.28939H32.8936C32.1436 9.28939 31.0811 8.85189 30.5394 8.31022L27.3727 5.14355C26.0811 3.85189 23.9561 3.85189 22.6644 5.14355L19.4561 8.31022C18.9352 8.85189 17.8727 9.28939 17.1019 9.28939H12.6227C10.7894 9.28939 9.28939 10.7894 9.28939 12.6227V17.1019C9.28939 17.8519 8.85189 18.9144 8.31022 19.4561L5.14355 22.6227C3.85189 23.9144 3.85189 26.0394 5.14355 27.3311L8.31022 30.4977C8.85189 31.0394 9.28939 32.1019 9.28939 32.8519V37.3311C9.28939 39.1644 10.7894 40.6644 12.6227 40.6644H17.1019C17.8519 40.6644 18.9144 41.1019 19.4561 41.6436L22.6227 44.8102C23.9144 46.1019 26.0394 46.1019 27.3311 44.8102L30.4977 41.6436C31.0394 41.1019 32.1019 40.6644 32.8519 40.6644H37.3311C39.1644 40.6644 40.6644 39.1644 40.6644 37.3311V32.8519C40.6644 32.1019 41.1019 31.0394 41.6436 30.4977L44.8102 27.3311C46.1644 26.0602 46.1644 23.9352 44.8519 22.6436ZM16.6644 18.7477C16.6644 17.6019 17.6019 16.6644 18.7477 16.6644C19.8936 16.6644 20.8311 17.6019 20.8311 18.7477C20.8311 19.8936 19.9144 20.8311 18.7477 20.8311C17.6019 20.8311 16.6644 19.8936 16.6644 18.7477ZM19.8519 32.3519C19.5394 32.6644 19.1436 32.8102 18.7477 32.8102C18.3519 32.8102 17.9561 32.6644 17.6436 32.3519C17.353 32.0579 17.19 31.6611 17.19 31.2477C17.19 30.8343 17.353 30.4376 17.6436 30.1436L30.1436 17.6436C30.7477 17.0394 31.7477 17.0394 32.3519 17.6436C32.9561 18.2477 32.9561 19.2477 32.3519 19.8519L19.8519 32.3519ZM31.2477 33.3311C30.0811 33.3311 29.1436 32.3936 29.1436 31.2477C29.1436 30.1019 30.0811 29.1644 31.2269 29.1644C32.3727 29.1644 33.3102 30.1019 33.3102 31.2477C33.3102 32.3936 32.3936 33.3311 31.2477 33.3311Z" fill="url(#paint0_linear_237_2231)"/>
</g>
<defs>
<linearGradient id="paint0_linear_237_2231" x1="25.003" y1="4.1748" x2="25.003" y2="45.779" gradientUnits="userSpaceOnUse">
<stop stop-color="#D33AFF"/>
<stop offset="1" stop-color="#FF71A4"/>
</linearGradient>
</defs>
</svg>
