<svg width="50" height="50" viewBox="0 0 50 50" fill="none" xmlns="http://www.w3.org/2000/svg">
<g id="Iconsax/Bold/dollarcircle">
<path id="Vector" d="M26.5625 33.167H27.9167C29.2708 33.167 30.3958 31.9587 30.3958 30.5003C30.3958 28.6878 29.75 28.3337 28.6875 27.9587L26.5833 27.2295V33.167H26.5625Z" fill="url(#paint0_linear_237_2255)"/>
<path id="Vector_2" d="M24.938 3.95414C13.438 3.9958 4.12546 13.35 4.16713 24.85C4.2088 36.35 13.563 45.6625 25.063 45.6208C36.563 45.5791 45.8755 36.225 45.8338 24.725C45.7921 13.225 36.438 3.9333 24.938 3.95414ZM29.7088 24.9958C31.3338 25.5583 33.5213 26.7666 33.5213 30.4958C33.5213 33.7041 31.0005 36.2875 27.9171 36.2875H26.563V37.4958C26.563 38.35 25.8546 39.0583 25.0005 39.0583C24.1463 39.0583 23.438 38.35 23.438 37.4958V36.2875H22.688C19.2713 36.2875 16.5005 33.4125 16.5005 29.8708C16.5005 29.0166 17.2088 28.3083 18.063 28.3083C18.9171 28.3083 19.6255 29.0166 19.6255 29.8708C19.6255 31.6833 21.0005 33.1625 22.688 33.1625H23.438V26.1208L20.2921 24.9958C18.6671 24.4333 16.4796 23.225 16.4796 19.4958C16.4796 16.2875 19.0005 13.7041 22.0838 13.7041H23.438V12.4958C23.438 11.6416 24.1463 10.9333 25.0005 10.9333C25.8546 10.9333 26.563 11.6416 26.563 12.4958V13.7041H27.313C30.7296 13.7041 33.5005 16.5791 33.5005 20.1208C33.5005 20.975 32.7921 21.6833 31.938 21.6833C31.0838 21.6833 30.3755 20.975 30.3755 20.1208C30.3755 18.3083 29.0005 16.8291 27.313 16.8291H26.563V23.8708L29.7088 24.9958Z" fill="url(#paint1_linear_237_2255)"/>
<path id="Vector_3" d="M19.6289 19.5166C19.6289 21.3291 20.2747 21.6833 21.3372 22.0583L23.4414 22.7874V16.8291H22.0872C20.7331 16.8291 19.6289 18.0374 19.6289 19.5166Z" fill="url(#paint2_linear_237_2255)"/>
</g>
<defs>
<linearGradient id="paint0_linear_237_2255" x1="28.4792" y1="27.2295" x2="28.4792" y2="33.167" gradientUnits="userSpaceOnUse">
<stop stop-color="#D33AFF"/>
<stop offset="1" stop-color="#FF71A4"/>
</linearGradient>
<linearGradient id="paint1_linear_237_2255" x1="25.0005" y1="3.9541" x2="25.0005" y2="45.6209" gradientUnits="userSpaceOnUse">
<stop stop-color="#D33AFF"/>
<stop offset="1" stop-color="#FF71A4"/>
</linearGradient>
<linearGradient id="paint2_linear_237_2255" x1="21.5352" y1="16.8291" x2="21.5352" y2="22.7874" gradientUnits="userSpaceOnUse">
<stop stop-color="#D33AFF"/>
<stop offset="1" stop-color="#FF71A4"/>
</linearGradient>
</defs>
</svg>
