<svg width="50" height="50" viewBox="0 0 50 50" fill="none" xmlns="http://www.w3.org/2000/svg">
<g id="Iconsax/Bold/favoritechart">
<path id="Vector" d="M39.8335 31.127L40.5001 32.4811C40.8335 33.1478 41.6876 33.7728 42.396 33.8978L43.2918 34.0436C46.021 34.502 46.646 36.502 44.7085 38.4603L43.8751 39.2936C43.3126 39.8561 43.021 40.9395 43.1876 41.7311L43.2918 42.2311C44.0418 45.5228 42.2918 46.7936 39.4376 45.0645L38.8335 44.6895C38.1043 44.252 36.896 44.252 36.1668 44.6895L35.5626 45.0645C32.6876 46.7936 30.9585 45.5228 31.7085 42.2311L31.8126 41.7311C31.9793 40.9603 31.6876 39.8561 31.1251 39.2936L30.2918 38.4603C28.3543 36.4811 28.9793 34.502 31.7085 34.0436L32.6043 33.8978C33.3335 33.7728 34.1668 33.1478 34.5001 32.4811L35.1668 31.127C36.4585 28.5228 38.5418 28.5228 39.8335 31.127Z" fill="url(#paint0_linear_237_2250)"/>
<path id="Vector_2" d="M33.7295 4.1665H16.2712C8.68783 4.1665 4.16699 8.68734 4.16699 16.2707V33.729C4.16699 41.3123 8.68783 45.8332 16.2712 45.8332H27.2712C28.0003 45.8332 28.5212 45.0832 28.4378 44.354C28.3545 43.5623 28.3962 42.6248 28.6462 41.5415C28.6878 41.3957 28.6462 41.229 28.5212 41.104L28.0628 40.6457C26.292 38.854 25.6462 36.6873 26.2712 34.7082C26.917 32.7498 28.7087 31.3748 31.1878 30.9582L31.8128 30.854L32.3753 29.729C33.5212 27.3957 35.3962 26.0415 37.5003 26.0415C39.6045 26.0415 41.4795 27.3957 42.6253 29.729L42.9378 30.3748C43.0837 30.6873 43.3753 30.8957 43.7087 30.9582L44.2712 31.0832C45.0003 31.2707 45.8337 30.6873 45.8337 29.9165V16.2707C45.8337 8.68734 41.3128 4.1665 33.7295 4.1665ZM33.8753 18.6665L29.0628 24.8748C28.4587 25.6457 27.6045 26.1457 26.6253 26.2498C25.667 26.3748 24.6878 26.104 23.9378 25.4998L20.1253 22.5415C20.0719 22.4947 20.0084 22.4609 19.9397 22.4428C19.871 22.4247 19.799 22.4228 19.7295 22.4373C19.6462 22.4373 19.5003 22.479 19.3753 22.6457L14.417 29.0832C14.1591 29.4106 13.7823 29.6228 13.3686 29.6735C12.955 29.7243 12.538 29.6094 12.2087 29.354C12.0459 29.2295 11.9092 29.0742 11.8064 28.8969C11.7037 28.7196 11.6368 28.5238 11.6098 28.3207C11.5827 28.1175 11.5959 27.9111 11.6486 27.713C11.7013 27.515 11.7925 27.3293 11.917 27.1665L16.8753 20.729C17.4795 19.9582 18.3337 19.4582 19.3128 19.3332C20.292 19.2082 21.2503 19.479 22.0212 20.0832L25.8337 23.0832C25.9795 23.2082 26.1253 23.1873 26.2295 23.1873C26.3128 23.1873 26.4587 23.1457 26.5837 22.979L31.3962 16.7707C31.917 16.0832 32.8962 15.9582 33.5837 16.4998C34.292 17.0207 34.3962 17.9998 33.8753 18.6665Z" fill="url(#paint1_linear_237_2250)"/>
</g>
<defs>
<linearGradient id="paint0_linear_237_2250" x1="37.5001" y1="29.1738" x2="37.5001" y2="45.8372" gradientUnits="userSpaceOnUse">
<stop stop-color="#D33AFF"/>
<stop offset="1" stop-color="#FF71A4"/>
</linearGradient>
<linearGradient id="paint1_linear_237_2250" x1="25.0003" y1="4.1665" x2="25.0003" y2="45.8332" gradientUnits="userSpaceOnUse">
<stop stop-color="#D33AFF"/>
<stop offset="1" stop-color="#FF71A4"/>
</linearGradient>
</defs>
</svg>
