<svg width="50" height="50" viewBox="0 0 50 50" fill="none" xmlns="http://www.w3.org/2000/svg">
<g id="Iconsax/Bold/hashtagup">
<path id="Vector" d="M20.9922 24.6497H24.4297L24.8255 21.1914H21.388L20.9922 24.6497Z" fill="url(#paint0_linear_221_7301)"/>
<path id="Vector_2" d="M45.7682 15.0212C45.3516 8.60449 41.3932 4.64616 34.9766 4.22949C34.5599 4.18783 34.1432 4.16699 33.7266 4.16699H16.2682C15.8516 4.16699 15.4349 4.18783 15.0182 4.22949C8.60156 4.64616 4.64323 8.60449 4.22656 15.0212C4.1849 15.4378 4.16406 15.8545 4.16406 16.2712V33.7295C4.16406 34.1462 4.1849 34.5628 4.22656 34.9795C4.64323 41.3962 8.60156 45.3545 15.0182 45.7712C15.4349 45.8128 15.8516 45.8337 16.2682 45.8337H28.1224C29.2682 45.8337 30.2057 44.8962 30.2057 43.7503V37.5628C30.2057 35.6124 30.9805 33.7418 32.3597 32.3626C33.7389 30.9835 35.6094 30.2087 37.5599 30.2087H43.7474C44.8932 30.2087 45.8307 29.2712 45.8307 28.1253V16.2712C45.8307 15.8545 45.8099 15.4378 45.7682 15.0212ZM33.3307 21.1878H27.9766L27.5807 24.6462H32.2266C32.641 24.6462 33.0384 24.8108 33.3314 25.1038C33.6244 25.3968 33.7891 25.7943 33.7891 26.2087C33.7891 26.6231 33.6244 27.0205 33.3314 27.3135C33.0384 27.6065 32.641 27.7712 32.2266 27.7712H27.2474L26.6641 32.9587C26.5807 33.7503 25.8932 34.3545 25.1016 34.3545C25.0599 34.3545 24.9974 34.3545 24.9349 34.3337C24.73 34.3131 24.5313 34.2516 24.3506 34.153C24.1698 34.0543 24.0106 33.9204 23.8825 33.7593C23.7543 33.5981 23.6597 33.4128 23.6043 33.2145C23.5489 33.0162 23.5338 32.8088 23.5599 32.6045L24.1016 27.7712H20.6641L20.0807 32.9587C19.9974 33.7503 19.3099 34.3545 18.5391 34.3545C18.4766 34.3545 18.4141 34.3545 18.3516 34.3337C18.1467 34.3131 17.948 34.2516 17.7672 34.153C17.5865 34.0543 17.4273 33.9204 17.2991 33.7593C17.171 33.5981 17.0764 33.4128 17.021 33.2145C16.9656 33.0162 16.9505 32.8088 16.9766 32.6045L17.5182 27.7712H12.4974C11.6432 27.7712 10.9349 27.0628 10.9349 26.2087C10.9349 25.3545 11.6432 24.6462 12.4974 24.6462H17.8516L18.2474 21.1878H13.6016C13.1872 21.1878 12.7897 21.0232 12.4967 20.7302C12.2037 20.4372 12.0391 20.0397 12.0391 19.6253C12.0391 19.2109 12.2037 18.8135 12.4967 18.5205C12.7897 18.2274 13.1872 18.0628 13.6016 18.0628H18.5807L19.1641 12.8753C19.2682 12.0212 20.0391 11.3962 20.8932 11.5003C21.7474 11.5837 22.3724 12.3545 22.2682 13.2295L21.7266 18.0628H25.1641L25.7474 12.8753C25.8516 12.0212 26.6224 11.3962 27.4766 11.5003C28.3307 11.5837 28.9557 12.3545 28.8516 13.2295L28.3099 18.0628H33.3307C34.1849 18.0628 34.8932 18.7712 34.8932 19.6253C34.8932 20.4795 34.1849 21.1878 33.3307 21.1878Z" fill="url(#paint1_linear_221_7301)"/>
<path id="Vector_3" d="M43.6901 33.333H37.5651C34.9193 33.333 33.3359 34.9163 33.3359 37.5622V43.6872C33.3359 46.333 34.9193 47.9163 37.5651 47.9163H43.6901C46.3359 47.9163 47.9193 46.333 47.9193 43.6872V37.5622C47.9193 34.9163 46.3359 33.333 43.6901 33.333ZM44.1484 40.2288C44.0278 40.3486 43.8848 40.4433 43.7275 40.5077C43.5702 40.572 43.4017 40.6047 43.2318 40.6038C43.0618 40.6047 42.8934 40.572 42.7361 40.5077C42.5788 40.4433 42.4357 40.3486 42.3151 40.2288L41.9401 39.8538V44.5205C41.9401 45.2497 41.3568 45.833 40.6276 45.833C39.8984 45.833 39.3151 45.2497 39.3151 44.5205V39.8538L38.9401 40.2288C38.4401 40.7288 37.6068 40.7288 37.1068 40.2288C36.8665 39.9842 36.732 39.655 36.732 39.3122C36.732 38.9693 36.8665 38.6401 37.1068 38.3955L39.7109 35.7913C39.8151 35.6872 39.9609 35.6038 40.1068 35.5413C40.1484 35.5205 40.1901 35.5205 40.2318 35.4997C40.3359 35.458 40.4401 35.4372 40.5651 35.4372H40.6901C40.8359 35.4372 40.9609 35.458 41.1068 35.5205H41.1484C41.2943 35.583 41.4193 35.6663 41.5234 35.7705C41.5443 35.7913 41.5443 35.7913 41.5651 35.7913L44.1693 38.3955C44.6693 38.8955 44.6693 39.7288 44.1484 40.2288Z" fill="url(#paint2_linear_221_7301)"/>
</g>
<defs>
<linearGradient id="paint0_linear_221_7301" x1="20.9922" y1="21.1914" x2="25.2092" y2="21.7492" gradientUnits="userSpaceOnUse">
<stop stop-color="#D33AFF"/>
<stop offset="1" stop-color="#FF71A4"/>
</linearGradient>
<linearGradient id="paint1_linear_221_7301" x1="4.16406" y1="4.16699" x2="50.1483" y2="9.6547" gradientUnits="userSpaceOnUse">
<stop stop-color="#D33AFF"/>
<stop offset="1" stop-color="#FF71A4"/>
</linearGradient>
<linearGradient id="paint2_linear_221_7301" x1="33.3359" y1="33.333" x2="49.4304" y2="35.2537" gradientUnits="userSpaceOnUse">
<stop stop-color="#D33AFF"/>
<stop offset="1" stop-color="#FF71A4"/>
</linearGradient>
</defs>
</svg>
