<svg id="link" width="40" height="40" viewBox="0 0 40 40" fill="none" xmlns="http://www.w3.org/2000/svg">
<rect width="40" height="40" rx="10" fill="#F6F6F6"/>
<path d="M22.8199 20.0888L21.4037 18.6727H22.8199C23.0186 18.6727 23.1925 18.7389 23.3416 18.8714C23.4907 19.0039 23.5652 19.1695 23.5652 19.3683C23.5652 19.567 23.4907 19.7368 23.3416 19.8776C23.1925 20.0184 23.0186 20.0888 22.8199 20.0888ZM26.7702 24.039L25.5528 22.8216C26.4141 22.656 27.1222 22.2585 27.677 21.6291C28.2319 20.9997 28.5093 20.2627 28.5093 19.418C28.5093 18.4242 28.1781 17.5961 27.5155 16.9336C26.853 16.271 26.0248 15.9398 25.0311 15.9398H21.9255C21.7101 15.9398 21.5321 15.8694 21.3913 15.7286C21.2505 15.5878 21.1801 15.4098 21.1801 15.1945C21.1801 14.9791 21.2505 14.8011 21.3913 14.6603C21.5321 14.5195 21.7101 14.4491 21.9255 14.4491H25.0311C26.4389 14.4491 27.619 14.9253 28.5714 15.8777C29.5238 16.83 30 18.0101 30 19.418C30 20.4946 29.6894 21.4386 29.0683 22.2502C28.4472 23.0618 27.6812 23.6581 26.7702 24.039ZM27.8385 29.3308L10.2236 11.7411C10.0745 11.5921 10 11.414 10 11.207C10 10.9999 10.0745 10.8219 10.2236 10.6728C10.3727 10.5238 10.5507 10.4492 10.7578 10.4492C10.9648 10.4492 11.1429 10.5238 11.2919 10.6728L28.9068 28.2874C29.0559 28.4364 29.1304 28.6103 29.1304 28.8091C29.1304 29.0078 29.0559 29.1818 28.9068 29.3308C28.7578 29.4799 28.5797 29.5544 28.3727 29.5544C28.1656 29.5544 27.9876 29.4799 27.8385 29.3308ZM18.5714 24.3123H15.0932C13.6853 24.3123 12.5052 23.8361 11.5528 22.8837C10.6004 21.9314 10.1242 20.7513 10.1242 19.3434C10.1242 18.1178 10.4928 17.0578 11.2298 16.1634C11.9669 15.269 12.9068 14.7059 14.0497 14.474L15.441 15.8653H15.0932C14.0994 15.8653 13.2712 16.1965 12.6087 16.859C11.9462 17.5215 11.6149 18.3497 11.6149 19.3434C11.6149 20.3372 11.9462 21.1654 12.6087 21.8279C13.2712 22.4904 14.0994 22.8216 15.0932 22.8216H18.5714C18.7867 22.8216 18.9648 22.892 19.1056 23.0328C19.2464 23.1736 19.3168 23.3516 19.3168 23.567C19.3168 23.7823 19.2464 23.9603 19.1056 24.1011C18.9648 24.2419 18.7867 24.3123 18.5714 24.3123ZM19.6646 20.0888H17.3043C17.089 20.0888 16.911 20.0184 16.7702 19.8776C16.6294 19.7368 16.559 19.5588 16.559 19.3434C16.559 19.1281 16.6294 18.9501 16.7702 18.8093C16.911 18.6685 17.089 18.5981 17.3043 18.5981H18.1739L19.6646 20.0888Z" fill="#5F6368"/>
</svg>
