<svg width="40" id="log" height="40" viewBox="0 0 40 40" fill="none" xmlns="http://www.w3.org/2000/svg">
<rect width="40" height="40" rx="10" fill="#F6F6F6"/>
<path d="M15.975 25.75H24.025V24.25H15.975V25.75ZM15.975 21.5H24.025V20H15.975V21.5ZM13.5 30C13.1 30 12.75 29.85 12.45 29.55C12.15 29.25 12 28.9 12 28.5V11.5C12 11.1 12.15 10.75 12.45 10.45C12.75 10.15 13.1 10 13.5 10H22.525L28 15.475V28.5C28 28.9 27.85 29.25 27.55 29.55C27.25 29.85 26.9 30 26.5 30H13.5ZM21.775 16.15V11.5H13.5V28.5H26.5V16.15H21.775Z" fill="#5F596B"/>
</svg>
