<svg width="160" height="70" viewBox="0 0 160 70" fill="none" xmlns="http://www.w3.org/2000/svg">
<g clip-path="url(#clip0_331_22879)">
<path d="M7.30445 37.7425C7.10201 37.7564 6.99109 37.7924 6.8968 37.7675C5.41316 37.404 4.60063 36.4941 4.38987 35.0626C4.22071 33.9197 4.38987 32.8156 4.8724 31.7586C5.36047 30.6933 6.07872 29.7945 6.93008 29.0066C8.35548 27.6861 9.95837 26.6291 11.7138 25.7969C14.6783 24.3932 17.8175 23.6275 21.0649 23.2807C22.4653 23.1309 23.8768 23.0394 25.2856 23.0172C26.3616 23.0005 27.4431 23.1281 28.5191 23.203C28.9628 23.2336 29.4065 23.2974 29.8502 23.3556C31.2368 23.5332 32.5624 23.9188 33.8325 24.5014C34.5646 24.837 35.2385 25.2615 35.8319 25.8052C36.8857 26.7679 37.493 27.9386 37.5568 29.3867C37.5984 30.3382 37.518 31.2676 37.224 32.1719C36.8635 33.2844 36.1536 34.1499 35.2579 34.8684C34.3316 35.6119 33.2889 36.1418 32.163 36.5218C30.8874 36.9518 29.5812 37.2209 28.2446 37.368C27.9672 37.3985 27.6955 37.4456 27.4126 37.5289C28.1003 37.8091 28.8075 38.0144 29.4259 38.4194C30.0832 38.8494 30.6544 39.3681 31.1092 40.009C31.5474 40.6276 31.8718 41.3045 32.0604 42.0425C32.249 42.7776 32.2989 43.5239 32.2213 44.3145C32.4154 44.1758 32.4182 43.9955 32.4625 43.829C33.2806 40.8079 35.1553 38.7162 38.0421 37.5289C38.3444 37.404 38.6633 37.3125 38.9822 37.2293C39.2207 37.1682 39.3289 37.0295 39.3815 36.7993C39.5147 36.2278 39.6616 35.6563 39.8031 35.0876C39.8308 34.9739 39.8558 34.8573 39.8918 34.7464C40 34.4107 40.2385 34.2526 40.5851 34.2581C41.3366 34.2748 42.0881 34.2997 42.8397 34.3247C43.0005 34.3303 43.1614 34.3497 43.3416 34.3635C43.3998 34.2165 43.4581 34.0917 43.4997 33.9585C44.4148 31.0401 46.0787 28.6432 48.508 26.79C49.5646 25.9855 50.7404 25.4057 51.9911 24.9619C53.5413 24.4098 55.1386 24.2101 56.772 24.2073C58.2418 24.2073 59.6755 24.4292 61.0787 24.862C63.6106 25.6443 66.1286 25.5528 68.6439 24.7788C70.6932 24.149 72.5235 23.1087 74.2346 21.8381C74.3233 21.7716 74.3982 21.6856 74.523 21.569C74.3288 21.4192 74.1736 21.2833 74.0016 21.1723C73.2695 20.6869 72.4487 20.3956 71.6195 20.1293C70.6295 19.8102 69.6228 19.6271 68.5773 19.6077C66.2035 19.5633 63.8325 19.4745 61.4614 19.3969C60.5463 19.3664 59.6311 19.3247 58.7132 19.2831C58.655 19.2831 58.594 19.2526 58.5357 19.1694C59.0931 19.1333 59.6505 19.0806 60.2107 19.0667C63.1253 18.9891 66.0399 18.9225 68.9573 18.842C69.2124 18.8365 69.4703 18.7838 69.7226 18.7311C71.0371 18.4564 72.3266 18.1041 73.533 17.4938C73.9767 17.2691 74.3677 16.9778 74.7864 16.6282C74.6894 16.4868 74.6173 16.3453 74.5147 16.2343C73.5829 15.2384 72.6428 14.248 71.7082 13.2548C71.5196 13.0523 71.3366 12.8443 71.1564 12.6418C71.2007 12.5946 71.2146 12.5696 71.234 12.5641C71.2534 12.5585 71.2812 12.5669 71.2978 12.5779C71.3366 12.6029 71.3782 12.6279 71.4115 12.6584C72.6511 13.8125 73.8879 14.9665 75.1275 16.1206C75.1414 16.1344 75.1691 16.1344 75.2357 16.1539C75.3133 16.0734 75.4187 15.9819 75.5019 15.8764C76.2007 14.9943 76.6001 13.9623 76.919 12.9025C77.1159 12.2506 77.2628 11.5848 77.4181 10.919C77.4653 10.7165 77.4681 10.5001 77.4764 10.2893C77.5513 8.00889 77.6234 5.72851 77.6899 3.45092C77.7121 2.65195 77.7149 1.85022 77.7371 1.05126C77.7482 0.701711 77.7842 0.34939 77.884 -0.00292969C77.9229 0.685066 77.9783 1.37306 78.0005 2.06383C78.0421 3.37879 78.0199 4.6993 78.1031 6.01148C78.1808 7.23212 78.1558 8.45553 78.1974 9.67616C78.2529 11.3157 78.6494 12.8831 79.2956 14.3867C79.5729 15.0331 79.914 15.6434 80.4464 16.1844C81.1564 15.6046 81.7664 14.9554 82.4209 14.359C83.0781 13.7597 83.7215 13.1439 84.3788 12.528C84.5257 12.6972 84.3788 12.761 84.3205 12.8249C83.4719 13.7376 82.615 14.6419 81.7692 15.5574C81.4697 15.882 81.1258 16.1705 80.8679 16.5755C81.209 16.9611 81.6278 17.2191 82.0576 17.4522C83.0587 17.9959 84.1458 18.3011 85.2384 18.584C85.9234 18.7616 86.6167 18.842 87.3266 18.8531C89.1846 18.8836 91.0399 18.953 92.8979 19.0057C94.1209 19.0418 95.3438 19.0695 96.564 19.1084C96.7942 19.1167 97.0244 19.1472 97.2573 19.2471C97.0854 19.2637 96.9162 19.2915 96.7443 19.297C94.4425 19.3802 92.1408 19.4607 89.8391 19.5356C89.3455 19.5522 88.8519 19.5439 88.3582 19.5578C87.7232 19.5744 87.0909 19.5883 86.4559 19.6216C85.6045 19.666 84.7864 19.8851 83.9794 20.1487C83.1974 20.4039 82.4209 20.6758 81.7249 21.1307C81.4309 21.3221 81.1258 21.4997 80.8679 21.8021C80.9678 21.9325 81.051 22.0712 81.1591 22.1849C82.0909 23.1808 83.0282 24.1712 83.9628 25.1672C84.1181 25.3308 84.2872 25.4862 84.3788 25.697C84.3316 25.7275 84.315 25.7497 84.2956 25.7497C84.2734 25.7497 84.2484 25.7414 84.229 25.7275C84.1569 25.6693 84.0848 25.6082 84.0155 25.5444C82.8646 24.4681 81.7138 23.3917 80.5629 22.3153C80.5463 22.2987 80.5213 22.2931 80.4603 22.2598C80.3716 22.3319 80.2412 22.3985 80.1719 22.5039C79.8807 22.9589 79.5757 23.4083 79.3399 23.8938C78.863 24.8703 78.5551 25.9134 78.3582 26.9787C78.2307 27.6667 78.2251 28.3796 78.1946 29.0843C78.1669 29.7196 78.1919 30.3549 78.1697 30.9901C78.1003 33.0319 78.0227 35.0765 77.9478 37.1183C77.9312 37.5594 77.909 38.0005 77.7897 38.4444C77.762 37.7896 77.7287 37.1322 77.7093 36.4775C77.665 34.7602 77.6345 33.043 77.5873 31.3286C77.5568 30.2245 77.5097 29.1204 77.4708 28.0162C77.4653 27.8997 77.4653 27.7804 77.4403 27.6667C77.1658 26.4516 76.9079 25.2282 76.3865 24.088C76.173 23.6192 75.904 23.1753 75.6433 22.7287C75.5518 22.5705 75.4104 22.4429 75.2634 22.2681C73.8713 23.3501 72.676 24.6095 71.3782 25.7775C71.2673 25.55 71.4337 25.4834 71.5085 25.3863C71.5917 25.2753 71.6971 25.1782 71.7942 25.0756C71.8746 24.9896 71.9578 24.9064 72.0355 24.8176C72.1214 24.7177 72.1963 24.6095 72.285 24.493C72.1159 24.4098 72.0216 24.5097 71.9273 24.5541C69.8363 25.525 67.6317 25.8912 65.3411 25.8108C64.021 25.7636 62.7204 25.5833 61.4392 25.2559C59.1403 24.6706 56.8219 24.6123 54.5285 25.2115C51.0011 26.1353 47.995 27.9358 45.66 30.7765C44.8336 31.7808 44.1902 32.9016 43.6439 34.0806C43.6078 34.161 43.6051 34.2553 43.5829 34.358C43.8824 34.5522 44.2096 34.6021 44.523 34.6881C45.3189 34.9101 46.0815 35.2097 46.8136 35.5953C46.9384 35.6618 47.0632 35.7257 47.1824 35.8033C47.4487 35.9753 47.5568 36.2195 47.4625 36.5302C47.3738 36.8215 47.2656 37.11 47.1852 37.404C47.066 37.8313 46.8635 38.2363 46.8053 38.7273C47.5707 39.3737 48.2972 40.07 48.8657 40.9134C49.4481 41.7817 49.8696 42.7166 50.1497 43.7236C50.4215 44.7001 50.4714 45.7044 50.4908 46.7003C50.7071 46.7391 50.7792 46.5949 50.8707 46.5005C51.6749 45.6738 52.4292 44.8028 53.1114 43.8706C54.3205 42.22 55.5158 40.5583 56.7193 38.9021C56.858 38.7134 56.9939 38.5192 57.1547 38.3473C57.5624 37.9089 58.0809 37.8118 58.6439 37.9173C59.0654 37.9949 59.3094 38.4138 59.1791 38.8272C59.1292 38.9825 59.0543 39.1323 58.9739 39.2766C58.4109 40.2809 57.8397 41.2823 57.2795 42.2894C56.4919 43.707 55.7071 45.1273 54.9279 46.5505C54.8086 46.7696 54.67 46.9944 54.645 47.2579C54.8114 47.3245 54.8724 47.2052 54.9389 47.1331C56.6639 45.3326 58.472 43.6154 60.3133 41.9343C61.4448 40.905 62.5984 39.9036 63.8408 39.0075C64.5285 38.5109 65.2274 38.0393 66.0399 37.7564C66.5696 37.5733 67.0576 37.6398 67.5208 37.9394C67.6178 38.0033 67.7093 38.0809 67.7842 38.1725C67.9922 38.4277 68.0726 38.7023 67.9035 39.0186C67.6788 39.432 67.4708 39.8536 67.2462 40.267C66.5474 41.5459 65.8402 42.822 65.1469 44.1037C64.9944 44.3866 64.8086 44.6613 64.7504 45.0025C64.9778 45.0691 65.0665 44.8943 65.1774 44.8C66.4559 43.7264 67.726 42.6417 69.0044 41.5681C70.1774 40.5832 71.4309 39.7094 72.7703 38.9631C73.3056 38.6635 73.8713 38.4305 74.4675 38.2834C75.0166 38.1503 75.5435 38.1947 76.0149 38.5331C76.1286 38.6136 76.234 38.7107 76.32 38.8216C76.5196 39.0713 76.5335 39.2627 76.3394 39.5263C75.8347 40.2059 75.3133 40.8745 74.8031 41.5514C73.9683 42.6611 73.1225 43.7597 72.3155 44.8888C71.7831 45.635 71.3255 46.4367 71.0066 47.2995C70.8513 47.7156 70.7321 48.1484 70.6211 48.5784C70.574 48.756 70.5685 48.9529 70.5879 49.1388C70.635 49.627 70.8846 49.9683 71.3643 50.1264C71.8025 50.2707 72.249 50.2873 72.6844 50.1541C73.0643 50.0376 73.4414 49.8934 73.7909 49.7075C75.1136 49.014 76.2423 48.0541 77.3266 47.036C77.4625 46.9084 77.5956 46.7724 77.7287 46.6393C78.5024 45.8764 79.2346 45.0857 79.6422 44.0537C81.5085 40.6665 83.6661 37.4762 86.1619 34.5161C86.8302 33.7227 87.5568 32.9848 88.3638 32.3356C88.9323 31.8779 89.5368 31.4729 90.2523 31.2648C90.8097 31.1011 91.3227 31.176 91.8053 31.4756C91.9245 31.5478 92.0354 31.6421 92.127 31.7447C92.3876 32.0499 92.3765 32.3107 92.0992 32.6103C91.0759 33.7144 90.0415 34.8074 89.0266 35.9198C87.3128 37.7952 85.6406 39.7066 84.0737 41.7096C83.117 42.933 82.224 44.2035 81.4559 45.5546C80.99 46.3729 80.5685 47.2135 80.3605 48.1429C80.2273 48.7365 80.2662 49.3052 80.5407 49.8601C80.7764 50.3345 81.1203 50.5675 81.6666 50.5203C82.3488 50.4621 82.9367 50.1763 83.4803 49.8018C84.792 48.8974 85.8624 47.7434 86.7748 46.4478C87.3017 45.6988 87.7897 44.922 88.1475 44.0676C88.325 43.6432 88.3971 43.2464 88.2834 42.7748C88.0532 41.8316 88.0171 40.8634 88.2196 39.9063C88.2834 39.6095 88.3693 39.3099 88.5024 39.0408C88.9351 38.178 89.7504 38.0809 90.4853 38.2557C90.6766 38.3001 90.8208 38.4416 90.8846 38.6274C90.9511 38.8244 91.0177 39.0325 91.0288 39.2405C91.0565 39.8037 91.0537 40.3696 90.9123 40.9217C90.7376 41.6041 90.5795 42.2921 90.391 42.9718C90.2773 43.3741 90.2939 43.7513 90.427 44.1453C90.6184 44.7057 90.8569 45.2411 91.2201 45.7099C91.833 46.5033 92.665 46.6698 93.5246 46.1538C93.7825 45.9984 94.0404 45.8126 94.2401 45.5878C95.782 43.8346 97.5207 42.2838 99.2151 40.6887C101.012 38.9964 102.815 37.3069 104.62 35.6202C104.928 35.3317 105.261 35.0682 105.582 34.7935C105.951 34.4801 106.364 34.4052 106.836 34.53C107.518 34.7075 107.826 35.2707 107.568 35.9365C107.501 36.1113 107.407 36.2777 107.302 36.4331C107.144 36.6661 106.974 36.8936 106.791 37.1072C106.292 37.687 105.946 38.3445 105.702 39.0658C105.33 40.1588 105.086 41.2851 104.859 42.4142C104.484 44.2812 104.11 46.1482 103.73 48.0153C103.666 48.3371 103.583 48.6533 103.497 49.0195C103.633 49.0306 103.741 49.0583 103.846 49.0472C105.538 48.8503 106.991 48.1318 108.267 47.0304C108.48 46.8473 108.697 46.6642 108.905 46.4728C109.678 45.7709 110.286 44.9526 110.799 44.0371C112.548 40.9189 114.429 37.8756 116.47 34.9406C117.249 33.8198 118.059 32.7185 118.999 31.7281C119.387 31.3203 119.814 30.9513 120.244 30.5851C120.419 30.4353 120.635 30.3216 120.849 30.23C121.118 30.1163 121.406 30.0691 121.633 30.3216C121.861 30.5768 122.019 30.8792 121.886 31.2232C121.766 31.5283 121.617 31.8279 121.434 32.097C120.732 33.129 120.039 34.1638 119.296 35.1653C117.865 37.0906 116.387 38.9798 114.958 40.9106C114.273 41.8372 113.661 42.8137 113.023 43.7735C112.845 44.0399 112.69 44.3256 112.59 44.6308C112.809 44.739 112.898 44.5975 112.998 44.5253C114.187 43.682 115.369 42.8275 116.561 41.987C118.062 40.93 119.553 39.8647 121.176 38.9964C121.65 38.7412 122.146 38.522 122.646 38.3167C123.037 38.1558 123.453 38.0615 123.885 38.092C124.728 38.1558 125.158 38.9326 124.734 39.6678C124.487 40.0922 124.185 40.4861 123.893 40.8856C122.817 42.3698 121.728 43.8457 120.66 45.3382C120.166 46.0289 119.75 46.7696 119.429 47.5547C119.251 47.9875 119.115 48.4425 119.015 48.9002C118.957 49.1693 118.966 49.4661 119.01 49.738C119.082 50.1791 119.387 50.3899 119.822 50.3123C120.119 50.2596 120.413 50.1597 120.696 50.0432C121.331 49.7796 121.886 49.3746 122.415 48.9446C122.998 48.4702 123.55 47.9542 124.113 47.4549C124.29 47.2967 124.431 47.122 124.52 46.8917C125.075 45.4686 125.951 44.2479 126.933 43.1022C127.901 41.9731 128.963 40.9439 130.15 40.0478C131.018 39.3931 131.941 38.8383 132.981 38.4998C133.613 38.2945 134.26 38.1836 134.925 38.2363C135.51 38.2834 136.015 38.4998 136.417 38.9409C136.717 39.2683 136.866 39.6511 136.866 40.095C136.866 40.5999 136.728 41.0659 136.509 41.5181C136.098 42.3643 135.469 43.0273 134.75 43.6043C133.272 44.7917 131.636 45.7127 129.861 46.3702C128.885 46.7336 127.873 46.9333 126.786 46.8251C126.692 46.9888 126.586 47.1414 126.514 47.3078C126.184 48.0569 126.073 48.842 126.156 49.652C126.27 50.7367 126.861 51.3027 127.937 51.3803C128.708 51.4386 129.429 51.2444 130.125 50.9365C131.098 50.5037 131.983 49.9239 132.815 49.2664C134.29 48.0985 135.721 46.8778 136.986 45.4741C137.352 45.0663 137.659 44.6335 137.909 44.1508C139.321 41.4099 140.882 38.7551 142.587 36.1834C143.575 34.6937 144.606 33.2317 145.837 31.9278C146.276 31.4645 146.741 31.0373 147.291 30.7072C148.206 30.1579 149.071 30.4131 149.595 31.434C149.479 31.6032 149.354 31.7947 149.215 31.9805C147.596 34.1777 145.965 36.3637 144.359 38.5692C142.959 40.4889 141.6 42.4364 140.335 44.4504C139.761 45.3687 139.199 46.2925 138.752 47.2801C138.469 47.9071 138.278 48.5562 138.222 49.2442C138.195 49.5771 138.225 49.9017 138.355 50.2124C138.502 50.5647 138.755 50.7783 139.143 50.8366C139.717 50.9254 140.269 50.8366 140.807 50.6452C141.7 50.3289 142.512 49.8573 143.286 49.3163C144.526 48.4508 145.616 47.4188 146.667 46.3369C147.565 45.4158 148.22 44.3533 148.819 43.2215C150.546 39.9535 152.443 36.7854 154.667 33.8281C155.23 33.0791 155.871 32.3828 156.495 31.6809C156.855 31.2731 157.291 30.9485 157.759 30.6711C158.636 30.1579 159.501 30.4325 160.003 31.4285C159.861 31.6338 159.712 31.8696 159.548 32.0943C157.426 34.9988 155.286 37.8951 153.181 40.8135C152.01 42.4336 150.91 44.1037 149.914 45.8403C149.623 46.348 149.368 46.8806 149.113 47.4105C148.855 47.9459 148.73 48.5201 148.644 49.1027C148.591 49.4578 148.616 49.8046 148.746 50.143C148.902 50.5536 149.176 50.795 149.626 50.8477C150.128 50.9059 150.61 50.8338 151.084 50.6868C151.808 50.4621 152.471 50.1042 153.109 49.702C154.634 48.7449 155.957 47.5464 157.169 46.2231C157.535 45.8237 157.887 45.4131 158.267 45.0275C158.411 44.8804 158.605 44.7833 158.785 44.6807C158.83 44.6557 158.943 44.6751 158.974 44.7168C159.027 44.7806 159.085 44.8999 159.06 44.9581C158.977 45.1495 158.874 45.3382 158.749 45.5046C157.953 46.5588 157.058 47.5242 156.112 48.4425C155.521 49.014 154.908 49.566 154.276 50.0931C153.644 50.6202 152.953 51.0779 152.199 51.4136C150.837 52.0212 149.473 52.0378 148.114 51.372C147.299 50.9725 146.864 50.3234 146.802 49.4301C146.778 49.0805 146.8 48.7254 146.836 48.3759C146.875 48.0042 146.955 47.638 147.016 47.2607C146.766 47.2496 146.68 47.4382 146.561 47.5631C145.751 48.4175 144.906 49.2331 143.996 49.9821C143.414 50.4648 142.784 50.8699 142.127 51.2388C141.481 51.605 140.776 51.8103 140.047 51.8575C139.09 51.9185 138.178 51.7021 137.36 51.175C136.883 50.8671 136.592 50.426 136.456 49.8767C136.334 49.3912 136.323 48.9002 136.406 48.4064C136.467 48.043 136.525 47.6768 136.603 47.2052C136.395 47.3689 136.265 47.4576 136.148 47.5631C134.834 48.7809 133.436 49.8906 131.913 50.8421C131.173 51.3026 130.402 51.7049 129.576 51.9879C128.605 52.3208 127.615 52.4789 126.597 52.1876C125.854 51.974 125.227 51.5773 124.72 50.9919C124.34 50.5508 124.129 50.0348 124.085 49.4523C124.065 49.197 124.057 48.9391 124.04 48.6145C123.888 48.7032 123.769 48.756 123.672 48.8336C122.884 49.4661 122.11 50.1181 121.312 50.7367C120.998 50.9808 120.649 51.1861 120.291 51.3609C119.032 51.9795 117.598 51.3609 117.174 50.0182C116.961 49.3358 116.93 48.6311 117.047 47.9237C117.21 46.9361 117.582 46.0206 118.056 45.1523C118.641 44.0787 119.282 43.0356 119.903 41.9842C120.155 41.5597 120.421 41.1436 120.677 40.7219C120.732 40.6304 120.768 40.5278 120.868 40.3114C120.322 40.5388 119.922 40.7719 119.526 41.0049C117.16 42.3975 115.05 44.1092 113.123 46.065C111.83 47.3772 110.707 48.8225 109.678 50.3456C109.401 50.7534 109.11 51.1556 108.791 51.5329C108.325 52.0794 108.147 52.0683 107.415 51.8603C107.102 51.7715 106.922 51.4719 106.986 51.139C107.044 50.8421 107.144 50.5481 107.279 50.279C107.565 49.713 107.887 49.1638 108.189 48.6062C108.264 48.4702 108.319 48.3232 108.378 48.19C108.239 48.0735 108.167 48.1678 108.103 48.215C106.949 49.0611 105.671 49.6409 104.287 49.9766C103.544 50.1569 102.876 50.4648 102.257 50.917C101.78 51.2666 101.256 51.5301 100.671 51.6633C99.6977 51.8824 98.7215 51.9823 97.7371 51.7548C96.919 51.5634 96.2867 51.1001 95.8236 50.4066C95.2579 49.5577 94.8779 48.6228 94.5784 47.6518C94.5119 47.4354 94.4342 47.2246 94.3483 46.9666C94.0737 47.1664 93.8519 47.3384 93.6217 47.4937C93.4609 47.6019 93.2861 47.674 93.1114 47.502C92.9755 47.3689 92.8064 47.3994 92.6455 47.4188C91.6749 47.527 90.9068 47.1358 90.2634 46.4451C89.8585 46.0123 89.5535 45.5102 89.2845 44.9859C89.2124 44.8471 89.1181 44.7223 88.9961 44.5253C88.863 44.775 88.7659 44.9553 88.6716 45.1357C87.5235 47.3439 85.9817 49.2109 83.924 50.6313C83.1835 51.1417 82.3876 51.5495 81.4891 51.6994C81.0759 51.7687 80.6489 51.7992 80.2301 51.7965C79.3843 51.7881 78.8047 51.3332 78.4969 50.5758C78.3305 50.168 78.2362 49.7186 78.1891 49.2803C78.1364 48.817 78.178 48.3426 78.178 47.8738C78.178 47.7378 78.178 47.6047 78.178 47.4826C77.9728 47.3994 77.8951 47.5492 77.8008 47.638C76.8496 48.5507 75.8458 49.4051 74.7365 50.1208C74.2651 50.426 73.7687 50.7034 73.2584 50.9392C72.3932 51.3359 71.4864 51.3637 70.5712 51.114C69.6644 50.8671 69.1292 50.2651 68.9351 49.3579C68.8158 48.7976 68.8158 48.2316 68.9573 47.6768C69.0793 47.1996 69.2262 46.7253 69.4093 46.2703C70.1968 44.2979 71.2007 42.4392 72.4348 40.7053C72.5291 40.5721 72.6261 40.4362 72.7149 40.3003C72.7398 40.2614 72.7482 40.2143 72.7648 40.1643C72.579 40.0423 72.457 40.2032 72.3294 40.2753C71.3089 40.8662 70.3577 41.5542 69.4426 42.2977C67.5901 43.8013 65.8929 45.4547 64.4731 47.3772C63.6162 48.5368 62.884 49.763 62.3433 51.1029C62.3266 51.1473 62.2961 51.1861 62.285 51.2305C62.1492 51.7687 61.6112 51.9962 61.0427 51.8048C60.6932 51.6883 60.4769 51.4497 60.427 51.1029C60.391 50.8532 60.4076 50.5869 60.4575 50.3372C60.6239 49.48 60.9012 48.6561 61.2063 47.8405C61.7581 46.3618 62.4625 44.9526 63.1419 43.5322C63.6494 42.4725 64.1763 41.421 64.6921 40.3641C64.7615 40.2198 64.8169 40.07 64.8752 39.9369C64.7559 39.8037 64.6755 39.9008 64.6117 39.9424C62.8508 41.1658 61.198 42.5141 59.6894 44.0454C57.9534 45.8098 56.3949 47.7212 54.8502 49.652C54.4093 50.2041 53.9462 50.7367 53.4914 51.2749C53.4165 51.3637 53.3305 51.4469 53.2529 51.5357C52.9007 51.9352 52.4597 51.8603 52.127 51.569C51.5973 51.1001 51.3255 50.5231 51.5446 49.8046C51.6749 49.3774 51.8164 48.9529 51.9855 48.5396C52.4098 47.5187 52.8591 46.5089 53.2889 45.4907C53.3388 45.3715 53.4525 45.2522 53.3444 45.058C53.153 45.2439 52.9672 45.4186 52.7898 45.6017C52.0355 46.3757 51.2922 47.1636 50.5269 47.9265C50.2995 48.1512 50.1636 48.3925 50.0693 48.6949C49.2262 51.3803 47.5291 53.3333 44.9528 54.4735C41.2978 56.0936 37.041 55.1088 34.4204 52.085C32.9229 50.3594 32.1963 48.3482 32.1741 46.0733C32.1741 45.8625 32.1741 45.6517 32.1686 45.4408C32.1686 45.4186 32.1492 45.3992 32.1408 45.377C32.0077 45.377 32.0216 45.4908 31.9966 45.5712C31.4808 47.2163 30.4797 48.5312 29.2041 49.652C27.9367 50.7645 26.4836 51.5801 24.9417 52.2403C23.508 52.8506 22.0244 53.2917 20.488 53.547C19.2789 53.7467 18.0643 53.8299 16.8386 53.7855C15.6822 53.7439 14.5424 53.6246 13.4276 53.3028C12.1686 52.9394 11.0205 52.3707 10.0277 51.5079C9.49248 51.0419 9.02936 50.512 8.64112 49.9211C8.49969 49.7075 8.36103 49.4939 8.19464 49.2387C7.99774 49.3801 7.82581 49.4939 7.66774 49.6215C6.67772 50.4177 5.67384 51.1972 4.57567 51.8408C4.10978 52.1127 3.62448 52.3541 3.13086 52.5704C2.83413 52.7008 2.50412 52.7757 2.18244 52.8312C1.4836 52.9505 0.93729 52.6786 0.557368 52.0877C0.205177 51.5412 0.0387876 50.9337 0.00550974 50.2873C-0.0333144 49.5272 0.0831581 48.7865 0.266186 48.0541C0.635016 46.581 1.27839 45.2244 2.04655 43.9233C2.54849 43.0717 3.10035 42.2505 3.71877 41.4793C4.13474 40.9633 4.6034 40.5 5.23845 40.2559C5.41316 40.1893 5.59619 40.1338 5.77922 40.1005C6.47251 39.9701 7.02714 40.1976 7.44034 40.7691C7.72043 41.1547 7.91455 41.5792 8.05598 42.0314C8.41649 43.1743 8.777 44.3201 9.14028 45.463C9.20407 45.66 9.27894 45.8542 9.36768 46.1066C9.52298 45.9707 9.65886 45.8791 9.75593 45.7598C10.6073 44.6946 11.4753 43.6432 12.2961 42.5529C14.5313 39.5845 16.6888 36.5551 19.0349 33.6728C20.4464 31.9389 21.8607 30.2078 23.4636 28.646C23.9683 28.1549 24.4897 27.6722 25.0582 27.2589C25.9345 26.618 26.9412 26.446 28.0088 26.6347C28.3666 26.6985 28.6716 26.8705 28.9378 27.1119C29.3483 27.4836 29.3732 28.2271 28.716 28.5017C28.63 28.5378 28.5413 28.5849 28.4525 28.596C27.9589 28.6571 27.5873 28.9456 27.2157 29.2341C26.0621 30.1301 24.9833 31.1094 23.9378 32.1276C22.5568 33.473 21.198 34.8407 19.8391 36.2084C19.1403 36.913 18.5829 37.7314 17.9977 38.5276C16.1425 41.0521 14.1736 43.4795 11.9994 45.7377C11.4781 46.2786 10.9179 46.7863 10.3799 47.3078C10.2468 47.4354 10.122 47.5714 9.98055 47.7184C10.1358 48.0874 10.3272 48.4064 10.5269 48.7227C11.4032 50.1264 12.5124 51.2832 14.0127 52.0267C14.9084 52.4706 15.8541 52.7036 16.8497 52.8035C18.9073 53.0115 20.818 52.515 22.6456 51.63C24.5313 50.7173 26.1841 49.4911 27.5235 47.8682C28.1725 47.0831 28.716 46.2315 29.0543 45.266C29.5535 43.8429 29.5285 42.4419 28.7576 41.1159C28.2418 40.2254 27.5124 39.5263 26.6417 38.9825C25.9373 38.5442 25.1941 38.2307 24.3427 38.1558C23.5246 38.0837 22.7121 37.9311 21.8996 37.8063C21.6444 37.7675 21.3921 37.7064 21.1453 37.6287C20.99 37.5816 20.8402 37.4984 20.7099 37.404C20.4659 37.2293 20.427 36.9629 20.6101 36.7271C20.8818 36.3748 21.259 36.1889 21.6888 36.1168C22.041 36.0586 22.3932 36.0835 22.7343 36.1973C23.0255 36.2916 23.3222 36.3748 23.6023 36.4913C24.0432 36.6772 24.5063 36.7521 24.9778 36.7715C26.9439 36.8464 28.8796 36.6661 30.7376 35.9753C32.0604 35.4843 33.2362 34.7797 34.082 33.6062C34.5424 32.9681 34.8613 32.2663 35.0416 31.5034C35.2939 30.4353 35.3411 29.3645 35.0554 28.2909C34.8308 27.442 34.3621 26.7595 33.6993 26.1964C32.9534 25.5639 32.0965 25.1339 31.1702 24.8343C29.6367 24.3377 28.0504 24.149 26.4503 24.0908C24.5646 24.0242 22.6899 24.1684 20.8236 24.4098C20.1026 24.5041 19.3899 24.6678 18.6799 24.8204C15.5352 25.4945 12.615 26.6763 10.0832 28.7098C8.86852 29.6863 7.75371 30.7599 6.84134 32.0332C6.58343 32.3939 6.35326 32.7823 6.14528 33.1762C5.37711 34.6354 5.7293 36.4553 6.99941 37.4484C7.08538 37.515 7.15193 37.6065 7.29891 37.7591L7.30445 37.7425ZM49.3289 45.9929C49.2817 41.4405 45.5324 37.9478 41.0759 38.0532C36.7165 38.1558 33.1919 41.8399 33.3083 46.2592C33.422 50.6646 36.98 54.1462 41.3838 54.099C46.026 54.0519 49.3871 50.2568 49.3289 45.9929ZM103.835 37.8701C103.575 37.8895 103.436 38.0643 103.281 38.1919C101.242 39.8647 99.3732 41.7123 97.5901 43.6459C97.2268 44.0426 96.8885 44.4726 96.5973 44.922C95.8901 46.0123 96.0177 47.1331 96.6749 48.1734C97.3987 49.3191 98.5524 49.6853 99.8474 49.5965C100.799 49.5327 101.464 49.0195 101.811 48.1179C101.886 47.9209 101.98 47.7295 102.038 47.527C102.321 46.5838 102.643 45.6489 102.865 44.689C103.361 42.5363 103.6 40.3391 103.855 38.1475C103.866 38.0615 103.844 37.9727 103.838 37.8701H103.835ZM7.63446 47.932C7.16302 46.4728 6.73319 44.9831 6.06485 43.5821C5.89292 43.2243 5.68216 42.883 5.46585 42.5474C5.37988 42.4142 5.24677 42.3032 5.11644 42.2061C4.94727 42.0841 4.74483 42.1146 4.60895 42.2672C4.5313 42.3559 4.46474 42.4503 4.40096 42.5501C4.02381 43.1466 3.63557 43.7319 3.28061 44.3422C2.75093 45.2577 2.28227 46.2037 1.9384 47.208C1.53629 48.3842 1.36436 49.5743 1.68327 50.8061C1.94672 51.827 2.36269 52.0378 3.31388 51.5495C3.70767 51.347 4.08482 51.1001 4.44256 50.8338C5.54073 50.021 6.53906 49.0944 7.49026 48.1179C7.5374 48.068 7.57345 48.0069 7.63169 47.9265L7.63446 47.932ZM127.499 45.7904C127.926 45.8847 128.289 45.8625 128.655 45.7904C129.565 45.6128 130.396 45.2439 131.203 44.8028C132.726 43.9705 134.029 42.8803 135.108 41.5209C135.374 41.188 135.582 40.8246 135.685 40.4057C135.835 39.8009 135.629 39.5291 134.994 39.4902C134.562 39.4652 134.149 39.5623 133.771 39.7593C133.294 40.009 132.809 40.2559 132.382 40.5777C131.672 41.1131 130.982 41.6818 130.33 42.2866C129.332 43.2132 128.416 44.2202 127.693 45.3853C127.623 45.4963 127.579 45.6239 127.499 45.7931V45.7904ZM40.574 36.8991C41.1786 36.9213 41.7665 36.9019 42.3405 36.9768C42.9423 37.0545 43.5413 37.1904 44.1209 37.3652C44.6727 37.5316 45.1996 37.7841 45.757 38.006C45.9761 37.5233 46.148 37.0739 46.1952 36.6023C45.1497 35.8144 41.9911 35.107 40.8985 35.4593C40.7348 35.9032 40.6017 36.3693 40.5712 36.8991H40.574Z" fill="black"/>
<path d="M16.9688 62.3498H17.8978C18.042 62.5606 18.189 62.7687 18.3277 62.9851C19.2705 64.4471 20.2134 65.9091 21.1591 67.3683C21.27 67.5375 21.3365 67.7567 21.5667 67.826C21.7387 67.6429 21.6693 67.421 21.6693 67.2185C21.6693 65.8785 21.661 64.5386 21.661 63.1959C21.661 62.9407 21.6776 62.6855 21.686 62.4552C21.9771 62.2943 22.2212 62.3109 22.4708 62.3609C22.5013 62.458 22.5401 62.5246 22.5401 62.5911C22.5345 64.8243 22.5235 67.0576 22.5096 69.2935C22.5096 69.3601 22.4708 69.4267 22.4458 69.5072C22.1463 69.5932 21.8468 69.5626 21.5113 69.5294C20.3271 67.7067 19.1402 65.8758 17.9616 64.0587C17.6982 64.1058 17.7841 64.2862 17.7841 64.3999C17.7758 65.8341 17.7786 67.2684 17.7758 68.7026C17.7758 68.9579 17.7619 69.2131 17.7536 69.4711C17.4985 69.5959 17.2683 69.5599 17.0049 69.5183C16.9827 69.3934 16.9355 69.2603 16.9355 69.1271C16.9355 67.0354 16.9355 64.9409 16.9383 62.8491C16.9383 62.7104 16.9577 62.5745 16.9716 62.3498H16.9688Z" fill="black"/>
<path d="M93.6063 67.8232C93.6118 67.5901 93.6257 67.3599 93.6257 67.1268C93.6257 65.7869 93.6174 64.447 93.6201 63.1098C93.6201 62.8796 93.5702 62.6382 93.7366 62.3719C93.928 62.358 94.1526 62.3414 94.4216 62.322C94.4549 62.5134 94.5048 62.6687 94.502 62.8213C94.4964 63.5509 94.4715 64.2778 94.4687 65.0074C94.4604 66.2752 94.4604 67.5457 94.4548 68.8135C94.4548 69.041 94.4354 69.2713 94.4243 69.5293H93.4898C92.8741 68.6637 92.3056 67.7205 91.7039 66.8023C91.0993 65.8812 90.5031 64.9574 89.9096 64.0392C89.6795 64.1169 89.7488 64.2833 89.7488 64.4054C89.7433 65.8618 89.746 67.3183 89.7433 68.7747C89.7433 69.005 89.7294 69.238 89.7183 69.5154C89.4632 69.5321 89.2385 69.5487 88.9834 69.5653C88.9557 69.3989 88.9113 69.2685 88.9113 69.1353C88.9085 67.0436 88.9113 64.9519 88.9141 62.8629C88.9141 62.7048 88.9474 62.5439 88.964 62.3858C89.269 62.2887 89.5464 62.3109 89.8791 62.3664C91.0882 64.164 92.2336 66.0421 93.4593 67.8675C93.5092 67.8537 93.5591 67.8398 93.609 67.8259L93.6063 67.8232Z" fill="black"/>
<path d="M138.057 69.4127C137.821 69.4987 137.674 69.5625 137.522 69.6042C137.15 69.6985 137.087 69.6846 136.879 69.3573C136.449 68.6831 136.036 67.9979 135.614 67.3182C135.539 67.199 135.464 67.0797 135.384 66.9493C134.993 66.8328 134.596 66.8855 134.161 66.9188C134.136 67.0769 134.089 67.2322 134.089 67.3876C134.089 67.9064 134.114 68.4224 134.119 68.9411C134.119 69.1242 134.097 69.3045 134.083 69.5182H133.257C133.235 69.4044 133.196 69.2935 133.196 69.1853C133.19 67.0908 133.188 64.9963 133.188 62.9045C133.188 62.7436 133.212 62.5855 133.226 62.4274C133.315 62.3885 133.376 62.3358 133.437 62.3331C134.166 62.322 134.896 62.3164 135.622 62.3164C135.764 62.3164 135.905 62.3386 136.041 62.3663C136.995 62.5467 137.561 63.1986 137.622 64.1696C137.68 65.1155 137.336 65.8673 136.557 66.4166C136.463 66.4832 136.366 66.5498 136.232 66.6441C136.302 66.7911 136.349 66.9437 136.435 67.0686C136.856 67.69 137.292 68.3058 137.719 68.9245C137.81 69.0576 137.902 69.1936 138.049 69.4127H138.057ZM134.175 66.0643C134.585 66.0782 134.96 66.1253 135.328 66.1004C135.95 66.0588 136.488 65.5816 136.604 64.9657C136.654 64.6939 136.654 64.4054 136.626 64.1279C136.579 63.6647 136.305 63.3539 135.866 63.2069C135.323 63.0266 134.774 63.0321 134.233 63.157C134.108 63.7479 134.072 65.3403 134.175 66.0643Z" fill="black"/>
<path d="M59.3594 62.3941C59.6478 62.297 59.8946 62.2831 60.1387 62.3885C60.2884 62.6104 60.2329 62.8546 60.2302 63.0821C60.2246 64.2111 60.2052 65.3402 60.2024 66.4693C60.2024 66.7967 60.2108 67.1296 60.2607 67.4542C60.3771 68.2004 60.7903 68.611 61.5308 68.783C61.9828 68.8884 62.421 68.8385 62.848 68.6748C63.3777 68.4723 63.6772 68.0645 63.7659 67.5152C63.8103 67.2378 63.8131 66.952 63.8131 66.6718C63.8103 65.4734 63.7937 64.2722 63.7881 63.0737C63.7881 62.8435 63.7438 62.6049 63.8685 62.3857C64.1292 62.2886 64.3788 62.2914 64.6644 62.3941C64.6866 62.5439 64.7282 62.702 64.7255 62.8601C64.7171 64.225 64.7144 65.5899 64.6839 66.952C64.6755 67.3238 64.6118 67.7038 64.5008 68.0589C64.2928 68.7247 63.8297 69.1825 63.178 69.4321C62.4016 69.729 61.614 69.7429 60.8292 69.4765C60.1082 69.2324 59.6423 68.722 59.4398 67.9979C59.3511 67.6844 59.3067 67.3487 59.3039 67.0242C59.2901 65.6371 59.2956 64.2472 59.2984 62.8601C59.2984 62.702 59.34 62.5439 59.3594 62.3941Z" fill="black"/>
<path d="M120.274 63.1788C120.263 63.4479 120.246 63.656 120.243 63.8668C120.241 64.3578 120.243 64.8489 120.243 65.3732C120.404 65.4065 120.535 65.4536 120.668 65.4564C121.183 65.4647 121.702 65.4564 122.218 65.462C122.398 65.462 122.581 65.4897 122.806 65.5064C122.789 65.756 122.775 65.9613 122.761 66.1666C122.318 66.3497 121.893 66.2276 121.477 66.2471C121.084 66.2665 120.687 66.2276 120.313 66.2998C120.196 66.8962 120.188 67.7867 120.285 68.6967C120.424 68.7244 120.573 68.7799 120.726 68.7799C121.242 68.7854 121.76 68.7716 122.276 68.7688C122.625 68.7688 122.975 68.7688 123.333 68.7688C123.516 69.0268 123.438 69.2598 123.349 69.4901C122.781 69.5761 120.071 69.5872 119.395 69.5095C119.378 69.4928 119.361 69.4762 119.348 69.4568C119.334 69.4374 119.314 69.4179 119.314 69.3985C119.306 67.1431 119.298 64.8849 119.295 62.6295C119.295 62.563 119.328 62.4964 119.359 62.3826C119.78 62.2633 120.227 62.3299 120.662 62.3188C121.131 62.3077 121.602 62.305 122.074 62.3188C122.512 62.3327 122.961 62.2467 123.385 62.3965C123.466 62.66 123.446 62.882 123.266 63.1233C122.309 63.1538 121.325 63.0124 120.271 63.1788H120.274Z" fill="black"/>
<path d="M79.1189 62.3939C79.0995 62.6297 79.0828 62.8322 79.0606 63.0792C78.8499 63.0986 78.6696 63.1291 78.4894 63.1291C77.8543 63.1291 77.2193 63.1124 76.587 63.1124C76.404 63.1124 76.2209 63.1485 75.9991 63.1707C75.8798 63.9114 75.9381 64.6271 75.9353 65.3734C76.1072 65.4067 76.2403 65.4511 76.3734 65.4538C76.8421 65.4622 77.3135 65.4538 77.785 65.4594C77.993 65.4594 78.201 65.4733 78.4117 65.4816C78.5448 65.7396 78.5005 65.956 78.3784 66.2251C77.6103 66.3249 76.8088 66.164 76.0046 66.3C75.8355 66.6856 75.9242 67.0878 75.9159 67.479C75.9048 67.8757 75.9297 68.2752 75.9381 68.6969C76.978 68.9105 77.9874 68.6969 78.9885 68.7579C79.227 68.9881 79.1189 69.2295 79.0634 69.4625C78.5282 69.5735 76.1183 69.604 75.0701 69.5125C75.0479 69.3904 74.9952 69.2572 75.0035 69.1296C75.12 67.1294 75.0174 65.132 74.998 63.1346C74.998 62.8822 74.9259 62.6159 75.0923 62.3856C75.6497 62.2913 78.3978 62.2857 79.1272 62.3912L79.1189 62.3939Z" fill="black"/>
<path d="M151.417 62.6157C151.417 63.165 151.417 63.165 151.207 63.5146C151.026 63.4286 150.84 63.3453 150.655 63.2538C150.286 63.0707 149.898 63.0069 149.49 63.0596C149.093 63.1095 148.78 63.301 148.569 63.6422C148.322 64.0389 148.361 64.4772 148.697 64.8018C148.88 64.9793 149.099 65.1236 149.324 65.2512C149.67 65.4482 150.039 65.6091 150.388 65.8033C150.613 65.9281 150.838 66.064 151.032 66.2305C151.88 66.9545 151.925 68.1058 151.151 68.9076C150.918 69.1489 150.646 69.3265 150.336 69.4513C149.407 69.823 148.27 69.6954 147.36 69.1045C147.332 68.8132 147.321 68.5136 147.482 68.2168C147.704 68.1863 147.823 68.3611 147.97 68.4498C148.467 68.755 148.991 68.927 149.579 68.8632C150 68.8188 150.341 68.6301 150.58 68.2806C150.874 67.8451 150.807 67.2764 150.397 66.949C150.161 66.7604 149.887 66.6133 149.623 66.4635C149.335 66.3026 149.035 66.1695 148.744 66.0141C148.578 65.9253 148.417 65.8255 148.264 65.7173C147.047 64.8462 147.418 63.3759 148.25 62.7683C148.683 62.4548 149.166 62.2884 149.692 62.2634C150.286 62.2357 150.857 62.3466 151.417 62.6185V62.6157Z" fill="black"/>
<path d="M109.546 62.8128C109.538 63.1124 109.521 63.3621 109.358 63.6312C109.197 63.5563 109.05 63.5008 108.917 63.4231C108.415 63.1235 107.871 63.0125 107.292 63.068C106.585 63.1374 106.058 63.4869 105.73 64.1222C105.644 64.2887 105.578 64.4662 105.534 64.6493C105.301 65.5565 105.298 66.4692 105.572 67.3624C105.927 68.5165 106.942 69.0769 108.113 68.7745C108.448 68.6885 108.764 68.5165 109.092 68.3861C109.214 68.3362 109.336 68.2918 109.477 68.2363C109.499 68.3501 109.527 68.4166 109.524 68.4832C109.513 68.6691 109.491 68.8549 109.477 69.0186C108.307 69.8897 106.726 69.7427 105.919 69.2877C105.545 69.0741 105.237 68.7911 105.001 68.4305C104.685 67.9478 104.491 67.4179 104.455 66.8492C104.419 66.311 104.397 65.7673 104.449 65.2319C104.654 63.0736 106.274 61.9001 108.409 62.3356C108.803 62.4161 109.177 62.5409 109.549 62.8128H109.546Z" fill="black"/>
<path d="M88.4351 4.78256C88.5183 5.0683 88.5793 5.24307 88.6209 5.42062C88.6625 5.60372 88.6764 5.79513 88.7235 5.97545C88.9731 6.93532 89.5333 7.6039 90.5206 7.86744C90.9032 7.97009 91.2887 8.07273 91.7685 8.20312C91.5854 8.28634 91.4912 8.3446 91.3885 8.37234C91.0724 8.46111 90.7479 8.52769 90.4346 8.62202C89.3974 8.93272 88.8539 9.66233 88.6764 10.7026C88.6265 10.9967 88.6459 11.3157 88.3908 11.5959C88.327 11.4461 88.2632 11.3268 88.2244 11.1992C88.1301 10.883 88.0524 10.5639 87.9609 10.2477C87.7197 9.40988 87.1733 8.87447 86.3469 8.62479C86.1001 8.54989 85.8478 8.49163 85.601 8.4195C85.4457 8.37512 85.2959 8.32518 85.1406 8.27525C85.1684 8.08383 85.3098 8.11434 85.4013 8.0866C85.7174 7.99505 86.0419 7.93125 86.3525 7.83138C87.1179 7.59002 87.6559 7.09345 87.9221 6.33055C88.0469 5.97545 88.1245 5.60649 88.2355 5.24862C88.2743 5.12378 88.3381 5.00727 88.4351 4.77979V4.78256Z" fill="url(#paint0_linear_331_22879)"/>
<path d="M64.1373 7.67611C64.2704 8.16159 64.3619 8.50004 64.4562 8.83849C64.7252 9.82333 65.3159 10.4836 66.3392 10.7166C66.7025 10.7998 67.063 10.9053 67.5206 11.0245C67.2737 11.1161 67.1129 11.1827 66.9465 11.2326C66.6331 11.3297 66.317 11.4157 66.0036 11.51C65.2743 11.732 64.814 12.2369 64.5588 12.9359C64.4396 13.2661 64.3619 13.6101 64.2649 13.9485C64.2288 14.0734 64.19 14.1982 64.1123 14.4562C64.0236 14.2287 63.9765 14.1288 63.9487 14.0262C63.8378 13.6434 63.7602 13.2494 63.6215 12.8777C63.3747 12.2036 62.9171 11.7236 62.2127 11.51C61.9216 11.4213 61.6304 11.3353 61.3392 11.2465C61.1645 11.1938 60.9898 11.1355 60.6875 11.0384C61.1562 10.908 61.4973 10.7971 61.8495 10.7194C62.9033 10.4864 63.4967 9.80113 63.7823 8.79688C63.8766 8.46675 63.9071 8.11443 64.1429 7.67334L64.1373 7.67611Z" fill="url(#paint1_linear_331_22879)"/>
<path d="M34.0088 66.3833C33.9062 67.4736 34.0365 68.4806 33.97 69.4932C33.6594 69.5819 33.3931 69.5764 33.1186 69.5098C33.0936 69.4266 33.0548 69.36 33.0548 69.2962C33.052 67.0658 33.052 64.8326 33.0548 62.6021C33.0548 62.5383 33.0964 62.4745 33.1214 62.4052C33.1907 62.3802 33.2545 62.3358 33.3183 62.333C34.422 62.3275 35.5257 62.3247 36.6294 62.3247C36.7182 62.3247 36.8097 62.3608 36.915 62.383C36.9955 62.6271 36.9761 62.8463 36.8624 63.1126C36.4103 63.2263 35.9472 63.1126 35.4869 63.107C35.021 63.1015 34.5523 63.0793 34.1031 63.1708C33.9727 63.6785 33.9478 64.4747 34.0171 65.5372C34.1391 65.5622 34.2695 65.6093 34.3998 65.6121C34.8934 65.6204 35.387 65.6121 35.8807 65.6149C36.0387 65.6149 36.1996 65.6454 36.3687 65.662C36.3798 65.7841 36.3992 65.8756 36.3937 65.9672C36.3854 66.0809 36.3549 66.1947 36.3327 66.3223C35.9611 66.4943 35.5867 66.3806 35.2207 66.3861C34.8463 66.3944 34.4719 66.3861 34.0088 66.3861V66.3833Z" fill="black"/>
<path d="M46.3702 62.3719C46.5865 62.3497 46.7251 62.3247 46.8638 62.3247C46.9775 62.3247 47.0912 62.3524 47.1938 62.3663C47.3657 62.6243 47.2964 62.8906 47.2964 63.1403C47.2936 64.7632 47.2798 66.3833 47.2742 68.0062C47.2742 68.2365 47.252 68.4723 47.3574 68.7109C48.2143 68.8939 49.0906 68.6554 49.9808 68.8634C49.9642 69.0881 49.9503 69.2851 49.9392 69.471C49.3901 69.5764 47.2992 69.5986 46.4201 69.5126C46.4007 69.3905 46.3507 69.2574 46.3591 69.127C46.4728 67.1296 46.3729 65.1322 46.3535 63.1348C46.3535 62.9045 46.3646 62.6715 46.3729 62.3719H46.3702Z" fill="black"/>
<path d="M85.1957 34.7549C85.1263 34.5108 85.0431 34.2694 84.9904 34.0225C84.7825 33.0627 84.1613 32.53 83.2378 32.2998C83.0132 32.2443 82.7858 32.186 82.4336 32.0973C82.7359 31.9974 82.9189 31.9336 83.1019 31.8753C83.3487 31.7949 83.6011 31.7366 83.8396 31.6368C84.3166 31.4342 84.6549 31.0819 84.8351 30.5964C84.9405 30.3107 85.0154 30.0139 85.1097 29.7226C85.143 29.6172 85.1901 29.5173 85.2456 29.3813C85.4258 29.5284 85.4036 29.7032 85.4536 29.8446C85.5284 30.0666 85.5756 30.2996 85.656 30.5188C85.8779 31.1346 86.2994 31.5452 86.9317 31.7338C87.2672 31.8337 87.6055 31.9336 88.0381 32.0612C87.8218 32.1444 87.686 32.1999 87.5473 32.2443C87.3005 32.322 87.0509 32.383 86.8069 32.469C86.1857 32.6882 85.7974 33.1376 85.6005 33.7562C85.4952 34.0891 85.4092 34.4303 85.3177 34.7688C85.2789 34.7632 85.24 34.7577 85.2012 34.7521L85.1957 34.7549Z" fill="url(#paint2_linear_331_22879)"/>
<path d="M5.49308 62.3884C5.81477 62.2996 6.06158 62.2968 6.31948 62.3745C6.4415 62.6353 6.39436 62.896 6.39436 63.1485C6.38881 65.0266 6.38049 66.9075 6.37217 68.7856C6.37217 69.0159 6.36108 69.2433 6.35553 69.4819C6.0699 69.5984 5.82031 69.543 5.53191 69.5319C5.50695 69.3821 5.46535 69.2489 5.46535 69.1185C5.4598 67.0739 5.45703 65.0321 5.45703 62.9876C5.45703 62.8017 5.47922 62.6186 5.49308 62.3856V62.3884Z" fill="black"/>
<path d="M34.2949 45.9514C34.4169 42.3228 37.1208 39.507 40.5373 39.1103C40.6538 39.0964 40.773 39.0908 40.8867 39.1047C41.1585 39.1408 41.3498 39.3683 41.3554 39.6401C41.3609 39.887 41.2195 40.0951 40.9671 40.1617C40.7647 40.2144 40.5512 40.231 40.3432 40.2726C37.8973 40.7637 36.3304 42.2257 35.6427 44.6087C35.5012 45.0969 35.5012 45.6296 35.4458 46.1428C35.4291 46.3065 35.4569 46.4729 35.4375 46.6366C35.4097 46.889 35.2212 47.0694 34.9827 47.1027C34.7137 47.1387 34.4585 46.9945 34.392 46.717C34.3337 46.4674 34.3254 46.2066 34.2949 45.9514Z" fill="black"/>
</g>
<defs>
<linearGradient id="paint0_linear_331_22879" x1="88.4545" y1="4.77979" x2="88.4545" y2="11.5959" gradientUnits="userSpaceOnUse">
<stop stop-color="#FE70A5"/>
<stop offset="1" stop-color="#D33BFD"/>
</linearGradient>
<linearGradient id="paint1_linear_331_22879" x1="64.104" y1="7.67334" x2="64.104" y2="14.4562" gradientUnits="userSpaceOnUse">
<stop stop-color="#FE70A5"/>
<stop offset="1" stop-color="#D33BFD"/>
</linearGradient>
<linearGradient id="paint2_linear_331_22879" x1="85.2359" y1="29.3813" x2="85.2359" y2="34.7688" gradientUnits="userSpaceOnUse">
<stop stop-color="#FE70A5"/>
<stop offset="1" stop-color="#D33BFD"/>
</linearGradient>
<clipPath id="clip0_331_22879">
<rect width="160" height="70" fill="white"/>
</clipPath>
</defs>
</svg>
