<svg width="50" height="50" viewBox="0 0 50 50" fill="none" xmlns="http://www.w3.org/2000/svg">
<g id="Iconsax/Bold/people">
<path id="Vector" d="M36.5207 16.1873C36.3756 16.1665 36.2283 16.1665 36.0832 16.1873C34.5272 16.1364 33.0523 15.4815 31.9711 14.3614C30.8899 13.2413 30.2875 11.7441 30.2915 10.1873C30.2915 6.87484 32.979 4.1665 36.3124 4.1665C39.6249 4.1665 42.3332 6.854 42.3332 10.1873C42.3287 11.7451 41.7207 13.2405 40.6368 14.3594C39.5529 15.4782 38.0775 16.1334 36.5207 16.1873ZM43.3165 30.6248C40.9832 32.1873 37.7124 32.7707 34.6915 32.3748C35.4832 30.6665 35.8999 28.7707 35.9207 26.7707C35.9207 24.6873 35.4624 22.7082 34.5874 20.979C37.6707 20.5623 40.9415 21.1457 43.2957 22.7082C46.5874 24.8748 46.5874 28.4373 43.3165 30.6248ZM13.4165 16.1873C13.5624 16.1665 13.7082 16.1665 13.854 16.1873C15.41 16.1364 16.885 15.4815 17.9662 14.3614C19.0474 13.2413 19.6498 11.7441 19.6457 10.1873C19.6457 9.39804 19.4902 8.61647 19.1882 7.88725C18.8861 7.15803 18.4434 6.49545 17.8853 5.93733C17.3272 5.37921 16.6646 4.93649 15.9354 4.63444C15.2062 4.33238 14.4246 4.17692 13.6353 4.17692C12.846 4.17692 12.0644 4.33238 11.3352 4.63444C10.606 4.93649 9.9434 5.37921 9.38528 5.93733C8.82716 6.49545 8.38444 7.15803 8.08239 7.88725C7.78033 8.61647 7.62487 9.39804 7.62487 10.1873C7.62487 13.4373 10.1874 16.0832 13.4165 16.1873ZM13.6478 26.7707C13.6478 28.7915 14.0853 30.7082 14.877 32.4373C11.9395 32.7498 8.87695 32.1248 6.62695 30.6457C3.33529 28.4582 3.33529 24.8957 6.62695 22.7082C8.85612 21.2082 12.002 20.604 14.9603 20.9373C14.1061 22.6873 13.6478 24.6665 13.6478 26.7707ZM25.2499 33.0623C25.0699 33.0415 24.8882 33.0415 24.7082 33.0623C22.8558 33.0001 21.1003 32.2195 19.8133 30.8858C18.5262 29.5521 17.8086 27.7699 17.8124 25.9165C17.8332 21.9582 21.0207 18.7498 24.9999 18.7498C28.9582 18.7498 32.1665 21.9582 32.1665 25.9165C32.1654 27.772 31.4434 29.5545 30.1529 30.8878C28.8624 32.221 27.1044 33.0007 25.2499 33.0623ZM18.479 37.3748C15.3332 39.479 15.3332 42.9373 18.479 45.0207C22.0624 47.4165 27.9374 47.4165 31.5207 45.0207C34.6665 42.9165 34.6665 39.4582 31.5207 37.3748C27.9582 34.979 22.0832 34.979 18.479 37.3748Z" fill="url(#paint0_linear_237_2246)"/>
</g>
<defs>
<linearGradient id="paint0_linear_237_2246" x1="24.9626" y1="4.1665" x2="24.9626" y2="46.8175" gradientUnits="userSpaceOnUse">
<stop stop-color="#D33AFF"/>
<stop offset="1" stop-color="#FF71A4"/>
</linearGradient>
</defs>
</svg>
