<svg width="50" height="50" viewBox="0 0 50 50" fill="none" xmlns="http://www.w3.org/2000/svg">
<g id="Iconsax/Bold/presentionchart">
<path id="Vector" d="M45.8337 5.729H4.16699C3.31283 5.729 2.60449 5.02067 2.60449 4.1665C2.60449 3.31234 3.31283 2.604 4.16699 2.604H45.8337C46.6878 2.604 47.3962 3.31234 47.3962 4.1665C47.3962 5.02067 46.6878 5.729 45.8337 5.729ZM34.7295 46.5415C34.4587 47.0832 33.8962 47.3957 33.3337 47.3957C33.1045 47.3957 32.8545 47.3332 32.6462 47.229L25.0003 43.4165L17.3545 47.229C17.1462 47.3332 16.8962 47.3957 16.667 47.3957C16.1045 47.3957 15.542 47.0832 15.2712 46.5415C15.1756 46.3576 15.1181 46.1563 15.1021 45.9497C15.0861 45.743 15.112 45.5353 15.1781 45.3389C15.2442 45.1424 15.3493 44.9614 15.487 44.8065C15.6247 44.6516 15.7922 44.526 15.9795 44.4373L23.4378 40.7082V35.4165H26.5628V40.7082L34.0212 44.4373C34.8128 44.8123 35.1253 45.7498 34.7295 46.5415Z" fill="url(#paint0_linear_237_2241)"/>
<path id="Vector_2" d="M6.25 4.1665V29.3748C6.25 33.3332 8.33333 35.4165 12.2917 35.4165H37.7083C41.6667 35.4165 43.75 33.3332 43.75 29.3748V4.1665H6.25ZM35.375 17.8748L28.8125 23.354C28.2083 23.854 27.4375 24.0623 26.7083 23.9373C25.9583 23.8123 25.3125 23.354 24.9167 22.6873L22.7292 19.0415L16.625 24.1248C16.3333 24.3748 15.9792 24.479 15.625 24.479C15.302 24.4809 14.9864 24.3828 14.7215 24.1979C14.4566 24.0131 14.2555 23.7508 14.1459 23.447C14.0362 23.1432 14.0234 22.8128 14.1092 22.5015C14.195 22.1901 14.3752 21.9129 14.625 21.7082L21.1875 16.229C21.7917 15.729 22.5625 15.5207 23.2917 15.6457C24.0417 15.7707 24.6875 16.229 25.0833 16.8957L27.2708 20.5415L33.375 15.4582C33.5333 15.3261 33.7163 15.2267 33.9132 15.1656C34.1102 15.1046 34.3173 15.0831 34.5225 15.1025C34.7278 15.1219 34.9272 15.1817 35.1093 15.2785C35.2914 15.3753 35.4525 15.5072 35.5833 15.6665C36.125 16.3332 36.0417 17.3123 35.375 17.8748Z" fill="url(#paint1_linear_237_2241)"/>
</g>
<defs>
<linearGradient id="paint0_linear_237_2241" x1="25.0003" y1="2.604" x2="25.0003" y2="47.3957" gradientUnits="userSpaceOnUse">
<stop stop-color="#D33AFF"/>
<stop offset="1" stop-color="#FF71A4"/>
</linearGradient>
<linearGradient id="paint1_linear_237_2241" x1="25" y1="4.1665" x2="25" y2="35.4165" gradientUnits="userSpaceOnUse">
<stop stop-color="#D33AFF"/>
<stop offset="1" stop-color="#FF71A4"/>
</linearGradient>
</defs>
</svg>
