<svg id="reload" width="40" height="40" viewBox="0 0 40 40" fill="none" xmlns="http://www.w3.org/2000/svg">
<rect width="40" height="40" rx="10" fill="#F6F6F6"/>
<path d="M21.1111 30.105C20 30.105 18.9074 29.9199 17.8333 29.5495C16.7593 29.1791 15.7963 28.6699 14.9444 28.0217C14.7407 27.8736 14.6296 27.6745 14.6111 27.4245C14.5926 27.1745 14.6852 26.9476 14.8889 26.7439C15.037 26.5958 15.2222 26.5171 15.4444 26.5078C15.6667 26.4986 15.8704 26.568 16.0556 26.7161C16.7593 27.2532 17.5463 27.6745 18.4167 27.98C19.287 28.2856 20.1852 28.4384 21.1111 28.4384C23.4259 28.4384 25.412 27.6097 27.0694 25.9523C28.7269 24.2949 29.5556 22.3087 29.5556 19.9939C29.5556 17.6791 28.7269 15.693 27.0694 14.0356C25.412 12.3782 23.4259 11.5495 21.1111 11.5495C18.7963 11.5495 16.8102 12.3782 15.1528 14.0356C13.4954 15.693 12.6667 17.6791 12.6667 19.9939V20.4939L14.0278 19.1328C14.1944 18.9661 14.3889 18.8828 14.6111 18.8828C14.8333 18.8828 15.0278 18.9661 15.1944 19.1328C15.3426 19.2995 15.4213 19.4939 15.4306 19.7161C15.4398 19.9384 15.3611 20.1328 15.1944 20.2995L12.4167 23.0773C12.3241 23.1699 12.2315 23.23 12.1389 23.2578C12.0463 23.2856 11.9444 23.2995 11.8333 23.2995C11.7222 23.2995 11.6204 23.2856 11.5278 23.2578C11.4352 23.23 11.3426 23.1699 11.25 23.0773L8.47222 20.2995C8.32407 20.1513 8.25 19.9615 8.25 19.73C8.25 19.4986 8.32407 19.2995 8.47222 19.1328C8.63889 18.9661 8.83333 18.8828 9.05556 18.8828C9.27778 18.8828 9.47222 18.9661 9.63889 19.1328L11 20.4939V19.9939C11 18.5865 11.2639 17.2717 11.7917 16.0495C12.3194 14.8273 13.0417 13.7578 13.9583 12.8411C14.875 11.9245 15.9444 11.2023 17.1667 10.6745C18.3889 10.1467 19.7037 9.88281 21.1111 9.88281C22.5185 9.88281 23.8333 10.1467 25.0556 10.6745C26.2778 11.2023 27.3472 11.9245 28.2639 12.8411C29.1806 13.7578 29.9028 14.8273 30.4306 16.0495C30.9583 17.2717 31.2222 18.5865 31.2222 19.9939C31.2222 22.8087 30.2407 25.1976 28.2778 27.1606C26.3148 29.1236 23.9259 30.105 21.1111 30.105ZM18.8889 24.2995C18.6296 24.2995 18.4028 24.2023 18.2083 24.0078C18.0139 23.8134 17.9167 23.5865 17.9167 23.3273V19.9939C17.9167 19.7347 18.0231 19.5078 18.2361 19.3134C18.4491 19.1189 18.713 19.0217 19.0278 19.0217V17.7717C19.0278 17.1976 19.2315 16.7069 19.6389 16.2995C20.0463 15.8921 20.537 15.6884 21.1111 15.6884C21.6852 15.6884 22.1759 15.8921 22.5833 16.2995C22.9907 16.7069 23.1944 17.1976 23.1944 17.7717V19.0217C23.5093 19.0217 23.7731 19.1189 23.9861 19.3134C24.1991 19.5078 24.3056 19.7347 24.3056 19.9939V23.3273C24.3056 23.5865 24.2083 23.8134 24.0139 24.0078C23.8194 24.2023 23.5926 24.2995 23.3333 24.2995H18.8889ZM19.8611 19.0217H22.3611V17.7717C22.3611 17.4198 22.2407 17.1236 22 16.8828C21.7593 16.6421 21.463 16.5217 21.1111 16.5217C20.7593 16.5217 20.463 16.6421 20.2222 16.8828C19.9815 17.1236 19.8611 17.4198 19.8611 17.7717V19.0217Z" fill="#5F596B"/>
</svg>
