<svg id="user" width="40" height="40" viewBox="0 0 40 40" fill="none" xmlns="http://www.w3.org/2000/svg">
<rect width="40" height="40" rx="10" fill="#F6F6F6"/>
<path d="M20 20.0665C18.625 20.0665 17.5 19.629 16.625 18.754C15.75 17.879 15.3125 16.7539 15.3125 15.3789C15.3125 14.0039 15.75 12.8789 16.625 12.0039C17.5 11.1289 18.625 10.6914 20 10.6914C21.375 10.6914 22.5 11.1289 23.375 12.0039C24.25 12.8789 24.6875 14.0039 24.6875 15.3789C24.6875 16.7539 24.25 17.879 23.375 18.754C22.5 19.629 21.375 20.0665 20 20.0665ZM10 30.0978V27.1603C10 26.3686 10.1979 25.6915 10.5938 25.129C10.9896 24.5665 11.5 24.1394 12.125 23.8477C13.5208 23.2227 14.8594 22.754 16.1406 22.4415C17.4219 22.129 18.7083 21.9727 20 21.9727C21.2917 21.9727 22.5729 22.1342 23.8438 22.4571C25.1146 22.78 26.4471 23.2456 27.8413 23.8538C28.4934 24.1481 29.0162 24.5748 29.4097 25.134C29.8032 25.6932 30 26.3686 30 27.1603V30.0978H10ZM11.875 28.2228H28.125V27.1603C28.125 26.8269 28.026 26.5092 27.8281 26.2071C27.6302 25.905 27.3854 25.6811 27.0938 25.5352C25.7604 24.8894 24.5417 24.4467 23.4375 24.2071C22.3333 23.9675 21.1875 23.8477 20 23.8477C18.8125 23.8477 17.6562 23.9675 16.5312 24.2071C15.4062 24.4467 14.1875 24.8894 12.875 25.5352C12.5833 25.6811 12.3438 25.905 12.1562 26.2071C11.9688 26.5092 11.875 26.8269 11.875 27.1603V28.2228ZM20 18.1915C20.8125 18.1915 21.4844 17.9258 22.0156 17.3946C22.5469 16.8633 22.8125 16.1914 22.8125 15.3789C22.8125 14.5664 22.5469 13.8946 22.0156 13.3633C21.4844 12.832 20.8125 12.5664 20 12.5664C19.1875 12.5664 18.5156 12.832 17.9844 13.3633C17.4531 13.8946 17.1875 14.5664 17.1875 15.3789C17.1875 16.1914 17.4531 16.8633 17.9844 17.3946C18.5156 17.9258 19.1875 18.1915 20 18.1915Z" fill="#5F596B"/>
</svg>
