<svg width="195" height="195" viewBox="0 0 195 195" fill="none" xmlns="http://www.w3.org/2000/svg">
<g opacity="0.2" clip-path="url(#clip0_850_2690)">
<path d="M41.9555 106.613L36.3655 106.483C-24.8645 105.443 -4.45447 15.4831 61.0655 39.2731C109.426 56.8231 100.456 137.553 48.7155 150.813C25.8355 156.663 0.355545 152.503 19.3355 146.003C35.5855 140.543 48.7155 124.814 47.8055 111.944C47.5455 109.084 45.0755 106.613 41.9555 106.613Z" fill="#FF71A4"/>
<path d="M161.429 36.0228C220.319 58.6428 196.399 157.443 131.009 161.733C113.979 162.903 109.559 158.873 122.429 154.063C134.909 149.383 150.639 127.283 152.329 112.333C152.719 109.343 150.379 106.873 147.389 106.873C130.229 106.873 123.079 106.873 113.069 93.0933C88.4988 59.0333 121.129 20.5528 161.429 36.0228Z" fill="#FF71A4"/>
</g>
<defs>
<clipPath id="clip0_850_2690">
<rect width="195" height="195" fill="white" transform="matrix(-1 0 0 1 195 0)"/>
</clipPath>
</defs>
</svg>
