<svg id="noun-schedule-3499832" xmlns="http://www.w3.org/2000/svg" width="81.601" height="85" viewBox="0 0 81.601 85">
  <path id="Path_170929" data-name="Path 170929" d="M221.6,227.5v43.724A10.694,10.694,0,0,1,210.924,281.9H150.676A10.694,10.694,0,0,1,140,271.224V227.5Zm-68,30.6a10.23,10.23,0,0,0,10.2,10.2h6.8a10.23,10.23,0,0,0,10.2-10.2v-6.8a10.23,10.23,0,0,0-10.2-10.2h-6.8a10.23,10.23,0,0,0-10.2,10.2Z" transform="translate(-139.999 -196.9)" fill="#ff71a4"/>
  <path id="Path_170930" data-name="Path 170930" d="M395.2,332.5h-6.8a3.653,3.653,0,0,0-3.4,3.4v6.8a3.4,3.4,0,0,0,3.4,3.4h6.8a3.653,3.653,0,0,0,3.4-3.4v-6.8A3.4,3.4,0,0,0,395.2,332.5Z" transform="translate(-364.6 -281.5)" fill="#ec1818"/>
  <path id="Path_170931" data-name="Path 170931" d="M140,87.816V93.8h81.6V87.816A11.031,11.031,0,0,0,210.822,76.8,10.245,10.245,0,0,0,201.2,70h-3.4a10.244,10.244,0,0,0-9.622,6.8H173.422A10.244,10.244,0,0,0,163.8,70h-3.4a10.244,10.244,0,0,0-9.622,6.8A11.031,11.031,0,0,0,140,87.816Z" transform="translate(-140 -70)" fill="#ff71a4"/>
</svg>
