<svg id="vector" width="22" height="22" viewBox="0 0 22 22" fill="none" xmlns="http://www.w3.org/2000/svg">
<path fill-rule="evenodd" clip-rule="evenodd" d="M16.3341 0.5C14.964 0.5 13.6501 1.04426 12.6813 2.01306L6.58874 8.10559C3.79056 10.9038 1.80546 14.4098 0.845697 18.2489L0.551308 19.4264C0.24598 20.6477 1.35225 21.754 2.57356 21.4487L3.75112 21.1543C7.59018 20.1945 11.0962 18.2094 13.8944 15.4113L19.9869 9.31873C20.9557 8.34994 21.5 7.03597 21.5 5.66589C21.5 2.81285 19.1872 0.5 16.3341 0.5ZM14.5832 7.41679C15.5158 8.34939 16.597 8.74666 17.3989 8.60709L18.3371 7.6689C18.8683 7.13767 19.1668 6.41717 19.1668 5.66589C19.1668 4.10145 17.8986 2.83322 16.3341 2.83322C15.5828 2.83322 14.8623 3.13166 14.3311 3.66289L13.3929 4.60108C13.2533 5.40303 13.6506 6.48419 14.5832 7.41679Z" fill="currentColor"/>
</svg>
