<svg width="147" height="234" viewBox="0 0 147 234" fill="none" xmlns="http://www.w3.org/2000/svg">
<g id="Sketch-annotation-element-brush-pen-icon-asterisk-1" filter="url(#filter0_f_417_6078)">
<path id="Vector" fill-rule="evenodd" clip-rule="evenodd" d="M86.9541 51.3296C78.9231 53.6086 79.0719 53.1375 81.5441 68.7467L83.7571 82.7186L75.3969 80.7978C57.314 76.8363 54.9532 78.8887 48.5134 104.637C45.6231 116.06 45.4796 115.859 57.8572 119.829L67.9881 123.036C67.9881 123.036 49.0896 143.597 49.3652 143.217C47.2177 145.907 47.369 149.688 49.766 152.105C69.8736 173.09 86.5201 177.167 96.9302 163.769L99.5368 160.447L100.689 166.307C101.317 169.564 102.146 174.804 102.412 177.894C103.63 189.115 115.925 189.741 149.687 180.365C159.866 177.522 159.35 178.499 156.615 166.177L154.214 155.256L157.639 156.392C169.798 160.396 173.635 157.774 183.393 139.557C193.318 120.977 193.141 122.683 185.474 118.079C176.434 112.574 166.015 106.839 164.4 106.535C169.367 99.0349 178.438 84.9542 178.438 84.9542C179.724 83.184 180.159 80.9891 179.831 78.9151C179.502 76.8412 178.191 74.9228 176.438 73.7459C155.564 59.9323 144.59 57.7542 136.728 66.0487L132.312 70.6644C132.312 70.6644 128.976 51.7232 128.677 50.5398C127.462 45.697 105.475 46.0464 86.9541 51.3296ZM128.691 91.6026C133.482 90.0605 138.766 85.9786 144.014 79.5527C149.538 72.7475 149.429 72.7648 156.463 76.9096C159.555 78.7697 162.629 80.5206 163.354 80.8535C164.204 81.2783 163.648 82.7091 161.867 84.8933C144.457 105.666 140.353 114.372 148.431 113.093C149.85 112.868 171.281 125.251 171.281 125.251L161.523 145.594L157.811 144.056C134.106 134.271 128.431 137.296 136.461 155.494C143.098 170.555 143.714 173.031 140.221 173.585C138.802 173.809 121.453 178.012 121.453 178.012L118.74 165.126C115.855 151.149 112.567 124.032 90.4771 150.581C84.0918 158.306 83.3517 159.989 79.3974 156.923C78.2421 155.987 68.0853 146.966 68.0853 146.966C68.0853 146.966 79.3063 134.447 81.724 132.05C93.3131 121.151 91.4109 120.445 74.9936 114.989C68.7242 112.849 63.2711 110.915 62.7653 110.548C62.2596 110.181 69.1095 89.8499 69.1095 89.8499L80.3264 93.5561C96.1634 98.8803 104.632 98.658 101.491 89.4208C99.3618 83.0444 95.5583 59.0302 95.5583 59.0302L113.534 55.9593C113.534 55.9593 114.572 75.9357 117.145 85.8224C118.492 90.0849 119.947 94.3301 128.691 91.6026Z" fill="#D740F4" fill-opacity="0.4"/>
</g>
<defs>
<filter id="filter0_f_417_6078" x="-4" y="-3.91309" width="241.401" height="241.401" filterUnits="userSpaceOnUse" color-interpolation-filters="sRGB">
<feFlood flood-opacity="0" result="BackgroundImageFix"/>
<feBlend mode="normal" in="SourceGraphic" in2="BackgroundImageFix" result="shape"/>
<feGaussianBlur stdDeviation="2" result="effect1_foregroundBlur_417_6078"/>
</filter>
</defs>
</svg>
