<svg width="166" height="165" viewBox="0 0 166 165" fill="none" xmlns="http://www.w3.org/2000/svg">
<g id="Highlight Sparkle 5" opacity="0.4" clip-path="url(#clip0_216_6437)">
<g id="Group">
<path id="Vector" d="M54.0305 39.9244C56.6315 38.182 56.9368 34.8869 54.9363 30.3941C52.239 24.2135 50.6124 23.4422 49.0091 27.5198C47.5595 31.1752 51.736 41.4795 54.0305 39.9244Z" fill="#FE9923"/>
<path id="Vector_2" d="M62.9962 42.9044C64.3646 43.4024 67.5717 39.0123 67.4403 36.7534C67.2627 32.9838 59.545 9.31952 59.4988 7.80878C59.4072 4.13024 55.0231 8.15174 54.6786 12.2094C54.3968 15.9313 61.5226 42.368 62.9962 42.9044Z" fill="#FE9923"/>
<path id="Vector_3" d="M122.271 47.2628C120.778 51.2012 121.762 52.7545 124.717 51.0215C130.518 47.6946 133.249 44.4463 133.062 41.0316C132.908 37.0317 124.316 41.9716 122.271 47.2628Z" fill="#FE9923"/>
<path id="Vector_4" d="M94.2396 106.914C93.1499 109.744 94.5258 116.28 96.2725 116.558C99.431 117.05 101.582 111.14 99.7872 106.901C97.8778 102.322 95.9824 102.289 94.2396 106.914Z" fill="#FE9923"/>
<path id="Vector_5" d="M119.526 59.5318C116.696 64.3581 119.357 64.9081 130.733 61.8182C151.699 56.1234 157.35 53.6982 157.21 50.4801C157.1 46.1973 122.537 54.5326 119.526 59.5318Z" fill="#FE9923"/>
<path id="Vector_6" d="M98.2644 142.686C98.1003 139.698 92.374 115.803 90.385 109.641C89.9271 108.279 87.1283 111.383 86.3593 114.151C85.5903 116.919 85.7517 118.113 88.9195 131.516C90.806 139.434 92.497 146.742 92.6826 147.706C93.6681 152.367 98.56 147.933 98.2644 142.686Z" fill="#FE9923"/>
<path id="Vector_7" d="M38.0788 96.9969C41.7474 95.1053 44.6614 91.6841 43.9069 90.1546C43.4724 89.2196 41.2505 90.0841 38.7448 92.2197C34.6963 95.6463 34.2474 99.0086 38.0788 96.9969Z" fill="#FE9923"/>
<path id="Vector_8" d="M69.2062 100.013C69.6427 103.399 70.0829 103.5 74.4122 101.43C87.6349 95.0683 112.841 94.9202 135.301 101.004C143.393 103.172 153.483 98.5382 136.221 87.8332C114.448 74.2914 94.7129 53.8423 95.0626 45.1852C95.2798 39.3483 91.5423 38.6454 89.5449 44.1332C86.5873 52.2591 77.4665 54.5566 59.4727 51.5929C47.7768 49.6665 29.5625 46.981 28.5526 46.972C26.1593 46.9972 20.1072 52.9813 33.4153 59.9763C52.2436 69.8171 67.6364 87.1321 69.2062 100.013ZM74.9497 91.7659C71.961 80.8181 63.1447 67.8687 54.8464 62.3386C52.9333 61.0447 53.4603 60.5792 56.1928 61.0957C70.0992 63.8267 79.5877 62.3203 86.4342 56.4462L89.1028 54.1906C94.3895 64.7198 96.0357 69.2033 117.511 86.9993C118.43 87.7518 118.252 87.7471 111.193 87.3289C97.8015 86.4586 87.557 87.7495 79.5357 91.2838C75.4461 93.0222 75.269 93.0175 74.9497 91.7659Z" fill="#FE9923"/>
<path id="Vector_9" d="M43.4641 79.2372C43.1263 77.3813 42.1306 77.4969 34.8142 79.9133C22.0055 84.1553 17.5411 87.2512 19.1788 90.7754C19.9476 92.4296 21.2832 92.1987 30.429 89.0139C41.7583 85.0701 44.1488 83.2511 43.4641 79.2372Z" fill="#FE9923"/>
</g>
</g>
<defs>
<clipPath id="clip0_216_6437">
<rect width="128.139" height="128.139" fill="white" transform="translate(165.234 43.8262) rotate(110)"/>
</clipPath>
</defs>
</svg>
