<svg xmlns="http://www.w3.org/2000/svg" width="22.939" height="30.576" viewBox="0 0 22.939 30.576">
  <g id="map-pointer" transform="translate(-23.998 -0.002)">
    <path id="Subtraction_8" data-name="Subtraction 8" d="M-8411.53,16935.578a1.281,1.281,0,0,1-.9-.369c-.432-.432-10.57-10.662-10.57-18.74a11.408,11.408,0,0,1,3.364-8.105,11.385,11.385,0,0,1,8.107-3.361,11.381,11.381,0,0,1,8.1,3.361,11.407,11.407,0,0,1,3.363,8.105,15.447,15.447,0,0,1-1.582,6.256,36.091,36.091,0,0,1-3.517,5.947,56.943,56.943,0,0,1-5.463,6.531l0,.006A1.281,1.281,0,0,1-8411.53,16935.578Zm-.013-26.633a7.671,7.671,0,0,0-7.731,7.592,7.673,7.673,0,0,0,7.731,7.6,7.674,7.674,0,0,0,7.735-7.6A7.672,7.672,0,0,0-8411.543,16908.945Z" transform="translate(8447 -16905)" fill="#818ca3"/>
  </g>
</svg>
