<?xml version="1.0"?>
<svg xmlns="http://www.w3.org/2000/svg" xmlns:xlink="http://www.w3.org/1999/xlink" xmlns:svgjs="http://svgjs.com/svgjs" version="1.1" width="512" height="512" x="0" y="0" viewBox="0 0 512 512" style="enable-background:new 0 0 512 512" xml:space="preserve" class=""><g><path xmlns="http://www.w3.org/2000/svg" d="m226 512c-49.626 0-90-40.374-90-90v-302c0-66.168 53.832-120 120-120s120 53.832 120 120v302h-30v-302c0-49.626-40.374-90-90-90s-90 40.374-90 90v302c0 33.084 26.916 60 60 60s60-26.916 60-60v-242c0-16.542-13.458-30-30-30s-30 13.458-30 30v242h-30v-242c0-33.084 26.916-60 60-60s60 26.916 60 60v242c0 49.626-40.374 90-90 90z" fill="#c5c5c5" data-original="#000000" style="" class=""/></g></svg>
