<svg xmlns="http://www.w3.org/2000/svg" xmlns:xlink="http://www.w3.org/1999/xlink" width="25" height="25" viewBox="0 0 25 25"><defs><style>.a,.c{fill:rgba(1,31,63,0.82);}.a{stroke:#707070;}.b{clip-path:url(#a);}</style><clipPath id="a"><rect class="a" width="25" height="25" transform="translate(177 183)"/></clipPath></defs><g class="b" transform="translate(208 -177) rotate(90)"><g transform="translate(177 185.679)"><g transform="translate(0 0)"><path class="c" d="M24.739,10.369l-6.25-6.25a.893.893,0,0,0-1.524.631V7.428h-6.25a.893.893,0,1,0,0,1.786h7.143a.893.893,0,0,0,.893-.893V6.905L22.845,11,18.75,15.095V13.678a.893.893,0,0,0-.893-.893H8.036V10.107a.893.893,0,0,0-1.524-.631l-6.25,6.25a.893.893,0,0,0,0,1.263l6.25,6.25a.893.893,0,0,0,.631.262.882.882,0,0,0,.342-.068.893.893,0,0,0,.551-.825V19.929h6.25a.893.893,0,0,0,0-1.786H7.143a.893.893,0,0,0-.893.893v1.416L2.155,16.357,6.25,12.262v1.416a.893.893,0,0,0,.893.893h9.822V17.25a.893.893,0,0,0,1.524.631l6.25-6.25A.893.893,0,0,0,24.739,10.369Z" transform="translate(0 -3.857)"/></g></g></g></svg>