<svg id="Layer_1" data-name="Layer 1" xmlns="http://www.w3.org/2000/svg" viewBox="0 0 122 122"><defs><style>.cls-1{fill:#ef11b7;}.cls-2{fill:#fff;}</style></defs><title>Group 1190</title><g id="Group_1190" data-name="Group 1190"><circle id="Ellipse_89-2" data-name="Ellipse 89-2" class="cls-1" cx="61" cy="61" r="61"/><g id="frame-landscape"><path id="Path_4304" data-name="Path 4304" class="cls-2" d="M90,37H33.6a.92.92,0,0,0-.92.92v44.1a.93.93,0,0,0,.92.93H90a.93.93,0,0,0,.92-.93V38A.92.92,0,0,0,90,37ZM85.4,75.63,72.71,62.48a.4.4,0,0,0-.53,0l-8.8,7.75L52.12,56.36a.35.35,0,0,0-.3-.14.38.38,0,0,0-.29.15L38.22,74.23V42.57H85.4Z"/><path id="Path_4305" data-name="Path 4305" class="cls-2" d="M71.45,55.9a4.53,4.53,0,1,0-4.52-4.53h0A4.52,4.52,0,0,0,71.45,55.9Z"/></g></g></svg>