<svg xmlns="http://www.w3.org/2000/svg" width="111" height="56.356" viewBox="0 0 111 56.356">
  <g id="Group_2774" data-name="Group 2774" transform="translate(-1500 -908)">
    <rect id="Rectangle_156" data-name="Rectangle 156" width="111" height="56.356" rx="28.178" transform="translate(1500 908)" fill="#ef11b7"/>
    <path id="Path_961" data-name="Path 961" d="M5.033,35.411,7.726,23.757A1.247,1.247,0,0,1,8.788,22.8l15.055-1.559a.376.376,0,0,0,0-.744L8.788,19.045a1.17,1.17,0,0,1-1.063-.921L5.033,6.505A1.212,1.212,0,0,1,6.769,5.159L36.207,19.9a1.24,1.24,0,0,1,0,2.2L6.769,36.757A1.212,1.212,0,0,1,5.033,35.411Z" transform="translate(1543.051 914.015)" fill="#fff"/>
  </g>
</svg>
