<svg xmlns="http://www.w3.org/2000/svg" width="18.001" height="18" viewBox="0 0 18.001 18">
  <g id="about_us" data-name="about us" transform="translate(16820.501 2572)">
    <rect id="Rectangle_28475" data-name="Rectangle 28475" width="18" height="18" transform="translate(-16820.5 -2572)" fill="none"/>
    <g id="Group_132391" data-name="Group 132391" transform="translate(666.501 1136)">
      <path id="Path_172460" data-name="Path 172460" d="M286.261,226.777a8.967,8.967,0,0,1-1.229,1.545h0a2.027,2.027,0,0,1-1.054.487,1.177,1.177,0,0,1-1-.27.912.912,0,0,1-.281-.87c.071-.378,1.324-4.847,1.346-5.007a.463.463,0,0,0-.451-.511h-.365c.029-.1.053-.182.086-.279,0-.018,2.919-.443,3.083-.443-.067.234-1.656,5.837-1.7,6.02h0a.261.261,0,0,0,.119.3.228.228,0,0,0,.294-.042q.453-.49.856-1.023a.766.766,0,0,1,.3.1Z" transform="translate(-17763.203 -3922.671)"/>
      <path id="Path_172461" data-name="Path 172461" d="M347.818,113.127a1.122,1.122,0,0,1,1.113-1.133,1.138,1.138,0,1,1-1.113,1.14Z" transform="translate(-17826.227 -3816.801)"/>
      <path id="Path_172462" data-name="Path 172462" d="M97.555,15.277a2.5,2.5,0,0,1,2.492,2.492v9.792a2.5,2.5,0,0,1-2.492,2.492H87.763a2.5,2.5,0,0,1-2.492-2.492V17.769a2.5,2.5,0,0,1,2.492-2.492h9.792m0-1.277H87.763a3.769,3.769,0,0,0-3.769,3.769v9.792a3.769,3.769,0,0,0,3.769,3.769h9.792a3.769,3.769,0,0,0,3.769-3.769V17.769A3.769,3.769,0,0,0,97.555,14Z" transform="translate(-17570.996 -3722)"/>
    </g>
  </g>
</svg>
