<svg id="bank_icon" xmlns="http://www.w3.org/2000/svg" width="30" height="30" viewBox="0 0 30 30" fill="currentColor"><defs></defs><g transform="translate(-25.477 -412.477)"><rect class="a" width="30" height="30" rx="15" transform="translate(25.477 412.477)"/><g transform="translate(31.966 419.837)"><path class="b" fill="#fff" d="M56,176h1.193v5.368H56Zm0,0" transform="translate(-53.912 -169.44)"/><path class="b" fill="#fff" d="M.6,384H0v1.193H7.157V384Zm0,0" transform="translate(0 -369.686)"/><path class="b" fill="#fff" d="M32.179,352H16v1.193H32.179Zm0,0" transform="translate(-15.404 -338.879)"/><path class="b" fill="#fff" d="M42.386,320H40v1.193h2.386Zm0,0" transform="translate(-38.509 -308.072)"/><path class="b" fill="#fff" d="M42.386,145.193V144H40v1.193Zm0,0" transform="translate(-38.509 -138.633)"/><path class="b" fill="#fff" d="M376,176h1.193v5.529H376Zm0,0" transform="translate(-361.984 -169.44)"/><path class="b" fill="#fff" d="M360,145.193h2.386V144H360Zm0,0" transform="translate(-346.58 -138.633)"/><path class="b" fill="#fff" d="M160,176v5.368h1.193V176Zm0,0" transform="translate(-154.036 -169.44)"/><path class="b" fill="#fff" d="M144,320v1.193h2.386V320Zm0,0" transform="translate(-138.632 -308.072)"/><path class="b" fill="#fff" d="M144.6,145.193h1.789V144H144v1.193Zm0,0" transform="translate(-138.632 -138.633)"/><path class="b" fill="#fff" d="M272,176h1.193v5.529H272Zm0,0" transform="translate(-261.861 -169.44)"/><path class="b" fill="#fff" d="M256.6,145.193h1.789V144H256v1.193Zm0,0" transform="translate(-246.457 -138.633)"/><path class="b" fill="#fff" d="M17.3,5.368H0V2.385L8.648,0,17.3,2.385V5.367ZM8.648,1.236,1.193,3.294v.88H16.1v-.88L8.648,1.236Z" transform="translate(0)"/><path class="b" fill="#fff" d="M217.193,56.6a.6.6,0,1,1-.6-.6A.6.6,0,0,1,217.193,56.6Zm0,0" transform="translate(-207.948 -53.913)"/><path class="b" fill="#fff" d="M.9,384H0v1.193H10.774V384Zm0,0" transform="translate(6.561 -369.686)"/><path class="b" fill="#fff" d="M144,320v1.193h2.386V320Zm0,0" transform="translate(-134.494 -308.072)"/><path class="b" fill="#fff" d="M144,320v1.193h2.386V320Zm0,0" transform="translate(-130.58 -308.072)"/></g></g></svg>