<svg id="billing_address" width="20" height="20" viewBox="0 0 20 20" fill="none"
  xmlns="http://www.w3.org/2000/svg">
  <path d="M2.79406 12.3431L3.52347 12.1686L2.79406 12.3431ZM2.79406 7.36081L3.52347 7.53535L2.79406 7.36081ZM17.2059 7.36082L16.4765 7.53536L17.2059 7.36082ZM17.2059 12.3431L16.4765 12.1686L17.2059 12.3431ZM12.5413 16.9157L12.3732 16.1847L12.5413 16.9157ZM7.4587 16.9157L7.29063 17.6466L7.4587 16.9157ZM7.45869 2.78826L7.62676 3.51919L7.45869 2.78826ZM12.5413 2.78826L12.3732 3.51919L12.5413 2.78826ZM3.52347 12.1686C3.15884 10.6448 3.15884 9.05914 3.52347 7.53535L2.06466 7.18627C1.64511 8.93954 1.64511 10.7644 2.06466 12.5176L3.52347 12.1686ZM16.4765 7.53536C16.8412 9.05914 16.8412 10.6448 16.4765 12.1686L17.9353 12.5176C18.3549 10.7644 18.3549 8.93954 17.9353 7.18628L16.4765 7.53536ZM12.3732 16.1847C10.8123 16.5436 9.18768 16.5436 7.62676 16.1847L7.29063 17.6466C9.07275 18.0564 10.9273 18.0564 12.7094 17.6466L12.3732 16.1847ZM7.62676 3.51919C9.18768 3.16027 10.8123 3.16027 12.3732 3.51919L12.7094 2.05733C10.9273 1.64756 9.07275 1.64756 7.29063 2.05733L7.62676 3.51919ZM7.62676 16.1847C5.58345 15.7149 3.99859 14.1541 3.52347 12.1686L2.06466 12.5176C2.67536 15.0698 4.7049 17.052 7.29063 17.6466L7.62676 16.1847ZM12.7094 17.6466C15.2951 17.052 17.3246 15.0698 17.9353 12.5176L16.4765 12.1686C16.0014 14.1541 14.4166 15.7149 12.3732 16.1847L12.7094 17.6466ZM12.3732 3.51919C14.4166 3.98902 16.0014 5.54983 16.4765 7.53536L17.9353 7.18628C17.3246 4.63413 15.2951 2.65189 12.7094 2.05733L12.3732 3.51919ZM7.29063 2.05733C4.7049 2.65189 2.67536 4.63413 2.06466 7.18627L3.52347 7.53535C3.99859 5.54983 5.58345 3.98902 7.62676 3.51919L7.29063 2.05733ZM12.4838 17.5C12.4838 16.2766 12.4854 15.436 12.572 14.8046C12.6555 14.1963 12.8049 13.895 13.0205 13.6836L11.9705 12.6124C11.4244 13.1477 11.193 13.8206 11.086 14.6008C10.9821 15.3578 10.9838 16.3198 10.9838 17.5H12.4838ZM16.9352 11.6513C15.73 11.6513 14.7521 11.6498 13.9835 11.7511C13.1948 11.855 12.5145 12.0792 11.9705 12.6124L13.0205 13.6836C13.2383 13.4701 13.5518 13.3209 14.1795 13.2382C14.8273 13.1528 15.6884 13.1513 16.9352 13.1513V11.6513Z" fill="currentColor"/>
  <path d="M7.5 7.5H10M7.5 10H11.6667" stroke="currentColor" stroke-width="1.5" stroke-linecap="round"/>
</svg>
