<svg xmlns="http://www.w3.org/2000/svg" width="18.452" height="18.485" viewBox="0 0 18.452 18.485">
  <g id="Group_131913" data-name="Group 131913" transform="translate(-11372.428 11455.748)">
    <path id="Icon_feather-phone-call" data-name="Icon feather-phone-call" d="M17.234,8.122m2.5,6.638v2.5a1.666,1.666,0,0,1-1.816,1.666,16.484,16.484,0,0,1-7.188-2.557,16.242,16.242,0,0,1-5-5A16.484,16.484,0,0,1,3.175,4.149,1.666,1.666,0,0,1,4.832,2.333h2.5A1.666,1.666,0,0,1,9,3.766,10.7,10.7,0,0,0,9.58,6.106,1.666,1.666,0,0,1,9.2,7.864L8.147,8.921a13.327,13.327,0,0,0,5,5L14.2,12.861a1.666,1.666,0,0,1,1.757-.375,10.7,10.7,0,0,0,2.341.583A1.666,1.666,0,0,1,19.733,14.76Z" transform="translate(11369.761 -11456.696)" stroke-linecap="round" stroke-linejoin="round" stroke-width="1"/>
    <path id="Icon_feather-phone-call-2" data-name="Icon feather-phone-call" d="M13.944,4.832a4.165,4.165,0,0,1,3.29,3.29M13.944,1.5a7.5,7.5,0,0,1,6.622,6.613" transform="translate(11369.761 -11456.696)"  stroke-linecap="round" stroke-linejoin="round" stroke-width="1"/>
  </g>
</svg>
