<svg id="credit-card" width="20" height="20" viewBox="0 0 20 20" fill="none"
  xmlns="http://www.w3.org/2000/svg">
  <mask id="mask0_610_283112" style="mask-type:alpha" maskUnits="userSpaceOnUse" x="0" y="0" width="20" height="20">
    <rect width="20" height="20" fill="#D9D9D9"/>
  </mask>
  <g mask="url(#mask0_610_283112)">
    <path d="M17.9153 5.25642V14.7435C17.9153 15.1645 17.7695 15.5208 17.4778 15.8125C17.1862 16.1041 16.8299 16.25 16.4089 16.25H3.58845C3.1675 16.25 2.8112 16.1041 2.51953 15.8125C2.22786 15.5208 2.08203 15.1645 2.08203 14.7435V5.25642C2.08203 4.83547 2.22786 4.47917 2.51953 4.1875C2.8112 3.89583 3.1675 3.75 3.58845 3.75H16.4089C16.8299 3.75 17.1862 3.89583 17.4778 4.1875C17.7695 4.47917 17.9153 4.83547 17.9153 5.25642ZM3.33201 7.00321H16.6653V5.25642C16.6653 5.19231 16.6386 5.13354 16.5852 5.0801C16.5318 5.02669 16.473 4.99998 16.4089 4.99998H3.58845C3.52434 4.99998 3.46557 5.02669 3.41214 5.0801C3.35872 5.13354 3.33201 5.19231 3.33201 5.25642V7.00321ZM3.33201 9.66342V14.7435C3.33201 14.8077 3.35872 14.8664 3.41214 14.9199C3.46557 14.9733 3.52434 15 3.58845 15H16.4089C16.473 15 16.5318 14.9733 16.5852 14.9199C16.6386 14.8664 16.6653 14.8077 16.6653 14.7435V9.66342H3.33201Z" fill="currentColor"/>
  </g>
</svg>
