<svg id="noun_remove_user_218458" data-name="noun_remove user_218458" xmlns="http://www.w3.org/2000/svg" width="17.823" height="21.301" viewBox="0 0 17.823 21.301">
  <path id="Path_108924" data-name="Path 108924" d="M24.3,17.33V13.948a.383.383,0,0,1,.192-.336,1.146,1.146,0,0,0,.528-.984V9.15a2.77,2.77,0,0,0-2.759-2.735h-.744A2.739,2.739,0,0,0,18.757,9.15v3.5a1.209,1.209,0,0,0,.528.984.383.383,0,0,1,.192.336v3.382a.559.559,0,0,1-.312.5A27.843,27.843,0,0,0,14.271,21a1.278,1.278,0,0,0-.456.984v2.4a.408.408,0,0,1-.816,0v-2.4a2.158,2.158,0,0,1,.768-1.631,26.829,26.829,0,0,1,4.918-3.166V14.164a1.959,1.959,0,0,1-.7-1.511V9.15A3.558,3.558,0,0,1,21.54,5.6h.744a3.558,3.558,0,0,1,3.55,3.55v3.5a1.965,1.965,0,0,1-.7,1.511v3.022a28.26,28.26,0,0,1,4.918,3.166,2.121,2.121,0,0,1,.768,1.631v2.4a.408.408,0,0,1-.816,0v-2.4A1.278,1.278,0,0,0,29.552,21a27.843,27.843,0,0,0-4.894-3.142A.584.584,0,0,1,24.3,17.33Zm0,4.606a.392.392,0,0,0-.576,0l-1.847,1.847-1.847-1.847a.407.407,0,0,0-.576.576L21.3,24.359l-1.847,1.847a.392.392,0,0,0,0,.576.405.405,0,0,0,.576,0l1.847-1.847,1.847,1.847a.405.405,0,0,0,.576,0,.392.392,0,0,0,0-.576l-1.847-1.847L24.3,22.511A.392.392,0,0,0,24.3,21.936Z" transform="translate(-13 -5.6)" fill="#fff"/>
</svg>
