<svg id="Group_1108" data-name="Group 1108" xmlns="http://www.w3.org/2000/svg" width="18" height="18" viewBox="0 0 18 18">
  <g id="Group_1107" data-name="Group 1107">
    <path id="Path_1311" data-name="Path 1311" d="M37.079,436.11l-1.264-.21a7.135,7.135,0,0,0-.508-1.226l.745-1.042a1.109,1.109,0,0,0-.12-1.433l-1.121-1.123a1.106,1.106,0,0,0-1.429-.12l-1.045.744a7.108,7.108,0,0,0-1.271-.523l-.21-1.248a1.111,1.111,0,0,0-1.1-.929H28.175a1.11,1.11,0,0,0-1.1.929l-.216,1.278a6.937,6.937,0,0,0-1.222.515l-1.037-.744a1.111,1.111,0,0,0-1.43.122l-1.124,1.119a1.113,1.113,0,0,0-.12,1.433l.752,1.057a6.985,6.985,0,0,0-.5,1.23l-1.249.209a1.111,1.111,0,0,0-.929,1.1v1.583a1.11,1.11,0,0,0,.929,1.1l1.278.218a6.936,6.936,0,0,0,.515,1.222l-.74,1.031a1.109,1.109,0,0,0,.118,1.43l1.121,1.121a1.105,1.105,0,0,0,1.429.12l1.057-.752a7.069,7.069,0,0,0,1.188.489l.211,1.263A1.111,1.111,0,0,0,28.2,447h1.592a1.11,1.11,0,0,0,1.1-.929l.214-1.263a7.116,7.116,0,0,0,1.224-.508l1.042.745a1.1,1.1,0,0,0,.647.207h0a1.1,1.1,0,0,0,.786-.327l1.119-1.125a1.113,1.113,0,0,0,.12-1.433l-.744-1.041a7.135,7.135,0,0,0,.508-1.226l1.263-.211a1.112,1.112,0,0,0,.929-1.1v-1.584A1.1,1.1,0,0,0,37.079,436.11Zm-.086,2.681a.1.1,0,0,1-.083.1l-1.579.263a.5.5,0,0,0-.406.372,6.033,6.033,0,0,1-.655,1.574.509.509,0,0,0,.023.553l.929,1.309a.1.1,0,0,1-.011.128l-1.122,1.12a.1.1,0,0,1-.071.03.1.1,0,0,1-.056-.019l-1.3-.929a.509.509,0,0,0-.553-.023,6.01,6.01,0,0,1-1.576.654.5.5,0,0,0-.372.406l-.272,1.581a.1.1,0,0,1-.1.083H28.208a.1.1,0,0,1-.1-.083l-.261-1.58a.5.5,0,0,0-.372-.406,6.228,6.228,0,0,1-1.542-.632.521.521,0,0,0-.256-.068.5.5,0,0,0-.293.094l-1.316.936a.114.114,0,0,1-.056.019.1.1,0,0,1-.071-.03l-1.121-1.12a.1.1,0,0,1-.011-.123l.925-1.3a.516.516,0,0,0,.023-.557,5.958,5.958,0,0,1-.662-1.572.514.514,0,0,0-.406-.372l-1.589-.272a.1.1,0,0,1-.083-.1v-1.581a.1.1,0,0,1,.083-.1l1.568-.263a.508.508,0,0,0,.41-.376,6.044,6.044,0,0,1,.641-1.577.5.5,0,0,0-.026-.549l-.937-1.316a.1.1,0,0,1,.011-.128l1.121-1.121a.1.1,0,0,1,.071-.03.1.1,0,0,1,.056.019l1.3.925a.516.516,0,0,0,.557.023,5.958,5.958,0,0,1,1.572-.662.514.514,0,0,0,.372-.406l.271-1.591a.1.1,0,0,1,.1-.083h1.578a.1.1,0,0,1,.1.083l.263,1.568a.509.509,0,0,0,.376.41,6.074,6.074,0,0,1,1.613.662.509.509,0,0,0,.553-.023l1.3-.933a.114.114,0,0,1,.056-.019.1.1,0,0,1,.071.03l1.121,1.121a.1.1,0,0,1,.011.128l-.929,1.3a.509.509,0,0,0-.023.553,6.01,6.01,0,0,1,.654,1.576.5.5,0,0,0,.406.372l1.579.267a.1.1,0,0,1,.083.1v1.583Z" transform="translate(-20 -429)" fill="#fff"/>
    <path id="Path_1312" data-name="Path 1312" d="M29,434.114A3.884,3.884,0,1,0,32.886,438,3.884,3.884,0,0,0,29,434.114Zm0,6.753A2.869,2.869,0,1,1,31.871,438,2.868,2.868,0,0,1,29,440.867Z" transform="translate(-20 -429)" fill="#fff"/>
  </g>
</svg>
