<svg xmlns="http://www.w3.org/2000/svg" width="17.234" height="17.236" viewBox="0 0 17.234 17.236">
  <g id="Group_9998" transform="translate(9519.184 417.971)">
    <g id="Path_171162" data-name="Path 171162">
      <path id="Path_171293" data-name="Path 171293" d="M-9503.3-400.734h-8.583c-.031-.01-.062-.023-.094-.03a1.394,1.394,0,0,1-1.109-.923,7.083,7.083,0,0,1-.208-1.151c-.049-.314-.082-.63-.123-.959h-4.18a1.452,1.452,0,0,1-1.287-.629,3.971,3.971,0,0,1-.3-.717v-11.476a.347.347,0,0,0,.024-.062,1.484,1.484,0,0,1,1.483-1.279q2.607-.021,5.216,0a1.384,1.384,0,0,1,1.373.93,5.975,5.975,0,0,1,.214,1.15c.051.32.084.642.125.976h.212q3.476,0,6.95.007a1.887,1.887,0,0,1,.764.152,1.449,1.449,0,0,1,.871,1.416v10.986a1.47,1.47,0,0,1-.63,1.3,3.884,3.884,0,0,1-.719.309Zm-8.184-1.01h7.9c.439,0,.621-.183.621-.624v-10.9c0-.441-.184-.624-.622-.624h-7.033a.345.345,0,0,0,.009.1q.218,1.76.438,3.519l.724,5.821a.636.636,0,0,1-.161.54c-.244.277-.484.559-.727.839Zm.972-3.062c-.076-.607-.151-1.2-.225-1.784l-.551-4.455q-.333-2.679-.667-5.355a.546.546,0,0,0-.149-.391.548.548,0,0,0-.383-.169.531.531,0,0,0-.088.005h-4.98c-.44,0-.623.183-.623.622v10.9c0,.44.183.623.622.624h7.044Zm-1.719,2.38,1.177-1.361h-1.344Z"/>
    </g>
    <g id="Path_171163" data-name="Path 171163">
      <path id="Path_171294" data-name="Path 171294" d="M-9505.83-407.125l.921.753c.062.05.124.1.185.147a.5.5,0,0,1,.2.326.5.5,0,0,1-.088.374l-.015.019a.5.5,0,0,1-.7.1l-.032-.026c-.33-.26-.652-.53-.978-.8-.065-.053-.128-.107-.2-.166-.331.271-.655.537-.979.8-.083.067-.165.135-.254.194a.5.5,0,0,1-.689-.11.5.5,0,0,1,.088-.693c.326-.274.66-.539.99-.809.043-.035.083-.074.128-.114-.158-.228-.317-.45-.469-.676a5.522,5.522,0,0,1-.669-1.406.168.168,0,0,0-.185-.141.5.5,0,0,1-.352-.153.5.5,0,0,1-.14-.357h0a.5.5,0,0,1,.154-.351.5.5,0,0,1,.357-.139h1.507v-.458a.511.511,0,0,1,.467-.55h.041a.511.511,0,0,1,.5.521v.487h1.39a1.229,1.229,0,0,1,.219.01.507.507,0,0,1,.41.521.509.509,0,0,1-.48.476c-.076.006-.148-.009-.181.1a6.265,6.265,0,0,1-1.124,2.07.339.339,0,0,0-.025.051Zm-.7-.756a5.108,5.108,0,0,0,.817-1.458h-1.637a5.138,5.138,0,0,0,.816,1.458Z"/>
    </g>
    <g id="Path_171164" data-name="Path 171164">
      <path id="Path_171295" data-name="Path 171295" d="M-9513.91-410.352h-1.4c-.1.526-.208,1.047-.313,1.567a.512.512,0,0,1-.5.444.5.5,0,0,1-.5-.4.617.617,0,0,1,0-.232q.494-2.478.992-4.956a.522.522,0,0,1,.188-.355.522.522,0,0,1,.384-.117h.879a.525.525,0,0,1,.384.117.525.525,0,0,1,.188.355h0q.5,2.469.989,4.939a.512.512,0,0,1-.364.626l-.036.008a.51.51,0,0,1-.381-.088.509.509,0,0,1-.207-.333v-.019C-9513.71-409.3-9513.81-409.82-9513.91-410.352Zm-1.188-1.028h.983l-.4-2h-.184Z"/>
    </g>
  </g>
</svg>