<svg xmlns="http://www.w3.org/2000/svg" width="16.766" height="18.105" viewBox="0 0 16.766 18.105">
  <g id="Group_9997" transform="translate(9519.23 150.019)">
    <g id="Group_130888" data-name="Group 130888">
      <g id="Path_171171" data-name="Path 171171">
        <path id="Path_171307" data-name="Path 171307" d="M-9509.84-149.969c.115.278.4.661.306.811a1.148,1.148,0,0,1-.837.433c-1.4.044-3.806.012-5.21.022a2.132,2.132,0,0,0-2.328,1.916,2.2,2.2,0,0,0,0,.393q-.029,5.407,0,10.816a2.148,2.148,0,0,0,1.934,2.342,2.151,2.151,0,0,0,.438,0c1.357.008,3.714,0,5.072,0,.446,0,.9.034.915.612.013.629-.469.654-.94.653-1.381,0-3.761.013-5.141,0a3.344,3.344,0,0,1-3.518-3.159v-.241c-.051-3.721-.04-7.444,0-11.166a3.313,3.313,0,0,1,2.4-3.266,2.2,2.2,0,0,0,.3-.156Z"/>
        <path id="Path_171308" data-name="Path 171308" d="M-9513.99-131.918c-.608,0-1.179,0-1.639-.006a3.369,3.369,0,0,1-2.445-.864,3.371,3.371,0,0,1-1.122-2.343v-.244c-.046-3.347-.046-6.9,0-11.165a3.361,3.361,0,0,1,2.437-3.314,2.4,2.4,0,0,0,.287-.15l.013-.007h.014l6.648-.008.012.031c.035.084.087.18.137.273.126.234.246.455.165.584a1.2,1.2,0,0,1-.875.456c-.91.028-2.26.024-3.45.022h-1.764a2.091,2.091,0,0,0-1.53.464,2.065,2.065,0,0,0-.748,1.407,2.1,2.1,0,0,0,0,.384c-.02,3.593-.02,7.231,0,10.82a2.086,2.086,0,0,0,.471,1.54,2.08,2.08,0,0,0,1.416.753,2.2,2.2,0,0,0,.431,0c.941.005,2.347,0,3.587,0h1.49c.378,0,.948,0,.965.661a.659.659,0,0,1-.162.5,1.114,1.114,0,0,1-.807.2H-9512Zm-1.642-.106c.955.009,2.376.005,3.63,0h1.514a1.073,1.073,0,0,0,.758-.174.563.563,0,0,0,.133-.428c-.015-.521-.4-.563-.865-.563h-5.072a2.207,2.207,0,0,1-.445,0,2.183,2.183,0,0,1-1.484-.789,2.19,2.19,0,0,1-.491-1.608c-.022-3.583-.022-7.223,0-10.811a2.28,2.28,0,0,1,0-.4,2.167,2.167,0,0,1,.785-1.474,2.187,2.187,0,0,1,1.6-.487h1.76c1.189,0,2.538.007,3.445-.022a1.1,1.1,0,0,0,.8-.414c.045-.075-.076-.3-.173-.479-.045-.084-.092-.171-.128-.251l-6.567.007a2.335,2.335,0,0,1-.294.152,3.262,3.262,0,0,0-2.369,3.219c-.047,4.271-.047,7.818,0,11.167v.238a3.268,3.268,0,0,0,1.088,2.274,3.271,3.271,0,0,0,2.38.843Z"/>
      </g>
      <g id="Path_171172" data-name="Path 171172">
        <path id="Path_171309" data-name="Path 171309" d="M-9504.88-140.347h-9.322a1.619,1.619,0,0,1-.691-.048c-.216-.111-.518-.383-.5-.547a1.04,1.04,0,0,1,.521-.607,1.521,1.521,0,0,1,.69-.045h9.312l.082-.16-1.865-1.844c-.167-.165-.415-.3-.476-.5a3.766,3.766,0,0,1-.053-.937c.313.021.738-.081.922.085.949.865,1.833,1.8,2.751,2.707,1.324,1.3,1.35,1.229.011,2.542-.868.852-1.721,1.719-2.582,2.581-.316.318-.672.6-1.08.193s-.145-.765.18-1.084l2.194-2.155Z"/>
        <path id="Path_171310" data-name="Path 171310" d="M-9506.75-136.674a.637.637,0,0,1-.45-.218.661.661,0,0,1-.222-.462,1.084,1.084,0,0,1,.4-.693l2.168-2.128-.063-.122h-9.292a1.643,1.643,0,0,1-.705-.05c-.21-.107-.558-.4-.535-.6a1.085,1.085,0,0,1,.548-.647,1.591,1.591,0,0,1,.721-.049h9.273l.052-.1-1.84-1.818a1.783,1.783,0,0,0-.164-.144.907.907,0,0,1-.324-.377,3.818,3.818,0,0,1-.056-.955v-.05h.051a2.988,2.988,0,0,0,.312,0,.934.934,0,0,1,.639.1c.633.574,1.242,1.19,1.832,1.786.3.3.612.618.923.923l.133.13c.59.577.886.867.887,1.177s-.314.625-.938,1.237l-.07.069c-.631.619-1.265,1.256-1.877,1.873l-.7.707a1.449,1.449,0,0,1-.526.381.56.56,0,0,1-.175.03Zm-.856-3.723h2.754l.125.241-.026.026-2.2,2.155a1,1,0,0,0-.373.621.552.552,0,0,0,.2.391.482.482,0,0,0,.521.164,1.373,1.373,0,0,0,.486-.356l.7-.708c.613-.617,1.247-1.254,1.879-1.873l.07-.069c.6-.593.908-.891.908-1.166s-.287-.548-.857-1.1l-.133-.131c-.312-.3-.622-.62-.923-.924-.589-.6-1.2-1.21-1.827-1.782a.868.868,0,0,0-.567-.076c-.093,0-.187.009-.274.006a3.709,3.709,0,0,0,.056.876.868.868,0,0,0,.291.324c.059.048.119.1.172.15l1.891,1.869-.112.22h-9.343a1.517,1.517,0,0,0-.675.043.992.992,0,0,0-.487.574c-.014.118.254.375.474.487a1.567,1.567,0,0,0,.662.044Z"/>
      </g>
    </g>
  </g>
</svg>
