<svg xmlns="http://www.w3.org/2000/svg" width="14.781" height="16.825" viewBox="0 0 14.781 16.825">
  <g id="Group_10002" data-name="Manage addresses" transform="translate(9518.188 729.969)">
    <g id="Group_130880" data-name="Group 130880">
      <g id="Path_171113" data-name="Path 171113">
        <path id="Path_171211" data-name="Path 171211" d="M-9511.13-729.969h.657l.468.066a5.2,5.2,0,0,1,2.705,1.24,5.363,5.363,0,0,1,1.9,3.83,5.216,5.216,0,0,1-.8,3.175c-.56.9-1.136,1.78-1.7,2.669-.024.039-.044.081-.07.131l.092.026c.679.166,1.364.308,2.034.5a4.862,4.862,0,0,1,1.661.838,1.887,1.887,0,0,1,.744,1.086,1.535,1.535,0,0,1-.5,1.47,4.294,4.294,0,0,1-1.458.9,12.45,12.45,0,0,1-3.408.786,18.532,18.532,0,0,1-4.939-.126,10.343,10.343,0,0,1-2.689-.761,2.685,2.685,0,0,1-1.755-1.767v-.394a4.151,4.151,0,0,1,.18-.49,2.686,2.686,0,0,1,1.209-1.094,9.62,9.62,0,0,1,2.7-.881c.157-.031.316-.059.486-.091-.025-.047-.038-.071-.053-.094-.569-.889-1.144-1.774-1.7-2.668a5.335,5.335,0,0,1-.713-4.076,5.257,5.257,0,0,1,1.058-2.215,5.265,5.265,0,0,1,2.73-1.836A11.6,11.6,0,0,1-9511.13-729.969Zm.326,13.684c.045-.068.076-.112.1-.157l3.6-5.63a4.36,4.36,0,0,0,.582-3.582,4.418,4.418,0,0,0-5.15-3.237,4.346,4.346,0,0,0-2.717,1.758,4.48,4.48,0,0,0-.174,4.963l2.7,4.218c.347.547.7,1.1,1.06,1.667Zm0,2.178c.622-.04,1.245-.066,1.866-.123a11.1,11.1,0,0,0,3.14-.707,3.085,3.085,0,0,0,1.2-.744.523.523,0,0,0,.1-.734.472.472,0,0,0-.118-.113,3.845,3.845,0,0,0-.856-.592,9.631,9.631,0,0,0-2.9-.8.286.286,0,0,0-.333.165c-.544.866-1.1,1.726-1.644,2.59a.516.516,0,0,1-.547.276.544.544,0,0,1-.374-.291c-.559-.877-1.119-1.752-1.674-2.631a.2.2,0,0,0-.248-.112c-.225.047-.454.067-.681.109a7.806,7.806,0,0,0-2.512.819,3.075,3.075,0,0,0-.654.512.5.5,0,0,0-.055.705.63.63,0,0,0,.055.055,2.042,2.042,0,0,0,.353.317,5.546,5.546,0,0,0,1.7.745,16.6,16.6,0,0,0,4.178.553Z"/>
      </g>
      <g id="Path_171114" data-name="Path 171114">
        <path id="Path_171212" data-name="Path 171212" d="M-9510.8-726.978a2.471,2.471,0,0,1,2.462,2.469,2.473,2.473,0,0,1-2.471,2.459,2.471,2.471,0,0,1-2.454-2.46A2.47,2.47,0,0,1-9510.8-726.978Zm-1.479,2.471a1.491,1.491,0,0,0,1.48,1.47,1.492,1.492,0,0,0,1.475-1.476,1.492,1.492,0,0,0-1.488-1.479,1.492,1.492,0,0,0-1.469,1.485Z"/>
      </g>
    </g>
  </g>
</svg>
