<svg id="manageList" width="20" height="20" viewBox="0 0 20 20" fill="none"
    xmlns="http://www.w3.org/2000/svg">
    <mask id="mask0_522_184093" style="mask-type:alpha" maskUnits="userSpaceOnUse" x="0" y="0" width="20" height="20">
        <rect width="20" height="20" fill="#D9D9D9"/>
    </mask>
    <g mask="url(#mask0_522_184093)">
        <path d="M10.0013 8.33266H14.0077V7.08268H10.0013V8.33266ZM10.0013 12.916H14.0077V11.666H10.0013V12.916ZM7.50128 9.05381C7.87414 9.05381 8.19171 8.92267 8.45399 8.66039C8.71627 8.3981 8.84741 8.08053 8.84741 7.70768C8.84741 7.33482 8.71627 7.01725 8.45399 6.75497C8.19171 6.49268 7.87414 6.36154 7.50128 6.36154C7.12842 6.36154 6.81085 6.49268 6.54857 6.75497C6.28629 7.01725 6.15516 7.33482 6.15516 7.70768C6.15516 8.08053 6.28629 8.3981 6.54857 8.66039C6.81085 8.92267 7.12842 9.05381 7.50128 9.05381ZM7.50128 13.6371C7.87414 13.6371 8.19171 13.506 8.45399 13.2437C8.71627 12.9814 8.84741 12.6638 8.84741 12.291C8.84741 11.9181 8.71627 11.6006 8.45399 11.3383C8.19171 11.076 7.87414 10.9448 7.50128 10.9448C7.12842 10.9448 6.81085 11.076 6.54857 11.3383C6.28629 11.6006 6.15516 11.9181 6.15516 12.291C6.15516 12.6638 6.28629 12.9814 6.54857 13.2437C6.81085 13.506 7.12842 13.6371 7.50128 13.6371ZM4.42439 17.0826C4.00344 17.0826 3.64714 16.9368 3.35547 16.6451C3.0638 16.3535 2.91797 15.9972 2.91797 15.5762V4.42243C2.91797 4.00149 3.0638 3.64518 3.35547 3.35352C3.64714 3.06185 4.00344 2.91602 4.42439 2.91602H15.5782C15.9991 2.91602 16.3554 3.06185 16.6471 3.35352C16.9388 3.64518 17.0846 4.00149 17.0846 4.42243V15.5762C17.0846 15.9972 16.9388 16.3535 16.6471 16.6451C16.3554 16.9368 15.9991 17.0826 15.5782 17.0826H4.42439ZM4.42439 15.8327H15.5782C15.6423 15.8327 15.7011 15.806 15.7545 15.7525C15.8079 15.6991 15.8346 15.6403 15.8346 15.5762V4.42243C15.8346 4.35832 15.8079 4.29955 15.7545 4.24612C15.7011 4.1927 15.6423 4.166 15.5782 4.166H4.42439C4.36027 4.166 4.3015 4.1927 4.24807 4.24612C4.19466 4.29955 4.16795 4.35832 4.16795 4.42243V15.5762C4.16795 15.6403 4.19466 15.6991 4.24807 15.7525C4.3015 15.806 4.36027 15.8327 4.42439 15.8327Z" fill="currentColor"/>
    </g>
</svg>
