<svg xmlns="http://www.w3.org/2000/svg" width="18.213" height="16.498" viewBox="0 0 18.213 16.498">
  <g id="refer_frnd" data-name="Refer your friends" transform="translate(9520.184 639.97)">
    <path id="Path_171223" data-name="Path 171223" d="M-9503.71-623.472h-14.725a.224.224,0,0,0-.061-.03,1.954,1.954,0,0,1-1.683-2c0-.658-.018-1.316,0-1.973a5.6,5.6,0,0,1,3.06-5c.139-.077.284-.142.432-.215a3.971,3.971,0,0,1-1.121-5.5,3.9,3.9,0,0,1,.39-.5,3.8,3.8,0,0,1,2.711-1.271,3.941,3.941,0,0,1,3.632,1.949,3.969,3.969,0,0,1,5.434-1.409,3.949,3.949,0,0,1,.6.437,3.809,3.809,0,0,1,1.345,2.856,3.941,3.941,0,0,1-1.78,3.439l.173.082a5.656,5.656,0,0,1,3.171,3.855c.074.286.1.581.157.872v2.7c-.013.038-.027.075-.036.112a1.943,1.943,0,0,1-1.369,1.5,1.972,1.972,0,0,1-.334.1Zm-10.8-1.072h3.662a.894.894,0,0,0,.949-.834c0-.037,0-.073,0-.11,0-.651.008-1.3,0-1.956a5.387,5.387,0,0,0-.07-.812,4.611,4.611,0,0,0-5.357-3.717l-.121.023a4.608,4.608,0,0,0-3.663,4.565v1.831a.911.911,0,0,0,.8,1.012.932.932,0,0,0,.212,0Zm5.468-.015a.582.582,0,0,0,.083.015h5.032a.887.887,0,0,0,.891-.882c0-.012,0-.023,0-.035,0-.438.007-.877,0-1.316a10.526,10.526,0,0,0-.05-1.313,4.6,4.6,0,0,0-5.2-3.908,4.591,4.591,0,0,0-.862.208,4.215,4.215,0,0,0-1.118.571c.041.052.069.089.1.125a5.361,5.361,0,0,1,1.3,3.057c.056.713.031,1.432.041,2.149a2.562,2.562,0,0,1-.212,1.333Zm-5.454-14.348a2.9,2.9,0,0,0-2.9,2.887,2.91,2.91,0,0,0,2.889,2.9,2.9,2.9,0,0,0,2.9-2.89,2.9,2.9,0,0,0-2.887-2.892Zm3.955,2.888a2.905,2.905,0,0,0,2.889,2.9,2.91,2.91,0,0,0,2.9-2.892,2.9,2.9,0,0,0-2.893-2.9,2.9,2.9,0,0,0-2.895,2.9Zm-.533,1.993a4.117,4.117,0,0,1-1.239,1.314l1.236.713,1.242-.713a4.078,4.078,0,0,1-1.24-1.309Z"/>
  </g>
</svg>