<svg xmlns="http://www.w3.org/2000/svg" width="19.096" height="18" viewBox="0 0 19.096 18">
  <g id="noun_Error_log_1236835" transform="translate(16851 2568)">
    <rect id="Rectangle_28475" data-name="Rectangle 28475" width="18" height="18" transform="translate(-16851 -2568)" fill="none"/>
    <g id="noun_Error_log_1236835" data-name="noun_Error log_1236835" transform="translate(-16850 -2567)">
      <g id="Group_40508" data-name="Group 40508">
        <g id="Group_40507" data-name="Group 40507">
          <path id="Path_108913" data-name="Path 108913" d="M28.957,25.434V21.32h-.018a.376.376,0,0,0-.072-.108l-2.12-1.94a.155.155,0,0,0-.108-.054V19.2H17.854v9.432l-3.324,5.749a.617.617,0,0,0,0,.611.582.582,0,0,0,.521.305h9.486a.582.582,0,0,0,.521-.305.617.617,0,0,0,0-.611l-.521-.916h4.4V29.53l3.4-4.006L30.3,23.8ZM26.64,19.9,28.2,21.32H26.64ZM24.61,34.65c.018.036.018.054,0,.072s-.036.036-.054.036H15.07c-.036,0-.054-.018-.054-.036-.018-.018-.018-.036,0-.072l4.743-8.21c.018-.036.036-.036.054-.036s.054,0,.054.036Zm3.809-1.725H24.232l-1.186-2.048h2.605a.269.269,0,0,0,0-.539h-2.91l-1.347-2.318h4.689a.269.269,0,1,0,0-.539H21.088l-.755-1.311a.6.6,0,0,0-1.042,0l-.88,1.527V19.739H26.1v2.12h2.318v4.132a.108.108,0,0,0,.018.072l-2.371,2.821V30.9l1.994-.287.359-.431ZM26.6,29.6l.665.575-.665.09Zm1.258.377-1.168-1.006,3.252-3.863,1.186,1.024Zm3.737-4.4-.126.144L30.287,24.7l.108-.144Z" transform="translate(-14.45 -19.2)" fill="currentColor" stroke="currentColor" stroke-width="0.3"/>
          <path id="Path_108914" data-name="Path 108914" d="M49.093,49.3H42.769a.269.269,0,0,0,0,.539h6.342a.276.276,0,0,0,.269-.269A.293.293,0,0,0,49.093,49.3Z" transform="translate(-37.461 -43.892)" fill="currentColor" stroke="currentColor" stroke-width="0.3"/>
          <path id="Path_108915" data-name="Path 108915" d="M42.769,33.939h3.665a.269.269,0,1,0,0-.539H42.769a.276.276,0,0,0-.269.269A.265.265,0,0,0,42.769,33.939Z" transform="translate(-37.461 -30.849)" fill="currentColor" stroke="currentColor" stroke-width="0.3"/>
          <path id="Path_108916" data-name="Path 108916" d="M42.8,68.869v3.917a.269.269,0,1,0,.539,0V68.869a.276.276,0,0,0-.269-.269A.265.265,0,0,0,42.8,68.869Z" transform="translate(-37.707 -59.725)" fill="currentColor" stroke="currentColor" stroke-width="0.3"/>
          <path id="Path_108917" data-name="Path 108917" d="M41.4,96.321a.521.521,0,1,0,.521-.521A.521.521,0,0,0,41.4,96.321Zm.539,0c0,.018-.036.018-.036,0s0-.018.036,0C41.921,96.3,41.939,96.3,41.939,96.321Z" transform="translate(-36.558 -82.038)" fill="currentColor" stroke="currentColor" stroke-width="0.3"/>
        </g>
      </g>
    </g>
  </g>
</svg>