<svg id="wallet" width="20" height="20" viewBox="0 0 20 20" fill="none"
  xmlns="http://www.w3.org/2000/svg">
  <path d="M6.66797 7.5L10.0013 7.5" stroke="currentColor" stroke-width="1.5" stroke-linecap="round"/>
  <path d="M2.40319 12.626L3.13109 12.4453L2.40319 12.626ZM2.40319 7.37396L3.13109 7.5547L2.40319 7.37396ZM17.5942 7.37396L18.3221 7.19322L17.5942 7.37396ZM17.5942 12.626L16.8663 12.4453L17.5942 12.626ZM12.595 17.2158L12.4328 16.4836H12.4328L12.595 17.2158ZM7.40239 17.2158L7.56464 16.4836L7.40239 17.2158ZM7.40239 2.78421L7.56464 3.51645H7.56464L7.40239 2.78421ZM12.595 2.78421L12.7573 2.05197V2.05197L12.595 2.78421ZM7.02416 17.132L6.86191 17.8642L7.02416 17.132ZM12.9732 17.132L13.1355 17.8642H13.1355L12.9732 17.132ZM12.9732 2.86802L12.811 3.60025L12.9732 2.86802ZM7.02416 2.86802L6.86191 2.13578V2.13578L7.02416 2.86802ZM15.5765 12.0864L15.442 12.8242H15.442L15.5765 12.0864ZM15.5276 12.0775L15.6622 11.3396L15.6622 11.3396L15.5276 12.0775ZM15.5276 7.92253L15.6622 8.66036L15.6622 8.66036L15.5276 7.92253ZM15.5765 7.91362L15.442 7.17579L15.442 7.17579L15.5765 7.91362ZM17.4486 8.85394C17.8281 9.01994 18.2703 8.84687 18.4363 8.46737C18.6023 8.08788 18.4293 7.64566 18.0498 7.47966L17.4486 8.85394ZM18.0498 12.5203C18.4293 12.3543 18.6023 11.9121 18.4363 11.5326C18.2703 11.1531 17.8281 10.9801 17.4486 11.1461L18.0498 12.5203ZM13.8138 10.5235L13.0927 10.7295L13.8138 10.5235ZM13.8138 9.47649L14.535 9.68248V9.68248L13.8138 9.47649ZM7.18642 3.60026L7.56464 3.51645L7.24014 2.05197L6.86191 2.13578L7.18642 3.60026ZM12.4328 3.51645L12.811 3.60025L13.1355 2.13578L12.7573 2.05197L12.4328 3.51645ZM12.811 16.3997L12.4328 16.4836L12.7573 17.948L13.1355 17.8642L12.811 16.3997ZM7.56464 16.4836L7.18641 16.3997L6.86191 17.8642L7.24014 17.948L7.56464 16.4836ZM3.13109 12.4453C2.73235 10.8395 2.73235 9.16051 3.13109 7.5547L1.6753 7.19321C1.21761 9.03641 1.21761 10.9636 1.6753 12.8068L3.13109 12.4453ZM16.8663 7.55471C17.265 9.16051 17.265 10.8395 16.8663 12.4453L18.3221 12.8068C18.7798 10.9636 18.7798 9.03641 18.3221 7.19322L16.8663 7.55471ZM12.4328 16.4836C10.8295 16.8388 9.16791 16.8388 7.56464 16.4836L7.24014 17.948C9.05715 18.3507 10.9402 18.3507 12.7573 17.948L12.4328 16.4836ZM7.56464 3.51645C9.16791 3.16118 10.8295 3.16118 12.4328 3.51645L12.7573 2.05197C10.9402 1.64934 9.05715 1.64934 7.24014 2.05197L7.56464 3.51645ZM7.18641 16.3997C5.19396 15.9582 3.62305 14.4265 3.13109 12.4453L1.6753 12.8068C2.30443 15.3404 4.31345 17.2995 6.86191 17.8642L7.18641 16.3997ZM13.1355 17.8642C15.6839 17.2995 17.693 15.3404 18.3221 12.8068L16.8663 12.4453C16.3744 14.4265 14.8034 15.9582 12.811 16.3997L13.1355 17.8642ZM12.811 3.60025C14.8034 4.04175 16.3744 5.57349 16.8663 7.55471L18.3221 7.19322C17.693 4.65957 15.6839 2.70048 13.1355 2.13578L12.811 3.60025ZM6.86191 2.13578C4.31346 2.70048 2.30443 4.65957 1.6753 7.19321L3.13109 7.5547C3.62305 5.57349 5.19396 4.04175 7.18642 3.60026L6.86191 2.13578ZM15.711 11.3485L15.6622 11.3396L15.3931 12.8153L15.442 12.8242L15.711 11.3485ZM15.6622 8.66036L15.711 8.65146L15.442 7.17579L15.3931 7.18469L15.6622 8.66036ZM15.711 8.65146C16.2975 8.54453 16.9025 8.61503 17.4486 8.85394L18.0498 7.47966C17.2301 7.12112 16.3221 7.01531 15.442 7.17579L15.711 8.65146ZM15.442 12.8242C16.3221 12.9847 17.2301 12.8789 18.0498 12.5203L17.4486 11.1461C16.9025 11.385 16.2975 11.4555 15.711 11.3485L15.442 12.8242ZM14.535 10.3175C14.4757 10.11 14.4757 9.89001 14.535 9.68248L13.0927 9.27049C12.9565 9.74729 12.9565 10.2527 13.0927 10.7295L14.535 10.3175ZM15.3931 7.18469C14.2919 7.38549 13.4001 8.19411 13.0927 9.27049L14.535 9.68248C14.6857 9.1549 15.1227 8.75873 15.6622 8.66036L15.3931 7.18469ZM15.6622 11.3396C15.1227 11.2413 14.6857 10.8451 14.535 10.3175L13.0927 10.7295C13.4001 11.8059 14.2919 12.6145 15.3931 12.8153L15.6622 11.3396Z" fill="currentColor"/>
</svg>
