<svg xmlns="http://www.w3.org/2000/svg" xmlns:xlink="http://www.w3.org/1999/xlink" width="59.446" height="54.697" viewBox="0 0 59.446 54.697"><defs><style>.a{fill:#fff;}.b{fill:#eff2fa;}.c{fill:#ff71a4;}.d{fill:#49abf3;}.e{fill:#fec9a3;}.f{fill:#f7bb8f;}.g{fill:rgba(1,31,63,0.82);}.h{fill:rgba(13,60,110,0.82);}.i{filter:url(#c);}.j{filter:url(#a);}</style><filter id="a" x="3.909" y="0" width="47.708" height="43.799" filterUnits="userSpaceOnUse"><feOffset dy="3" input="SourceAlpha"/><feGaussianBlur stdDeviation="3" result="b"/><feFlood flood-opacity="0.161"/><feComposite operator="in" in2="b"/><feComposite in="SourceGraphic"/></filter><filter id="c" x="0" y="17.981" width="59.446" height="36.716" filterUnits="userSpaceOnUse"><feOffset dy="3" input="SourceAlpha"/><feGaussianBlur stdDeviation="3" result="d"/><feFlood flood-opacity="0.161"/><feComposite operator="in" in2="d"/><feComposite in="SourceGraphic"/></filter></defs><g transform="translate(5.091 0.464)"><g transform="translate(7.818 0.063)"><g class="j" transform="matrix(1, 0, 0, 1, -12.91, -0.53)"><path class="a" d="M117.961,85.818a1.838,1.838,0,0,0-.274-.969l-1.743-2.807a3.073,3.073,0,0,1-.328-1.392V72a10.163,10.163,0,0,0-10.163-10.163h-4.691A10.163,10.163,0,0,0,90.6,72v8.647a3.071,3.071,0,0,1-.328,1.392l-1.743,2.807a1.838,1.838,0,0,0-.274.969h0a1.828,1.828,0,0,0,1.822,1.822h26.065A1.828,1.828,0,0,0,117.961,85.818Z" transform="translate(-75.34 -55.84)"/></g><path class="a" d="M193.935,5.535,197.844.063H185.335l3.909,5.472V7.1h4.691Z" transform="translate(-176.735 -0.063)"/></g><path class="b" d="M209.145,125.067l-1.743-2.807a3.074,3.074,0,0,1-.328-1.392v-8.647a10.16,10.16,0,0,0-2.134-6.254c-2.087,11.5-9.436,18.13-16.339,21.89h19a1.83,1.83,0,0,0,1.564-2.791Z" transform="translate(-171.893 -96.524)"/><path class="c" d="M219.539,145.961v-.5a2.635,2.635,0,0,0-2.627-2.627h-.5V141.27h-1.564v1.564h-.5a2.627,2.627,0,0,0-.923,5.089l1.423.532v2.979h-.5a1.063,1.063,0,0,1-1.063-1.063h0v-.5h-1.564v.5A2.635,2.635,0,0,0,214.348,153h2.564a2.627,2.627,0,0,0,.923-5.089l-1.423-.532V144.4h.5a1.063,1.063,0,0,1,1.063,1.063h0v.5Zm-2.252,3.409a1.079,1.079,0,0,1,.688,1,1.063,1.063,0,0,1-1.063,1.063h-.5v-2.392Zm-2.439-2.58-.876-.328a1.079,1.079,0,0,1-.688-1,1.063,1.063,0,0,1,1.063-1.063h.5Z" transform="translate(-192.959 -128.698)"/><g transform="translate(0 1.626)"><path class="d" d="M400.272,23.967h0a3.8,3.8,0,0,0-3.127-3.127h0a3.8,3.8,0,0,0,3.127-3.127h0A3.8,3.8,0,0,0,403.4,20.84h0A3.8,3.8,0,0,0,400.272,23.967Z" transform="translate(-361.965 -17.713)"/><path class="d" d="M3.127,200.477h0A3.8,3.8,0,0,0,0,197.35H0a3.8,3.8,0,0,0,3.127-3.127h0a3.8,3.8,0,0,0,3.127,3.127h0A3.8,3.8,0,0,0,3.127,200.477Z" transform="translate(0 -178.587)"/></g><g class="i" transform="matrix(1, 0, 0, 1, -5.09, -0.46)"><path class="e" d="M85.226,268.649a2.345,2.345,0,0,0-3.127-.868L71,272.519a1.57,1.57,0,0,1-.618.125H56.636a1.564,1.564,0,0,1,0-3.127H62.89a4.69,4.69,0,0,0,4.691-4.691H54.572a7.108,7.108,0,0,0-5.543,2.666l-4.9,5.934,5.519,10.116,21.241-5.105a11.279,11.279,0,0,0,2.642-.969l10.945-5.605A2.345,2.345,0,0,0,85.226,268.649Z" transform="translate(-35.13 -240.84)"/></g><path class="f" d="M86.578,379.1l1.759,3.221,21.241-5.105a11.282,11.282,0,0,0,2.642-.969l5.918-3.041C108.3,376.213,95.248,378.089,86.578,379.1Z" transform="translate(-78.909 -340.086)"/><path class="g" d="M0,328.95v14.072H10.163l2.345-2.345L3.127,326.605Z" transform="translate(0 -297.616)"/><path class="h" d="M0,461.264H10.163l2.345-2.345-1.72-2.58A55.289,55.289,0,0,1,0,459.552Z" transform="translate(0 -415.858)"/><circle class="a" cx="1.564" cy="1.564" r="1.564" transform="translate(5.472 39.936)"/></g></svg>