<svg id="beacomeCreator" width="14" height="20" viewBox="0 0 14 20" fill="none"
    xmlns="http://www.w3.org/2000/svg">
    <path d="M13.3845 10.2844L13.3835 10.274C13.2335 8.68301 12.9407 7.70143 12.6189 6.62231C12.5445 6.37274 12.4685 6.11795 12.3924 5.8492C12.0562 4.66313 11.0096 2.96025 9.54767 1.79152C8.09864 0.633098 6.32908 0.0592406 4.47028 0.902569L4.47023 0.902592C3.56164 1.31469 2.72607 2.21491 2.05175 3.41594C1.38214 4.60857 0.90042 6.04774 0.672022 7.45774C0.442698 8.87346 0.475506 10.2171 0.793541 11.2311C1.098 12.2018 1.63475 12.804 2.40485 12.9845C2.4436 12.9596 2.50011 12.9151 2.57299 12.8438C2.73998 12.6804 2.93468 12.4341 3.12825 12.1469C3.31966 11.8628 3.49872 11.5556 3.63699 11.2816C3.78119 10.9957 3.8615 10.7839 3.88296 10.6798L13.3845 10.2844ZM13.3845 10.2844L13.3859 10.2947C14.0123 14.8863 11.2184 17.0846 9.28679 18.6044C8.97059 18.8532 8.6775 19.0838 8.4263 19.3038C8.41298 17.4412 7.79278 16.4053 7.03156 15.7689C6.66304 15.4609 6.28016 15.2628 5.98794 15.1145C5.97351 15.1071 5.95942 15.1 5.94565 15.093C5.81358 15.026 5.71085 14.9739 5.62369 14.9224C5.52658 14.8649 5.48731 14.8298 5.47374 14.8141C5.42612 14.7586 5.36086 14.5532 5.58535 14.1561C5.78885 13.796 6.14097 13.469 6.49474 13.3286C6.49474 13.3287 6.49474 13.3287 6.49474 13.3287C6.49492 13.3294 6.528 13.3221 6.61533 13.3205C6.715 13.3186 6.84483 13.3243 7.00436 13.3359C7.16257 13.3474 7.33837 13.3639 7.52929 13.3818L7.53998 13.3828C7.72589 13.4003 7.92447 13.419 8.12384 13.4344C8.52516 13.4655 8.95708 13.486 9.33198 13.4529C9.51998 13.4363 9.71212 13.4048 9.88775 13.3453C10.0608 13.2866 10.2525 13.189 10.3983 13.0173L10.3984 13.0174L10.4052 13.009C10.7978 12.5264 10.6657 11.9107 10.5675 11.5849C10.5544 11.5415 10.5406 11.4992 10.5267 11.4585C10.7003 11.377 10.9107 11.2231 10.9965 10.9254C11.0615 10.7008 11.0257 10.5047 10.9603 10.3519M13.3845 10.2844L10.9603 10.3519M10.9603 10.3519C11.053 10.2226 11.1386 10.0424 11.1296 9.81967L11.1295 9.81832C11.1166 9.51843 10.9376 9.29748 10.8658 9.2088C10.8614 9.20344 10.8575 9.19856 10.854 9.19418C10.8475 9.18601 10.8416 9.17861 10.8362 9.1719C10.8453 9.16601 10.8559 9.15927 10.8682 9.15158C10.8735 9.14828 10.8795 9.1446 10.8861 9.14053C10.9528 9.09949 11.0825 9.01975 11.1891 8.90546C11.3269 8.75763 11.4212 8.56444 11.4384 8.32053L11.4384 8.32047C11.4516 8.13335 11.3938 7.97183 11.3321 7.85306C11.2698 7.73312 11.1871 7.62495 11.1062 7.53217C10.9487 7.35159 10.7412 7.16624 10.5577 7.00229L10.5507 6.99604C10.3537 6.82013 10.175 6.66031 10.0324 6.50489C9.88248 6.34147 9.82457 6.23685 9.81021 6.18419L9.81011 6.18383C9.77734 6.06396 9.76015 5.90305 9.74262 5.6801C9.74071 5.65581 9.7388 5.63079 9.73684 5.60514C9.72225 5.41445 9.70503 5.18916 9.66738 4.97532C9.62455 4.73203 9.54803 4.45399 9.38257 4.21017C9.20685 3.95122 8.94751 3.75594 8.59569 3.66801L8.57144 3.66194L8.5467 3.65833C7.76618 3.54435 7.19576 3.67376 6.76804 4.08378C6.57382 4.26995 6.4339 4.49155 6.31915 4.7047C6.24475 4.84289 6.169 5.00157 6.09563 5.15527C6.06063 5.22858 6.02618 5.30075 5.99267 5.36902C5.99264 5.36908 5.99261 5.36914 5.99258 5.3692L10.9603 10.3519ZM5.46358 8.96851C5.31123 9.28584 5.16898 9.47122 5.05228 9.58601C4.93855 9.69789 4.83277 9.75909 4.72428 9.81053C4.68202 9.83057 4.65707 9.84146 4.62853 9.85391C4.60371 9.86475 4.57618 9.87676 4.53221 9.897C4.46294 9.92888 4.37317 9.97298 4.28523 10.036C4.07899 10.1839 3.9421 10.3927 3.88297 10.6797L5.46358 8.96851ZM2.36781 13.0048C2.36783 13.0047 2.36925 13.0041 2.37198 13.0032C2.36914 13.0045 2.36778 13.0049 2.36781 13.0048Z" stroke="currentColor"/>
</svg>
