<svg id='homeicon' width="28" height="29" viewBox="0 0 30 31" fill="none" xmlns="http://www.w3.org/2000/svg">
<path fill-rule="evenodd" clip-rule="evenodd" d="M17.4302 20.6615C19.1359 20.6615 20.5242 22.04 20.5242 23.7343V28.092C20.5242 28.456 20.816 28.7479 21.19 28.7564H23.8902C26.018 28.7564 27.7478 27.0479 27.7478 24.9484V12.5894C27.7379 11.8669 27.3936 11.1869 26.8029 10.735L17.4628 3.28613C16.209 2.29304 14.4552 2.29304 13.1972 3.28896L3.92086 10.7321C3.30744 11.1982 2.96319 11.8782 2.95611 12.6135V24.9484C2.95611 27.0479 4.68586 28.7564 6.81369 28.7564H9.53936C9.92327 28.7564 10.2349 28.4518 10.2349 28.0778C10.2349 27.9956 10.2449 27.9135 10.2619 27.8355V23.7343C10.2619 22.0499 11.6417 20.6729 13.3346 20.6615H17.4302ZM23.8906 30.8818H21.165C19.6038 30.845 18.3996 29.6195 18.3996 28.0924V23.7347C18.3996 23.212 17.9647 22.787 17.4306 22.787H13.3421C12.8194 22.7898 12.3873 23.2162 12.3873 23.7347V28.0782C12.3873 28.1845 12.3731 28.2865 12.3434 28.3828C12.1904 29.7853 10.9919 30.8818 9.53979 30.8818H6.81413C3.51471 30.8818 0.831543 28.2199 0.831543 24.9488V12.604C0.84571 11.1958 1.49454 9.90662 2.61513 9.05804L11.873 1.62762C13.9116 0.01262 16.752 0.01262 18.7864 1.62479L28.1109 9.06229C29.206 9.8967 29.8548 11.183 29.8732 12.5742V24.9488C29.8732 28.2199 27.19 30.8818 23.8906 30.8818Z" fill="currentColor"/>
</svg>
