<svg id='liveicon' width="25" height="30" viewBox="0 0 25 30" fill="none" xmlns="http://www.w3.org/2000/svg">
<path d="M17.7421 1.44434L12.7782 6.15022L7.81438 1.44434M7.83994 25.7581L6.19373 28.111M17.7173 25.7581L19.3635 28.111M2.12333 19.8286C1.51439 17.5433 1.51439 15.1493 2.12333 12.864C2.90314 9.93741 5.35367 7.68324 8.45059 7.04375L9.17919 6.8933C11.5507 6.40359 14.0048 6.40359 16.3763 6.8933L17.1049 7.04375C20.2018 7.68324 22.6523 9.93741 23.4321 12.864C24.0411 15.1493 24.0411 17.5433 23.4321 19.8286C22.6523 22.7552 20.2018 25.0094 17.1049 25.6488L16.3763 25.7993C14.0048 26.289 11.5507 26.289 9.17919 25.7993L8.45058 25.6488C5.35367 25.0094 2.90314 22.7552 2.12333 19.8286Z" stroke="currentColor" stroke-width="2" stroke-linecap="round"/>
</svg>
