<svg id='messageicon' width="35" height="35" viewBox="0 0 35 35" fill="none" xmlns="http://www.w3.org/2000/svg">
<path fill-rule="evenodd" clip-rule="evenodd" d="M17.4604 20.0365C16.5127 20.0365 15.5678 19.7235 14.7773 19.0973L8.42352 13.9746C7.96594 13.6063 7.89511 12.9362 8.26202 12.48C8.63177 12.0253 9.30044 11.953 9.75661 12.32L16.1047 17.437C16.9023 18.0688 18.0257 18.0688 18.8289 17.4313L25.1133 12.3228C25.5694 11.9502 26.2381 12.021 26.6093 12.4772C26.979 12.932 26.9096 13.6006 26.4549 13.9718L20.1592 19.0888C19.363 19.7206 18.411 20.0365 17.4604 20.0365Z" fill="currentColor"/>
<mask id="mask0_833_2103" style="mask-type:luminance" maskUnits="userSpaceOnUse" x="2" y="3" width="31" height="29">
<path fill-rule="evenodd" clip-rule="evenodd" d="M2.19397 3.79419H32.6522V31.4192H2.19397V3.79419Z" fill="white"/>
</mask>
<g mask="url(#mask0_833_2103)">
<path fill-rule="evenodd" clip-rule="evenodd" d="M10.4646 29.2938H24.3763C24.3791 29.2909 24.3904 29.2938 24.3989 29.2938C26.0153 29.2938 27.449 28.7158 28.5483 27.6178C29.8248 26.3471 30.526 24.521 30.526 22.4768V12.7471C30.526 8.79034 27.9392 5.91876 24.3763 5.91876H10.4674C6.90451 5.91876 4.31768 8.79034 4.31768 12.7471V22.4768C4.31768 24.521 5.02035 26.3471 6.29535 27.6178C7.39468 28.7158 8.82976 29.2938 10.4448 29.2938H10.4646ZM10.4409 31.4192C8.25503 31.4192 6.30287 30.6259 4.79553 29.1242C3.11678 27.4497 2.19312 25.0895 2.19312 22.4772V12.7475C2.19312 7.64327 5.75037 3.79419 10.4679 3.79419H24.3767C29.0942 3.79419 32.6515 7.64327 32.6515 12.7475V22.4772C32.6515 25.0895 31.7278 27.4497 30.049 29.1242C28.5431 30.6244 26.5895 31.4192 24.3994 31.4192H24.3767H10.4679H10.4409Z" fill="currentColor"/>
</g>
</svg>
