<svg width="35" height="35" viewBox="0 0 35 35" fill="none" xmlns="http://www.w3.org/2000/svg">
<path fill-rule="evenodd" clip-rule="evenodd" d="M17.2228 5.86833C10.5829 5.86833 5.18118 11.2701 5.18118 17.91C5.18118 24.5499 10.5829 29.9517 17.2228 29.9517C23.8628 29.9517 29.2645 24.5499 29.2645 17.91C29.2645 11.2701 23.8628 5.86833 17.2228 5.86833ZM17.2231 32.077C9.41156 32.077 3.0564 25.7218 3.0564 17.9103C3.0564 10.0988 9.41156 3.74365 17.2231 3.74365C25.0346 3.74365 31.3897 10.0988 31.3897 17.9103C31.3897 25.7218 25.0346 32.077 17.2231 32.077Z" fill="#F5D0FF"/>
<path fill-rule="evenodd" clip-rule="evenodd" d="M22.8156 19.346C22.0322 19.346 21.3918 18.7128 21.3918 17.9294C21.3918 17.1459 22.0194 16.5127 22.8014 16.5127H22.8156C23.599 16.5127 24.2323 17.1459 24.2323 17.9294C24.2323 18.7128 23.599 19.346 22.8156 19.346Z" fill="#F5D0FF"/>
<path fill-rule="evenodd" clip-rule="evenodd" d="M17.135 19.346C16.3516 19.346 15.7126 18.7128 15.7126 17.9294C15.7126 17.1459 16.3388 16.5127 17.1222 16.5127H17.135C17.9184 16.5127 18.5516 17.1459 18.5516 17.9294C18.5516 18.7128 17.9184 19.346 17.135 19.346Z" fill="#F5D0FF"/>
<path fill-rule="evenodd" clip-rule="evenodd" d="M11.455 19.346C10.6716 19.346 10.0312 18.7128 10.0312 17.9294C10.0312 17.1459 10.6588 16.5127 11.4423 16.5127H11.455C12.2384 16.5127 12.8717 17.1459 12.8717 17.9294C12.8717 18.7128 12.2384 19.346 11.455 19.346Z" fill="#F5D0FF"/>
</svg>
