<svg id='notification' width="35" height="35" viewBox="0 0 35 35" fill="none" xmlns="http://www.w3.org/2000/svg">
<mask id="mask0_833_127" style="mask-type:luminance" maskUnits="userSpaceOnUse" x="5" y="2" width="27" height="25">
<path fill-rule="evenodd" clip-rule="evenodd" d="M5.02795 2.08447H31.2319V26.6608H5.02795V2.08447Z" fill="white"/>
</mask>
<g mask="url(#mask0_833_127)">
<path fill-rule="evenodd" clip-rule="evenodd" d="M18.1281 4.20946C13.1768 4.20946 9.72582 8.08829 9.72582 11.569C9.72582 14.5143 8.90841 15.8757 8.18591 17.077C7.60649 18.0418 7.14891 18.804 7.14891 20.46C7.38549 23.1319 9.14924 24.5358 18.1281 24.5358C27.0573 24.5358 28.8763 23.0695 29.1115 20.368C29.1072 18.804 28.6497 18.0418 28.0702 17.077C27.3477 15.8757 26.5303 14.5143 26.5303 11.569C26.5303 8.08829 23.0793 4.20946 18.1281 4.20946ZM18.1279 26.6608C11.5036 26.6608 5.51672 26.1933 5.02797 20.5507C5.02372 18.2161 5.73631 17.0289 6.36531 15.9834C7.00139 14.9237 7.60064 13.925 7.60064 11.5691C7.60064 6.98897 11.8308 2.08447 18.1279 2.08447C24.425 2.08447 28.6551 6.98897 28.6551 11.5691C28.6551 13.925 29.2544 14.9237 29.8905 15.9834C30.5195 17.0289 31.2321 18.2161 31.2321 20.4601C30.7376 26.1933 24.7522 26.6608 18.1279 26.6608Z" fill="currentColor"/>
</g>
<path fill-rule="evenodd" clip-rule="evenodd" d="M18.0585 32.5428H18.0557C16.4676 32.5414 14.9645 31.8416 13.8241 30.5708C13.4317 30.1359 13.4671 29.463 13.9035 29.072C14.3398 28.6782 15.0113 28.7136 15.4037 29.1513C16.1375 29.9688 17.0796 30.4178 18.0571 30.4178H18.0585C19.0403 30.4178 19.9866 29.9688 20.7219 29.1499C21.1157 28.715 21.7872 28.6796 22.2221 29.072C22.6585 29.4644 22.6939 30.1373 22.3015 30.5723C21.1568 31.843 19.6509 32.5428 18.0585 32.5428Z" fill="currentColor"/>
</svg>
