<svg id='createicon' width="26" height="26" viewBox="0 0 26 26" fill="none" xmlns="http://www.w3.org/2000/svg">
<path fill-rule="evenodd" clip-rule="evenodd" d="M12.7285 17.5003C12.28 17.5003 11.916 17.1363 11.916 16.6878V8.75024C11.916 8.30174 12.28 7.93774 12.7285 7.93774C13.177 7.93774 13.541 8.30174 13.541 8.75024V16.6878C13.541 17.1363 13.177 17.5003 12.7285 17.5003Z" fill="currentColor"/>
<path fill-rule="evenodd" clip-rule="evenodd" d="M16.7012 13.531H8.75708C8.3075 13.531 7.94458 13.167 7.94458 12.7185C7.94458 12.27 8.3075 11.906 8.75708 11.906H16.7012C17.1497 11.906 17.5137 12.27 17.5137 12.7185C17.5137 13.167 17.1497 13.531 16.7012 13.531Z" fill="currentColor"/>
<path fill-rule="evenodd" clip-rule="evenodd" d="M7.6523 2.70825C4.6493 2.70825 2.70797 4.76334 2.70797 7.94617V17.512C2.70797 20.6948 4.6493 22.7499 7.6523 22.7499H17.8053C20.8094 22.7499 22.7496 20.6948 22.7496 17.512V7.94617C22.7496 4.76334 20.8094 2.70825 17.8053 2.70825H7.6523ZM17.805 24.3749H7.65197C3.72272 24.3749 1.08264 21.6168 1.08264 17.512V7.94617C1.08264 3.84142 3.72272 1.08325 7.65197 1.08325H17.805C21.7342 1.08325 24.3743 3.84142 24.3743 7.94617V17.512C24.3743 21.6168 21.7342 24.3749 17.805 24.3749Z" fill="currentColor"/>
</svg>
