<svg id='purchaseicon' width="32" height="32" viewBox="0 0 32 32" fill="none" xmlns="http://www.w3.org/2000/svg">
<path d="M12.2663 9.33301L11.998 9.97174C11.5649 11.0029 11.4561 12.1415 11.6859 13.2361C12.0366 14.9062 13.3662 16.1961 15.0462 16.4961L15.1941 16.5225C15.7269 16.6176 16.2723 16.6176 16.8051 16.5225L16.953 16.4961C18.633 16.1961 19.9626 14.9062 20.3133 13.2361C20.5432 12.1415 20.4343 11.0029 20.0012 9.97174L19.7329 9.33301" stroke="currentColor" stroke-width="2" stroke-linecap="round"/>
<path d="M26.9599 20.1906C26.1997 23.5338 23.601 26.1605 20.2686 26.9669C17.4681 27.6445 14.5298 27.6445 11.7292 26.9668C8.39685 26.1605 5.79817 23.5338 5.03794 20.1906C4.35869 17.2035 4.52389 14.0864 5.51506 11.1878L5.66231 10.7572C6.75291 7.56781 9.47737 5.21351 12.7912 4.59688L13.6986 4.42802C15.2191 4.14509 16.7788 4.14509 18.2993 4.42802L19.2068 4.59688C22.5205 5.2135 25.245 7.56781 26.3356 10.7572L26.4829 11.1878C27.474 14.0864 27.6392 17.2035 26.9599 20.1906Z" stroke="currentColor" stroke-width="2"/>
</svg>
