<svg id='scheduleicon' width="32" height="32" viewBox="0 0 32 32" fill="none" xmlns="http://www.w3.org/2000/svg">
<path d="M11.4268 4V7.35166M21.9066 4V7.35166M12.7368 20.4231H16.6667M12.7368 16.4011H20.5966M5.77774 20.3313C5.18525 17.7463 5.18525 15.056 5.77774 12.471C6.59814 8.89153 9.32902 6.09668 12.8265 5.25706C15.3524 4.65069 17.9811 4.65069 20.5069 5.25706C24.0044 6.09668 26.7353 8.89154 27.5557 12.471C28.1482 15.056 28.1482 17.7463 27.5557 20.3313C26.7353 23.9108 24.0044 26.7056 20.5069 27.5452C17.9811 28.1516 15.3524 28.1516 12.8265 27.5452C9.32902 26.7056 6.59814 23.9108 5.77774 20.3313Z" stroke="currentColor" stroke-width="2" stroke-linecap="round"/>
</svg>
