<svg id='searchicon' width="34" height="34" viewBox="0 0 34 34" fill="none" xmlns="http://www.w3.org/2000/svg">
<path d="M4.69789 19.5237L5.77964 19.2699L4.69789 19.5237ZM4.69789 11.7928L5.77964 12.0466L4.69789 11.7928ZM26.6188 11.7928L27.7006 11.5391L26.6188 11.7928ZM26.6188 19.5236L27.7006 19.7774L26.6188 19.5236ZM19.5238 26.6187L19.27 25.5369L19.5238 26.6187ZM11.7929 26.6187L11.5392 27.7004L11.7929 26.6187ZM11.7929 4.69777L11.5392 3.61602L11.7929 4.69777ZM19.5238 4.69777L19.7775 3.61602L19.5238 4.69777ZM28.9649 30.5362C29.3989 30.9701 30.1024 30.9701 30.5363 30.5362C30.9702 30.1022 30.9702 29.3987 30.5363 28.9648L28.9649 30.5362ZM5.77964 19.2699C5.22241 16.8944 5.22241 14.4221 5.77964 12.0466L3.61614 11.5391C2.98062 14.2484 2.98062 17.0681 3.61614 19.7774L5.77964 19.2699ZM25.5371 12.0466C26.0943 14.4221 26.0943 16.8944 25.5371 19.2699L27.7006 19.7774C28.3361 17.0681 28.3361 14.2484 27.7006 11.5391L25.5371 12.0466ZM19.27 25.5369C16.8945 26.0942 14.4222 26.0942 12.0467 25.5369L11.5392 27.7004C14.2485 28.336 17.0682 28.336 19.7775 27.7004L19.27 25.5369ZM12.0467 5.77952C14.4222 5.22229 16.8945 5.22229 19.27 5.77952L19.7775 3.61602C17.0682 2.9805 14.2485 2.9805 11.5392 3.61602L12.0467 5.77952ZM12.0467 25.5369C8.93708 24.8075 6.50906 22.3795 5.77964 19.2699L3.61614 19.7774C4.5383 23.7087 7.6079 26.7783 11.5392 27.7004L12.0467 25.5369ZM19.7775 27.7004C23.7088 26.7783 26.7784 23.7087 27.7006 19.7774L25.5371 19.2699C24.8077 22.3795 22.3796 24.8075 19.27 25.5369L19.7775 27.7004ZM19.27 5.77952C22.3796 6.50894 24.8077 8.93695 25.5371 12.0466L27.7006 11.5391C26.7784 7.60778 23.7088 4.53818 19.7775 3.61602L19.27 5.77952ZM11.5392 3.61602C7.6079 4.53818 4.5383 7.60777 3.61614 11.5391L5.77964 12.0466C6.50906 8.93695 8.93707 6.50894 12.0467 5.77952L11.5392 3.61602ZM23.7731 25.3443L28.9649 30.5362L30.5363 28.9648L25.3444 23.7729L23.7731 25.3443Z" fill="currentColor"/>
</svg>
