<svg id='usericon' width="34" height="35" viewBox="0 0 34 35" fill="none" xmlns="http://www.w3.org/2000/svg">
<mask id="mask0_855_2763" style="mask-type:luminance" maskUnits="userSpaceOnUse" x="5" y="20" width="24" height="12">
<path fill-rule="evenodd" clip-rule="evenodd" d="M5.66455 20.6133H28.1044V31.0598H5.66455V20.6133Z" fill="white"/>
</mask>
<g mask="url(#mask0_855_2763)">
<path fill-rule="evenodd" clip-rule="evenodd" d="M16.8858 22.7377C10.8493 22.7377 7.78933 23.7747 7.78933 25.8218C7.78933 27.8873 10.8493 28.9342 16.8858 28.9342C22.9208 28.9342 25.9793 27.8972 25.9793 25.8502C25.9793 23.7847 22.9208 22.7377 16.8858 22.7377ZM16.886 31.0598C14.1107 31.0598 5.66455 31.0598 5.66455 25.8224C5.66455 21.153 12.0693 20.6133 16.886 20.6133C19.6612 20.6133 28.1046 20.6133 28.1046 25.8507C28.1046 30.52 21.7012 31.0598 16.886 31.0598Z" fill="currentColor"/>
</g>
<mask id="mask1_855_2763" style="mask-type:luminance" maskUnits="userSpaceOnUse" x="9" y="2" width="16" height="16">
<path fill-rule="evenodd" clip-rule="evenodd" d="M9.36328 2.90967H24.4083V17.9527H9.36328V2.90967Z" fill="white"/>
</mask>
<g mask="url(#mask1_855_2763)">
<path fill-rule="evenodd" clip-rule="evenodd" d="M16.8877 4.93224C13.8546 4.93224 11.3867 7.39865 11.3867 10.4317C11.3768 13.4549 13.8262 15.9199 16.8466 15.9312L16.8877 16.9427V15.9312C19.9193 15.9312 22.3857 13.4634 22.3857 10.4317C22.3857 7.39865 19.9193 4.93224 16.8877 4.93224ZM16.8881 17.9533H16.8428C12.7033 17.9405 9.35001 14.5646 9.36418 10.4279C9.36418 6.28417 12.7387 2.90967 16.8881 2.90967C21.0361 2.90967 24.4092 6.28417 24.4092 10.4322C24.4092 14.5802 21.0361 17.9533 16.8881 17.9533Z" fill="currentColor"/>
</g>
</svg>
