<svg id="walleticon" width="32" height="32" viewBox="0 0 32 32" fill="none" xmlns="http://www.w3.org/2000/svg">
<path d="M29.3333 14.6266V17.3733C29.3333 18.1066 28.7467 18.7066 28 18.7333H25.3867C23.9467 18.7333 22.6267 17.6799 22.5067 16.2399C22.4267 15.3999 22.7467 14.6133 23.3067 14.0666C23.8 13.5599 24.48 13.2666 25.2267 13.2666H28C28.7467 13.2933 29.3333 13.8933 29.3333 14.6266Z" fill="url(#paint0_linear_749_104541)"/>
<path d="M27.2933 20.7334H25.3866C22.8533 20.7334 20.72 18.8267 20.5066 16.4001C20.3866 15.0134 20.8933 13.6267 21.9066 12.6401C22.76 11.7601 23.9466 11.2667 25.2266 11.2667H27.2933C27.68 11.2667 28 10.9467 27.96 10.5601C27.6666 7.32008 25.52 5.10675 22.3333 4.73341C22.0133 4.68008 21.68 4.66675 21.3333 4.66675H9.33329C8.95996 4.66675 8.59996 4.69341 8.25329 4.74675C4.85329 5.17341 2.66663 7.70675 2.66663 11.3334V20.6667C2.66663 24.3467 5.65329 27.3334 9.33329 27.3334H21.3333C25.0666 27.3334 27.64 25.0001 27.96 21.4401C27.9675 21.3488 27.9557 21.2569 27.9254 21.1704C27.8951 21.084 27.8469 21.0049 27.7841 20.9382C27.7212 20.8716 27.645 20.8189 27.5605 20.7836C27.4759 20.7483 27.3849 20.7312 27.2933 20.7334ZM17.3333 13.0001H9.33329C8.78663 13.0001 8.33329 12.5467 8.33329 12.0001C8.33329 11.4534 8.78663 11.0001 9.33329 11.0001H17.3333C17.88 11.0001 18.3333 11.4534 18.3333 12.0001C18.3333 12.5467 17.88 13.0001 17.3333 13.0001Z" fill="url(#paint1_linear_749_104541)"/>
<defs>
<linearGradient id="paint0_linear_749_104541" x1="22.4945" y1="13.2666" x2="29.9826" y2="14.3845" gradientUnits="userSpaceOnUse">
<stop stop-color="#FF71A4"/>
<stop offset="1" stop-color="#D33BFE"/>
</linearGradient>
<linearGradient id="paint1_linear_749_104541" x1="2.66663" y1="4.66675" x2="30.4887" y2="8.37226" gradientUnits="userSpaceOnUse">
<stop stop-color="#FF71A4"/>
<stop offset="1" stop-color="#D33BFE"/>
</linearGradient>
</defs>
</svg>

