<svg width="38" height="38" viewBox="0 0 38 38" fill="none" xmlns="http://www.w3.org/2000/svg">
<path d="M22.3843 17.9532C22.5328 17.3668 22.5264 16.7518 22.3658 16.1686C22.2052 15.5853 21.8959 15.0538 21.4681 14.6261C21.0404 14.1983 20.5088 13.889 19.9256 13.7284C19.3424 13.5678 18.7274 13.5614 18.141 13.7099C16.9218 14.0107 15.9243 15.0082 15.6235 16.2274C15.475 16.8138 15.4813 17.4288 15.6419 18.012C15.8025 18.5953 16.1119 19.1268 16.5396 19.5546C16.9674 19.9823 17.4989 20.2916 18.0822 20.4522C18.6654 20.6128 19.2804 20.6192 19.8668 20.4707C21.1018 20.1699 22.0993 19.1724 22.3843 17.9532Z" fill="url(#paint0_linear_114_2386)"/>
<path d="M9.52534 28.4528C9.24034 28.4528 8.93951 28.342 8.71784 28.1362C7.19733 26.7242 5.98386 25.0143 5.15303 23.1129C4.3222 21.2116 3.89181 19.1595 3.88867 17.0845C3.88867 8.75616 10.6653 1.97949 18.9937 1.97949C27.322 1.97949 34.0987 8.75616 34.0987 17.0845C34.0987 21.2962 32.4045 25.1912 29.3328 28.0887C28.8578 28.532 28.0978 28.5162 27.6545 28.0412C27.2112 27.5662 27.227 26.8062 27.702 26.3628C28.9764 25.1809 29.9917 23.7475 30.684 22.1532C31.3762 20.5589 31.7302 18.8384 31.7237 17.1003C31.7237 10.0862 26.0078 4.37033 18.9937 4.37033C11.9795 4.37033 6.26367 10.0862 6.26367 17.1003C6.26367 20.6787 7.70451 23.972 10.3328 26.4103C10.8078 26.8537 10.8395 27.6137 10.3962 28.0887C10.1656 28.3206 9.85238 28.4515 9.52534 28.4528Z" fill="url(#paint1_linear_114_2386)"/>
<path d="M25.3215 24.2242C25.0905 24.224 24.8647 24.1561 24.6719 24.0289C24.4791 23.9016 24.3279 23.7207 24.2369 23.5084C24.1459 23.2961 24.1192 23.0617 24.16 22.8344C24.2008 22.607 24.3074 22.3966 24.4665 22.2292C25.7807 20.8359 26.509 18.9992 26.509 17.0992C26.509 12.9509 23.1365 9.59424 19.004 9.59424C17.0149 9.59842 15.1084 10.3905 13.7018 11.797C12.2953 13.2036 11.5032 15.1101 11.499 17.0992C11.499 19.0151 12.2274 20.8359 13.5415 22.2292C13.9849 22.7042 13.969 23.4642 13.494 23.9076C13.019 24.3667 12.259 24.3351 11.8157 23.8601C10.0895 22.0319 9.12666 19.6136 9.12402 17.0992C9.12402 11.6526 13.5574 7.21924 19.004 7.21924C24.4507 7.21924 28.884 11.6526 28.884 17.0992C28.884 19.6167 27.934 22.0234 26.1924 23.8601C25.9617 24.092 25.6486 24.2229 25.3215 24.2242ZM16.2965 26.3792L14.0165 29.2133C12.2115 31.4775 13.8265 34.8342 16.7082 34.8342H21.2524C24.1499 34.8342 25.7649 31.4775 23.944 29.2292L21.664 26.395C21.3451 25.9888 20.9383 25.66 20.4741 25.4335C20.01 25.2069 19.5006 25.0885 18.9841 25.0869C18.4676 25.0854 17.9575 25.2009 17.4921 25.4247C17.0266 25.6485 16.6179 25.9748 16.2965 26.3792Z" fill="url(#paint2_linear_114_2386)"/>
<defs>
<linearGradient id="paint0_linear_114_2386" x1="15.5166" y1="13.603" x2="23.2139" y2="14.5216" gradientUnits="userSpaceOnUse">
<stop stop-color="#D33AFF"/>
<stop offset="1" stop-color="#FF71A4"/>
</linearGradient>
<linearGradient id="paint1_linear_114_2386" x1="3.88867" y1="1.97949" x2="37.0882" y2="6.50071" gradientUnits="userSpaceOnUse">
<stop stop-color="#D33AFF"/>
<stop offset="1" stop-color="#FF71A4"/>
</linearGradient>
<linearGradient id="paint2_linear_114_2386" x1="9.12402" y1="7.21924" x2="31.082" y2="9.09431" gradientUnits="userSpaceOnUse">
<stop stop-color="#D33AFF"/>
<stop offset="1" stop-color="#FF71A4"/>
</linearGradient>
</defs>
</svg>
