<svg width="38" height="38" viewBox="0 0 38 38" fill="none" xmlns="http://www.w3.org/2000/svg">
<path d="M27.8987 17.0243C27.5753 17.0243 27.2652 16.8959 27.0366 16.6672C26.8079 16.4386 26.6795 16.1285 26.6795 15.8052C26.6795 15.2193 26.0937 14.0002 25.112 12.9393C24.1462 11.9102 23.0853 11.3085 22.1987 11.3085C21.8753 11.3085 21.5652 11.18 21.3366 10.9514C21.1079 10.7228 20.9795 10.4127 20.9795 10.0893C20.9795 9.42433 21.5337 8.87016 22.1987 8.87016C23.782 8.87016 25.4445 9.72516 26.9012 11.261C28.2628 12.7018 29.1337 14.491 29.1337 15.7893C29.1337 16.4702 28.5795 17.0243 27.8987 17.0243ZM33.6145 17.0212C33.2911 17.0212 32.981 16.8927 32.7524 16.6641C32.5238 16.4354 32.3953 16.1253 32.3953 15.802C32.3953 10.1812 27.8195 5.62116 22.2145 5.62116C21.8911 5.62116 21.581 5.49271 21.3524 5.26407C21.1238 5.03543 20.9953 4.72534 20.9953 4.40199C20.9953 3.73699 21.5337 3.16699 22.1987 3.16699C29.1653 3.16699 34.8337 8.83532 34.8337 15.802C34.8337 16.467 34.2795 17.0212 33.6145 17.0212ZM17.4962 23.6712L14.567 26.6003C13.9495 27.2178 12.9678 27.2178 12.3345 26.6162C12.1603 26.442 11.9862 26.2837 11.812 26.1095C10.2109 24.4977 8.73415 22.7669 7.39449 20.932C6.09616 19.127 5.05116 17.322 4.29116 15.5328C3.54699 13.7278 3.16699 12.002 3.16699 10.3553C3.16699 9.27866 3.35699 8.24949 3.73699 7.29949C4.11699 6.33366 4.71866 5.44699 5.55783 4.65533C6.57116 3.65783 7.67949 3.16699 8.85116 3.16699C9.29449 3.16699 9.73783 3.26199 10.1337 3.45199C10.5453 3.64199 10.9095 3.92699 11.1945 4.33866L14.8678 9.51616C15.1528 9.91199 15.3587 10.2762 15.5012 10.6245C15.6437 10.957 15.7228 11.2895 15.7228 11.5903C15.7228 11.9703 15.612 12.3503 15.3903 12.7145C15.1845 13.0787 14.8837 13.4587 14.5037 13.8387L13.3003 15.0895C13.1262 15.2637 13.047 15.4695 13.047 15.7228C13.047 15.8495 13.0628 15.9603 13.0945 16.087C13.142 16.2137 13.1895 16.3087 13.2212 16.4037C13.5062 16.9262 13.997 17.607 14.6937 18.4303C15.4062 19.2537 16.1662 20.0928 16.9895 20.932C17.1478 21.0903 17.322 21.2487 17.4803 21.407C18.1137 22.0245 18.1295 23.0378 17.4962 23.6712ZM34.7862 29.0228C34.7841 29.6204 34.6488 30.2099 34.3903 30.7487C34.1212 31.3187 33.7728 31.857 33.3137 32.3637C32.5378 33.2187 31.6828 33.8362 30.717 34.232C30.7012 34.232 30.6853 34.2478 30.6695 34.2478C29.7353 34.6278 28.722 34.8337 27.6295 34.8337C26.0145 34.8337 24.2887 34.4537 22.4678 33.6778C20.647 32.902 18.8262 31.857 17.0212 30.5428C16.4037 30.0837 15.7862 29.6245 15.2003 29.1337L20.3778 23.9562C20.8212 24.2887 21.217 24.542 21.5495 24.7162C21.6287 24.7478 21.7237 24.7953 21.8345 24.8428C21.9612 24.8903 22.0878 24.9062 22.2303 24.9062C22.4995 24.9062 22.7053 24.8112 22.8795 24.637L24.0828 23.4495C24.4787 23.0537 24.8587 22.7528 25.2228 22.5628C25.587 22.3412 25.9512 22.2303 26.347 22.2303C26.6478 22.2303 26.9645 22.2937 27.3128 22.4362C27.6612 22.5787 28.0253 22.7845 28.4212 23.0537L33.662 26.7745C34.0737 27.0595 34.3587 27.392 34.5328 27.7878C34.6912 28.1837 34.7862 28.5795 34.7862 29.0228Z" fill="url(#paint0_linear_114_2396)"/>
<defs>
<linearGradient id="paint0_linear_114_2396" x1="3.16699" y1="3.16699" x2="38.115" y2="7.33765" gradientUnits="userSpaceOnUse">
<stop stop-color="#D33AFF"/>
<stop offset="1" stop-color="#FF71A4"/>
</linearGradient>
</defs>
</svg>
