<svg width="289" height="218" viewBox="0 0 289 218" fill="none" xmlns="http://www.w3.org/2000/svg">
<path d="M82.8849 45.4513C79.9619 46.3905 79.7972 47.9912 82.4968 49.7035C92.5987 56.1458 92.7562 79.5415 82.7418 89.5809C74.6 97.7002 63.7287 98.7281 54.7997 95.2339C40.9387 89.77 33.432 75.7293 42.841 57.2855C48.7045 45.7708 58.1145 41.6009 68.6654 44.8607C73.737 46.3841 75.7523 45.9659 78.6234 42.7504C82.853 37.9518 74.0823 36.1838 64.1649 37.3638C31.7333 41.1916 19.3577 76.2959 47.236 98.8106C61.5144 110.332 92.1941 101.047 96.785 83.8077C102.129 63.8037 94.167 41.8264 82.8849 45.4513Z" fill="#B7A6AE"/>
<path d="M63.3814 82.1555C54.3062 82.4344 53.6756 87.1657 62.5587 87.5219C66.9067 87.6727 67.4053 87.1112 68.6319 89.698C71.252 95.3914 76.8015 92.0605 74.8326 85.9286C74.4155 84.6295 74.7793 83.8247 76.4765 82.5915C83.4717 77.4203 80.4114 66.4797 71.8527 66.0767C69.4999 65.9728 66.2525 66.9589 63.3152 67.5014C54.1455 69.0718 56.3902 60.3822 61.3621 59.1287C62.0967 58.95 67.2212 57.8194 68.3994 57.6128C72.0905 56.5989 72.4403 55.3973 72.295 54.2401C72.1188 52.6343 67.604 51.9638 64.2194 53.0513C62.3219 53.6609 61.982 53.4835 61.4147 51.7167C60.3635 48.4429 56.7539 47.5963 55.6765 50.4075C55.4331 51.0589 55.39 52.334 55.5365 53.3188C55.7485 54.6838 55.145 55.623 52.6761 57.4481C44.6695 63.3455 46.7004 75.1327 62.7846 72.5445C67.1386 71.8335 72.5123 71.6547 73.1056 74.5597C74.0623 79.125 66.0086 82.0567 63.3814 82.1555Z" fill="#B7A6AE"/>
<path d="M244.227 57.0528C239.6 56.8136 238.511 58.9837 241.405 62.8439C252.215 77.3382 239.922 110.428 220.419 119.233C204.586 126.33 188.694 121.963 177.962 112.255C161.324 97.1301 158.242 73.3052 181.386 52.3202C195.82 39.2133 211.331 38.3659 224.476 48.6106C230.819 53.4736 233.886 53.9621 239.658 50.9621C248.194 46.4558 236.762 39.2682 222.136 35.6261C174.32 23.6717 138.077 66.5732 165.375 113.254C179.362 137.148 227.624 140.467 243.325 118.603C261.568 93.2414 262.088 57.976 244.227 57.0528Z" fill="#B7A6AE"/>
<path d="M197.077 98.4018C184.121 93.9389 180.7 100.276 193.045 105.532C199.101 108.072 200.105 107.546 200.452 111.852C201.104 121.286 210.717 119.557 211.219 109.852C211.325 107.796 212.269 106.856 215.324 106.024C227.962 102.472 229.496 85.3999 217.633 80.2515C214.368 78.8458 209.258 78.4992 204.823 77.6928C191.042 75.0014 198.858 63.9437 206.545 64.8358C207.678 64.9768 215.514 66.124 217.287 66.4631C223.039 67.0077 224.175 65.4998 224.589 63.7895C225.2 61.4298 219.187 58.068 213.829 57.791C210.825 57.6358 210.44 57.2036 210.584 54.4075C210.852 49.2264 206.211 46.1005 203.187 49.4899C202.495 50.2787 201.752 52.0544 201.432 53.5221C201.001 55.5613 199.647 56.5632 195.186 57.8169C180.733 61.8524 177.293 79.5681 201.376 84.5236C207.901 85.8504 215.58 88.4737 214.863 92.8894C213.771 99.8419 200.838 99.6681 197.077 98.4018Z" fill="#B7A6AE"/>
<path d="M121.793 148.681C119.573 149.394 119.448 150.61 121.498 151.91C129.172 156.803 129.292 174.569 121.685 182.193C115.5 188.359 107.241 189.139 100.459 186.486C89.9291 182.337 84.2267 171.674 91.3742 157.668C95.8284 148.924 102.977 145.757 110.992 148.233C114.844 149.39 116.375 149.072 118.556 146.63C121.769 142.986 115.106 141.644 107.573 142.54C82.9363 145.446 73.5353 172.104 94.7128 189.202C105.559 197.951 128.865 190.901 132.352 177.809C136.412 162.618 130.364 145.928 121.793 148.681Z" fill="#B7A6AE"/>
<path d="M106.984 176.554C100.091 176.766 99.6115 180.359 106.359 180.629C109.662 180.744 110.041 180.317 110.973 182.282C112.963 186.605 117.179 184.076 115.683 179.419C115.366 178.433 115.643 177.822 116.932 176.885C122.246 172.958 119.921 164.65 113.42 164.344C111.632 164.265 109.165 165.014 106.934 165.426C99.9684 166.618 101.674 160.02 105.45 159.068C106.009 158.932 109.901 158.073 110.796 157.917C113.6 157.147 113.866 156.234 113.756 155.355C113.622 154.136 110.192 153.627 107.621 154.453C106.18 154.916 105.921 154.781 105.49 153.439C104.692 150.953 101.95 150.31 101.131 152.445C100.947 152.94 100.914 153.908 101.025 154.656C101.186 155.692 100.728 156.405 98.8522 157.791C92.7701 162.27 94.3128 171.221 106.531 169.256C109.839 168.716 113.921 168.58 114.371 170.786C115.098 174.253 108.98 176.479 106.984 176.554Z" fill="#B7A6AE"/>
</svg>
