<svg width="38" height="38" viewBox="0 0 38 38" fill="none" xmlns="http://www.w3.org/2000/svg">
<path d="M17.4163 31.5082V6.4915C17.4163 4.1165 16.403 3.1665 13.8855 3.1665H7.48884C4.97134 3.1665 3.95801 4.1165 3.95801 6.4915V31.5082C3.95801 33.8832 4.97134 34.8332 7.48884 34.8332H13.8855C16.403 34.8332 17.4163 33.8832 17.4163 31.5082ZM34.0413 31.0965V24.3198C34.0413 22.2615 32.458 20.5832 30.5105 20.5832H24.1138C22.1663 20.5832 20.583 22.2615 20.583 24.3198V31.0965C20.583 33.1548 22.1663 34.8332 24.1138 34.8332H30.5105C32.458 34.8332 34.0413 33.1548 34.0413 31.0965ZM34.0413 13.6798V6.90317C34.0413 4.84484 32.458 3.1665 30.5105 3.1665H24.1138C22.1663 3.1665 20.583 4.84484 20.583 6.90317V13.6798C20.583 15.7382 22.1663 17.4165 24.1138 17.4165H30.5105C32.458 17.4165 34.0413 15.7382 34.0413 13.6798Z" fill="url(#paint0_linear_114_2384)"/>
<defs>
<linearGradient id="paint0_linear_114_2384" x1="3.95801" y1="3.1665" x2="37.2041" y2="6.93568" gradientUnits="userSpaceOnUse">
<stop stop-color="#D33AFF"/>
<stop offset="1" stop-color="#FF71A4"/>
</linearGradient>
</defs>
</svg>
