<svg width="38" height="38" viewBox="0 0 38 38" fill="none" xmlns="http://www.w3.org/2000/svg">
<path d="M19.0589 3.21533C15.9714 3.21533 13.0898 4.102 10.6673 5.622L21.5289 16.4995L21.5448 12.1612C21.5448 11.8462 21.6699 11.5442 21.8926 11.3215C22.1153 11.0988 22.4173 10.9737 22.7323 10.9737C23.0472 10.9737 23.3492 11.0988 23.5719 11.3215C23.7946 11.5442 23.9198 11.8462 23.9198 12.1612L23.9039 19.3653C23.9039 19.8562 23.6031 20.2837 23.1598 20.4578C23.0173 20.5212 22.8589 20.5528 22.7164 20.5528C22.4016 20.5526 22.0997 20.4273 21.8773 20.2045L8.90976 7.22117C8.85238 7.16181 8.79946 7.09831 8.75142 7.03117C7.01708 8.51635 5.62507 10.3596 4.67116 12.4342C3.71725 14.5087 3.22408 16.7653 3.22559 19.0487C3.22559 27.7887 10.3189 34.882 19.0589 34.882C22.1464 34.882 25.0281 33.9953 27.4506 32.4753L16.5889 21.5978L16.5731 25.9362C16.5731 26.2511 16.448 26.5532 16.2253 26.7759C16.0026 26.9986 15.7005 27.1237 15.3856 27.1237C15.0706 27.1237 14.7686 26.9986 14.5459 26.7759C14.3232 26.5532 14.1981 26.2511 14.1981 25.9362L14.2139 18.732C14.2139 18.2412 14.5148 17.8137 14.9581 17.6395C15.3856 17.4495 15.9081 17.5445 16.2406 17.8928L29.2081 30.8762C29.2714 30.9395 29.3189 31.0028 29.3664 31.0662C31.1008 29.581 32.4928 27.7377 33.4467 25.6631C34.4006 23.5886 34.8938 21.332 34.8923 19.0487C34.8923 10.3087 27.7989 3.21533 19.0589 3.21533Z" fill="url(#paint0_linear_114_2366)"/>
<defs>
<linearGradient id="paint0_linear_114_2366" x1="3.22559" y1="3.21533" x2="38.1736" y2="7.38599" gradientUnits="userSpaceOnUse">
<stop stop-color="#D33AFF"/>
<stop offset="1" stop-color="#FF71A4"/>
</linearGradient>
</defs>
</svg>
