<svg width="38" height="38" viewBox="0 0 38 38" fill="none" xmlns="http://www.w3.org/2000/svg">
<path d="M15.9521 18.7338H18.5646L18.8655 16.1055H16.253L15.9521 18.7338Z" fill="url(#paint0_linear_114_2378)"/>
<path d="M34.7862 11.4157C34.4695 6.539 31.4612 3.53067 26.5845 3.214C26.2678 3.18234 25.9512 3.1665 25.6345 3.1665H12.3662C12.0495 3.1665 11.7328 3.18234 11.4162 3.214C6.53949 3.53067 3.53116 6.539 3.21449 11.4157C3.18283 11.7323 3.16699 12.049 3.16699 12.3657V25.634C3.16699 25.9507 3.18283 26.2673 3.21449 26.584C3.53116 31.4607 6.53949 34.469 11.4162 34.7857C11.7328 34.8173 12.0495 34.8332 12.3662 34.8332H21.3753C22.2462 34.8332 22.9587 34.1207 22.9587 33.2498V28.5473C22.9587 27.065 23.5475 25.6434 24.5957 24.5952C25.6439 23.547 27.0655 22.9582 28.5478 22.9582H33.2503C34.1212 22.9582 34.8337 22.2457 34.8337 21.3748V12.3657C34.8337 12.049 34.8178 11.7323 34.7862 11.4157ZM25.3337 16.1023H21.2645L20.9637 18.7307H24.4945C24.8094 18.7307 25.1115 18.8558 25.3342 19.0785C25.5569 19.3012 25.682 19.6032 25.682 19.9182C25.682 20.2331 25.5569 20.5352 25.3342 20.7579C25.1115 20.9806 24.8094 21.1057 24.4945 21.1057H20.7103L20.267 25.0482C20.2037 25.6498 19.6812 26.109 19.0795 26.109C19.0478 26.109 19.0003 26.109 18.9528 26.0932C18.7971 26.0775 18.6461 26.0308 18.5087 25.9558C18.3714 25.8809 18.2504 25.7791 18.153 25.6566C18.0556 25.5341 17.9837 25.3934 17.9416 25.2426C17.8995 25.0919 17.888 24.9342 17.9078 24.779L18.3195 21.1057H15.707L15.2637 25.0482C15.2003 25.6498 14.6778 26.109 14.092 26.109C14.0445 26.109 13.997 26.109 13.9495 26.0932C13.7938 26.0775 13.6428 26.0308 13.5054 25.9558C13.368 25.8809 13.2471 25.7791 13.1497 25.6566C13.0522 25.5341 12.9804 25.3934 12.9383 25.2426C12.8962 25.0919 12.8847 24.9342 12.9045 24.779L13.3162 21.1057H9.50033C8.85116 21.1057 8.31283 20.5673 8.31283 19.9182C8.31283 19.269 8.85116 18.7307 9.50033 18.7307H13.5695L13.8703 16.1023H10.3395C10.0245 16.1023 9.7225 15.9772 9.4998 15.7545C9.2771 15.5318 9.15199 15.2298 9.15199 14.9148C9.15199 14.5999 9.2771 14.2978 9.4998 14.0751C9.7225 13.8524 10.0245 13.7273 10.3395 13.7273H14.1237L14.567 9.78484C14.6462 9.13567 15.232 8.66067 15.8812 8.73984C16.5303 8.80317 17.0053 9.389 16.9262 10.054L16.5145 13.7273H19.127L19.5703 9.78484C19.6495 9.13567 20.2353 8.66067 20.8845 8.73984C21.5337 8.80317 22.0087 9.389 21.9295 10.054L21.5178 13.7273H25.3337C25.9828 13.7273 26.5212 14.2657 26.5212 14.9148C26.5212 15.564 25.9828 16.1023 25.3337 16.1023Z" fill="url(#paint1_linear_114_2378)"/>
<path d="M33.2022 25.3335H28.5472C26.5363 25.3335 25.333 26.5368 25.333 28.5477V33.2027C25.333 35.2135 26.5363 36.4168 28.5472 36.4168H33.2022C35.213 36.4168 36.4163 35.2135 36.4163 33.2027V28.5477C36.4163 26.5368 35.213 25.3335 33.2022 25.3335ZM33.5505 30.5743C33.4588 30.6653 33.3501 30.7373 33.2306 30.7863C33.111 30.8352 32.983 30.86 32.8538 30.8593C32.7247 30.86 32.5967 30.8352 32.4771 30.7863C32.3576 30.7373 32.2488 30.6653 32.1572 30.5743L31.8722 30.2893V33.836C31.8722 34.3902 31.4288 34.8335 30.8747 34.8335C30.3205 34.8335 29.8772 34.3902 29.8772 33.836V30.2893L29.5922 30.5743C29.2122 30.9543 28.5788 30.9543 28.1988 30.5743C28.0163 30.3884 27.914 30.1382 27.914 29.8777C27.914 29.6171 28.0163 29.3669 28.1988 29.181L30.178 27.2018C30.2572 27.1227 30.368 27.0593 30.4788 27.0118C30.5105 26.996 30.5422 26.996 30.5738 26.9802C30.653 26.9485 30.7322 26.9327 30.8272 26.9327H30.9222C31.033 26.9327 31.128 26.9485 31.2388 26.996H31.2705C31.3813 27.0435 31.4763 27.1068 31.5555 27.186C31.5713 27.2018 31.5713 27.2018 31.5872 27.2018L33.5663 29.181C33.9463 29.561 33.9463 30.1943 33.5505 30.5743Z" fill="url(#paint2_linear_114_2378)"/>
<defs>
<linearGradient id="paint0_linear_114_2378" x1="15.9521" y1="16.1055" x2="19.1571" y2="16.5294" gradientUnits="userSpaceOnUse">
<stop stop-color="#D33AFF"/>
<stop offset="1" stop-color="#FF71A4"/>
</linearGradient>
<linearGradient id="paint1_linear_114_2378" x1="3.16699" y1="3.1665" x2="38.115" y2="7.33716" gradientUnits="userSpaceOnUse">
<stop stop-color="#D33AFF"/>
<stop offset="1" stop-color="#FF71A4"/>
</linearGradient>
<linearGradient id="paint2_linear_114_2378" x1="25.333" y1="25.3335" x2="37.5648" y2="26.7932" gradientUnits="userSpaceOnUse">
<stop stop-color="#D33AFF"/>
<stop offset="1" stop-color="#FF71A4"/>
</linearGradient>
</defs>
</svg>
