<svg width="38" height="38" viewBox="0 0 38 38" fill="none" xmlns="http://www.w3.org/2000/svg">
<path d="M29.2958 6.50718L21.395 3.54635C20.0808 3.05551 17.9275 3.05551 16.6133 3.54635L8.71249 6.50718C6.89165 7.18801 5.40332 9.34135 5.40332 11.273V23.0372C5.40332 24.9055 6.63832 27.3597 8.14249 28.4838L14.9508 33.5663C17.1833 35.2447 20.8567 35.2447 23.0892 33.5663L29.8975 28.4838C31.4017 27.3597 32.6367 24.9055 32.6367 23.0372V11.273C32.605 9.34135 31.1167 7.18801 29.2958 6.50718ZM18.8933 11.1305C20.7617 11.1305 22.2817 12.6505 22.2817 14.5188C22.2817 16.3555 20.8408 17.828 19.02 17.8913H18.8617C16.9617 17.828 15.5367 16.3555 15.5367 14.5188C15.5208 12.6505 17.0408 11.1305 18.8933 11.1305ZM22.4717 25.903C21.5058 26.5363 20.255 26.8688 19.0042 26.8688C17.7533 26.8688 16.4867 26.5522 15.5367 25.903C14.6342 25.3013 14.1433 24.478 14.1275 23.5755C14.1275 22.6888 14.6342 21.8338 15.5367 21.2322C17.4525 19.9655 20.5717 19.9655 22.4875 21.2322C23.39 21.8338 23.8967 22.6572 23.8967 23.5597C23.8808 24.4463 23.3742 25.3013 22.4717 25.903Z" fill="url(#paint0_linear_114_2371)"/>
<defs>
<linearGradient id="paint0_linear_114_2371" x1="5.40332" y1="3.17822" x2="35.5685" y2="6.27606" gradientUnits="userSpaceOnUse">
<stop stop-color="#D33AFF"/>
<stop offset="1" stop-color="#FF71A4"/>
</linearGradient>
</defs>
</svg>
