<svg width="38" height="38" viewBox="0 0 38 38" fill="none" xmlns="http://www.w3.org/2000/svg">
<path d="M24.6845 19.6333V26.0775C24.6845 26.6475 24.6212 27.1858 24.4787 27.6767C23.8928 30.0042 21.9612 31.4608 19.3012 31.4608H14.9945L10.2128 34.6433C10.0525 34.7531 9.86523 34.8167 9.67127 34.8275C9.47731 34.8382 9.28413 34.7955 9.11273 34.7041C8.94134 34.6127 8.79828 34.476 8.69912 34.309C8.59996 34.1419 8.5485 33.9509 8.55033 33.7567V31.4608C6.93533 31.4608 5.58949 30.9225 4.65533 29.9883C3.70533 29.0383 3.16699 27.6925 3.16699 26.0775V19.6333C3.16699 16.625 5.03533 14.5508 7.91699 14.2817C8.12283 14.2658 8.32866 14.25 8.55033 14.25H19.3012C22.5312 14.25 24.6845 16.4033 24.6845 19.6333Z" fill="url(#paint0_linear_114_2393)"/>
<path d="M28.1045 24.7003C30.1153 24.7003 31.8095 24.0353 32.9812 22.8478C34.1687 21.6762 34.8337 19.982 34.8337 17.9712V9.89616C34.8337 6.17533 31.8253 3.16699 28.1045 3.16699H14.6462C10.9253 3.16699 7.91699 6.17533 7.91699 9.89616V11.0837C7.91699 11.527 8.26533 11.8753 8.70866 11.8753H19.3012C23.592 11.8753 27.0595 15.3428 27.0595 19.6337V23.9087C27.0595 24.352 27.4078 24.7003 27.8512 24.7003H28.1045Z" fill="url(#paint1_linear_114_2393)"/>
<defs>
<linearGradient id="paint0_linear_114_2393" x1="3.16699" y1="14.25" x2="26.8831" y2="17.2093" gradientUnits="userSpaceOnUse">
<stop stop-color="#D33AFF"/>
<stop offset="1" stop-color="#FF71A4"/>
</linearGradient>
<linearGradient id="paint1_linear_114_2393" x1="7.91699" y1="3.16699" x2="37.39" y2="7.56359" gradientUnits="userSpaceOnUse">
<stop stop-color="#D33AFF"/>
<stop offset="1" stop-color="#FF71A4"/>
</linearGradient>
</defs>
</svg>
