<svg width="38" height="38" viewBox="0 0 38 38" fill="none" xmlns="http://www.w3.org/2000/svg">
<path d="M16.2295 15.881C16.2295 16.736 16.467 16.8627 17.0053 17.0527L17.8128 17.3377V14.646H17.3378C16.7362 14.646 16.2295 15.2002 16.2295 15.881ZM20.1878 23.3543H20.6628C21.2803 23.3543 21.7712 22.8002 21.7712 22.1193C21.7712 21.2643 21.5337 21.1377 20.9953 20.9477L20.1878 20.6627V23.3543Z" fill="url(#paint0_linear_114_2390)"/>
<path d="M31.002 8.67699L27.7562 11.9228C27.5187 12.1603 27.2178 12.2712 26.917 12.2712C26.6162 12.2712 26.3153 12.1603 26.0778 11.9228C25.857 11.6994 25.7331 11.3978 25.7331 11.0837C25.7331 10.7695 25.857 10.468 26.0778 10.2445L29.3237 6.99866C26.537 4.62366 22.9428 3.16699 19.0003 3.16699C10.2603 3.16699 3.16699 10.2603 3.16699 19.0003C3.16699 27.7403 10.2603 34.8337 19.0003 34.8337C27.7403 34.8337 34.8337 27.7403 34.8337 19.0003C34.8337 15.0578 33.377 11.4637 31.002 8.67699ZM21.7712 18.7153C22.7845 19.0795 24.1462 19.8078 24.1462 22.1353C24.1462 24.1145 22.5787 25.7453 20.6628 25.7453H20.1878V26.1412C20.1878 26.7903 19.6495 27.3287 19.0003 27.3287C18.3512 27.3287 17.8128 26.7903 17.8128 26.1412V25.7453H17.6862C15.5803 25.7453 13.8545 23.972 13.8545 21.787C13.8545 21.122 14.3928 20.5837 15.042 20.5837C15.6912 20.5837 16.2295 21.122 16.2295 21.7712C16.2295 22.642 16.8787 23.3545 17.6862 23.3545H17.8128V19.8395L16.2295 19.2853C15.2162 18.9212 13.8545 18.1928 13.8545 15.8653C13.8545 13.8862 15.422 12.2553 17.3378 12.2553H17.8128V11.8753C17.8128 11.2262 18.3512 10.6878 19.0003 10.6878C19.6495 10.6878 20.1878 11.2262 20.1878 11.8753V12.2712H20.3145C22.4203 12.2712 24.1462 14.0445 24.1462 16.2295C24.1462 16.8787 23.6078 17.417 22.9587 17.417C22.3095 17.417 21.7712 16.8787 21.7712 16.2295C21.7712 15.3587 21.122 14.6462 20.3145 14.6462H20.1878V18.1612L21.7712 18.7153ZM35.9262 2.70783C35.801 2.41624 35.5686 2.18387 35.277 2.05866C35.1346 2.00807 34.9848 1.98132 34.8337 1.97949H28.5003C27.8512 1.97949 27.3128 2.51783 27.3128 3.16699C27.3128 3.81616 27.8512 4.35449 28.5003 4.35449H31.9678L29.3237 6.99866C29.9253 7.52116 30.4795 8.07533 31.002 8.67699L33.6462 6.03283V9.50033C33.6462 10.1495 34.1845 10.6878 34.8337 10.6878C35.4828 10.6878 36.0212 10.1495 36.0212 9.50033V3.16699C36.0212 3.00866 35.9895 2.86616 35.9262 2.70783Z" fill="url(#paint1_linear_114_2390)"/>
<defs>
<linearGradient id="paint0_linear_114_2390" x1="16.2295" y1="14.646" x2="22.3969" y2="15.1144" gradientUnits="userSpaceOnUse">
<stop stop-color="#D33AFF"/>
<stop offset="1" stop-color="#FF71A4"/>
</linearGradient>
<linearGradient id="paint1_linear_114_2390" x1="3.16699" y1="1.97949" x2="39.4256" y2="6.30655" gradientUnits="userSpaceOnUse">
<stop stop-color="#D33AFF"/>
<stop offset="1" stop-color="#FF71A4"/>
</linearGradient>
</defs>
</svg>
