<svg width="38" height="38" viewBox="0 0 38 38" fill="none" xmlns="http://www.w3.org/2000/svg">
<path d="M28.5003 4.75H9.50033C6.00116 4.75 3.16699 7.56833 3.16699 11.0358V26.9642C3.16699 30.4317 6.00116 33.25 9.50033 33.25H28.5003C31.9995 33.25 34.8337 30.4317 34.8337 26.9642V11.0358C34.8337 7.56833 31.9995 4.75 28.5003 4.75ZM13.4587 11.3525C15.4695 11.3525 17.1162 12.9992 17.1162 15.01C17.1162 17.0208 15.4695 18.6675 13.4587 18.6675C11.4478 18.6675 9.80116 17.0208 9.80116 15.01C9.80116 12.9992 11.4478 11.3525 13.4587 11.3525ZM19.5862 26.3783C19.4437 26.5367 19.222 26.6317 19.0003 26.6317H7.91699C7.69533 26.6317 7.47366 26.5367 7.33116 26.3783C7.25867 26.2967 7.20315 26.2015 7.16781 26.0982C7.13247 25.9949 7.11803 25.8856 7.12533 25.7767C7.25767 24.4853 7.83315 23.2796 8.75394 22.3646C9.67473 21.4496 10.884 20.8817 12.1762 20.7575C13.024 20.6783 13.8774 20.6783 14.7253 20.7575C17.3853 21.0108 19.5228 23.1167 19.7762 25.7767C19.8078 25.9983 19.7287 26.22 19.5862 26.3783ZM30.0837 26.5208H26.917C26.2678 26.5208 25.7295 25.9825 25.7295 25.3333C25.7295 24.6842 26.2678 24.1458 26.917 24.1458H30.0837C30.7328 24.1458 31.2712 24.6842 31.2712 25.3333C31.2712 25.9825 30.7328 26.5208 30.0837 26.5208ZM30.0837 20.1875H23.7503C23.1012 20.1875 22.5628 19.6492 22.5628 19C22.5628 18.3508 23.1012 17.8125 23.7503 17.8125H30.0837C30.7328 17.8125 31.2712 18.3508 31.2712 19C31.2712 19.6492 30.7328 20.1875 30.0837 20.1875ZM30.0837 13.8542H22.167C21.5178 13.8542 20.9795 13.3158 20.9795 12.6667C20.9795 12.0175 21.5178 11.4792 22.167 11.4792H30.0837C30.7328 11.4792 31.2712 12.0175 31.2712 12.6667C31.2712 13.3158 30.7328 13.8542 30.0837 13.8542Z" fill="url(#paint0_linear_114_2376)"/>
<defs>
<linearGradient id="paint0_linear_114_2376" x1="3.16699" y1="4.75" x2="38.0003" y2="9.36885" gradientUnits="userSpaceOnUse">
<stop stop-color="#D33AFF"/>
<stop offset="1" stop-color="#FF71A4"/>
</linearGradient>
</defs>
</svg>
