<svg width="38" height="38" viewBox="0 0 38 38" fill="none" xmlns="http://www.w3.org/2000/svg">
<path d="M21.0552 12.8407L23.1452 17.0207C23.4302 17.5907 24.1902 18.1607 24.8235 18.2557L28.6077 18.889C31.0302 19.3007 31.6002 21.0423 29.8585 22.784L26.9135 25.7448C26.4227 26.2357 26.1377 27.2015 26.296 27.8982L27.1352 31.5557C27.8002 34.4373 26.2644 35.5615 23.7152 34.0573L20.1685 31.9515C19.5194 31.5715 18.4744 31.5715 17.8252 31.9515L14.2627 34.0415C11.7135 35.5457 10.1777 34.4215 10.8427 31.5398L11.6819 27.8823C11.8402 27.2015 11.5552 26.2357 11.0644 25.729L8.1352 22.7998C6.39353 21.0582 6.96353 19.3007 9.38603 18.9048L13.1702 18.2715C13.8035 18.1607 14.5635 17.6065 14.8485 17.0365L16.9385 12.8565C18.0627 10.5765 19.931 10.5765 21.0552 12.8407ZM9.49687 15.4373C8.8477 15.4373 8.30937 14.899 8.30937 14.2498V3.1665C8.30937 2.51734 8.8477 1.979 9.49687 1.979C10.146 1.979 10.6844 2.51734 10.6844 3.1665V14.2498C10.6844 14.899 10.146 15.4373 9.49687 15.4373ZM28.4969 15.4373C27.8477 15.4373 27.3094 14.899 27.3094 14.2498V3.1665C27.3094 2.51734 27.8477 1.979 28.4969 1.979C29.146 1.979 29.6844 2.51734 29.6844 3.1665V14.2498C29.6844 14.899 29.146 15.4373 28.4969 15.4373ZM18.9969 7.52067C18.3477 7.52067 17.8094 6.98234 17.8094 6.33317V3.1665C17.8094 2.51734 18.3477 1.979 18.9969 1.979C19.646 1.979 20.1844 2.51734 20.1844 3.1665V6.33317C20.1844 6.98234 19.646 7.52067 18.9969 7.52067Z" fill="url(#paint0_linear_114_2337)"/>
<defs>
<linearGradient id="paint0_linear_114_2337" x1="7.125" y1="1.979" x2="33.5048" y2="4.26168" gradientUnits="userSpaceOnUse">
<stop stop-color="#D33AFF"/>
<stop offset="1" stop-color="#FF71A4"/>
</linearGradient>
</defs>
</svg>
