<svg width="38" height="38" viewBox="0 0 38 38" fill="none" xmlns="http://www.w3.org/2000/svg">
<path d="M11.0837 3.1665H9.50033C4.75033 3.1665 3.16699 6.00067 3.16699 9.49984V33.2498C3.16699 34.564 4.65533 35.3082 5.70033 34.5165L8.40783 32.4898C9.04116 32.0148 9.92783 32.0782 10.4978 32.6482L13.1262 35.2923C13.7437 35.9098 14.757 35.9098 15.3745 35.2923L18.0345 32.6323C18.5887 32.0782 19.4753 32.0148 20.0928 32.4898L22.8003 34.5165C23.8453 35.2923 25.3337 34.5482 25.3337 33.2498V6.33317C25.3337 4.5915 26.7587 3.1665 28.5003 3.1665H11.0837ZM17.8128 21.7707H10.6878C10.0387 21.7707 9.50033 21.2323 9.50033 20.5832C9.50033 19.934 10.0387 19.3957 10.6878 19.3957H17.8128C18.462 19.3957 19.0003 19.934 19.0003 20.5832C19.0003 21.2323 18.462 21.7707 17.8128 21.7707ZM19.0003 15.4373H9.50033C8.85116 15.4373 8.31283 14.899 8.31283 14.2498C8.31283 13.6007 8.85116 13.0623 9.50033 13.0623H19.0003C19.6495 13.0623 20.1878 13.6007 20.1878 14.2498C20.1878 14.899 19.6495 15.4373 19.0003 15.4373Z" fill="url(#paint0_linear_114_2368)"/>
<path d="M28.5155 5.5415C29.5605 5.5415 30.558 5.969 31.2863 6.6815C32.0463 7.45734 32.458 8.45484 32.458 9.49984V13.3315C32.458 14.5032 31.9355 15.0415 30.748 15.0415H27.708V6.349C27.708 5.90567 28.0722 5.5415 28.5155 5.5415ZM28.5155 3.1665C26.758 3.1665 25.333 4.5915 25.333 6.349V17.4165H30.748C33.2497 17.4165 34.833 15.8332 34.833 13.3315V9.49984C34.833 7.75817 34.1205 6.17484 32.9805 5.019C31.7914 3.84182 30.1887 3.17688 28.5155 3.1665Z" fill="url(#paint1_linear_114_2368)"/>
<defs>
<linearGradient id="paint0_linear_114_2368" x1="3.16699" y1="3.1665" x2="31.2816" y2="5.77467" gradientUnits="userSpaceOnUse">
<stop stop-color="#D33AFF"/>
<stop offset="1" stop-color="#FF71A4"/>
</linearGradient>
<linearGradient id="paint1_linear_114_2368" x1="25.333" y1="3.1665" x2="35.8998" y2="4.00719" gradientUnits="userSpaceOnUse">
<stop stop-color="#D33AFF"/>
<stop offset="1" stop-color="#FF71A4"/>
</linearGradient>
</defs>
</svg>
