<svg width="40" height="40" viewBox="0 0 40 40" fill="none" xmlns="http://www.w3.org/2000/svg">
<rect width="40" height="40" fill="#1E1E1E"/>
<g id="Creator Page" clip-path="url(#clip0_0_1)">
<rect width="1920" height="6364" transform="translate(-1146 -5602)" fill="white"/>
<g id="Frame 1171279557">
<path id="Rectangle 40866" d="M-1147 -299H771V192H-1147V-299Z" fill="#F3F3F3"/>
<g id="Group 1171279600">
<g id="Group 1171279593">
<path id="Rectangle 41065" d="M6 13.5C6 10.7386 8.23858 8.5 11 8.5H600.204C602.884 8.5 605.088 10.6137 605.2 13.2918L605.783 27.2918C605.901 30.1325 603.63 32.5 600.787 32.5H11C8.23857 32.5 6 30.2614 6 27.5V13.5Z" fill="url(#paint0_linear_0_1)"/>
<g id="Group 1171279588">
<path id="Subtract" fill-rule="evenodd" clip-rule="evenodd" d="M40 20C40 31.0457 31.0457 40 20 40C8.9543 40 0 31.0457 0 20C0 8.9543 8.9543 0 20 0C31.0457 0 40 8.9543 40 20ZM16.7867 14.1373C16.7867 14.1373 16.3141 13.2681 17.2231 12.7211C16.2708 13.1924 15.7675 12.3394 15.7675 12.3394C15.7675 12.3394 16.2401 13.2086 15.3311 13.7557C16.2834 13.2851 16.7867 14.1373 16.7867 14.1373ZM23.7339 8.12386C22.8248 8.67165 23.2974 9.54086 23.2974 9.54086C23.2974 9.54086 22.7941 8.68788 21.8418 9.15841C22.7509 8.61139 22.2783 7.74219 22.2783 7.74219C22.2783 7.74219 22.7815 8.59517 23.7339 8.12386ZM26.4893 15.3859C25.6604 15.7962 25.2216 15.0537 25.2216 15.0537C25.2216 15.0537 25.6329 15.8109 24.8418 16.2876C25.6707 15.8773 26.1095 16.6198 26.1095 16.6198C26.1095 16.6198 25.6974 15.8619 26.4893 15.3859ZM23.2075 19.8021C23.213 19.8051 23.2185 19.8082 23.2232 19.8113C25.0265 20.8714 26.3083 22.7342 26.5151 24.9485C26.8588 28.6316 24.0985 31.8913 20.3489 32.2297C16.9564 32.5357 13.917 30.3422 13.1148 27.1938C13.1062 27.1605 13.0975 27.1273 13.0897 27.0933C13.0669 26.996 13.0456 26.8986 13.0267 26.7997C13.026 26.8005 13.0252 26.8013 13.0252 26.802C12.7727 25.5434 12.9245 24.2508 13.3979 23.0594C13.5678 22.6314 13.788 22.2219 14.0467 21.8395C14.1757 21.6479 14.3157 21.4624 14.4643 21.2847C14.4777 21.2688 14.5227 21.2238 14.5793 21.1672C14.7126 21.034 14.9102 20.8365 14.9102 20.8034C14.911 20.8053 14.9118 20.8076 14.9125 20.8099C14.9133 20.8123 14.9141 20.8146 14.9149 20.8165C15.732 20.0145 16.7598 19.4127 17.9205 19.1013L17.9229 19.0843L17.9252 19.0704L18.081 17.9887C18.1399 17.5777 18.5206 17.2872 18.9405 17.3304L20.2459 17.4672C20.301 17.376 20.3662 17.2864 20.4425 17.1991C20.6104 17.0073 20.7961 16.8391 20.9758 16.6764L20.9796 16.6729L20.9799 16.6727C21.3596 16.3289 21.7181 16.0045 21.8337 15.5233C21.8753 15.3471 21.8887 15.1563 21.873 14.9531C21.615 14.763 21.3791 14.6363 21.247 14.5714C21.0363 15.2459 20.8161 15.9173 20.5825 16.5849C20.7421 15.8918 20.9159 15.2019 21.1 14.515C20.8994 14.4903 19.8755 14.3945 19.0223 14.8611C18.1072 15.3617 16.0173 16.3395 15.865 16.4107L15.8578 16.4141C15.9207 16.3739 17.9323 15.0991 18.8674 14.5876C19.6317 14.1696 20.0776 13.3978 20.2231 13.1127C19.5272 12.9033 18.8351 12.6839 18.1478 12.4521C18.8619 12.612 19.572 12.7843 20.2805 12.9682C20.3049 12.7719 20.4032 11.7644 19.9282 10.9261C19.4187 10.0271 18.4233 7.97347 18.3509 7.82412L18.3475 7.81711C18.3884 7.87892 19.686 9.85529 20.2066 10.7739C20.6808 11.6115 21.6025 12.0596 21.7873 12.143C22.0012 11.4554 22.2253 10.7709 22.4636 10.0909C22.3024 10.7871 22.1278 11.4809 21.9422 12.1716C22.2646 12.2002 23.1682 12.235 23.9334 11.8162C24.8483 11.3165 26.9377 10.3389 27.0906 10.2674L27.0978 10.264C27.0349 10.3042 25.0233 11.5782 24.0883 12.0897C23.2342 12.5564 22.7781 13.4642 22.694 13.6435C23.3852 13.8513 24.0733 14.0692 24.7567 14.3002C24.0568 14.1441 23.3601 13.9749 22.6657 13.7957C22.6366 14.1125 22.6012 14.9994 23.0274 15.7512C23.5369 16.6502 24.532 18.7033 24.6047 18.8532L24.6081 18.8602C24.5672 18.7984 23.2696 16.822 22.749 15.9034C22.6578 15.7419 22.5493 15.5951 22.4337 15.4622C22.4235 15.5271 22.4125 15.5913 22.3975 15.6538C22.2418 16.3052 21.7999 16.7054 21.3721 17.0917C21.2077 17.2408 21.0528 17.3822 20.9136 17.5367L22.2049 17.6712C22.6437 17.7167 22.9574 18.1085 22.9 18.538L22.764 19.5595L22.7632 19.5625C22.8827 19.6213 23.0015 19.6838 23.1171 19.7495C23.1477 19.7665 23.1776 19.7843 23.2075 19.8021ZM16.9753 29.0643C15.9042 27.8768 15.4198 26.2241 15.8633 24.6881C16.2919 23.1444 17.5305 21.9785 19.0962 21.4879C18.2461 21.4848 17.3779 21.8001 16.689 22.3486C14.4887 24.0484 14.5484 27.6048 16.9753 29.0643Z" fill="white"/>
</g>
</g>
</g>
</g>
</g>
<defs>
<linearGradient id="paint0_linear_0_1" x1="6" y1="32.5" x2="606.237" y2="21.829" gradientUnits="userSpaceOnUse">
<stop stop-color="#D33AFF" stop-opacity="0.2"/>
<stop offset="1" stop-color="#FF71A4"/>
</linearGradient>
<clipPath id="clip0_0_1">
<rect width="1920" height="6364" fill="white" transform="translate(-1146 -5602)"/>
</clipPath>
</defs>
</svg>
