<svg width="38" height="38" viewBox="0 0 38 38" fill="none" xmlns="http://www.w3.org/2000/svg">
<path d="M23.3228 3.1665H14.6778V10.0698H23.3228V3.1665ZM25.6978 3.1665V10.0698H34.6278C33.8203 5.71567 30.6062 3.18234 25.6978 3.1665ZM3.16699 12.4448V25.634C3.16699 31.3973 6.60283 34.8332 12.3662 34.8332H25.6345C31.3978 34.8332 34.8337 31.3973 34.8337 25.634V12.4448H3.16699ZM22.8637 25.6182L19.5703 27.5182C18.8737 27.914 18.1928 28.1198 17.5595 28.1198C17.0845 28.1198 16.657 28.009 16.2612 27.7873C15.3428 27.2648 14.8362 26.1882 14.8362 24.7948V20.9948C14.8362 19.6015 15.3428 18.5248 16.2612 18.0023C17.1795 17.464 18.3512 17.559 19.5703 18.2715L22.8637 20.1715C24.0828 20.8682 24.7478 21.8498 24.7478 22.9107C24.7478 23.9715 24.067 24.9057 22.8637 25.6182ZM12.3012 3.1665C7.39291 3.18234 4.17874 5.71567 3.37124 10.0698H12.3012V3.1665Z" fill="url(#paint0_linear_570_2317)"/>
<defs>
<linearGradient id="paint0_linear_570_2317" x1="3.16699" y1="3.1665" x2="38.115" y2="7.33716" gradientUnits="userSpaceOnUse">
<stop stop-color="#D33AFF"/>
<stop offset="1" stop-color="#FF71A4"/>
</linearGradient>
</defs>
</svg>
