<svg width="38" height="38" viewBox="0 0 38 38" fill="none" xmlns="http://www.w3.org/2000/svg">
<path d="M33.9701 21.5966V23.1799C33.9702 23.3872 33.8889 23.5862 33.7439 23.7342C33.5988 23.8822 33.4015 23.9674 33.1943 23.9716H30.8826C30.0435 23.9716 29.2835 23.3541 29.2201 22.5307C29.1726 22.0399 29.3626 21.5807 29.6793 21.2641C29.8227 21.1156 29.995 20.9982 30.1857 20.9192C30.3764 20.8402 30.5813 20.8013 30.7876 20.8049H33.1785C33.6376 20.8207 33.9701 21.1691 33.9701 21.5966Z" fill="url(#paint0_linear_114_2373)"/>
<path d="M28.4839 20.0923C27.6922 20.8681 27.3122 22.0239 27.6289 23.2273C28.0406 24.6998 29.4814 25.6339 31.0014 25.6339H32.3789C33.2497 25.6339 33.9622 26.3464 33.9622 27.2173V27.5181C33.9622 30.7956 31.2864 33.4714 28.0089 33.4714H9.83224C6.55474 33.4714 3.87891 30.7956 3.87891 27.5181V16.8623C3.87891 14.9148 4.81307 13.1889 6.25391 12.1123C7.25141 11.3523 8.48641 10.9089 9.83224 10.9089H28.0089C31.2864 10.9089 33.9622 13.5848 33.9622 16.8623V17.5589C33.9622 18.4298 33.2497 19.1423 32.3789 19.1423H30.7639C29.8772 19.1423 29.0697 19.4906 28.4839 20.0923ZM25.6497 7.63144C26.0772 8.05894 25.7131 8.72394 25.1114 8.72394L12.9514 8.70811C12.2547 8.70811 11.8906 7.85311 12.3972 7.36227L14.9622 4.78144C16.0073 3.74686 17.4184 3.1665 18.8889 3.1665C20.3594 3.1665 21.7705 3.74686 22.8156 4.78144L25.5864 7.58394C25.6022 7.59977 25.6339 7.61561 25.6497 7.63144Z" fill="url(#paint1_linear_114_2373)"/>
<defs>
<linearGradient id="paint0_linear_114_2373" x1="29.2129" y1="20.8047" x2="34.3721" y2="21.7296" gradientUnits="userSpaceOnUse">
<stop stop-color="#D33AFF"/>
<stop offset="1" stop-color="#FF71A4"/>
</linearGradient>
<linearGradient id="paint1_linear_114_2373" x1="3.87891" y1="3.1665" x2="37.0863" y2="7.10046" gradientUnits="userSpaceOnUse">
<stop stop-color="#D33AFF"/>
<stop offset="1" stop-color="#FF71A4"/>
</linearGradient>
</defs>
</svg>
