<svg xmlns="http://www.w3.org/2000/svg" width="23.585" height="19.721" viewBox="0 0 23.585 19.721">
  <g id="image" transform="translate(-17794 -1331)">
    <path id="Icon_material-perm-media" data-name="Icon material-perm-media" d="M1.965,6.944H0v4.93H.01L0,20.749a1.975,1.975,0,0,0,1.965,1.972H19.654V20.749H1.965ZM21.62,4.972H13.758L11.793,3H5.9A1.966,1.966,0,0,0,3.941,4.972L3.931,16.8A1.975,1.975,0,0,0,5.9,18.777H21.62A1.975,1.975,0,0,0,23.585,16.8V6.944A1.975,1.975,0,0,0,21.62,4.972ZM6.879,15.819,11.3,9.9l3.44,4.447L17.2,11.381l3.44,4.437Z" transform="translate(17794 1328)" fill="#fff"/>
  </g>
</svg>
