<svg xmlns="http://www.w3.org/2000/svg" width="18.028" height="19.412" viewBox="0 0 18.028 19.412">
  <g id="text" transform="translate(0.5 0.5)">
    <g id="noun_text_3994451">
      <g id="Group_131209" data-name="Group 131209" transform="translate(0 0)">
        <path id="Path_172090" data-name="Path 172090" d="M192.336,177H176.692a.692.692,0,0,0-.692.692v2.341a.692.692,0,0,0,1.384,0v-1.65h6.439v15.645h-2.714a.692.692,0,0,0,0,1.384h6.811a.692.692,0,0,0,0-1.384h-2.714V178.384h6.439v1.862a.692.692,0,1,0,1.384,0v-2.554A.692.692,0,0,0,192.336,177Z" transform="translate(-176 -177)" fill="#fff" stroke="#fff" stroke-width="1"/>
      </g>
    </g>
  </g>
</svg>
