<svg width="115" height="118" viewBox="0 0 115 118" fill="none" xmlns="http://www.w3.org/2000/svg">
<g id="Group">
<path id="Vector" d="M84.6434 48.3621C84.6434 48.3621 88.5955 46.8318 87.1776 42.6339C88.9465 46.7041 92.9526 45.3083 92.9526 45.3083C92.9526 45.3083 89.0005 46.8386 90.4184 51.0365C88.6474 46.9688 84.6434 48.3621 84.6434 48.3621Z" fill="#D33AFF"/>
<path id="Vector_2" d="M76.3248 16.0999C76.3248 16.0999 80.2769 14.5697 78.8612 10.3693C80.6301 14.4395 84.6362 13.0437 84.6362 13.0437C84.6362 13.0437 80.6841 14.5739 82.102 18.7718C80.331 14.7041 76.3248 16.0999 76.3248 16.0999Z" fill="#D33AFF"/>
<path id="Vector_3" d="M49.7261 26.3092C51.2655 29.8519 54.755 28.6388 54.755 28.6388C54.755 28.6388 51.3137 29.973 52.5457 33.6283C51.0063 30.0856 47.5168 31.2987 47.5168 31.2987C47.5168 31.2987 50.9628 29.9642 49.7261 26.3092Z" fill="url(#paint0_linear_177_2035)"/>
<path id="Vector_4" d="M48.0147 49.3191C48.0386 49.3218 48.065 49.3266 48.0914 49.3314C48.2376 49.3543 48.3838 49.3772 48.5303 49.4047C49.0873 49.5033 49.6458 49.6202 50.196 49.7516L50.2021 49.7396L52.6072 46.0892C53.6181 44.5534 55.7244 44.1341 57.271 45.1635L61.8229 48.1916C61.803 47.3214 61.6957 46.4514 61.5793 45.5312C61.2715 43.142 60.9565 40.6701 62.2671 38.1575C62.3931 37.9161 62.5361 37.6803 62.6838 37.4442C61.9397 37.5619 61.1797 37.7433 60.4348 38.0183C56.1916 39.5783 46.4884 42.4588 46.184 42.548C46.4734 42.4207 55.715 38.3426 59.9581 36.7826C63.4311 35.5064 65.7874 32.5583 66.5757 31.4612C63.8299 30.1769 61.1046 28.854 58.4056 27.4803C61.2599 28.5686 64.0929 29.7118 66.9081 30.8957C67.1352 30.0936 68.1885 25.9508 66.7256 22.1607C65.1254 18.0095 62.1667 8.51983 62.0751 8.22198C62.2056 8.50513 66.3863 17.5473 67.9886 21.696C69.2975 25.0938 72.3175 27.4035 73.4402 28.1757C74.7639 25.4562 76.1318 22.7564 77.5494 20.0849C76.4263 22.9107 75.2445 25.7135 74.021 28.4989C74.8513 28.7257 79.0813 29.7541 82.9484 28.3307C87.1916 26.7706 96.8947 23.8902 97.1992 23.8009C96.9098 23.9283 87.6682 28.0064 83.425 29.5664C79.5532 30.9902 77.0647 34.4948 76.5969 35.1914C79.4014 36.4988 82.1786 37.8476 84.9342 39.2467C82.065 38.1504 79.215 37.0016 76.3802 35.81C76.0567 37.1171 75.3491 40.7951 76.6576 44.1882C78.2577 48.3395 81.2143 57.8316 81.3059 58.1295C81.1754 57.8463 76.9947 48.8042 75.3945 44.6529C73.9341 40.865 70.3549 38.4292 69.6372 37.9713C68.3192 40.6741 66.9595 43.3594 65.5454 46.0167C66.6494 43.2433 67.8073 40.4933 69.0044 37.7586C68.3962 37.6134 67.28 37.3887 65.9161 37.3089C65.2992 37.9204 64.8108 38.5702 64.455 39.2486C63.4881 41.1068 63.7443 43.1118 64.0153 45.2358C64.1442 46.2474 64.2784 47.2933 64.2873 48.3678C64.2908 48.8531 64.2523 49.3164 64.1765 49.7572L68.7806 52.8157C70.2597 53.802 70.6818 55.7566 69.7276 57.2369L67.2182 61.1339L67.1871 61.185L67.1474 61.246C70.0351 65.3583 71.6836 70.0491 72.0929 74.8188C72.1088 74.8106 72.1289 74.7974 72.1448 74.7892C72.0135 74.9408 72.2499 77.241 72.2464 77.5326C72.2322 78.5026 72.1686 79.4742 72.052 80.4363C71.8237 82.36 71.3954 84.2674 70.7525 86.0996C68.9654 91.2009 65.8557 95.7659 61.5331 99.1383C61.5352 99.1358 61.5348 99.1312 61.5344 99.1266C61.1979 99.3942 60.858 99.6505 60.5131 99.9025C60.3929 99.9908 60.2724 100.074 60.1519 100.158C48.7866 108.137 32.8435 107.048 22.7206 96.9715C11.5331 85.8341 11.6836 67.9503 23.055 57.023C29.8924 50.4538 39.2283 47.8966 48.0147 49.3191ZM58.24 84.7319C55.3962 90.8617 49.2254 94.8799 42.4524 95.8297C54.369 97.6384 64.4691 86.3579 62.0856 74.9929C61.3851 71.382 59.4545 68.0412 56.6957 65.7729C60.3944 71.5473 61.1536 78.6173 58.24 84.7319Z" fill="url(#paint1_linear_177_2035)"/>
</g>
<defs>
<linearGradient id="paint0_linear_177_2035" x1="53.3182" y1="27.4486" x2="49.0658" y2="32.5819" gradientUnits="userSpaceOnUse">
<stop stop-color="#D33AFF"/>
<stop offset="1" stop-color="#FF71A4"/>
</linearGradient>
<linearGradient id="paint1_linear_177_2035" x1="91.8499" y1="19.3695" x2="25.5157" y2="99.4441" gradientUnits="userSpaceOnUse">
<stop stop-color="#D33AFF"/>
<stop offset="1" stop-color="#FF71A4"/>
</linearGradient>
</defs>
</svg>
