<svg xmlns="http://www.w3.org/2000/svg" width="22.074" height="20.067" viewBox="0 0 22.074 20.067">
  <path id="sectionLivetv" data-name="Icon material-live-tv" d="M21.567,7.013H13.952l3.3-3.3L16.551,3,12.537,7.013,8.524,3l-.712.712,3.311,3.3H3.507A2.006,2.006,0,0,0,1.5,9.02v12.04a2.013,2.013,0,0,0,2.007,2.007H21.567a2.013,2.013,0,0,0,2.007-2.007V9.02A2.006,2.006,0,0,0,21.567,7.013Zm0,14.047H3.507V9.02H21.567ZM9.527,11.027v8.027l7.024-4.013Z" transform="translate(-1.5 -3)" fill="#ff71a4"/>
</svg>
