<svg xmlns="http://www.w3.org/2000/svg" width="19.336" height="18.419" viewBox="0 0 19.336 18.419">
  <g id="sectionTrue" data-name="Group 132268" transform="translate(14485.5 -4153)">
    <path id="Path_172366" data-name="Path 172366" d="M217.037,108.506l-9.3,8.486-3.377-3.684a.885.885,0,1,0-1.316,1.184l3.969,4.342a.9.9,0,0,0,1.25.066l9.955-9.1a.916.916,0,0,0,.066-1.25.893.893,0,0,0-1.25-.044Z" transform="translate(-14684.666 4047.213)" fill="#ff71a4"/>
    <path id="Path_172367" data-name="Path 172367" d="M118.411,63.22a9.209,9.209,0,0,0,9.21-9.21,8.085,8.085,0,0,0-.088-1.272.874.874,0,0,0-1.732.241,8.389,8.389,0,0,1,.066,1.031,7.459,7.459,0,1,1-2.653-5.7.872.872,0,1,0,1.118-1.338,9.2,9.2,0,1,0-5.921,16.249Z" transform="translate(-14594.701 4108.2)" fill="#ff71a4"/>
  </g>
</svg>
