<svg width="22" height="22" id="agency_logo" viewBox="0 0 22 22" fill="none"
    xmlns="http://www.w3.org/2000/svg">
    <path d="M11.4987 21.0003H3.07875C1.91875 21.0003 0.96875 20.0703 0.96875 18.9303V4.09035C0.96875 1.47035 2.91875 0.280349 5.30875 1.45035L9.74875 3.63035C10.7087 4.10035 11.4987 5.35035 11.4987 6.41035V21.0003ZM11.4987 21.0003H17.8088C19.9688 21.0003 20.9688 20.0003 20.9688 17.8403V14.0603C20.9688 13.9903 20.9687 13.9303 20.9587 13.8703C20.8987 11.9503 19.8188 11.2703 18.4988 10.9803L16.4687 10.5303L11.9688 9.52035L11.4987 9.42035V21.0003ZM4.49875 8.00035H7.96875M4.49875 12.0003H7.96875" stroke="currentColor" stroke-width="1.5" stroke-linecap="round" stroke-linejoin="round"/>
</svg>
