<svg id="bombLogo" width="28" height="28" viewBox="0 0 28 28" fill="none" xmlns="http://www.w3.org/2000/svg">
<path d="M13.4586 7.37749C13.4586 7.37749 13.4085 6.39742 14.4403 6.2765C13.4023 6.31119 13.3183 5.33319 13.3183 5.33319C13.3183 5.33319 13.3684 6.31325 12.3365 6.43418C13.3743 6.40018 13.4586 7.37749 13.4586 7.37749Z" fill="#D33AFF"/>
<path d="M21.134 5.90406C21.134 5.90406 21.0839 4.924 22.1161 4.80238C21.078 4.83707 20.9941 3.85907 20.9941 3.85907C20.9941 3.85907 21.0442 4.83913 20.0123 4.96005C21.05 4.92606 21.134 5.90406 21.134 5.90406Z" fill="#D33AFF"/>
<path d="M21.4839 12.5009C20.5804 12.5312 20.5066 11.6795 20.5066 11.6795C20.5066 11.6795 20.5499 12.5331 19.6517 12.639C20.5552 12.6087 20.6289 13.4603 20.6289 13.4603C20.6289 13.4603 20.5853 12.6057 21.4839 12.5009Z" fill="#D33AFF"/>
<path d="M16.7375 15.1549C16.7347 15.1502 16.7311 15.1451 16.7276 15.1401C16.7087 15.1117 16.6899 15.0834 16.67 15.0554C16.5958 14.9485 16.5175 14.8432 16.4369 14.7409L16.4389 14.7385L16.9895 13.871C17.2211 13.5062 17.1097 13.0231 16.7422 12.8015L15.6608 12.1493C15.8486 12.0668 16.0448 12.0026 16.2525 11.9354C16.7924 11.7619 17.3506 11.5817 17.7625 11.0569C17.802 11.0065 17.8388 10.953 17.8751 10.8985C17.921 11.0662 17.9548 11.2435 17.9671 11.427C18.0386 12.4715 18.3491 14.7915 18.3591 14.8642C18.3587 14.7909 18.3482 12.4483 18.2766 11.4038C18.2179 10.549 18.623 9.76162 18.7822 9.48719C19.3186 9.93464 19.8614 10.374 20.4125 10.8027C19.9075 10.313 19.3929 9.83322 18.8713 9.36122C19.021 9.23375 19.8057 8.60046 20.7552 8.52956C21.7949 8.45143 24.105 8.12635 24.1774 8.11588C24.1044 8.11672 21.7734 8.14119 20.734 8.21862C19.883 8.28273 19.1013 7.87994 18.8292 7.72158C19.2839 7.17339 19.7303 6.61788 20.1659 6.05478C19.6692 6.57154 19.1831 7.0983 18.7047 7.63207C18.577 7.48068 17.9536 6.69675 17.8887 5.74467C17.8172 4.70018 17.5067 2.38011 17.4967 2.30743C17.4971 2.38075 17.5076 4.72338 17.5792 5.76786C17.6444 6.72096 17.133 7.59142 17.0288 7.75882C16.4818 7.30137 15.9286 6.85375 15.3667 6.41569C15.8747 6.90772 16.3922 7.39052 16.9173 7.86585C16.6689 8.0638 15.9505 8.57836 15.1006 8.6421C14.0609 8.72022 11.7504 9.04601 11.6781 9.05648C11.751 9.05563 14.0821 9.03117 15.1218 8.95304C16.0706 8.88182 16.9326 9.38924 17.0989 9.49401C16.6472 10.0394 16.2031 10.5917 15.7703 11.1526C16.2576 10.6451 16.7347 10.1286 17.2048 9.60544C17.2939 9.71841 17.4484 9.92993 17.5956 10.2078C17.5238 10.3979 17.4316 10.565 17.3206 10.7071C17.0157 11.0948 16.5629 11.2408 16.0832 11.3955C15.8547 11.4692 15.6184 11.5453 15.388 11.6504C15.2839 11.698 15.1886 11.7522 15.1017 11.812L14.0087 11.1519C13.6569 10.9402 13.1989 11.0464 12.9737 11.3937L12.3804 12.3076L12.3725 12.3193L12.3632 12.3336C11.2089 12.1381 10.0493 12.2598 8.99106 12.6491C8.99131 12.6449 8.9922 12.6394 8.99244 12.6352C8.97257 12.6779 8.45851 12.8574 8.39653 12.8872C8.19061 12.9867 7.98907 13.0968 7.79462 13.2171C7.40535 13.4565 7.03865 13.7362 6.70849 14.0534C5.78898 14.9359 5.11028 16.0421 4.80217 17.2837L4.80453 17.2823C4.77947 17.3795 4.75715 17.4762 4.73621 17.5736C4.7288 17.6076 4.72242 17.6411 4.71604 17.6747C4.0957 20.8508 5.84985 24.0831 8.96892 25.2008C12.4163 26.4358 16.2234 24.6233 17.4732 21.1522C18.2244 19.0653 17.8799 16.8544 16.7375 15.1549ZM8.19477 16.5391C7.15633 17.7454 6.88657 19.4386 7.32995 20.9524C5.8063 18.6355 7.25291 15.3957 9.90882 14.7633C10.7472 14.5505 11.6453 14.6224 12.3933 14.9745C10.8065 14.7746 9.2233 15.3196 8.19477 16.5391Z" fill="#D33AFF"/>
</svg>
