<svg id='bombscoin' width="40" height="40" viewBox="0 0 40 40" fill="none"
    xmlns="http://www.w3.org/2000/svg">
    <path d="M20.1459 0C14.8271 0.000599301 9.72427 2.09495 5.9503 5.82629C2.17634 9.55763 0.03741 14.6232 0 19.9184C0.0298459 25.2309 2.16115 30.3177 5.93209 34.0766C9.70302 37.8355 14.8098 39.9637 20.1459 40C25.4329 39.9381 30.4823 37.8037 34.199 34.0597C37.9156 30.3157 40 25.264 40 20C40 14.736 37.9156 9.6843 34.199 5.9403C30.4823 2.1963 25.4329 0.0619064 20.1459 0V0Z" fill="#FEDB41"/>
    <path d="M40 19.9168C39.8909 25.3307 37.7271 30.4801 33.9804 34.242C30.2338 38.0038 25.2083 40.073 20 39.998V0.00422309C25.1903 -0.105565 30.2106 1.92911 33.9599 5.66199C37.7092 9.39488 39.8813 14.5212 40 19.9168V19.9168Z" fill="#FFCC33"/>
    <g filter="url(#filter0_i_612_198480)">
        <path d="M20.1183 2.20351C16.589 2.18029 13.1325 3.20679 10.1879 5.15256C7.24334 7.09832 4.9437 9.87551 3.58115 13.1313C2.21861 16.387 1.85468 19.9743 2.53561 23.4374C3.21655 26.9004 4.91161 30.0829 7.40541 32.5803C9.89921 35.0778 13.0792 36.7776 16.5412 37.4636C20.0032 38.1497 23.5911 37.791 26.8488 36.4333C30.1066 35.0755 32.8872 32.78 34.8373 29.8383C36.7874 26.8966 37.819 23.4416 37.8009 19.9123C37.7552 15.2343 35.8783 10.7604 32.5728 7.45001C29.2672 4.13958 24.7962 2.25614 20.1183 2.20351V2.20351Z" fill="#FEA832"/>
    </g>
    <path d="M37.9221 19.9074C37.7866 24.7513 35.8294 29.3443 32.4746 32.6908C29.1198 36.0372 24.6377 37.8675 20 37.7849V2.20904C24.6195 2.08624 29.0977 3.87888 32.4559 7.1952C35.8142 10.5115 37.7794 15.0818 37.9221 19.9074V19.9074Z" fill="#FE9923"/>
    <g filter="url(#filter1_d_612_198480)">
        <path d="M23.773 13.9962C23.773 13.9962 23.3927 13.2842 24.1243 12.8361C23.3579 13.2221 22.9528 12.5234 22.9528 12.5234C22.9528 12.5234 23.3332 13.2354 22.6016 13.6835C23.368 13.2981 23.773 13.9962 23.773 13.9962Z" fill="#FEDB41"/>
        <path d="M29.0172 10.2312C29.0172 10.2312 28.6368 9.51918 29.3684 9.07046C28.602 9.45652 28.197 8.75781 28.197 8.75781C28.197 8.75781 28.5773 9.46981 27.8457 9.91789C28.6121 9.53247 29.0172 10.2312 29.0172 10.2312Z" fill="#FEDB41"/>
        <path d="M31.5837 15.0221C30.9166 15.3582 30.5635 14.75 30.5635 14.75C30.5635 14.75 30.8945 15.3702 30.2578 15.7607C30.9249 15.4247 31.278 16.0329 31.278 16.0329C31.278 16.0329 30.9464 15.412 31.5837 15.0221Z" fill="#FEDB41"/>
        <path d="M28.5861 18.4349L28.6962 17.5957C28.7424 17.2438 28.4899 16.9229 28.1367 16.8856L27.0969 16.7755C27.2089 16.6495 27.3336 16.5331 27.4665 16.4116C27.8102 16.0945 28.1659 15.7673 28.2918 15.2338C28.3038 15.1825 28.3127 15.13 28.3203 15.0768C28.414 15.1857 28.5013 15.3053 28.5747 15.4376C29.0006 16.2021 30.0708 17.8609 30.0708 17.8609C30.0708 17.8609 29.224 16.0774 28.7981 15.3129C28.4551 14.6971 28.4836 13.9705 28.507 13.711C29.0658 13.8579 29.6266 13.9965 30.1898 14.1243C29.6399 13.9351 29.0861 13.7566 28.5298 13.5864C28.5969 13.4402 28.9639 12.6959 29.6512 12.3136C30.4158 11.8877 32.0746 10.8175 32.0746 10.8175C32.0746 10.8175 30.2911 11.6643 29.5266 12.0902C28.9108 12.4332 28.1836 12.4048 27.9241 12.3807C28.0728 11.8149 28.214 11.2472 28.3437 10.6764C28.1526 11.2333 27.9716 11.794 27.7994 12.3573C27.6513 12.2889 26.9096 11.9219 26.5273 11.2358C26.1014 10.4713 25.0312 8.8125 25.0312 8.8125C25.0312 8.8125 25.878 10.596 26.3039 11.3605C26.6862 12.0472 26.6071 12.8725 26.5874 13.0332C26.0178 12.8832 25.4457 12.7415 24.8711 12.6105C25.4248 12.8003 25.9818 12.9801 26.5412 13.1516C26.4248 13.3851 26.0659 14.0174 25.4508 14.3598C24.6862 14.7857 23.0275 15.8559 23.0275 15.8559C23.0275 15.8559 24.8109 15.0091 25.5755 14.5832C26.2615 14.2009 27.0862 14.28 27.2475 14.2996C27.0994 14.8623 26.9596 15.4274 26.8305 15.9945C27.0184 15.4477 27.1956 14.8977 27.3653 14.3452C27.4716 14.3984 27.6615 14.5022 27.8697 14.6578C27.8823 14.8243 27.8716 14.9806 27.8374 15.1249C27.745 15.5192 27.4558 15.785 27.1501 16.0666C27.0045 16.2008 26.8539 16.3394 26.7178 16.497C26.6564 16.5685 26.6039 16.6419 26.5596 16.7166L25.509 16.6052C25.171 16.5692 24.8654 16.8078 24.8173 17.1445L24.6881 18.0552C23.754 18.3109 22.9275 18.8033 22.2693 19.4602C22.1971 19.1975 22.0927 18.9438 21.9566 18.6982C21.6908 18.2191 21.3357 17.8394 20.8908 17.5577C20.4465 17.2767 19.9554 17.1204 19.4181 17.0888C18.8814 17.0571 18.3409 17.1755 17.7973 17.4438C18.7485 16.8995 19.5599 16.2515 20.2314 15.4996C20.7978 14.8553 21.1592 14.1844 21.3168 13.487C21.4737 12.7896 21.3357 12.0503 20.9016 11.2681C20.594 10.7131 20.1864 10.3289 19.6807 10.115C19.1744 9.90107 18.6042 9.81752 17.9701 9.86436C17.3365 9.91056 16.6764 10.0587 15.9898 10.3074C15.3031 10.5567 14.6196 10.87 13.9386 11.2478C12.9797 11.7795 12.0576 12.3984 11.1716 13.1047C10.2849 13.811 9.50519 14.5901 8.83117 15.442C8.15778 16.2945 7.64514 17.2052 7.29325 18.1761C6.83694 19.4349 6.85087 20.4994 7.33313 21.3696C7.81602 22.2398 8.49764 22.5461 9.37735 22.2892C9.51595 22.212 9.54317 22.1721 9.45963 22.1689C9.33621 22.155 9.22546 22.1341 9.12736 22.1063C9.02926 22.0784 8.93749 22.0468 8.85205 22.0114C8.52295 21.8639 8.25714 21.6076 8.05399 21.2418C7.76729 20.7247 7.78248 19.8754 8.09955 18.6931C8.51789 17.1584 9.27293 15.8072 10.3659 14.6401C11.4583 13.4737 12.7424 12.4801 14.2177 11.6618C14.9746 11.2422 15.7208 10.9308 16.4581 10.7276C17.1948 10.5251 17.8637 10.4966 18.4637 10.6415C19.0637 10.7871 19.539 11.1751 19.889 11.8054C20.2314 12.4238 20.3814 13.0497 20.3371 13.6845C20.2934 14.3186 20.0168 14.9502 19.5086 15.5787C18.9744 16.2217 18.2916 16.7736 17.4587 17.2356C17.3327 17.3058 17.2049 17.3729 17.0752 17.4362C16.946 17.5001 16.8271 17.5533 16.7195 17.597C16.4309 17.6419 16.1967 17.6805 16.0176 17.7141C15.8379 17.7476 15.6917 17.7957 15.5784 17.859C15.4265 17.9425 15.3031 18.0691 15.2069 18.2381C15.1107 18.4064 15.0942 18.5476 15.1575 18.6615C15.2486 18.8254 15.6113 18.7805 16.2461 18.5273C16.6644 18.3609 17.0777 18.1982 17.484 18.0381C18.1112 17.921 18.7232 17.9691 19.32 18.1824C19.9168 18.3957 20.3586 18.7608 20.6453 19.2779C20.918 19.7697 21.0351 20.3519 20.9965 21.0247C20.9845 21.2285 20.9617 21.4323 20.9269 21.6367C20.8377 21.9082 20.7693 22.1892 20.7231 22.4765C20.6617 22.6721 20.5896 22.8683 20.5079 23.0651C20.2212 23.7518 19.8459 24.3847 19.3839 24.9625C18.9213 25.541 18.3998 25.9909 17.8201 26.3131C16.2809 27.1669 14.7037 27.0441 13.088 25.9447C13.6981 24.2208 14.1639 21.9835 14.4847 19.2323C14.5075 19.0058 14.5835 18.6457 14.7145 18.1526C14.8449 17.6596 15.0259 17.0274 15.2575 16.2552C15.767 14.5876 16.1511 13.5414 16.4106 13.1168C16.7549 12.8763 16.8644 12.6421 16.7385 12.4155C16.6619 12.2769 16.5144 12.1972 16.2973 12.1776C16.0803 12.1579 15.8455 12.2181 15.5936 12.3579C15.3664 12.4839 15.1645 12.6541 14.986 12.868C14.4828 13.4775 13.9424 15.6989 13.3645 19.5323L12.9405 22.736C12.869 23.3202 12.7956 23.8353 12.7215 24.2803C12.6468 24.7258 12.5684 25.1119 12.4855 25.4384L10.9102 23.9372C10.3855 23.4366 9.93999 23.2879 9.57418 23.491C9.19571 23.7005 8.95712 24.0727 8.85712 24.6062C8.75776 25.1403 8.70396 25.6973 8.69637 26.2789C8.67611 27.6099 8.87611 28.6529 9.29571 29.4098C9.47102 29.725 9.70076 29.9686 9.98556 30.1402C10.2704 30.3123 10.5457 30.3243 10.8102 30.1775C11.3652 29.8699 11.9912 28.813 12.6886 27.008C14.1626 27.9706 15.8961 27.8997 17.889 26.7941C18.658 26.3675 19.3662 25.8302 20.013 25.1828C20.2769 24.9176 20.5231 24.6442 20.7497 24.3613C21.2649 27.1118 23.7996 29.0699 26.6425 28.8092C29.6601 28.532 31.8815 25.8618 31.605 22.8449C31.4252 20.8823 30.2303 19.2551 28.5861 18.4349ZM10.8153 29.6079C10.664 29.6921 10.4836 29.6275 10.2748 29.413C10.0653 29.1997 9.91151 29.0048 9.81341 28.8275C9.359 28.008 9.22356 26.665 9.40836 24.7973C9.44444 24.7448 9.46912 24.7144 9.48178 24.7075C9.7843 24.5391 10.6533 25.1543 12.088 26.5511L12.1874 26.5954C11.676 28.3801 11.2191 29.3839 10.8153 29.6079ZM26.1868 27.6213C23.8072 27.8396 21.7009 26.0871 21.4826 23.7075C21.4718 23.586 21.4655 23.4651 21.4649 23.3448C21.456 22.3354 21.7984 21.3924 22.3857 20.6437C23.0952 19.7387 24.1616 19.1165 25.397 19.0032C27.7766 18.7849 29.8829 20.5374 30.1012 22.917C30.3189 25.2967 28.5671 27.4029 26.1868 27.6213Z" fill="#FEDB41"/>
        <path d="M23.9272 26.2295C23.0652 25.2562 22.6753 23.9024 23.0323 22.6449C23.3772 21.3804 24.374 20.4253 25.6341 20.0235C24.9499 20.0209 24.2512 20.2791 23.6968 20.7291C21.9266 22.1208 21.9747 25.0334 23.9272 26.2295Z" fill="#FEDB41"/>
    </g>
    <g filter="url(#filter2_d_612_198480)">
        <path d="M16.4384 4.2443C16.5422 4.6147 16.6135 4.87292 16.687 5.13114C16.8966 5.88252 17.3569 6.38627 18.1544 6.56406C18.4375 6.62756 18.7184 6.70798 19.075 6.799C18.8827 6.86884 18.7573 6.91964 18.6276 6.95774C18.3834 7.03182 18.1371 7.09743 17.8929 7.1694C17.3245 7.33872 16.9657 7.72394 16.7669 8.25731C16.674 8.50918 16.6135 8.77163 16.5378 9.02985C16.5098 9.1251 16.4795 9.22035 16.419 9.41719C16.3498 9.24363 16.3131 9.16743 16.2915 9.08912C16.205 8.79703 16.1445 8.49648 16.0365 8.21286C15.8441 7.69854 15.4875 7.33237 14.9386 7.1694C14.7117 7.10167 14.4848 7.03605 14.2579 6.96832C14.1217 6.92811 13.9856 6.88366 13.75 6.80958C14.1152 6.7101 14.381 6.62544 14.6555 6.56617C15.4767 6.38838 15.9392 5.86559 16.1618 5.0994C16.2353 4.84752 16.2591 4.57872 16.4428 4.24219L16.4384 4.2443Z" fill="white"/>
    </g>
    <g filter="url(#filter3_d_612_198480)">
        <path d="M31.4636 26.4745C31.5557 26.802 31.619 27.0303 31.6842 27.2585C31.8702 27.9228 32.2786 28.3681 32.9862 28.5253C33.2374 28.5815 33.4867 28.6526 33.8031 28.733C33.6325 28.7948 33.5212 28.8397 33.4062 28.8734C33.1895 28.9389 32.9709 28.9969 32.7542 29.0605C32.2499 29.2102 31.9315 29.5507 31.7551 30.0223C31.6727 30.2449 31.619 30.4769 31.5518 30.7052C31.5269 30.7894 31.5001 30.8736 31.4464 31.0477C31.385 30.8942 31.3524 30.8269 31.3332 30.7576C31.2565 30.4994 31.2028 30.2337 31.107 29.983C30.9363 29.5283 30.6199 29.2046 30.1328 29.0605C29.9315 29.0006 29.7301 28.9426 29.5288 28.8827C29.408 28.8472 29.2871 28.8079 29.0781 28.7424C29.4022 28.6544 29.6381 28.5796 29.8816 28.5272C30.6103 28.37 31.0207 27.9078 31.2182 27.2305C31.2834 27.0078 31.3045 26.7702 31.4675 26.4727L31.4636 26.4745Z" fill="white"/>
    </g>
    <g filter="url(#filter4_d_612_198480)">
        <path d="M11.9529 32.9231C12.0128 33.1324 12.054 33.2784 12.0964 33.4243C12.2174 33.849 12.4833 34.1337 12.9438 34.2342C13.1072 34.2701 13.2695 34.3156 13.4754 34.367C13.3643 34.4065 13.2919 34.4352 13.2171 34.4568C13.076 34.4986 12.9338 34.5357 12.7927 34.5764C12.4645 34.6721 12.2574 34.8898 12.1426 35.1913C12.0889 35.3337 12.054 35.482 12.0103 35.6279C11.9941 35.6818 11.9766 35.7356 11.9416 35.8469C11.9017 35.7488 11.8805 35.7057 11.868 35.6614C11.8181 35.4964 11.7831 35.3265 11.7207 35.1662C11.6097 34.8755 11.4038 34.6685 11.0868 34.5764C10.9557 34.5381 10.8247 34.501 10.6937 34.4627C10.615 34.44 10.5364 34.4149 10.4004 34.373C10.6113 34.3168 10.7648 34.2689 10.9233 34.2354C11.3975 34.1349 11.6646 33.8395 11.7931 33.4064C11.8356 33.264 11.8493 33.1121 11.9554 32.9219L11.9529 32.9231Z" fill="white"/>
    </g>
    <defs>
        <filter id="filter0_i_612_198480" x="2.20117" y="2.20312" width="35.5996" height="35.9113" filterUnits="userSpaceOnUse" color-interpolation-filters="sRGB">
            <feFlood flood-opacity="0" result="BackgroundImageFix"/>
            <feBlend mode="normal" in="SourceGraphic" in2="BackgroundImageFix" result="shape"/>
            <feColorMatrix in="SourceAlpha" type="matrix" values="0 0 0 0 0 0 0 0 0 0 0 0 0 0 0 0 0 0 127 0" result="hardAlpha"/>
            <feOffset dy="0.311688"/>
            <feGaussianBlur stdDeviation="0.25974"/>
            <feComposite in2="hardAlpha" operator="arithmetic" k2="-1" k3="1"/>
            <feColorMatrix type="matrix" values="0 0 0 0 0.9375 0 0 0 0 0.505137 0 0 0 0 0 0 0 0 1 0"/>
            <feBlend mode="normal" in2="shape" result="effect1_innerShadow_612_198480"/>
        </filter>
        <filter id="filter1_d_612_198480" x="2.96094" y="4.75781" width="33.1133" height="29.5215" filterUnits="userSpaceOnUse" color-interpolation-filters="sRGB">
            <feFlood flood-opacity="0" result="BackgroundImageFix"/>
            <feColorMatrix in="SourceAlpha" type="matrix" values="0 0 0 0 0 0 0 0 0 0 0 0 0 0 0 0 0 0 127 0" result="hardAlpha"/>
            <feOffset/>
            <feGaussianBlur stdDeviation="2"/>
            <feComposite in2="hardAlpha" operator="out"/>
            <feColorMatrix type="matrix" values="0 0 0 0 0 0 0 0 0 0 0 0 0 0 0 0 0 0 0.12 0"/>
            <feBlend mode="normal" in2="BackgroundImageFix" result="effect1_dropShadow_612_198480"/>
            <feBlend mode="normal" in="SourceGraphic" in2="effect1_dropShadow_612_198480" result="shape"/>
        </filter>
        <filter id="filter2_d_612_198480" x="13.03" y="3.52219" width="6.76422" height="6.61578" filterUnits="userSpaceOnUse" color-interpolation-filters="sRGB">
            <feFlood flood-opacity="0" result="BackgroundImageFix"/>
            <feColorMatrix in="SourceAlpha" type="matrix" values="0 0 0 0 0 0 0 0 0 0 0 0 0 0 0 0 0 0 127 0" result="hardAlpha"/>
            <feOffset/>
            <feGaussianBlur stdDeviation="0.36"/>
            <feComposite in2="hardAlpha" operator="out"/>
            <feColorMatrix type="matrix" values="0 0 0 0 0.996078 0 0 0 0 0.658824 0 0 0 0 0.196078 0 0 0 1 0"/>
            <feBlend mode="normal" in2="BackgroundImageFix" result="effect1_dropShadow_612_198480"/>
            <feBlend mode="normal" in="SourceGraphic" in2="effect1_dropShadow_612_198480" result="shape"/>
        </filter>
        <filter id="filter3_d_612_198480" x="28.3581" y="25.7527" width="6.16461" height="6.01422" filterUnits="userSpaceOnUse" color-interpolation-filters="sRGB">
            <feFlood flood-opacity="0" result="BackgroundImageFix"/>
            <feColorMatrix in="SourceAlpha" type="matrix" values="0 0 0 0 0 0 0 0 0 0 0 0 0 0 0 0 0 0 127 0" result="hardAlpha"/>
            <feOffset/>
            <feGaussianBlur stdDeviation="0.36"/>
            <feComposite in2="hardAlpha" operator="out"/>
            <feColorMatrix type="matrix" values="0 0 0 0 0.996078 0 0 0 0 0.658824 0 0 0 0 0.196078 0 0 0 1 0"/>
            <feBlend mode="normal" in2="BackgroundImageFix" result="effect1_dropShadow_612_198480"/>
            <feBlend mode="normal" in="SourceGraphic" in2="effect1_dropShadow_612_198480" result="shape"/>
        </filter>
        <filter id="filter4_d_612_198480" x="9.68039" y="32.2019" width="4.51422" height="4.36578" filterUnits="userSpaceOnUse" color-interpolation-filters="sRGB">
            <feFlood flood-opacity="0" result="BackgroundImageFix"/>
            <feColorMatrix in="SourceAlpha" type="matrix" values="0 0 0 0 0 0 0 0 0 0 0 0 0 0 0 0 0 0 127 0" result="hardAlpha"/>
            <feOffset/>
            <feGaussianBlur stdDeviation="0.36"/>
            <feComposite in2="hardAlpha" operator="out"/>
            <feColorMatrix type="matrix" values="0 0 0 0 0.996078 0 0 0 0 0.658824 0 0 0 0 0.196078 0 0 0 1 0"/>
            <feBlend mode="normal" in2="BackgroundImageFix" result="effect1_dropShadow_612_198480"/>
            <feBlend mode="normal" in="SourceGraphic" in2="effect1_dropShadow_612_198480" result="shape"/>
        </filter>
    </defs>
</svg>
