<svg id="check_icon" xmlns="http://www.w3.org/2000/svg" width="74.521" height="74.521" viewBox="0 0 74.521 74.521" fill="currentColor">
  <path id="Path_108805" data-name="Path 108805" d="M37.26,0a37.26,37.26,0,1,0,37.26,37.26A37.305,37.305,0,0,0,37.26,0Z"/>
  <path id="Path_108806" data-name="Path 108806" d="M127,125.617l-19.234,18.328L98.6,134.479a2.992,2.992,0,1,0-4.33,4.129l11.279,11.581a3.071,3.071,0,0,0,2.115.906,3.462,3.462,0,0,0,2.115-.806l21.45-20.342a2.92,2.92,0,0,0,.1-4.23A3.135,3.135,0,0,0,127,125.617Z" transform="translate(-75.438 -100.743)" fill="#fff"/>
</svg>
