<svg width="84" height="84" viewBox="0 0 84 84" fill="none" xmlns="http://www.w3.org/2000/svg">
<path d="M35.8536 51.474L25.6453 41.2656C25.0203 40.6406 24.2564 40.3281 23.3536 40.3281C22.4508 40.3281 21.6522 40.6754 20.9578 41.3698C20.3328 41.9948 20.0203 42.7587 20.0203 43.6615C20.0203 44.5642 20.3328 45.3281 20.9578 45.9531L33.6661 58.7656C34.2911 59.3906 35.0203 59.7031 35.8536 59.7031C36.6869 59.7031 37.4161 59.3906 38.0411 58.7656L62.9369 33.8698C63.6314 33.1754 63.9786 32.3767 63.9786 31.474C63.9786 30.5712 63.6314 29.7726 62.9369 29.0781C62.2425 28.4531 61.4265 28.158 60.489 28.1927C59.5515 28.2274 58.7703 28.5573 58.1453 29.1823L35.8536 51.474ZM41.9994 83.6615C36.305 83.6615 30.923 82.5677 25.8536 80.3802C20.7842 78.1927 16.3571 75.2066 12.5723 71.4219C8.78763 67.6372 5.80151 63.2101 3.61401 58.1406C1.42651 53.0712 0.332764 47.6892 0.332764 41.9948C0.332764 36.2309 1.42651 30.8142 3.61401 25.7448C5.80151 20.6754 8.78763 16.2656 12.5723 12.5156C16.3571 8.76563 20.7842 5.79688 25.8536 3.60938C30.923 1.42188 36.305 0.328125 41.9994 0.328125C47.7633 0.328125 53.18 1.42188 58.2494 3.60938C63.3189 5.79688 67.7286 8.76563 71.4786 12.5156C75.2286 16.2656 78.1974 20.6754 80.3849 25.7448C82.5724 30.8142 83.6661 36.2309 83.6661 41.9948C83.6661 47.6892 82.5724 53.0712 80.3849 58.1406C78.1974 63.2101 75.2286 67.6372 71.4786 71.4219C67.7286 75.2066 63.3189 78.1927 58.2494 80.3802C53.18 82.5677 47.7633 83.6615 41.9994 83.6615Z" fill="url(#paint0_linear_1066_310452)"/>
<defs>
<linearGradient id="paint0_linear_1066_310452" x1="0.332764" y1="0.328125" x2="92.3012" y2="11.3035" gradientUnits="userSpaceOnUse">
<stop stop-color="#D33AFF"/>
<stop offset="1" stop-color="#FF71A4"/>
</linearGradient>
</defs>
</svg>
