<svg width="66" height="66" viewBox="0 0 66 66" fill="none" xmlns="http://www.w3.org/2000/svg">
<mask id="mask0_2502_154583" style="mask-type:alpha" maskUnits="userSpaceOnUse" x="0" y="0" width="66" height="66">
<rect x="64" y="66" width="64" height="64" transform="rotate(-178.555 64 66)" fill="#D9D9D9"/>
</mask>
<g mask="url(#mask0_2502_154583)">
<path d="M33.1343 20.5393C32.5675 20.525 32.0879 20.7046 31.6955 21.0782C31.303 21.4517 31.0997 21.9217 31.0854 22.4882L30.7996 33.818C30.7853 34.3844 30.965 34.8641 31.3386 35.2569C31.7124 35.6498 32.1826 35.8534 32.7493 35.8677C33.316 35.882 33.7956 35.7024 34.1881 35.3288C34.5805 34.9553 34.7839 34.4853 34.7981 33.9188L35.084 22.589C35.0983 22.0226 34.9186 21.5429 34.5449 21.1501C34.1712 20.7572 33.701 20.5536 33.1343 20.5393ZM32.6333 40.4303C32.0232 40.4149 31.5067 40.6084 31.0836 41.0106C30.6605 41.4129 30.4413 41.919 30.4259 42.5291C30.4105 43.1391 30.6039 43.6557 31.0062 44.0788C31.4084 44.5019 31.9146 44.7212 32.5247 44.7365C33.1347 44.7519 33.6513 44.5585 34.0744 44.1562C34.4975 43.7539 34.7167 43.2478 34.7321 42.6377C34.7475 42.0277 34.5541 41.5111 34.1518 41.088C33.7495 40.6649 33.2434 40.4457 32.6333 40.4303ZM33.4501 7.87655C36.9528 7.96492 40.2284 8.71266 43.2769 10.1198C46.3255 11.5269 48.9609 13.3986 51.1833 15.735C53.4057 18.0714 55.143 20.7967 56.3952 23.9109C57.6474 27.0252 58.2294 30.3336 58.141 33.8363C58.0526 37.339 57.3049 40.6147 55.8978 43.6632C54.4907 46.7117 52.6189 49.3472 50.2826 51.5695C47.9462 53.7919 45.2209 55.5292 42.1066 56.7814C38.9924 58.0336 35.6839 58.6156 32.1812 58.5272C28.6785 58.4388 25.4029 57.6911 22.3544 56.284C19.3058 54.8769 16.6704 53.0051 14.448 50.6688C12.2256 48.3324 10.4883 45.6071 9.2361 42.4928C7.98389 39.3786 7.40197 36.0701 7.49034 32.5674C7.5787 29.0647 8.32645 25.7891 9.73356 22.7406C11.1407 19.6921 13.0124 17.0566 15.3487 14.8342C17.6851 12.6118 20.4105 10.8745 23.5247 9.62232C26.6389 8.3701 29.9474 7.78818 33.4501 7.87655Z" fill="url(#paint0_linear_2502_154583)"/>
</g>
<defs>
<linearGradient id="paint0_linear_2502_154583" x1="7" y1="33" x2="57" y2="35" gradientUnits="userSpaceOnUse">
<stop stop-color="#D33AFF"/>
<stop offset="1" stop-color="#FF71A4"/>
</linearGradient>
</defs>
</svg>
