<svg id='juicyfacebook' width="29" height="29" viewBox="0 0 29 29" fill="none" xmlns="http://www.w3.org/2000/svg">
<g clip-path="url(#clip0_171_3324)">
<rect x="2" y="1.65234" width="24.888" height="24.888" rx="12.444" fill="#1877F2"/>
<path d="M19.2878 17.6938L19.8395 14.0967H16.3882V11.7635C16.3882 10.7792 16.8694 9.81911 18.4152 9.81911H19.9853V6.75672C19.9853 6.75672 18.5611 6.51367 17.2 6.51367C14.3563 6.51367 12.4995 8.23688 12.4995 11.3552V14.0967H9.33984V17.6938H12.4995V26.3901C13.1338 26.4897 13.7827 26.5408 14.4438 26.5408C15.1049 26.5408 15.7539 26.4897 16.3882 26.3901V17.6938H19.2878Z" fill="white"/>
</g>
<rect x="1.25928" y="0.911628" width="26.3695" height="26.3695" rx="13.1847" stroke="#392B5A" stroke-width="1.48143"/>
<defs>
<clipPath id="clip0_171_3324">
<rect x="2" y="1.65234" width="24.888" height="24.888" rx="12.444" fill="white"/>
</clipPath>
</defs>
</svg>
