<svg id='fanBottom' width="200" height="200" viewBox="0 0 200 200" fill="none" xmlns="http://www.w3.org/2000/svg">
<circle cx="100" cy="100" r="100" fill="#F1EBFF"/>
<path d="M130.828 124.748C137.019 110.159 138.175 94.7502 139.384 79.3503C139.308 79.3302 139.232 79.3101 139.155 79.29C138.913 79.9625 138.692 80.6422 138.429 81.3055C136.822 85.382 135.355 89.5133 133.446 93.4711C131.565 97.3759 129.564 101.215 126.856 104.648C125.042 106.947 123.064 109.088 120.191 110.132C117.85 110.981 115.598 110.749 113.633 109.172C109.868 106.148 106.355 102.847 102.806 99.585C97.7631 94.9512 92.7423 90.2917 87.7309 85.625C83.4843 81.6691 79.2396 77.7095 75.047 73.6969C73.7667 72.4708 72.4212 71.3142 71.1595 70.0717C70.9939 69.9091 70.8525 69.6679 70.5324 69.7866C73.9751 74.0697 77.2968 78.4294 80.3524 82.9792C86.0449 91.4575 90.9819 100.323 94.4246 109.929C96.8438 116.677 98.4274 123.598 98.3232 130.805C98.232 137.151 96.7545 143.139 93.4141 148.631C93.0661 149.203 92.8838 149.262 92.372 148.757C84.0221 140.539 75.6462 132.347 67.287 124.137C60.7199 117.689 54.028 111.356 47.647 104.736C41.0873 97.9295 38.3238 89.6559 39.1389 80.3005C39.8758 71.8514 43.4432 64.7015 49.7777 58.953C53.9108 55.2018 58.792 52.7514 64.3468 51.7282C74.6785 49.8242 84.2194 51.8963 93.014 57.4328C95.1243 58.7612 97.0894 60.3052 98.8145 62.1087C99.263 62.5782 99.5384 62.6495 100.063 62.1415C105.977 56.4205 113.037 52.8446 121.229 51.5437C128.297 50.4217 135.214 50.9315 141.744 54.0597C150.239 58.1308 155.805 64.7727 158.464 73.5781C161.685 84.2509 159.854 94.1728 152.837 103.022C150.51 105.957 147.634 108.4 144.976 111.036C140.573 115.405 136.131 119.739 131.708 124.088C131.47 124.318 131.28 124.601 130.828 124.748ZM124.765 90.8965C124.774 85.9429 120.881 81.8573 116.147 81.85C111.158 81.8427 107.28 85.7986 107.265 90.9112C107.25 95.8977 111.139 99.8847 116.026 99.8901C120.89 99.8974 124.756 95.9214 124.765 90.8965Z" fill="url(#paint0_linear_169_411)"/>
<defs>
<linearGradient id="paint0_linear_169_411" x1="160" y1="51" x2="55.4157" y2="151.102" gradientUnits="userSpaceOnUse">
<stop stop-color="#8C2A25"/>
<stop offset="1" stop-color="#ED423A"/>
</linearGradient>
</defs>
</svg>
