<svg id="google2" width="32" height="32" viewBox="0 0 32 32" fill="none" xmlns="http://www.w3.org/2000/svg">
<g clip-path="url(#clip0_169_788)">
<path d="M24 0H8C5.87827 0 3.84344 0.842855 2.34315 2.34315C0.842855 3.84344 0 5.87827 0 8L0 24C0 26.1217 0.842855 28.1566 2.34315 29.6569C3.84344 31.1571 5.87827 32 8 32H24C26.1217 32 28.1566 31.1571 29.6569 29.6569C31.1571 28.1566 32 26.1217 32 24V8C32 5.87827 31.1571 3.84344 29.6569 2.34315C28.1566 0.842855 26.1217 0 24 0V0Z" fill="white"/>
<path fill-rule="evenodd" clip-rule="evenodd" d="M24.64 16.2048C24.64 15.5668 24.583 14.9528 24.476 14.3638H16V17.8448H20.844C20.7438 18.3954 20.5329 18.9199 20.2242 19.3867C19.9155 19.8536 19.5154 20.253 19.048 20.5608V22.8198H21.956C23.658 21.2528 24.64 18.9458 24.64 16.2048Z" fill="#4285F4"/>
<path fill-rule="evenodd" clip-rule="evenodd" d="M16 25C18.43 25 20.467 24.194 21.956 22.82L19.047 20.561C18.242 21.101 17.211 21.421 16 21.421C13.656 21.421 11.672 19.837 10.964 17.71H7.95703V20.042C8.70608 21.5329 9.85497 22.7862 11.2753 23.6617C12.6957 24.5373 14.3315 25.0006 16 25Z" fill="#34A853"/>
<path fill-rule="evenodd" clip-rule="evenodd" d="M10.964 17.71C10.7787 17.1589 10.6835 16.5815 10.682 16C10.682 15.407 10.784 14.83 10.964 14.29V11.958H7.957C7.32709 13.2123 6.99936 14.5965 7 16C7 17.452 7.348 18.827 7.957 20.042L10.964 17.71Z" fill="#FBBC05"/>
<path fill-rule="evenodd" clip-rule="evenodd" d="M16 10.58C17.321 10.58 18.508 11.034 19.44 11.925L22.022 9.345C20.462 7.891 18.426 7 16 7C14.3315 6.99934 12.6957 7.46268 11.2753 8.33823C9.85497 9.21378 8.70608 10.4671 7.95703 11.958L10.964 14.29C11.672 12.163 13.656 10.58 16 10.58Z" fill="#EA4335"/>
</g>
<defs>
<clipPath id="clip0_169_788">
<rect width="32" height="32" fill="white"/>
</clipPath>
</defs>
</svg>
