<svg width="52" id="info_outline_7" height="52" viewBox="0 0 52 52" fill="none" xmlns="http://www.w3.org/2000/svg">
<mask id="mask0_1768_100963" style="mask-type:alpha" maskUnits="userSpaceOnUse" x="0" y="0" width="52" height="52">
<rect x="52" y="52" width="52" height="52" transform="rotate(-180 52 52)" fill="#D9D9D9"/>
</mask>
<g mask="url(#mask0_1768_100963)">
<path d="M26 13C25.2633 13 24.6458 13.2492 24.1475 13.7475C23.6492 14.2458 23.4 14.8633 23.4 15.6V26C23.4 26.7367 23.6492 27.3542 24.1475 27.8525C24.6458 28.3508 25.2633 28.6 26 28.6C26.7367 28.6 27.3542 28.3508 27.8525 27.8525C28.3508 27.3542 28.6 26.7367 28.6 26V15.6C28.6 14.8633 28.3508 14.2458 27.8525 13.7475C27.3542 13.2492 26.7367 13 26 13ZM26 33.8C25.2633 33.8 24.6458 34.0492 24.1475 34.5475C23.6492 35.0458 23.4 35.6633 23.4 36.4C23.4 37.1367 23.6492 37.7542 24.1475 38.2525C24.6458 38.7508 25.2633 39 26 39C26.7367 39 27.3542 38.7508 27.8525 38.2525C28.3508 37.7542 28.6 37.1367 28.6 36.4C28.6 35.6633 28.3508 35.0458 27.8525 34.5475C27.3542 34.0492 26.7367 33.8 26 33.8ZM26 1.90735e-06C29.5967 1.90735e-06 32.9767 0.682503 36.14 2.0475C39.3033 3.4125 42.055 5.265 44.395 7.605C46.735 9.945 48.5875 12.6967 49.9525 15.86C51.3175 19.0233 52 22.4033 52 26C52 29.5967 51.3175 32.9767 49.9525 36.14C48.5875 39.3033 46.735 42.055 44.395 44.395C42.055 46.735 39.3033 48.5875 36.14 49.9525C32.9767 51.3175 29.5967 52 26 52C22.4033 52 19.0233 51.3175 15.86 49.9525C12.6967 48.5875 9.945 46.735 7.605 44.395C5.265 42.055 3.4125 39.3033 2.0475 36.14C0.682503 32.9767 1.90735e-06 29.5967 1.90735e-06 26C1.90735e-06 22.4033 0.682503 19.0233 2.0475 15.86C3.4125 12.6967 5.265 9.945 7.605 7.605C9.945 5.265 12.6967 3.4125 15.86 2.0475C19.0233 0.682503 22.4033 1.90735e-06 26 1.90735e-06ZM26 5.2C20.1933 5.2 15.275 7.215 11.245 11.245C7.215 15.275 5.2 20.1933 5.2 26C5.2 31.8067 7.215 36.725 11.245 40.755C15.275 44.785 20.1933 46.8 26 46.8C31.8067 46.8 36.725 44.785 40.755 40.755C44.785 36.725 46.8 31.8067 46.8 26C46.8 20.1933 44.785 15.275 40.755 11.245C36.725 7.215 31.8067 5.2 26 5.2Z" fill="#DE2C2C"/>
</g>
</svg>
