<svg id='juicyinsta' width="29" height="29" viewBox="0 0 29 29" fill="none" xmlns="http://www.w3.org/2000/svg">
<rect x="1.36671" y="0.911628" width="26.3695" height="26.3695" rx="13.1847" fill="url(#paint0_linear_171_3326)"/>
<path d="M14.5533 7.97671C16.5484 7.97671 16.7826 7.9856 17.5711 8.02118C18.3004 8.05379 18.6947 8.17533 18.9585 8.27908C19.3083 8.41545 19.5573 8.57552 19.8182 8.83639C20.079 9.09726 20.2421 9.34628 20.3755 9.69608C20.4763 9.95991 20.6008 10.3542 20.6334 11.0834C20.669 11.872 20.6779 12.1062 20.6779 14.1012C20.6779 16.0963 20.669 16.3305 20.6334 17.119C20.6008 17.8483 20.4792 18.2425 20.3755 18.5064C20.2391 18.8562 20.079 19.1052 19.8182 19.366C19.5573 19.6269 19.3083 19.79 18.9585 19.9234C18.6947 20.0241 18.3004 20.1487 17.5711 20.1813C16.7826 20.2168 16.5484 20.2257 14.5533 20.2257C12.5583 20.2257 12.3241 20.2168 11.5355 20.1813C10.8063 20.1487 10.412 20.0271 10.1482 19.9234C9.79839 19.787 9.54938 19.6269 9.28851 19.366C9.02764 19.1052 8.8646 18.8562 8.7312 18.5064C8.63041 18.2425 8.5059 17.8483 8.47329 17.119C8.43772 16.3305 8.42882 16.0963 8.42882 14.1012C8.42882 12.1062 8.43772 11.872 8.47329 11.0834C8.5059 10.3542 8.62744 9.95991 8.7312 9.69608C8.86756 9.34628 9.02764 9.09726 9.28851 8.83639C9.54938 8.57552 9.79839 8.41248 10.1482 8.27908C10.412 8.17829 10.8063 8.05379 11.5355 8.02118C12.3241 7.98264 12.5612 7.97671 14.5533 7.97671ZM14.5533 6.63086C12.5257 6.63086 12.2707 6.63975 11.4733 6.67533C10.6788 6.7109 10.1363 6.83837 9.66203 7.02216C9.16993 7.21189 8.75491 7.46979 8.33989 7.88481C7.92487 8.29983 7.66993 8.71782 7.47724 9.20695C7.29345 9.68126 7.16598 10.2237 7.1304 11.0212C7.09483 11.8156 7.08594 12.0706 7.08594 14.0983C7.08594 16.1259 7.09483 16.3809 7.1304 17.1783C7.16598 17.9728 7.29345 18.5153 7.47724 18.9925C7.66697 19.4846 7.92487 19.8996 8.33989 20.3147C8.75491 20.7297 9.1729 20.9846 9.66203 21.1773C10.1363 21.3611 10.6788 21.4886 11.4763 21.5242C12.2737 21.5597 12.5257 21.5686 14.5563 21.5686C16.5869 21.5686 16.8389 21.5597 17.6363 21.5242C18.4308 21.4886 18.9733 21.3611 19.4506 21.1773C19.9427 20.9876 20.3577 20.7297 20.7727 20.3147C21.1877 19.8996 21.4427 19.4817 21.6354 18.9925C21.8192 18.5182 21.9466 17.9757 21.9822 17.1783C22.0178 16.3809 22.0267 16.1289 22.0267 14.0983C22.0267 12.0676 22.0178 11.8156 21.9822 11.0182C21.9466 10.2237 21.8192 9.68126 21.6354 9.20398C21.4456 8.71189 21.1877 8.29687 20.7727 7.88185C20.3577 7.46683 19.9397 7.21189 19.4506 7.0192C18.9763 6.83541 18.4338 6.70793 17.6363 6.67236C16.836 6.63975 16.581 6.63086 14.5533 6.63086Z" fill="white"/>
<path d="M14.5533 10.2637C12.4367 10.2637 10.7173 11.9801 10.7173 14.0996C10.7173 16.2192 12.4337 17.9356 14.5533 17.9356C16.6728 17.9356 18.3892 16.2192 18.3892 14.0996C18.3892 11.9801 16.6728 10.2637 14.5533 10.2637ZM14.5533 16.5868C13.1778 16.5868 12.0631 15.4722 12.0631 14.0967C12.0631 12.7212 13.1778 11.6066 14.5533 11.6066C15.9288 11.6066 17.0434 12.7212 17.0434 14.0967C17.0434 15.4722 15.9288 16.5868 14.5533 16.5868Z" fill="white"/>
<path d="M18.5403 11.0054C19.0347 11.0054 19.4355 10.6045 19.4355 10.1101C19.4355 9.61566 19.0347 9.21484 18.5403 9.21484C18.0458 9.21484 17.645 9.61566 17.645 10.1101C17.645 10.6045 18.0458 11.0054 18.5403 11.0054Z" fill="white"/>
<rect x="1.36671" y="0.911628" width="26.3695" height="26.3695" rx="13.1847" stroke="#392B5A" stroke-width="1.48143"/>
<defs>
<linearGradient id="paint0_linear_171_3326" x1="2.10742" y1="1.65234" x2="26.9955" y2="26.5404" gradientUnits="userSpaceOnUse">
<stop stop-color="#FED06F"/>
<stop offset="0.213542" stop-color="#FCAE45"/>
<stop offset="0.473958" stop-color="#F56D34"/>
<stop offset="0.619792" stop-color="#E13568"/>
<stop offset="0.766055" stop-color="#C33099"/>
<stop offset="1" stop-color="#9D37BB"/>
</linearGradient>
</defs>
</svg>
