<svg id="juicyheaderlogo" width="160" height="70" viewBox="0 0 160 70" fill="none" xmlns="http://www.w3.org/2000/svg">
<path d="M17.403 54.0234C12.8884 54.0234 9.81573 52.49 8.18718 49.4211C5.24335 51.8647 3.14379 53.0866 1.88627 53.0866C1.2864 53.0866 0.822051 52.8015 0.493231 52.2337C0.16441 51.6659 0 51.0251 0 50.3159C0 48.6102 0.65764 46.6217 1.9707 44.3482C2.54169 43.3539 3.17045 42.4458 3.85697 41.6195C4.54349 40.7954 5.31445 40.3844 6.17205 40.3844C7.00076 40.3844 7.62952 41.0671 8.05832 42.4304L9.34472 46.5223C9.8024 46.0384 10.309 45.4507 10.8666 44.7525C11.4243 44.0565 12.0464 43.239 12.7307 42.3022L16.5454 37.1873C21.2311 31.1356 24.3038 27.8259 25.7613 27.2558C26.2745 27.057 26.79 26.9575 27.3032 26.9575C27.8742 26.9575 28.3385 27.0791 28.6962 27.3199C29.0539 27.5607 29.2317 27.8391 29.2317 28.1506C29.2317 28.661 28.8162 28.9615 27.9897 29.0455C27.1321 29.5293 25.4614 30.9633 22.9752 33.3495C21.831 34.4586 20.9112 35.3734 20.2113 36.0981C19.5115 36.8228 19.0316 37.3707 18.7761 37.7397C15.5745 42.1719 12.6174 45.5833 9.9046 47.9695C11.6465 51.4074 14.2615 53.1263 17.7474 53.1263C19.0605 53.1263 20.398 52.8502 21.7555 52.2956C23.113 51.741 24.3705 51.0097 25.528 50.0994C26.6856 49.1913 27.6209 48.1749 28.3363 47.0525C29.0495 45.9301 29.4072 44.8144 29.4072 43.7074C29.4072 42.543 28.9917 41.4913 28.1652 40.5523C27.3365 39.6155 26.3212 38.9483 25.1214 38.5483C24.2638 38.4357 23.3929 38.3208 22.5064 38.2081C21.1623 38.038 20.4913 37.7684 20.4913 37.3972C20.4913 37.1409 20.6557 36.9133 20.9845 36.7145C21.3133 36.5156 21.6488 36.4162 21.991 36.4162C22.2487 36.4162 22.5486 36.4737 22.8908 36.5863C23.2329 36.7012 23.6773 36.8559 24.2194 37.0547C24.4482 37.0835 24.706 37.1056 24.9903 37.1188C25.2747 37.1343 25.5613 37.1409 25.8479 37.1409C27.7342 37.1409 29.4472 36.8426 30.9913 36.2461C32.4777 35.6495 33.5619 34.8254 34.2484 33.7737C34.9349 32.722 35.2771 31.5002 35.2771 30.1082C35.2771 28.6875 34.8261 27.5651 33.9263 26.741C33.0265 25.9169 31.84 25.327 30.3692 24.9712C28.8962 24.6155 27.3054 24.4388 25.5902 24.4388C22.2465 24.4388 19.0671 24.9226 16.0544 25.8882C13.0395 26.8537 10.4334 28.46 8.23162 30.7048C6.5453 32.4392 5.70325 33.8886 5.70325 35.053C5.70325 35.8771 5.91654 36.5731 6.34534 37.1409C6.45865 37.2845 6.58751 37.4259 6.73193 37.5673C6.87412 37.711 7.0452 37.8524 7.24515 37.9938C7.38735 38.0799 7.30292 38.1219 6.98743 38.1219C5.21447 37.7242 4.33021 36.5444 4.33021 34.5846C4.33021 32.6248 5.33 30.7777 7.32958 29.0433C8.87148 27.7088 10.6356 26.6283 12.6218 25.8042C14.6081 24.9801 16.7076 24.3835 18.9227 24.0145C21.1378 23.6456 23.3307 23.46 25.5014 23.46C27.0433 23.46 28.5296 23.5749 29.9582 23.8002C31.3868 24.0278 32.6732 24.4034 33.8152 24.9293C34.9572 25.4551 35.8659 26.1445 36.5368 26.9973C37.2078 27.8502 37.5433 28.9019 37.5433 30.1524C37.5433 31.9156 37.0723 33.3208 36.128 34.3725C35.186 35.4242 33.9129 36.2328 32.3133 36.8029C30.427 37.4569 28.3985 37.7971 26.2279 37.8259C27.4276 37.8833 28.4785 38.1948 29.3783 38.7627C30.2781 39.3305 30.978 40.0707 31.4779 40.9787C31.9778 41.889 32.2288 42.8833 32.2288 43.9615C32.2288 45.4109 31.7934 46.7543 30.9224 47.9894C30.0515 49.2244 28.8873 50.2916 27.4298 51.1864C25.9724 52.0813 24.3727 52.7772 22.6286 53.2744C20.889 53.7759 19.1449 54.0234 17.403 54.0234ZM2.44394 52.1056C3.35708 52.1056 5.11449 50.813 7.71617 48.2258L7.58731 48.0556C6.4431 44.2775 5.52996 42.3862 4.84343 42.3862C4.81455 42.3862 4.74346 42.4149 4.63015 42.4723C2.51503 45.5126 1.45747 47.9562 1.45747 49.8033C1.45747 50.201 1.53523 50.6849 1.69298 51.2527C1.85072 51.8228 2.10178 52.1056 2.44394 52.1056Z" fill="black"/>
<path d="M61.4205 52.1054C60.734 52.1054 60.3918 51.721 60.3918 50.9543C60.7051 49.3635 61.3494 47.5738 62.3203 45.5831C62.778 44.6176 63.2423 43.6653 63.7133 42.7263C64.1844 41.7895 64.6487 40.8372 65.1064 39.8695C64.0488 40.5809 62.9913 41.3697 61.9337 42.2358C60.8762 43.1019 59.8475 44.0763 58.8477 45.1545C57.6746 46.405 56.3193 48.0113 54.7752 49.9711C53.6599 51.3631 53.0178 52.059 52.8467 52.059C52.4468 52.059 52.118 51.8734 51.8603 51.5045C51.6025 51.1355 51.4737 50.8217 51.4737 50.5676C51.4737 50.1987 51.8025 49.2464 52.4601 47.7108C52.6601 47.2269 52.8667 46.7519 53.0822 46.2835C53.2955 45.8151 53.5044 45.3533 53.7043 44.8982L51.1337 47.5827C51.076 47.6401 50.9049 47.8102 50.6205 48.0953C50.3361 48.3803 50.1051 48.5217 49.934 48.5217C49.7918 48.5217 49.7207 48.4223 49.7207 48.2234C49.7207 48.166 49.7429 48.0886 49.7851 47.9892C49.8273 47.8898 49.9207 47.7705 50.0629 47.6269C50.4917 47.2004 50.9338 46.7475 51.3915 46.2636C51.8492 45.7798 52.3202 45.2274 52.8067 44.6021C53.1778 44.1182 53.7132 43.4024 54.4131 42.4501C55.1129 41.4978 55.9772 40.2981 57.0059 38.8487C57.3191 38.4223 57.7635 38.2102 58.3345 38.2102C58.9055 38.2102 59.1921 38.4797 59.1921 39.021C59.1921 39.2199 58.4633 40.5411 57.0059 42.9848C56.2616 44.2928 55.6706 45.3577 55.2262 46.1819C54.7819 47.006 54.5041 47.618 54.3908 48.0157C55.0196 47.333 55.7683 46.5663 56.6415 45.7135C57.5124 44.8606 58.5189 43.9083 59.6631 42.8566C63.1779 39.6176 65.493 37.998 66.6061 37.998C66.9193 37.998 67.2282 38.0975 67.5281 38.2963C67.828 38.4952 67.9791 38.7515 67.9791 39.063C67.9791 39.2066 67.4215 40.2429 66.3084 42.1739C65.2219 44.1337 64.622 45.3003 64.5087 45.6693C67.6814 43.0268 69.2655 41.6923 69.2655 41.6635C71.9516 39.5889 73.8801 38.5526 75.051 38.5526C75.3931 38.5526 75.7153 38.6587 76.0152 38.873C76.3152 39.0851 76.4662 39.3348 76.4662 39.6198C76.4662 39.6772 75.5509 40.8703 73.7224 43.1991C71.8361 45.5588 70.7785 47.4899 70.5497 48.9967C70.4342 50.0197 70.9629 50.5301 72.136 50.5301C72.8492 50.5301 73.8512 50.0749 75.1354 49.1668C76.4218 48.2588 77.7637 47.0082 79.1635 45.4152C79.3345 45.2163 79.5212 45.0241 79.7211 44.8407C79.9211 44.6551 80.0922 44.5646 80.2366 44.5646C80.4076 44.5646 80.4943 44.6353 80.4943 44.7767C80.4943 44.9755 80.3654 45.2031 80.1077 45.4594C79.3634 46.341 78.4858 47.249 77.4727 48.1881C76.4574 49.1249 75.4509 49.9136 74.4511 50.5544C73.4513 51.1929 72.5648 51.5133 71.7939 51.5133C69.8498 51.5133 68.8789 50.6185 68.8789 48.8288C68.8789 48.2035 69.05 47.4722 69.3922 46.6326C69.7343 45.7952 70.0787 45.0352 70.4208 44.3524C71.2496 42.7616 72.1494 41.3542 73.1203 40.1324C72.2049 40.5875 71.2562 41.1841 70.2698 41.922C69.2833 42.6622 68.2613 43.5283 67.2059 44.5226C64.7487 46.9088 63.0624 49.3259 62.1492 51.7696C62.007 51.9927 61.7626 52.1054 61.4205 52.1054Z" fill="black"/>
<path d="M80.4074 52.0631C78.8921 52.0631 78.1367 50.9274 78.1367 48.6539C78.1367 46.8642 79.7942 43.5964 83.109 38.8505C86.5083 33.9919 89.0944 31.5615 90.8674 31.5615C91.2095 31.5615 91.5384 31.6676 91.8539 31.8819C92.1671 32.094 92.3249 32.3724 92.3249 32.7126C92.3249 32.6839 91.2807 33.7931 89.1966 36.0379C87.9969 37.3459 86.9104 38.5677 85.9395 39.7034C84.9686 40.8412 84.111 41.9062 83.3667 42.9005C81.2805 45.7418 80.2385 47.8165 80.2385 49.1245C80.2385 49.4935 80.3452 49.8713 80.5607 50.2535C80.7762 50.6358 81.0672 50.828 81.4382 50.828C82.0959 50.828 82.7957 50.5717 83.5378 50.0613C84.2799 49.5509 84.9953 48.9102 85.6818 48.1435C86.3683 47.3768 86.9527 46.588 87.4392 45.7772C87.9258 44.9663 88.2546 44.2504 88.4257 43.6252C88.2257 43.0286 88.1258 42.2906 88.1258 41.4091C88.1258 39.2769 88.8545 38.3269 90.312 38.5522C90.5963 38.581 90.7896 38.7224 90.8896 38.9787C90.9896 39.235 91.0407 39.5332 91.0407 39.8735C91.0407 40.5849 90.9341 41.2942 90.7185 42.0056C90.5053 42.7171 90.3386 43.3136 90.2253 43.7953C90.3386 44.4493 90.603 45.1099 91.0185 45.7772C91.4317 46.4444 91.9538 46.7781 92.5826 46.7781C93.2114 46.7781 93.9401 46.3229 94.7688 45.4148C94.9399 45.216 95.111 45.1165 95.282 45.1165C95.4242 45.1165 95.5109 45.216 95.5398 45.4148C95.5398 45.5849 95.4242 45.828 95.1976 46.1395C94.3111 47.1912 93.3824 47.7171 92.4115 47.7171C91.0118 47.7171 89.8832 46.6941 89.0256 44.6481C88.4812 45.8987 87.7392 47.0918 86.7971 48.2275C85.8551 49.3653 84.8331 50.2889 83.7333 50.9981C82.6291 51.7073 81.5227 52.0631 80.4074 52.0631Z" fill="black"/>
<path d="M98.9234 52.106C97.5792 52.106 96.5883 51.6663 95.944 50.7847C95.3019 49.9032 94.7798 48.6813 94.3799 47.1192C93.8666 47.6296 93.509 47.8859 93.309 47.8859C93.1668 47.8859 93.0957 47.7732 93.0957 47.5457C93.0957 47.3755 93.1668 47.2187 93.309 47.0773C94.7665 45.3163 96.3661 43.6393 98.1102 42.0485L103.511 37.0198C104.253 36.3106 104.847 35.7693 105.291 35.4003C105.733 35.0313 106.055 34.8457 106.255 34.8457C107.168 34.8457 107.626 35.186 107.626 35.8687C107.626 36.2089 107.439 36.6088 107.068 37.0618C106.782 37.402 106.575 37.665 106.446 37.8506C106.317 38.0362 106.24 38.1422 106.211 38.1709C105.695 39.0525 105.224 40.6301 104.795 42.9014C104.48 44.5784 104.209 45.9571 103.98 47.0353C103.751 48.1157 103.565 48.8978 103.422 49.3795C104.622 49.3508 105.809 48.9818 106.979 48.2704C108.15 47.5611 109.408 46.3945 110.752 44.775C110.81 44.7176 110.894 44.6336 111.01 44.5187C111.123 44.406 111.239 44.3486 111.352 44.3486C111.523 44.3486 111.61 44.4193 111.61 44.5607C111.61 44.7043 111.567 44.8457 111.481 44.9871C111.394 45.1307 111.31 45.2567 111.223 45.3716C110.337 46.4233 109.508 47.2827 108.737 47.95C107.966 48.6172 107.151 49.1431 106.293 49.5275C105.435 49.912 104.422 50.2302 103.249 50.4864L101.878 51.3813C101.507 51.6376 101.063 51.8232 100.55 51.9359C100.039 52.0485 99.4944 52.106 98.9234 52.106ZM99.4388 49.9319C100.096 49.9319 100.639 49.775 101.067 49.4635C101.381 49.2933 101.689 48.8183 101.989 48.0362C102.289 47.254 102.583 46.2819 102.867 45.1175C103.096 44.1232 103.274 43.151 103.402 42.1988C103.531 41.2465 103.651 40.3318 103.767 39.4502L103.938 38.0008C103.28 38.4847 102.452 39.1807 101.452 40.0887C100.452 40.999 99.4655 41.9491 98.4946 42.9456C97.5237 43.9398 96.8949 44.6712 96.6083 45.1418C96.3217 45.6102 96.164 45.9593 96.1373 46.1868C96.0218 47.3247 96.3017 48.2328 96.9727 48.9155C97.6436 49.5916 98.4657 49.9319 99.4388 49.9319Z" fill="black"/>
<path d="M108.224 52.234C107.395 52.234 106.979 51.9931 106.979 51.5093C106.979 51.2265 107.151 50.7713 107.495 50.146C108.81 47.8173 109.988 45.7492 111.032 43.9441C112.074 42.139 112.996 40.6122 113.796 39.3617C117.195 33.9352 119.597 30.9945 120.997 30.5393C121.054 30.5393 121.097 30.5327 121.125 30.5172C121.154 30.504 121.183 30.4951 121.212 30.4951C121.583 30.4951 121.825 30.7934 121.941 31.39C121.854 31.9865 120.37 34.1474 117.484 37.8681C115.969 39.7726 114.791 41.3413 113.947 42.5786C113.103 43.8137 112.583 44.7174 112.383 45.2852C113.325 44.6025 114.34 43.8778 115.427 43.1111C116.513 42.3444 117.571 41.6131 118.599 40.9149C119.628 40.2189 120.557 39.6511 121.385 39.2092C122.214 38.7695 122.856 38.5199 123.314 38.4624C123.372 38.4624 123.443 38.4558 123.527 38.4403C123.614 38.4271 123.669 38.4182 123.698 38.4182C124.498 38.4182 124.898 38.7872 124.898 39.5274C124.898 39.7262 124.64 40.1659 124.127 40.8486C123.614 41.5314 122.827 42.5831 121.77 44.0037C119.883 46.5048 118.941 48.3807 118.941 49.629C118.941 50.283 119.184 50.61 119.67 50.61C120.186 50.5813 120.777 50.3537 121.45 49.9273C122.121 49.5009 122.801 48.975 123.485 48.3497C124.171 47.7245 124.791 47.108 125.349 46.496C125.907 45.8862 126.327 45.409 126.613 45.0687C126.871 44.8124 127.071 44.6842 127.213 44.6842C127.326 44.6842 127.384 44.7417 127.384 44.8544C127.384 45.082 127.269 45.3515 127.042 45.6652C126.7 46.0917 126.191 46.6463 125.52 47.3268C124.849 48.0095 124.12 48.6988 123.334 49.3948C122.547 50.0908 121.805 50.6741 121.105 51.1425C120.406 51.6109 119.883 51.8451 119.541 51.8451C117.855 51.8451 117.013 50.8641 117.013 48.9043C117.013 47.7952 117.528 46.348 118.555 44.5561C118.955 43.8734 119.37 43.1929 119.797 42.5101C120.226 41.8274 120.654 41.1469 121.083 40.4642C117.426 42.2826 114.111 44.9693 111.139 48.5199C110.768 49.0325 110.381 49.5782 109.981 50.1615C109.581 50.7448 109.223 51.2353 108.91 51.633C108.597 52.0351 108.368 52.234 108.224 52.234Z" fill="black"/>
<path d="M127.684 52.574C126.769 52.574 125.94 52.2823 125.198 51.7012C124.456 51.1201 124.083 50.3446 124.083 49.3791C124.083 47.3618 125.325 45.0596 127.811 42.4745C130.355 39.8607 132.626 38.5527 134.625 38.5527C135.283 38.5527 135.818 38.7295 136.232 39.0852C136.645 39.4409 136.854 39.874 136.854 40.3844C136.854 41.9752 135.583 43.5395 133.039 45.0728C130.782 46.4361 128.882 47.1188 127.338 47.1188C127.109 47.1188 126.909 47.0901 126.738 47.0326C126.309 47.7993 126.096 48.6102 126.096 49.463C126.096 50.9412 126.796 51.6791 128.195 51.6791C129.624 51.6791 131.468 50.7268 133.725 48.8223C135.467 47.4303 136.954 45.9522 138.182 44.3901C138.44 44.0499 138.669 43.8797 138.869 43.8797C139.04 43.8797 139.127 43.9659 139.127 44.136C139.127 44.3062 139.011 44.5492 138.784 44.8607C137.985 45.9124 137.127 46.878 136.214 47.7595C135.298 48.6411 134.314 49.4498 133.257 50.1899C131.055 51.7785 129.198 52.574 127.684 52.574ZM127.94 46.182C129.026 46.182 130.439 45.6429 132.184 44.5625C132.755 44.1648 133.319 43.7162 133.877 43.2191C134.434 42.722 134.89 42.2182 135.247 41.7056C135.605 41.1952 135.783 40.7401 135.783 40.3424C135.783 39.9734 135.483 39.7878 134.883 39.7878C134.025 39.7878 132.826 40.4264 131.282 41.7056C130.537 42.3309 129.824 43.0136 129.138 43.7516C128.451 44.4918 127.867 45.2717 127.38 46.0958C127.556 46.1533 127.74 46.182 127.94 46.182Z" fill="black"/>
<path d="M139.771 52.1054C138.942 52.1054 138.171 51.8999 137.456 51.4867C136.74 51.0758 136.385 50.3864 136.385 49.4187C136.385 48.0842 136.862 46.4912 137.82 44.6441C138.778 42.7969 139.871 40.8791 141.099 38.8906C144.443 33.4929 146.814 30.793 148.213 30.793C148.498 30.793 148.791 30.899 149.091 31.1133C149.391 31.3255 149.555 31.5619 149.584 31.8159L146.585 35.8217C145.414 37.3838 144.356 38.8266 143.412 40.1478C142.47 41.4691 141.655 42.6555 140.968 43.7072C140.626 44.2464 140.24 44.8584 139.811 45.5411C139.382 46.2238 139.002 46.9264 138.675 47.6511C138.347 48.3758 138.182 49.1072 138.182 49.8473C138.182 50.1876 138.282 50.4947 138.482 50.7643C138.682 51.0338 139.04 51.1686 139.553 51.1686C140.466 51.1686 141.668 50.6781 143.152 49.6971C144.639 48.7161 146.109 47.3595 147.567 45.6273C147.709 45.4571 147.867 45.3003 148.038 45.1589C148.209 45.0175 148.351 44.9467 148.467 44.9467C148.609 44.9467 148.68 45.0329 148.68 45.203C148.68 45.2892 148.587 45.4527 148.402 45.6935C148.216 45.9344 148.067 46.1266 147.951 46.268L146.923 47.4191C146.352 48.0444 145.672 48.7271 144.887 49.4651C144.101 50.2053 143.272 50.8283 142.401 51.3409C141.535 51.8491 140.655 52.1054 139.771 52.1054Z" fill="black"/>
<path d="M150.187 52.1054C149.358 52.1054 148.587 51.8999 147.872 51.4867C147.156 51.0758 146.801 50.3864 146.801 49.4187C146.801 48.0842 147.278 46.4912 148.236 44.6441C149.194 42.7969 150.287 40.8791 151.515 38.8906C154.859 33.4929 157.23 30.793 158.629 30.793C158.914 30.793 159.207 30.899 159.507 31.1133C159.807 31.3255 159.971 31.5619 160 31.8159L157.001 35.8217C155.83 37.3838 154.772 38.8266 153.828 40.1478C152.886 41.4691 152.071 42.6555 151.384 43.7072C151.042 44.2464 150.656 44.8584 150.227 45.5411C149.798 46.2238 149.418 46.9264 149.091 47.6511C148.763 48.3758 148.598 49.1072 148.598 49.8473C148.598 50.1876 148.698 50.4947 148.898 50.7643C149.098 51.0338 149.456 51.1686 149.969 51.1686C150.882 51.1686 152.084 50.6781 153.568 49.6971C155.055 48.7161 156.525 47.3595 157.983 45.6273C158.125 45.4571 158.283 45.3003 158.454 45.1589C158.625 45.0175 158.767 44.9467 158.883 44.9467C159.025 44.9467 159.096 45.0329 159.096 45.203C159.096 45.2892 159.003 45.4527 158.818 45.6935C158.632 45.9344 158.483 46.1266 158.367 46.268L157.339 47.4191C156.768 48.0444 156.088 48.7271 155.303 49.4651C154.517 50.2053 153.688 50.8283 152.817 51.3409C151.951 51.8491 151.071 52.1054 150.187 52.1054Z" fill="black"/>
<path d="M5.63867 69.9366V62.5725H6.42074V69.9366H5.63867Z" fill="black"/>
<path d="M15.8164 69.9366V62.5725H16.4607L21.5708 68.9689H21.2331V62.5725H22.0062V69.9366H21.3619L16.263 63.5402H16.6007V69.9366H15.8164Z" fill="black"/>
<path d="M32.1844 69.9366H31.4023V62.5725H36.4813V63.2464H32.1866V69.9366H32.1844ZM32.1 66.1386H36.0147V66.8125H32.1V66.1386Z" fill="black"/>
<path d="M45.082 69.9366V62.5725H45.8641V69.265H50.0121V69.9388H45.082V69.9366Z" fill="black"/>
<path d="M61.143 70.0002C60.1987 70.0002 59.4544 69.7307 58.9101 69.1894C58.3658 68.6502 58.0947 67.8504 58.0947 66.7899V62.5698H58.8768V66.7567C58.8768 67.6273 59.0745 68.268 59.47 68.6812C59.8655 69.0944 60.4231 69.302 61.1407 69.302C61.8673 69.302 62.4272 69.0944 62.8226 68.6812C63.2181 68.268 63.4158 67.6251 63.4158 66.7567V62.5698H64.1779V66.7899C64.1779 67.8482 63.9091 68.648 63.3692 69.1894C62.8315 69.7285 62.0872 70.0002 61.143 70.0002Z" fill="black"/>
<path d="M74.3045 69.2627H78.7591V69.9366H73.5225V62.5725H78.6014V63.2464H74.3067V69.2627H74.3045ZM74.2201 65.8646H78.1348V66.5274H74.2201V65.8646Z" fill="black"/>
<path d="M87.584 69.9366V62.5725H88.2305L93.3406 68.9689H93.0029V62.5725H93.776V69.9366H93.1295L88.0306 63.5402H88.3683V69.9366H87.584Z" fill="black"/>
<path d="M106.385 70.0003C105.827 70.0003 105.312 69.9075 104.841 69.7219C104.368 69.5363 103.959 69.2756 103.614 68.9376C103.268 68.6017 102.999 68.204 102.806 67.7489C102.612 67.2937 102.515 66.7944 102.515 66.2553C102.515 65.7162 102.612 65.2168 102.806 64.7617C102.999 64.3065 103.27 63.9088 103.621 63.573C103.97 63.2372 104.381 62.9742 104.854 62.7886C105.327 62.603 105.841 62.5103 106.398 62.5103C106.934 62.5103 107.438 62.5986 107.911 62.7776C108.385 62.9566 108.782 63.2239 109.107 63.5818L108.609 64.0768C108.305 63.7674 107.971 63.5465 107.605 63.4095C107.238 63.2725 106.843 63.204 106.42 63.204C105.976 63.204 105.563 63.2791 105.183 63.4294C104.803 63.5796 104.47 63.7939 104.188 64.0723C103.905 64.3485 103.686 64.6711 103.526 65.0401C103.368 65.4091 103.288 65.8134 103.288 66.2553C103.288 66.6972 103.368 67.1015 103.526 67.4705C103.683 67.8395 103.905 68.162 104.188 68.4382C104.47 68.7144 104.801 68.9287 105.183 69.0812C105.563 69.2314 105.976 69.3065 106.42 69.3065C106.845 69.3065 107.238 69.2358 107.605 69.0966C107.971 68.9574 108.307 68.7321 108.609 68.4228L109.107 68.9177C108.782 69.2756 108.382 69.5452 107.911 69.7285C107.436 69.9075 106.927 70.0003 106.385 70.0003Z" fill="black"/>
<path d="M118.54 69.2627H122.995V69.9366H117.758V62.5725H122.837V63.2464H118.542V69.2627H118.54ZM118.455 65.8646H122.37V66.5274H118.455V65.8646Z" fill="black"/>
<path d="M131.819 69.9366V62.5725H134.592C135.219 62.5725 135.759 62.6719 136.212 62.873C136.663 63.0718 137.012 63.3613 137.254 63.7369C137.498 64.1125 137.618 64.5654 137.618 65.1001C137.618 65.6193 137.496 66.0657 137.254 66.4413C137.009 66.8169 136.663 67.1041 136.212 67.3052C135.761 67.504 135.221 67.6057 134.592 67.6057H132.255L132.604 67.2477V69.941H131.819V69.9366ZM132.601 67.3074L132.253 66.9384H134.57C135.31 66.9384 135.872 66.7771 136.258 66.4545C136.643 66.1319 136.836 65.679 136.836 65.0979C136.836 64.508 136.643 64.0529 136.258 63.7303C135.874 63.4077 135.312 63.2464 134.57 63.2464H132.253L132.601 62.8774V67.3074ZM136.876 69.9366L134.972 67.2632H135.819L137.734 69.9366H136.876Z" fill="black"/>
<path d="M148.494 69.9998C147.943 69.9998 147.416 69.9114 146.912 69.7325C146.407 69.5535 146.019 69.3237 145.743 69.0431L146.05 68.4444C146.31 68.6962 146.661 68.9083 147.103 69.0807C147.543 69.253 148.007 69.3392 148.494 69.3392C148.96 69.3392 149.338 69.2817 149.631 69.1646C149.925 69.0497 150.14 68.8929 150.278 68.6962C150.416 68.4996 150.484 68.2831 150.484 68.0444C150.484 67.7572 150.402 67.5252 150.236 67.3507C150.069 67.1761 149.853 67.0369 149.585 66.9353C149.316 66.8337 149.02 66.7453 148.696 66.668C148.372 66.5906 148.047 66.5089 147.723 66.4205C147.398 66.3321 147.101 66.215 146.83 66.067C146.559 65.9189 146.339 65.7245 146.174 65.4837C146.008 65.2406 145.925 64.9247 145.925 64.5314C145.925 64.1668 146.023 63.831 146.216 63.5261C146.41 63.2212 146.707 62.976 147.11 62.7904C147.512 62.6048 148.027 62.512 148.654 62.512C149.069 62.512 149.482 62.5694 149.891 62.6865C150.3 62.8014 150.653 62.9627 150.949 63.166L150.684 63.7868C150.367 63.5769 150.029 63.4223 149.673 63.3228C149.318 63.2256 148.974 63.1748 148.643 63.1748C148.198 63.1748 147.832 63.2345 147.543 63.3538C147.254 63.4731 147.041 63.6322 146.903 63.8332C146.765 64.0321 146.696 64.2596 146.696 64.5115C146.696 64.7988 146.778 65.0308 146.945 65.2053C147.112 65.3798 147.329 65.5168 147.601 65.6163C147.872 65.7157 148.169 65.8018 148.494 65.8792C148.818 65.9565 149.14 66.0405 149.462 66.1311C149.782 66.2216 150.08 66.3387 150.351 66.4846C150.622 66.6282 150.842 66.8204 151.007 67.059C151.173 67.2976 151.255 67.6092 151.255 67.9958C151.255 68.3538 151.158 68.6852 150.96 68.9901C150.762 69.295 150.46 69.5402 150.056 69.7258C149.649 69.907 149.129 69.9998 148.494 69.9998Z" fill="black"/>
<path d="M86.726 19.0985C83.4 19.0985 80.5584 16.8935 80.5584 16.8935C80.5584 16.8935 78.3411 14.0698 78.3411 10.7601C78.3411 7.4525 77.8545 0 77.8545 0C77.8545 0 77.368 7.45029 77.368 10.7601C77.368 14.0676 75.1506 16.8935 75.1506 16.8935C75.1506 16.8935 72.3112 19.0985 68.983 19.0985C65.6571 19.0985 58.1631 19.5824 58.1631 19.5824C58.1631 19.5824 65.6548 20.0663 68.983 20.0663C72.309 20.0663 75.1506 22.2713 75.1506 22.2713C75.1506 22.2713 77.368 25.095 77.368 28.4048C77.368 31.7123 77.8545 39.1648 77.8545 39.1648C77.8545 39.1648 78.3411 31.7145 78.3411 28.4048C78.3411 25.0972 80.5584 22.2713 80.5584 22.2713C80.5584 22.2713 83.3978 20.0663 86.726 20.0663C90.052 20.0663 97.546 19.5824 97.546 19.5824C97.546 19.5824 90.052 19.0985 86.726 19.0985Z" fill="black"/>
<path d="M64.0997 8.41992C64.0997 8.41992 64.1531 11.4734 67.4124 11.6082C64.1531 11.7429 64.0997 14.7964 64.0997 14.7964C64.0997 14.7964 64.0464 11.7429 60.7871 11.6082C64.0464 11.4734 64.0997 8.41992 64.0997 8.41992Z" fill="#D33BFE"/>
<path d="M88.4767 5.62305C88.4767 5.62305 88.53 8.67652 91.7894 8.81129C88.53 8.94607 88.4767 11.9995 88.4767 11.9995C88.4767 11.9995 88.4234 8.94607 85.1641 8.81129C88.4234 8.67652 88.4767 5.62305 88.4767 5.62305Z" fill="#D33BFE"/>
<path d="M85.265 29.7637C85.265 29.7637 85.3116 32.4216 88.151 32.5387C85.3138 32.6559 85.265 35.3138 85.265 35.3138C85.265 35.3138 85.2183 32.6559 82.3789 32.5387C85.2183 32.4239 85.265 29.7637 85.265 29.7637Z" fill="#D33BFE"/>
<path d="M70.2939 12.2529C75.5106 16.9127 80.4785 21.8508 85.1642 27.0408C79.943 22.3811 74.9796 17.4407 70.2939 12.2529Z" fill="black"/>
<path d="M85.4112 12.2529C80.7256 17.4407 75.7599 22.3811 70.541 27.0408C75.2245 21.8486 80.1923 16.9127 85.4112 12.2529Z" fill="black"/>
<path d="M62.2475 25.5947C55.5733 23.8603 47.535 24.3022 43.6758 34.1365C43.6913 34.1431 43.7091 34.1497 43.7247 34.1564C44.86 32.053 50.4344 23.1201 62.0586 25.8488C67.9218 27.3004 72.2054 25.1462 73.0963 24.4988C73.9872 23.8515 75.7735 21.4365 75.7735 21.4365C75.7735 21.4365 69.0238 27.3579 62.2475 25.5947Z" fill="black"/>
<path d="M51.9403 43.6367C51.487 38.7229 47.1146 35.1038 42.1712 35.5545C37.23 36.0053 33.5908 40.3557 34.044 45.2695C34.4972 50.1833 38.8697 53.8024 43.8131 53.3517C48.7543 52.901 52.3935 48.5528 51.9403 43.6367ZM43.0643 51.414C39.1674 51.7697 35.717 48.9151 35.3593 45.0397C35.0038 41.1643 37.8721 37.733 41.7713 37.3773C45.6682 37.0216 49.1186 39.8762 49.4763 43.7516C49.834 47.6292 46.9635 51.0583 43.0643 51.414Z" fill="black"/>
<path d="M39.365 49.1291C36.1679 47.1803 36.0879 42.4366 38.9873 40.1675C39.896 39.4362 41.0402 39.0142 42.16 39.0186C40.0959 39.6726 38.4629 41.2303 37.8986 43.2895C37.3143 45.3376 37.9519 47.5427 39.365 49.1291Z" fill="black"/>
<path d="M40.5273 36.4254L40.8228 34.3529C40.9006 33.805 41.4027 33.4161 41.9559 33.4758L46.2595 33.9309C46.8371 33.9928 47.2504 34.5142 47.1749 35.0865L46.9305 36.9291L40.5273 36.4254Z" fill="black"/>
</svg>
