<svg id='juicylogo' width="96" height="45" viewBox="0 0 96 45" fill="none" xmlns="http://www.w3.org/2000/svg">
<path d="M0 14.3263C0.280331 13.6224 0.892673 13.4735 1.54417 13.45C2.86282 13.403 4.10786 13.7588 5.32941 14.2087C6.89394 14.7841 8.3645 15.5334 9.64243 16.6245C9.70038 16.6731 9.77712 16.7076 9.80217 16.7954C9.70508 16.8879 9.58136 16.8503 9.47173 16.8519C7.94479 16.8738 6.41785 16.8738 4.89717 16.7296C3.70538 16.6167 2.51514 16.4709 1.38443 16.0367C0.800273 15.8125 0.285029 15.5068 0 14.9142C0 14.7182 0 14.5223 0 14.3263Z" fill="white"/>
<path d="M18.9309 0.855083C19.7344 1.4162 19.999 2.28296 20.2183 3.16382C20.4501 4.09327 20.4673 5.0384 20.3263 6.02271C20.0382 5.85186 19.8314 5.61832 19.6216 5.39419C18.909 4.63715 18.2278 3.85503 17.9083 2.83781C17.7251 2.25161 17.7407 1.68422 18.1448 1.17169C18.2513 1.0369 18.3953 0.961664 18.5191 0.853516C18.6569 0.855083 18.7947 0.855083 18.9309 0.855083Z" fill="white"/>
<path d="M28.085 8.31267C28.1852 7.70453 28.3465 7.13558 28.5141 6.56819C28.8539 5.42557 29.2376 4.29863 29.9408 3.31903C30.2509 2.88643 30.6126 2.50713 31.1858 2.41622C31.8076 2.31748 32.3056 2.72029 32.34 3.34881C32.3886 4.22183 32.0112 4.94282 31.5288 5.61679C30.6659 6.82367 29.4944 7.65594 28.1852 8.31267C28.1711 8.31894 28.1476 8.31267 28.085 8.31267Z" fill="white"/>
<path d="M10.2643 27.6719C9.13828 29.0436 7.99346 30.3793 6.54013 31.403C6.25197 31.6052 5.94971 31.7855 5.60517 31.8733C5.26063 31.9626 4.92705 31.9861 4.66552 31.6757C4.39771 31.3591 4.36169 31.0095 4.53396 30.6395C4.72973 30.2194 5.05234 29.909 5.41724 29.6393C6.86431 28.5733 8.50558 27.9791 10.2643 27.6719Z" fill="white"/>
<path d="M8.70732 22.0062C7.27434 22.906 5.86799 23.7573 4.25178 24.1774C3.78509 24.2981 3.30743 24.3498 2.8376 24.1994C2.42572 24.0677 2.15635 23.6867 2.16731 23.2995C2.17671 22.9499 2.41946 22.7602 2.67473 22.5972C3.23382 22.2382 3.87122 22.0924 4.51332 21.9748C5.6738 21.7647 6.84367 21.7365 8.01511 21.8604C8.23593 21.887 8.46457 21.8902 8.70732 22.0062Z" fill="white"/>
<path d="M8.3989 7.91406C8.76536 7.94855 9.08015 8.1257 9.35265 8.36556C10.5131 9.39395 11.2742 10.6826 11.7832 12.1343C11.8412 12.302 11.802 12.3757 11.636 12.3145C10.3236 11.8364 9.02377 11.33 8.034 10.2781C7.489 9.69965 7.37467 8.99106 7.72234 8.37339C7.86799 8.11473 8.07315 7.93287 8.3989 7.91406Z" fill="white"/>
<path d="M20.0175 35.8506C20.171 36.3318 20.1851 36.802 20.2054 37.2628C20.254 38.3427 20.1553 39.4101 19.8123 40.443C19.7043 40.7674 19.5696 41.0825 19.3159 41.3254C19.0716 41.5589 18.7646 41.584 18.4921 41.3865C18.0004 41.0292 17.8782 40.5276 17.9581 39.9587C18.1115 38.8787 18.6315 37.9524 19.1875 37.0434C19.4349 36.6374 19.6933 36.2362 20.0175 35.8506Z" fill="white"/>
<path d="M27.0475 5.77412C26.1157 6.32896 25.3639 7.04839 24.7657 7.92612C24.2129 8.73645 23.8495 9.62985 23.6365 10.5859C23.6287 10.6236 23.6256 10.6643 23.6146 10.7019C23.5911 10.7928 23.5551 10.8681 23.4377 10.8524C23.3186 10.8367 23.339 10.7458 23.3421 10.6737C23.3578 10.3414 23.3656 10.0076 23.4016 9.67687C23.5629 8.20824 23.9529 6.81642 24.7829 5.57192C25.0961 5.10328 25.4845 4.7036 25.9027 4.33213C26.006 4.24123 26.0953 4.16599 26.1767 4.37132C26.3819 4.88385 26.6638 5.35249 27.0475 5.77412Z" fill="white"/>
<path d="M15.2317 31.4346C15.1988 31.7606 15.1033 32.0036 14.9952 32.2435C14.4941 33.3471 13.8864 34.3755 12.9483 35.1719C12.8121 35.2879 12.6602 35.3726 12.4973 35.4416C12.2373 35.5513 11.9946 35.5247 11.7925 35.3271C11.5858 35.1265 11.5326 34.8803 11.6156 34.6013C11.7221 34.2423 11.9429 33.9554 12.1935 33.6952C13.0689 32.7859 14.1182 32.1087 15.2317 31.4346Z" fill="white"/>
<path d="M29.1762 37.2036C29.502 37.3275 29.7525 37.5313 29.9874 37.7429C30.6515 38.3402 31.173 39.0347 31.4173 39.9126C31.4721 40.107 31.4721 40.3045 31.4455 40.4942C31.3891 40.8924 31.0054 41.0868 30.5935 40.9425C30.2192 40.8109 29.9906 40.5193 29.8136 40.1853C29.4628 39.5206 29.3187 38.7948 29.2216 38.058C29.1872 37.7884 29.1261 37.5187 29.1762 37.2036Z" fill="white"/>
<path fill-rule="evenodd" clip-rule="evenodd" d="M24.2725 44.8099L24.581 44.8052C24.8974 44.7613 25.0853 44.5575 25.1981 44.2832C25.2905 44.0669 25.3281 43.835 25.339 43.5967C25.3717 42.8866 25.2332 42.1994 25.0945 41.5114C25.067 41.3749 25.0395 41.2383 25.0133 41.1015C24.995 41.0052 24.9765 40.909 24.958 40.8128L24.958 40.8128C24.7443 39.6992 24.5305 38.5856 24.5622 37.4401C24.5779 36.9009 24.8238 36.531 25.2685 36.2693C25.8292 35.9401 26.321 36.2175 26.3304 36.8696C26.3342 37.1039 26.2774 37.3288 26.2206 37.5537C26.2079 37.6041 26.1952 37.6545 26.1831 37.705C26.1673 37.7712 26.1506 37.8373 26.134 37.9035C26.041 38.2739 25.9479 38.6444 25.9811 39.0341C26.0187 39.4745 26.404 39.7817 26.9192 39.7802C27.3076 39.7802 27.5519 39.4933 27.5707 39.0278C27.5848 38.6971 27.5049 38.393 27.3687 38.0921C26.9427 37.1532 27.0602 36.1219 28.1768 35.6298C28.2103 35.615 28.2419 35.5959 28.2736 35.5767L28.2736 35.5767C28.2923 35.5654 28.3111 35.554 28.3303 35.5436C29.7664 34.7301 30.8517 33.5389 31.8618 32.2662L31.9111 32.204C31.9856 32.1099 32.0605 32.0154 32.1374 31.9229C32.1897 31.8602 32.2437 31.7985 32.3096 31.7234L32.3099 31.723C32.3525 31.6744 32.4001 31.6201 32.4553 31.5562C32.1515 33.1956 32.4319 34.6188 33.4373 35.8461C34.3018 36.9009 35.4388 37.5639 36.748 37.9134C38.5913 38.4071 40.455 38.3037 42.3108 38.0153C45.7249 37.484 48.4389 35.7081 50.7317 33.2019C50.7619 33.1689 50.7912 33.1347 50.8205 33.1003C50.9082 32.9978 50.9969 32.8942 51.1153 32.8179C51.9563 34.4746 53.7887 35.1204 55.5208 34.8053C56.2694 34.669 56.877 34.2662 57.4596 33.8132C57.6225 33.6862 57.7149 33.6925 57.8715 33.8398C58.6858 34.6094 59.6897 34.89 60.7797 34.8884C61.7021 34.8868 62.5259 34.5749 63.2385 33.9872C63.4045 33.8508 63.5094 33.8539 63.6832 33.9997C64.9972 35.1016 67.1255 35.1831 68.5319 34.2019C68.95 33.9104 69.365 33.6157 69.7503 33.2803C69.8458 33.1972 69.9147 33.1518 70.0369 33.2803C71.8113 35.1643 74.8573 35.4025 76.9559 34.4652C77.4649 34.2379 77.9613 33.9793 78.4296 33.6753C78.5956 33.5687 78.6895 33.5875 78.8211 33.7285C79.1046 34.0295 79.4366 34.2787 79.8156 34.4464C80.0333 34.542 80.0708 34.6204 79.9628 34.8492C79.2549 36.3445 79.6574 38.0702 80.9369 39.1203C81.8985 39.9103 83.0057 40.2723 84.2445 40.2849C86.5529 40.3068 88.4479 38.9401 89.1307 36.7442L89.16 36.65C89.3773 35.9527 89.5942 35.2565 89.8025 34.5561C89.8621 34.3586 89.9607 34.2144 90.1267 34.0875C90.7813 33.589 91.3984 33.0452 92.0013 32.4841C92.9086 31.6426 93.6952 30.6945 94.482 29.7462L94.482 29.7461L94.483 29.745C94.6778 29.5102 94.8726 29.2753 95.0693 29.0421C95.4921 28.539 95.7443 27.9434 95.7819 27.2725V26.6738C95.7067 25.8023 95.3214 25.0845 94.6841 24.4999C94.3802 24.2209 94.0075 24.0704 93.5972 24.0328L93.5747 24.0307C93.3415 24.0087 93.2232 23.9976 93.1799 23.9347C93.1353 23.87 93.1703 23.7505 93.2413 23.508L93.2432 23.5014C93.2464 23.492 93.2483 23.4826 93.2503 23.4732C93.2522 23.4638 93.2542 23.4544 93.2573 23.445C93.6113 22.2523 93.1649 21.1849 92.0734 20.5908C90.6623 19.8244 88.2568 19.967 87.1746 21.2507C87.0697 21.3745 87.0024 21.3949 86.888 21.2476C86.6375 20.9278 86.3164 20.6817 85.9421 20.5203C84.6501 19.9639 83.3581 19.9827 82.0707 20.536C81.9428 20.5909 81.8255 20.6901 81.7123 20.7859C81.5539 20.9198 81.4037 21.0469 81.2439 21.036C81.0711 21.024 80.9053 20.9068 80.7336 20.7854C80.6127 20.6999 80.4888 20.6123 80.3574 20.5579C78.8869 19.9451 77.3725 19.9169 75.8361 20.2397C75.1063 20.3934 74.4204 20.6739 73.7626 21.0234C73.7142 20.9426 73.7278 20.8727 73.741 20.805L73.741 20.8048L73.741 20.8047L73.741 20.8046L73.7411 20.8044L73.7411 20.8043C73.7445 20.7869 73.7479 20.7696 73.7501 20.7523C73.8769 19.8166 73.6499 18.9717 73.0359 18.2617C71.7956 16.8244 69.5843 16.5361 67.9571 17.5909C66.9987 18.2116 66.4192 19.0971 66.3252 20.2429C66.2955 20.5955 66.2141 20.8463 65.9243 21.0485C65.8037 21.1332 65.7442 21.152 65.6346 21.0438C65.301 20.7131 64.8985 20.4952 64.4569 20.3463C63.7475 20.1081 63.0177 20.0642 62.2832 20.1661C61.5346 20.2695 60.8408 20.5219 60.2754 21.0532C59.967 21.3435 59.9668 21.3433 59.6781 21.0689L59.66 21.0516C58.8847 20.3118 57.92 20.1191 56.8974 20.1206C56.7047 20.1206 56.6452 20.083 56.6812 19.9012C56.8786 18.9232 57.0023 17.9326 57.1182 16.942C57.3092 15.3198 56.7235 13.8574 55.1198 13.1255C54.484 12.8339 53.8216 12.6913 53.1309 12.6803C52.2682 12.6668 51.414 12.7781 50.5602 12.8893L50.4435 12.9045C48.5344 13.1521 46.6739 13.591 44.9089 14.3762C43.2034 15.1333 41.6687 16.127 40.5834 17.6943C39.888 18.6975 39.4276 19.7993 39.4714 21.0375C39.5278 22.6441 40.2733 23.9199 41.5136 24.9121C42.6177 25.7945 43.9035 26.271 45.2723 26.55L45.2887 26.5533C45.5702 26.6106 45.7111 26.6392 45.7486 26.7174C45.7861 26.7957 45.7199 26.9238 45.5872 27.1803L45.5792 27.1957C45.4884 27.3697 45.4273 27.4308 45.2879 27.2381C45.125 27.0108 44.9011 26.8478 44.6521 26.7287C42.5786 25.7412 40.4346 25.3995 38.181 26.0139C37.5405 26.1895 36.925 26.4262 36.3173 26.7287C36.3191 26.7114 36.3197 26.6978 36.3203 26.6867V26.6867C36.3212 26.6676 36.3218 26.6561 36.3267 26.6472C36.3815 26.5531 36.4364 26.4622 36.4927 26.3697C37.4872 24.7334 38.2828 23.0265 38.4879 21.0877C38.6054 19.9733 38.6555 18.8699 38.4629 17.7555C37.7425 13.6051 34.2125 10.2054 29.6239 9.98131C27.4485 9.87472 25.4612 10.475 23.6899 11.7477C23.4769 11.8998 23.3657 11.8763 23.1716 11.7258C21.3815 10.3387 19.3738 9.77441 17.1358 10.2509C14.7006 10.7697 12.9685 12.2524 11.7688 14.3809C10.7258 16.2304 10.3327 18.2319 10.5113 20.351C10.6412 21.909 11.0657 23.3745 11.8753 24.7099C12.9246 26.445 13.9927 28.1691 15.2158 29.7897C16.4358 31.4073 17.7607 32.9213 19.38 34.158C19.5439 34.2837 19.716 34.398 19.888 34.5123L19.8881 34.5123C20.1731 34.7017 20.4579 34.8909 20.705 35.1313C21.0839 35.4997 21.2092 35.9307 21.0448 36.4432C21.0169 36.5309 20.9875 36.6181 20.9582 36.7053C20.869 36.9703 20.7799 37.235 20.7316 37.5122C20.6501 37.9714 20.8208 38.3084 21.1904 38.393C21.5569 38.4777 21.8654 38.2488 21.997 37.8037C22.1238 37.3695 22.0048 36.9636 21.8247 36.5812C21.5914 36.0859 21.7198 35.7003 22.0972 35.3445C22.4793 34.984 22.9554 34.9903 23.3078 35.3853C23.5083 35.6094 23.6163 35.8821 23.6946 36.1674C23.9233 36.9965 23.8826 37.8366 23.7933 38.6767C23.6649 39.8852 23.5803 41.0968 23.596 42.3115C23.6038 42.9463 23.6226 43.5873 23.8168 44.2017C23.8967 44.4541 23.9844 44.7095 24.2725 44.8099ZM70.4767 29.4565L70.6539 29.2515C70.679 29.2577 70.704 29.2624 70.7322 29.2671C70.7322 29.3132 70.7309 29.3593 70.7296 29.4053V29.4054V29.4055V29.4056V29.4057V29.4058V29.4059V29.4059V29.406V29.406V29.406V29.4061C70.7269 29.5037 70.7242 29.6009 70.7338 29.6966C70.8293 30.6558 71.1253 31.543 71.9366 32.1198C73.2317 33.0398 74.6615 33.1135 76.0961 32.5116C77.6074 31.8784 78.8759 30.8784 79.9972 29.6888C80.0119 29.673 80.0257 29.6554 80.0398 29.6375C80.0902 29.5732 80.1439 29.5047 80.2541 29.5022C80.2525 29.5232 80.2518 29.5437 80.2512 29.5637C80.2497 29.6049 80.2484 29.644 80.24 29.6809C80.1506 30.08 80.1115 30.4857 80.0725 30.8914V30.8915C80.0581 31.0403 80.0438 31.1891 80.027 31.3376C79.9847 31.7154 80.1225 32.021 80.4013 32.2812C80.9839 32.8235 82.0551 32.9191 82.7269 32.4865C83.7308 31.8376 84.6015 31.0414 85.3721 30.1308C85.5468 29.9233 85.7249 29.7184 85.9143 29.5007L85.9143 29.5006L85.9144 29.5005C85.9796 29.4255 86.0462 29.349 86.1144 29.2703C86.1144 29.2991 86.1152 29.3214 86.1159 29.3393V29.3394C86.1171 29.37 86.1178 29.3877 86.1128 29.4035C85.6981 30.7312 85.3338 32.0737 84.9694 33.4167L84.9398 33.5257C84.896 33.6856 84.8004 33.7655 84.6611 33.836C84.5224 33.9061 84.3829 33.9749 84.2434 34.0438C83.6189 34.3519 82.9941 34.6601 82.4372 35.0868C81.4835 35.8156 81.521 37.01 82.5296 37.6604C84.0409 38.6338 86.5043 38.2654 87.1433 36.0335C87.3174 35.4233 87.5076 34.8169 87.6978 34.2108L87.6978 34.2106L87.6979 34.2105L87.6979 34.2103L87.698 34.2101L87.698 34.21L87.6981 34.2098C87.8038 33.8727 87.9096 33.5357 88.0125 33.1981C88.0579 33.0523 88.1206 32.9317 88.249 32.8407C89.7477 31.7718 91.0789 30.521 92.2582 29.1073C92.3752 28.967 92.4929 28.8273 92.6107 28.6876L92.6109 28.6874L92.611 28.6873C92.8839 28.3634 93.1571 28.0393 93.4218 27.7076C93.7788 27.2593 93.7882 26.6825 93.475 26.2954C93.3811 26.1794 93.3059 26.1449 93.2041 26.2813C93.1532 26.349 93.0994 26.4145 93.0456 26.48L93.0456 26.4801L93.0455 26.4802L93.0454 26.4803L93.0454 26.4804L93.0453 26.4805L93.0452 26.4806L93.0452 26.4806C92.9684 26.5742 92.8916 26.6677 92.8235 26.7672C91.8447 28.1841 90.6811 29.4411 89.4643 30.6496L89.3947 30.719C89.1646 30.9492 88.9249 31.1889 88.5935 31.3925C88.6137 31.3214 88.6308 31.2598 88.6461 31.2044L88.6465 31.2028C88.6725 31.1088 88.6936 31.0325 88.7172 30.9568L89.0474 29.8935C89.7734 27.5552 90.4994 25.2173 91.2324 22.8817C91.3044 22.6528 91.2433 22.5337 91.0491 22.4318C90.7907 22.2955 90.5057 22.2343 90.2285 22.2312C89.3703 22.2187 88.8049 22.366 88.4416 23.1607C88.061 23.9898 87.6899 24.8205 87.3579 25.6685C87.3256 25.7506 87.2993 25.8356 87.273 25.9207L87.273 25.9207C87.215 26.1083 87.157 26.2958 87.0352 26.4521C86.8041 26.7488 86.5751 27.0471 86.3461 27.3455L86.3453 27.3466C85.5848 28.3376 84.8244 29.3285 83.9845 30.2546C83.7872 30.4724 83.5695 30.6715 83.3032 30.8063C83.1153 30.9003 83.0229 30.8314 83.0167 30.6323C83.0088 30.3737 83.0762 30.1261 83.1482 29.8831C83.576 28.4406 84.0057 26.9987 84.4352 25.557L84.4355 25.556L84.4392 25.5437L84.4428 25.5315L84.4465 25.5193C84.7035 24.6568 84.9605 23.7943 85.217 22.9318C85.3172 22.5948 85.2844 22.5118 84.9461 22.3848C84.4183 22.1873 83.8811 22.1811 83.333 22.319C82.9289 22.4209 82.6612 22.6434 82.4967 23.0259C82.0003 24.1779 81.5304 25.3393 81.1123 26.5211C81.0905 26.5822 81.071 26.6445 81.0514 26.707C80.992 26.8963 80.9321 27.0873 80.8085 27.2499C80.0191 28.2875 79.2032 29.3016 78.1571 30.1025C77.4163 30.6699 76.6599 31.2091 75.7422 31.4615C74.8229 31.7138 74.1604 31.427 73.8597 30.6464C73.6389 30.0696 73.6483 29.474 73.7516 28.8816C74.068 27.0665 74.8338 25.4537 76.0021 24.0353C76.4469 23.4961 76.9794 23.0745 77.6904 22.9334C77.9394 22.8832 78.1195 22.9585 78.19 23.2124C78.309 23.6387 78.3246 24.0682 78.1195 24.4725C77.7327 25.2327 77.1141 25.7343 76.3247 26.0368C76.0491 26.1434 76.0397 26.1669 76.2684 26.3597C76.5424 26.5916 76.8509 26.7656 77.2158 26.7907C78.4029 26.8691 79.3802 26.4553 80.1366 25.529C81.0747 24.3801 80.5908 22.7578 79.1688 22.355C77.977 22.0165 76.7789 22.0588 75.6247 22.5055C73.9114 23.1701 72.61 24.3284 71.686 25.9208C71.5849 26.0953 71.4996 26.2775 71.4143 26.4598C71.2682 26.7718 71.1221 27.084 70.8967 27.3581C70.6499 27.6581 70.4092 27.9633 70.1686 28.2684C69.5846 29.0087 69.0008 29.7489 68.3298 30.416L68.2842 30.4615C68.1607 30.5849 68.0376 30.7079 67.8772 30.7875C67.6439 30.9019 67.5358 30.8439 67.5609 30.5806C67.5844 30.3298 67.6345 30.0775 67.7065 29.8345C68.3878 27.5258 69.0706 25.217 69.7706 22.913C69.8615 22.6152 69.755 22.4898 69.5185 22.3973C68.9406 22.1716 68.3565 22.1764 67.7676 22.3613C67.4184 22.471 67.1819 22.6967 67.0362 23.0321C66.5398 24.1716 66.0778 25.3268 65.6612 26.4992C65.6445 26.5459 65.628 26.5927 65.6116 26.6395C65.4838 27.0035 65.3569 27.365 65.0849 27.6747C64.752 28.0534 64.435 28.4457 64.1181 28.8381L64.1181 28.8381L64.118 28.8382L64.118 28.8382L64.118 28.8382L64.1179 28.8383L64.1179 28.8383C63.8564 29.162 63.595 29.4856 63.3246 29.8016L63.2648 29.8712C62.973 30.2112 62.6775 30.5557 62.2832 30.7875C62.067 30.9144 61.9746 30.8549 61.9699 30.6072C61.9652 30.3298 62.0388 30.0634 62.1171 29.8016C62.8 27.5023 63.4828 25.2029 64.1813 22.9099C64.2658 22.6325 64.1828 22.5008 63.9526 22.4068C63.4186 22.1873 62.872 22.1795 62.3145 22.3158C61.9355 22.4083 61.6677 22.6121 61.5017 22.9694C61.0256 23.9914 60.573 25.0227 60.1862 26.0807C60.1188 26.2672 60.0264 26.4365 59.9027 26.5901C59.6077 26.9585 59.3196 27.3322 59.0316 27.7058L59.0315 27.7059C58.5304 28.3558 58.0294 29.0056 57.4925 29.6276C57.4514 29.6753 57.4106 29.7231 57.3698 29.771C57.0801 30.1106 56.7899 30.4507 56.4275 30.7185L56.4099 30.7316L56.3915 30.7454C56.2919 30.8206 56.1836 30.9023 56.0579 30.8282C55.9313 30.7525 55.9559 30.6174 55.9775 30.4985L55.9776 30.4981L55.9821 30.4731L55.9859 30.4505C56.0203 30.2389 56.0658 30.0273 56.1268 29.822L56.4015 28.8946L56.4016 28.8944L56.4016 28.8943L56.4016 28.8942L56.4016 28.8941L56.4017 28.894L56.4017 28.8939C56.9909 26.904 57.58 24.9146 58.1831 22.9287C58.274 22.6262 58.1816 22.4883 57.9247 22.3911C57.3641 22.1779 56.7987 22.1763 56.2255 22.3331C55.8731 22.4303 55.6257 22.6372 55.4753 22.9773C54.8865 24.3142 54.3603 25.6732 53.8795 27.0524C53.4003 28.427 53.0996 29.8377 52.9821 31.289C52.9586 31.5696 52.9931 31.8345 53.1622 32.0727C53.7276 32.8705 55.0666 32.8909 55.6163 32.5288C56.57 31.9003 57.4267 31.1605 58.1737 30.2938C58.4166 30.013 58.6641 29.7369 58.912 29.4605L58.9126 29.4598C59.0146 29.3461 59.1166 29.2324 59.2183 29.1182C59.136 29.621 59.0864 30.1182 59.0371 30.6134V30.6135C59.0226 30.7589 59.0081 30.9041 58.9928 31.0492C58.9474 31.4803 58.9427 31.8972 59.2778 32.2295C59.8855 32.8313 61.0428 32.9269 61.7554 32.452C62.6919 31.8282 63.489 31.0492 64.2533 30.2326C64.2994 30.1835 64.3421 30.131 64.3849 30.0784L64.3849 30.0784C64.4759 29.9666 64.5672 29.8544 64.6918 29.7734C64.7572 29.8576 64.7374 29.9387 64.7203 30.009L64.72 30.0101C64.6589 30.2711 64.6368 30.5364 64.6148 30.8018V30.8018C64.6012 30.965 64.5876 31.1283 64.5649 31.2906C64.5117 31.6731 64.6323 31.9975 64.922 32.2687C65.5124 32.8251 66.593 32.9317 67.2696 32.4787C68.2359 31.8329 69.1051 31.0759 69.8536 30.184C70.0588 29.9396 70.2677 29.6981 70.4767 29.4565ZM43.4432 28.5671C40.7151 28.2254 38.3206 30.7896 37.9901 33.0404C37.8241 34.1767 38.5132 35.02 39.6549 35.0357C41.2163 35.0576 42.5255 34.4589 43.6703 33.4322C45.1111 32.1376 46.1917 30.5702 47.1063 28.8822C48.8463 25.6706 50.0756 22.2569 51.0889 18.7585C51.1998 18.3745 51.3086 17.9899 51.4174 17.6053L51.4176 17.6047C51.5592 17.1042 51.7008 16.6038 51.8469 16.1049C51.908 15.8934 51.872 15.8134 51.6402 15.8604C50.3575 16.1238 49.125 16.5062 48.0115 17.2319C45.8629 18.63 45.4698 21.0328 46.2888 23.1362C46.4924 23.6565 46.7853 24.1268 47.1533 24.6158C46.5159 24.6126 45.9521 24.5139 45.3962 24.3807C44.4033 24.1456 43.4855 23.7616 42.6884 23.0986C41.6892 22.2663 41.3603 20.9434 41.8787 19.7538C42.477 18.3808 43.5544 17.4874 44.8214 16.7868C46.4783 15.8698 48.2715 15.3714 50.132 15.083C51.1562 14.9247 52.182 14.7837 53.2219 14.7946C53.6103 14.7978 53.9768 14.8934 54.3245 15.0642C54.9603 15.3746 55.1138 15.8369 55.059 16.4419C54.7614 19.7287 53.9549 22.8932 52.7161 25.9527C51.9456 27.8555 50.9793 29.6439 49.6606 31.2191C47.761 33.4887 45.4948 35.219 42.5161 35.8131C40.8655 36.1422 39.2007 36.2551 37.5344 35.9087C36.6495 35.7253 35.8634 35.3178 35.2526 34.6532C34.3004 33.6203 34.2769 32.426 34.8376 31.2097C35.6316 29.4887 37.0395 28.5123 38.8358 28.0326C40.452 27.6016 41.9946 27.8555 43.4981 28.506C43.5153 28.5624 43.5059 28.5906 43.4432 28.5671ZM27.5712 11.3417C26.7082 11.4624 25.8704 11.7006 25.1046 12.1426L25.1034 12.1433L25.1041 12.1426C23.9358 12.6567 23.0055 13.4795 22.2491 14.4842C20.824 16.376 20.2931 18.5092 20.6924 20.8525C21.0683 23.0515 22.1692 24.8195 23.9781 26.1157C25.931 27.5169 28.111 27.9715 30.4664 27.4934C31.4092 27.3022 32.3081 26.9683 33.1021 26.4009L33.1022 26.3978L33.1042 26.401C33.1133 26.3972 33.1228 26.394 33.1324 26.3907C33.1507 26.3846 33.1692 26.3783 33.1856 26.3681C35.8386 24.7646 37.3921 21.3368 36.8753 18.2616C36.4039 15.4591 34.9099 13.3996 32.3916 12.1034C30.8772 11.3244 29.25 11.1066 27.5712 11.3417ZM18.1591 11.282C17.636 11.3306 17.1161 11.4403 16.6384 11.6864L16.6366 11.688C16.5566 11.6851 16.4896 11.7216 16.4233 11.7577C16.4049 11.7678 16.3865 11.7777 16.368 11.7869C15.386 12.232 14.5779 12.8997 13.9108 13.7382C13.0134 14.8683 12.4324 16.1457 12.1771 17.5689C12.1982 17.7044 12.1719 17.8355 12.1456 17.9665C12.1251 18.0689 12.1046 18.1713 12.1066 18.2758C12.0714 18.4366 12.0654 18.5998 12.0594 18.763C12.0545 18.8972 12.0495 19.0315 12.0283 19.1645C12.0193 19.2663 12.022 19.3689 12.0246 19.4716C12.0284 19.6188 12.0321 19.7663 12.0017 19.9121C12.0283 20.9074 12.2335 21.8682 12.5749 22.7992C13.0729 24.1581 13.8497 25.3337 14.9742 26.2521C16.2693 27.3117 17.7524 27.8164 19.4391 27.6205C20.587 27.4872 21.5987 27.0296 22.5008 26.3164C22.6089 26.2302 22.6198 26.1597 22.5118 26.0594C22.1017 25.6824 21.7719 25.2369 21.4425 24.792L21.4425 24.792C21.3706 24.6948 21.2987 24.5977 21.226 24.5014L21.2226 24.5023L21.2255 24.4965C21.2154 24.4762 21.2055 24.4558 21.1956 24.4354C21.172 24.3863 21.1482 24.3372 21.1206 24.2896C19.6563 21.7708 19.3587 19.1235 20.2702 16.3556C20.7071 15.0264 21.426 13.8556 22.4142 12.8572C22.4256 12.8456 22.4374 12.8343 22.4491 12.8232C22.5335 12.743 22.6086 12.6716 22.4408 12.5422C21.1754 11.5641 19.7487 11.1331 18.1591 11.282ZM68.4206 20.6553C68.5146 21.3122 69.0987 21.7386 69.8411 21.7386C70.2576 21.7496 70.6163 21.6571 70.9358 21.4548C71.3727 21.1789 71.6765 20.7886 71.6546 20.254C71.6342 19.7335 71.3101 19.3823 70.8324 19.213C70.1433 18.9685 69.473 19.0343 68.903 19.5172C68.5663 19.8025 68.3533 20.1866 68.4206 20.6553Z" fill="white"/>
<path d="M23.958 40.6064C24.005 41.7571 24.2712 42.8655 24.5594 43.9723C24.5939 44.1024 24.7082 44.3266 24.5187 44.3908C24.3182 44.4598 24.2274 44.245 24.1569 44.0836C23.9784 43.6744 23.9377 43.2339 23.9032 42.7965C23.8437 42.066 23.8453 41.3354 23.958 40.6064Z" fill="white"/>
<path d="M12.1705 18.2658C12.075 18.4494 12.1251 18.6487 12.1126 18.8416C12.1063 18.9467 12.136 19.0581 12.053 19.1491C12.028 19.1382 12.0108 19.1193 12.0029 19.0942C12.0029 19.033 12.0029 18.9719 12.0029 18.9107C12.0609 18.7977 11.9873 18.6659 12.0515 18.5529C12.0546 18.4384 12.0577 18.3239 12.0609 18.2094C12.1235 18.1764 12.1392 18.236 12.1705 18.2658Z" fill="white"/>
<path d="M12.1702 18.2664C12.1342 18.2475 12.0966 18.2287 12.0605 18.2099C12.0997 17.9949 12.1389 17.7784 12.178 17.5635C12.2986 17.7988 12.1091 18.0326 12.1702 18.2664Z" fill="white"/>
<path d="M12.0025 19.0947C12.0198 19.1136 12.037 19.1324 12.0527 19.1496C12.026 19.4022 12.109 19.6627 12.001 19.909C12.001 19.6391 12.0025 19.3662 12.0025 19.0947Z" fill="white"/>
<path d="M12.0499 18.5552C12.042 18.676 12.0859 18.8031 12.0013 18.9129C11.9998 18.7905 11.9716 18.665 12.0499 18.5552Z" fill="white"/>
<path d="M43.4434 28.5673C43.4622 28.5485 43.4794 28.5297 43.4982 28.5093C43.5483 28.5265 43.6391 28.5532 43.6125 28.5956C43.5749 28.6552 43.4966 28.6144 43.4434 28.5673Z" fill="white"/>
<path d="M85.5264 36.9757C87.4166 32.5557 88.682 27.9461 90.0524 23.3709C90.1667 22.9916 90.4455 23.0339 90.6835 22.9258C90.7509 23.0089 90.696 23.0778 90.6741 23.1499C89.7423 26.2925 88.7838 29.4288 87.9883 32.609C87.7267 33.6544 87.448 34.6889 86.8435 35.6011C86.4895 36.1403 86.0416 36.5839 85.5264 36.9757Z" fill="white"/>
<path d="M84.6382 23.1183C84.3422 24.0399 84.0399 24.9568 83.7518 25.8784C83.3242 27.2467 82.8904 28.615 82.5787 30.0163C82.4942 30.394 82.4769 30.7451 82.7056 31.0805C82.7682 31.173 82.798 31.2874 82.8465 31.4018C81.946 31.3548 81.376 30.6181 81.4574 29.6699C81.5232 28.8956 81.8302 28.1966 82.1074 27.4897C82.6445 26.1151 83.2584 24.775 83.9272 23.46C84.1354 23.0524 84.1354 23.0524 84.6382 23.1183Z" fill="white"/>
<path d="M66.4404 30.8969C66.5501 29.8703 66.7991 28.7559 67.0841 27.6509C67.4819 26.1117 67.9251 24.5851 68.4999 23.1008C68.5547 22.9613 68.5735 22.7826 68.7473 22.723C68.929 22.6619 69.1404 22.6447 69.2892 22.7481C69.4238 22.8422 69.286 23.013 69.25 23.14C68.5108 25.7794 67.7654 28.4157 67.0136 31.0505C66.9792 31.1712 67.0058 31.3561 66.7928 31.3843C66.4592 31.4298 66.4185 31.3953 66.4404 30.8969Z" fill="white"/>
<path d="M76.7778 23.0308C76.355 23.4038 75.9885 23.7376 75.6628 24.1138C74.3645 25.6122 73.5752 27.3332 73.3653 29.3128C73.3512 29.4397 73.334 29.5651 73.3183 29.6921C73.2056 30.5635 73.5532 31.214 74.2736 31.6874C74.305 31.7077 74.3316 31.7391 74.3692 31.772C73.1883 31.5729 72.2205 30.2093 72.4037 29.026C72.6324 27.562 73.3308 26.3207 74.2157 25.1671C74.8108 24.3928 75.4968 23.711 76.3409 23.2079C76.4552 23.1389 76.5617 23.0527 76.7778 23.0308Z" fill="white"/>
<path d="M63.4088 22.912C63.5325 22.912 63.592 22.9168 63.6515 22.9105C63.8207 22.8948 63.8692 22.9309 63.8097 23.1221C63.1425 25.2647 62.491 27.4135 61.8239 29.5561C61.6547 30.0984 61.4042 30.6094 61.0722 31.0749C60.9907 31.1893 60.8905 31.4056 60.7699 31.3445C60.6227 31.2693 60.7354 31.0624 60.773 30.9182C61.0361 29.9386 61.293 28.9558 61.5764 27.9809C62.0337 26.4073 62.513 24.8383 62.9734 23.2647C63.0533 22.9951 63.1425 22.7976 63.4088 22.912Z" fill="white"/>
<path d="M83.1263 36.4865C83.1467 36.1933 83.261 35.9441 83.4599 35.7293C83.7073 35.4612 84.0049 35.259 84.3087 35.0646C84.3557 35.0348 84.4105 34.9831 84.4606 35.0317C84.4857 35.0552 84.481 35.1257 84.4669 35.1681C84.3181 35.6525 84.1834 36.1416 84.008 36.615C83.864 37.0022 83.4677 37.0853 83.2234 36.8141C83.1404 36.7169 83.1232 36.6072 83.1263 36.4865Z" fill="white"/>
<path d="M33.104 15.4275C33.0915 15.846 32.9615 16.2552 32.6451 16.5938C32.0657 17.2099 31.1746 17.1613 30.6609 16.4856C30.2036 15.8837 30.1832 14.9948 30.6123 14.3724C31.1824 13.5462 32.2583 13.5572 32.808 14.3959C33.0069 14.6969 33.0993 15.0308 33.104 15.4275Z" fill="white"/>
<path d="M32.7453 18.2341C32.7312 17.9912 32.786 17.767 32.9348 17.5726C33.1415 17.3014 33.4422 17.2998 33.6521 17.5616C33.9167 17.8924 33.923 18.5226 33.6646 18.8596C33.4297 19.1653 33.1086 19.1512 32.9003 18.822C32.7876 18.6417 32.7328 18.4473 32.7453 18.2341Z" fill="white"/>
<path d="M31.051 20.0009C30.802 19.9977 30.6266 19.811 30.625 19.5443C30.6234 19.2666 30.8082 19.0783 31.0745 19.0877C31.3172 19.0972 31.5052 19.3043 31.4989 19.5521C31.4911 19.7985 31.2859 20.004 31.051 20.0009Z" fill="white"/>
<path d="M45.4277 33.7488C49.9757 28.5498 53.0092 22.6831 53.7609 15.7632C53.858 15.8854 53.8878 16.0171 53.916 16.2867C54.0084 17.1597 53.941 18.0312 53.8423 18.8964C53.5824 21.1659 53.0546 23.3743 52.2324 25.5091C51.501 27.4088 50.5598 29.1909 49.2474 30.7598C48.2702 31.9291 47.1254 32.8961 45.7613 33.5889C45.6501 33.6438 45.5389 33.6955 45.4277 33.7488Z" fill="white"/>
<path d="M44.0147 23.0768C43.4838 22.8276 43.0186 22.5063 42.6428 22.0737C42.0727 21.417 41.9239 20.6803 42.2653 19.8668C42.5895 19.0957 43.1549 18.5267 43.8252 18.0361C43.2755 18.801 43.0312 19.6474 43.0969 20.5784C43.1612 21.4985 43.5151 22.3119 44.0147 23.0768Z" fill="white"/>
</svg>
