<svg id='juicylinkedin' width="29" height="29" viewBox="0 0 29 29" fill="none" xmlns="http://www.w3.org/2000/svg">
<rect x="1.42237" y="0.911628" width="26.3695" height="26.3695" rx="13.1847" fill="#0A66C2"/>
<path d="M20.4406 7.25195H8.77317C8.50517 7.25195 8.24816 7.35841 8.05866 7.54791C7.86916 7.73741 7.7627 7.99443 7.7627 8.26242V19.9299C7.7627 20.1979 7.86916 20.4549 8.05866 20.6444C8.24816 20.8339 8.50517 20.9404 8.77317 20.9404H20.4406C20.7086 20.9404 20.9657 20.8339 21.1552 20.6444C21.3447 20.4549 21.4511 20.1979 21.4511 19.9299V8.26242C21.4511 7.99443 21.3447 7.73741 21.1552 7.54791C20.9657 7.35841 20.7086 7.25195 20.4406 7.25195ZM11.8426 18.9128H9.78459V12.3756H11.8426V18.9128ZM10.8122 11.4697C10.5787 11.4684 10.3509 11.3979 10.1574 11.2673C9.96399 11.1366 9.81359 10.9516 9.7252 10.7355C9.63682 10.5194 9.61442 10.282 9.66084 10.0532C9.70726 9.82442 9.82041 9.6145 9.98601 9.44996C10.1516 9.28542 10.3622 9.17362 10.5913 9.12867C10.8204 9.08372 11.0577 9.10764 11.2732 9.19741C11.4887 9.28718 11.6728 9.43877 11.8022 9.63306C11.9316 9.82735 12.0006 10.0556 12.0004 10.2891C12.0026 10.4454 11.9733 10.6005 11.9143 10.7452C11.8553 10.89 11.7677 11.0213 11.6568 11.1315C11.5459 11.2417 11.414 11.3284 11.2689 11.3865C11.1238 11.4446 10.9684 11.4729 10.8122 11.4697ZM19.4283 18.9185H17.3712V15.3471C17.3712 14.2939 16.9235 13.9688 16.3455 13.9688C15.7352 13.9688 15.1364 14.4289 15.1364 15.3737V18.9185H13.0784V12.3804H15.0575V13.2863H15.0841C15.2828 12.8842 15.9786 12.1969 17.0404 12.1969C18.1887 12.1969 19.4292 12.8785 19.4292 14.8747L19.4283 18.9185Z" fill="white"/>
<rect x="1.42237" y="0.911628" width="26.3695" height="26.3695" rx="13.1847" stroke="#392B5A" stroke-width="1.48143"/>
</svg>
