<svg xmlns="http://www.w3.org/2000/svg" width="17" height="17" viewBox="0 0 17 17">
  <path id="Union_86" data-name="Union 86" d="M1.822,17A1.789,1.789,0,0,1,0,15.179V5.464A1.789,1.789,0,0,1,1.822,3.643H3.643V1.822A1.789,1.789,0,0,1,5.464,0h9.714A1.789,1.789,0,0,1,17,1.822v9.714a1.789,1.789,0,0,1-1.821,1.822H13.357v1.821A1.789,1.789,0,0,1,11.536,17ZM4.857,1.822V3.643h6.678a1.789,1.789,0,0,1,1.822,1.821v6.678h1.821a.573.573,0,0,0,.607-.607V1.822a.574.574,0,0,0-.607-.608H5.464A.574.574,0,0,0,4.857,1.822Z" fill="#818ca3"/>
</svg>