<svg width="434" height="285" viewBox="0 0 434 285" fill="none" xmlns="http://www.w3.org/2000/svg">
<g clip-path="url(#clip0_1314_39419)">
<path d="M426.478 67.1961L419.691 100.133L415.322 95.8681L407.889 101.177L402.209 94.1126L389.471 103.395L378.585 85.1499L366.443 92.2788L361.627 85.619L346.209 94.3258L341.57 84.3752L352.379 31.9141L410.322 43.9046L426.478 67.1961Z" fill="#EBEBEB"/>
<path d="M410.318 43.9062L426.474 67.1978L406.375 63.0399L410.318 43.9062Z" fill="#DBDBDB"/>
<path d="M418.242 106.722L408.292 155.046L330.242 138.905L340.122 90.957L344.76 100.915L360.185 92.208L364.994 98.8607L377.143 91.7318L388.022 109.977L400.767 100.694L406.441 107.759L413.88 102.45L418.242 106.722Z" fill="#EBEBEB"/>
<path d="M306.53 101.056L226.991 105.988L220.672 3.66041L279.736 0L301.417 18.2239L306.53 101.056Z" fill="#EBEBEB"/>
<path d="M279.734 0L301.415 18.2239L280.933 19.4961L279.734 0Z" fill="#DBDBDB"/>
<path d="M257.684 68.8434L257.379 66.5334C256.578 61.75 257.883 56.398 262.032 50.8043C265.769 45.8575 267.798 42.2539 267.578 38.2381C267.323 33.6893 264.308 30.8178 258.698 31.0453C255.493 31.2229 251.996 32.4952 249.869 34.3147L247.422 28.8206C250.237 26.5177 255.23 24.8048 259.947 24.5418C270.174 23.9661 275.152 30.036 275.535 36.8095C275.876 42.8723 272.741 47.4282 268.755 52.7518C265.103 57.6063 263.897 61.6079 264.415 66.1425L264.635 68.4525L257.698 68.8434H257.684ZM256.422 81.4309C256.237 78.133 258.33 75.688 261.443 75.5174C264.557 75.3397 266.819 77.5431 267.003 80.841C267.181 83.9612 265.266 86.4844 261.975 86.6692C258.862 86.8469 256.592 84.5583 256.415 81.438L256.422 81.4309Z" fill="#DBDBDB"/>
<path d="M58.766 51.4477L50.7589 47.8086L49.6525 50.2678C49.3263 50.9928 48.6171 51.4477 47.8298 51.4832C47.3901 51.5045 46.9575 51.5472 46.5249 51.6112C45.7447 51.732 44.9646 51.4121 44.5036 50.7725L42.9362 48.5833L35.7873 53.715L37.3547 55.9041C37.8157 56.5438 37.8582 57.3896 37.4965 58.0933C37.2908 58.4842 37.1135 58.8822 36.9575 59.2944C36.6738 60.0336 36.0071 60.5596 35.2199 60.6307L32.5391 60.8937L33.4043 69.6573L36.0923 69.3872C36.8795 69.309 37.6242 69.7 38.0568 70.3681C38.1703 70.5529 38.2908 70.7306 38.4185 70.9082C38.5462 71.0859 38.6738 71.2565 38.8086 71.4271C39.2979 72.0455 39.4327 72.877 39.1064 73.5949L37.9859 76.0684L45.993 79.7074L47.1064 77.2482C47.4327 76.5232 48.1419 76.0684 48.9291 76.0328C49.3618 76.0115 49.8015 75.9688 50.2341 75.9049C51.0142 75.7841 51.7944 76.1039 52.2554 76.7436L53.8227 78.9327L60.9717 73.801L59.4043 71.6119C58.9433 70.9722 58.9008 70.1264 59.2625 69.4228C59.461 69.0318 59.6454 68.6338 59.8015 68.2287C60.0852 67.4895 60.7518 66.9635 61.5391 66.8854L64.2199 66.6224L63.3547 57.8587L60.6667 58.1217C59.8795 58.1999 59.1419 57.809 58.7093 57.1409C58.5958 56.9561 58.4681 56.7784 58.3405 56.6007C58.2128 56.423 58.0852 56.2524 57.9504 56.0818C57.454 55.4635 57.3263 54.6248 57.6525 53.9069L58.766 51.4477ZM54.227 59.5574C56.5391 62.7985 55.8015 67.2976 52.5674 69.6218C49.3334 71.9388 44.8369 71.1997 42.5178 67.9657C40.2057 64.7246 40.9433 60.2113 44.1774 57.8943C47.4114 55.5772 51.9079 56.3235 54.2199 59.5645L54.227 59.5574Z" fill="#EBEBEB"/>
<path d="M420.398 167.725L415.064 170.81L416.008 172.445C416.284 172.928 416.256 173.518 415.958 173.98C415.788 174.236 415.639 174.506 415.497 174.776C415.249 175.266 414.745 175.586 414.199 175.586H412.312V181.756H414.199C414.752 181.756 415.249 182.075 415.497 182.566C415.639 182.843 415.788 183.106 415.958 183.362C416.263 183.824 416.284 184.421 416.008 184.897L415.064 186.532L420.398 189.617L421.341 187.975C421.617 187.491 422.142 187.228 422.703 187.257C422.852 187.264 423.008 187.271 423.156 187.271C423.305 187.271 423.461 187.271 423.61 187.257C424.164 187.228 424.688 187.491 424.965 187.968L425.915 189.617L431.249 186.532L430.305 184.89C430.029 184.407 430.057 183.817 430.362 183.355C430.532 183.099 430.681 182.836 430.823 182.559C431.071 182.068 431.568 181.748 432.121 181.748H434.008V175.579H432.121C431.568 175.579 431.071 175.259 430.823 174.769C430.681 174.492 430.532 174.229 430.362 173.973C430.057 173.511 430.029 172.914 430.305 172.437L431.249 170.796L425.915 167.711L424.972 169.353C424.696 169.836 424.171 170.099 423.617 170.071C423.469 170.064 423.312 170.056 423.164 170.056C423.015 170.056 422.859 170.056 422.71 170.071C422.156 170.099 421.625 169.836 421.348 169.353L420.405 167.711L420.398 167.725ZM423.156 173.624C425.944 173.624 428.199 175.885 428.199 178.678C428.199 181.471 425.944 183.731 423.156 183.731C420.369 183.731 418.114 181.464 418.114 178.678C418.114 175.892 420.376 173.624 423.156 173.624Z" fill="#EBEBEB"/>
<path d="M74.9524 25.1834L70.0588 28.9291L71.2077 30.4288C71.5481 30.8695 71.5978 31.4594 71.3567 31.9641C71.2219 32.2412 71.1084 32.5255 71.002 32.817C70.8177 33.3358 70.3638 33.7196 69.8177 33.7907L67.9453 34.0324L68.7396 40.152L70.612 39.9103C71.1581 39.8393 71.6971 40.088 72.0091 40.55C72.1864 40.8059 72.3708 41.0475 72.5694 41.2821C72.9311 41.7014 73.0304 42.2843 72.8176 42.8031L72.0942 44.5445L77.7822 46.9113L78.5056 45.1628C78.7184 44.6511 79.2077 44.317 79.7609 44.2744C79.9098 44.2602 80.0588 44.246 80.2148 44.2246C80.3637 44.2033 80.5127 44.182 80.6616 44.1536C81.2077 44.0541 81.7609 44.246 82.0942 44.6866L83.2503 46.2005L88.1439 42.4548L86.995 40.948C86.6616 40.5074 86.612 39.9174 86.8531 39.4128C86.9879 39.1356 87.1013 38.8513 87.2077 38.567C87.3921 38.0481 87.846 37.6643 88.3921 37.5933L90.2645 37.3516L89.4701 31.232L87.5978 31.4736C87.0517 31.5447 86.5127 31.2959 86.2006 30.8411C86.0304 30.5852 85.8389 30.3435 85.6403 30.109C85.2786 29.6896 85.1794 29.1068 85.3921 28.5879L86.1155 26.8395L80.4276 24.4727L79.7042 26.2211C79.4914 26.7329 79.0021 27.0598 78.456 27.1096C78.307 27.1238 78.151 27.138 78.0021 27.1593C77.8531 27.1806 77.7042 27.202 77.5552 27.2304C77.0091 27.3299 76.4489 27.138 76.1155 26.6973L74.9666 25.1976L74.9524 25.1834ZM78.4418 30.6776C81.2006 30.3151 83.7325 32.2697 84.0942 35.0345C84.4559 37.7994 82.5056 40.3439 79.7467 40.6993C76.9879 41.0618 74.4489 39.1072 74.0942 36.3352C73.7325 33.5704 75.6829 31.033 78.4489 30.6705L78.4418 30.6776Z" fill="#EBEBEB"/>
<path d="M38.44 185.543C38.7166 178.663 38.6102 171.776 38.1563 164.91C37.2272 150.744 34.901 136.685 31.7024 122.868C29.901 115.085 27.6882 107.438 25.3833 99.7971C25.3124 99.5696 24.9436 99.6336 25.0074 99.8752C32.1421 126.813 38.0003 154.604 37.596 182.608C37.4826 190.44 36.5748 198.138 35.8372 205.928C35.8159 206.134 36.1563 206.219 36.206 206.006C37.6811 199.339 38.1563 192.359 38.4329 185.557L38.44 185.543Z" fill="#EBEBEB"/>
<path d="M25.0102 99.8672C25.0102 99.8672 14.1946 127.374 16.6201 133.834C19.0386 140.302 24.0315 141.681 24.0315 141.681C24.0315 141.681 17.4145 151.148 22.0386 160.026C26.6627 168.903 36.9322 168.484 37.613 178.548C37.613 178.548 38.1875 136.457 25.0102 99.8672Z" fill="#EBEBEB"/>
<path d="M36.4447 161.169C36.4589 161.127 36.4518 161.077 36.4305 161.027C34.9128 142.327 31.6007 123.684 25.9411 105.694C25.927 105.645 25.8348 105.659 25.8489 105.716C27.9908 113.762 29.8986 121.85 31.5298 129.981C30.1255 128.531 28.2887 127.7 26.3667 127.095C26.3312 127.081 26.3099 127.138 26.3454 127.152C28.3454 128.019 30.2603 129.022 31.6716 130.72C31.9908 132.312 32.2958 133.912 32.5936 135.504C30.1752 132.796 26.8277 131.452 23.4731 130.18C23.4234 130.159 23.4021 130.237 23.4447 130.251C26.9341 131.673 30.4163 133.514 32.7851 136.527C33.6078 141.09 34.3312 145.675 34.9553 150.266C33.1894 148.418 31.0121 147.174 28.5085 146.563C28.4305 146.542 28.388 146.655 28.466 146.677C31.0333 147.416 33.2461 148.859 35.005 150.877C35.0192 150.892 35.0333 150.899 35.0475 150.906C35.2674 152.519 35.466 154.14 35.6575 155.76C34.2958 154.595 32.7922 153.713 31.1397 153.031C31.0972 153.01 31.0688 153.081 31.1184 153.102C32.7993 153.82 34.3099 154.851 35.6433 156.101C35.6645 156.116 35.6787 156.116 35.7 156.123C35.8773 157.665 36.0617 159.2 36.2177 160.75C33.7355 157.758 30.6716 155.59 27.0475 154.19C26.9766 154.161 26.9411 154.268 27.005 154.303C30.5298 155.838 33.6362 158.276 36.0404 161.276C36.1043 161.361 36.1894 161.368 36.2674 161.347C36.5014 163.714 36.7071 166.088 36.8844 168.462C36.8844 168.497 36.9411 168.497 36.9411 168.462C36.8064 166.031 36.6362 163.6 36.4376 161.169H36.4447Z" fill="white"/>
<path d="M27.7578 124.361C25.8854 123.067 23.5024 122.52 21.2613 122.328C21.2046 122.328 21.2046 122.406 21.2613 122.413C23.5875 122.762 25.545 123.607 27.6868 124.517C27.779 124.56 27.8429 124.418 27.7648 124.361H27.7578Z" fill="white"/>
<path d="M29.0653 153.487C27.583 152.592 25.888 152.087 24.1859 151.817C24.1291 151.81 24.122 151.902 24.1859 151.909C25.9093 152.222 27.4412 152.84 29.0086 153.608C29.0724 153.643 29.1291 153.53 29.0653 153.494V153.487Z" fill="white"/>
<path d="M66.8661 134.283C62.3554 137.46 58.0292 141.127 54.3483 145.25C50.4263 149.642 47.5682 154.632 45.5682 160.169C41.476 171.512 39.2348 183.794 39.0292 195.849C38.9157 202.608 39.5114 209.31 40.9582 215.913C41.0079 216.155 41.3696 216.084 41.3341 215.842C39.5682 204.221 39.632 192.366 41.5327 180.773C43.3909 169.394 46.3058 157.013 53.5256 147.766C57.4547 142.734 62.3554 138.768 67.1994 134.674C67.4547 134.46 67.1285 134.105 66.8661 134.29V134.283Z" fill="#EBEBEB"/>
<path d="M40.6243 187.654C40.6243 187.654 44.3406 181.385 49.7448 175.969C55.1562 170.553 59.7094 166.7 60.4115 163.111C61.1136 159.529 54.9931 156.885 54.9931 156.885C54.9931 156.885 62.4753 158.228 64.525 155.087C66.5746 151.938 67.5604 133.707 67.5604 133.707C67.5604 133.707 53.9434 143.452 47.5959 157.112C41.2484 170.773 40.6172 187.661 40.6172 187.661L40.6243 187.654Z" fill="#EBEBEB"/>
<path d="M62.8611 138.377C57.1306 144.02 51.3646 150.026 47.9888 157.44C46.8327 159.977 45.8469 162.614 44.9817 165.301C44.9817 165.301 44.9817 165.308 44.9817 165.315C44.8044 165.855 44.6341 166.388 44.4639 166.935C44.4497 166.964 44.4356 166.992 44.4356 167.021C42.7689 172.557 41.5916 178.279 40.5703 183.866C40.5703 183.901 40.62 183.922 40.627 183.887C41.2157 181.044 41.8611 178.172 42.5845 175.308C42.6129 175.308 42.6341 175.308 42.6625 175.294C43.8185 174.803 44.9888 174.498 46.237 174.384C46.315 174.377 46.315 174.235 46.2299 174.242C45.0242 174.299 43.8398 174.512 42.698 174.889C43.3575 172.309 44.0739 169.729 44.8824 167.191C47.5136 166.544 50.2583 166.196 52.9604 166.132C52.9888 166.132 52.9958 166.09 52.9604 166.09C50.237 165.962 47.6767 166.196 45.0171 166.765C45.159 166.331 45.3008 165.898 45.4497 165.464C47.2228 165.059 49.01 164.718 50.8256 164.554C50.8611 164.554 50.854 164.497 50.8256 164.497C49.0455 164.547 47.2937 164.732 45.5632 165.137C46.3008 162.941 47.1022 160.773 47.9958 158.662C48.7334 156.914 49.6058 155.258 50.5703 153.658C52.0242 153.331 53.4356 153.012 54.932 152.877C54.9746 152.877 54.9675 152.805 54.932 152.805C53.5774 152.72 52.1661 152.82 50.854 153.211C51.5703 152.052 52.3221 150.915 53.1306 149.813C56.1873 149.138 59.2795 148.505 62.4001 149.095C62.4568 149.102 62.471 149.017 62.4214 149.003C59.4497 148.221 56.4994 148.669 53.5349 149.259C53.8611 148.825 54.1873 148.406 54.5207 147.979C56.393 147.397 58.2583 147.119 60.2299 147.084C60.2724 147.084 60.2795 147.027 60.2299 147.02C58.4356 146.849 56.6412 147.02 54.9107 147.496C57.4356 144.355 60.2228 141.398 62.9817 138.477C63.1093 138.342 63.01 138.263 62.8753 138.398L62.8611 138.377Z" fill="white"/>
<path d="M62.6996 150.801C61.806 150.709 60.8911 150.602 59.9904 150.709C59.884 150.723 59.8911 150.9 59.9975 150.9C60.8911 150.929 61.7918 150.858 62.6854 150.908C62.7564 150.908 62.7634 150.808 62.6925 150.801H62.6996Z" fill="white"/>
<path d="M52.9043 168.493C51.4717 168.478 50.0461 168.862 48.7057 169.338C48.6703 169.353 48.6915 169.409 48.727 169.395C50.11 169.061 51.5142 168.933 52.9185 168.699C53.032 168.677 53.0249 168.493 52.9043 168.493Z" fill="white"/>
<path d="M49.9633 162.38C49.3818 162.352 48.7576 162.451 48.1832 162.543C48.1264 162.551 48.1264 162.65 48.1832 162.65C48.7647 162.657 49.3959 162.678 49.9704 162.565C50.0697 162.543 50.0697 162.387 49.9633 162.38Z" fill="white"/>
<path d="M0.705985 153.636C5.08896 155.165 9.43648 157.126 13.3656 159.607C17.55 162.258 21.018 165.627 23.9117 169.643C29.8407 177.873 34.4861 187.298 37.4294 197C39.0819 202.444 40.1386 208.002 40.5003 213.681C40.5145 213.887 40.2095 213.916 40.1812 213.71C38.9258 203.901 36.1386 194.32 31.9329 185.372C27.8053 176.594 22.5854 167.255 14.6138 161.441C10.2734 158.278 5.39393 156.202 0.52868 154.013C0.273361 153.899 0.457758 153.537 0.713077 153.622L0.705985 153.636Z" fill="#EBEBEB"/>
<path d="M34.249 190.746C34.249 190.746 29.7951 186.532 24.1709 183.404C18.5468 180.27 13.9653 178.209 12.5752 175.472C11.178 172.736 15.5255 169.182 15.5255 169.182C15.5255 169.182 9.78086 172.004 7.39788 169.935C5.01491 167.86 0.0078125 153.332 0.0078125 153.332C0.0078125 153.332 13.2773 158.066 21.561 167.647C29.8447 177.228 34.256 190.753 34.256 190.753L34.249 190.746Z" fill="#EBEBEB"/>
<path d="M33.5523 187.746C26.914 175.265 18.0629 163.971 5.92818 156.516C5.92818 156.516 5.91399 156.516 5.92818 156.523C9.11967 158.563 12.0629 160.915 14.8076 163.488C12.3537 163.417 9.85016 163.815 7.67286 164.995C7.62321 165.023 7.65868 165.087 7.70832 165.073C10.1339 164.249 12.4672 163.708 15.0487 163.829C15.0842 163.829 15.1055 163.815 15.1339 163.801C15.5665 164.213 15.992 164.625 16.4104 165.045C15.1339 165.102 13.8431 165.279 12.6019 165.549C12.5665 165.556 12.5807 165.606 12.609 165.599C13.9565 165.336 15.2686 165.251 16.6374 165.265C18.8643 167.504 20.9353 169.899 22.8927 172.387C22.0062 172.259 21.0771 172.33 20.2261 172.579C20.1622 172.6 20.1764 172.685 20.2473 172.678C21.2119 172.557 22.1339 172.572 23.0913 172.636C23.453 173.098 23.8218 173.56 24.1764 174.029C21.4459 173.865 18.7722 174.128 16.1268 174.811C16.0842 174.818 16.0984 174.882 16.1409 174.875C18.8785 174.334 21.6303 174.164 24.4104 174.334C24.7509 174.782 25.07 175.244 25.4034 175.699C23.7721 175.649 22.1977 175.855 20.609 176.246C20.5452 176.26 20.5665 176.353 20.6303 176.346C22.2615 175.976 23.9211 175.877 25.5948 175.955C27.0204 177.924 28.3892 179.942 29.7012 181.982C29.0062 181.84 28.2757 181.918 27.5948 182.11C27.5594 182.117 27.5665 182.174 27.609 182.167C28.3892 182.074 29.1197 182.174 29.8856 182.274C31.07 184.114 32.2119 185.977 33.3041 187.853C33.3963 188.009 33.6516 187.896 33.5665 187.725L33.5523 187.746Z" fill="white"/>
<path d="M23.2324 177.398C21.9346 177.285 20.6154 177.491 19.3743 177.868C19.3388 177.882 19.3459 177.931 19.3885 177.924C20.665 177.69 21.9275 177.597 23.2182 177.533C23.3033 177.533 23.3175 177.406 23.2253 177.398H23.2324Z" fill="white"/>
<path d="M11.6598 162.181C11.0712 162.117 10.4612 162.188 9.87967 162.287C9.80875 162.301 9.83002 162.401 9.90095 162.394C10.4825 162.33 11.0641 162.351 11.6456 162.337C11.7378 162.337 11.7591 162.195 11.6598 162.188V162.181Z" fill="white"/>
<path d="M51.3644 232.027H21.4141L25.6836 200.675L26.7758 192.637H46.0027L47.0949 200.675L51.3644 232.027Z" fill="#DBDBDB"/>
<path d="M47.091 200.675H25.6797L26.7719 192.637H45.9988L47.091 200.675Z" fill="#C7C7C7"/>
<path d="M48.7468 189.852H24.0234V196.661H48.7468V189.852Z" fill="#DBDBDB"/>
<path d="M2.36719 232.027L56.275 231.85L110.183 231.793L217.998 231.672L325.814 231.786L379.722 231.85L433.63 232.027L379.722 232.198L325.814 232.262L217.998 232.383L110.183 232.262L56.275 232.198L2.36719 232.027Z" fill="#263238"/>
<path d="M219.416 285C331.73 285 422.778 275.002 422.778 262.668C422.778 250.334 331.73 240.336 219.416 240.336C107.103 240.336 16.0547 250.334 16.0547 262.668C16.0547 275.002 107.103 285 219.416 285Z" fill="#EBEBEB"/>
<path d="M172.076 258.967C170.424 259.529 123.041 259.692 121.225 258.555C120.537 258.129 120.112 251.213 119.828 242.84C119.764 241.035 119.715 239.166 119.672 237.268L115.828 211.937L147.502 211.73L150.495 237.062L150.374 242.634C150.374 242.634 168.544 250.701 170.395 252.166C172.239 253.63 173.722 258.392 172.069 258.953L172.076 258.967Z" fill="#EB9481"/>
<path d="M172.077 258.966C170.424 259.527 123.041 259.691 121.226 258.553C120.389 258.027 119.935 247.928 119.68 237.273L150.502 237.074L150.382 242.647C150.382 242.647 168.552 250.714 170.403 252.178C172.247 253.642 173.729 258.404 172.077 258.966Z" fill="white"/>
<path d="M172.076 258.967C170.424 259.528 123.041 259.692 121.225 258.555C120.537 258.128 120.112 251.212 119.828 242.84L150.381 242.641C150.381 242.641 168.552 250.708 170.403 252.172C172.247 253.636 173.729 258.398 172.076 258.96V258.967Z" fill="#A6A6A6"/>
<path d="M171.382 257.072C163.439 256.901 131.382 256.98 123.517 257.42C123.453 257.42 123.453 257.47 123.517 257.47C131.389 257.811 163.439 257.47 171.382 257.2C171.552 257.2 171.552 257.072 171.382 257.072Z" fill="#263238"/>
<path d="M167.351 250.48C165.464 250.409 163.627 251.312 162.606 252.442C161.62 253.523 160.783 255.051 160.847 256.7C160.847 256.749 160.939 256.749 160.946 256.7C161.386 253.579 164.209 250.836 167.358 250.58C167.422 250.58 167.422 250.48 167.358 250.48H167.351Z" fill="#263238"/>
<path d="M153.461 243.43C150.284 243.395 146.603 244.532 144.631 247.148C144.553 247.247 144.702 247.354 144.794 247.304C147.667 245.812 150.39 244.696 153.518 243.821C153.738 243.757 153.688 243.43 153.461 243.43Z" fill="#263238"/>
<path d="M155.922 244.384C152.745 244.348 149.064 245.485 147.092 248.101C147.014 248.2 147.163 248.307 147.255 248.257C150.121 246.765 152.851 245.649 155.979 244.775C156.199 244.711 156.149 244.384 155.922 244.384Z" fill="#263238"/>
<path d="M158.375 245.337C155.198 245.301 151.517 246.438 149.545 249.054C149.467 249.154 149.616 249.26 149.708 249.21C152.574 247.718 155.304 246.602 158.432 245.728C158.652 245.664 158.602 245.337 158.375 245.337Z" fill="#263238"/>
<path d="M160.836 246.282C157.659 246.247 153.978 247.384 152.006 249.999C151.928 250.099 152.077 250.205 152.169 250.156C155.035 248.663 157.765 247.547 160.893 246.673C161.113 246.609 161.063 246.282 160.836 246.282Z" fill="#263238"/>
<path d="M125.52 249.856C121.953 249.877 121.981 255.435 125.555 255.414C129.123 255.392 129.094 249.834 125.52 249.856Z" fill="#263238"/>
<path d="M156.865 234.915C155.248 233.586 153.227 234.901 152.241 236.287C150.645 238.54 149.546 241.696 149.383 244.447C149.383 244.518 149.432 244.539 149.482 244.539C149.553 244.766 149.823 244.958 150.057 244.795C152.312 243.217 154.922 241.81 156.631 239.585C157.631 238.284 158.397 236.173 156.865 234.915ZM152.986 241.703C151.893 242.506 150.773 243.253 149.709 244.091C150.269 242.499 150.759 240.893 151.482 239.365C151.83 238.633 152.191 237.886 152.638 237.211C153.326 236.159 156.44 233.48 156.766 236.948C156.95 238.86 154.291 240.744 152.986 241.703Z" fill="#263238"/>
<path d="M141.492 245.663C144.265 246.082 147.116 245.279 149.833 244.845C150.116 244.803 150.18 244.476 150.067 244.263C150.109 244.227 150.123 244.177 150.074 244.128C148.052 242.265 145.081 240.751 142.372 240.233C140.698 239.913 138.329 240.375 138.088 242.457C137.861 244.426 139.875 245.414 141.492 245.656V245.663ZM139.563 243.857C137.4 241.135 141.492 240.901 142.719 241.178C143.506 241.363 144.286 241.64 145.038 241.931C146.62 242.535 148.081 243.353 149.591 244.106C148.244 244.234 146.918 244.483 145.577 244.661C143.974 244.874 140.755 245.364 139.563 243.857Z" fill="#263238"/>
<path d="M69.2891 94.8665C69.2891 94.8665 106.076 157.584 107.062 161.983C108.573 168.75 116.601 235.568 116.601 235.568L154.878 234.879C154.878 234.879 148.282 175.964 142.034 156.553C137.53 142.573 105.069 96.2027 105.069 96.2027L69.2962 94.8594L69.2891 94.8665Z" fill="#37474F"/>
<path d="M151.396 229.001C145.899 228.958 126.417 228.738 119.105 229.427C119.048 229.427 119.048 229.527 119.105 229.534C121.623 229.896 145.906 229.335 151.396 229.157C151.502 229.157 151.495 229.008 151.396 229.008V229.001Z" fill="#263238"/>
<path d="M75.5627 100.622C77.9741 104.411 80.5202 108.121 82.9812 111.881C85.4493 115.641 87.9032 119.4 90.3287 123.189C95.1727 130.751 99.8961 138.392 104.527 146.082C106.697 149.686 108.768 153.332 110.265 157.263C111.74 161.158 112.747 165.216 113.492 169.303C114.244 173.418 114.733 177.576 115.201 181.734C115.697 186.162 116.187 190.583 116.683 195.011C117.69 204.066 118.697 213.121 119.712 222.176C119.832 223.285 119.96 224.401 120.066 225.51C120.08 225.673 119.79 225.702 119.768 225.538C118.641 216.54 117.705 207.52 116.683 198.508C116.173 194.023 115.662 189.538 115.158 185.053C114.683 180.881 114.236 176.709 113.591 172.558C112.96 168.485 112.13 164.427 110.896 160.482C109.605 156.36 107.768 152.493 105.605 148.748C101.173 141.079 96.4776 133.545 91.7826 126.025C87.045 118.441 82.2719 110.886 77.3145 103.437C76.7046 102.52 76.0876 101.603 75.4493 100.7C75.3996 100.629 75.5202 100.565 75.5698 100.636L75.5627 100.622Z" fill="#263238"/>
<path d="M81.3457 262.672C79.601 262.565 34.5372 244.27 33.2819 242.536C33.2393 242.479 33.218 242.365 33.2109 242.202C33.218 240.652 36.3386 235.215 38.9485 228.079C39.1116 227.624 40.2748 225.506 41.8918 222.649C46.3315 214.809 54.1826 201.383 54.1826 201.383L83.6365 213.11L69.5372 234.263L67.3457 239.38C67.3457 239.38 81.1684 253.695 82.3386 255.749C83.5017 257.796 83.0904 262.771 81.3528 262.672H81.3457Z" fill="#EB9481"/>
<path d="M81.3457 262.671C79.601 262.565 34.5372 244.27 33.2819 242.535C33.2393 242.479 33.218 242.365 33.2109 242.201C33.218 240.652 36.3386 235.215 38.9485 228.079C39.1116 227.624 40.2748 225.506 41.8918 222.648L69.5372 234.255L67.3457 239.373C67.3457 239.373 81.1684 253.687 82.3386 255.741C83.5017 257.788 83.0904 262.764 81.3528 262.664L81.3457 262.671Z" fill="white"/>
<path d="M81.3438 262.664C79.5992 262.564 34.5424 244.262 33.2871 242.528C32.8119 241.874 34.8261 235.705 38.9538 228.078L67.3438 239.379C67.3438 239.379 81.1665 253.687 82.3368 255.741C83.4999 257.788 83.0885 262.763 81.3438 262.664Z" fill="#A6A6A6"/>
<path d="M81.4127 260.652C74.1148 257.51 44.3701 245.527 36.9162 242.982C36.8524 242.961 36.8382 243.004 36.8949 243.032C44.0651 246.302 73.902 258.043 81.363 260.78C81.519 260.837 81.5687 260.723 81.4127 260.659V260.652Z" fill="#263238"/>
<path d="M80.1368 253.027C78.4134 252.252 76.378 252.401 75.0021 253.062C73.6829 253.695 72.3354 254.789 71.7751 256.346C71.761 256.389 71.839 256.424 71.8673 256.382C73.4418 253.659 77.0872 252.174 80.1014 253.119C80.1652 253.14 80.1936 253.055 80.1368 253.027Z" fill="#263238"/>
<path d="M69.9029 241.262C66.9667 240.039 63.1299 239.705 60.3284 241.39C60.2221 241.454 60.3142 241.61 60.4206 241.596C63.6405 241.29 66.5838 241.283 69.8107 241.646C70.0377 241.674 70.1157 241.347 69.9029 241.262Z" fill="#263238"/>
<path d="M71.8248 243.069C68.8886 241.84 65.0517 241.513 62.2503 243.197C62.1439 243.261 62.2361 243.417 62.3425 243.403C65.5624 243.098 68.5056 243.09 71.7326 243.453C71.9595 243.481 72.0375 243.154 71.8248 243.069Z" fill="#263238"/>
<path d="M73.7545 244.875C70.8183 243.653 66.9814 243.319 64.18 245.003C64.0736 245.067 64.1658 245.223 64.2722 245.209C67.4921 244.904 70.4353 244.896 73.6623 245.259C73.8892 245.287 73.9672 244.96 73.7545 244.875Z" fill="#263238"/>
<path d="M75.6763 246.679C72.7402 245.449 68.9033 245.122 66.1019 246.806C65.9955 246.87 66.0877 247.027 66.1941 247.013C69.4139 246.707 72.3572 246.7 75.5841 247.062C75.8111 247.091 75.8891 246.764 75.6763 246.679Z" fill="#263238"/>
<path d="M41.5959 236.715C38.2838 235.393 36.2271 240.553 39.5462 241.875C42.8583 243.197 44.915 238.037 41.5959 236.715Z" fill="#263238"/>
<path d="M76.248 234.655C75.248 232.814 72.8863 233.269 71.4466 234.193C69.1203 235.678 66.9289 238.194 65.7445 240.682C65.7161 240.746 65.7516 240.788 65.8012 240.803C65.7799 241.037 65.9572 241.321 66.2338 241.257C68.9147 240.646 71.865 240.319 74.2764 238.905C75.6877 238.073 77.1913 236.403 76.248 234.662V234.655ZM70.1133 239.488C68.8012 239.822 67.4821 240.092 66.1771 240.469C67.2906 239.203 68.3473 237.903 69.5955 236.751C70.1913 236.204 70.8083 235.65 71.4679 235.188C72.4962 234.47 76.3828 233.162 75.3899 236.495C74.8438 238.336 71.6735 239.083 70.1062 239.481L70.1133 239.488Z" fill="#263238"/>
<path d="M57.9751 238.833C60.3865 240.262 63.3297 240.589 66.0106 241.214C66.2872 241.278 66.4716 241.001 66.4503 240.767C66.4999 240.752 66.5354 240.71 66.507 240.646C65.3297 238.158 63.1453 235.635 60.8191 234.142C59.3865 233.218 57.0177 232.756 56.0177 234.59C55.0673 236.331 56.5638 238.002 57.9751 238.833ZM56.8687 236.431C55.8829 233.09 59.7694 234.412 60.7978 235.137C61.4574 235.599 62.0744 236.154 62.6702 236.708C63.9113 237.86 64.9609 239.167 66.0744 240.433C64.7765 240.049 63.4574 239.779 62.1453 239.437C60.585 239.032 57.4148 238.272 56.8758 236.431H56.8687Z" fill="#263238"/>
<path d="M71.8154 233.075L38.8438 219.734C38.8438 219.734 79.7232 159.504 80.0211 155.019C80.2906 151.046 62.3331 116.489 61.6239 106.418C60.8579 95.5503 66.0849 87.1349 71.8225 81.918L105.837 96.4032C105.837 96.4032 102.248 102.16 96.5955 105.359C96.5955 105.359 114.035 145.303 113.049 157.585C112.057 169.931 71.8154 233.075 71.8154 233.075Z" fill="#37474F"/>
<path d="M73.2771 226.791C68.5111 224.737 69.9083 225.256 65.114 223.259C62.7664 222.278 47.3622 215.86 45.0147 215.334C44.965 215.319 44.9296 215.405 44.9721 215.433C47.0218 216.691 62.5395 222.839 64.9083 223.777C69.7381 225.682 68.3693 225.085 73.2203 226.94C73.3125 226.976 73.3693 226.841 73.2771 226.798V226.791Z" fill="#263238"/>
<path d="M102.191 104.631C98.6445 105.391 95.1694 106.649 91.8289 108C91.7013 108.05 91.758 108.249 91.8999 108.206C95.375 107.19 98.914 106.237 102.325 105.036C102.595 104.944 102.46 104.574 102.191 104.631Z" fill="#263238"/>
<path d="M98.1551 103.232C97.8218 103.815 97.5381 104.433 97.2827 105.058C97.0842 105.542 96.8359 106.061 96.8359 106.587C96.8359 106.686 96.9707 106.715 97.0345 106.651C97.4317 106.26 97.6374 105.691 97.8856 105.208C98.1764 104.646 98.4742 104.085 98.7508 103.516C98.9352 103.139 98.3537 102.869 98.148 103.225L98.1551 103.232Z" fill="#263238"/>
<path d="M98.5685 100.026C98.7742 99.5005 98.987 98.9816 99.2068 98.4557C99.4338 97.9155 99.6962 97.3896 99.8877 96.8352C99.916 96.7499 100.058 96.8067 100.022 96.892C99.8167 97.418 99.682 97.9795 99.5118 98.5197C99.3416 99.0598 99.1714 99.6 98.987 100.14C98.6536 101.142 98.2494 102.137 97.8167 103.104C98.3699 103.097 98.9444 103.076 99.448 102.82C99.9941 102.543 100.327 101.96 100.597 101.434C100.895 100.844 101.171 100.247 101.483 99.664C101.824 99.0172 102.2 98.3846 102.427 97.6881C102.455 97.6028 102.59 97.6596 102.561 97.7449C102.051 99.1807 101.547 100.623 100.746 101.946C100.434 102.464 100.178 103.012 99.604 103.211C98.987 103.431 98.3061 103.388 97.6607 103.339C97.5827 103.36 97.4763 103.31 97.5047 103.211C97.8097 102.137 98.1501 101.05 98.5685 100.012V100.026Z" fill="#263238"/>
<path d="M97.1178 106.666C98.3234 109.232 99.3873 111.791 100.522 114.349C101.628 116.851 102.657 119.382 103.664 121.919C105.692 127.058 107.508 132.289 109.104 137.577C109.891 140.193 110.621 142.83 111.274 145.481C111.933 148.139 112.572 150.826 112.848 153.562C113.125 156.306 112.926 159.013 112.167 161.665C111.394 164.351 110.373 166.704 109.167 169.22C108.43 170.755 108.174 170.549 108.529 169.774C109.543 167.571 112.203 160.897 112.011 155.289C111.919 152.581 111.366 149.916 110.756 147.286C110.132 144.599 109.43 141.934 108.664 139.29C107.153 134.073 105.359 128.963 103.515 123.859C102.479 121.002 101.373 118.173 100.323 115.316C99.2667 112.445 98.1745 109.857 97.0043 106.716C96.9759 106.631 97.0965 106.588 97.1319 106.666H97.1178Z" fill="#263238"/>
<path d="M72.0916 98.1792C72.6802 97.9589 73.5029 98.3214 74.1058 98.4209C74.8788 98.5488 75.659 98.627 76.4391 98.6554C77.2122 98.6839 77.9852 98.6554 78.7583 98.5773C79.5242 98.5062 80.3114 98.4067 80.9781 97.9873C82.1058 97.2837 83.0419 96.047 83.8079 94.9737C84.6448 93.801 85.5171 92.4505 86.0136 91.093C86.0419 91.0077 86.1625 91.0645 86.1412 91.1498C85.893 91.9388 85.7086 92.7419 85.3895 93.5167C85.0916 94.2416 84.7086 94.9382 84.3044 95.6134C83.5455 96.8643 82.6732 98.2077 81.3682 98.954C79.9994 99.7358 78.2405 99.686 76.7157 99.6008C75.8363 99.551 74.9568 99.4302 74.0916 99.2525C73.4675 99.1174 72.4178 99.0179 72.0207 98.4706C71.9497 98.3711 71.9852 98.2219 72.1058 98.1792H72.0916Z" fill="#263238"/>
<path d="M48.2548 213.435C53.6733 205.219 58.9924 196.931 64.2123 188.587C69.4463 180.221 74.5882 171.792 79.6591 163.319C80.8719 161.294 82.269 159.268 83.0492 157.022C83.9002 154.584 83.418 152.217 82.6449 149.829C81.2336 145.451 79.4818 141.193 77.5811 137.007C75.6804 132.807 73.6307 128.677 71.6166 124.533C69.6166 120.425 67.496 116.296 65.9783 111.974C64.5314 107.845 63.9783 103.566 65.0917 99.2872C66.191 95.0368 68.574 91.2272 71.0634 87.6663C71.7229 86.7281 72.3896 85.797 73.0492 84.8588C73.0988 84.7877 73.2052 84.873 73.1556 84.9441C70.4109 88.6542 67.7371 92.5847 66.1272 96.9417C65.3329 99.0953 64.8151 101.363 64.7655 103.658C64.7158 105.99 65.1485 108.307 65.8364 110.531C67.1697 114.853 69.2761 118.947 71.2407 123.005C73.2478 127.156 75.3045 131.278 77.2407 135.465C79.1839 139.672 81.0066 143.951 82.5031 148.344C83.1697 150.298 83.9144 152.345 83.8648 154.442C83.8151 156.738 82.7229 158.806 81.5882 160.739C76.6591 169.169 71.5385 177.485 66.3612 185.758C61.1627 194.06 55.8577 202.305 50.4676 210.485C49.7868 211.516 49.1059 212.547 48.4251 213.577C48.34 213.705 48.1556 213.556 48.2407 213.428L48.2548 213.435Z" fill="#263238"/>
<path d="M107.722 58.0925C110.793 64.8447 126.297 74.1485 133.559 75.1507C138.786 75.8685 154.651 76.1173 160.091 75.2857C166.467 74.312 161.595 57.069 157.829 57.5096C147.474 58.725 138.68 60.0755 135.921 60.0755C132.545 60.0755 114.283 54.1975 112.077 53.373C106.694 51.3474 105.978 54.2686 107.722 58.0925Z" fill="#EB9481"/>
<path d="M107.823 59.8826C111.71 65.6469 124.632 75.0715 124.632 75.0715L126.426 71.0913L132.362 57.9351C132.362 57.9351 120.497 54.1823 112.688 52.5121C111.632 52.2846 110.703 52.1496 109.894 52.114C104.908 51.8439 104.476 54.9357 107.83 59.8897L107.823 59.8826Z" fill="url(#paint0_linear_1314_39419)"/>
<path d="M107.823 59.8819C111.71 65.6462 124.632 75.0708 124.632 75.0708L126.426 71.0906C121.61 65.4827 114.171 56.9891 109.894 52.1062C104.908 51.8361 104.476 54.9279 107.83 59.8819H107.823Z" fill="#263238"/>
<path d="M122.299 72.4065C123.285 69.9899 127.668 60.2312 128.76 58.1842C128.838 58.0421 128.945 58.0563 128.881 58.2127C126.101 65.5264 123.477 70.1179 122.392 72.4421C122.363 72.4989 122.271 72.4705 122.292 72.4065H122.299Z" fill="#263238"/>
<path d="M155.937 57.6994C162.242 56.8678 170.036 55.4534 176.632 58.2609C177.93 58.8082 178.398 59.782 178.398 59.782C181.376 60.9902 181.703 62.76 181.703 62.76C184.135 64.7359 184.22 66.5981 184.22 66.5981C184.22 66.5981 187.703 68.0552 187.178 70.3083C186.596 72.8386 181.816 70.3083 178.334 70.5144C170.362 71.0048 159.164 73.9403 156.88 74.317L155.93 57.7065L155.937 57.6994Z" fill="#EB9481"/>
<path d="M169.616 65.1493C171.963 65.0498 174.268 64.8934 176.623 65.1138C179.204 65.3554 181.644 66.0235 184.14 66.6419C184.218 66.6632 184.254 66.5566 184.176 66.5211C179.821 64.6873 174.24 64.204 169.609 65.0427C169.495 65.064 169.495 65.1564 169.609 65.1493H169.616Z" fill="#263238"/>
<path d="M168.628 60.3635C170.919 60.3919 174.947 60.4772 181.685 62.8298C181.706 62.8369 181.727 62.8014 181.706 62.7943C177.536 60.6833 173.259 59.9299 168.635 60.2569C168.493 60.264 168.479 60.3635 168.635 60.3635H168.628Z" fill="#263238"/>
<path d="M168.134 57.7913C172.028 57.9903 174.461 58.6158 178.376 59.7956C178.397 59.7956 178.418 59.7672 178.39 59.753C174.078 57.9406 172.312 57.7771 168.12 57.6562C167.978 57.6562 167.978 57.7842 168.134 57.7913Z" fill="#263238"/>
<path d="M168.769 71.7148C167.755 72.1911 167.996 72.7241 169.94 73.179C171.897 73.641 179.925 73.7618 179.642 76.5693C179.365 79.391 168.003 79.0285 164.833 78.0335C161.663 77.0455 156.883 74.3091 156.883 74.3091C159.11 73.9324 164.415 72.5038 168.769 71.7148Z" fill="#EB9481"/>
<path d="M116.158 68.8578C116.108 70.0732 115.988 71.3099 115.818 72.5324C115.832 72.4898 115.853 72.4471 115.867 72.4045C116.101 71.7648 116.335 71.1109 116.619 70.4925C116.633 70.457 116.69 70.4712 116.683 70.5067C116.555 71.1748 116.321 71.8501 116.066 72.4826C115.945 72.7883 115.818 73.0868 115.69 73.3853C115.605 73.9326 115.506 74.4728 115.392 75.0058C115.179 76.0222 114.222 80.3436 114.009 81.0757C113.967 81.2321 113.782 81.1965 113.789 81.026C113.839 80.2299 114.647 75.7237 114.811 74.7073C115.123 72.7527 115.555 70.7555 116.073 68.8436C116.087 68.8009 116.151 68.8222 116.151 68.8649L116.158 68.8578Z" fill="#263238"/>
<path d="M108.766 101.17C106.872 102.151 104.433 103.665 93.4397 101.49C92.7518 101.348 92.0638 101.184 91.3688 100.978C81.0638 97.872 68.695 85.7251 68 84.8722C68 84.8722 84.3688 58.2685 105.312 49.9029C107.901 48.8723 112.184 50.8624 114.56 53.3429C115.404 54.2314 117.248 60.7561 116.539 66.0442C115.83 71.3251 110.667 100.203 108.759 101.17H108.766Z" fill="url(#paint1_linear_1314_39419)"/>
<path d="M107.311 65.8047C107.367 66.3733 107.325 66.9348 107.254 67.4892C107.169 68.0436 107.063 68.5909 106.85 69.1239C106.786 68.5553 106.836 67.9938 106.906 67.4394C106.992 66.885 107.098 66.3378 107.311 65.8047Z" fill="white"/>
<path d="M100.162 83.9219C100.219 84.4905 100.176 85.052 100.106 85.6064C100.02 86.1608 99.9141 86.708 99.7013 87.2411C99.6375 86.6725 99.6871 86.111 99.7581 85.5566C99.8432 85.0022 99.9495 84.4549 100.162 83.9219Z" fill="white"/>
<path d="M88.0295 70.2305C88.0862 70.7991 88.0437 71.3606 87.9728 71.915C87.8877 72.4694 87.7813 73.0166 87.5685 73.5497C87.5047 72.9811 87.5543 72.4196 87.6252 71.8652C87.7103 71.3108 87.8167 70.7635 88.0295 70.2305Z" fill="white"/>
<path d="M111.983 83.0039C112.039 83.5725 111.997 84.134 111.926 84.6884C111.841 85.2428 111.734 85.7901 111.522 86.3231C111.458 85.7545 111.507 85.193 111.578 84.6387C111.663 84.0843 111.77 83.537 111.983 83.0039Z" fill="white"/>
<path d="M96.3984 67.8779C96.9658 67.8211 97.5261 67.8637 98.0793 67.9348C98.6325 68.0201 99.1786 68.1267 99.7105 68.3399C99.1431 68.4039 98.5828 68.3541 98.0296 68.283C97.4765 68.1978 96.9304 68.0911 96.3984 67.8779Z" fill="white"/>
<path d="M82.625 80.9717C83.1924 80.9148 83.7527 80.9574 84.3059 81.0285C84.859 81.1138 85.4051 81.2204 85.9371 81.4337C85.3697 81.4976 84.8094 81.4479 84.2562 81.3768C83.703 81.2915 83.1569 81.1849 82.625 80.9717Z" fill="white"/>
<path d="M98.8281 95.1357C99.3955 95.0789 99.9558 95.1215 100.509 95.1926C101.062 95.2779 101.608 95.3845 102.14 95.5977C101.573 95.6617 101.013 95.6119 100.459 95.5409C99.9061 95.4556 99.36 95.349 98.8281 95.1357Z" fill="white"/>
<path d="M78.3828 89.9912C78.9502 89.9343 79.5105 89.977 80.0637 90.0481C80.6169 90.1333 81.163 90.24 81.6949 90.4532C81.1275 90.5172 80.5672 90.4674 80.014 90.3963C79.4608 90.311 78.9147 90.2044 78.3828 89.9912Z" fill="white"/>
<path d="M107.203 53.0732C107.771 53.0164 108.331 53.059 108.884 53.1301C109.437 53.2154 109.983 53.322 110.515 53.5352C109.948 53.5992 109.388 53.5494 108.834 53.4784C108.281 53.3931 107.735 53.2865 107.203 53.0732Z" fill="white"/>
<path d="M103.198 57.6094C102.836 58.0572 102.411 58.4196 101.971 58.7608C101.524 59.0949 101.063 59.4005 100.531 59.6279C100.893 59.1801 101.318 58.8177 101.758 58.4765C102.205 58.1424 102.673 57.8368 103.198 57.6094Z" fill="white"/>
<path d="M81.3542 70.4883C80.9925 70.9361 80.5669 71.2985 80.1272 71.6397C79.6804 71.9738 79.2194 72.2794 78.6875 72.5068C79.0492 72.0591 79.4747 71.6966 79.9145 71.3554C80.3613 71.0285 80.8293 70.7157 81.3542 70.4883Z" fill="white"/>
<path d="M108.628 76.3086C108.266 76.7564 107.84 77.1189 107.401 77.46C106.954 77.7941 106.493 78.0997 105.961 78.3271C106.323 77.8794 106.748 77.5169 107.188 77.1757C107.635 76.8488 108.103 76.536 108.628 76.3086Z" fill="white"/>
<path d="M90.9714 87.4531C90.6096 87.9009 90.1841 88.2634 89.7444 88.6046C89.2976 88.9386 88.8366 89.2442 88.3047 89.4717C88.6664 89.0239 89.0919 88.6614 89.5316 88.3203C89.9784 87.9862 90.4465 87.6806 90.9714 87.4531Z" fill="white"/>
<path d="M115.393 61.0781C115.032 61.5259 114.606 61.8884 114.166 62.2296C113.719 62.5636 113.258 62.8692 112.727 63.0967C113.088 62.6489 113.514 62.2864 113.954 61.9453C114.4 61.6183 114.868 61.3056 115.393 61.0781Z" fill="white"/>
<path d="M115.014 73.9967C114.567 73.6342 114.206 73.2077 113.865 72.7671C113.532 72.3193 113.227 71.8573 113 71.3242C113.447 71.6867 113.809 72.1132 114.149 72.5538C114.475 73.0016 114.787 73.4707 115.014 73.9967Z" fill="white"/>
<path d="M75.6626 82.8912C75.2158 82.5287 74.8541 82.1023 74.5137 81.6616C74.1804 81.2138 73.8754 80.7518 73.6484 80.2188C74.0952 80.5812 74.457 81.0077 74.7974 81.4484C75.1236 81.8961 75.4357 82.3652 75.6626 82.8912Z" fill="white"/>
<path d="M110.241 93.481C109.794 93.1186 109.432 92.6921 109.092 92.2514C108.758 91.8036 108.454 91.3417 108.227 90.8086C108.673 91.1711 109.035 91.5975 109.376 92.0382C109.702 92.486 110.014 92.9551 110.241 93.481Z" fill="white"/>
<path d="M92.9126 63.3092C92.4658 62.9467 92.1041 62.5202 91.7637 62.0796C91.4304 61.6318 91.1254 61.1698 90.8984 60.6367C91.3452 60.9992 91.7069 61.4257 92.0474 61.8663C92.3736 62.3141 92.6857 62.7832 92.9126 63.3092Z" fill="white"/>
<path d="M93.2173 99.5084C92.7705 99.1459 92.4088 98.7194 92.0684 98.2788C91.735 97.831 91.4301 97.369 91.2031 96.8359C91.6499 97.1984 92.0116 97.6249 92.3521 98.0655C92.6783 98.5133 92.9904 98.9824 93.2173 99.5084Z" fill="white"/>
<path d="M96.1626 78.149C95.7158 77.7865 95.3541 77.3601 95.0137 76.9194C94.6804 76.4716 94.3754 76.0096 94.1484 75.4766C94.5952 75.839 94.9569 76.2655 95.2974 76.7062C95.6236 77.1539 95.9357 77.623 96.1626 78.149Z" fill="white"/>
<path d="M110.715 60.4229C108.048 59.9253 105.53 54.3885 105.211 50.6641C105.19 50.4083 106.459 48.3826 107.885 45.8452C108.743 44.3029 109.665 42.5615 110.388 40.9196C110.537 40.5785 111.41 41.7086 111.41 41.7086L113.31 43.1656L119.587 47.9917C119.587 47.9917 117.048 50.9982 115.8 53.8768C115.701 54.1184 115.623 54.353 115.573 54.5875C115.566 54.6231 115.559 54.6586 115.537 54.7084C115.183 56.0872 113.275 60.9133 110.701 60.43L110.715 60.4229Z" fill="#EB9481"/>
<path d="M115.59 54.5869C115.59 54.5869 115.576 54.658 115.555 54.7078C115.214 54.6083 114.852 54.4732 114.469 54.2955C107.597 51.0687 110.626 41.8359 110.626 41.8359L113.313 43.1722L119.59 47.9982C119.59 47.9982 117.051 51.0047 115.803 53.8833C115.704 54.125 115.626 54.3595 115.576 54.5941L115.59 54.5869Z" fill="#263238"/>
<path d="M126.805 28.3242C126.805 28.3242 129.947 30.3215 129.968 33.8752C129.989 37.429 128.578 40.9046 128.251 41.0255C127.925 41.1463 126.812 28.3242 126.812 28.3242H126.805Z" fill="#263238"/>
<path d="M111.217 30.1677C109.331 33.9063 109.423 45.6622 111.785 48.6901C115.203 53.0826 121.785 54.5965 125.764 50.2537C129.615 46.046 129.225 30.7221 126.494 27.8648C122.48 23.6572 114.012 24.6522 111.225 30.1677H111.217Z" fill="#EB9481"/>
<path d="M121.229 39.5859C121.229 39.5859 121.165 39.6286 121.172 39.657C121.215 40.4602 121.13 41.3842 120.414 41.6685C120.392 41.6756 120.392 41.7182 120.421 41.7111C121.3 41.569 121.399 40.3393 121.229 39.5859Z" fill="#263238"/>
<path d="M120.499 38.7632C119.209 38.6921 119.173 41.2863 120.365 41.3432C121.542 41.4072 121.577 38.82 120.499 38.7632Z" fill="#263238"/>
<path d="M125.607 39.5586C125.607 39.5586 125.671 39.5941 125.671 39.6297C125.635 40.4328 125.72 41.3568 126.444 41.634C126.465 41.6411 126.465 41.6838 126.437 41.6767C125.557 41.5416 125.444 40.312 125.614 39.5586H125.607Z" fill="#263238"/>
<path d="M126.34 38.7283C127.631 38.6501 127.687 41.2373 126.496 41.3084C125.319 41.3794 125.262 38.7923 126.34 38.7283Z" fill="#263238"/>
<path d="M119.69 36.7959C120.045 36.7106 120.357 36.5756 120.697 36.4619C121.08 36.3268 121.399 36.2629 121.655 35.9217C121.789 35.7369 121.74 35.41 121.577 35.2607C121.194 34.9124 120.683 34.9551 120.215 35.0972C119.704 35.2536 119.35 35.5024 119.052 35.943C118.761 36.3695 119.222 36.9097 119.683 36.803L119.69 36.7959Z" fill="#263238"/>
<path d="M127.227 37.9459C126.872 37.882 126.553 37.7611 126.206 37.6616C125.816 37.5479 125.489 37.4982 125.22 37.1712C125.071 36.9935 125.106 36.6666 125.262 36.5031C125.624 36.1335 126.135 36.1548 126.617 36.2685C127.135 36.3965 127.497 36.6239 127.823 37.0504C128.135 37.4626 127.709 38.0241 127.234 37.9388L127.227 37.9459Z" fill="#263238"/>
<path d="M119.409 47.1793C119.6 47.3712 119.785 47.6341 120.076 47.6626C120.352 47.691 120.678 47.5702 120.941 47.4778C120.969 47.4707 120.99 47.4991 120.976 47.5204C120.763 47.826 120.324 48.0108 119.955 47.9398C119.593 47.8687 119.423 47.556 119.338 47.2219C119.324 47.1722 119.388 47.1579 119.416 47.1864L119.409 47.1793Z" fill="#263238"/>
<path d="M124.051 43.7535C124.051 43.7535 124.087 44.9547 124.023 45.5091C124.023 45.5588 122.448 45.2532 120.76 45.6228C120.505 45.6796 120.533 45.4735 120.824 45.3385C121.413 45.0684 122.15 44.8125 123.597 44.9689C123.654 44.8196 123.512 43.1209 123.597 43.128C123.902 43.1351 124.484 43.4052 124.831 43.5545C124.831 41.0526 124.434 38.5721 124.469 36.0844C124.469 35.9991 124.604 35.9849 124.618 36.0631C125.221 38.636 125.278 41.5146 125.349 44.0947C125.363 44.4145 124.264 43.8743 124.051 43.7535Z" fill="#263238"/>
<path d="M122.457 45.0852C122.457 45.0852 121.897 46.4925 120.968 46.8692C119.897 47.3028 119.528 46.329 120.62 45.469C121.195 45.0212 122.457 45.0852 122.457 45.0852Z" fill="#263238"/>
<path d="M121.343 46.6502C121.223 46.7426 121.102 46.8208 120.968 46.8706C119.982 47.2686 119.592 46.4796 120.386 45.6836C120.925 45.7262 121.514 45.9253 121.343 46.6502Z" fill="#FF99BA"/>
<path d="M110.678 40.2305C111.975 40.6286 113.465 36.7194 113.89 35.2197C114.259 33.8977 114.692 29.6971 114.756 29.4057C114.819 29.1214 120.408 33.123 123.678 32.1634C126.947 31.2039 129.131 28.2685 129.174 26.8967C129.217 25.5249 125.16 22.0422 121.649 21.8645C118.139 21.6868 113.387 26.1575 113.387 26.1575C113.387 26.1575 115.004 24.2243 114.947 24.0679C114.89 23.9115 112.621 24.8213 112.202 26.4347C112.202 26.4347 112.649 24.4019 112.479 24.3664C112.309 24.3309 110.543 26.0722 110.94 27.3871C110.94 27.3871 108.897 29.1569 108.713 31.0973C108.522 33.0377 109.153 39.7543 110.678 40.2234V40.2305Z" fill="#263238"/>
<path d="M125.996 31.4808C125.003 31.9357 124.003 32.4403 122.911 32.5896C121.726 32.746 120.492 32.4475 119.386 32.021C118.258 31.5874 117.23 30.9549 116.294 30.1872C115.478 29.512 114.748 28.7018 113.875 28.0976C113.655 27.9483 113.407 28.2611 113.535 28.4672C114.861 30.4573 117.209 32.1276 119.464 32.8455C121.84 33.5989 124.081 33.0729 126.003 31.5093C126.017 31.5021 126.003 31.4737 125.989 31.4808H125.996Z" fill="#263238"/>
<path d="M112.033 39.8841C112.033 39.8841 110.019 35.7901 108.203 36.4511C106.388 37.1121 107.508 42.7769 109.36 43.8075C111.211 44.8452 112.203 43.1465 112.203 43.1465L112.033 39.8841Z" fill="#EB9481"/>
<path d="M108.566 38.0657C108.566 38.0657 108.524 38.1012 108.545 38.1155C109.836 38.8902 110.368 40.2833 110.673 41.6835C110.339 41.1077 109.829 40.7453 109.07 41.1291C109.027 41.1504 109.056 41.2144 109.098 41.2073C109.68 41.1717 110.077 41.3352 110.382 41.8469C110.602 42.2094 110.722 42.643 110.864 43.041C110.907 43.1761 111.141 43.1405 111.119 42.9913C111.119 42.977 111.119 42.9699 111.119 42.9557C111.424 41.2001 110.439 38.5277 108.58 38.0586L108.566 38.0657Z" fill="#263238"/>
<path d="M98.7345 58.1557C97.3444 66.2086 106.025 93.3382 111.607 98.4059C119.912 105.94 135.266 110.894 140.834 112.507C143.259 113.211 149.969 96.1102 147.515 94.9801C142.259 92.5706 125.933 87.4673 124.394 86.1524C122.855 84.8446 113.472 71.3118 109.302 63.5148C103.706 53.0453 99.4295 54.083 98.7274 58.1557H98.7345Z" fill="#EB9481"/>
<path d="M143.382 93.4798C143.382 93.4798 150.623 95.3277 155.304 96.7635C157.914 97.5595 162.268 99.3364 163.921 100.801C166.389 102.997 175.311 113.743 172.758 115.968C170.446 117.98 163.949 107.766 163.949 107.766C163.949 107.766 171.41 117.489 168.183 119.401C164.956 121.313 159.148 108.797 159.148 108.797C159.148 108.797 166.595 118.96 162.949 120.403C160.197 121.491 154.297 110.453 154.297 110.453C154.297 110.453 160.637 119.231 157.857 120.474C154.786 121.846 148.701 112.002 148.701 112.002C141.098 113.971 136.68 111.789 133.715 109.863C132.999 109.394 143.389 93.4727 143.389 93.4727L143.382 93.4798Z" fill="#EB9481"/>
<path d="M161.58 104.242C162.494 105.351 163.431 106.474 164.253 107.661C165.069 108.848 165.842 110.07 166.544 111.329C168.267 114.42 168.863 116.624 168.814 116.489C167.594 113.361 164.736 109.061 163.92 107.874C163.104 106.687 162.353 105.458 161.537 104.271C161.516 104.242 161.558 104.214 161.587 104.242H161.58Z" fill="#263238"/>
<path d="M157.25 107.114C158.825 108.365 162.123 113.021 163.399 116.134C163.456 116.262 163.385 116.255 163.307 116.134C162.307 114.591 158.286 108.621 157.215 107.136C157.201 107.114 157.229 107.093 157.25 107.114Z" fill="#263238"/>
<path d="M153.086 108.912C154.908 110.717 156.433 113.183 157.639 116.034C157.696 116.162 157.589 116.14 157.518 116.019C156.05 113.624 154.916 111.734 153.015 108.969C152.986 108.926 153.05 108.862 153.093 108.905L153.086 108.912Z" fill="#263238"/>
<path d="M106.627 58.7513C100.152 49.5754 96.2799 52.9729 97.5778 62.9377C98.7906 72.2557 102.053 83.3578 102.053 83.3578L118.393 75.4257C118.393 75.4257 110.769 64.6293 106.627 58.7513Z" fill="url(#paint2_linear_1314_39419)"/>
<path d="M110.588 62.3555C110.822 62.8814 110.943 63.4287 111.049 63.976C111.141 64.5233 111.205 65.0848 111.163 65.6534C110.929 65.1274 110.801 64.5872 110.702 64.0329C110.616 63.4856 110.553 62.9241 110.588 62.3555Z" fill="white"/>
<path d="M100.914 67.9447C101.439 67.7101 101.978 67.5893 102.531 67.4827C103.077 67.3903 103.637 67.3263 104.205 67.369C103.68 67.6035 103.141 67.7315 102.588 67.831C102.042 67.9163 101.481 67.9802 100.914 67.9447Z" fill="white"/>
<path d="M101.336 53.6641C101.13 54.1971 100.833 54.6733 100.52 55.1353C100.194 55.5902 99.8467 56.0238 99.4141 56.4005C99.6197 55.8674 99.9176 55.3912 100.23 54.9292C100.556 54.4743 100.903 54.0408 101.336 53.6641Z" fill="white"/>
<path d="M115.125 72.2305C114.919 72.7635 114.622 73.2397 114.31 73.7017C113.983 74.1566 113.636 74.5902 113.203 74.9669C113.409 74.4338 113.707 73.9576 114.019 73.4956C114.345 73.0407 114.692 72.6072 115.125 72.2305Z" fill="white"/>
<path d="M103.816 77.7933C103.285 77.5872 102.809 77.2887 102.348 76.976C101.894 76.649 101.462 76.3008 101.086 75.8672C101.618 76.0733 102.093 76.3718 102.554 76.6846C103.008 77.0115 103.441 77.3598 103.816 77.7933Z" fill="white"/>
<path d="M108.796 61.5078C109.668 62.709 110.569 63.8817 111.462 65.0616C111.235 64.4646 111.037 63.8675 110.859 63.2492C110.852 63.2207 110.895 63.2065 110.902 63.235C111.086 63.7041 111.285 64.1732 111.462 64.6423C111.547 64.8697 111.632 65.0971 111.718 65.3246C111.739 65.3743 111.753 65.4241 111.774 65.4738C112.476 66.3907 113.171 67.3147 113.838 68.2529C114.64 69.3688 115.413 70.5131 116.193 71.6503C116.994 72.8231 117.76 74.202 118.604 75.3463C118.675 75.4458 117.157 76.057 117.015 76.1423C116.874 76.2205 116.774 76.0855 116.923 76.0357C117.065 75.9931 118.271 75.2539 118.285 75.2397C117.505 74.0953 116.604 73.0363 115.788 71.9133C114.98 70.7974 114.164 69.6886 113.377 68.5514C111.781 66.2486 110.313 63.8604 108.732 61.5505C108.71 61.522 108.76 61.4936 108.781 61.522L108.796 61.5078Z" fill="#263238"/>
<path d="M97.9828 69.5267C98.2311 70.01 98.5006 70.4933 98.7204 70.9908C98.8126 71.1969 98.8977 71.4031 98.9899 71.6092C98.614 69.8323 98.2523 68.0625 97.8906 66.2856C97.8906 66.2643 97.919 66.2572 97.9261 66.2785C98.6779 69.1571 99.4296 72.0285 100.125 74.9213C100.791 77.6791 101.586 80.4652 101.969 83.2798C102.196 83.2017 103.465 82.6757 103.501 82.761C103.536 82.8463 101.841 83.6494 101.813 83.5784C100.891 80.8348 100.316 77.7075 99.685 74.8858C99.5076 74.0897 99.3445 73.2937 99.1743 72.4905C98.9899 72.0072 98.7701 71.5452 98.5502 71.0832C98.3162 70.5857 98.1318 70.074 97.9332 69.5622C97.919 69.5338 97.9686 69.5124 97.9828 69.5409V69.5267Z" fill="#263238"/>
<path d="M102.313 80.6133C104.582 79.3268 114.064 74.4084 116.192 73.4844C116.341 73.4204 116.419 73.4986 116.27 73.5839C109.561 77.5926 104.66 79.5543 102.369 80.7057C102.313 80.7341 102.256 80.6559 102.313 80.6204V80.6133Z" fill="#263238"/>
<path d="M362.194 267.474H146.109L177.351 89.8906H393.436L362.194 267.474Z" fill="url(#paint3_linear_1314_39419)"/>
<path d="M251.309 71.4961H180.593L177.352 89.8905H253.032L251.309 71.4961Z" fill="url(#paint4_linear_1314_39419)"/>
<g opacity="0.1">
<path d="M362.194 267.474H146.109L177.351 89.8906H393.436L362.194 267.474Z" fill="black"/>
<path d="M251.309 71.4961H180.593L177.352 89.8905H253.032L251.309 71.4961Z" fill="black"/>
</g>
<path d="M172.956 79C172.68 77.9694 172.616 76.9388 172.602 75.9082C172.609 74.8776 172.672 73.847 172.956 72.8164C173.24 73.847 173.304 74.8776 173.311 75.9082C173.297 76.9388 173.233 77.9694 172.956 79Z" fill="#263238"/>
<path d="M166.679 80.8201C165.92 80.0667 165.353 79.2066 164.828 78.3182C164.324 77.4226 163.863 76.4986 163.594 75.4609C164.353 76.2143 164.92 77.0744 165.445 77.9628C165.948 78.8584 166.409 79.7824 166.679 80.8201Z" fill="#263238"/>
<path d="M162.137 85.5449C161.108 85.2748 160.186 84.8128 159.286 84.3082C158.399 83.7822 157.541 83.2136 156.789 82.4531C157.817 82.7232 158.739 83.1852 159.64 83.6898C160.527 84.2158 161.385 84.7844 162.137 85.5449Z" fill="#263238"/>
<path d="M160.569 91.9062C159.54 92.1834 158.512 92.2473 157.484 92.2615C156.455 92.2544 155.427 92.1905 154.398 91.9062C155.427 91.6219 156.455 91.5579 157.484 91.5508C158.512 91.565 159.54 91.629 160.569 91.9062Z" fill="#263238"/>
<path d="M162.387 98.2031C161.635 98.9636 160.777 99.5322 159.89 100.058C158.997 100.563 158.075 101.025 157.039 101.295C157.791 100.534 158.649 99.9658 159.536 99.4398C160.429 98.9352 161.351 98.4732 162.387 98.2031Z" fill="#263238"/>
<path d="M167.101 102.754C166.831 103.785 166.37 104.708 165.867 105.611C165.342 106.5 164.774 107.36 164.016 108.113C164.285 107.082 164.746 106.158 165.25 105.256C165.774 104.367 166.342 103.507 167.101 102.754Z" fill="#263238"/>
<path d="M173.456 104.324C173.733 105.355 173.797 106.385 173.811 107.416C173.804 108.447 173.74 109.477 173.456 110.508C173.172 109.477 173.109 108.447 173.102 107.416C173.116 106.385 173.18 105.355 173.456 104.324Z" fill="#263238"/>
<path d="M179.742 102.504C180.501 103.257 181.068 104.117 181.593 105.006C182.097 105.901 182.558 106.825 182.827 107.863C182.068 107.11 181.501 106.25 180.976 105.361C180.473 104.466 180.012 103.542 179.742 102.504Z" fill="#263238"/>
<path d="M184.273 97.7773C185.302 98.0474 186.224 98.5094 187.125 99.0141C188.011 99.54 188.869 100.109 189.621 100.869C188.593 100.599 187.671 100.137 186.77 99.6324C185.883 99.1065 185.025 98.5379 184.273 97.7773Z" fill="#263238"/>
<path d="M185.836 91.4101C186.864 91.1329 187.893 91.0689 188.921 91.0547C189.949 91.0618 190.978 91.1258 192.006 91.4101C190.978 91.6944 189.949 91.7583 188.921 91.7654C187.893 91.7512 186.864 91.6873 185.836 91.4101Z" fill="#263238"/>
<path d="M184.023 85.1113C184.775 84.3508 185.633 83.7822 186.52 83.2562C187.414 82.7516 188.335 82.2896 189.371 82.0195C188.619 82.78 187.761 83.3487 186.874 83.8746C185.981 84.3793 185.059 84.8412 184.023 85.1113Z" fill="#263238"/>
<path d="M179.305 80.5701C179.574 79.5395 180.035 78.6155 180.539 77.7128C181.064 76.8244 181.631 75.9643 182.39 75.2109C182.12 76.2415 181.659 77.1655 181.156 78.0682C180.631 78.9566 180.064 79.8167 179.305 80.5701Z" fill="#263238"/>
<path d="M361.876 267.472H145.323L114.578 96.3359H331.131L361.876 267.472Z" fill="url(#paint5_linear_1314_39419)"/>
<path d="M189.617 200.953C194.588 200.953 198.617 196.915 198.617 191.934C198.617 186.952 194.588 182.914 189.617 182.914C184.647 182.914 180.617 186.952 180.617 191.934C180.617 196.915 184.647 200.953 189.617 200.953Z" fill="#263238"/>
<path d="M260.766 200.953C265.736 200.953 269.766 196.915 269.766 191.934C269.766 186.952 265.736 182.914 260.766 182.914C255.795 182.914 251.766 186.952 251.766 191.934C251.766 196.915 255.795 200.953 260.766 200.953Z" fill="#263238"/>
<path d="M238.123 202.391L237.626 201.445C237.584 201.36 232.931 192.746 223.577 192.746C215.045 192.746 212.967 200.855 212.882 201.204L212.626 202.234L210.562 201.737L210.811 200.699C210.832 200.599 213.343 190.613 223.577 190.613C233.811 190.613 239.3 200.052 239.513 200.457L240.009 201.403L238.123 202.391Z" fill="#263238"/>
<path d="M347.508 190.897C347.969 190.798 348.43 190.691 348.891 190.57" stroke="#263238" stroke-miterlimit="10"/>
<path d="M351.604 189.764C362.455 186.09 371.54 177.539 372.391 167.546C374.277 145.512 347.497 133.344 350.263 107.878C352.901 83.5912 378.32 81.8569 388.511 85.2117C399.767 88.9219 395.909 99.7609 385.717 98.3607C368.05 95.937 356.944 76.6897 365.334 54.8552C371.604 38.5433 387.228 32.3881 393.575 30.5117" stroke="#263238" stroke-miterlimit="10"/>
<path d="M394.961 30.1441C395.84 29.9166 396.337 29.8242 396.337 29.8242" stroke="#263238" stroke-miterlimit="10"/>
<path d="M407.583 25.8918C405.775 20.2768 393.661 22.2953 396.023 29.6304C398.385 36.9725 409.392 31.5068 407.583 25.8918Z" fill="#263238"/>
<path d="M389.438 23.6254C389.53 21.1591 392.948 19.2685 397.785 20.1427C402.622 21.0169 407.175 24.2793 407.175 24.2793C407.175 24.2793 402.395 27.2076 397.508 27.7265C392.622 28.2453 389.352 26.0988 389.445 23.6254H389.438Z" fill="#EBEBEB"/>
<path d="M407.168 24.2804C404.658 24.2946 402.154 24.2164 399.643 24.1382C397.14 24.0316 394.629 23.9321 392.133 23.726C394.643 23.7047 397.147 23.7899 399.658 23.8681C402.161 23.9747 404.672 24.0742 407.168 24.2804Z" fill="#263238"/>
<path d="M394.297 21.4453C395.02 21.7723 395.694 22.1845 396.368 22.5896C397.027 23.0232 397.694 23.4497 398.304 23.9614C397.581 23.6344 396.907 23.2222 396.233 22.8171C395.573 22.3835 394.907 21.9571 394.297 21.4453Z" fill="#263238"/>
<path d="M400.873 24.0547C400.235 24.5949 399.547 25.0497 398.859 25.5117C398.157 25.9453 397.455 26.386 396.703 26.7414C397.341 26.2012 398.029 25.7463 398.717 25.2843C399.419 24.8507 400.122 24.4101 400.873 24.0547Z" fill="#263238"/>
<path d="M401.602 22.6602C401.977 22.8236 402.289 23.0653 402.602 23.2998C402.899 23.5557 403.197 23.8116 403.438 24.1456C403.063 23.9822 402.75 23.7405 402.438 23.506C402.141 23.2501 401.843 22.9942 401.602 22.6602Z" fill="#263238"/>
<path d="M394.045 38.2532C395.556 40.2007 399.436 39.7316 402.847 36.192C406.258 32.6524 408.045 27.3359 408.045 27.3359C408.045 27.3359 402.457 27.7624 398.194 30.2074C393.932 32.6524 392.528 36.3057 394.045 38.2603V38.2532Z" fill="#EBEBEB"/>
<path d="M408.043 27.3281C405.994 28.7852 404.015 30.3204 402.022 31.8557C400.051 33.4122 398.079 34.9617 396.164 36.5893C398.214 35.1323 400.192 33.597 402.185 32.0618C404.157 30.5052 406.129 28.9558 408.043 27.3281Z" fill="#263238"/>
<path d="M399.258 37.1737C399.655 36.4843 399.96 35.7522 400.272 35.0272C400.556 34.2881 400.846 33.556 401.038 32.7812C400.641 33.4707 400.336 34.2028 400.024 34.9277C399.74 35.6669 399.449 36.399 399.258 37.1737Z" fill="#263238"/>
<path d="M403.068 31.2077C402.238 31.1438 401.408 31.1793 400.585 31.2077C399.763 31.2646 398.933 31.3143 398.117 31.4707C398.947 31.5347 399.777 31.4991 400.599 31.4707C401.422 31.4138 402.252 31.357 403.068 31.2077Z" fill="#263238"/>
<path d="M404.469 31.9072C404.682 31.559 404.788 31.1823 404.908 30.8056C405.001 30.4218 405.093 30.0379 405.093 29.6328C404.88 29.9811 404.774 30.3578 404.653 30.7345C404.561 31.1183 404.469 31.5021 404.469 31.9072Z" fill="#263238"/>
<path d="M407.59 25.8934C406.476 26.2558 405.278 25.6375 404.916 24.5216C404.554 23.4057 405.171 22.2045 406.285 21.842C407.398 21.4795 408.597 22.0979 408.959 23.2138C409.32 24.3297 408.703 25.5309 407.59 25.8934Z" fill="#455A64"/>
<path d="M408.894 29.9441C407.781 30.3066 406.582 29.6883 406.221 28.5724C405.859 27.4565 406.476 26.2553 407.59 25.8928C408.703 25.5303 409.902 26.1487 410.263 27.2646C410.625 28.3805 410.008 29.5817 408.894 29.9441Z" fill="#455A64"/>
<path d="M176.376 28.136C175.362 37.8662 166.66 44.9312 156.957 43.9148C153.035 43.5026 149.546 41.8323 146.844 39.3446L138 40.6453L142.426 32.9833C141.355 30.3677 140.901 27.4536 141.213 24.4542C142.227 14.7239 150.929 7.659 160.631 8.67539C170.34 9.69177 177.39 18.4128 176.376 28.136Z" fill="white"/>
<path d="M176.378 28.137C176.009 31.371 174.832 34.541 172.811 37.1139C172.35 37.7891 171.747 38.3506 171.208 38.9619C170.591 39.4949 170.023 40.0849 169.342 40.5469C168.052 41.5419 166.598 42.3238 165.08 42.9279C163.569 43.5676 161.945 43.8732 160.321 44.0651C159.506 44.1078 158.683 44.186 157.867 44.1149C157.045 44.0936 156.229 44.0083 155.42 43.859C152.186 43.2691 149.123 41.7552 146.676 39.5305L146.881 39.5945L138.045 40.952L137.406 41.0515L137.732 40.4829L142.13 32.8067L142.108 33.1123C139.967 28.0588 140.449 22.0316 143.201 17.3264C144.569 14.9667 146.484 12.9339 148.74 11.42C150.995 9.89896 153.605 8.94655 156.286 8.58406C158.967 8.22868 161.718 8.47034 164.279 9.32325C166.832 10.1833 169.179 11.6332 171.094 13.5096C174.995 17.2269 176.959 22.8063 176.385 28.137H176.378ZM176.378 28.137C176.917 22.7992 174.917 17.2553 171.009 13.5878C169.073 11.754 166.725 10.361 164.193 9.5578C161.654 8.76175 158.945 8.56984 156.328 8.96787C153.718 9.36589 151.186 10.3467 149.03 11.8607C146.874 13.3817 145.059 15.3647 143.74 17.6391C142.399 19.9136 141.704 22.522 141.498 25.1376C141.335 27.7603 141.761 30.4186 142.74 32.8565L142.803 33.0128L142.718 33.155L138.264 40.8027L137.945 40.3336L146.796 39.0898L146.917 39.0756L147.002 39.1609C149.342 41.3642 152.3 42.8995 155.463 43.5321C156.25 43.6884 157.052 43.795 157.86 43.8235C158.669 43.9088 159.47 43.8519 160.279 43.8235C161.881 43.66 163.491 43.3899 165.002 42.7787C166.513 42.21 167.981 41.4638 169.264 40.4758C169.945 40.028 170.513 39.4452 171.13 38.9121C171.676 38.308 172.271 37.7536 172.74 37.0855C174.768 34.5339 175.967 31.3781 176.357 28.1441L176.378 28.137Z" fill="#263238"/>
<path d="M150.156 34.5481C150.156 33.4891 150.887 32.7286 151.887 32.7286C152.943 32.7286 153.617 33.4891 153.617 34.5481C153.617 35.6072 152.943 36.3677 151.887 36.3677C150.83 36.3677 150.156 35.5716 150.156 34.5481ZM150.887 30.3475L150.475 16.2461H153.291L152.88 30.3475H150.887Z" fill="url(#paint6_linear_1314_39419)"/>
<path d="M156.891 34.5481C156.891 33.4891 157.621 32.7286 158.621 32.7286C159.678 32.7286 160.352 33.4891 160.352 34.5481C160.352 35.6072 159.678 36.3677 158.621 36.3677C157.564 36.3677 156.891 35.5716 156.891 34.5481ZM157.621 30.3475L157.21 16.2461H160.025L159.614 30.3475H157.621Z" fill="url(#paint7_linear_1314_39419)"/>
<path d="M163.641 34.5481C163.641 33.4891 164.371 32.7286 165.371 32.7286C166.428 32.7286 167.102 33.4891 167.102 34.5481C167.102 35.6072 166.428 36.3677 165.371 36.3677C164.314 36.3677 163.641 35.5716 163.641 34.5481ZM164.371 30.3475L163.96 16.2461H166.775L166.364 30.3475H164.371Z" fill="url(#paint8_linear_1314_39419)"/>
</g>
<defs>
<linearGradient id="paint0_linear_1314_39419" x1="105.664" y1="52.0977" x2="136.297" y2="60.2067" gradientUnits="userSpaceOnUse">
<stop stop-color="#FE6FA6"/>
<stop offset="1" stop-color="#D43CFC"/>
</linearGradient>
<linearGradient id="paint1_linear_1314_39419" x1="68" y1="49.625" x2="125.28" y2="61.6186" gradientUnits="userSpaceOnUse">
<stop stop-color="#FE6FA6"/>
<stop offset="1" stop-color="#D43CFC"/>
</linearGradient>
<linearGradient id="paint2_linear_1314_39419" x1="97.3281" y1="53.3906" x2="122.545" y2="57.4285" gradientUnits="userSpaceOnUse">
<stop stop-color="#FE6FA6"/>
<stop offset="1" stop-color="#D43CFC"/>
</linearGradient>
<linearGradient id="paint3_linear_1314_39419" x1="146.109" y1="89.8906" x2="422.006" y2="177.419" gradientUnits="userSpaceOnUse">
<stop stop-color="#FE6FA6"/>
<stop offset="1" stop-color="#D43CFC"/>
</linearGradient>
<linearGradient id="paint4_linear_1314_39419" x1="177.352" y1="71.4961" x2="226.821" y2="117.859" gradientUnits="userSpaceOnUse">
<stop stop-color="#FE6FA6"/>
<stop offset="1" stop-color="#D43CFC"/>
</linearGradient>
<linearGradient id="paint5_linear_1314_39419" x1="114.578" y1="96.3359" x2="388.526" y2="186.509" gradientUnits="userSpaceOnUse">
<stop stop-color="#FE6FA6"/>
<stop offset="1" stop-color="#D43CFC"/>
</linearGradient>
<linearGradient id="paint6_linear_1314_39419" x1="150.156" y1="16.2461" x2="154.399" y2="16.4123" gradientUnits="userSpaceOnUse">
<stop stop-color="#FE6FA6"/>
<stop offset="1" stop-color="#D43CFC"/>
</linearGradient>
<linearGradient id="paint7_linear_1314_39419" x1="156.891" y1="16.2461" x2="161.133" y2="16.4123" gradientUnits="userSpaceOnUse">
<stop stop-color="#FE6FA6"/>
<stop offset="1" stop-color="#D43CFC"/>
</linearGradient>
<linearGradient id="paint8_linear_1314_39419" x1="163.641" y1="16.2461" x2="167.883" y2="16.4123" gradientUnits="userSpaceOnUse">
<stop stop-color="#FE6FA6"/>
<stop offset="1" stop-color="#D43CFC"/>
</linearGradient>
<clipPath id="clip0_1314_39419">
<rect width="434" height="285" fill="white"/>
</clipPath>
</defs>
</svg>
