<svg id="purchase_success" width="311" height="295" viewBox="0 0 311 295" fill="none" xmlns="http://www.w3.org/2000/svg">
<g clip-path="url(#clip0_3485_287601)">
<mask id="mask0_3485_287601" style="mask-type:luminance" maskUnits="userSpaceOnUse" x="0" y="0" width="311" height="295">
<path d="M311 0H0V295H311V0Z" fill="white"/>
</mask>
<g mask="url(#mask0_3485_287601)">
<g opacity="0.908386">
<path d="M258.43 44.6172C259.961 44.6172 261.204 46.344 261.204 48.4708C261.204 50.5977 259.961 52.3245 258.43 52.3245C256.899 52.3245 255.656 50.5977 255.656 48.4708C255.656 46.344 256.899 44.6172 258.43 44.6172Z" fill="#EF0583"/>
</g>
<path d="M252.452 234.762C253.611 234.762 254.552 236.451 254.552 238.531C254.552 240.612 253.611 242.301 252.452 242.301C251.293 242.301 250.352 240.612 250.352 238.531C250.352 236.451 251.293 234.762 252.452 234.762Z" fill="#EF0583"/>
<path d="M23.1853 111.293C23.915 111.293 24.5074 113.392 24.5074 115.977C24.5074 118.562 23.915 120.661 23.1853 120.661C22.4557 120.661 21.8633 118.562 21.8633 115.977C21.8633 113.392 22.4557 111.293 23.1853 111.293Z" fill="#2AFF28"/>
<g opacity="0.844578">
<path d="M73.6921 223.949C73.7724 223.949 73.8376 225.103 73.8376 226.525C73.8376 227.947 73.7724 229.101 73.6921 229.101C73.6118 229.101 73.5466 227.947 73.5466 226.525C73.5466 225.103 73.6118 223.949 73.6921 223.949Z" fill="#EF0583"/>
</g>
<path d="M107.983 32.6875C110.031 32.6875 111.693 34.3973 111.693 36.5033C111.693 38.6092 110.031 40.319 107.983 40.319C105.936 40.319 104.273 38.6092 104.273 36.5033C104.273 34.3973 105.936 32.6875 107.983 32.6875Z" fill="#EF0583"/>
<path d="M213.559 19.4492C216.062 19.4492 218.094 21.1045 218.094 23.1432C218.094 25.1819 216.062 26.8372 213.559 26.8372C211.056 26.8372 209.023 25.1819 209.023 23.1432C209.023 21.1045 211.056 19.4492 213.559 19.4492Z" fill="#EF0583"/>
<g opacity="0.989042">
<path d="M62.1093 79.7266C63.4395 79.7266 64.5194 81.0366 64.5194 82.65C64.5194 84.2634 63.4395 85.5734 62.1093 85.5734C60.7792 85.5734 59.6992 84.2634 59.6992 82.65C59.6992 81.0366 60.7792 79.7266 62.1093 79.7266Z" fill="#EF0583"/>
</g>
<path d="M214.906 204.98C216.301 204.98 217.433 206.354 217.433 208.046C217.433 209.738 216.301 211.111 214.906 211.111C213.511 211.111 212.379 209.738 212.379 208.046C212.379 206.354 213.511 204.98 214.906 204.98Z" fill="#EF0583"/>
<path d="M171.834 81.6907L167.324 79.2047L163.25 69.2796L167.76 71.7656L171.834 81.6907Z" fill="#EFC905"/>
<path d="M182.6 196.87L176.642 195.312L173.477 185.071L179.434 186.629L182.6 196.87Z" fill="#EFC905"/>
<g opacity="0.989042">
<path d="M10.9152 268.889L5.88171 266.563L1.90924 256.23L6.94268 258.557L10.9152 268.889Z" fill="#2AFF28"/>
</g>
<path d="M54.6411 99.3792L49.5925 96.8485L45.3551 86.1572L50.4037 88.6879L54.6411 99.3792Z" fill="#EFC905"/>
<path d="M251.07 159.063L245.681 157.718L242.899 148.56L248.288 149.905L251.07 159.063Z" fill="#EFC905"/>
<path d="M96.7589 157.836L91.836 157.237L90.1044 149.919L95.0273 150.518L96.7589 157.836Z" fill="#EFC905"/>
<path d="M149.096 106.642L156.97 112.572L150.34 116.42L149.096 106.642Z" fill="#2AB6FF"/>
<path d="M146.121 269.583L152.901 273.97L146.566 277.647L146.121 269.583Z" fill="#2AB6FF"/>
<path d="M246.016 60.7678L252.94 63.4826L244.939 68.1268L246.016 60.7678Z" fill="#2AB6FF"/>
<path d="M55.4489 156.252L62.6414 161.257L56.228 164.98L55.4489 156.252Z" fill="#2AB6FF"/>
<path d="M218.295 235.491L223.452 236.526L216.636 240.482L218.295 235.491Z" fill="#2AB6FF"/>
<path d="M83.1545 105.018L88.3995 105.538L81.0047 109.83L83.1545 105.018Z" fill="#2AFF28"/>
<path d="M257.938 277.234C257.882 278.838 256.172 280.082 254.122 280.011C252.072 279.939 250.454 278.579 250.51 276.975C250.566 275.371 252.275 274.127 254.325 274.198C256.375 274.27 257.994 275.63 257.938 277.234Z" fill="#EF0583"/>
<g opacity="0.844578">
<path d="M72.6043 275.228C72.5498 276.79 71.7592 278.032 70.8401 278C69.921 277.968 69.2191 276.674 69.2736 275.112C69.3281 273.55 70.1187 272.308 71.0378 272.34C71.9569 272.372 72.6588 273.666 72.6043 275.228Z" fill="#EF0583"/>
</g>
<g opacity="0.989042">
<path d="M203.548 40.1555C203.516 41.0648 202.265 41.7604 200.757 41.7077C199.248 41.655 198.049 40.8739 198.081 39.9646C198.112 39.0552 199.363 38.3597 200.872 38.4124C202.381 38.465 203.58 39.2461 203.548 40.1555Z" fill="#EF0583"/>
</g>
<path d="M93.8745 95.4732C93.801 97.5797 92.3441 99.2413 90.6234 99.1812C88.9026 99.1211 87.5653 97.362 87.6388 95.2554C87.7124 93.1489 89.1692 91.4873 90.89 91.5474C92.6107 91.6075 93.9481 93.3666 93.8745 95.4732Z" fill="#2AFF28"/>
<path d="M276.442 135.332C276.367 137.479 274.994 139.176 273.379 139.12C271.763 139.063 270.512 137.274 270.587 135.127C270.662 132.98 272.034 131.283 273.65 131.339C275.266 131.396 276.517 133.185 276.442 135.332Z" fill="#EF0583"/>
<g opacity="0.957521">
<path d="M301.124 238.533C301.053 240.58 299.979 242.207 298.728 242.163C297.477 242.12 296.52 240.422 296.591 238.375C296.663 236.328 297.737 234.701 298.987 234.745C300.238 234.789 301.196 236.486 301.124 238.533Z" fill="#2AFF28"/>
</g>
<g opacity="0.769032">
<path d="M229.051 84.6836C228.997 86.2229 228.161 87.4451 227.186 87.411C226.21 87.3769 225.462 86.0995 225.515 84.5602C225.569 83.0209 226.405 81.7987 227.381 81.8328C228.356 81.8669 229.105 83.1443 229.051 84.6836Z" fill="#EF0583"/>
</g>
<g opacity="0.908386">
<path d="M103.582 241.481C103.536 242.786 101.465 243.774 98.9589 243.687C96.4532 243.599 94.4558 242.469 94.5014 241.164C94.547 239.859 96.6183 238.871 99.124 238.959C101.63 239.046 103.627 240.177 103.582 241.481Z" fill="#EF0583"/>
</g>
<path d="M232.308 202.775L228.592 200.992L225.575 193.254L229.292 195.038L232.308 202.775Z" fill="#2AFF28"/>
<path d="M124.816 205.167L121.22 204.354L119.472 198.383L123.069 199.196L124.816 205.167Z" fill="#EFC905"/>
<g opacity="0.989042">
<path d="M60.9032 34.5515L55.1231 34.8483L54.3739 27.9189L60.1539 27.622L60.9032 34.5515Z" fill="#2AFF28"/>
</g>
<g opacity="0.957521">
<path d="M224.065 70.6009L220.363 71.1209L220.307 67.2318L224.008 66.7117L224.065 70.6009Z" fill="#EFC905"/>
</g>
<g opacity="0.769032">
<path d="M159.517 285.748L156.048 284.481L153.741 277.918L157.211 279.185L159.517 285.748Z" fill="#2AFF28"/>
</g>
<path d="M156.954 120.996L152.442 120.341L150.719 113.459L155.231 114.113L156.954 120.996Z" fill="#EFC905"/>
<g opacity="0.957521">
<path d="M203.846 169.508L208.396 173.067L204.68 175.224L203.846 169.508Z" fill="#2AB6FF"/>
</g>
<g opacity="0.989042">
<path d="M37.1009 157.474L40.3819 158.792L36.6177 160.977L37.1009 157.474Z" fill="#2AFF28"/>
</g>
<path d="M244.898 272.186L250.298 272.834L242.783 277.196L244.898 272.186Z" fill="#2AB6FF"/>
<path d="M145.701 69.4866L150.838 69.929L143.537 74.1667L145.701 69.4866Z" fill="#2AFF28"/>
<path d="M67.7464 237.218L75.4214 237.574L64.2488 244.059L67.7464 237.218Z" fill="#2AB6FF"/>
<path d="M207.93 106.796L214.672 110.07L207.429 114.274L207.93 106.796Z" fill="#2AFF28"/>
<path d="M82.5255 195.109C81.6047 196.726 80.6231 198.249 79.6169 199.614" stroke="#FF1A61" stroke-width="5.06965"/>
<path d="M184.734 236.424C186.95 237.266 188.922 238.384 190.516 239.926" stroke="#FFE41D" stroke-width="2.61821"/>
<path d="M80.3809 59.5561C78.0906 57.0336 76.0484 53.7428 74.3164 49.4844" stroke="#B91DFF" stroke-width="4.49489"/>
<path d="M213.548 156.058C215.591 156.107 217.886 156.591 220.508 157.625" stroke="#78FF1D" stroke-width="0.621365"/>
<path d="M30.5515 93.4065C25.914 94.3491 21.1078 94.942 16.4893 95.1692" stroke="#0F3FBC" stroke-width="5.94094"/>
<path d="M230.101 110.425C229.901 106.559 229.782 102.722 230.234 99.2305" stroke="#FFE41D" stroke-width="1.6566"/>
<path d="M75.4936 212.595C76.6459 219.104 76.452 225.388 73.0352 231.219" stroke="#B91DFF" stroke-width="4.60022"/>
<path d="M152.353 93.472C148.996 91.2955 146.275 88.7231 145.102 84.875" stroke="#78FF1D" stroke-width="2.7577"/>
</g>
</g>
<g clip-path="url(#clip1_3485_287601)">
<path d="M184.886 100.221C169.424 103.143 155.74 112.034 146.818 124.953C137.895 137.873 134.459 153.774 137.258 169.188C140.261 184.615 149.251 198.233 162.277 207.09C175.304 215.947 191.318 219.329 206.851 216.505C222.186 213.422 235.693 204.444 244.442 191.519C253.191 178.594 256.477 162.764 253.586 147.461C250.696 132.158 241.862 118.617 229.002 109.773C216.141 100.93 200.29 97.4978 184.886 100.221V100.221Z" fill="#FEDB41"/>
<path d="M253.54 147.219C256.196 163.017 252.733 179.175 243.907 192.169C235.081 205.162 221.607 213.937 206.425 216.579L184.464 100.313C199.493 97.1439 215.205 100.302 228.154 109.095C241.103 117.888 250.233 131.598 253.54 147.219Z" fill="#FFCC33"/>
<g filter="url(#filter0_i_3485_287601)">
<path d="M186.01 106.635C175.738 108.506 166.253 113.388 158.761 120.661C151.27 127.935 146.109 137.271 143.936 147.484C141.763 157.697 142.675 168.325 146.556 178.019C150.437 187.712 157.112 196.033 165.733 201.924C174.354 207.815 184.532 211.011 194.973 211.104C205.414 211.197 215.647 208.185 224.373 202.449C233.098 196.713 239.921 188.512 243.974 178.89C248.028 169.267 249.13 158.657 247.14 148.407C244.438 134.833 236.525 122.857 225.098 115.049C213.67 107.24 199.638 104.22 186.01 106.635Z" fill="#FEA832"/>
</g>
<path d="M247.497 148.344C249.763 162.5 246.595 176.927 238.68 188.497C230.764 200.068 218.74 207.85 205.212 210.156L185.677 106.734C199.039 103.84 213.042 106.593 224.626 114.39C236.209 122.186 244.432 134.394 247.497 148.344Z" fill="#FE9923"/>
<g filter="url(#filter1_d_3485_287601)">
<path d="M203.12 138.908C203.12 138.908 201.623 137.047 203.504 135.342C201.488 136.885 199.926 135.077 199.926 135.077C199.926 135.077 201.423 136.938 199.542 138.642C201.559 137.101 203.12 138.908 203.12 138.908Z" fill="#FEDB41"/>
<path d="M216.288 125.085C216.288 125.085 214.791 123.224 216.672 121.518C214.656 123.061 213.094 121.252 213.094 121.252C213.094 121.252 214.591 123.113 212.71 124.818C214.727 123.276 216.288 125.085 216.288 125.085Z" fill="#FEDB41"/>
<path d="M226.383 137.592C224.629 138.936 223.268 137.361 223.268 137.361C223.268 137.361 224.571 138.983 222.934 140.468C224.689 139.124 226.05 140.698 226.05 140.698C226.05 140.698 224.745 139.076 226.383 137.592Z" fill="#FEDB41"/>
<path d="M219.546 149.189L219.405 146.688C219.346 145.64 218.436 144.846 217.389 144.931L214.305 145.182C214.562 144.755 214.86 144.348 215.18 143.921C216.005 142.811 216.859 141.664 216.932 140.044C216.939 139.889 216.936 139.731 216.929 139.572C217.261 139.837 217.581 140.137 217.867 140.481C219.525 142.47 223.547 146.705 223.547 146.705C223.547 146.705 220.106 141.985 218.448 139.996C217.112 138.394 216.796 136.267 216.722 135.499C218.427 135.619 220.133 135.714 221.841 135.777C220.138 135.529 218.43 135.314 216.719 135.124C216.834 134.663 217.493 132.297 219.281 130.809C221.269 129.151 225.504 125.129 225.504 125.129C225.504 125.129 220.784 128.57 218.796 130.228C217.194 131.563 215.064 131.879 214.297 131.952C214.418 130.226 214.517 128.498 214.581 126.767C214.331 128.491 214.112 130.22 213.921 131.952C213.453 131.835 211.095 131.175 209.607 129.391C207.949 127.402 203.927 123.167 203.927 123.167C203.927 123.167 207.368 127.887 209.026 129.876C210.515 131.662 210.738 134.105 210.769 134.583C209.031 134.46 207.29 134.362 205.547 134.296C207.261 134.544 208.979 134.761 210.7 134.952C210.49 135.695 209.794 137.73 208.193 139.063C206.205 140.721 201.97 144.743 201.97 144.743C201.97 144.743 206.69 141.302 208.678 139.644C210.463 138.156 212.904 137.934 213.384 137.902C213.262 139.619 213.166 141.339 213.102 143.058C213.348 141.365 213.561 139.669 213.751 137.97C214.089 138.066 214.698 138.263 215.389 138.602C215.517 139.079 215.572 139.539 215.551 139.977C215.499 141.174 214.804 142.106 214.07 143.092C213.721 143.562 213.359 144.048 213.05 144.581C212.911 144.822 212.799 145.065 212.711 145.306L209.595 145.559C208.593 145.64 207.836 146.501 207.881 147.507L208.005 150.225C205.43 151.481 203.298 153.367 201.745 155.638C201.391 154.914 200.948 154.233 200.418 153.594C199.382 152.347 198.141 151.438 196.693 150.864C195.247 150.291 193.734 150.106 192.154 150.309C190.577 150.512 189.07 151.153 187.637 152.232C190.104 150.127 192.107 147.797 193.646 145.243C194.939 143.059 195.621 140.91 195.696 138.796C195.769 136.682 194.962 134.609 193.271 132.574C192.072 131.129 190.676 130.236 189.088 129.892C187.499 129.548 185.795 129.618 183.978 130.103C182.161 130.585 180.324 131.378 178.464 132.478C176.605 133.58 174.79 134.866 173.017 136.338C170.522 138.41 168.181 140.716 165.993 143.256C163.803 145.796 161.964 148.489 160.473 151.335C158.983 154.183 157.993 157.113 157.503 160.128C156.868 164.038 157.493 167.125 159.373 169.39C161.254 171.655 163.404 172.171 165.82 170.941C166.181 170.64 166.238 170.51 165.994 170.546C165.627 170.573 165.294 170.574 164.993 170.547C164.693 170.519 164.409 170.478 164.141 170.422C163.103 170.174 162.19 169.575 161.398 168.623C160.281 167.277 159.858 164.799 160.131 161.189C160.504 156.497 161.957 152.154 164.494 148.162C167.029 144.171 170.217 140.577 174.056 137.388C176.026 135.753 178.024 134.438 180.056 133.442C182.087 132.449 184.016 131.999 185.839 132.091C187.664 132.185 189.258 133.051 190.622 134.692C191.957 136.301 192.737 138.038 192.956 139.908C193.178 141.776 192.72 143.764 191.588 145.87C190.388 148.032 188.706 150.012 186.539 151.812C186.211 152.086 185.876 152.351 185.534 152.606C185.194 152.863 184.877 153.083 184.588 153.269C183.774 153.558 183.114 153.799 182.612 153.994C182.108 154.191 181.709 154.411 181.415 154.657C181.019 154.983 180.73 155.419 180.543 155.963C180.356 156.505 180.385 156.925 180.632 157.221C180.987 157.647 182.016 157.318 183.723 156.233C184.847 155.52 185.96 154.82 187.053 154.131C188.812 153.446 190.617 153.25 192.469 153.543C194.322 153.835 195.806 154.654 196.924 156C197.987 157.279 198.647 158.908 198.904 160.885C198.981 161.484 199.027 162.089 199.038 162.702C198.927 163.54 198.883 164.395 198.906 165.256C198.835 165.858 198.733 166.468 198.604 167.085C198.148 169.238 197.404 171.284 196.378 173.218C195.351 175.154 194.082 176.748 192.574 178.003C188.568 181.33 183.916 181.839 178.615 179.53C179.442 174.184 179.567 167.424 178.99 159.25C178.931 158.579 178.954 157.49 179.065 155.985C179.173 154.48 179.352 152.543 179.601 150.171C180.167 145.043 180.709 141.791 181.23 140.414C182.099 139.526 182.289 138.785 181.798 138.195C181.499 137.834 181.027 137.684 180.385 137.746C179.743 137.808 179.094 138.112 178.438 138.657C177.847 139.147 177.353 139.753 176.952 140.473C175.824 142.521 175.473 149.276 175.898 160.737L176.424 170.283C176.537 172.021 176.606 173.559 176.635 174.893C176.663 176.229 176.647 177.395 176.585 178.389L171.181 174.89C169.381 173.723 168.004 173.535 167.052 174.327C166.067 175.144 165.578 176.356 165.58 177.962C165.585 179.57 165.734 181.218 166.031 182.913C166.703 186.794 167.858 189.716 169.493 191.686C170.176 192.506 170.977 193.088 171.899 193.43C172.822 193.775 173.629 193.658 174.317 193.086C175.762 191.887 177.001 188.471 178.038 182.841C182.851 184.83 187.852 183.672 193.038 179.363C195.039 177.701 196.803 175.75 198.328 173.513C198.95 172.597 199.515 171.667 200.019 170.72C203.027 178.433 211.47 182.734 219.592 180.415C228.212 177.952 233.204 168.97 230.743 160.351C229.143 154.744 224.776 150.67 219.546 149.189ZM174.019 191.428C173.626 191.755 173.066 191.667 172.341 191.158C171.615 190.653 171.061 190.17 170.678 189.709C168.907 187.576 167.776 183.746 167.288 178.215C167.364 178.043 167.419 177.941 167.452 177.914C168.239 177.258 171.103 178.569 176.041 181.842L176.354 181.916C175.847 187.386 175.07 190.554 174.019 191.428ZM217.615 177.212C210.817 179.153 203.732 175.215 201.79 168.417C201.692 168.07 201.607 167.722 201.54 167.373C200.959 164.443 201.437 161.513 202.733 159.014C204.299 155.994 207.057 153.6 210.587 152.592C217.385 150.651 224.47 154.589 226.411 161.387C228.351 168.185 224.415 175.27 217.615 177.212Z" fill="#FEDB41"/>
<path d="M210.276 174.373C207.235 172.017 205.359 168.295 205.706 164.443C206.014 160.578 208.388 157.254 211.83 155.394C209.84 155.762 207.95 156.897 206.586 158.509C202.204 163.527 203.943 171.968 210.276 174.373Z" fill="#FEDB41"/>
</g>
<g filter="url(#filter2_d_3485_287601)">
<path d="M171.576 107.761C172.249 109.12 172.715 110.069 173.189 111.016C174.551 113.775 176.704 115.391 179.926 115.496C181.069 115.535 182.217 115.641 183.666 115.733C182.972 116.144 182.523 116.433 182.048 116.675C181.156 117.141 180.249 117.576 179.355 118.034C177.276 119.106 176.168 120.862 175.787 123.075C175.612 124.119 175.569 125.181 175.465 126.237C175.426 126.627 175.378 127.018 175.288 127.826C174.893 127.203 174.695 126.935 174.554 126.647C174.005 125.578 173.55 124.458 172.924 123.438C171.801 121.585 170.151 120.427 167.904 120.197C166.975 120.1 166.047 120.012 165.118 119.916C164.561 119.86 164.001 119.787 163.033 119.672C164.376 119.019 165.345 118.496 166.365 118.066C169.418 116.775 170.828 114.41 171.13 111.278C171.23 110.247 171.126 109.188 171.591 107.749L171.576 107.761Z" fill="white"/>
</g>
<g filter="url(#filter3_d_3485_287601)">
<path d="M241.686 159.653C242.283 160.855 242.695 161.694 243.115 162.531C244.322 164.969 246.232 166.397 249.09 166.488C250.104 166.521 251.123 166.614 252.408 166.695C251.792 167.059 251.394 167.314 250.972 167.529C250.18 167.942 249.375 168.327 248.582 168.732C246.737 169.681 245.752 171.234 245.414 173.191C245.257 174.115 245.219 175.053 245.126 175.987C245.091 176.332 245.048 176.678 244.968 177.392C244.617 176.842 244.442 176.605 244.317 176.351C243.83 175.406 243.428 174.415 242.873 173.514C241.878 171.876 240.415 170.853 238.421 170.651C237.597 170.566 236.774 170.489 235.95 170.404C235.455 170.355 234.958 170.291 234.1 170.19C235.292 169.612 236.151 169.149 237.057 168.768C239.767 167.625 241.019 165.533 241.288 162.763C241.378 161.852 241.286 160.916 241.7 159.643L241.686 159.653Z" fill="white"/>
</g>
<g filter="url(#filter4_d_3485_287601)">
<path d="M170.786 198.936C171.171 199.704 171.438 200.24 171.709 200.774C172.489 202.332 173.728 203.241 175.587 203.293C176.247 203.313 176.909 203.37 177.744 203.419C177.343 203.653 177.083 203.817 176.809 203.956C176.293 204.221 175.769 204.469 175.252 204.73C174.05 205.341 173.406 206.337 173.182 207.589C173.078 208.18 173.051 208.781 172.989 209.379C172.965 209.599 172.937 209.821 172.883 210.278C172.656 209.927 172.543 209.775 172.462 209.613C172.147 209.009 171.888 208.377 171.528 207.801C170.885 206.755 169.935 206.104 168.639 205.979C168.103 205.926 167.568 205.879 167.032 205.826C166.711 205.796 166.388 205.756 165.83 205.693C166.606 205.321 167.166 205.023 167.756 204.777C169.52 204.04 170.339 202.699 170.52 200.927C170.581 200.344 170.523 199.745 170.795 198.93L170.786 198.936Z" fill="white"/>
</g>
</g>
<g clip-path="url(#clip2_3485_287601)">
<path d="M105.742 55.273C85.152 59.1645 66.9293 71.0034 55.048 88.2077C43.1666 105.412 38.5904 126.586 42.3174 147.112C46.3175 167.656 58.2878 185.79 75.6343 197.584C92.9809 209.378 114.306 213.882 134.99 210.121C155.412 206.015 173.398 194.061 185.049 176.849C196.699 159.638 201.074 138.557 197.225 118.179C193.376 97.8017 181.613 79.7695 164.487 67.9934C147.362 56.2173 126.254 51.6468 105.742 55.273V55.273Z" fill="#FEDB41"/>
<path d="M197.164 117.856C200.7 138.894 196.089 160.411 184.336 177.714C172.582 195.016 154.641 206.701 134.424 210.219L105.18 55.3953C125.192 51.1751 146.115 55.3808 163.358 67.09C180.602 78.7992 192.759 97.0561 197.164 117.856Z" fill="#FFCC33"/>
<g filter="url(#filter5_i_3485_287601)">
<path d="M107.239 63.8164C93.5591 66.3071 80.9287 72.8084 70.9525 82.4939C60.9763 92.1794 54.1047 104.612 51.2106 118.212C48.3166 131.812 49.5308 145.965 54.699 158.873C59.8673 171.782 68.7562 182.862 80.2364 190.707C91.7165 198.551 105.27 202.806 119.174 202.931C133.077 203.055 146.704 199.043 158.323 191.405C169.942 183.767 179.027 172.847 184.426 160.033C189.824 147.219 191.291 133.09 188.64 119.441C185.043 101.365 174.506 85.418 159.289 75.0197C144.072 64.6215 125.386 60.5996 107.239 63.8164Z" fill="#FEA832"/>
</g>
<path d="M189.116 119.356C192.133 138.207 187.915 157.418 177.375 172.826C166.835 188.234 150.822 198.596 132.808 201.668L106.795 63.9467C124.588 60.0935 143.235 63.7587 158.66 74.1413C174.085 84.5238 185.035 100.779 189.116 119.356Z" fill="#FE9923"/>
<g filter="url(#filter6_d_3485_287601)">
<path d="M130.022 106.79C130.022 106.79 128.029 104.312 130.534 102.042C127.849 104.097 125.77 101.688 125.77 101.688C125.77 101.688 127.763 104.167 125.258 106.436C127.944 104.384 130.022 106.79 130.022 106.79Z" fill="#FEDB41"/>
<path d="M147.557 88.3842C147.557 88.3842 145.564 85.906 148.068 83.634C145.384 85.6889 143.305 83.2803 143.305 83.2803C143.305 83.2803 145.298 85.7584 142.793 88.028C145.478 85.9755 147.557 88.3842 147.557 88.3842Z" fill="#FEDB41"/>
<path d="M161.001 105.039C158.664 106.828 156.853 104.732 156.853 104.732C156.853 104.732 158.587 106.891 156.408 108.868C158.745 107.079 160.557 109.175 160.557 109.175C160.557 109.175 158.819 107.014 161.001 105.039Z" fill="#FEDB41"/>
<path d="M151.895 120.481L151.708 117.151C151.629 115.755 150.417 114.698 149.023 114.812L144.917 115.146C145.259 114.576 145.656 114.034 146.082 113.467C147.18 111.988 148.318 110.461 148.415 108.304C148.424 108.096 148.42 107.887 148.411 107.675C148.853 108.028 149.279 108.427 149.659 108.886C151.867 111.534 157.223 117.173 157.223 117.173C157.223 117.173 152.641 110.888 150.433 108.24C148.655 106.107 148.234 103.273 148.135 102.252C150.406 102.411 152.678 102.538 154.952 102.621C152.684 102.29 150.41 102.004 148.132 101.752C148.285 101.137 149.162 97.9876 151.543 96.0052C154.191 93.7973 159.83 88.4413 159.83 88.4413C159.83 88.4413 153.545 93.0236 150.897 95.2315C148.764 97.0097 145.928 97.4311 144.906 97.5278C145.068 95.2287 145.199 92.9278 145.284 90.623C144.951 92.9188 144.66 95.2219 144.406 97.5283C143.783 97.372 140.643 96.4933 138.661 94.117C136.453 91.4688 131.097 85.8299 131.097 85.8299C131.097 85.8299 135.68 92.1148 137.888 94.763C139.87 97.1418 140.167 100.394 140.208 101.031C137.894 100.867 135.575 100.737 133.255 100.65C135.537 100.98 137.825 101.268 140.116 101.523C139.836 102.512 138.909 105.222 136.778 106.998C134.13 109.205 128.491 114.561 128.491 114.561C128.491 114.561 134.776 109.979 137.424 107.771C139.8 105.79 143.051 105.493 143.69 105.451C143.528 107.737 143.4 110.027 143.314 112.317C143.642 110.063 143.926 107.804 144.179 105.541C144.629 105.669 145.44 105.932 146.36 106.383C146.531 107.018 146.603 107.631 146.577 108.215C146.507 109.808 145.582 111.049 144.604 112.363C144.139 112.989 143.657 113.635 143.246 114.345C143.06 114.667 142.911 114.989 142.794 115.311L138.645 115.648C137.311 115.755 136.302 116.902 136.362 118.241L136.528 121.861C133.099 123.534 130.259 126.044 128.191 129.069C127.72 128.105 127.13 127.199 126.424 126.347C125.044 124.687 123.392 123.477 121.464 122.712C119.539 121.949 117.523 121.703 115.42 121.973C113.319 122.243 111.313 123.097 109.405 124.533C112.689 121.73 115.356 118.628 117.406 115.227C119.128 112.318 120.036 109.457 120.136 106.642C120.234 103.827 119.159 101.066 116.907 98.3556C115.31 96.4318 113.451 95.2426 111.337 94.7843C109.221 94.3264 106.952 94.42 104.532 95.065C102.113 95.707 99.6658 96.763 97.1894 98.228C94.7135 99.6954 92.2965 101.408 89.9366 103.369C86.6135 106.128 83.4964 109.198 80.5828 112.58C77.6668 115.963 75.218 119.549 73.2316 123.339C71.2481 127.132 69.9296 131.033 69.2772 135.048C68.4312 140.255 69.2635 144.366 71.7667 147.382C74.2724 150.398 77.1351 151.085 80.3527 149.447C80.8328 149.047 80.909 148.872 80.5833 148.921C80.0954 148.958 79.6513 148.958 79.2512 148.922C78.8511 148.886 78.4727 148.83 78.1161 148.756C76.7342 148.425 75.5178 147.627 74.4638 146.36C72.9759 144.568 72.4136 141.269 72.7767 136.46C73.2739 130.213 75.2088 124.43 78.5866 119.113C81.9625 113.799 86.207 109.013 91.3197 104.767C93.9431 102.589 96.604 100.838 99.3097 99.5124C102.013 98.1897 104.582 97.5903 107.011 97.7126C109.44 97.8374 111.564 98.9918 113.379 101.176C115.157 103.319 116.195 105.633 116.488 108.123C116.783 110.609 116.174 113.257 114.666 116.061C113.068 118.941 110.828 121.577 107.942 123.974C107.506 124.338 107.06 124.692 106.604 125.031C106.151 125.373 105.729 125.666 105.345 125.914C104.26 126.299 103.382 126.619 102.713 126.88C102.042 127.142 101.511 127.435 101.119 127.763C100.592 128.197 100.207 128.777 99.9577 129.502C99.7084 130.224 99.7479 130.782 100.076 131.177C100.549 131.745 101.92 131.306 104.192 129.862C105.69 128.911 107.171 127.979 108.627 127.062C110.969 126.151 113.373 125.889 115.84 126.279C118.306 126.668 120.283 127.759 121.771 129.551C123.187 131.255 124.066 133.423 124.408 136.056C124.511 136.853 124.571 137.659 124.586 138.476C124.439 139.592 124.38 140.73 124.411 141.876C124.317 142.678 124.181 143.49 124.009 144.312C123.401 147.18 122.411 149.904 121.045 152.479C119.677 155.057 117.987 157.18 115.978 158.851C110.644 163.281 104.449 163.959 97.3902 160.885C98.4915 153.765 98.6588 144.764 97.8893 133.879C97.8118 132.985 97.8425 131.535 97.9892 129.531C98.1334 127.527 98.3717 124.947 98.7039 121.789C99.4567 114.96 100.179 110.63 100.873 108.796C102.03 107.613 102.283 106.627 101.629 105.842C101.232 105.361 100.602 105.16 99.7476 105.243C98.8929 105.326 98.0279 105.73 97.1551 106.456C96.3676 107.109 95.7105 107.916 95.1761 108.875C93.6739 111.602 93.2059 120.597 93.7721 135.859L94.4731 148.571C94.6234 150.885 94.7159 152.933 94.7546 154.709C94.7912 156.489 94.7697 158.041 94.6876 159.366L87.4918 154.706C85.0946 153.152 83.2611 152.902 81.9935 153.956C80.6816 155.043 80.03 156.658 80.033 158.797C80.0389 160.937 80.2379 163.133 80.6338 165.39C81.5286 170.557 83.0655 174.449 85.2433 177.072C86.1525 178.164 87.22 178.939 88.4479 179.395C89.6763 179.853 90.7508 179.698 91.6676 178.936C93.5914 177.34 95.2416 172.791 96.6217 165.293C103.032 167.942 109.691 166.4 116.597 160.662C119.262 158.449 121.611 155.851 123.641 152.872C124.469 151.652 125.222 150.414 125.892 149.153C129.898 159.424 141.142 165.151 151.957 162.063C163.436 158.783 170.083 146.822 166.806 135.345C164.676 127.879 158.86 122.454 151.895 120.481ZM91.2707 176.728C90.7467 177.164 90.0012 177.046 89.0358 176.368C88.0689 175.696 87.331 175.054 86.8217 174.439C84.4633 171.599 82.957 166.499 82.3068 159.134C82.408 158.904 82.4813 158.768 82.5252 158.732C83.5733 157.859 87.387 159.605 93.9625 163.963L94.3796 164.062C93.705 171.345 92.67 175.565 91.2707 176.728ZM149.324 157.797C140.272 160.383 130.837 155.139 128.252 146.086C128.121 145.624 128.008 145.16 127.918 144.695C127.145 140.794 127.781 136.893 129.507 133.565C131.592 129.543 135.266 126.355 139.965 125.013C149.018 122.427 158.453 127.671 161.038 136.724C163.621 145.777 158.379 155.211 149.324 157.797Z" fill="#FEDB41"/>
<path d="M139.552 154.016C135.503 150.878 133.004 145.923 133.466 140.794C133.877 135.646 137.037 131.22 141.621 128.743C138.971 129.234 136.455 130.744 134.638 132.892C128.803 139.574 131.119 150.813 139.552 154.016Z" fill="#FEDB41"/>
</g>
<g filter="url(#filter7_d_3485_287601)">
<path d="M88.0171 65.3137C88.9136 67.1244 89.5335 68.3877 90.1645 69.6489C91.9791 73.3228 94.8462 75.4742 99.1357 75.6144C100.659 75.6661 102.187 75.8073 104.117 75.9295C103.192 76.4775 102.595 76.8619 101.962 77.185C100.774 77.8054 99.5664 78.3843 98.3761 78.9938C95.6075 80.4219 94.1313 82.76 93.6251 85.7069C93.391 87.0976 93.3345 88.5113 93.1959 89.9178C93.1437 90.4368 93.0804 90.958 92.96 92.033C92.4338 91.2045 92.1699 90.8471 91.982 90.4639C91.251 89.0406 90.6457 87.5482 89.8114 86.1897C88.3172 83.7224 86.1197 82.1801 83.1274 81.8741C81.8902 81.7457 80.6549 81.6283 79.4176 81.4999C78.6757 81.4251 77.9296 81.3284 76.6415 81.1757C78.4297 80.3061 79.7192 79.61 81.0781 79.0365C85.1436 77.3181 87.021 74.1688 87.4229 69.997C87.5567 68.6253 87.4173 67.2147 88.0373 65.2985L88.0171 65.3137Z" fill="white"/>
</g>
<g filter="url(#filter8_d_3485_287601)">
<path d="M181.379 134.416C182.173 136.017 182.722 137.133 183.281 138.248C184.889 141.495 187.432 143.396 191.237 143.517C192.589 143.562 193.945 143.686 195.656 143.793C194.836 144.278 194.305 144.618 193.744 144.904C192.69 145.454 191.618 145.966 190.561 146.506C188.104 147.77 186.793 149.838 186.342 152.444C186.134 153.674 186.083 154.924 185.959 156.168C185.912 156.626 185.856 157.087 185.748 158.038C185.282 157.306 185.048 156.99 184.882 156.651C184.234 155.393 183.698 154.074 182.958 152.873C181.634 150.693 179.685 149.33 177.031 149.061C175.933 148.949 174.837 148.846 173.74 148.733C173.081 148.667 172.42 148.582 171.277 148.448C172.864 147.678 174.008 147.062 175.214 146.554C178.822 145.032 180.49 142.246 180.849 138.558C180.968 137.345 180.846 136.098 181.397 134.403L181.379 134.416Z" fill="white"/>
</g>
<g filter="url(#filter9_d_3485_287601)">
<path d="M86.9649 186.725C87.4782 187.747 87.833 188.46 88.1943 189.172C89.2332 191.246 90.8828 192.457 93.3577 192.527C94.2366 192.553 95.1183 192.629 96.2313 192.694C95.6965 193.006 95.3509 193.225 94.9854 193.409C94.2983 193.762 93.6001 194.092 92.9119 194.44C91.3111 195.254 90.4541 196.58 90.1554 198.248C90.0172 199.035 89.9814 199.835 89.8983 200.631C89.867 200.924 89.8293 201.219 89.7574 201.827C89.4557 201.36 89.3042 201.158 89.1966 200.942C88.778 200.139 88.432 199.296 87.9536 198.529C87.0969 197.137 85.8323 196.27 84.1063 196.103C83.3926 196.033 82.6801 195.97 81.9665 195.9C81.5385 195.859 81.1082 195.806 80.3652 195.723C81.399 195.227 82.1447 194.83 82.9301 194.503C85.2799 193.522 86.3703 191.736 86.6115 189.375C86.6918 188.599 86.6145 187.802 86.9766 186.716L86.9649 186.725Z" fill="white"/>
</g>
</g>
<path d="M151.639 53.4707C128.361 53.4733 106.029 62.6392 89.512 78.9693C72.9954 95.2994 63.6344 117.469 63.4707 140.643C63.6013 163.893 72.9289 186.155 89.4323 202.606C105.936 219.057 128.285 228.371 151.639 228.53C174.777 228.259 196.876 218.917 213.141 202.532C229.407 186.146 238.53 164.038 238.53 141C238.53 117.963 229.407 95.8537 213.141 79.4682C196.876 63.0827 174.777 53.7416 151.639 53.4707V53.4707Z" fill="#FEDB41"/>
<path d="M238.529 140.636C238.052 164.33 228.582 186.866 212.185 203.33C195.788 219.793 173.794 228.849 151 228.521V53.4892C173.715 53.0087 195.686 61.9134 212.095 78.2503C228.504 94.5871 238.01 117.022 238.529 140.636Z" fill="#FFCC33"/>
<g filter="url(#filter10_i_3485_287601)">
<path d="M151.511 63.1052C136.066 63.0036 120.938 67.496 108.051 76.0116C95.1646 84.5272 85.1002 96.6815 79.1371 110.93C73.174 125.179 71.5812 140.879 74.5613 156.035C77.5414 171.191 84.9598 185.118 95.8739 196.049C106.788 206.979 120.705 214.418 135.856 217.42C151.008 220.422 166.71 218.853 180.967 212.911C195.225 206.969 207.394 196.922 215.929 184.048C224.463 171.174 228.978 156.053 228.899 140.607C228.699 120.134 220.485 100.554 206.018 86.0664C191.552 71.5784 171.984 63.3355 151.511 63.1052Z" fill="#FEA832"/>
</g>
<path d="M229.435 140.611C228.843 161.81 220.277 181.911 205.595 196.557C190.912 211.203 171.297 219.213 151 218.851V63.1548C171.217 62.6174 190.816 70.4628 205.513 84.9766C220.21 99.4904 228.811 119.492 229.435 140.611Z" fill="#FE9923"/>
<g filter="url(#filter11_d_3485_287601)">
<path d="M167.52 114.711C167.52 114.711 165.856 111.595 169.058 109.634C165.703 111.323 163.931 108.266 163.931 108.266C163.931 108.266 165.595 111.382 162.394 113.343C165.748 111.656 167.52 114.711 167.52 114.711Z" fill="#FEDB41"/>
<path d="M190.457 98.2333C190.457 98.2333 188.792 95.1172 191.994 93.1534C188.64 94.843 186.867 91.7852 186.867 91.7852C186.867 91.7852 188.532 94.9012 185.33 96.8622C188.684 95.1754 190.457 98.2333 190.457 98.2333Z" fill="#FEDB41"/>
<path d="M201.698 119.187C198.778 120.658 197.233 117.996 197.233 117.996C197.233 117.996 198.681 120.711 195.895 122.419C198.814 120.949 200.36 123.61 200.36 123.61C200.36 123.61 198.908 120.893 201.698 119.187Z" fill="#FEDB41"/>
<path d="M188.575 134.163L189.056 130.49C189.259 128.95 188.154 127.546 186.608 127.382L182.057 126.901C182.547 126.349 183.093 125.84 183.675 125.308C185.179 123.92 186.735 122.488 187.287 120.153C187.339 119.929 187.378 119.699 187.411 119.466C187.821 119.943 188.203 120.466 188.525 121.045C190.389 124.391 195.072 131.651 195.072 131.651C195.072 131.651 191.366 123.845 189.502 120.5C188.001 117.804 188.126 114.625 188.228 113.489C190.674 114.132 193.128 114.738 195.593 115.298C193.186 114.47 190.763 113.689 188.328 112.943C188.622 112.304 190.228 109.046 193.236 107.373C196.582 105.509 203.842 100.826 203.842 100.826C203.842 100.826 196.036 104.532 192.69 106.396C189.995 107.897 186.813 107.772 185.677 107.667C186.328 105.191 186.946 102.706 187.514 100.208C186.677 102.645 185.885 105.099 185.132 107.564C184.484 107.265 181.237 105.659 179.564 102.656C177.7 99.3105 173.016 92.0508 173.016 92.0508C173.016 92.0508 176.723 99.8561 178.587 103.202C180.26 106.207 179.913 109.819 179.827 110.523C177.335 109.866 174.831 109.246 172.316 108.672C174.739 109.503 177.177 110.29 179.625 111.041C179.116 112.063 177.545 114.83 174.853 116.328C171.507 118.192 164.247 122.876 164.247 122.876C164.247 122.876 172.053 119.17 175.399 117.306C178.401 115.633 182.01 115.979 182.716 116.065C182.068 118.527 181.456 121.001 180.891 123.483C181.714 121.089 182.489 118.683 183.232 116.264C183.697 116.497 184.528 116.951 185.439 117.633C185.494 118.361 185.447 119.045 185.298 119.677C184.893 121.402 183.628 122.566 182.29 123.798C181.653 124.386 180.994 124.992 180.398 125.682C180.129 125.995 179.899 126.316 179.706 126.643L175.108 126.155C173.629 125.998 172.291 127.042 172.08 128.515L171.515 132.501C167.427 133.62 163.81 135.775 160.929 138.65C160.613 137.501 160.156 136.39 159.561 135.315C158.397 133.218 156.844 131.557 154.896 130.324C152.952 129.094 150.803 128.41 148.451 128.272C146.102 128.133 143.737 128.651 141.358 129.825C145.521 127.443 149.071 124.607 152.01 121.317C154.489 118.497 156.071 115.561 156.76 112.509C157.447 109.456 156.844 106.221 154.943 102.798C153.597 100.369 151.814 98.6872 149.601 97.7511C147.385 96.8149 144.889 96.4492 142.114 96.6542C139.341 96.8564 136.452 97.5045 133.447 98.5931C130.442 99.6844 127.45 101.055 124.47 102.709C120.274 105.036 116.238 107.745 112.36 110.836C108.48 113.927 105.067 117.336 102.118 121.065C99.1706 124.795 96.927 128.781 95.387 133.03C93.39 138.539 93.4509 143.198 95.5615 147.007C97.6749 150.815 100.658 152.156 104.508 151.031C105.115 150.693 105.234 150.519 104.868 150.505C104.328 150.444 103.843 150.353 103.414 150.231C102.985 150.109 102.583 149.97 102.209 149.815C100.769 149.17 99.6054 148.048 98.7163 146.447C97.4616 144.184 97.5281 140.467 98.9157 135.293C100.747 128.576 104.051 122.663 108.834 117.555C113.615 112.45 119.235 108.102 125.691 104.52C129.004 102.684 132.27 101.321 135.497 100.432C138.721 99.5459 141.648 99.4213 144.274 100.056C146.9 100.693 148.98 102.39 150.512 105.149C152.01 107.855 152.667 110.595 152.473 113.373C152.282 116.148 151.071 118.912 148.847 121.663C146.509 124.477 143.521 126.892 139.876 128.914C139.325 129.222 138.765 129.515 138.197 129.792C137.632 130.072 137.111 130.305 136.641 130.496C135.378 130.692 134.353 130.861 133.569 131.008C132.782 131.155 132.142 131.365 131.647 131.642C130.982 132.008 130.442 132.562 130.021 133.302C129.6 134.038 129.528 134.656 129.805 135.155C130.204 135.872 131.791 135.675 134.569 134.567C136.4 133.839 138.208 133.127 139.986 132.426C142.731 131.914 145.41 132.124 148.022 133.058C150.634 133.991 152.567 135.589 153.822 137.852C155.015 140.005 155.528 142.553 155.359 145.497C155.306 146.389 155.207 147.281 155.054 148.175C154.664 149.364 154.365 150.594 154.162 151.851C153.894 152.707 153.578 153.566 153.221 154.427C151.966 157.432 150.323 160.202 148.301 162.731C146.277 165.262 143.994 167.232 141.457 168.642C134.721 172.378 127.819 171.841 120.747 167.03C123.417 159.485 125.456 149.693 126.86 137.653C126.96 136.661 127.292 135.085 127.866 132.928C128.436 130.77 129.229 128.003 130.242 124.624C132.472 117.325 134.153 112.747 135.289 110.888C136.796 109.836 137.275 108.811 136.724 107.819C136.389 107.213 135.743 106.864 134.793 106.778C133.843 106.692 132.815 106.955 131.713 107.567C130.719 108.118 129.835 108.864 129.054 109.8C126.852 112.467 124.487 122.189 121.958 138.966L120.102 152.987C119.789 155.543 119.468 157.798 119.144 159.745C118.817 161.695 118.473 163.384 118.111 164.814L111.216 158.244C108.92 156.053 106.97 155.402 105.369 156.291C103.713 157.208 102.669 158.836 102.231 161.171C101.796 163.509 101.561 165.947 101.528 168.492C101.439 174.317 102.314 178.882 104.151 182.194C104.918 183.574 105.923 184.64 107.17 185.391C108.416 186.144 109.621 186.197 110.779 185.554C113.208 184.208 115.947 179.582 119 171.683C125.451 175.896 133.037 175.586 141.759 170.747C145.124 168.88 148.224 166.528 151.055 163.695C152.21 162.534 153.287 161.338 154.279 160.099C156.533 172.137 167.626 180.707 180.068 179.566C193.275 178.353 202.997 166.667 201.787 153.463C201 144.874 195.77 137.753 188.575 134.163ZM110.801 183.061C110.139 183.43 109.35 183.147 108.436 182.208C107.519 181.275 106.846 180.422 106.416 179.646C104.428 176.059 103.835 170.182 104.644 162.008C104.802 161.778 104.91 161.645 104.965 161.615C106.289 160.878 110.092 163.57 116.371 169.683L116.806 169.877C114.568 177.688 112.568 182.081 110.801 183.061ZM178.074 174.367C167.66 175.322 158.442 167.653 157.486 157.238C157.439 156.706 157.411 156.177 157.409 155.651C157.37 151.233 158.868 147.106 161.439 143.83C164.544 139.869 169.211 137.146 174.617 136.65C185.032 135.695 194.25 143.364 195.205 153.779C196.158 164.193 188.491 173.411 178.074 174.367Z" fill="#FEDB41"/>
<path d="M168.186 168.227C164.413 163.967 162.707 158.043 164.269 152.539C165.779 147.005 170.141 142.825 175.656 141.066C172.662 141.055 169.604 142.185 167.177 144.155C159.43 150.246 159.641 162.992 168.186 168.227Z" fill="#FEDB41"/>
</g>
<g filter="url(#filter12_d_3485_287601)">
<path d="M130.221 60.776C130.826 62.9374 131.242 64.4442 131.671 65.951C132.894 70.3355 135.581 73.275 140.234 74.3125C141.886 74.683 143.525 75.1523 145.606 75.6834C144.484 76.091 143.752 76.3874 142.996 76.6097C141.571 77.042 140.133 77.4249 138.708 77.8448C135.391 78.8329 133.298 81.0807 132.138 84.1931C131.596 85.6628 131.242 87.1943 130.801 88.7011C130.637 89.2569 130.461 89.8127 130.108 90.9613C129.704 89.9485 129.49 89.5039 129.363 89.0469C128.859 87.3425 128.506 85.5887 127.875 83.9337C126.753 80.9325 124.672 78.7958 121.469 77.8448C120.145 77.4496 118.821 77.0667 117.497 76.6715C116.702 76.4368 115.908 76.1774 114.533 75.7452C116.664 75.1647 118.216 74.6706 119.817 74.3248C124.609 73.2874 127.308 70.2367 128.607 65.7657C129.036 64.296 129.174 62.7274 130.246 60.7637L130.221 60.776Z" fill="white"/>
</g>
<g filter="url(#filter13_d_3485_287601)">
<path d="M217.885 155.456C218.422 157.367 218.791 158.699 219.171 160.031C220.257 163.907 222.64 166.506 226.769 167.423C228.235 167.751 229.69 168.166 231.536 168.635C230.54 168.996 229.891 169.258 229.22 169.454C227.955 169.836 226.68 170.175 225.415 170.546C222.472 171.42 220.615 173.407 219.585 176.158C219.104 177.458 218.791 178.812 218.399 180.144C218.254 180.635 218.097 181.126 217.784 182.142C217.426 181.246 217.236 180.853 217.124 180.449C216.676 178.943 216.363 177.392 215.803 175.929C214.807 173.276 212.961 171.387 210.119 170.546C208.944 170.197 207.769 169.858 206.594 169.509C205.889 169.301 205.184 169.072 203.964 168.69C205.855 168.177 207.232 167.74 208.653 167.434C212.905 166.517 215.3 163.82 216.452 159.867C216.833 158.568 216.956 157.181 217.907 155.445L217.885 155.456Z" fill="white"/>
</g>
<g filter="url(#filter14_d_3485_287601)">
<path d="M104.039 193.089C104.389 194.311 104.629 195.162 104.877 196.014C105.583 198.492 107.134 200.154 109.821 200.74C110.775 200.949 111.722 201.215 112.924 201.515C112.275 201.745 111.853 201.913 111.416 202.038C110.593 202.283 109.763 202.499 108.94 202.737C107.025 203.295 105.816 204.566 105.146 206.325C104.833 207.155 104.629 208.021 104.374 208.873C104.279 209.187 104.177 209.501 103.974 210.15C103.741 209.578 103.617 209.327 103.544 209.068C103.253 208.105 103.049 207.114 102.685 206.178C102.037 204.482 100.835 203.274 98.9852 202.737C98.2206 202.513 97.456 202.297 96.6913 202.073C96.2325 201.941 95.7737 201.794 94.98 201.55C96.2107 201.222 97.1064 200.942 98.0313 200.747C100.799 200.161 102.357 198.436 103.107 195.909C103.355 195.079 103.435 194.192 104.054 193.082L104.039 193.089Z" fill="white"/>
</g>
<defs>
<filter id="filter0_i_3485_287601" x="142.783" y="105.822" width="105.323" height="105.595" filterUnits="userSpaceOnUse" color-interpolation-filters="sRGB">
<feFlood flood-opacity="0" result="BackgroundImageFix"/>
<feBlend mode="normal" in="SourceGraphic" in2="BackgroundImageFix" result="shape"/>
<feColorMatrix in="SourceAlpha" type="matrix" values="0 0 0 0 0 0 0 0 0 0 0 0 0 0 0 0 0 0 127 0" result="hardAlpha"/>
<feOffset dy="0.311688"/>
<feGaussianBlur stdDeviation="0.25974"/>
<feComposite in2="hardAlpha" operator="arithmetic" k2="-1" k3="1"/>
<feColorMatrix type="matrix" values="0 0 0 0 0.9375 0 0 0 0 0.505137 0 0 0 0 0 0 0 0 1 0"/>
<feBlend mode="normal" in2="shape" result="effect1_innerShadow_3485_287601"/>
</filter>
<filter id="filter1_d_3485_287601" x="153.263" y="117.252" width="82.1079" height="80.3711" filterUnits="userSpaceOnUse" color-interpolation-filters="sRGB">
<feFlood flood-opacity="0" result="BackgroundImageFix"/>
<feColorMatrix in="SourceAlpha" type="matrix" values="0 0 0 0 0 0 0 0 0 0 0 0 0 0 0 0 0 0 127 0" result="hardAlpha"/>
<feOffset/>
<feGaussianBlur stdDeviation="2"/>
<feComposite in2="hardAlpha" operator="out"/>
<feColorMatrix type="matrix" values="0 0 0 0 0 0 0 0 0 0 0 0 0 0 0 0 0 0 0.12 0"/>
<feBlend mode="normal" in2="BackgroundImageFix" result="effect1_dropShadow_3485_287601"/>
<feBlend mode="normal" in="SourceGraphic" in2="effect1_dropShadow_3485_287601" result="shape"/>
</filter>
<filter id="filter2_d_3485_287601" x="162.313" y="107.03" width="22.0726" height="21.5162" filterUnits="userSpaceOnUse" color-interpolation-filters="sRGB">
<feFlood flood-opacity="0" result="BackgroundImageFix"/>
<feColorMatrix in="SourceAlpha" type="matrix" values="0 0 0 0 0 0 0 0 0 0 0 0 0 0 0 0 0 0 127 0" result="hardAlpha"/>
<feOffset/>
<feGaussianBlur stdDeviation="0.36"/>
<feComposite in2="hardAlpha" operator="out"/>
<feColorMatrix type="matrix" values="0 0 0 0 0.996078 0 0 0 0 0.658824 0 0 0 0 0.196078 0 0 0 1 0"/>
<feBlend mode="normal" in2="BackgroundImageFix" result="effect1_dropShadow_3485_287601"/>
<feBlend mode="normal" in="SourceGraphic" in2="effect1_dropShadow_3485_287601" result="shape"/>
</filter>
<filter id="filter3_d_3485_287601" x="233.38" y="158.923" width="19.7476" height="19.19" filterUnits="userSpaceOnUse" color-interpolation-filters="sRGB">
<feFlood flood-opacity="0" result="BackgroundImageFix"/>
<feColorMatrix in="SourceAlpha" type="matrix" values="0 0 0 0 0 0 0 0 0 0 0 0 0 0 0 0 0 0 127 0" result="hardAlpha"/>
<feOffset/>
<feGaussianBlur stdDeviation="0.36"/>
<feComposite in2="hardAlpha" operator="out"/>
<feColorMatrix type="matrix" values="0 0 0 0 0.996078 0 0 0 0 0.658824 0 0 0 0 0.196078 0 0 0 1 0"/>
<feBlend mode="normal" in2="BackgroundImageFix" result="effect1_dropShadow_3485_287601"/>
<feBlend mode="normal" in="SourceGraphic" in2="effect1_dropShadow_3485_287601" result="shape"/>
</filter>
<filter id="filter4_d_3485_287601" x="165.11" y="198.21" width="13.3546" height="12.7877" filterUnits="userSpaceOnUse" color-interpolation-filters="sRGB">
<feFlood flood-opacity="0" result="BackgroundImageFix"/>
<feColorMatrix in="SourceAlpha" type="matrix" values="0 0 0 0 0 0 0 0 0 0 0 0 0 0 0 0 0 0 127 0" result="hardAlpha"/>
<feOffset/>
<feGaussianBlur stdDeviation="0.36"/>
<feComposite in2="hardAlpha" operator="out"/>
<feColorMatrix type="matrix" values="0 0 0 0 0.996078 0 0 0 0 0.658824 0 0 0 0 0.196078 0 0 0 1 0"/>
<feBlend mode="normal" in2="BackgroundImageFix" result="effect1_dropShadow_3485_287601"/>
<feBlend mode="normal" in="SourceGraphic" in2="effect1_dropShadow_3485_287601" result="shape"/>
</filter>
<filter id="filter5_i_3485_287601" x="49.6748" y="62.7344" width="140.251" height="140.511" filterUnits="userSpaceOnUse" color-interpolation-filters="sRGB">
<feFlood flood-opacity="0" result="BackgroundImageFix"/>
<feBlend mode="normal" in="SourceGraphic" in2="BackgroundImageFix" result="shape"/>
<feColorMatrix in="SourceAlpha" type="matrix" values="0 0 0 0 0 0 0 0 0 0 0 0 0 0 0 0 0 0 127 0" result="hardAlpha"/>
<feOffset dy="0.311688"/>
<feGaussianBlur stdDeviation="0.25974"/>
<feComposite in2="hardAlpha" operator="arithmetic" k2="-1" k3="1"/>
<feColorMatrix type="matrix" values="0 0 0 0 0.9375 0 0 0 0 0.505137 0 0 0 0 0 0 0 0 1 0"/>
<feBlend mode="normal" in2="shape" result="effect1_innerShadow_3485_287601"/>
</filter>
<filter id="filter6_d_3485_287601" x="64.9573" y="79.2793" width="106.685" height="104.373" filterUnits="userSpaceOnUse" color-interpolation-filters="sRGB">
<feFlood flood-opacity="0" result="BackgroundImageFix"/>
<feColorMatrix in="SourceAlpha" type="matrix" values="0 0 0 0 0 0 0 0 0 0 0 0 0 0 0 0 0 0 127 0" result="hardAlpha"/>
<feOffset/>
<feGaussianBlur stdDeviation="2"/>
<feComposite in2="hardAlpha" operator="out"/>
<feColorMatrix type="matrix" values="0 0 0 0 0 0 0 0 0 0 0 0 0 0 0 0 0 0 0.12 0"/>
<feBlend mode="normal" in2="BackgroundImageFix" result="effect1_dropShadow_3485_287601"/>
<feBlend mode="normal" in="SourceGraphic" in2="effect1_dropShadow_3485_287601" result="shape"/>
</filter>
<filter id="filter7_d_3485_287601" x="75.9216" y="64.5788" width="28.9151" height="28.1744" filterUnits="userSpaceOnUse" color-interpolation-filters="sRGB">
<feFlood flood-opacity="0" result="BackgroundImageFix"/>
<feColorMatrix in="SourceAlpha" type="matrix" values="0 0 0 0 0 0 0 0 0 0 0 0 0 0 0 0 0 0 127 0" result="hardAlpha"/>
<feOffset/>
<feGaussianBlur stdDeviation="0.36"/>
<feComposite in2="hardAlpha" operator="out"/>
<feColorMatrix type="matrix" values="0 0 0 0 0.996078 0 0 0 0 0.658824 0 0 0 0 0.196078 0 0 0 1 0"/>
<feBlend mode="normal" in2="BackgroundImageFix" result="effect1_dropShadow_3485_287601"/>
<feBlend mode="normal" in="SourceGraphic" in2="effect1_dropShadow_3485_287601" result="shape"/>
</filter>
<filter id="filter8_d_3485_287601" x="170.557" y="133.682" width="25.8194" height="25.0748" filterUnits="userSpaceOnUse" color-interpolation-filters="sRGB">
<feFlood flood-opacity="0" result="BackgroundImageFix"/>
<feColorMatrix in="SourceAlpha" type="matrix" values="0 0 0 0 0 0 0 0 0 0 0 0 0 0 0 0 0 0 127 0" result="hardAlpha"/>
<feOffset/>
<feGaussianBlur stdDeviation="0.36"/>
<feComposite in2="hardAlpha" operator="out"/>
<feColorMatrix type="matrix" values="0 0 0 0 0.996078 0 0 0 0 0.658824 0 0 0 0 0.196078 0 0 0 1 0"/>
<feBlend mode="normal" in2="BackgroundImageFix" result="effect1_dropShadow_3485_287601"/>
<feBlend mode="normal" in="SourceGraphic" in2="effect1_dropShadow_3485_287601" result="shape"/>
</filter>
<filter id="filter9_d_3485_287601" x="79.6452" y="185.997" width="17.306" height="16.5513" filterUnits="userSpaceOnUse" color-interpolation-filters="sRGB">
<feFlood flood-opacity="0" result="BackgroundImageFix"/>
<feColorMatrix in="SourceAlpha" type="matrix" values="0 0 0 0 0 0 0 0 0 0 0 0 0 0 0 0 0 0 127 0" result="hardAlpha"/>
<feOffset/>
<feGaussianBlur stdDeviation="0.36"/>
<feComposite in2="hardAlpha" operator="out"/>
<feColorMatrix type="matrix" values="0 0 0 0 0.996078 0 0 0 0 0.658824 0 0 0 0 0.196078 0 0 0 1 0"/>
<feBlend mode="normal" in2="BackgroundImageFix" result="effect1_dropShadow_3485_287601"/>
<feBlend mode="normal" in="SourceGraphic" in2="effect1_dropShadow_3485_287601" result="shape"/>
</filter>
<filter id="filter10_i_3485_287601" x="73.0977" y="63.1035" width="155.802" height="156.114" filterUnits="userSpaceOnUse" color-interpolation-filters="sRGB">
<feFlood flood-opacity="0" result="BackgroundImageFix"/>
<feBlend mode="normal" in="SourceGraphic" in2="BackgroundImageFix" result="shape"/>
<feColorMatrix in="SourceAlpha" type="matrix" values="0 0 0 0 0 0 0 0 0 0 0 0 0 0 0 0 0 0 127 0" result="hardAlpha"/>
<feOffset dy="0.311688"/>
<feGaussianBlur stdDeviation="0.25974"/>
<feComposite in2="hardAlpha" operator="arithmetic" k2="-1" k3="1"/>
<feColorMatrix type="matrix" values="0 0 0 0 0.9375 0 0 0 0 0.505137 0 0 0 0 0 0 0 0 1 0"/>
<feBlend mode="normal" in2="shape" result="effect1_innerShadow_3485_287601"/>
</filter>
<filter id="filter11_d_3485_287601" x="89.9326" y="87.7852" width="117.909" height="102.213" filterUnits="userSpaceOnUse" color-interpolation-filters="sRGB">
<feFlood flood-opacity="0" result="BackgroundImageFix"/>
<feColorMatrix in="SourceAlpha" type="matrix" values="0 0 0 0 0 0 0 0 0 0 0 0 0 0 0 0 0 0 127 0" result="hardAlpha"/>
<feOffset/>
<feGaussianBlur stdDeviation="2"/>
<feComposite in2="hardAlpha" operator="out"/>
<feColorMatrix type="matrix" values="0 0 0 0 0 0 0 0 0 0 0 0 0 0 0 0 0 0 0.12 0"/>
<feBlend mode="normal" in2="BackgroundImageFix" result="effect1_dropShadow_3485_287601"/>
<feBlend mode="normal" in="SourceGraphic" in2="effect1_dropShadow_3485_287601" result="shape"/>
</filter>
<filter id="filter12_d_3485_287601" x="113.813" y="60.0437" width="32.513" height="31.6373" filterUnits="userSpaceOnUse" color-interpolation-filters="sRGB">
<feFlood flood-opacity="0" result="BackgroundImageFix"/>
<feColorMatrix in="SourceAlpha" type="matrix" values="0 0 0 0 0 0 0 0 0 0 0 0 0 0 0 0 0 0 127 0" result="hardAlpha"/>
<feOffset/>
<feGaussianBlur stdDeviation="0.36"/>
<feComposite in2="hardAlpha" operator="out"/>
<feColorMatrix type="matrix" values="0 0 0 0 0.996078 0 0 0 0 0.658824 0 0 0 0 0.196078 0 0 0 1 0"/>
<feBlend mode="normal" in2="BackgroundImageFix" result="effect1_dropShadow_3485_287601"/>
<feBlend mode="normal" in="SourceGraphic" in2="effect1_dropShadow_3485_287601" result="shape"/>
</filter>
<filter id="filter13_d_3485_287601" x="203.244" y="154.725" width="29.0118" height="28.1373" filterUnits="userSpaceOnUse" color-interpolation-filters="sRGB">
<feFlood flood-opacity="0" result="BackgroundImageFix"/>
<feColorMatrix in="SourceAlpha" type="matrix" values="0 0 0 0 0 0 0 0 0 0 0 0 0 0 0 0 0 0 127 0" result="hardAlpha"/>
<feOffset/>
<feGaussianBlur stdDeviation="0.36"/>
<feComposite in2="hardAlpha" operator="out"/>
<feColorMatrix type="matrix" values="0 0 0 0 0.996078 0 0 0 0 0.658824 0 0 0 0 0.196078 0 0 0 1 0"/>
<feBlend mode="normal" in2="BackgroundImageFix" result="effect1_dropShadow_3485_287601"/>
<feBlend mode="normal" in="SourceGraphic" in2="effect1_dropShadow_3485_287601" result="shape"/>
</filter>
<filter id="filter14_d_3485_287601" x="94.26" y="192.362" width="19.3836" height="18.5084" filterUnits="userSpaceOnUse" color-interpolation-filters="sRGB">
<feFlood flood-opacity="0" result="BackgroundImageFix"/>
<feColorMatrix in="SourceAlpha" type="matrix" values="0 0 0 0 0 0 0 0 0 0 0 0 0 0 0 0 0 0 127 0" result="hardAlpha"/>
<feOffset/>
<feGaussianBlur stdDeviation="0.36"/>
<feComposite in2="hardAlpha" operator="out"/>
<feColorMatrix type="matrix" values="0 0 0 0 0.996078 0 0 0 0 0.658824 0 0 0 0 0.196078 0 0 0 1 0"/>
<feBlend mode="normal" in2="BackgroundImageFix" result="effect1_dropShadow_3485_287601"/>
<feBlend mode="normal" in="SourceGraphic" in2="effect1_dropShadow_3485_287601" result="shape"/>
</filter>
<clipPath id="clip0_3485_287601">
<rect width="311" height="295" fill="white"/>
</clipPath>
<clipPath id="clip1_3485_287601">
<rect width="125.736" height="125.736" fill="white" transform="translate(122 108.336) rotate(-10.6963)"/>
</clipPath>
<clipPath id="clip2_3485_287601">
<rect width="167.435" height="167.435" fill="white" transform="translate(22 66.0781) rotate(-10.6963)"/>
</clipPath>
</defs>
</svg>
