<svg id='juicyreddit' width="32" height="32" viewBox="0 0 32 32" fill="none" xmlns="http://www.w3.org/2000/svg">
<rect x="1.065" y="1.065" width="29.87" height="29.87" rx="14.935" fill="#EF4A23" stroke="#392B5A" stroke-width="1.87"/>
<path d="M16.3305 24.6145C14.2095 24.6019 12.2208 24.1221 10.4635 22.8874C9.38414 22.1291 8.58265 21.152 8.26151 19.8362C8.15647 19.4062 8.15045 18.9702 8.18273 18.5336C8.19367 18.3815 8.16632 18.2935 8.02079 18.2081C6.99062 17.6003 6.69246 16.3021 7.34623 15.3217C8.00219 14.338 9.33982 14.1186 10.2929 14.8517C10.4269 14.9546 10.5051 14.9524 10.6359 14.8649C12.1415 13.8604 13.8177 13.379 15.61 13.2827C15.9016 13.2668 16.0181 13.1951 16.0783 12.8866C16.3606 11.4434 16.6812 10.0072 16.9854 8.56841C17.0806 8.1176 17.1971 8.03773 17.6424 8.13128C18.6376 8.34027 19.6349 8.54105 20.6274 8.76317C20.8041 8.80256 20.8774 8.76372 20.9769 8.62421C21.3101 8.15809 21.7719 7.93761 22.3474 8.0153C22.9437 8.09572 23.3447 8.44148 23.5411 9.00225C23.8081 9.7627 23.3595 10.6085 22.581 10.8492C21.7992 11.091 20.9534 10.6255 20.7669 9.81084C20.7078 9.55317 20.5885 9.49134 20.3642 9.44703C19.5452 9.28454 18.7295 9.10346 17.9132 8.92511C17.7524 8.89009 17.6627 8.88353 17.6189 9.10018C17.3519 10.417 17.0669 11.7306 16.7769 13.0425C16.7228 13.287 16.8667 13.2663 17.0149 13.2739C18.3635 13.3439 19.6541 13.6514 20.8812 14.2187C21.2778 14.402 21.6603 14.6126 22.0159 14.8665C22.1428 14.9573 22.2238 14.96 22.3594 14.8561C23.5499 13.9446 25.2147 14.5164 25.5944 15.9585C25.8209 16.818 25.4324 17.7414 24.6468 18.2092C24.5478 18.2683 24.4466 18.2989 24.4614 18.4652C24.6238 20.2745 23.7966 21.6225 22.436 22.6981C21.1487 23.7157 19.6492 24.2365 18.0462 24.492C17.4789 24.5822 16.9066 24.6233 16.3305 24.6145ZM13.0781 19.3619C13.8894 19.3772 14.5612 18.7453 14.5766 17.9526C14.5924 17.1544 13.9463 16.4711 13.1607 16.4541C12.3565 16.4366 11.6841 17.0756 11.6693 17.8706C11.654 18.6857 12.2782 19.3466 13.0781 19.3619ZM20.9852 17.9078C20.9835 17.1046 20.3297 16.4514 19.5299 16.4541C18.7383 16.4563 18.0763 17.1227 18.0768 17.916C18.0774 18.7147 18.7339 19.3641 19.5386 19.363C20.3462 19.3608 20.9873 18.7164 20.9852 17.9078ZM16.2966 22.8452C16.8579 22.8316 17.3935 22.7861 17.9182 22.6696C18.5796 22.523 19.2098 22.2976 19.7225 21.8282C19.9222 21.6455 19.9522 21.4201 19.8062 21.2538C19.6524 21.0787 19.4429 21.0716 19.2295 21.2592C18.915 21.536 18.5451 21.6953 18.1523 21.82C17.7157 21.9584 17.2682 22.041 16.8147 22.0585C15.5925 22.105 14.3933 22.0377 13.3795 21.2171C13.1968 21.0688 12.9763 21.0924 12.8472 21.2625C12.7126 21.4392 12.7285 21.6203 12.8839 21.7784C13.1032 22.0011 13.3631 22.1679 13.6438 22.302C14.4901 22.7063 15.3983 22.8075 16.2966 22.8452Z" fill="#FFFDFC"/>
</svg>
