<svg id="privacy_icon" width="92" height="92" viewBox="0 0 92 92" fill="none" xmlns="http://www.w3.org/2000/svg">
<path d="M16.0617 17.1352C13.3017 18.3618 11.5 21.1218 11.5 24.1502V42.1668C11.5 63.4418 26.22 83.3368 46 88.1668C65.78 83.3368 80.5 63.4418 80.5 42.1668V24.1502C80.5 21.1218 78.6983 18.3618 75.9383 17.1352L49.105 5.2135C47.1117 4.33183 44.85 4.33183 42.895 5.2135L16.0617 17.1352ZM46 26.8335C48.1083 26.8335 49.8333 28.5585 49.8333 30.6668C49.8333 32.7752 48.1083 34.5002 46 34.5002C43.8917 34.5002 42.1667 32.7752 42.1667 30.6668C42.1667 28.5585 43.8917 26.8335 46 26.8335ZM46 42.1668C48.1083 42.1668 49.8333 43.8918 49.8333 46.0002V61.3335C49.8333 63.4418 48.1083 65.1668 46 65.1668C43.8917 65.1668 42.1667 63.4418 42.1667 61.3335V46.0002C42.1667 43.8918 43.8917 42.1668 46 42.1668Z" fill="white"/>
</svg>
