<svg id ="success_payment" width="122" height="116" viewBox="0 0 122 116" fill="none" xmlns="http://www.w3.org/2000/svg">
<g clip-path="url(#clip0_3485_280078)">
<mask id="mask0_3485_280078" style="mask-type:luminance" maskUnits="userSpaceOnUse" x="0" y="0" width="122" height="116">
<path d="M122 0H0V116H122V0Z" fill="white"/>
</mask>
<g mask="url(#mask0_3485_280078)">
<g opacity="0.908386">
<path d="M101.378 17.5449C101.978 17.5449 102.466 18.2239 102.466 19.0603C102.466 19.8966 101.978 20.5756 101.378 20.5756C100.777 20.5756 100.29 19.8966 100.29 19.0603C100.29 18.2239 100.777 17.5449 101.378 17.5449Z" fill="#EF0583"/>
</g>
<path d="M99.0324 92.3145C99.4872 92.3145 99.8564 92.9787 99.8564 93.7968C99.8564 94.6149 99.4872 95.2791 99.0324 95.2791C98.5777 95.2791 98.2085 94.6149 98.2085 93.7968C98.2085 92.9787 98.5777 92.3145 99.0324 92.3145Z" fill="#EF0583"/>
<path d="M9.09504 43.7637C9.38127 43.7637 9.61366 44.589 9.61366 45.6056C9.61366 46.6221 9.38127 47.4475 9.09504 47.4475C8.80881 47.4475 8.57642 46.6221 8.57642 45.6056C8.57642 44.589 8.80881 43.7637 9.09504 43.7637Z" fill="#2AFF28"/>
<g opacity="0.844578">
<path d="M28.9082 88.0625C28.9397 88.0625 28.9652 88.5164 28.9652 89.0754C28.9652 89.6343 28.9397 90.0882 28.9082 90.0882C28.8767 90.0882 28.8511 89.6343 28.8511 89.0754C28.8511 88.5164 28.8767 88.0625 28.9082 88.0625Z" fill="#EF0583"/>
</g>
<path d="M42.3598 12.8535C43.163 12.8535 43.8151 13.5259 43.8151 14.354C43.8151 15.182 43.163 15.8544 42.3598 15.8544C41.5566 15.8544 40.9045 15.182 40.9045 14.354C40.9045 13.5259 41.5566 12.8535 42.3598 12.8535Z" fill="#EF0583"/>
<path d="M83.7755 7.64844C84.7574 7.64844 85.5546 8.29933 85.5546 9.10099C85.5546 9.90265 84.7574 10.5535 83.7755 10.5535C82.7936 10.5535 81.9963 9.90265 81.9963 9.10099C81.9963 8.29933 82.7936 7.64844 83.7755 7.64844Z" fill="#EF0583"/>
<g opacity="0.989042">
<path d="M24.3644 31.3516C24.8862 31.3516 25.3098 31.8667 25.3098 32.5011C25.3098 33.1356 24.8862 33.6507 24.3644 33.6507C23.8426 33.6507 23.4189 33.1356 23.4189 32.5011C23.4189 31.8667 23.8426 31.3516 24.3644 31.3516Z" fill="#EF0583"/>
</g>
<path d="M84.3039 80.6035C84.8511 80.6035 85.2953 81.1437 85.2953 81.8089C85.2953 82.4742 84.8511 83.0143 84.3039 83.0143C83.7567 83.0143 83.3125 82.4742 83.3125 81.8089C83.3125 81.1437 83.7567 80.6035 84.3039 80.6035Z" fill="#EF0583"/>
<path d="M67.4072 32.1221L65.6376 31.1454L64.0404 27.243L65.81 28.2197L67.4072 32.1221Z" fill="#EFC905"/>
<path d="M71.6301 77.4128L69.2926 76.8015L68.0524 72.7752L70.39 73.3865L71.6301 77.4128Z" fill="#EFC905"/>
<g opacity="0.989042">
<path d="M4.28141 105.732L2.30636 104.818L0.749484 100.755L2.72453 101.669L4.28141 105.732Z" fill="#2AFF28"/>
</g>
<path d="M21.4345 39.0782L19.4535 38.084L17.7926 33.8804L19.7736 34.8746L21.4345 39.0782Z" fill="#EFC905"/>
<path d="M98.49 62.5469L96.3754 62.0191L95.2858 58.4185L97.4004 58.9464L98.49 62.5469Z" fill="#EFC905"/>
<path d="M37.9564 62.0641L36.0247 61.8298L35.3468 58.9529L37.2785 59.1872L37.9564 62.0641Z" fill="#EFC905"/>
<path d="M58.4886 41.9342L61.5766 44.2639L58.9745 45.7784L58.4886 41.9342Z" fill="#2AB6FF"/>
<path d="M57.3211 106.007L59.9805 107.73L57.4941 109.177L57.3211 106.007Z" fill="#2AB6FF"/>
<path d="M96.5084 23.8969L99.2241 24.9625L96.0843 26.7899L96.5084 23.8969Z" fill="#2AB6FF"/>
<path d="M21.7523 61.4433L24.5732 63.4096L22.056 64.8746L21.7523 61.4433Z" fill="#2AB6FF"/>
<path d="M85.6333 92.6007L87.656 93.0066L84.9816 94.563L85.6333 92.6007Z" fill="#2AB6FF"/>
<path d="M32.6202 41.2963L34.6775 41.4996L31.7759 43.1882L32.6202 41.2963Z" fill="#2AFF28"/>
<path d="M101.184 109.014C101.163 109.644 100.492 110.133 99.6878 110.105C98.8836 110.077 98.2484 109.542 98.2703 108.911C98.2922 108.281 98.9629 107.792 99.767 107.82C100.571 107.848 101.206 108.383 101.184 109.014Z" fill="#EF0583"/>
<g opacity="0.844578">
<path d="M28.4813 108.226C28.4599 108.84 28.1497 109.328 27.7891 109.316C27.4285 109.303 27.1531 108.794 27.1745 108.18C27.1959 107.566 27.506 107.078 27.8666 107.09C28.2272 107.103 28.5026 107.612 28.4813 108.226Z" fill="#EF0583"/>
</g>
<g opacity="0.989042">
<path d="M79.8484 15.7903C79.8361 16.1477 79.3455 16.421 78.7536 16.4001C78.1617 16.3793 77.6911 16.0721 77.7035 15.7146C77.7158 15.3572 78.2065 15.0839 78.7984 15.1048C79.3903 15.1256 79.8608 15.4328 79.8484 15.7903Z" fill="#EF0583"/>
</g>
<path d="M36.8256 37.5417C36.7969 38.37 36.2254 39.0231 35.5503 38.9994C34.8751 38.9757 34.3503 38.2839 34.379 37.4557C34.4077 36.6275 34.9792 35.9743 35.6544 35.998C36.3295 36.0217 36.8544 36.7135 36.8256 37.5417Z" fill="#2AFF28"/>
<path d="M108.445 53.2151C108.416 54.0593 107.878 54.7265 107.244 54.7043C106.61 54.682 106.119 53.9785 106.148 53.1343C106.177 52.2902 106.716 51.6229 107.35 51.6452C107.984 51.6675 108.475 52.3709 108.445 53.2151Z" fill="#EF0583"/>
<g opacity="0.957521">
<path d="M118.126 93.7963C118.098 94.6011 117.677 95.2407 117.186 95.2235C116.695 95.2064 116.319 94.5389 116.347 93.734C116.375 92.9292 116.797 92.2896 117.287 92.3068C117.778 92.324 118.154 92.9914 118.126 93.7963Z" fill="#2AFF28"/>
</g>
<g opacity="0.769032">
<path d="M89.8527 33.2998C89.8316 33.905 89.5037 34.3856 89.1209 34.3722C88.7381 34.3588 88.4444 33.8565 88.4655 33.2512C88.4866 32.646 88.8145 32.1654 89.1973 32.1788C89.5801 32.1922 89.8737 32.6945 89.8527 33.2998Z" fill="#EF0583"/>
</g>
<g opacity="0.908386">
<path d="M40.6333 94.9548C40.6156 95.4677 39.803 95.856 38.82 95.8214C37.837 95.7868 37.0533 95.3423 37.0711 94.8294C37.0888 94.3164 37.9014 93.9281 38.8844 93.9627C39.8674 93.9973 40.6511 94.4418 40.6333 94.9548Z" fill="#EF0583"/>
</g>
<path d="M91.1302 79.7347L89.672 79.0343L88.4896 75.9922L89.9478 76.6926L91.1302 79.7347Z" fill="#2AFF28"/>
<path d="M48.9629 80.6757L47.5518 80.3566L46.8672 78.0092L48.2783 78.3282L48.9629 80.6757Z" fill="#EFC905"/>
<g opacity="0.989042">
<path d="M23.891 13.5861L21.623 13.7041L21.3305 10.9798L23.5985 10.8619L23.891 13.5861Z" fill="#2AFF28"/>
</g>
<g opacity="0.957521">
<path d="M87.8962 27.7621L86.4437 27.9673L86.4226 26.4383L87.875 26.2331L87.8962 27.7621Z" fill="#EFC905"/>
</g>
<g opacity="0.769032">
<path d="M62.5756 112.362L61.2142 111.864L60.3105 109.284L61.6719 109.782L62.5756 112.362Z" fill="#2AFF28"/>
</g>
<path d="M61.5699 47.5779L59.7995 47.3216L59.1249 44.6156L60.8954 44.872L61.5699 47.5779Z" fill="#EFC905"/>
<g opacity="0.957521">
<path d="M79.9655 66.6537L81.7498 68.0521L80.2915 68.9009L79.9655 66.6537Z" fill="#2AB6FF"/>
</g>
<g opacity="0.989042">
<path d="M14.5543 61.9236L15.8411 62.4409L14.3639 63.3006L14.5543 61.9236Z" fill="#2AFF28"/>
</g>
<path d="M96.0696 107.031L98.1874 107.284L95.2386 109L96.0696 107.031Z" fill="#2AB6FF"/>
<path d="M57.1562 27.3246L59.1711 27.4974L56.3065 29.1645L57.1562 27.3246Z" fill="#2AFF28"/>
<path d="M26.5761 93.2791L29.5865 93.4173L25.2027 95.9685L26.5761 93.2791Z" fill="#2AB6FF"/>
<path d="M81.568 41.9951L84.2121 43.2803L81.3696 44.9347L81.568 41.9951Z" fill="#2AFF28"/>
<path d="M32.3732 76.7224C32.012 77.3584 31.627 77.9568 31.2322 78.4936" stroke="#FF1A61" stroke-width="5.06965"/>
<path d="M72.4671 92.9667C73.3367 93.2979 74.1108 93.7377 74.7363 94.3438" stroke="#FFE41D" stroke-width="2.61821"/>
<path d="M31.5321 23.4177C30.6334 22.4264 29.8322 21.1329 29.1531 19.459" stroke="#B91DFF" stroke-width="4.49489"/>
<path d="M83.7711 61.3653C84.5728 61.3848 85.4727 61.5754 86.5015 61.9824" stroke="#78FF1D" stroke-width="0.621365"/>
<path d="M11.985 36.7306C10.1656 37.1012 8.28022 37.3345 6.46847 37.4243" stroke="#0F3FBC" stroke-width="5.94094"/>
<path d="M90.2637 43.4215C90.1855 41.9012 90.139 40.3924 90.3171 39.0195" stroke="#FFE41D" stroke-width="1.6566"/>
<path d="M29.6181 83.5967C30.0685 86.1554 29.9905 88.6265 28.6472 90.9199" stroke="#B91DFF" stroke-width="4.60022"/>
<path d="M59.7666 36.7554C58.4492 35.8992 57.381 34.8876 56.9199 33.375" stroke="#78FF1D" stroke-width="2.7577"/>
</g>
</g>
<path d="M54.0666 61.0673L47.5333 54.534C47.1333 54.134 46.6444 53.934 46.0666 53.934C45.4888 53.934 44.9777 54.1562 44.5333 54.6007C44.1333 55.0007 43.9333 55.4895 43.9333 56.0673C43.9333 56.6451 44.1333 57.134 44.5333 57.534L52.6666 65.734C53.0666 66.134 53.5333 66.334 54.0666 66.334C54.5999 66.334 55.0666 66.134 55.4666 65.734L71.3999 49.8007C71.8444 49.3562 72.0666 48.8451 72.0666 48.2673C72.0666 47.6895 71.8444 47.1784 71.3999 46.734C70.9555 46.334 70.4333 46.1451 69.8333 46.1673C69.2333 46.1895 68.7333 46.4007 68.3333 46.8007L54.0666 61.0673ZM57.9999 81.6673C54.3555 81.6673 50.911 80.9673 47.6666 79.5673C44.4221 78.1673 41.5888 76.2562 39.1666 73.834C36.7444 71.4118 34.8333 68.5784 33.4333 65.334C32.0333 62.0895 31.3333 58.6451 31.3333 55.0007C31.3333 51.3118 32.0333 47.8451 33.4333 44.6007C34.8333 41.3562 36.7444 38.534 39.1666 36.134C41.5888 33.734 44.4221 31.834 47.6666 30.434C50.911 29.034 54.3555 28.334 57.9999 28.334C61.6888 28.334 65.1555 29.034 68.3999 30.434C71.6444 31.834 74.4666 33.734 76.8666 36.134C79.2666 38.534 81.1666 41.3562 82.5666 44.6007C83.9666 47.8451 84.6666 51.3118 84.6666 55.0007C84.6666 58.6451 83.9666 62.0895 82.5666 65.334C81.1666 68.5784 79.2666 71.4118 76.8666 73.834C74.4666 76.2562 71.6444 78.1673 68.3999 79.5673C65.1555 80.9673 61.6888 81.6673 57.9999 81.6673Z" fill="#00AE26"/>
<defs>
<clipPath id="clip0_3485_280078">
<rect width="122" height="116" fill="white"/>
</clipPath>
</defs>
</svg>
