<svg id='support_fans' width="92" height="92" viewBox="0 0 92 92" fill="none" xmlns="http://www.w3.org/2000/svg">
<path d="M36.0413 52.4982C38.2655 54.4402 39.6341 57.6329 39.6341 61.4574C39.6341 64.1681 38.986 66.7459 37.9109 68.8824C39.5069 69.7492 43.5955 72.1166 46.0004 74.8426C48.4232 72.0967 52.5595 69.7112 54.0885 68.8818C53.0139 66.7459 52.3658 64.1675 52.3658 61.4574C52.3658 57.6331 53.7344 54.4402 55.9586 52.4982L64.3965 22.8436C64.801 21.4219 64.0048 19.923 62.6218 19.5025C61.25 19.0854 59.8266 19.8535 59.3825 21.2515L53.8954 38.5356C54.066 39.3737 54.1577 40.2631 54.1577 41.1945C54.1577 47.4429 50.346 52.9238 46 52.9238C41.6545 52.9238 37.8424 47.4429 37.8424 41.1945C37.8424 40.2626 37.9336 39.3732 38.1047 38.5356L32.6176 21.2515C32.1739 19.8535 30.7501 19.0854 29.3783 19.5025C27.9953 19.923 27.1992 21.4214 27.6036 22.8436L36.0413 52.4982Z" fill="white"/>
<path d="M30.6179 51.7617C26.1243 51.7617 22.863 55.839 22.863 61.4566C22.863 67.5783 26.5594 73.1539 30.6179 73.1539C34.6764 73.1539 38.3728 67.5788 38.3728 61.4566C38.3728 55.8391 35.1115 51.7617 30.6179 51.7617Z" fill="white"/>
<path d="M45.9998 32.5562C42.0035 32.5562 39.1033 36.1882 39.1033 41.1924C39.1033 46.6528 42.3903 51.6262 45.9998 51.6262C49.6092 51.6262 52.8962 46.6528 52.8962 41.1924C52.8968 36.1887 49.9961 32.5562 45.9998 32.5562Z" fill="white"/>
<path d="M61.3818 51.7617C56.8882 51.7617 53.627 55.839 53.627 61.4566C53.627 67.5783 57.3233 73.1539 61.3818 73.1539C65.4403 73.1539 69.1367 67.5788 69.1367 61.4566C69.1367 55.8391 65.8754 51.7617 61.3818 51.7617Z" fill="white"/>
<path d="M33.8165 20.8498C33.8165 20.8498 33.8165 20.8498 33.8165 20.8498L34.2318 22.1578C34.479 22.9366 35.2021 23.4657 36.0193 23.4657H55.8912C56.7627 23.4657 57.5338 22.9015 57.7975 22.0709L58.1851 20.8498C58.5258 19.7767 59.2562 18.9542 60.1639 18.497C61.2538 17.948 62.4142 17.0379 62.4142 15.8175V9C62.4142 7.89543 61.5188 7 60.4142 7H31.5874C30.4828 7 29.5874 7.89543 29.5874 9V15.8183C29.5874 17.0384 30.7472 17.9482 31.837 18.4968C32.7451 18.9538 33.4757 19.7763 33.8165 20.8498C33.8165 20.8498 33.8165 20.8498 33.8165 20.8498ZM41.8038 9.94331C41.8037 9.94331 41.8037 9.94329 41.8038 9.94329C43.5122 9.68388 45.0688 11.229 45.7014 11.9631C45.8551 12.1415 46.146 12.1415 46.2997 11.9631C46.9325 11.229 48.4894 9.68373 50.1975 9.94331C52.425 10.2817 53.5441 13.1671 52.0521 16.0513C50.9006 18.2769 47.9619 19.7334 46.6501 20.293C46.2326 20.4712 45.7688 20.4711 45.3513 20.293C44.0395 19.7334 41.1008 18.2768 39.9493 16.0513C38.4568 13.1671 39.5764 10.2819 41.8038 9.94333C41.8038 9.94333 41.8038 9.94331 41.8038 9.94331Z" fill="white"/>
<path d="M14.0325 41.306V37.9468H11.04V40.8922C11.3635 40.8068 11.6999 40.7633 12.0433 40.7633C12.7659 40.7633 13.4451 40.9605 14.0325 41.3061L14.0325 41.306Z" fill="white"/>
<path d="M11.0403 34.4668H14.0328V36.6517H11.0403V34.4668Z" fill="white"/>
<path d="M81.9194 42.904C81.3985 42.3579 80.701 42.0576 79.9564 42.0576C78.495 42.0576 77.289 43.2325 77.2118 44.7325C76.9151 50.4904 76.4007 57.7397 75.6383 59.5788C74.5589 62.1826 69.8116 67.0264 69.2498 67.5939C67.6764 71.6061 64.6673 74.4486 61.3813 74.4486C58.803 74.4486 56.3957 72.6973 54.7181 70.006C53.2621 70.7984 49.054 73.2191 46.8018 75.8648C48.9589 79.062 49.3447 84.1908 49.4134 85.9993H50.9638V79.2941C50.9638 78.9364 51.246 78.6466 51.5942 78.6466C51.9424 78.6466 52.2245 78.9365 52.2245 79.2941V85.9993H70.6692C70.5834 84.3192 70.4605 80.0419 71.2566 77.6617C71.725 76.2615 73.5796 74.0072 75.7277 71.3968C78.1365 68.4695 80.8661 65.1515 81.474 63.116C82.0706 61.1185 82.5191 54.4925 82.7041 44.9362C82.7192 44.1719 82.4402 43.45 81.9193 42.9039L81.9194 42.904Z" fill="white"/>
<path d="M37.2814 70.0054C35.6038 72.6973 33.1962 74.4486 30.6178 74.4486C27.3318 74.4486 24.3227 71.6057 22.7492 67.5939C22.2706 67.1106 17.4515 62.2089 16.3607 59.5788C15.5984 57.7399 15.0839 50.4902 14.7872 44.7325C14.71 43.2325 13.5045 42.0576 12.0426 42.0576C11.298 42.0576 10.6011 42.3585 10.0796 42.904C9.5587 43.4501 9.27974 44.172 9.29477 44.9363C9.47986 54.4922 9.92835 61.1186 10.5249 63.1162C11.1327 65.1518 13.8629 68.4697 16.2712 71.3969C18.4193 74.0073 20.2739 76.2616 20.7423 77.6619C21.5384 80.0419 21.4155 84.3192 21.3297 85.9995L39.7744 86V79.2948C39.7744 78.9371 40.0566 78.6473 40.4047 78.6473C40.7529 78.6473 41.0351 78.9371 41.0351 79.2948V86H48.1472C48.0689 84.1909 47.6574 79.0314 45.5045 76.2424C43.3431 73.4414 38.7738 70.8178 37.2808 70.0061L37.2814 70.0054Z" fill="white"/>
<path d="M14.0324 22.7352C14.0324 21.8877 13.3613 21.1982 12.5361 21.1982C11.711 21.1982 11.0398 21.8876 11.0398 22.7352V33.1707H14.0323L14.0324 22.7352Z" fill="white"/>
<path d="M24.5694 47.172C25.262 46.6694 27.4884 44.9137 27.9927 42.7959C28.3189 41.4249 28.107 40.0462 27.4385 39.1969C27.1848 38.8751 26.7567 38.5004 26.1542 38.5125C25.0426 38.5456 24.1247 40.2693 23.8908 40.8699C23.812 41.0738 23.6376 41.2221 23.4278 41.265C23.2181 41.3069 23.0024 41.2386 22.8533 41.0815C22.4466 40.6556 21.313 39.7088 20.3431 39.7088C20.1849 39.7088 20.0309 39.7342 19.885 39.791C19.3217 40.0108 19.0668 40.5305 18.9526 40.9278C18.6505 41.9748 18.967 43.3326 19.7787 44.4711C21.032 46.2295 23.7428 46.9789 24.5695 47.1719L24.5694 47.172Z" fill="white"/>
<path d="M68.7939 41.074C69.6367 40.982 72.4146 40.5638 73.8599 38.9673C74.7955 37.9341 75.2645 36.6231 75.0842 35.5474C75.0155 35.1391 74.8218 34.5925 74.2875 34.3065C73.303 33.7791 71.7188 34.7958 71.1915 35.2322C71.0257 35.37 70.803 35.4119 70.6002 35.3441C70.398 35.2763 70.2419 35.1082 70.1866 34.8966C70.009 34.2265 69.3063 32.4493 68.2076 32.283C68.1389 32.2725 68.0713 32.2676 68.0064 32.2676C67.5059 32.2676 67.1094 32.5525 66.854 32.8082C66.0938 33.5714 65.7253 34.9155 65.8937 36.3156C66.1523 38.4797 68.1635 40.4916 68.7939 41.074L68.7939 41.074Z" fill="white"/>
</svg>
