<svg id='user_icon' width="92" height="92" viewBox="0 0 92 92" fill="none" xmlns="http://www.w3.org/2000/svg">
<path d="M46 49.8332C55.1847 49.8332 63.5375 52.4935 69.6823 56.2387C72.749 58.117 75.371 60.3212 77.2647 62.717C79.1277 65.0783 80.5 67.8997 80.5 70.9165C80.5 74.1557 78.9245 76.7087 76.6552 78.5295C74.5085 80.2545 71.6757 81.3968 68.6665 82.1942C62.6175 83.7927 54.5445 84.3332 46 84.3332C37.4555 84.3332 29.3825 83.7965 23.3335 82.1942C20.3243 81.3968 17.4915 80.2545 15.3448 78.5295C13.0717 76.7048 11.5 74.1557 11.5 70.9165C11.5 67.8997 12.8723 65.0783 14.7353 62.717C16.629 60.3212 19.2472 58.117 22.3177 56.2387C28.4625 52.4935 36.8192 49.8332 46 49.8332ZM46 7.6665C51.0833 7.6665 55.9584 9.68584 59.5529 13.2803C63.1473 16.8747 65.1667 21.7499 65.1667 26.8332C65.1667 31.9165 63.1473 36.7916 59.5529 40.3861C55.9584 43.9805 51.0833 45.9998 46 45.9998C40.9167 45.9998 36.0416 43.9805 32.4471 40.3861C28.8527 36.7916 26.8333 31.9165 26.8333 26.8332C26.8333 21.7499 28.8527 16.8747 32.4471 13.2803C36.0416 9.68584 40.9167 7.6665 46 7.6665Z" fill="white"/>
</svg>
