<svg id='support_creator' width="92" height="92" viewBox="0 0 92 92" fill="none" xmlns="http://www.w3.org/2000/svg">
<path fill-rule="evenodd" clip-rule="evenodd" d="M52.7811 13.8692V17.3077C52.7811 19.1282 52.0763 20.8745 50.8213 22.1626C49.5663 23.4506 47.8647 24.1734 46.0909 24.1734H46.0842C44.3104 24.1734 42.6089 23.4506 41.3539 22.1626C40.0989 20.8745 39.394 19.1282 39.394 17.3077V13.8692C39.394 10.0757 42.391 7 46.0877 7C49.7843 7 52.7813 10.0758 52.7813 13.8692H52.7811Z" fill="white"/>
<path fill-rule="evenodd" clip-rule="evenodd" d="M36.6866 79.1307L35.0131 82.5653H29.3537C28.4304 82.5653 27.6808 83.3347 27.6808 84.2829C27.6808 85.2305 28.4304 85.9999 29.3537 85.9999H62.8218C63.7452 85.9999 64.4948 85.2305 64.4948 84.2829C64.4948 83.3347 63.7451 82.5653 62.8218 82.5653H57.1625L55.4889 79.1307H70.3512C71.4606 79.1307 72.5245 78.6787 73.3095 77.8731C74.0944 77.0681 74.5342 75.9755 74.5342 74.837V45.6418C74.5342 44.5033 74.0944 43.4108 73.3095 42.6051C72.5245 41.7995 71.4605 41.3481 70.3512 41.3481H21.8229C20.7136 41.3481 19.6497 41.7995 18.8647 42.6051C18.0797 43.4108 17.6399 44.5034 17.6399 45.6418V74.837C17.6399 75.9756 18.0797 77.0681 18.8647 77.8731C19.6496 78.6787 20.7136 79.1307 21.8229 79.1307H36.6866ZM46.0875 56.8041C47.9347 56.8041 49.434 58.3428 49.434 60.2387C49.434 62.1351 47.9347 63.6739 46.0875 63.6739C44.2403 63.6739 42.741 62.1351 42.741 60.2387C42.741 58.3428 44.2403 56.8041 46.0875 56.8041Z" fill="white"/>
<path fill-rule="evenodd" clip-rule="evenodd" d="M29.3531 37.9137H62.8212V36.1961C62.8212 33.919 61.9394 31.7345 60.3712 30.1233C58.8019 28.5144 56.6734 27.6094 54.4541 27.6094H37.7215C35.5022 27.6094 33.3738 28.5145 31.8044 30.1233C30.2361 31.7345 29.3543 33.919 29.3543 36.1961L29.3531 37.9137Z" fill="white"/>
</svg>
