<svg id='juicytiktok' width="32" height="32" viewBox="0 0 32 32" fill="none" xmlns="http://www.w3.org/2000/svg">
<path d="M16 1.065C7.75163 1.065 1.065 7.75163 1.065 16C1.065 24.2484 7.75163 30.935 16 30.935C24.2484 30.935 30.935 24.2484 30.935 16C30.935 7.75163 24.2484 1.065 16 1.065Z" fill="black" stroke="#392B5A" stroke-width="1.87"/>
<path d="M14.6861 14.5123V13.9673C14.4994 13.9424 14.3095 13.9268 14.1135 13.9268C11.7764 13.9237 9.875 15.8267 9.875 18.1688C9.875 19.6046 10.5907 20.8754 11.6862 21.6447C10.9797 20.8879 10.5472 19.8694 10.5472 18.7544C10.5472 16.4465 12.3957 14.5653 14.6861 14.5123Z" fill="#25F4EE"/>
<path d="M14.7886 20.6921C15.8311 20.6921 16.6838 19.8605 16.7212 18.8265L16.7243 9.58554H18.411C18.3767 9.39555 18.358 9.19933 18.358 9H16.0552L16.0521 18.2409C16.0148 19.275 15.1621 20.1065 14.1196 20.1065C13.7959 20.1065 13.491 20.0256 13.2202 19.8823C13.5688 20.3713 14.1414 20.6921 14.7886 20.6921Z" fill="#25F4EE"/>
<path d="M21.5637 12.7215V12.2077C20.9195 12.2077 20.322 12.0177 19.8179 11.6875C20.266 12.2014 20.8728 12.5752 21.5637 12.7215Z" fill="#25F4EE"/>
<path d="M19.8175 11.6883C19.3258 11.1245 19.0302 10.3895 19.0302 9.58594H18.4141C18.5727 10.4642 19.0956 11.218 19.8175 11.6883Z" fill="#FE2C55"/>
<path d="M14.1168 16.229C13.0494 16.229 12.1812 17.098 12.1812 18.1663C12.1812 18.9107 12.6044 19.5585 13.2205 19.8824C12.9903 19.5647 12.8533 19.1754 12.8533 18.7518C12.8533 17.6835 13.7216 16.8146 14.789 16.8146C14.9881 16.8146 15.1811 16.8488 15.3616 16.9049V14.5503C15.1748 14.5254 14.985 14.5098 14.789 14.5098C14.7547 14.5098 14.7236 14.5129 14.6894 14.5129V16.3193C14.5058 16.2633 14.3159 16.229 14.1168 16.229Z" fill="#FE2C55"/>
<path d="M21.5634 12.7217V14.5125C20.3684 14.5125 19.2605 14.1295 18.358 13.4816V18.1691C18.358 20.5081 16.4567 22.4142 14.1165 22.4142C13.214 22.4142 12.3738 22.1277 11.686 21.6449C12.4609 22.4765 13.5656 22.9998 14.7887 22.9998C17.1257 22.9998 19.0302 21.0968 19.0302 18.7546V14.0672C19.9327 14.715 21.0405 15.0981 22.2355 15.0981V12.7933C22.0021 12.7933 21.7781 12.7684 21.5634 12.7217Z" fill="#FE2C55"/>
<path d="M18.3583 18.1697V13.4822C19.2608 14.1301 20.3687 14.5132 21.5637 14.5132V12.7223C20.8728 12.5759 20.266 12.2022 19.8179 11.6883C19.0959 11.218 18.5762 10.4642 18.4112 9.58594H16.7246L16.7215 18.8268C16.6841 19.8609 15.8314 20.6925 14.789 20.6925C14.1417 20.6925 13.5722 20.3717 13.2174 19.8858C12.6012 19.5588 12.178 18.9141 12.178 18.1697C12.178 17.1014 13.0463 16.2324 14.1137 16.2324C14.3128 16.2324 14.5058 16.2667 14.6863 16.3227V14.5163C12.3959 14.5661 10.5474 16.4473 10.5474 18.7552C10.5474 19.8702 10.9799 20.8856 11.6863 21.6456C12.3741 22.1283 13.2143 22.4149 14.1168 22.4149C16.4539 22.4149 18.3583 20.5087 18.3583 18.1697Z" fill="white"/>
</svg>
