<svg id='juicytwitter' width="29" height="29" viewBox="0 0 29 29" fill="none" xmlns="http://www.w3.org/2000/svg">
<rect x="1.31397" y="0.911628" width="26.3695" height="26.3695" rx="13.1847" fill="#1D9BF0"/>
<path d="M12.2214 20.6614C17.7403 20.6614 20.758 16.0882 20.758 12.1248C20.758 11.9941 20.758 11.8635 20.7517 11.739C21.3366 11.3159 21.8468 10.7871 22.2512 10.1835C21.7161 10.42 21.1375 10.5817 20.5277 10.6564C21.1499 10.2831 21.6228 9.6982 21.8468 8.99511C21.2682 9.33732 20.6273 9.5862 19.9429 9.72309C19.3953 9.13822 18.6176 8.77734 17.7527 8.77734C16.0977 8.77734 14.7537 10.1213 14.7537 11.7764C14.7537 12.0128 14.7786 12.243 14.8346 12.4608C12.3396 12.3363 10.1308 11.1417 8.64993 9.32488C8.39483 9.76664 8.2455 10.2831 8.2455 10.8306C8.2455 11.8697 8.77437 12.7905 9.58323 13.3256C9.09169 13.3132 8.63126 13.1763 8.22683 12.9523C8.22683 12.9648 8.22683 12.9772 8.22683 12.9896C8.22683 14.4456 9.25969 15.6527 10.6348 15.9327C10.3859 16.0011 10.1183 16.0384 9.84456 16.0384C9.65167 16.0384 9.46501 16.0198 9.27835 15.9824C9.6579 17.1771 10.7654 18.0419 12.0783 18.0668C11.0516 18.8694 9.75745 19.3485 8.35127 19.3485C8.10861 19.3485 7.87218 19.3361 7.63574 19.305C8.94859 20.1636 10.529 20.6614 12.2214 20.6614Z" fill="white"/>
<rect x="1.31397" y="0.911628" width="26.3695" height="26.3695" rx="13.1847" stroke="#392B5A" stroke-width="1.48143"/>
</svg>
