<svg width="28" height="28" viewBox="0 0 28 28" fill="none" xmlns="http://www.w3.org/2000/svg">
<path d="M14 21.5834C18.1881 21.5834 21.5833 18.1882 21.5833 14.0001C21.5833 9.81192 18.1881 6.41675 14 6.41675C9.8118 6.41675 6.41663 9.81192 6.41663 14.0001C6.41663 18.1882 9.8118 21.5834 14 21.5834Z" stroke="#F5D0FF" stroke-width="1.5" stroke-linecap="round" stroke-linejoin="round"/>
<path d="M22.33 22.3299L22.1784 22.1783M22.1784 5.82159L22.33 5.66992L22.1784 5.82159ZM5.67004 22.3299L5.82171 22.1783L5.67004 22.3299ZM14 2.42659V2.33325V2.42659ZM14 25.6666V25.5733V25.6666ZM2.42671 13.9999H2.33337H2.42671ZM25.6667 13.9999H25.5734H25.6667ZM5.82171 5.82159L5.67004 5.66992L5.82171 5.82159Z" stroke="#F5D0FF" stroke-width="2" stroke-linecap="round" stroke-linejoin="round"/>
</svg>
