<svg id="wingspan" width="140" height="50" viewBox="0 0 140 50" fill="none" xmlns="http://www.w3.org/2000/svg">
<path d="M1.40909 34.3636H3.09091L7.04545 44.0227H7.18182L11.1364 34.3636H12.8182V46H11.5V37.1591H11.3864L7.75 46H6.47727L2.84091 37.1591H2.72727V46H1.40909V34.3636ZM18.0298 46.2045C17.4768 46.2045 16.9749 46.1004 16.5241 45.892C16.0734 45.6799 15.7154 45.375 15.4503 44.9773C15.1851 44.5758 15.0526 44.0909 15.0526 43.5227C15.0526 43.0227 15.151 42.6174 15.348 42.3068C15.545 41.9924 15.8082 41.7462 16.1378 41.5682C16.4673 41.3902 16.831 41.2576 17.2287 41.1705C17.6302 41.0795 18.0336 41.0076 18.4389 40.9545C18.9692 40.8864 19.3991 40.8352 19.7287 40.8011C20.062 40.7633 20.3045 40.7008 20.456 40.6136C20.6113 40.5265 20.6889 40.375 20.6889 40.1591V40.1136C20.6889 39.553 20.5355 39.1174 20.2287 38.8068C19.9257 38.4962 19.4654 38.3409 18.848 38.3409C18.2079 38.3409 17.706 38.4811 17.3423 38.7614C16.9787 39.0417 16.723 39.3409 16.5753 39.6591L15.3026 39.2045C15.5298 38.6742 15.8329 38.2614 16.2116 37.9659C16.5942 37.6667 17.0109 37.4583 17.4616 37.3409C17.9162 37.2197 18.3632 37.1591 18.8026 37.1591C19.0829 37.1591 19.4048 37.1932 19.7685 37.2614C20.1359 37.3258 20.4901 37.4602 20.831 37.6648C21.1757 37.8693 21.4616 38.178 21.6889 38.5909C21.9162 39.0038 22.0298 39.5568 22.0298 40.25V46H20.6889V44.8182H20.6207C20.5298 45.0076 20.3783 45.2102 20.1662 45.4261C19.9541 45.642 19.6719 45.8258 19.3196 45.9773C18.9673 46.1288 18.5374 46.2045 18.0298 46.2045ZM18.2344 45C18.7647 45 19.2116 44.8958 19.5753 44.6875C19.9427 44.4792 20.2192 44.2102 20.4048 43.8807C20.5942 43.5511 20.6889 43.2045 20.6889 42.8409V41.6136C20.6321 41.6818 20.5071 41.7443 20.3139 41.8011C20.1245 41.8542 19.9048 41.9015 19.6548 41.9432C19.4086 41.9811 19.1681 42.0152 18.9332 42.0455C18.7022 42.072 18.5147 42.0947 18.3707 42.1136C18.0223 42.1591 17.6965 42.233 17.3935 42.3352C17.0942 42.4337 16.8518 42.5833 16.6662 42.7841C16.4844 42.9811 16.3935 43.25 16.3935 43.5909C16.3935 44.0568 16.5658 44.4091 16.9105 44.6477C17.259 44.8826 17.7003 45 18.2344 45ZM25.8182 40.75V46H24.4773V37.2727H25.7727V38.6364H25.8864C26.0909 38.1932 26.4015 37.8371 26.8182 37.5682C27.2348 37.2955 27.7727 37.1591 28.4318 37.1591C29.0227 37.1591 29.5398 37.2803 29.983 37.5227C30.4261 37.7614 30.7708 38.125 31.017 38.6136C31.2633 39.0985 31.3864 39.7121 31.3864 40.4545V46H30.0455V40.5455C30.0455 39.8598 29.8674 39.3258 29.5114 38.9432C29.1553 38.5568 28.6667 38.3636 28.0455 38.3636C27.6174 38.3636 27.2348 38.4564 26.8977 38.642C26.5644 38.8277 26.3011 39.0985 26.108 39.4545C25.9148 39.8106 25.8182 40.2424 25.8182 40.75ZM36.4048 46.2045C35.8518 46.2045 35.3499 46.1004 34.8991 45.892C34.4484 45.6799 34.0904 45.375 33.8253 44.9773C33.5601 44.5758 33.4276 44.0909 33.4276 43.5227C33.4276 43.0227 33.526 42.6174 33.723 42.3068C33.92 41.9924 34.1832 41.7462 34.5128 41.5682C34.8423 41.3902 35.206 41.2576 35.6037 41.1705C36.0052 41.0795 36.4086 41.0076 36.8139 40.9545C37.3442 40.8864 37.7741 40.8352 38.1037 40.8011C38.437 40.7633 38.6795 40.7008 38.831 40.6136C38.9863 40.5265 39.0639 40.375 39.0639 40.1591V40.1136C39.0639 39.553 38.9105 39.1174 38.6037 38.8068C38.3007 38.4962 37.8404 38.3409 37.223 38.3409C36.5829 38.3409 36.081 38.4811 35.7173 38.7614C35.3537 39.0417 35.098 39.3409 34.9503 39.6591L33.6776 39.2045C33.9048 38.6742 34.2079 38.2614 34.5866 37.9659C34.9692 37.6667 35.3859 37.4583 35.8366 37.3409C36.2912 37.2197 36.7382 37.1591 37.1776 37.1591C37.4579 37.1591 37.7798 37.1932 38.1435 37.2614C38.5109 37.3258 38.8651 37.4602 39.206 37.6648C39.5507 37.8693 39.8366 38.178 40.0639 38.5909C40.2912 39.0038 40.4048 39.5568 40.4048 40.25V46H39.0639V44.8182H38.9957C38.9048 45.0076 38.7533 45.2102 38.5412 45.4261C38.3291 45.642 38.0469 45.8258 37.6946 45.9773C37.3423 46.1288 36.9124 46.2045 36.4048 46.2045ZM36.6094 45C37.1397 45 37.5866 44.8958 37.9503 44.6875C38.3177 44.4792 38.5942 44.2102 38.7798 43.8807C38.9692 43.5511 39.0639 43.2045 39.0639 42.8409V41.6136C39.0071 41.6818 38.8821 41.7443 38.6889 41.8011C38.4995 41.8542 38.2798 41.9015 38.0298 41.9432C37.7836 41.9811 37.5431 42.0152 37.3082 42.0455C37.0772 42.072 36.8897 42.0947 36.7457 42.1136C36.3973 42.1591 36.0715 42.233 35.7685 42.3352C35.4692 42.4337 35.2268 42.5833 35.0412 42.7841C34.8594 42.9811 34.7685 43.25 34.7685 43.5909C34.7685 44.0568 34.9408 44.4091 35.2855 44.6477C35.634 44.8826 36.0753 45 36.6094 45ZM46.375 49.4545C45.7273 49.4545 45.1705 49.3712 44.7045 49.2045C44.2386 49.0417 43.8504 48.8258 43.5398 48.5568C43.233 48.2917 42.9886 48.0076 42.8068 47.7045L43.875 46.9545C43.9962 47.1136 44.1496 47.2955 44.3352 47.5C44.5208 47.7083 44.7746 47.8883 45.0966 48.0398C45.4223 48.1951 45.8485 48.2727 46.375 48.2727C47.0795 48.2727 47.661 48.1023 48.1193 47.7614C48.5777 47.4205 48.8068 46.8864 48.8068 46.1591V44.3864H48.6932C48.5947 44.5455 48.4545 44.7424 48.2727 44.9773C48.0947 45.2083 47.8371 45.4148 47.5 45.5966C47.1667 45.7746 46.7159 45.8636 46.1477 45.8636C45.4432 45.8636 44.8106 45.697 44.25 45.3636C43.6932 45.0303 43.2519 44.5455 42.9261 43.9091C42.6042 43.2727 42.4432 42.5 42.4432 41.5909C42.4432 40.697 42.6004 39.9186 42.9148 39.2557C43.2292 38.589 43.6667 38.0739 44.2273 37.7102C44.7879 37.3428 45.4356 37.1591 46.1705 37.1591C46.7386 37.1591 47.1894 37.2538 47.5227 37.4432C47.8598 37.6288 48.1174 37.8409 48.2955 38.0795C48.4773 38.3144 48.6174 38.5076 48.7159 38.6591H48.8523V37.2727H50.1477V46.25C50.1477 47 49.9773 47.6098 49.6364 48.0795C49.2992 48.553 48.8447 48.8996 48.2727 49.1193C47.7045 49.3428 47.072 49.4545 46.375 49.4545ZM46.3295 44.6591C46.8674 44.6591 47.322 44.536 47.6932 44.2898C48.0644 44.0436 48.3466 43.6894 48.5398 43.2273C48.733 42.7652 48.8295 42.2121 48.8295 41.5682C48.8295 40.9394 48.7348 40.3845 48.5455 39.9034C48.3561 39.4223 48.0758 39.0455 47.7045 38.7727C47.3333 38.5 46.875 38.3636 46.3295 38.3636C45.7614 38.3636 45.2879 38.5076 44.9091 38.7955C44.5341 39.0833 44.2519 39.4697 44.0625 39.9545C43.8769 40.4394 43.7841 40.9773 43.7841 41.5682C43.7841 42.1742 43.8788 42.7102 44.0682 43.1761C44.2614 43.6383 44.5455 44.0019 44.9205 44.267C45.2992 44.5284 45.7689 44.6591 46.3295 44.6591ZM56.2614 46.1818C55.4205 46.1818 54.6951 45.9962 54.0852 45.625C53.4792 45.25 53.0114 44.7273 52.6818 44.0568C52.3561 43.3826 52.1932 42.5985 52.1932 41.7045C52.1932 40.8106 52.3561 40.0227 52.6818 39.3409C53.0114 38.6553 53.4697 38.1212 54.0568 37.7386C54.6477 37.3523 55.3371 37.1591 56.125 37.1591C56.5795 37.1591 57.0284 37.2348 57.4716 37.3864C57.9148 37.5379 58.3182 37.7841 58.6818 38.125C59.0455 38.4621 59.3352 38.9091 59.5511 39.4659C59.767 40.0227 59.875 40.7083 59.875 41.5227V42.0909H53.1477V40.9318H58.5114C58.5114 40.4394 58.4129 40 58.2159 39.6136C58.0227 39.2273 57.7462 38.9223 57.3864 38.6989C57.0303 38.4754 56.6098 38.3636 56.125 38.3636C55.5909 38.3636 55.1288 38.4962 54.7386 38.7614C54.3523 39.0227 54.0549 39.3636 53.8466 39.7841C53.6383 40.2045 53.5341 40.6553 53.5341 41.1364V41.9091C53.5341 42.5682 53.6477 43.1269 53.875 43.5852C54.1061 44.0398 54.4261 44.3864 54.8352 44.625C55.2443 44.8598 55.7197 44.9773 56.2614 44.9773C56.6136 44.9773 56.9318 44.928 57.2159 44.8295C57.5038 44.7273 57.7519 44.5758 57.9602 44.375C58.1686 44.1705 58.3295 43.9167 58.4432 43.6136L59.7386 43.9773C59.6023 44.4167 59.3731 44.803 59.0511 45.1364C58.7292 45.4659 58.3314 45.7235 57.858 45.9091C57.3845 46.0909 56.8523 46.1818 56.2614 46.1818ZM68.7102 46L65.5284 34.3636H66.9602L69.392 43.8409H69.5057L71.983 34.3636H73.5739L76.0511 43.8409H76.1648L78.5966 34.3636H80.0284L76.8466 46H75.392L72.8239 36.7273H72.733L70.1648 46H68.7102ZM81.6023 46V37.2727H82.9432V46H81.6023ZM82.2841 35.8182C82.0227 35.8182 81.7973 35.7292 81.608 35.5511C81.4223 35.3731 81.3295 35.1591 81.3295 34.9091C81.3295 34.6591 81.4223 34.4451 81.608 34.267C81.7973 34.089 82.0227 34 82.2841 34C82.5455 34 82.7689 34.089 82.9545 34.267C83.1439 34.4451 83.2386 34.6591 83.2386 34.9091C83.2386 35.1591 83.1439 35.3731 82.9545 35.5511C82.7689 35.7292 82.5455 35.8182 82.2841 35.8182ZM86.7401 40.75V46H85.3991V37.2727H86.6946V38.6364H86.8082C87.0128 38.1932 87.3234 37.8371 87.7401 37.5682C88.1567 37.2955 88.6946 37.1591 89.3537 37.1591C89.9446 37.1591 90.4616 37.2803 90.9048 37.5227C91.348 37.7614 91.6927 38.125 91.9389 38.6136C92.1851 39.0985 92.3082 39.7121 92.3082 40.4545V46H90.9673V40.5455C90.9673 39.8598 90.7893 39.3258 90.4332 38.9432C90.0772 38.5568 89.5885 38.3636 88.9673 38.3636C88.5393 38.3636 88.1567 38.4564 87.8196 38.642C87.4863 38.8277 87.223 39.0985 87.0298 39.4545C86.8366 39.8106 86.7401 40.2424 86.7401 40.75ZM98.2812 49.4545C97.6335 49.4545 97.0767 49.3712 96.6108 49.2045C96.1449 49.0417 95.7566 48.8258 95.446 48.5568C95.1392 48.2917 94.8949 48.0076 94.7131 47.7045L95.7812 46.9545C95.9025 47.1136 96.0559 47.2955 96.2415 47.5C96.4271 47.7083 96.6809 47.8883 97.0028 48.0398C97.3286 48.1951 97.7547 48.2727 98.2812 48.2727C98.9858 48.2727 99.5672 48.1023 100.026 47.7614C100.484 47.4205 100.713 46.8864 100.713 46.1591V44.3864H100.599C100.501 44.5455 100.361 44.7424 100.179 44.9773C100.001 45.2083 99.7434 45.4148 99.4062 45.5966C99.0729 45.7746 98.6222 45.8636 98.054 45.8636C97.3494 45.8636 96.7169 45.697 96.1562 45.3636C95.5994 45.0303 95.1581 44.5455 94.8324 43.9091C94.5104 43.2727 94.3494 42.5 94.3494 41.5909C94.3494 40.697 94.5066 39.9186 94.821 39.2557C95.1354 38.589 95.5729 38.0739 96.1335 37.7102C96.6941 37.3428 97.3419 37.1591 98.0767 37.1591C98.6449 37.1591 99.0956 37.2538 99.429 37.4432C99.7661 37.6288 100.024 37.8409 100.202 38.0795C100.384 38.3144 100.524 38.5076 100.622 38.6591H100.759V37.2727H102.054V46.25C102.054 47 101.884 47.6098 101.543 48.0795C101.205 48.553 100.751 48.8996 100.179 49.1193C99.6108 49.3428 98.9782 49.4545 98.2812 49.4545ZM98.2358 44.6591C98.7737 44.6591 99.2282 44.536 99.5994 44.2898C99.9706 44.0436 100.253 43.6894 100.446 43.2273C100.639 42.7652 100.736 42.2121 100.736 41.5682C100.736 40.9394 100.641 40.3845 100.452 39.9034C100.262 39.4223 99.982 39.0455 99.6108 38.7727C99.2396 38.5 98.7813 38.3636 98.2358 38.3636C97.6676 38.3636 97.1941 38.5076 96.8153 38.7955C96.4403 39.0833 96.1581 39.4697 95.9688 39.9545C95.7831 40.4394 95.6903 40.9773 95.6903 41.5682C95.6903 42.1742 95.785 42.7102 95.9744 43.1761C96.1676 43.6383 96.4517 44.0019 96.8267 44.267C97.2055 44.5284 97.6752 44.6591 98.2358 44.6591ZM110.69 39.2273L109.486 39.5682C109.41 39.3674 109.298 39.1723 109.151 38.983C109.007 38.7898 108.81 38.6307 108.56 38.5057C108.31 38.3807 107.99 38.3182 107.599 38.3182C107.065 38.3182 106.62 38.4413 106.264 38.6875C105.912 38.9299 105.736 39.2386 105.736 39.6136C105.736 39.947 105.857 40.2102 106.099 40.4034C106.342 40.5966 106.721 40.7576 107.236 40.8864L108.531 41.2045C109.312 41.3939 109.893 41.6837 110.276 42.0739C110.658 42.4602 110.849 42.9583 110.849 43.5682C110.849 44.0682 110.705 44.5152 110.418 44.9091C110.134 45.303 109.736 45.6136 109.224 45.8409C108.713 46.0682 108.118 46.1818 107.44 46.1818C106.55 46.1818 105.813 45.9886 105.23 45.6023C104.647 45.2159 104.277 44.6515 104.122 43.9091L105.395 43.5909C105.516 44.0606 105.745 44.4129 106.082 44.6477C106.423 44.8826 106.868 45 107.418 45C108.043 45 108.539 44.8674 108.906 44.6023C109.277 44.3333 109.463 44.0114 109.463 43.6364C109.463 43.3333 109.357 43.0795 109.145 42.875C108.933 42.6667 108.607 42.5114 108.168 42.4091L106.713 42.0682C105.914 41.8788 105.327 41.5852 104.952 41.1875C104.58 40.786 104.395 40.2841 104.395 39.6818C104.395 39.1894 104.533 38.7538 104.81 38.375C105.09 37.9962 105.471 37.6989 105.952 37.483C106.437 37.267 106.986 37.1591 107.599 37.1591C108.463 37.1591 109.141 37.3485 109.634 37.7273C110.13 38.1061 110.482 38.6061 110.69 39.2273ZM112.868 49.2727V37.2727H114.163V38.6591H114.322C114.421 38.5076 114.557 38.3144 114.732 38.0795C114.91 37.8409 115.163 37.6288 115.493 37.4432C115.826 37.2538 116.277 37.1591 116.845 37.1591C117.58 37.1591 118.228 37.3428 118.788 37.7102C119.349 38.0777 119.786 38.5985 120.101 39.2727C120.415 39.947 120.572 40.7424 120.572 41.6591C120.572 42.5833 120.415 43.3845 120.101 44.0625C119.786 44.7367 119.351 45.2595 118.794 45.6307C118.237 45.9981 117.595 46.1818 116.868 46.1818C116.307 46.1818 115.858 46.089 115.521 45.9034C115.184 45.714 114.925 45.5 114.743 45.2614C114.561 45.0189 114.421 44.8182 114.322 44.6591H114.209V49.2727H112.868ZM114.186 41.6364C114.186 42.2955 114.283 42.8769 114.476 43.3807C114.669 43.8807 114.951 44.2727 115.322 44.5568C115.694 44.8371 116.148 44.9773 116.686 44.9773C117.247 44.9773 117.714 44.8295 118.089 44.5341C118.468 44.2348 118.752 43.8333 118.942 43.3295C119.135 42.822 119.232 42.2576 119.232 41.6364C119.232 41.0227 119.137 40.4697 118.947 39.9773C118.762 39.4811 118.48 39.089 118.101 38.8011C117.726 38.5095 117.254 38.3636 116.686 38.3636C116.141 38.3636 115.682 38.5019 115.311 38.7784C114.94 39.0511 114.66 39.4337 114.47 39.9261C114.281 40.4148 114.186 40.9848 114.186 41.6364ZM125.186 46.2045C124.633 46.2045 124.131 46.1004 123.68 45.892C123.23 45.6799 122.872 45.375 122.607 44.9773C122.341 44.5758 122.209 44.0909 122.209 43.5227C122.209 43.0227 122.307 42.6174 122.504 42.3068C122.701 41.9924 122.964 41.7462 123.294 41.5682C123.624 41.3902 123.987 41.2576 124.385 41.1705C124.786 41.0795 125.19 41.0076 125.595 40.9545C126.125 40.8864 126.555 40.8352 126.885 40.8011C127.218 40.7633 127.461 40.7008 127.612 40.6136C127.768 40.5265 127.845 40.375 127.845 40.1591V40.1136C127.845 39.553 127.692 39.1174 127.385 38.8068C127.082 38.4962 126.622 38.3409 126.004 38.3409C125.364 38.3409 124.862 38.4811 124.499 38.7614C124.135 39.0417 123.879 39.3409 123.732 39.6591L122.459 39.2045C122.686 38.6742 122.989 38.2614 123.368 37.9659C123.75 37.6667 124.167 37.4583 124.618 37.3409C125.072 37.2197 125.519 37.1591 125.959 37.1591C126.239 37.1591 126.561 37.1932 126.925 37.2614C127.292 37.3258 127.646 37.4602 127.987 37.6648C128.332 37.8693 128.618 38.178 128.845 38.5909C129.072 39.0038 129.186 39.5568 129.186 40.25V46H127.845V44.8182H127.777C127.686 45.0076 127.535 45.2102 127.322 45.4261C127.11 45.642 126.828 45.8258 126.476 45.9773C126.124 46.1288 125.694 46.2045 125.186 46.2045ZM125.391 45C125.921 45 126.368 44.8958 126.732 44.6875C127.099 44.4792 127.375 44.2102 127.561 43.8807C127.75 43.5511 127.845 43.2045 127.845 42.8409V41.6136C127.788 41.6818 127.663 41.7443 127.47 41.8011C127.281 41.8542 127.061 41.9015 126.811 41.9432C126.565 41.9811 126.324 42.0152 126.089 42.0455C125.858 42.072 125.671 42.0947 125.527 42.1136C125.179 42.1591 124.853 42.233 124.55 42.3352C124.25 42.4337 124.008 42.5833 123.822 42.7841C123.641 42.9811 123.55 43.25 123.55 43.5909C123.55 44.0568 123.722 44.4091 124.067 44.6477C124.415 44.8826 124.857 45 125.391 45ZM132.974 40.75V46H131.634V37.2727H132.929V38.6364H133.043C133.247 38.1932 133.558 37.8371 133.974 37.5682C134.391 37.2955 134.929 37.1591 135.588 37.1591C136.179 37.1591 136.696 37.2803 137.139 37.5227C137.582 37.7614 137.927 38.125 138.173 38.6136C138.42 39.0985 138.543 39.7121 138.543 40.4545V46H137.202V40.5455C137.202 39.8598 137.024 39.3258 136.668 38.9432C136.312 38.5568 135.823 38.3636 135.202 38.3636C134.774 38.3636 134.391 38.4564 134.054 38.642C133.721 38.8277 133.457 39.0985 133.264 39.4545C133.071 39.8106 132.974 40.2424 132.974 40.75Z" fill="currentColor"/>
<g clip-path="url(#clip0_2456_254137)">
<path d="M33.4146 11.2005C33.5943 10.8959 33.7166 10.7021 33.825 10.5008C35.5519 7.28263 37.2878 4.06959 38.9906 0.838706C39.3092 0.235863 39.7043 -0.00501892 40.3938 7.91155e-05C44.4722 0.0268438 48.5507 0.0128242 52.6304 0.0140987C53.6971 0.0140987 54.0323 0.586354 53.5225 1.53969C49.3128 9.40086 45.1018 17.262 40.8858 25.1194C40.7392 25.3934 40.5633 25.6904 40.3199 25.865C39.898 26.1696 39.4112 25.9465 39.0925 25.3526C37.8053 22.9591 36.5244 20.5617 35.2397 18.1669C34.6598 17.0862 34.0773 16.0066 33.4312 14.8061C33.2463 15.0966 33.1163 15.2764 33.0118 15.4701C31.2658 18.7252 29.5312 21.9879 27.7609 25.2315C27.5926 25.54 27.2307 25.8433 26.8993 25.9364C26.4035 26.0753 26.1843 25.6177 25.9778 25.2315C24.2368 21.9726 22.4908 18.7163 20.7447 15.4612C20.6478 15.2815 20.5331 15.1107 20.3623 14.8277C20.1903 15.1094 20.0666 15.2929 19.9634 15.4866C18.2262 18.7226 16.4904 21.9599 14.7558 25.1971C14.5544 25.5731 14.3836 25.9606 13.8496 25.972C13.3117 25.9822 13.1257 25.5986 12.9243 25.2239C8.68017 17.3079 4.43733 9.39067 0.199581 1.47341C-0.265615 0.604197 0.0937966 0.0153732 1.07899 0.0153732C5.20076 0.0128242 9.32125 0.0255693 13.443 0.00262814C14.0892 -0.00119539 14.4524 0.246059 14.7443 0.796648C16.4534 4.02371 18.1855 7.23929 19.9112 10.4574C20.0284 10.6754 20.1584 10.8869 20.3483 11.2145C20.5255 10.9239 20.6491 10.7404 20.7536 10.5454C22.492 7.30939 24.2164 4.06577 25.9791 0.843805C26.1613 0.509883 26.5182 0.139001 26.8611 0.054883C27.3696 -0.0700189 27.5888 0.442334 27.8016 0.841256C29.5554 4.11675 31.3129 7.39096 33.0717 10.6639C33.1495 10.8079 33.2476 10.9417 33.4133 11.203L33.4146 11.2005ZM13.7999 23.395C13.9579 23.1732 14.0267 23.0955 14.0752 23.0063C15.7932 19.8085 17.5189 16.6146 19.2063 13.4003C19.3287 13.167 19.265 12.7375 19.1311 12.4826C17.3162 9.04782 15.4682 5.63086 13.6469 2.19861C13.429 1.78822 13.1754 1.62126 12.7063 1.6238C9.45635 1.64165 6.20762 1.63145 2.95762 1.63655C2.7384 1.63655 2.51919 1.67733 2.18144 1.71175C6.07507 8.97773 9.91007 16.1341 13.8012 23.3937L13.7999 23.395ZM51.5662 1.73724C51.3278 1.68116 51.2475 1.6442 51.166 1.6442C47.7261 1.6391 44.2849 1.6289 40.845 1.65567C40.6194 1.65694 40.302 1.89782 40.1861 2.11322C38.3011 5.58243 36.4339 9.06184 34.5935 12.554C34.4648 12.7974 34.4661 13.2269 34.5935 13.4716C36.2427 16.6095 37.9263 19.7295 39.6049 22.852C39.6877 23.005 39.7986 23.1426 39.9656 23.3873C43.8592 16.1201 47.6929 8.96626 51.5662 1.73596V1.73724ZM26.9133 2.64469C26.74 2.90214 26.6367 3.02959 26.5615 3.17106C24.8754 6.3089 23.1828 9.4442 21.5272 12.5986C21.4023 12.8357 21.4406 13.2639 21.5718 13.5137C23.1994 16.6108 24.8588 19.6925 26.5118 22.7756C26.6062 22.9515 26.7247 23.1159 26.8661 23.3415C26.9936 23.1719 27.0803 23.0827 27.1363 22.9782C28.8506 19.783 30.5686 16.5891 32.2573 13.3799C32.3669 13.1709 32.3363 12.7949 32.2229 12.5744C31.3269 10.8411 30.3953 9.12684 29.4725 7.4088C28.6415 5.86028 27.8093 4.31429 26.912 2.64469H26.9133Z" fill="#F6554B"/>
</g>
<defs>
<clipPath id="clip0_2456_254137">
<rect width="53.7575" height="26" fill="white"/>
</clipPath>
</defs>
</svg>
