<svg id='juicyyoutube' width="29" height="30" viewBox="0 0 29 30" fill="none" xmlns="http://www.w3.org/2000/svg">
<rect x="1.38617" y="1.82269" width="26.5488" height="26.5488" rx="13.2744" fill="#FF0000"/>
<path d="M23.1841 10.8229C22.9791 10.0613 22.3786 9.46082 21.617 9.25579C20.2257 8.875 14.6604 8.875 14.6604 8.875C14.6604 8.875 9.09506 8.875 7.70373 9.24114C6.9568 9.44618 6.34169 10.0613 6.13665 10.8229C5.77051 12.2142 5.77051 15.0994 5.77051 15.0994C5.77051 15.0994 5.77051 17.9992 6.13665 19.3759C6.34169 20.1375 6.94216 20.7379 7.70373 20.943C9.1097 21.3238 14.6604 21.3238 14.6604 21.3238C14.6604 21.3238 20.2257 21.3238 21.617 20.9576C22.3786 20.7526 22.9791 20.1521 23.1841 19.3905C23.5503 17.9992 23.5503 15.114 23.5503 15.114C23.5503 15.114 23.5649 12.2142 23.1841 10.8229Z" fill="white"/>
<path d="M12.8882 17.7646L17.5162 15.0991L12.8882 12.4336V17.7646Z" fill="#FF0000"/>
<rect x="1.38617" y="1.82269" width="26.5488" height="26.5488" rx="13.2744" stroke="#392B5A" stroke-width="1.6593"/>
</svg>
