
<svg id='bookmark' width="52" height="52" viewBox="0 0 52 52" fill="none" xmlns="http://www.w3.org/2000/svg">
<mask id="mask0_851_114680" style="mask-type:luminance" maskUnits="userSpaceOnUse" x="11" y="9" width="29" height="36">
<path fill-rule="evenodd" clip-rule="evenodd" d="M11.0007 9.33252H39.3987V44.077H11.0007V9.33252Z" fill="white"/>
</mask>
<g mask="url(#mask0_851_114680)">
<path fill-rule="evenodd" clip-rule="evenodd" d="M19.9041 11.8328C15.6557 11.8328 13.5007 13.4694 13.5007 16.7011V41.2411C13.5007 41.3978 13.5907 41.4828 13.6657 41.5261C13.7407 41.5728 13.8591 41.6061 13.9957 41.5294L24.6324 35.5628C25.0124 35.3511 25.4774 35.3494 25.8591 35.5644L36.4041 41.5211C36.5424 41.6011 36.6607 41.5644 36.7357 41.5194C36.8107 41.4744 36.8991 41.3894 36.8991 41.2328V17.0061C36.8991 15.7278 36.8991 11.8328 30.5024 11.8328H19.9041ZM13.8324 44.0778C13.3407 44.0778 12.8491 43.9461 12.4024 43.6828C11.5241 43.1711 11.0007 42.2561 11.0007 41.2411V16.7011C11.0007 12.0178 14.2457 9.33276 19.9041 9.33276H30.5024C36.1557 9.33276 39.3991 12.1311 39.3991 17.0061V41.2328C39.3991 42.2494 38.8757 43.1644 37.9957 43.6761C37.1191 44.1894 36.0624 44.1994 35.1757 43.6994L25.2424 38.0878L15.2174 43.7111C14.7841 43.9544 14.3091 44.0778 13.8324 44.0778Z" fill="currentColor"/>
</g>
<path fill-rule="evenodd" clip-rule="evenodd" d="M31.233 23.0471H19.0364C18.3464 23.0471 17.7864 22.4871 17.7864 21.7971C17.7864 21.1071 18.3464 20.5471 19.0364 20.5471H31.233C31.923 20.5471 32.483 21.1071 32.483 21.7971C32.483 22.4871 31.923 23.0471 31.233 23.0471Z" fill="currentColor"/>
</svg>
