<svg id='bookmark_fill' width="52" height="52" viewBox="0 0 52 52" fill="none" xmlns="http://www.w3.org/2000/svg">
<mask id="mask0_749_98453" style="mask-type:luminance" maskUnits="userSpaceOnUse" x="11" y="9" width="29" height="36">
<path fill-rule="evenodd" clip-rule="evenodd" d="M11.0006 9.33252H39.3986V44.077H11.0006V9.33252Z" fill="white"/>
</mask>
<g mask="url(#mask0_749_98453)">
<path fill-rule="evenodd" clip-rule="evenodd" d="M19.9039 11.8328C15.6556 11.8328 13.5006 13.4694 13.5006 16.7011V41.2411C13.5006 41.3978 13.5906 41.4828 13.6656 41.5261C13.7406 41.5728 13.8589 41.6061 13.9956 41.5294L24.6323 35.5628C25.0123 35.3511 25.4773 35.3494 25.8589 35.5644L36.4039 41.5211C36.5423 41.6011 36.6606 41.5644 36.7356 41.5194C36.8106 41.4744 36.8989 41.3894 36.8989 41.2328V17.0061C36.8989 15.7278 36.8989 11.8328 30.5023 11.8328H19.9039ZM13.8323 44.0778C13.3406 44.0778 12.8489 43.9461 12.4023 43.6828C11.5239 43.1711 11.0006 42.2561 11.0006 41.2411V16.7011C11.0006 12.0178 14.2456 9.33276 19.9039 9.33276H30.5023C36.1556 9.33276 39.3989 12.1311 39.3989 17.0061V41.2328C39.3989 42.2494 38.8756 43.1644 37.9956 43.6761C37.1189 44.1894 36.0623 44.1994 35.1756 43.6994L25.2423 38.0878L15.2173 43.7111C14.7839 43.9544 14.3089 44.0778 13.8323 44.0778Z" fill="url(#paint0_linear_749_98453)"/>
</g>
<path fill-rule="evenodd" clip-rule="evenodd" d="M31.2329 23.0471H19.0363C18.3463 23.0471 17.7863 22.4871 17.7863 21.7971C17.7863 21.1071 18.3463 20.5471 19.0363 20.5471H31.2329C31.9229 20.5471 32.4829 21.1071 32.4829 21.7971C32.4829 22.4871 31.9229 23.0471 31.2329 23.0471Z" fill="url(#paint1_linear_749_98453)"/>
<path d="M12.5 40.5372V16C12.5 12.6397 15.8399 11.051 17.2334 10.5832C17.4096 10.5241 17.5943 10.5 17.7801 10.5H32.7805C32.9264 10.5 33.0733 10.5151 33.2147 10.5512C36.6493 11.4282 37.8367 14.5302 38 16L38.4369 40.4652C38.4646 42.0202 36.7848 43.0105 35.4377 42.2333L26.5002 37.077C25.8817 36.7202 25.1191 36.7198 24.5006 37.0766L15.4994 42.2696C14.1661 43.0388 12.5 42.0765 12.5 40.5372Z" fill="url(#paint2_linear_749_98453)"/>
<defs>
<linearGradient id="paint0_linear_749_98453" x1="11.0006" y1="9.33276" x2="42.4884" y2="12.4041" gradientUnits="userSpaceOnUse">
<stop stop-color="#D33AFF"/>
<stop offset="1" stop-color="#FF71A4"/>
</linearGradient>
<linearGradient id="paint1_linear_749_98453" x1="17.7863" y1="20.5471" x2="28.8108" y2="28.2814" gradientUnits="userSpaceOnUse">
<stop stop-color="#D33AFF"/>
<stop offset="1" stop-color="#FF71A4"/>
</linearGradient>
<linearGradient id="paint2_linear_749_98453" x1="12.5" y1="10.5" x2="41.3553" y2="13.1726" gradientUnits="userSpaceOnUse">
<stop stop-color="#D33AFF"/>
<stop offset="1" stop-color="#FF71A4"/>
</linearGradient>
</defs>
</svg>
