
<svg id='comment_icon' width="52" height="52" viewBox="0 0 52 52" fill="none" xmlns="http://www.w3.org/2000/svg">
<mask id="mask0_851_114678" style="mask-type:luminance" maskUnits="userSpaceOnUse" x="7" y="7" width="37" height="37">
<path fill-rule="evenodd" clip-rule="evenodd" d="M7.6665 7.66724H43.4882V43.4902H7.6665V7.66724Z" fill="white"/>
</mask>
<g mask="url(#mask0_851_114678)">
<path fill-rule="evenodd" clip-rule="evenodd" d="M16.1809 38.7922C17.1476 38.7922 18.0592 39.1589 19.0242 39.5472C24.9359 42.2806 31.9276 41.0372 36.4826 36.4839C42.4926 30.4706 42.4926 20.6889 36.4826 14.6789C33.5726 11.7689 29.7026 10.1672 25.5826 10.1672C21.4609 10.1672 17.5892 11.7706 14.6809 14.6806C10.1242 19.2339 8.88422 26.2256 11.5926 32.0806C11.9826 33.0456 12.3592 33.9856 12.3592 34.9622C12.3592 35.9372 12.0242 36.9189 11.7292 37.7856C11.4859 38.4989 11.1176 39.5756 11.3542 39.8122C11.5859 40.0522 12.6692 39.6739 13.3842 39.4289C14.2426 39.1356 15.2159 38.7989 16.1809 38.7922ZM25.5406 43.4906C22.9939 43.4906 20.4306 42.9522 18.0322 41.8422C17.3256 41.5589 16.6639 41.2922 16.1889 41.2922C15.6422 41.2956 14.9072 41.5489 14.1972 41.7939C12.7406 42.2939 10.9272 42.9172 9.58557 41.5806C8.2489 40.2422 8.86557 38.4339 9.36223 36.9789C9.60723 36.2622 9.8589 35.5222 9.8589 34.9622C9.8589 34.5022 9.63723 33.9156 9.29723 33.0706C6.17557 26.3289 7.6189 18.2039 12.9139 12.9122C16.2939 9.53057 20.7922 7.66724 25.5806 7.66724C30.3689 7.66724 34.8689 9.5289 38.2489 12.9106C45.2356 19.8972 45.2356 31.2639 38.2489 38.2506C34.8239 41.6772 30.2122 43.4906 25.5406 43.4906Z" fill="currentColor"/>
</g>
<path fill-rule="evenodd" clip-rule="evenodd" d="M32.1605 27.9383C31.2405 27.9383 30.4872 27.1933 30.4872 26.2716C30.4872 25.35 31.2255 24.605 32.1455 24.605H32.1605C33.0805 24.605 33.8272 25.35 33.8272 26.2716C33.8272 27.1933 33.0805 27.9383 32.1605 27.9383Z" fill="currentColor"/>
<path fill-rule="evenodd" clip-rule="evenodd" d="M25.4791 27.9383C24.5591 27.9383 23.8058 27.1933 23.8058 26.2716C23.8058 25.35 24.5425 24.605 25.4641 24.605H25.4791C26.3991 24.605 27.1458 25.35 27.1458 26.2716C27.1458 27.1933 26.3991 27.9383 25.4791 27.9383Z" fill="currentColor"/>
<path fill-rule="evenodd" clip-rule="evenodd" d="M18.7967 27.9383C17.8767 27.9383 17.1234 27.1933 17.1234 26.2716C17.1234 25.35 17.8617 24.605 18.7817 24.605H18.7967C19.7167 24.605 20.4634 25.35 20.4634 26.2716C20.4634 27.1933 19.7167 27.9383 18.7967 27.9383Z" fill="currentColor"/>
</svg>
