
<svg id='Dollar_tip' width="28" height="28" viewBox="0 0 28 28" fill="none" xmlns="http://www.w3.org/2000/svg">
<path d="M3.36637 10.3235C4.15114 7.16314 6.6571 4.71956 9.83573 4.01522L10.3652 3.89789C12.7595 3.36737 15.2407 3.36737 17.6349 3.89789L18.1644 4.01522C21.3431 4.71956 23.849 7.16314 24.6338 10.3235C25.2333 12.7378 25.2333 15.2622 24.6338 17.6765C23.849 20.8369 21.3431 23.2804 18.1644 23.9848L17.6349 24.1021C15.2407 24.6326 12.7594 24.6326 10.3652 24.1021L9.83573 23.9848C6.6571 23.2804 4.15114 20.8369 3.36637 17.6765C2.76687 15.2622 2.76687 12.7378 3.36637 10.3235Z" stroke="currentColor" stroke-width="1.5"/>
<path fill-rule="evenodd" clip-rule="evenodd" d="M14.0003 8.16675C14.4464 8.16675 14.808 8.5074 14.808 8.92762V9.5501H14.8974C16.3995 9.5501 17.5 10.7803 17.5 12.1555C17.5 12.5757 17.1384 12.9164 16.6923 12.9164C16.2462 12.9164 15.8846 12.5757 15.8846 12.1555C15.8846 11.4933 15.3779 11.0718 14.8974 11.0718H14.808V13.4672L15.8985 13.8408C16.8895 14.1802 17.5 15.1035 17.5 16.0812C17.5 17.3258 16.5026 18.45 15.1277 18.45H14.808V19.0725C14.808 19.4928 14.4464 19.8334 14.0003 19.8334C13.5542 19.8334 13.1926 19.4928 13.1926 19.0725V18.45H13.1026C11.6005 18.45 10.5 17.2198 10.5 15.8446C10.5 15.4244 10.8616 15.0837 11.3077 15.0837C11.7538 15.0837 12.1154 15.4244 12.1154 15.8446C12.1154 16.5067 12.6221 16.9282 13.1026 16.9282H13.1926V14.5331L12.1015 14.1593C11.1105 13.8198 10.5 12.8966 10.5 11.9189C10.5 10.6743 11.4974 9.5501 12.8723 9.5501H13.1926V8.92762C13.1926 8.5074 13.5542 8.16675 14.0003 8.16675ZM13.1926 11.0718H12.8723C12.519 11.0718 12.1154 11.3874 12.1154 11.9189C12.1154 12.3253 12.3667 12.6309 12.6535 12.7292L13.1926 12.9138V11.0718ZM14.808 15.0864V16.9282H15.1277C15.481 16.9282 15.8846 16.6127 15.8846 16.0812C15.8846 15.6748 15.6333 15.3691 15.3465 15.2709L14.808 15.0864Z" fill="currentColor"/>
</svg>