<svg xmlns="http://www.w3.org/2000/svg" width="21.095" height="17.86" viewBox="0 0 21.095 17.86" fill="currentColor">
  <g id="like_icon" data-name="_Icons / 8 Like" transform="translate(0.75 0.75)">
    <path id="_8_Like" data-name="8 Like" d="M10.436,1.571,9.8,2.207l-.637-.637a5.367,5.367,0,0,0-7.588,0h0a5.371,5.371,0,0,0-.2,7.38,57.506,57.506,0,0,0,7.71,7.118,1.184,1.184,0,0,0,1.433,0,57.257,57.257,0,0,0,7.71-7.118,5.371,5.371,0,0,0-.2-7.38h0A5.367,5.367,0,0,0,10.436,1.571Z" stroke="#000" stroke-width="1.5"/>
  </g>
</svg>
