
<svg id='share_post' width="52" height="52" viewBox="0 0 52 52" fill="none" xmlns="http://www.w3.org/2000/svg">
<path d="M41.7448 24.8078L30.108 13.2534C29.986 13.1324 29.8305 13.05 29.6613 13.0166C29.4921 12.9832 29.3168 13.0004 29.1574 13.0659C28.998 13.1314 28.8617 13.2424 28.7658 13.3848C28.6699 13.5271 28.6187 13.6945 28.6185 13.8658V19.9608C20.6939 20.4793 11.1066 27.9044 10.0099 37.3877C9.97426 37.6897 10.0355 37.9951 10.1849 38.2605C10.3344 38.5258 10.5643 38.7376 10.842 38.8657C11.1198 38.9937 11.4311 39.0315 11.7317 38.9736C12.0323 38.9156 12.3068 38.765 12.5161 38.5431C14.154 36.8085 20.0364 31.2841 28.6185 30.9273V36.9746C28.6187 37.1459 28.6699 37.3133 28.7658 37.4557C28.8617 37.598 28.998 37.709 29.1574 37.7745C29.3168 37.84 29.4921 37.8572 29.6613 37.8238C29.8305 37.7904 29.986 37.708 30.108 37.587L41.7448 26.0326C41.9082 25.8701 42 25.6499 42 25.4202C42 25.1906 41.9082 24.9703 41.7448 24.8078ZM30.364 34.8833V30.042C30.364 29.8121 30.2721 29.5917 30.1084 29.4292C29.9447 29.2667 29.7227 29.1754 29.4913 29.1754C25.4577 29.1754 21.5259 30.2225 17.808 32.2879C15.6409 33.4966 13.6448 34.9851 11.8718 36.7146C12.5554 32.8786 14.8042 29.2043 18.272 26.2767C21.7048 23.3895 25.897 21.665 29.4913 21.665C29.7227 21.665 29.9447 21.5737 30.1084 21.4112C30.2721 21.2487 30.364 21.0283 30.364 20.7985V15.9586L39.8931 25.4202L30.364 34.8833Z" fill="currentColor"/>
</svg>
