<svg id="bank_account_icon" xmlns="http://www.w3.org/2000/svg" width="40" height="25.005" viewBox="0 0 40 25.005" fill="currentColor"><defs></defs><g transform="translate(3 -126)"><g transform="translate(-19 -141)"><g transform="translate(16 187.552)"><path class="a" d="M40,102.308a2.262,2.262,0,0,1-2.364,2.143H2.364A2.262,2.262,0,0,1,0,102.308V81.594a2.262,2.262,0,0,1,2.364-2.143H37.635A2.262,2.262,0,0,1,40,81.594Z"/></g><g transform="translate(26 271)"><path class="b" fill="#fff" d="M56,176h1.37v6.165H56Zm0,0" transform="translate(-53.603 -168.465)"/><path class="b" fill="#fff" d="M.685,384H0v1.37H8.22V384Zm0,0" transform="translate(0 -367.561)"/><path class="b" fill="#fff" d="M34.58,352H16v1.37H34.58Zm0,0" transform="translate(-15.315 -336.931)"/><path class="b" fill="#fff" d="M42.74,320H40v1.37h2.74Zm0,0" transform="translate(-38.288 -306.301)"/><path class="b" fill="#fff" d="M42.74,145.37V144H40v1.37Zm0,0" transform="translate(-38.288 -137.835)"/><path class="b" fill="#fff" d="M376,176h1.37v6.349H376Zm0,0" transform="translate(-359.903 -168.465)"/><path class="b" fill="#fff" d="M360,145.37h2.74V144H360Zm0,0" transform="translate(-344.588 -137.835)"/><path class="b" fill="#fff" d="M160,176v6.165h1.37V176Zm0,0" transform="translate(-153.15 -168.465)"/><path class="b" fill="#fff" d="M144,320v1.37h2.74V320Zm0,0" transform="translate(-137.835 -306.301)"/><path class="b" fill="#fff" d="M144.685,145.37h2.055V144H144v1.37Zm0,0" transform="translate(-137.835 -137.835)"/><path class="b" fill="#fff" d="M272,176h1.37v6.349H272Zm0,0" transform="translate(-260.356 -168.465)"/><path class="b" fill="#fff" d="M256.685,145.37h2.055V144H256v1.37Zm0,0" transform="translate(-245.041 -137.835)"/><path class="b" fill="#fff" d="M2091.865-7765.836H2072v-3.425l9.932-2.738,9.932,2.738v3.424Zm-9.932-4.744-8.563,2.362v1.012h17.124v-1.012l-8.561-2.362Z" transform="translate(-2072 7772)"/><path class="b" fill="#fff" d="M217.37,56.685a.685.685,0,1,1-.685-.685A.685.685,0,0,1,217.37,56.685Zm0,0" transform="translate(-206.753 -53.603)"/><path class="b" fill="#fff" d="M1.031,384H0v1.37H12.373V384Zm0,0" transform="translate(7.535 -367.561)"/><path class="b" fill="#fff" d="M144,320v1.37h2.74V320Zm0,0" transform="translate(-133.083 -306.301)"/><path class="b" fill="#fff" d="M144,320v1.37h2.74V320Zm0,0" transform="translate(-128.588 -306.301)"/></g></g></g></svg>