<svg id="Layer_2" data-name="Layer 2" xmlns="http://www.w3.org/2000/svg" width="23.846" height="19.521" viewBox="0 0 23.846 19.521">
  <g id="Layer_2-2" data-name="Layer 2">
    <path id="Path_108539" data-name="Path 108539" d="M21.925,19.521h-20A1.921,1.921,0,0,1,0,17.6V1.921A1.921,1.921,0,0,1,1.921,0h20a1.921,1.921,0,0,1,1.921,1.921V17.6a1.921,1.921,0,0,1-1.921,1.921ZM1.921,1.5a.423.423,0,0,0-.423.423V17.6a.423.423,0,0,0,.423.423h20a.423.423,0,0,0,.419-.423V1.921a.423.423,0,0,0-.419-.423Z" fill="currentColor"/>
    <path id="Path_108540" data-name="Path 108540" d="M11,28.872h14.8a.633.633,0,0,0,.528-1.007l-2.041-2.771a.633.633,0,0,0-.955-.082l-2.1,2L16.358,20.4a.633.633,0,0,0-1.041.03L10.449,27.9a.633.633,0,0,0,.547.977Z" transform="translate(-6.473 -12.598)" fill="currentColor"/>
    <circle id="Ellipse_511" data-name="Ellipse 511" cx="2.221" cy="2.221" r="2.221" transform="translate(14.304 3.441)" fill="currentColor"/>
  </g>
</svg>
