<svg xmlns="http://www.w3.org/2000/svg" width="38" height="38" viewBox="0 0 38 38">
  <g id="Group_130983" data-name="Group 130983" transform="translate(5369 -5119)">
    <circle id="Ellipse_1793" data-name="Ellipse 1793" cx="19" cy="19" r="19" transform="translate(-5369 5119)" fill="#000" opacity="0.6"/>
    <g id="_Icons_Close_Copy_4" data-name="_Icons / Close Copy 4" transform="translate(-5347.855 5147.292) rotate(180)">
      <path id="Combined_Shape" data-name="Combined Shape" d="M0,15.311A2.028,2.028,0,0,1,2.072,13.33a1.983,1.983,0,1,1,0,3.962A2.028,2.028,0,0,1,0,15.311ZM0,8.646A2.028,2.028,0,0,1,2.072,6.665,2.028,2.028,0,0,1,4.145,8.646a2.028,2.028,0,0,1-2.073,1.981A2.028,2.028,0,0,1,0,8.646ZM0,1.981A2.028,2.028,0,0,1,2.072,0,2.028,2.028,0,0,1,4.145,1.981,2.029,2.029,0,0,1,2.072,3.963,2.028,2.028,0,0,1,0,1.981Z" transform="translate(0 0)" fill="currentColor"/>
    </g>
  </g>
</svg>
