<svg id='_Icons_Close_Copy_4' width="52" height="52" viewBox="0 0 52 52" fill="none" xmlns="http://www.w3.org/2000/svg">
<path d="M25.9941 39.3334C25.4425 39.3334 24.9722 39.137 24.5833 38.7442C24.1944 38.3514 24 37.8791 24 37.3275C24 36.7759 24.1964 36.3056 24.5892 35.9167C24.9821 35.5279 25.4543 35.3334 26.0059 35.3334C26.5575 35.3334 27.0278 35.5298 27.4167 35.9227C27.8056 36.3155 28 36.7877 28 37.3393C28 37.8909 27.8036 38.3612 27.4107 38.7501C27.0179 39.139 26.5457 39.3334 25.9941 39.3334ZM25.9941 28.0001C25.4425 28.0001 24.9722 27.8037 24.5833 27.4108C24.1944 27.018 24 26.5458 24 25.9942C24 25.4426 24.1964 24.9723 24.5892 24.5834C24.9821 24.1945 25.4543 24.0001 26.0059 24.0001C26.5575 24.0001 27.0278 24.1965 27.4167 24.5893C27.8056 24.9821 28 25.4544 28 26.006C28 26.5576 27.8036 27.0279 27.4107 27.4167C27.0179 27.8056 26.5457 28.0001 25.9941 28.0001ZM25.9941 16.6667C25.4425 16.6667 24.9722 16.4703 24.5833 16.0775C24.1944 15.6847 24 15.2125 24 14.6608C24 14.1092 24.1964 13.639 24.5892 13.2501C24.9821 12.8612 25.4543 12.6667 26.0059 12.6667C26.5575 12.6667 27.0278 12.8632 27.4167 13.256C27.8056 13.6488 28 14.121 28 14.6727C28 15.2243 27.8036 15.6945 27.4107 16.0834C27.0179 16.4723 26.5457 16.6667 25.9941 16.6667Z" fill="currentColor"/>
</svg>