<svg xmlns="http://www.w3.org/2000/svg" width="26.156" height="26.421" viewBox="0 0 26.156 26.421">
  <g id="noun_live_2146857" transform="translate(-24.956 8.437) rotate(-42)">
    <g id="Group_40751" data-name="Group 40751" transform="translate(16.488 15.125)">
      <path id="Path_155925" data-name="Path 155925" d="M78.906,15.647a1.439,1.439,0,0,0-2.218,0,1.913,1.913,0,0,0,0,2.5,17.415,17.415,0,0,1,0,22.554,1.913,1.913,0,0,0,0,2.5,1.5,1.5,0,0,0,1.091.532,1.365,1.365,0,0,0,1.091-.532A21.284,21.284,0,0,0,78.906,15.647Z" transform="translate(-71.027 -15.125)" fill="currentColor"/>
      <path id="Path_155926" data-name="Path 155926" d="M64.606,29.887a1.375,1.375,0,0,0-2.218,0,2.182,2.182,0,0,0,0,2.689,9.58,9.58,0,0,1,0,11.727,2.182,2.182,0,0,0,0,2.689,1.46,1.46,0,0,0,1.091.573,1.331,1.331,0,0,0,1.091-.573A13.894,13.894,0,0,0,64.606,29.887Z" transform="translate(-61.925 -24.163)" fill="currentColor"/>
    </g>
    <circle id="Ellipse_1659" data-name="Ellipse 1659" cx="2.654" cy="2.654" r="2.654" transform="translate(9.499 26.746)" fill="currentColor"/>
  </g>
</svg>
