<svg xmlns="http://www.w3.org/2000/svg" width="38" height="38" viewBox="0 0 38 38">
  <g id="Group_130984" data-name="Group 130984" transform="translate(5405 -5111)">
    <circle id="Ellipse_1793" data-name="Ellipse 1793" cx="19" cy="19" r="19" transform="translate(-5405 5111)" fill="#7a9296" opacity="0.6"/>
    <path id="export-variant" d="M11.186,1,7.593,3.956h2.695v6.65h1.8V3.956h2.695m1.8,13.3H5.8A1.66,1.66,0,0,1,4,15.778V6.911A1.661,1.661,0,0,1,5.8,5.433H8.491V6.911H5.8v8.867H16.575V6.911H13.88V5.433h2.695a1.661,1.661,0,0,1,1.8,1.478v8.867A1.661,1.661,0,0,1,16.575,17.256Z" transform="translate(-5397 5120)" fill="currentColor"/>
  </g>
</svg>
